<?xml version="1.0" standalone="no"?>
<!DOCTYPE svg PUBLIC "-//W3C//DTD SVG 1.1//EN" "http://www.w3.org/Graphics/SVG/1.1/DTD/svg11.dtd" >
<svg xmlns="http://www.w3.org/2000/svg" xmlns:xlink="http://www.w3.org/1999/xlink" version="1.1">
<metadata>
Created by FontForge 20170731 at Sun Apr  1 23:28:24 2001
 By Aleksey,,,
(c)GeM/FF
</metadata>
<defs>
<font id="Dumbledor1Wide" horiz-adv-x="770" >
  <font-face 
    font-family="Dumbledor 1 Wide"
    font-weight="400"
    font-stretch="normal"
    units-per-em="2048"
    panose-1="0 0 4 0 0 0 0 0 0 0"
    ascent="1638"
    descent="-410"
    x-height="688"
    cap-height="1229"
    bbox="-84 -446 2538 1637"
    underline-thickness="20"
    underline-position="-163"
    unicode-range="U+0020-2122"
  />
<missing-glyph horiz-adv-x="1024" 
d="M128 0v1637h768v-1637h-768zM256 128h512v1381h-512v-1381z" />
    <glyph glyph-name=".notdef" horiz-adv-x="1024" 
d="M128 0v1637h768v-1637h-768zM256 128h512v1381h-512v-1381z" />
    <glyph glyph-name=".null" horiz-adv-x="0" 
 />
    <glyph glyph-name="nonmarkingreturn" 
 />
    <glyph glyph-name="space" unicode=" " 
 />
    <glyph glyph-name="exclam" unicode="!" horiz-adv-x="513" 
d="M468 308h-384l65 46q28 24 28 57v531q0 34 -46 65q-65 44 -79 44l-5 48q74 9 206 69q12 11 67 36l80 37q-6 -52 -10 -108l-1 -20q-1 -11 -6 -53q-3 -37 -3 -52v-597q0 -37 88 -103zM422 99q0 -52 -48 -82q-41 -25 -96 -25q-56 0 -96 25q-48 29 -48 82t48 82q40 24 96 24
q55 0 96 -25q48 -29 48 -81z" />
    <glyph glyph-name="quotedbl" unicode="&#x22;" horiz-adv-x="467" 
d="M421 1233q0 -25 -8 -50q-39 -124 -95 -124q-19 16 -19 24q-23 38 -48 148q0 51 84 51q86 0 86 -49zM218 1233q0 -25 -7 -50q-39 -124 -98 -124q-34 58 -66 172q0 51 87 51q84 0 84 -49z" />
    <glyph glyph-name="numbersign" unicode="#" horiz-adv-x="1050" 
d="M1005 642q-105 -47 -117 -98l-189 -1l-13 -63l288 2q-104 -47 -117 -98l-189 -1l-43 -221q-35 62 -112 75l29 145h-82l-43 -221q-35 62 -112 75l29 145l-287 -1q86 35 117 97l188 1l13 63l-287 -1q86 35 117 97l188 1l43 221q47 -72 112 -75l-28 -145h81l43 221
q47 -72 112 -75l-28 -145zM573 542h-82l-13 -63h82z" />
    <glyph glyph-name="dollar" unicode="$" horiz-adv-x="1304" 
d="M1258 362q0 -185 -221 -283q-65 -29 -141 -48q0 -70 37 -166h-193q33 99 33 131v13q-87 -11 -183 -11h-5q0 -38 36 -133h-193q33 99 33 131v8q-198 16 -414 84q75 130 79 145q9 30 10 162q137 -210 329 -273v423l-136 27q-272 77 -272 269q0 154 185 271q118 75 219 99
q-9 59 -42 59q-17 0 -47 -16q30 107 93 164q31 27 117 67v-259q55 3 125 3q31 0 64 -1q-12 42 -40 42q-17 0 -47 -16q30 107 93 164q31 27 117 67v-268q139 -19 276 -65l-30 -51q-26 -29 -42 -66l-2 -25q2 -34 2 -52q0 -13 -1 -18q-8 -16 -61 -48q-39 121 -142 182v-424
l93 -19q271 -84 271 -269zM777 675v444q-66 15 -149 15q-24 0 -46 -1v-416zM465 744v367q-169 -56 -169 -212q0 -106 169 -155zM1020 270q0 109 -126 172v-317q126 43 126 145zM777 101v382l-195 39v-425q29 -3 61 -3q75 0 134 7z" />
    <glyph glyph-name="percent" unicode="%" horiz-adv-x="1540" 
d="M835 961q0 -137 -121 -210q-101 -60 -247 -60q-149 0 -248 59q-120 72 -120 211q0 137 121 210q101 62 247 62q148 0 248 -60q120 -73 120 -212zM1423 1229l-993 -1046q-60 -64 -80 -88q-43 -52 -61 -96h-242q96 60 167 132l80 80l698 736q121 127 121 181v5l-21 26
l-17 30q0 40 65 40h283zM1495 256q0 -137 -121 -210q-102 -61 -248 -61q-147 0 -247 61q-120 72 -120 210q0 135 121 210q102 62 246 62q148 0 248 -60q121 -73 121 -212zM658 961q0 89 -51.5 144.5t-139.5 55.5q-89 0 -140 -55.5t-51 -144.5q0 -200 191 -200q88 0 140 57
q51 54 51 143zM1318 256q0 90 -51 145t-141 55q-88 0 -139.5 -55.5t-51.5 -144.5q0 -91 50.5 -146t140.5 -55q88 0 140 56.5t52 144.5z" />
    <glyph glyph-name="ampersand" unicode="&#x26;" horiz-adv-x="1394" 
d="M1348 512q-122 -155 -186 -180l-15 -6l29 -1q0 -168 -178 -266q-156 -86 -386 -86q-227 0 -386 86q-179 97 -179 266t197 271q40 21 117 42q-213 76 -213 257q0 137 147 221q133 76 317 76q176 0 301 -61q162 -79 162 -236q0 -180 -214 -258q-421 -62 -485 -118
q-91 -79 -91 -194q0 -131 101 -206q90 -66 226 -66q130 0 221 65q102 72 108 196q-23 4 -61 12q-92 19 -138 19q-62 0 -132 -18l-164 -55q81 86 121 114q86 60 197 60q55 0 195 -29q14 -3 48 -8q14 -2 55 -2q83 0 160 34q13 6 126 71zM851 895q0 89 -59 153q-42 44 -84 56
q-28 8 -96 8q-239 0 -239 -217q0 -104 68 -163q65 -55 171 -55q239 0 239 218z" />
    <glyph glyph-name="quotesingle" unicode="'" horiz-adv-x="264" 
d="M218 1233q0 -28 -23 -93q-10 -28 -18 -53q-18 -28 -65 -28q-34 60 -65 172q0 51 86 51q85 0 85 -49z" />
    <glyph glyph-name="parenleft" unicode="(" horiz-adv-x="559" 
d="M513 1507l-106 -171q-157 -252 -157 -610q0 -361 196 -712q-95 -50 -126 -205q-78 80 -154 242q-119 257 -119 554q0 287 80 500q95 251 386 402z" />
    <glyph glyph-name="parenright" unicode=")" horiz-adv-x="559" 
d="M513 711q0 -309 -81 -503q-108 -256 -385 -399l106 171q158 252 158 610q0 361 -197 712q93 50 126 205q79 -81 154 -242q119 -256 119 -554z" />
    <glyph glyph-name="asterisk" unicode="*" horiz-adv-x="785" 
d="M740 1058q-74 -88 -102 -108q-60 -44 -153 -44q-12 0 -26 2q1 -2 10 -14q30 -41 91 -66q12 -5 111 -36q-124 2 -168 10q-92 17 -133 70q-26 -34 -31 -67l-15 -101q-44 75 -52 101q-7 21 -7 41q0 48 38 87q-17 2 -29 2q-47 0 -101 -13l-126 -41q63 63 93 84q65 44 151 44
h14q-5 7 -11 19q-22 29 -67 59l-110 60q109 -10 144 -18q83 -19 128 -75q10 -13 20 -34l12 10q5 4 22 26q33 41 33 91q0 8 -13 88q87 -116 84 -158q-3 -53 -48 -96h21q65 0 122 25q9 4 98 52z" />
    <glyph glyph-name="plus" unicode="+" horiz-adv-x="983" 
d="M844 692l74 -115h-366v-301l-165 132v169h-254l-89 115h343v296l165 -131v-165h292z" />
    <glyph glyph-name="comma" unicode="," horiz-adv-x="360" 
d="M315 48q0 -76 -120 -171q-56 -44 -140 -51l6 13q85 83 86 155h-69q-27 0 -31 23v37q0 90 136 90q132 0 132 -96z" />
    <glyph glyph-name="hyphen" unicode="-" horiz-adv-x="1001" 
d="M955 555q-96 -47 -98 -97h-810q79 35 99 97h809z" />
    <glyph glyph-name="hyphen" unicode="&#x2010;" horiz-adv-x="1001" 
d="M955 555q-96 -47 -98 -97h-810q79 35 99 97h809z" />
    <glyph glyph-name="period" unicode="." horiz-adv-x="360" 
d="M315 67q0 -70 -132 -80q-123 0 -136 78q0 75 132 79q120 4 136 -77z" />
    <glyph glyph-name="slash" unicode="/" horiz-adv-x="1434" 
d="M1388 1434l-1119 -1479h-222q98 82 199 211l763 982q90 115 92 176l-3 11l-23 27l-31 49q47 23 67 23h277z" />
    <glyph glyph-name="zero" unicode="0" horiz-adv-x="1468" 
d="M1422 574q0 -284 -214 -448q-197 -150 -474 -150q-206 0 -370 81q-182 90 -265 263q-52 108 -52 254q0 281 214 447q195 151 473 151q203 0 370 -82q185 -91 267 -260q51 -103 51 -256zM1160 574q0 189 -90 330q-116 181 -336 181q-168 0 -288 -122q-137 -139 -137 -389
q0 -185 91 -329q115 -182 334 -182q218 0 335 182q91 142 91 329zM987 726q0 -25 -7 -40q-23 -55 -79 -98q-12 -9 -40 -25q8 -4 19 -13q79 -59 85 -150q2 -38 -20 -146l-65 128q-36 54 -77 85q-18 14 -66 38q-45 -22 -66 -38q-43 -33 -78 -85l-65 -128q-21 116 -20 146
q5 90 85 150q8 6 19 13q-24 14 -39 25q-57 44 -79 98q-7 16 -7 40q0 63 41 188q18 -99 24 -118q24 -66 82 -111q34 -26 41 -29l62 -30l62 30q7 3 41 29q59 46 82 111q2 6 23 118q42 -125 42 -188z" />
    <glyph glyph-name="one" unicode="1" horiz-adv-x="643" 
d="M598 0h-398q59 54 70 89l8 82v820q-5 -1 -9 -1l-53 6h-30l-139 -12l56 33q3 2 218 91q137 56 203 106q-8 -25 -12 -27v1q4 -19 4 -119v-944q0 -20 5 -41q0 -24 77 -84z" />
    <glyph glyph-name="two" unicode="2" horiz-adv-x="1318" 
d="M1273 257l-141 -257l-1085 -3v48q15 0 214 134q170 114 232 159q399 291 399 477q0 135 -108 209q-94 65 -235 65q-40 0 -95 -15q-67 -18 -67 -42q0 -5 2 -8q-35 -54 -35 -124q0 -73 37 -149l-110 10l-122 -5l-75 -12q0 67 42 167q49 119 124 161q186 106 431 106
q169 0 288 -52q161 -69 161 -216q0 -349 -726 -770h464q123 0 208 35q30 12 197 82z" />
    <glyph glyph-name="three" unicode="3" horiz-adv-x="1212" 
d="M1166 327q0 -158 -173 -256q-157 -89 -368 -89q-208 0 -395 66l-183 105q197 16 379 101v-60q0 -65 54 -101q47 -31 115 -31q94 0 178 56q115 76 115 209q0 171 -157 251q-116 59 -368 81q273 55 334 79q164 65 164 170q0 98 -116 151q-90 41 -200 41q-60 0 -123 -42
q-70 -47 -70 -104q0 -16 7 -31l-138 16h-30q-19 0 -105 9q179 232 573 232q158 0 291 -50q165 -62 165 -169q0 -136 -140 -212q-35 -19 -159 -58q350 -134 350 -364z" />
    <glyph glyph-name="four" unicode="4" horiz-adv-x="1417" 
d="M1371 504l-115 -111h-186v-268q0 -20 5 -40q0 -25 77 -85h-406q68 53 78 89l8 82v222h-785q125 118 166 174q124 167 124 324q0 92 -59 136l-191 67q35 26 53 32l-6 -1q117 52 253 52q66 -30 104 -128q32 -79 32 -155q0 -40 -10 -72q-54 -193 -148 -318h467v225
q0 47 -65 87l-104 64q153 16 237 49l219 112l-6 -82q-43 -106 -43 -163v-292h301z" />
    <glyph glyph-name="five" unicode="5" horiz-adv-x="1244" 
d="M1199 1172q-149 -80 -171 -104q-27 -30 -65 -154q-111 92 -140 108q-77 43 -182 43h-260v-292q80 13 170 13q245 0 398 -71q209 -96 209 -312q0 -194 -158 -307q-111 -79 -198 -100q-58 -14 -195 -14q-240 0 -420 69l-140 105q136 16 199 52l89 69q62 -145 132 -184
q56 -31 176 -31q137 0 215 115q62 92 62 208q0 306 -369 306q-196 0 -416 -87v441q0 26 26 128l168 -1h870z" />
    <glyph glyph-name="six" unicode="6" horiz-adv-x="1179" 
d="M1134 1188l-117 -65q-52 -29 -90 -108q-138 60 -251 60q-231 0 -316 -217q-48 -123 -48 -260q0 -49 5 -95q50 -440 311 -435q135 3 204 102q48 69 48 156q0 117 -74 202t-192 82q-59 -1 -133 -45q-103 -60 -112 -155q-12 38 -12 73q0 109 100 170q82 51 199 53
q182 4 308 -71q151 -89 151 -260q0 -115 -106 -230q-141 -151 -372 -157q-266 -6 -425 155q-135 137 -160 354q-5 46 -5 79q0 228 162 393q201 203 555 211z" />
    <glyph glyph-name="seven" unicode="7" horiz-adv-x="1420" 
d="M1374 1176q-192 -110 -347 -288q-120 -137 -153 -243q-101 -312 -101 -637q-201 -1 -338 -144q0 352 232 795q126 241 304 378h-422q-158 0 -260 -33l-225 -97q9 11 9 20q0 8 -13 24l-13 16q0 7 18 15q99 42 170 107q59 53 68 88z" />
    <glyph glyph-name="eight" unicode="8" horiz-adv-x="1222" 
d="M1176 325q0 -168 -178 -266q-156 -86 -386 -86q-227 0 -386 86q-179 97 -179 266t197 271q40 21 117 42q-213 76 -213 257q0 137 147 221q133 76 317 76q176 0 301 -61q162 -79 162 -236q0 -178 -213 -256q314 -90 314 -314zM851 895q0 89 -59 153q-42 44 -84 56
q-28 8 -96 8q-239 0 -239 -217q0 -104 68 -163q65 -55 171 -55q239 0 239 218zM939 325q0 129 -102 204q-91 68 -225 68q-136 0 -226 -66q-101 -75 -101 -206t101 -206q90 -66 226 -66q134 0 225 68q102 75 102 204z" />
    <glyph glyph-name="nine" unicode="9" horiz-adv-x="1179" 
d="M1134 600q0 -228 -163 -393q-200 -203 -555 -211l-369 -8l117 65q51 28 89 108q137 -60 251 -60q231 0 316 217q48 122 48 260q0 50 -5 95q-51 440 -311 435q-138 -3 -205 -102q-46 -69 -46 -155q0 -120 72 -202q76 -86 194 -83q59 1 132 45q102 60 112 155
q12 -38 12 -73q0 -109 -99 -170q-83 -51 -200 -53q-181 -4 -308 71q-151 89 -151 260q0 113 108 230q139 151 370 157q267 6 425 -155q134 -136 160 -354q6 -44 6 -79z" />
    <glyph glyph-name="colon" unicode=":" horiz-adv-x="360" 
d="M315 573q0 -86 -133 -97q-122 0 -135 95q0 86 132 97q120 0 136 -95zM315 85q0 -85 -132 -98q-123 0 -136 96q0 86 132 97q120 0 136 -95z" />
    <glyph glyph-name="semicolon" unicode=";" horiz-adv-x="360" 
d="M315 572q0 -95 -133 -98q-122 -3 -135 96q0 87 132 98q120 0 136 -96zM315 48q0 -76 -120 -171q-56 -44 -140 -51l6 13q85 83 86 155h-69q-27 0 -31 23v37q0 90 136 90q132 0 132 -96z" />
    <glyph glyph-name="less" unicode="&#x3c;" horiz-adv-x="850" 
d="M805 194l-227 -40q-59 117 -267 226l-264 138q388 95 470 329l255 27q-113 -261 -357 -355q316 -178 390 -325z" />
    <glyph glyph-name="equal" unicode="=" horiz-adv-x="1001" 
d="M955 635q-96 -47 -98 -97h-810q79 35 99 97h809zM955 475q-96 -47 -98 -97h-810q79 35 99 97h809z" />
    <glyph glyph-name="greater" unicode="&#x3e;" horiz-adv-x="850" 
d="M805 514q-389 -94 -471 -328l-253 -27q111 262 357 355q-317 178 -391 325l226 40q55 -114 269 -227z" />
    <glyph glyph-name="question" unicode="?" horiz-adv-x="1039" 
d="M993 911q0 -127 -104 -224q-59 -55 -196 -126q-107 -55 -111 -78q-11 -66 -9 -91q4 -43 39 -121h-67q-50 0 -116 -2q-33 -1 -103 -1q44 38 44 86q0 16 -7.5 48t-7.5 48q0 48 61 78q168 82 242 156q96 97 96 227q0 114 -75 153q-52 28 -180 28q-103 0 -174 -58
q-75 -62 -75 -163q0 -55 45 -84q36 -23 144 -50q-43 -4 -80 -4q-120 0 -203 40q-109 53 -109 160q0 110 149 179q130 60 282 60q515 0 515 -261zM625 98q0 -51 -49 -81q-41 -25 -95 -25q-56 0 -96 24q-48 29 -48 82q0 107 144 107q55 0 96 -25q48 -30 48 -82z" />
    <glyph glyph-name="at" unicode="@" horiz-adv-x="1897" 
d="M1851 529q0 -141 -79 -256q-93 -135 -263 -139q-161 -4 -240 23q-49 16 -85 57q-15 32 -41 76q-156 -89 -277 -89q-130 0 -220 42q-120 56 -120 171q0 198 232 246q206 43 265 63q85 29 122 83q-108 49 -248 49q-117 0 -298 -37q160 114 408 114q123 0 254 -34
q87 -32 87 -108v-480q0 -72 61 -74q125 5 133 82q19 194 19 225q0 238 -178 371q-160 119 -407 119q-263 0 -437 -120q-200 -138 -200 -390q0 -458 791 -458h139l114 -18q-186 -85 -386 -85q-378 0 -647 140q-303 157 -303 421q0 268 284 442q270 165 645 165
q362 0 610 -159q265 -170 265 -442zM1145 398v316q-61 -49 -140 -70q-161 -43 -181 -53q-73 -37 -73 -131q0 -135 171 -135q105 0 223 73z" />
    <glyph glyph-name="A" unicode="A" horiz-adv-x="1932" 
d="M1886 -1h-438q-40 104 -140 264l-145 230q-183 -28 -481 -183q-330 -172 -330 -289q0 -11 5 -21l-91 -1l-219 1q85 46 348 442q125 187 394 601q3 10 3 20q0 60 -84 109q-45 21 -89 43l251 14q113 6 145 -41q107 -156 277 -454q179 -314 272 -456q74 -112 138 -170
q77 -69 184 -109zM1126 549l-252 372l-423 -619q85 75 325 151q50 16 350 96z" />
    <glyph glyph-name="B" unicode="B" horiz-adv-x="1355" 
d="M1309 437q0 -264 -396 -374q-173 -48 -405 -60l3 -3h-63q-19 0 -59 -1t-60 -1h-60l-45 2h-111q66 52 74 79l11 92v813q0 75 -58 130q-67 64 -91 64l-2 48l40 2q177 9 270 -60l28 -34q195 120 421 120q141 0 245 -49q136 -65 136 -190q0 -135 -137 -246q259 -108 259 -332
zM909 999q0 137 -202 137q-85 0 -161 -23q-99 -30 -109 -83l1 -13v-163q101 -1 329 -17q23 -2 81 -11q61 73 61 173zM1031 433q0 165 -193 262q-156 79 -331 79q-68 0 -69 -9v-656q0 -16 7 -31q4 -1 11 0q30 4 54 4q182 0 328 74q193 97 193 277z" />
    <glyph glyph-name="C" unicode="C" horiz-adv-x="1826" 
d="M1781 1229l-94 -59q-66 -53 -66 -97v-42q-5 -10 -5 -81q-187 183 -546 183q-295 0 -495 -110q-250 -138 -250 -409q0 -225 160 -380q176 -171 473 -171q377 0 655 319v-250q-247 -165 -687 -165q-365 0 -596 138q-283 169 -283 509q0 304 326 471q281 144 697 144h711z
" />
    <glyph glyph-name="D" unicode="D" horiz-adv-x="1613" 
d="M1568 611q0 -311 -269 -489q-233 -155 -559 -155q-117 0 -242 24q-146 28 -213 79v-70l-238 -1v1013q231 115 431 181q110 36 331 36q311 0 521 -150q238 -169 238 -468zM1290 611q0 212 -128 355q-149 167 -422 167q-181 0 -311 -74q-144 -82 -144 -216v-678
q75 -49 221 -78q120 -24 244 -24q250 0 404 184q136 161 136 364z" />
    <glyph glyph-name="E" unicode="E" horiz-adv-x="1213" 
d="M1167 29q-23 -33 -59 -33h-1012l-48 35l108 46q35 28 44 45q0 13 4 40l1 2v902q0 43 -50 82l-108 46l48 35h1011q37 0 60 -33q-60 -74 -60 -101l12 -68l-78 19q-121 70 -306 95l-65 4l-66 2l-108 -2l-52 -4v-389h667l-96 -125l-131 -96q-119 123 -362 131q-6 0 -30 1
q-50 2 -48 -10l2 -569l52 -4l107 -2l67 2l65 4q184 25 305 95l78 19l-11 -68q0 -27 59 -101z" />
    <glyph glyph-name="F" unicode="F" horiz-adv-x="1149" 
d="M1166 1196q-60 -74 -60 -101l12 -68l-78 19q-121 70 -306 95l-65 4l-66 2l-108 -2l-52 -4v-389h667l-96 -125l-131 -96q-119 123 -362 131q-6 0 -30 1q-48 1 -48 -10v-691l-49 -14l-40 -19l-65 -43l-84 -51v1231q0 43 -50 82l-108 46l48 35h1011q37 0 60 -33z" />
    <glyph glyph-name="G" unicode="G" horiz-adv-x="1826" 
d="M1781 1229l-94 -59q-66 -53 -66 -97v-42q-5 -10 -5 -81q-187 183 -546 183q-295 0 -495 -110q-250 -138 -250 -409q0 -225 160 -380q176 -171 473 -171q190 0 333 65q179 82 179 185q0 20 -7 58.5t-7 58.5q0 24 6 44q-37 -11 -104 -11q-46 0 -136.5 19.5t-137.5 19.5
q-62 0 -132 -18l-164 -55q81 86 121 114q86 60 197 60q55 0 195 -29q14 -3 48 -8q14 -2 55 -2q83 0 160 34q13 6 126 71l-8 -10l13 6q-15 -9 -60 -63q-33 -58 -33 -152q0 -82 50 -304q-268 -179 -726 -179q-365 0 -596 138q-283 169 -283 509q0 305 326 472q280 143 697 143
h711z" />
    <glyph glyph-name="H" unicode="H" horiz-adv-x="1738" 
d="M1693 0h-390q54 54 67 89l8 82v564q-364 -44 -607 -278q-186 -179 -243 -394q15 -21 60 -63h-390q54 54 67 89l8 82v808q0 93 -70 132l-5 16q-8 14 -54 25q-81 21 -97 68l61 9h403v-836q343 407 867 410v176q0 12 1.5 35.5t1.5 35.5q0 144 -129 181l364 -2v-1058
q0 -70 9 -93q11 -27 68 -78z" />
    <glyph glyph-name="I" unicode="I" horiz-adv-x="711" 
d="M666 0h-390q54 54 67 89l8 82v808q0 94 -70 132q-22 12 -137 41q-82 21 -97 68l61 9h481v-1058q0 -70 9 -93q11 -27 68 -78z" />
    <glyph glyph-name="J" unicode="J" horiz-adv-x="647" 
d="M586 160q0 -203 -131 -357q-165 -194 -487 -216q239 119 322 276q58 110 58 297v817q0 92 -70 131q-18 10 -136 42q-82 22 -98 69l61 10h481v-1069z" />
    <glyph glyph-name="K" unicode="K" horiz-adv-x="1912" 
d="M1862 128q-195 -46 -328 -105l-108 -48q-145 58 -235 163q-18 21 -217 307q-55 78 -147 124q-45 22 -185 68q-43 14 -142 23v-488q0 -64 14.5 -95.5t62.5 -77.5h-390q55 55 68 91l8 82v902q0 53 -216 173h453v-498q19 -1 38 -1q121 0 251 48q81 30 173 125
q103 106 103 189q0 99 -156 130l469 1q-61 -127 -155 -256q-120 -164 -217 -211q-128 -62 -213 -85q171 -26 307 -155q21 -20 199 -233q107 -128 200 -148q43 -24 142 -31q69 -5 156 0q88 5 65 6z" />
    <glyph glyph-name="L" unicode="L" horiz-adv-x="1345" 
d="M1300 249q-142 -182 -142 -317q-122 64 -495 59l-494 -7q77 74 88 105l8 82v803q0 65 -43 128q-58 85 -175 125h456v-1123q4 -3 29 -9q48 -12 122 -12q363 0 646 166z" />
    <glyph glyph-name="M" unicode="M" horiz-adv-x="2237" 
d="M2192 1240q-148 -45 -148 -104q0 -6 1 -13l2 -952q0 -36 4 -55q7 -32 13 -45q21 -43 74 -71h-366q78 45 86 129l4 42l-3 812q0 57 -13 94l-571 -523q-92 -85 -92 -146q0 -10 3 -20l-722 601v-682q0 -91 68 -171q45 -54 160 -136h-439q88 113 88 205v889l-108 50
q-45 9 -107 27q-17 7 -79 47l110 11h351l685 -602l572 523l126 85z" />
    <glyph glyph-name="N" unicode="N" horiz-adv-x="1721" 
d="M1676 65q0 -62 -38 -72l-23 4q5 -2 18 -10q-46 17 -106 70l-1063 932v-682q0 -91 68 -171q45 -54 160 -136h-439q88 113 88 205v889l-108 50q-45 9 -107 27q-17 7 -79 47l110 11h351l1044 -937v680q0 43 -9 58q-8 21 -36 57l-142 85v57h311v-1164z" />
    <glyph glyph-name="O" unicode="O" horiz-adv-x="1920" 
d="M1875 615q0 -307 -286 -486q-260 -162 -628 -162q-373 0 -628 162q-286 181 -286 486q0 306 286 485q259 162 628 162q372 0 628 -162q286 -181 286 -485zM1596 615q0 263 -199 415q-178 137 -436 137q-306 0 -477 -162q-159 -150 -159 -390q0 -238 160 -389
q173 -163 476 -163t475 163q160 151 160 389z" />
    <glyph glyph-name="P" unicode="P" horiz-adv-x="1232" 
d="M1187 1015q0 -263 -518 -436q-185 -62 -235 -62l1 -346q0 -64 14 -94t62 -77h-398q66 52 74 79l11 92v813q0 75 -58 130q-67 64 -91 64l-2 48l40 2q177 9 270 -60l28 -34q195 120 421 120q141 0 245 -49q136 -65 136 -190zM909 999q0 137 -202 137q-91 0 -169 -26
q-103 -34 -103 -92v-382q474 101 474 363z" />
    <glyph glyph-name="Q" unicode="Q" horiz-adv-x="2205" 
d="M2159 -220q-373 42 -489 99q-137 68 -243 169q-206 -81 -466 -81q-373 0 -628 162q-286 181 -286 486q0 306 286 485q259 162 628 162q372 0 628 -162q286 -181 286 -485q0 -320 -314 -502l5 -5q15 -14 68 -62q98 -88 246 -156q41 -19 279 -110zM1596 615q0 263 -199 415
q-178 137 -436 137q-306 0 -477 -162q-159 -150 -159 -390q0 -238 160 -389q173 -163 476 -163q215 0 369 87q-17 17 -39 44q-100 117 -154 163q-103 88 -192 136l-304 163q245 -44 322 -69q178 -58 328 -184q56 -47 157 -163q148 150 148 375z" />
    <glyph glyph-name="R" unicode="R" horiz-adv-x="1508" 
d="M1462 0h-319q-121 52 -286 192q-30 25 -242 225q-91 86 -180 104v-350q0 -63 15 -95q13 -28 61 -76h-398q66 52 74 79l11 92v813q0 75 -58 130q-67 64 -91 64l-2 48l40 2q177 9 270 -60l28 -34q195 120 421 120q141 0 245 -49q136 -65 136 -190q0 -264 -518 -436
q144 -60 281 -187q49 -46 193 -179q172 -157 319 -213zM909 999q0 137 -202 137q-91 0 -169 -26q-103 -34 -103 -92v-382q474 101 474 363z" />
    <glyph glyph-name="S" unicode="S" horiz-adv-x="1304" 
d="M1258 362q0 -185 -221 -283q-183 -81 -447 -81q-255 0 -543 90q75 130 79 145q9 30 10 162q194 -301 507 -301q377 0 377 176q0 146 -226 210l-465 92q-272 77 -272 269q0 154 185 271q126 80 232 102q73 15 233 15q237 0 463 -77l-30 -51q-26 -29 -42 -66l-2 -25
q2 -34 2 -52q0 -13 -1 -18q-8 -16 -61 -48q-78 242 -408 242q-137 0 -223 -48q-109 -61 -109 -187q0 -122 224 -169l467 -99q271 -84 271 -269z" />
    <glyph glyph-name="T" unicode="T" horiz-adv-x="1915" 
d="M1869 1232l-114 -62q-62 -34 -95 -108l-27 -90q-107 93 -158 117q-74 35 -210 35h-170v-953q0 -70 9 -93q10 -27 67 -78h-390q55 54 68 89l8 82v808q0 93 -71 132q-8 5 -35 13h-212q-162 0 -256 -33l-236 -111l160 181q70 79 71 233q75 -100 177 -135q79 -27 224 -27
h1190z" />
    <glyph glyph-name="U" unicode="U" horiz-adv-x="1631" 
d="M1586 596q0 -256 -181 -429q-212 -203 -538 -190l-26 1q-26 1 -51 0l-24 -1q-327 -13 -539 190q-180 173 -180 429q0 151 134 306q140 132 160 155q0 9 -30 31l-147 108q39 33 65 33h335q20 0 33 -4l11 -14v-29q-283 -209 -283 -586q0 -231 131 -363q90 -90 125 -111
q83 -49 235 -54q165 6 242 54q19 12 118 111q132 131 132 363q0 377 -284 586v29l12 14q12 4 33 4h335q26 0 65 -33l-147 -108q-30 -22 -30 -31q18 -23 160 -155q134 -155 134 -306z" />
    <glyph glyph-name="V" unicode="V" horiz-adv-x="1884" 
d="M1838 1229l-101 -163l-288 -397q-195 -270 -444 -674q-19 -30 -53 -34q-64 0 -136 140l-110 215q-150 292 -362 574q-70 93 -297 339h509q21 -5 58 -32q-81 -48 -89 -98l7 -30q107 -267 418 -695q50 -69 80 -106l328 450q123 168 210 324l6 33q-2 27 -28 53l-130 87
l88 14h334z" />
    <glyph glyph-name="W" unicode="W" horiz-adv-x="2583" 
d="M2538 597q0 -256 -181 -429q-199 -190 -538 -190q-16 0 -48 -2t-49 -2q-154 0 -243 21q-105 25 -217 97q-204 -115 -496 -115q-340 0 -539 190q-180 173 -180 429q0 151 134 306q140 132 160 155q0 9 -30 31l-147 108q39 33 65 33h335q20 0 33 -4l11 -14v-29
q-283 -209 -283 -586q0 -258 157 -389q147 -122 412 -122q171 0 292 71q-197 197 -197 440q0 252 178 461q0 10 -28 31l-150 108q39 33 64 33h264q54 0 62 -42q-112 -258 -112 -591q0 -203 91 -339q121 -181 333 -181h12q281 0 438 158q118 119 118 363q0 377 -283 586v29
l12 14q11 4 32 4h336q26 0 65 -33l-147 -108q-30 -22 -30 -31q18 -23 160 -155q134 -155 134 -306z" />
    <glyph glyph-name="X" unicode="X" horiz-adv-x="1786" 
d="M1741 -2l-357 -5q-186 232 -262 320q-134 155 -295 303q-207 -230 -254 -290q-123 -158 -187 -318l-339 -5q119 165 325 357l362 339l-196 231q-137 161 -246 161q-46 0 -120 -15l-119 -24q217 145 353 145q126 0 258 -138q47 -50 203 -217q88 100 230 252
q146 156 304 156q115 0 214 -33q-30 -71 -91 -142q-88 35 -156 35q-89 0 -163 -62q-47 -40 -125 -141t-130 -142z" />
    <glyph glyph-name="Y" unicode="Y" horiz-adv-x="1700" 
d="M1655 1227q-326 -361 -663 -780l-464 -576q-48 -60 -48 -70q0 -8 9 -13q26 -8 37 -16l76 -18q52 -16 58 -37l-425 -6l497 609l-195 278l-277 405q-3 3 -213 231h509q11 0 58 -32q-89 -53 -89 -98q0 -115 359 -599l259 289q188 211 196 279q-7 63 -159 140l89 14h386z" />
    <glyph glyph-name="Z" unicode="Z" horiz-adv-x="1863" 
d="M1817 194q0 -6 -135 -72q-151 -73 -192 -122q-22 -11 -320 -11q-158 0 -560 5l-483 6l-80 21l1386 1029h-751q-200 0 -479 -59l-51 30q140 117 155 133q41 43 110 150q50 -30 72 -40q58 -38 171 -57l171 -14l206 -3q80 -1 535 17q75 3 49 3q150 0 151 -48
q-13 -22 -22 -29l-1299 -945q36 -21 317 -21q175 0 514 11l308 10q74 2 119 15q42 12 108 33v-42z" />
    <glyph glyph-name="bracketleft" unicode="[" horiz-adv-x="788" 
d="M742 46l-412 -112h-283l8 1348q13 39 53 58q76 36 129 41h487l-395 -121l-44 5v-1219h457z" />
    <glyph glyph-name="backslash" unicode="\" horiz-adv-x="1264" 
d="M1218 -45h-229q0 57 -141 311l-176 314q-239 428 -352 602q-90 108 -147 144l-126 56l17 52h269l721 -1271q53 -92 69 -113q27 -34 95 -95z" />
    <glyph glyph-name="bracketright" unicode="]" horiz-adv-x="790" 
d="M745 78q0 -84 -65 -111q-89 -37 -128 -41h-487l395 121l47 -5v1218h-460l412 112h286v-1294z" />
    <glyph glyph-name="asciicircum" unicode="^" horiz-adv-x="850" 
d="M805 1130h-263l35 22q11 4 29 26q-21 22 -147 140q-112 -88 -112 -125q1 -2 5 -25l3 -13l2 -11l3 -20l-25 6h-288q75 44 213 144q61 57 87 76q56 49 101 94q22 -20 184 -153q102 -84 173 -161z" />
    <glyph glyph-name="underscore" unicode="_" horiz-adv-x="1813" 
d="M1768 -33l-352 -87h-1369l352 87h1369z" />
    <glyph glyph-name="grave" unicode="`" horiz-adv-x="602" 
d="M556 1119h-228q11 19 11 24q0 16 -19 39q-111 131 -273 200l17 52h269l60 -107q68 -123 163 -208z" />
    <glyph glyph-name="a" unicode="a" horiz-adv-x="984" 
d="M992 1h-265q-33 0 -55 29q-18 24 -14 34q1 5 6 16q-153 -88 -278 -88q-130 0 -220 42q-119 56 -119 171q0 198 231 246q207 43 265 63q85 29 123 83q-108 49 -249 49q-117 0 -297 -37q159 114 408 114q122 0 253 -34q87 -32 87 -108v-480q0 -5 13 -18q32 -66 111 -82z
M666 189v316q-61 -49 -141 -70q-160 -43 -179 -53q-74 -39 -74 -131q0 -135 170 -135q105 0 224 73z" />
    <glyph glyph-name="b" unicode="b" horiz-adv-x="1278" 
d="M1232 342q0 -183 -172 -283q-143 -82 -340 -82q-52 0 -195 11q-42 3 -118 70q-6 -1 -11 -5l-58 -53l-161 -6q8 47 15 57q58 53 58 89v836q0 12 -91 25q-101 14 -112 25l162 57q61 15 161 100l82 27v-559q103 54 268 54q204 0 342 -78q170 -97 170 -285zM1007 342
q0 110 -67 189q-81 94 -220 94q-66 0 -162 -49q-106 -53 -106 -99v-301q0 -36 89 -76q96 -44 179 -44q140 0 220 96q67 81 67 190z" />
    <glyph glyph-name="c" unicode="c" horiz-adv-x="979" 
d="M933 206q-108 -224 -386 -224q-213 0 -345 88q-155 103 -155 305q0 149 161 245q146 87 347 87q81 0 209 -38q149 -44 149 -94q0 -16 -84 -59q-70 -36 -106 -49q13 25 13 47q0 57 -74 90q-57 25 -123 25q-131 0 -205 -92q-62 -78 -62 -185q0 -129 108 -207
q97 -70 231 -70q59 0 147 30q108 37 175 101z" />
    <glyph glyph-name="d" unicode="d" horiz-adv-x="1227" 
d="M1182 16l-51 -33q-40 -2 -69 -2q-30 0 -47 2q-23 5 -50 16q-51 11 -94 40q-139 -62 -311 -62q-513 0 -513 342q0 194 166 298q141 88 347 88q156 0 269 -52v294q0 56 -28 87q-26 28 -277 28q285 56 353 96q79 46 120 56q35 -31 35 -50v-947q0 -79 39 -125q31 -38 111 -76
zM829 176v302q0 48 -104 100q-96 48 -165 48q-126 0 -212 -109q-76 -97 -76 -198q0 -122 84 -194q80 -69 204 -69q80 0 186 47q83 37 83 73z" />
    <glyph glyph-name="e" unicode="e" horiz-adv-x="1050" 
d="M1005 272q-134 -290 -476 -290q-177 0 -319 90q-163 104 -163 272q0 184 150 281q128 82 322 82q154 0 248 -56q98 -58 162 -193l-663 -91l-2 -12q2 10 6 19q2 -4 2 -12q0 -132 102 -213q95 -74 230 -74q116 0 224 52q113 54 177 145zM703 517q-17 59 -87 91
q-63 28 -129 21q-109 -11 -163 -78q-29 -51 -58 -101z" />
    <glyph glyph-name="f" unicode="f" horiz-adv-x="866" 
d="M944 999l-29 -6q-22 0 -95 -35q-31 -15 -83 -39l59 75q-24 64 -177 64q-53 0 -96 -42q-62 -59 -62 -149v-157l387 -2l-67 -93l-320 2v-614l-202 -121v736l-212 -3l39 71q29 16 31 51q3 42 16 62q36 -53 93 -72q8 -5 33 -14v150q11 97 59 148l80 61q126 81 277 81
q91 0 182 -52q75 -43 87 -102z" />
    <glyph glyph-name="g" unicode="g" horiz-adv-x="1249" 
d="M1204 700q-104 -30 -116 -35q-21 -9 -40 -68q-15 -74 -15 -266q0 -341 -41 -448q-113 -291 -490 -291q-147 0 -289 75l-131 104q91 19 173 123q0 -27 70 -99q65 -67 104 -87q64 -33 125 -33q158 0 231 156q51 109 47 256q-192 -111 -411 -111q-151 0 -256 74
q-118 83 -118 228q0 178 196 299q177 109 395 113zM897 495q-2 89 -39 94l-14 2q0 2 2 5h-128q-172 0 -300 -73q-158 -90 -146 -250q6 -89 81 -148q70 -55 162 -55q107 0 202.5 63.5t139 161.5t40.5 200z" />
    <glyph glyph-name="h" unicode="h" horiz-adv-x="1131" 
d="M1085 326q0 -89 -18 -161l-41 -165h-207q64 213 64 326q0 132 -65 210q-70 84 -201 84q-69 0 -144 -26q-92 -32 -92 -79v-413q0 -18 67 -102h-344q74 75 74 102v770q0 34 -45 64q-68 44 -81 44l-5 48q84 10 206 67q69 32 177 83l-6 -79q-43 -104 -43 -162v-283h5
q176 61 325 61q374 0 374 -389z" />
    <glyph glyph-name="i" unicode="i" horiz-adv-x="563" 
d="M424 895q0 -70 -132 -80q-123 0 -136 78q0 75 133 79q119 4 135 -77zM517 0h-369l60 45q25 24 25 55v430q0 62 -55 83q-35 8 -51 16q-24 8 -80 59h388v-588q0 -24 8 -37q4 -12 74 -63z" />
    <glyph glyph-name="j" unicode="j" horiz-adv-x="539" 
d="M425 895q0 -70 -131 -80q-124 0 -137 78q0 75 133 79q120 4 135 -77zM437 6q0 -206 -163 -326q-142 -105 -358 -113q318 103 318 439v519q0 65 -55 86q-35 9 -50 17q-25 8 -81 60h389v-682z" />
    <glyph glyph-name="k" unicode="k" horiz-adv-x="1095" 
d="M1049 0h-203q0 199 -92 310q-100 121 -296 121q-42 0 -68 -5q-4 2 -9 3v-327q0 -37 88 -102h-377q86 67 86 102v790q0 34 -45 64q-68 44 -81 44l-5 48q84 10 206 67q69 32 177 83l-6 -79q-43 -104 -43 -162v-456q0 11 26 11q81 0 201 27q143 32 143 124q0 17 -4 38l296 4
l-88 -119q-85 -65 -209 -103q302 -83 303 -483z" />
    <glyph glyph-name="l" unicode="l" horiz-adv-x="597" 
d="M551 -1h-390q53 54 68 89l8 82v798q0 74 -95 74q-34 0 -95 -11q60 73 191 111q62 18 236 46v-1018q0 -70 10 -93q10 -27 67 -78z" />
    <glyph glyph-name="m" unicode="m" horiz-adv-x="1621" 
d="M1576 373q0 -68 -37 -130l-79 -100l-4 -16q1 -25 86 -86l22 -56h-350l18 72q119 135 119 316q0 81 -43 143q-55 79 -148 79q-127 0 -212 -71q40 -78 40 -151q0 -69 -95 -228l-4 -18q1 -25 86 -86l25 -56h-347l3 70q107 151 107 320q0 101 -60 160.5t-161 59.5
q-58 0 -136 -37q-68 -32 -68 -55v-378q0 -30 25 -54l74 -38l11 -48h-401l61 45q27 24 27 55v489q0 36 -87 101h290v-55q143 68 290 68q131 0 227 -64l41 -37q128 101 331 101q154 0 248 -80q101 -85 101 -235z" />
    <glyph glyph-name="n" unicode="n" horiz-adv-x="1084" 
d="M1039 -13h-347l3 70q107 151 107 320q0 220 -260 220q-58 0 -136 -37q-68 -32 -68 -55v-378q0 -30 25 -54l74 -38l11 -48h-401l61 45q27 24 27 55v489q0 36 -87 101h290v-55q143 68 329 68q200 0 327 -161q33 -67 33 -154q0 -69 -95 -228l-4 -18q1 -25 86 -86z" />
    <glyph glyph-name="o" unicode="o" horiz-adv-x="1059" 
d="M1033 344q0 -186 -168 -283q-138 -79 -339 -79q-198 0 -336 80q-169 98 -169 282q0 189 166 285q136 78 339 78q198 0 338 -81q169 -99 169 -282zM809 344q0 128 -77 206.5t-206 78.5t-204.5 -78t-75.5 -207q0 -109 62 -188q76 -96 218 -96q128 0 205.5 78t77.5 206z" />
    <glyph glyph-name="p" unicode="p" horiz-adv-x="1227" 
d="M1182 359q0 -194 -167 -298q-140 -88 -347 -88q-158 0 -269 52v-344q-94 -127 -272 -127q-40 0 -62 7q-2 2 -3 4q0 16 67 69.5t67 69.5v757q0 80 -38 126q-30 35 -111 75l50 33q41 2 69 2q29 0 47 -2q22 -5 51 -16q49 -11 93 -40q140 62 311 62q209 0 341 -66
q173 -87 173 -276zM957 359q0 120 -86 193q-81 70 -203 70q-80 0 -186 -47q-83 -37 -83 -73v-302q0 -48 104 -100q96 -48 165 -48q125 0 212 109q77 96 77 198z" />
    <glyph glyph-name="q" unicode="q" horiz-adv-x="1148" 
d="M1102 684q-10 -47 -15 -57q-57 -53 -57 -89v-706q0 -34 40 -69v-38l-148 -88q-135 -80 -243 -80q124 64 148 151v319q-106 -54 -268 -54q-204 0 -342 78q-170 97 -170 285q0 185 171 284q141 81 341 81q65 0 195.5 -11.5t195.5 -11.5h38zM827 201v301q0 36 -89 76
q-97 44 -179 44q-140 0 -220 -96q-67 -81 -67 -190t67 -189q80 -94 220 -94q65 0 162 49q106 53 106 99z" />
    <glyph glyph-name="r" unicode="r" horiz-adv-x="924" 
d="M916 552q0 -164 -353 -231q88 55 117 81q45 41 52 73q9 41 -12 75q-47 45 -69 53q-47 21 -112 21q-172 0 -172 -45v-466l7 -43q3 -15 81 -70h-380l54 40q24 18 30 47l5 453q1 78 -117 107l10 12q11 12 11 27l72 6q83 7 156 -25l22 -12q116 62 277 62q117 0 208 -37
q113 -46 113 -128z" />
    <glyph glyph-name="s" unicode="s" horiz-adv-x="916" 
d="M871 201q0 -102 -140 -163q-120 -52 -268 -52q-163 0 -269 45q-147 63 -147 204q53 8 70 14q52 13 126 34q-10 -22 -10 -44q0 -75 100 -141q51 -34 130 -34q74 0 130 23q75 32 75 95q0 67 -168 107q-36 9 -239 54q-141 53 -141 161q0 101 124 157q102 46 245 46
q313 0 353 -191q-106 -18 -174 -55q-12 168 -190 168q-156 0 -156 -133q0 -67 250 -109q299 -51 299 -186z" />
    <glyph glyph-name="t" unicode="t" horiz-adv-x="849" 
d="M850 0q-58 -3 -110 -3q-251 0 -357 60q-123 70 -123 255h1l2 300h-216l39 71q26 15 26 40q0 6 -1.5 18.5t-1.5 18.5q0 20 11 36q50 -73 143 -84l1 183q0 62 -55 83q-35 8 -50 16q-25 8 -81 59h389v-348h381l-67 -93h-314v-317q0 -122 52 -164q65 -53 79 -60
q71 -35 252 -71z" />
    <glyph glyph-name="u" unicode="u" horiz-adv-x="1036" 
d="M985 305q0 -180 -136 -257q-101 -58 -300 -64q-220 -7 -345 61q-61 33 -98 108q-35 69 -35 143q0 69 95 228l4 18q-5 25 -86 86l-24 56h347l-4 -70q-107 -151 -107 -320q0 -140 52 -175q54 -51 227 -55l5 1q82 24 114 57q7 8 22 24v-6l2 2q55 86 55 163q0 166 -131 316
l-18 72h350l-22 -56q-85 -61 -86 -86l4 -16l79 -100q36 -62 36 -130z" />
    <glyph glyph-name="v" unicode="v" horiz-adv-x="1128" 
d="M1083 688q-80 -149 -237 -371l-256 -364q-51 87 -135 214q-35 42 -129 192q-76 123 -170 218l-109 111h366q9 0 17 3l4 2q-1 -18 -1 -12q0 -22 -7 -65t-7 -65q0 -108 188 -358q238 385 238 398q0 34 -49 86l-11 11h298z" />
    <glyph glyph-name="w" unicode="w" horiz-adv-x="1594" 
d="M1548 305q0 -308 -437 -321q-212 -6 -344 61l-40 37q-130 -101 -332 -101q-156 0 -249 79q-99 84 -99 236q0 68 36 130l79 100l4 16q-5 25 -85 86l-23 56h350l-18 -72q-118 -135 -118 -316q0 -80 43 -143q53 -79 148 -79q125 0 212 71q-41 78 -41 151q0 69 95 228l4 18
q-5 25 -86 86l-24 56h347l-4 -70q-107 -151 -107 -320q0 -140 52 -175q54 -51 226 -55l6 1q82 24 114 57q7 8 22 24v-6l1 2q56 86 56 163q0 166 -131 316l-18 72h350l-23 -56q-84 -61 -85 -86l4 -16l79 -100q36 -62 36 -130z" />
    <glyph glyph-name="x" unicode="x" horiz-adv-x="1225" 
d="M1217 113q-67 -80 -122 -107q-49 -31 -124 -31q-204 0 -419 273q-12 -20 -37 -58q-13 -19 -102 -82q-151 -108 -340 -108h-157q132 24 243 94q71 45 188 151l82 74q14 24 30 49q-168 218 -271 218q-41 0 -139 -45q0 75 72 115q59 32 140 32q202 0 327 -162
q152 162 380 162q90 0 219 -50l-86 -87l-118 -61q-30 43 -37 49q-19 18 -65 23q-65 -1 -131 -57l-84 -88l158 -234q88 -130 159 -130q14 -4 41 -4q103 0 193 64z" />
    <glyph glyph-name="y" unicode="y" horiz-adv-x="1136" 
d="M1091 688l-65 -45q-29 -25 -29 -57v-497q0 -196 -69 -275l-35 -40q-154 -176 -455 -176q-62 0 -114 9q-197 34 -272 141l161 145l13 -36q0 -87 85 -137q71 -42 165 -42q74 0 154.5 39.5t124.5 98.5q35 46 37 105q0 28 2 119q-160 -72 -303 -72q-182 0 -300 68
q-144 84 -144 254q0 67 36 133q16 29 83 121q-7 35 -89 90l-16 54h347l-18 -74q-118 -138 -118 -324q0 -112 77 -172q70 -54 185 -54q98 0 185 33q75 29 75 61v387q0 31 -24 55l-75 39l-11 49h407z" />
    <glyph glyph-name="z" unicode="z" horiz-adv-x="1202" 
d="M1157 222q-35 -165 -152 -213q-10 -4 -77 -9h-779l-81 43l729 526h-351q-136 0 -246 -30q-7 -1 -153 -42l190 149q39 31 74 98l78 -39q75 -30 214 -30q42 0 186 7q21 1 100 7q66 5 98 5q98 0 100 -38q-20 -24 -25 -27l-699 -503h550q141 0 244 96z" />
    <glyph glyph-name="braceleft" unicode="{" horiz-adv-x="673" 
d="M628 1369q-64 -6 -112 -47q-53 -45 -53 -107v-369q0 -108 -139 -181l10 -5q7 -3 35 -25q94 -72 94 -154v-369q0 -49 55.5 -101.5t105.5 -52.5v-48q-399 0 -399 247v324q0 62 -68 118l-110 68q178 81 178 179v325q0 136 140 199q104 47 259 47z" />
    <glyph glyph-name="bar" unicode="|" horiz-adv-x="295" 
d="M250 0h-203v1415h203v-1415z" />
    <glyph glyph-name="braceright" unicode="}" horiz-adv-x="675" 
d="M629 667l-110 -68q-68 -56 -68 -118v-324q0 -138 -140 -201q-103 -46 -260 -46v48q47 0 104.5 54t57.5 100v369q0 101 130 179l11 5q-141 75 -141 181v369q0 64 -52 108q-47 40 -114 46l4 48q154 0 259 -47q141 -64 141 -199v-325q0 -98 178 -179z" />
    <glyph glyph-name="asciitilde" unicode="~" horiz-adv-x="1006" 
d="M959 1494q-94 -77 -149 -102q-87 -40 -193 -27l-83 18q-129 47 -178 53q-32 4 -66 4q-37 0 -76 -4l-167 -32q102 77 144 96q96 44 211 30l85 -19l142 -46q109 -14 157 -10q6 0 173 39z" />
    <glyph glyph-name="nonbreakingspace" unicode="&#xa0;" horiz-adv-x="1940" 
 />
    <glyph glyph-name="exclamdown" unicode="&#xa1;" horiz-adv-x="513" 
d="M422 991q0 -52 -48 -81q-41 -25 -96 -25q-56 0 -96 24q-48 29 -48 82t48 82q40 25 96 25q55 0 96 -25q48 -30 48 -82zM468 782q-88 -66 -88 -103v-597q0 -16 3 -52q5 -42 6 -53l1 -20q1 -11 10 -108l-80 37q-10 5 -67 36q-132 60 -206 69l5 48q14 0 79 44q46 31 46 65
v531q0 33 -28 57q-1 1 -65 46h384z" />
    <glyph glyph-name="cent" unicode="&#xa2;" horiz-adv-x="979" 
d="M933 206q-108 -224 -386 -224q-82 0 -152 13l-53 -105h-196q58 47 123 144q-49 23 -90 55q-132 107 -132 286q0 153 158 247q144 85 350 85q10 0 21 -1q-7 92 -7 70l-2 11l-24 27l-31 49q47 23 68 23h277l-111 -212l18 -5q149 -41 149 -94q0 -16 -84 -59
q-70 -36 -106 -49q13 25 13 47q0 39 -38 67l-246 -476q71 -30 159 -30q59 0 147 30q108 37 175 101zM565 628q-13 1 -26 1q-131 0 -205 -92q-62 -78 -62 -185q0 -102 75 -177l208 425q5 10 10 28z" />
    <glyph glyph-name="sterling" unicode="&#xa3;" horiz-adv-x="1153" 
d="M1108 33q-24 -33 -60 -33h-895l-48 35l108 46q29 22 46 54v483l-212 -3l39 71q29 16 31 51q3 42 16 62q36 -53 93 -72q8 -5 33 -14v150q11 97 59 148l80 61q126 81 277 81q91 0 182 -52q75 -43 87 -102l-29 -6q-19 0 -95 -35q-51 -24 -83 -39l59 75q-24 64 -177 64
q-53 0 -96 -42q-62 -59 -62 -149v-157l387 -2l-67 -93l-320 2l2 -530l52 -3l69 -2l66 2l65 4q135 18 266 95l78 19l-11 -68q0 -27 60 -101z" />
    <glyph glyph-name="currency" unicode="&#xa4;" horiz-adv-x="1167" 
d="M1121 1218l-240 -185q93 -65 93 -165q0 -109 -107 -175l40 -31q112 -86 214 -141h-172l-172 132q-84 -27 -195 -27q-110 0 -193 27l-171 -132h-171q87 48 212 141l41 31q-109 66 -109 175q0 103 92 167l-236 183h213q17 0 58 -15l-10 -33l-10 -18l1 -7q13 -28 61 -70
q94 35 222 35q129 0 223 -37q49 44 63 72v7l-10 18l-10 33q42 15 58 15h215zM783 864q0 76 -64 123q-58 43 -137 43q-78 0 -136 -43q-64 -47 -64 -123q0 -75 65 -123q58 -44 135 -44q78 0 136 44q65 48 65 123z" />
    <glyph glyph-name="yen" unicode="&#xa5;" horiz-adv-x="1700" 
d="M1655 1227q-268 -299 -663 -780l-47 -57h377q-96 -47 -99 -97h-356l-99 -123h554q-96 -47 -99 -97h-533l-162 -202q-48 -60 -48 -70q0 -8 9 -13q26 -8 37 -16l76 -18q52 -16 58 -37l-425 -6l295 362h-312q80 35 99 97h291l102 123h-492q80 35 99 97h365l-145 208
l-277 405q-3 3 -213 231h509q11 0 58 -32q-89 -53 -89 -98q0 -115 359 -599l259 289q188 211 196 279q-7 63 -159 140l89 14h386z" />
    <glyph glyph-name="brokenbar" unicode="&#xa6;" horiz-adv-x="295" 
d="M250 787h-203v628h203v-628zM250 -4h-203v628h203v-628z" />
    <glyph glyph-name="section" unicode="&#xa7;" horiz-adv-x="965" 
d="M919 1201l-51 -79q-15 -36 -15 -175q-74 119 -133 167q-94 76 -230 76q-106 0 -186 -25q-108 -34 -108 -102q0 -93 185 -138l342 -83q184 -60 184 -172q0 -155 -186 -229q186 -49 186 -181t-158 -210q-139 -68 -317 -68q-149 0 -327 57q21 37 31 45q15 14 23 40l-3 19v34
q0 35 70 47q43 -162 274 -162q86 0 163 36q95 45 95 121q0 70 -185 117l-342 87q-184 63 -184 170q0 156 188 228q-188 59 -188 184q0 150 167 217q118 48 294 48q197 0 411 -69zM758 629q0 70 -168 117q-50 14 -181 34q-72 -1 -134 -30q-79 -38 -79 -102q0 -126 249 -157
q32 -4 126 -15q187 28 187 153z" />
    <glyph glyph-name="dieresis" unicode="&#xa8;" horiz-adv-x="736" 
d="M690 1190q0 -77 -132 -79q-123 -2 -136 77q0 69 132 79q121 0 136 -77zM315 1190q0 -77 -133 -79q-122 -2 -135 77q0 68 131 79q121 0 137 -77z" />
    <glyph glyph-name="copyright" unicode="&#xa9;" horiz-adv-x="1394" 
d="M1348 615q0 -225 -203 -355q-184 -118 -447 -118q-261 0 -437 104q-214 126 -214 369q0 223 203 354q183 119 448 119q256 0 435 -106q215 -128 215 -367zM1219 615q0 189 -174 293q-145 86 -347 86q-211 0 -351 -82q-172 -100 -172 -297q0 -194 173 -296
q141 -83 350 -83q204 0 348 85q173 103 173 294zM1114 899l-74 -48l-20 -18l-7 -19v-90q-68 64 -112 83q-54 23 -152 23q-123 0 -209 -46q-108 -58 -108 -171t78 -176q72 -58 188 -58q102 0 185 55q47 32 127 118v-161q-130 -81 -326 -81q-168 0 -278 66q-134 80 -134 237
q0 141 153 219q132 67 324 67h365z" />
    <glyph glyph-name="ordfeminine" unicode="&#xaa;" horiz-adv-x="810" 
d="M764 696h-201q-16 0 -34.5 13.5t-18.5 28.5q0 -4 5 19q-116 -68 -211 -68q-97 0 -167 33q-90 43 -90 130q0 152 175 189q151 32 202 49q65 22 92 63q-81 38 -188 38q-89 0 -227 -28q123 87 311 87q94 0 192 -26q67 -25 67 -83v-368q1 -6 9 -14q25 -51 84 -63zM516 840
v243q-44 -37 -107 -54q-121 -33 -136 -41q-56 -29 -56 -100q0 -104 129 -104q80 0 170 56z" />
    <glyph glyph-name="guillemotleft" unicode="&#xab;" horiz-adv-x="1345" 
d="M1300 22l-226 -42q-60 119 -268 228l-264 138q389 95 471 329l254 27q-113 -261 -357 -355q316 -178 390 -325zM805 22l-227 -42q-59 119 -267 228l-264 138q388 95 470 329l255 27q-113 -261 -357 -355q316 -178 390 -325z" />
    <glyph glyph-name="logicalnot" unicode="&#xac;" horiz-adv-x="1715" 
d="M1669 357h-213v349h-1409v152h1622v-501z" />
    <glyph glyph-name="minus" unicode="&#xad;" horiz-adv-x="1001" 
d="M955 555q-96 -47 -98 -97h-810q79 35 99 97h809z" />
    <glyph glyph-name="minus" unicode="&#x2212;" horiz-adv-x="1001" 
d="M955 555q-96 -47 -98 -97h-810q79 35 99 97h809z" />
    <glyph glyph-name="registered" unicode="&#xae;" horiz-adv-x="1394" 
d="M1348 774q0 -223 -203 -354q-184 -119 -447 -119q-260 0 -437 104q-214 127 -214 369q0 225 203 355q183 118 448 118q256 0 435 -106q215 -128 215 -367zM825 966q0 69 -115 69q-51 0 -95 -12q-63 -17 -63 -47v-192q273 51 273 182zM1219 774q0 189 -174 293
q-145 86 -347 86q-195 0 -328 -71q89 1 138 -31l16 -17q112 60 243 60q76 0 136 -24q82 -32 82 -96q0 -132 -297 -219q66 -24 162 -93q60 -54 220 -163q149 105 149 275zM1015 465h-54q-77 28 -165 96q-1 1 -140 113q-52 43 -104 52v-175q0 -49 45 -86h-219q142 -70 320 -70
q186 0 317 70zM416 551v408q0 27 -29.5 62t-56.5 35v2l-6 -5q-149 -114 -149 -279q0 -205 197 -306q34 24 37 36z" />
    <glyph glyph-name="macron" unicode="&#xaf;" horiz-adv-x="1279" 
d="M1234 819l-415 -65h-772l421 65h766z" />
    <glyph glyph-name="macron" unicode="&#x2c9;" horiz-adv-x="1279" 
d="M1234 819l-415 -65h-772l421 65h766z" />
    <glyph glyph-name="degree" unicode="&#xb0;" horiz-adv-x="520" 
d="M474 1042q0 -64 -75 -105q-63 -34 -133 -34q-72 0 -138 33q-81 41 -81 106q0 64 85 101q66 29 140 29q66 0 128 -32q74 -38 74 -98zM346 1021q-3 32 -35 56.5t-65 24.5q-20 0 -43 -11q-26 -12 -26 -30q0 -28 35 -61q29 -27 52 -27q73 0 82 48z" />
    <glyph glyph-name="plusminus" unicode="&#xb1;" horiz-adv-x="1018" 
d="M972 707l-170 -127h-214v-224l-150 -58v282h-391l171 127h220v196l150 67v-263h384zM966 245q-95 -47 -99 -107h-810q77 34 99 107h810z" />
    <glyph glyph-name="twosuperior" unicode="&#xb2;" horiz-adv-x="929" 
d="M832 609l-83 -154l-652 -2v29q8 0 129 80q68 45 138 96q240 176 240 286q0 81 -65 125q-56 39 -141 39q-24 0 -59 -10q-44 -13 -37 -29q-21 -32 -21 -74q0 -44 23 -89l-66 6l-74 -3l-44 -8q0 42 24 101q30 71 74 96q114 64 259 64q101 0 173 -31q96 -42 96 -130
q0 -209 -434 -462h278q71 0 125 21q19 7 117 49z" />
    <glyph glyph-name="threesuperior" unicode="&#xb3;" horiz-adv-x="828" 
d="M750 649q0 -106 -116 -162q-91 -45 -209 -45q-125 0 -237 39l-110 63q120 10 227 61v-36q0 -79 102 -79q58 0 108 33q67 45 67 126q0 102 -93 150q-70 36 -221 49q164 33 200 47q99 39 99 102q0 60 -69 91q-53 24 -121 24q-35 0 -74 -26q-42 -28 -42 -61q0 -10 4 -19
l-82 10h-18q-12 0 -64 5q110 139 345 139q94 0 174 -30q99 -37 99 -101q0 -82 -83 -127q-23 -12 -97 -35q211 -80 211 -218z" />
    <glyph glyph-name="acute" unicode="&#xb4;" horiz-adv-x="602" 
d="M556 1382q-105 -44 -157 -83q-47 -35 -116 -117q-20 -25 -20 -39q1 -4 13 -24h-229q96 87 164 208l59 107h269z" />
    <glyph glyph-name="mu1" unicode="&#xb5;" horiz-adv-x="1084" 
d="M1039 690l-25 -56q-85 -61 -86 -86l4 -18q95 -159 95 -228q0 -87 -33 -154q-89 -113 -202 -145q-76 -38 -76 -73q0 -13 13 -29q55 -67 167 -67q79 0 124 41q10 -43 -65 -71q-53 -20 -94 -20q-307 0 -355 111q-7 15 -7 27q0 38 53 72q-117 15 -214 61v-445h-290
q87 65 87 101v879q0 31 -27 55l-61 45h401l-11 -48l-74 -38q-25 -24 -25 -54v-378q0 -23 68 -55q78 -37 136 -37q260 0 260 220q0 169 -107 320l-3 70h347z" />
    <glyph glyph-name="mu1" unicode="&#x3bc;" horiz-adv-x="1084" 
d="M1039 690l-25 -56q-85 -61 -86 -86l4 -18q95 -159 95 -228q0 -87 -33 -154q-89 -113 -202 -145q-76 -38 -76 -73q0 -13 13 -29q55 -67 167 -67q79 0 124 41q10 -43 -65 -71q-53 -20 -94 -20q-307 0 -355 111q-7 15 -7 27q0 38 53 72q-117 15 -214 61v-445h-290
q87 65 87 101v879q0 31 -27 55l-61 45h401l-11 -48l-74 -38q-25 -24 -25 -54v-378q0 -23 68 -55q78 -37 136 -37q260 0 260 220q0 169 -107 320l-3 70h347z" />
    <glyph glyph-name="paragraph" unicode="&#xb6;" horiz-adv-x="1468" 
d="M1422 1072q-62 11 -95 11q-95 0 -95 -74l8 -1100q13 -35 68 -89h-312q2 -3 8 -3q2 0 11.5 4t14.5 4q6 0 13 -5h-320q47 48 60 76q15 32 15 95l1 526q-50 0 -235 62q-517 173 -517 436q0 125 135 190q105 49 246 49q226 0 421 -120l27 34q56 41 76 49q27 11 117 11h3v1
q20 0 55 -4q59 -7 159 -58t136 -95zM1072 -9v992q0 137 -44 137q-6 0 -13 -6q-58 -54 -57 -130l10 -1085q6 -32 28 -79q56 52 67 78q9 21 9 93z" />
    <glyph glyph-name="periodcentered" unicode="&#xb7;" horiz-adv-x="360" 
d="M315 512q0 -78 -134 -78q-54 0 -97 21q-37 23 -37 57q0 78 134 78q46 0 84 -16q50 -22 50 -62z" />
    <glyph glyph-name="periodcentered" unicode="&#x2219;" horiz-adv-x="360" 
d="M315 512q0 -78 -134 -78q-54 0 -97 21q-37 23 -37 57q0 78 134 78q46 0 84 -16q50 -22 50 -62z" />
    <glyph glyph-name="cedilla" unicode="&#xb8;" horiz-adv-x="614" 
d="M562 -214q-49 -111 -355 -111q-42 0 -95 20q-74 28 -65 71q45 -41 125 -41q111 0 166 67q13 16 13 29q0 76 -189 135q0 16 15 45t30 29h206v-42q-6 0 -14.5 -16t-8.5 -24q0 15 12 15q21 0 78 -49q88 -76 88 -101q0 -12 -6 -27z" />
    <glyph glyph-name="onesuperior" unicode="&#xb9;" horiz-adv-x="515" 
d="M435 463h-239q37 32 43 53l4 49v492h-5l-33 3h-17l-84 -7l34 20q65 27 131 54q85 35 121 64q-4 -13 -7 -16v1q3 -12 3 -72v-566q0 -36 49 -75z" />
    <glyph glyph-name="ordmasculine" unicode="&#xba;" horiz-adv-x="630" 
d="M585 1165q0 -98 -90 -147q-72 -40 -179 -40q-103 0 -178 41q-91 51 -91 146q0 97 90 148q74 41 179 41q103 0 178 -42q91 -52 91 -147zM441 1165q0 129 -125 129t-125 -129q0 -125 125 -125q55 0 90 35t35 90z" />
    <glyph glyph-name="guillemotright" unicode="&#xbb;" horiz-adv-x="1345" 
d="M1300 342q-389 -94 -471 -328l-252 -27q108 261 356 355q-317 178 -391 325l226 40q59 -118 268 -227zM805 342q-389 -94 -471 -328l-252 -27q108 261 355 355q-316 176 -390 325l227 40q58 -118 267 -227z" />
    <glyph glyph-name="onequarter" unicode="&#xbc;" horiz-adv-x="1947" 
d="M1474 1434l-1119 -1479h-222q98 82 198 211l764 982q89 115 92 176l-3 11l-23 27l-31 49q46 23 67 23h277zM391 533h-239q36 32 43 53l4 49v492h-5l-33 3h-17l-84 -7l34 20q65 27 131 54q84 35 122 64q-5 -13 -8 -16v1q3 -12 3 -72v-566q0 -36 49 -75zM1888 384l-71 -66
h-111v-161q0 -12 3 -24q0 -15 46 -51h-243q41 32 47 53l5 50v133h-472q79 76 100 104q74 99 74 195q0 55 -35 81l-114 40q22 16 31 20l-4 -1q70 31 152 31q82 -36 82 -170q0 -25 -5 -43q-33 -115 -90 -191h281v135q0 29 -39 53q-16 9 -63 38q93 10 142 29l131 68l-3 -50
q-26 -63 -26 -97v-176h182z" />
    <glyph glyph-name="onehalf" unicode="&#xbd;" horiz-adv-x="1930" 
d="M1475 1434l-1119 -1479h-222q94 77 199 211l763 982q90 115 92 176l-2 11l-24 27l-31 49q47 23 68 23h276zM394 533h-239q36 32 41 53l5 49v492h-5l-32 3h-18l-84 -7l34 20l132 54q84 35 120 64q-4 -13 -6 -16v1q2 -12 2 -72v-566q0 -36 50 -75zM1868 249l-84 -154
l-652 -2v29q10 0 129 80q94 63 139 96q239 175 239 286q0 81 -64 125q-56 39 -141 39q-25 0 -60 -10q-44 -13 -36 -29q-21 -32 -21 -74q0 -44 22 -89l-66 6l-73 -3l-46 -8q0 40 26 101q30 71 74 96q113 64 259 64q100 0 172 -32q97 -42 97 -129q0 -209 -435 -462h278
q70 0 125 21q27 10 118 49z" />
    <glyph glyph-name="threequarters" unicode="&#xbe;" horiz-adv-x="2227" 
d="M1750 1434l-1120 -1479h-222q95 77 199 211l763 982q90 115 92 176l-2 11l-24 27l-31 49q47 23 68 23h277zM734 649q0 -104 -115 -161q-93 -46 -208 -46q-125 0 -237 39l-110 63q119 10 227 61v-36q0 -79 102 -79q57 0 106 33q69 46 69 126q0 103 -96 151q-70 35 -219 48
q166 33 201 47q97 39 97 102q0 59 -68 91q-53 24 -120 24q-37 0 -74 -25q-42 -27 -42 -62q0 -10 4 -19l-83 10h-17q-12 0 -64 5q108 139 343 139q96 0 176 -30q99 -37 99 -101q0 -81 -85 -127q-24 -13 -95 -35q209 -80 209 -218zM2163 384l-69 -66h-112v-161q0 -12 3 -24
q1 -15 47 -51h-243q40 32 47 53l3 50v133h-470q79 76 100 104q74 99 74 195q0 55 -35 81l-116 40q22 16 33 20l-4 -1q70 31 152 31q81 -36 81 -170q0 -25 -6 -43q-32 -115 -88 -191h279v135q0 29 -39 53q-15 9 -62 38q94 10 142 29l132 68l-4 -50q-26 -63 -26 -97v-176h181z
" />
    <glyph glyph-name="questiondown" unicode="&#xbf;" horiz-adv-x="1039" 
d="M703 887q0 -53 -47 -82q-41 -25 -97 -25t-97 25q-47 29 -47 82q0 52 48 81q41 25 96 25t96 -25q48 -29 48 -81zM993 52q0 -109 -151 -179q-129 -60 -280 -60q-515 0 -515 261q0 128 102 224q59 55 197 126q108 56 112 78q10 63 7 91q-3 40 -37 121h67q50 0 115 2
q32 1 104 1q-46 -38 -46 -86q0 -16 8 -48t8 -48q0 -48 -61 -78q-168 -82 -242 -156q-95 -95 -95 -227q0 -114 75 -153q52 -28 180 -28q103 0 174 58q75 62 75 163q0 55 -46 84q-38 23 -143 50q41 4 79 4q119 0 203 -41q110 -53 110 -159z" />
    <glyph glyph-name="Agrave" unicode="&#xc0;" horiz-adv-x="1932" 
d="M1195 1319h-229q12 19 13 24q0 14 -21 39q-71 84 -116 117q-48 35 -157 83l17 52h269l60 -107q68 -121 164 -208zM1886 -1h-438q-40 104 -140 264l-145 230q-183 -28 -481 -183q-330 -172 -330 -289q0 -11 5 -21l-91 -1l-219 1q85 46 348 442q125 187 394 601q3 10 3 20
q0 60 -84 109q-45 21 -89 43l251 14q113 6 145 -41q107 -156 277 -454q179 -314 272 -456q74 -112 138 -170q77 -69 184 -109zM1126 549l-252 372l-423 -619q85 75 325 151q50 16 350 96z" />
    <glyph glyph-name="Aacute" unicode="&#xc1;" horiz-adv-x="1932" 
d="M1195 1582q-110 -48 -158 -83q-44 -33 -115 -117q-21 -25 -21 -39q1 -4 13 -24h-229q96 87 164 208l60 107h269zM1886 -1h-438q-40 104 -140 264l-145 230q-183 -28 -481 -183q-330 -172 -330 -289q0 -11 5 -21l-91 -1l-219 1q85 46 348 442q125 187 394 601q3 10 3 20
q0 60 -84 109q-45 21 -89 43l251 14q113 6 145 -41q107 -156 277 -454q179 -314 272 -456q74 -112 138 -170q77 -69 184 -109zM1126 549l-252 372l-423 -619q85 75 325 151q50 16 350 96z" />
    <glyph glyph-name="Acircumflex" unicode="&#xc2;" horiz-adv-x="1932" 
d="M1345 1311h-262l35 22q10 4 27 26q-21 22 -145 140q-112 -88 -112 -125q0 -2 5 -25l3 -13l2 -11l3 -20l-25 6h-290q77 44 215 144q61 57 87 76q56 49 100 94q26 -24 185 -153q104 -85 172 -161zM1886 -1h-438q-40 104 -140 264l-145 230q-183 -28 -481 -183
q-330 -172 -330 -289q0 -11 5 -21l-91 -1l-219 1q85 46 348 442q125 187 394 601q3 10 3 20q0 60 -84 109q-45 21 -89 43l251 14q113 6 145 -41q107 -156 277 -454q179 -314 272 -456q74 -112 138 -170q77 -69 184 -109zM1126 549l-252 372l-423 -619q85 75 325 151
q50 16 350 96z" />
    <glyph glyph-name="Atilde" unicode="&#xc3;" horiz-adv-x="1932" 
d="M1422 1494q-95 -77 -149 -102q-87 -40 -193 -27l-83 18q-130 47 -177 53q-31 4 -67 4q-37 0 -76 -4l-167 -32q102 77 144 96q96 44 210 30l88 -19l140 -46q109 -14 157 -10q5 0 173 39zM1886 -1h-438q-40 104 -140 264l-145 230q-183 -28 -481 -183q-330 -172 -330 -289
q0 -11 5 -21l-91 -1l-219 1q85 46 348 442q125 187 394 601q3 10 3 20q0 60 -84 109q-45 21 -89 43l251 14q113 6 145 -41q107 -156 277 -454q179 -314 272 -456q74 -112 138 -170q77 -69 184 -109zM1126 549l-252 372l-423 -619q85 75 325 151q50 16 350 96z" />
    <glyph glyph-name="Adieresis" unicode="&#xc4;" horiz-adv-x="1932" 
d="M1288 1437q0 -77 -132 -79q-123 -2 -136 77q0 69 132 79q121 0 136 -77zM913 1437q0 -77 -133 -79q-122 -2 -135 77q0 68 131 79q121 0 137 -77zM1886 -1h-438q-40 104 -140 264l-145 230q-183 -28 -481 -183q-330 -172 -330 -289q0 -11 5 -21l-91 -1l-219 1
q85 46 348 442q125 187 394 601q3 10 3 20q0 60 -84 109q-45 21 -89 43l251 14q113 6 145 -41q107 -156 277 -454q179 -314 272 -456q74 -112 138 -170q77 -69 184 -109zM1126 549l-252 372l-423 -619q85 75 325 151q50 16 350 96z" />
    <glyph glyph-name="Aring" unicode="&#xc5;" horiz-adv-x="1932" 
d="M1235 1440q0 -98 -90 -147q-72 -40 -179 -40q-102 0 -177 42q-92 51 -92 145q0 97 90 148q74 41 179 41q103 0 178 -42q91 -52 91 -147zM1886 -1h-438q-40 104 -140 264l-145 230q-183 -28 -481 -183q-330 -172 -330 -289q0 -11 5 -21l-91 -1l-219 1q85 46 348 442
q125 187 394 601q3 10 3 20q0 60 -84 109q-45 21 -89 43l251 14q113 6 145 -41q107 -156 277 -454q179 -314 272 -456q74 -112 138 -170q77 -69 184 -109zM1091 1440q0 129 -125 129t-125 -129q0 -125 125 -125q55 0 90 35t35 90zM1126 549l-252 372l-423 -619
q85 75 325 151q50 16 350 96z" />
    <glyph glyph-name="AE" unicode="&#xc6;" horiz-adv-x="2450" 
d="M2405 27q-23 -33 -60 -33h-1011l-48 35l108 46q32 25 41 41q4 51 0 147l-9 230q-157 -22 -562 -183q-431 -172 -500 -289q-7 -11 -7 -21l-92 -1l-218 1q141 59 607 442q7 6 721 601q29 33 29 65q0 19 -10 37l-2 1l-108 46l26 20l-4 3l10 1l16 11h195l38 2q39 2 66 -2h713
q36 0 60 -33q-60 -74 -60 -101l12 -68l-78 19q-121 70 -306 95l-65 4l-66 2l-108 -2l-43 -3q6 -94 6 -247q0 -66 -1 -143h653l-96 -125l-132 -96q-126 131 -361 131q-7 0 -30 1t-35 -2q-5 -458 44 -551q6 -11 20 -30l84 -2l66 2l65 4q185 25 306 95l78 19l-12 -68
q0 -27 60 -101zM1422 549l-34 372l-760 -619q128 75 413 151q96 26 381 96z" />
    <glyph glyph-name="Ccedilla" unicode="&#xc7;" horiz-adv-x="1826" 
d="M1781 1229l-94 -59q-66 -53 -66 -97v-42q-5 -10 -5 -81q-187 183 -546 183q-295 0 -495 -110q-250 -138 -250 -409q0 -225 160 -380q176 -171 473 -171q377 0 655 319v-250q-212 -141 -565 -162q-8 -15 -8 -22q0 15 12 15q19 0 76 -49q89 -76 89 -101q0 -15 -5 -27
q-47 -111 -355 -111q-43 0 -97 20q-64 24 -64 61q0 5 1 10q44 -41 125 -41q111 0 166 67q12 14 12 29q0 74 -188 135q0 5 3 14q-323 21 -525 166q-243 174 -243 478t326 471q281 144 697 144h711z" />
    <glyph glyph-name="Egrave" unicode="&#xc8;" horiz-adv-x="1213" 
d="M851 1319h-228q12 19 13 24q0 14 -21 39q-72 84 -116 117q-48 35 -157 83l17 52h269l60 -107q67 -121 163 -208zM1167 29q-23 -33 -59 -33h-1012l-48 35l108 46q35 28 44 45q0 13 4 40l1 2v902q0 43 -50 82l-108 46l48 35h1011q37 0 60 -33q-60 -74 -60 -101l12 -68
l-78 19q-121 70 -306 95l-65 4l-66 2l-108 -2l-52 -4v-389h667l-96 -125l-131 -96q-119 123 -362 131q-6 0 -30 1q-50 2 -48 -10l2 -569l52 -4l107 -2l67 2l65 4q184 25 305 95l78 19l-11 -68q0 -27 59 -101z" />
    <glyph glyph-name="Eacute" unicode="&#xc9;" horiz-adv-x="1213" 
d="M851 1582q-109 -48 -157 -83q-44 -33 -116 -117q-20 -25 -20 -39q1 -4 13 -24h-229q96 87 164 208l59 107h270zM1167 29q-23 -33 -59 -33h-1012l-48 35l108 46q35 28 44 45q0 13 4 40l1 2v902q0 43 -50 82l-108 46l48 35h1011q37 0 60 -33q-60 -74 -60 -101l12 -68
l-78 19q-121 70 -306 95l-65 4l-66 2l-108 -2l-52 -4v-389h667l-96 -125l-131 -96q-119 123 -362 131q-6 0 -30 1q-50 2 -48 -10l2 -569l52 -4l107 -2l67 2l65 4q184 25 305 95l78 19l-11 -68q0 -27 59 -101z" />
    <glyph glyph-name="Ecircumflex" unicode="&#xca;" horiz-adv-x="1213" 
d="M976 1311h-262l35 22q10 4 27 26q-21 22 -146 140q-111 -88 -111 -125q0 -2 5 -25l2 -13l3 -11l3 -20l-25 6h-290q77 44 215 144q61 57 87 76q56 49 100 94q26 -24 184 -153q105 -85 173 -161zM1167 29q-23 -33 -59 -33h-1012l-48 35l108 46q35 28 44 45q0 13 4 40l1 2
v902q0 43 -50 82l-108 46l48 35h1011q37 0 60 -33q-60 -74 -60 -101l12 -68l-78 19q-121 70 -306 95l-65 4l-66 2l-108 -2l-52 -4v-389h667l-96 -125l-131 -96q-119 123 -362 131q-6 0 -30 1q-50 2 -48 -10l2 -569l52 -4l107 -2l67 2l65 4q184 25 305 95l78 19l-11 -68
q0 -27 59 -101z" />
    <glyph glyph-name="Edieresis" unicode="&#xcb;" horiz-adv-x="1213" 
d="M919 1437q0 -77 -133 -79q-122 -2 -135 77q0 69 132 79q120 0 136 -77zM543 1437q0 -77 -132 -79q-122 -2 -135 77q0 68 131 79q121 0 136 -77zM1167 29q-23 -33 -59 -33h-1012l-48 35l108 46q35 28 44 45q0 13 4 40l1 2v902q0 43 -50 82l-108 46l48 35h1011q37 0 60 -33
q-60 -74 -60 -101l12 -68l-78 19q-121 70 -306 95l-65 4l-66 2l-108 -2l-52 -4v-389h667l-96 -125l-131 -96q-119 123 -362 131q-6 0 -30 1q-50 2 -48 -10l2 -569l52 -4l107 -2l67 2l65 4q184 25 305 95l78 19l-11 -68q0 -27 59 -101z" />
    <glyph glyph-name="Igrave" unicode="&#xcc;" horiz-adv-x="723" 
d="M676 1319h-229q13 19 13 24q0 14 -21 39q-71 84 -115 117q-48 35 -158 83l17 52h269l60 -107q68 -121 164 -208zM666 0h-390q54 54 67 89l8 82v808q0 94 -70 132q-22 12 -137 41q-82 21 -97 68l61 9h481v-1058q0 -70 9 -93q11 -27 68 -78z" />
    <glyph glyph-name="Iacute" unicode="&#xcd;" horiz-adv-x="723" 
d="M676 1582q-109 -48 -155.5 -82t-117.5 -118q-21 -25 -21 -39q1 -4 13 -24h-229q97 87 164 208l60 107h269zM666 0h-390q54 54 67 89l8 82v808q0 94 -70 132q-22 12 -137 41q-82 21 -97 68l61 9h481v-1058q0 -70 9 -93q11 -27 68 -78z" />
    <glyph glyph-name="Icircumflex" unicode="&#xce;" horiz-adv-x="850" 
d="M805 1311h-263l35 22q11 4 29 26q-21 22 -147 140q-112 -88 -112 -125q1 -2 5 -25l3 -13l2 -11l3 -20l-25 6h-288q75 44 213 144q61 57 87 76q56 49 101 94q22 -20 184 -153q102 -84 173 -161zM669 0h-390q56 54 68 89l8 82v808q0 93 -70 132q-23 12 -137 41
q-80 20 -97 68l61 9h481v-1058q0 -70 9 -93q10 -27 67 -78z" />
    <glyph glyph-name="Idieresis" unicode="&#xcf;" horiz-adv-x="789" 
d="M744 1437q0 -77 -133 -79q-122 -2 -135 77q0 69 131 79q121 0 137 -77zM368 1437q0 -77 -133 -79q-122 -2 -135 77q0 68 131 79q121 0 137 -77zM666 0h-390q54 54 67 89l8 82v808q0 94 -70 132q-22 12 -137 41q-82 21 -97 68l61 9h481v-1058q0 -70 9 -93q11 -27 68 -78z
" />
    <glyph glyph-name="Eth" unicode="&#xd0;" horiz-adv-x="1904" 
d="M1859 611q0 -311 -268 -489q-234 -155 -560 -155q-117 0 -242 24q-146 28 -213 79v-70l-238 -1v500q-64 -7 -100 -21l-191 -74q100 120 141 154q68 55 150 73v381q231 115 432 181q109 36 330 36q311 0 521 -150q238 -169 238 -468zM1581 611q0 212 -128 355
q-149 167 -422 167q-181 0 -311 -74q-144 -82 -144 -216v-227q51 -12 127 -27q11 -2 65 -2q97 0 186 46q19 10 148 95q-102 -150 -145 -189q-98 -89 -242 -89q-49 0 -139 21v-306q75 -49 221 -78q121 -24 244 -24q250 0 405 184q135 161 135 364z" />
    <glyph glyph-name="Ntilde" unicode="&#xd1;" horiz-adv-x="1721" 
d="M1436 1494q-93 -76 -150 -102q-88 -40 -193 -27l-83 18q-128 47 -177 53q-31 4 -67 4q-35 0 -74 -4l-169 -32q105 78 144 96q95 44 210 30l88 -19l140 -46q107 -14 157 -10q12 1 174 39zM1676 65q0 -62 -38 -72l-23 4q5 -2 18 -10q-46 17 -106 70l-1063 932v-682
q0 -91 68 -171q45 -54 160 -136h-439q88 113 88 205v889l-108 50q-45 9 -107 27q-17 7 -79 47l110 11h351l1044 -937v680q0 43 -9 58q-8 21 -36 57l-142 85v57h311v-1164z" />
    <glyph glyph-name="Ograve" unicode="&#xd2;" horiz-adv-x="1920" 
d="M1192 1319h-229q11 19 12 24q0 16 -20 39q-110 131 -273 200l17 52h269l60 -107q69 -123 164 -208zM1875 615q0 -307 -286 -486q-260 -162 -628 -162q-373 0 -628 162q-286 181 -286 486q0 306 286 485q259 162 628 162q372 0 628 -162q286 -181 286 -485zM1596 615
q0 262 -199 415q-178 137 -436 137q-306 0 -477 -162q-159 -150 -159 -390q0 -238 160 -389q173 -163 476 -163t475 163q160 151 160 389z" />
    <glyph glyph-name="Oacute" unicode="&#xd3;" horiz-adv-x="1920" 
d="M1192 1582q-105 -44 -157 -83q-48 -35 -116 -117q-21 -25 -21 -39q2 -4 13 -24h-229q97 87 164 208l60 107h269zM1875 615q0 -307 -286 -486q-260 -162 -628 -162q-373 0 -628 162q-286 181 -286 486q0 306 286 485q259 162 628 162q372 0 628 -162q286 -181 286 -485z
M1596 615q0 262 -199 415q-178 137 -436 137q-306 0 -477 -162q-159 -150 -159 -390q0 -238 160 -389q173 -163 476 -163t475 163q160 151 160 389z" />
    <glyph glyph-name="Ocircumflex" unicode="&#xd4;" horiz-adv-x="1920" 
d="M1316 1311h-262l35 22q9 4 28 26q-21 22 -147 140q-111 -88 -111 -125q0 -12 4 -25l4 -13l1 -11l3 -20l-23 6h-290q76 44 213 144q61 57 87 76q56 49 101 94q29 -27 184 -153q106 -86 173 -161zM1875 615q0 -307 -286 -486q-260 -162 -628 -162q-373 0 -628 162
q-286 181 -286 486q0 306 286 485q259 162 628 162q372 0 628 -162q286 -181 286 -485zM1596 615q0 262 -199 415q-178 137 -436 137q-306 0 -477 -162q-159 -150 -159 -390q0 -238 160 -389q173 -163 476 -163t475 163q160 151 160 389z" />
    <glyph glyph-name="Otilde" unicode="&#xd5;" horiz-adv-x="1920" 
d="M1394 1494q-94 -76 -151 -102q-88 -40 -193 -27l-83 18q-128 47 -177 53q-31 4 -67 4q-35 0 -74 -4l-169 -32q105 78 144 96q95 44 211 30l87 -19l140 -46q107 -14 157 -10q12 1 175 39zM1875 615q0 -307 -286 -486q-260 -162 -628 -162q-373 0 -628 162
q-286 181 -286 486q0 306 286 485q259 162 628 162q372 0 628 -162q286 -181 286 -485zM1596 615q0 262 -199 415q-178 137 -436 137q-306 0 -477 -162q-159 -150 -159 -390q0 -238 160 -389q173 -163 476 -163t475 163q160 151 160 389z" />
    <glyph glyph-name="Odieresis" unicode="&#xd6;" horiz-adv-x="1920" 
d="M1258 1437q0 -77 -132 -79q-121 -2 -135 77q0 69 131 79q122 0 136 -77zM883 1437q0 -77 -133 -79q-121 -2 -135 77q0 68 131 79q122 0 137 -77zM1875 615q0 -307 -286 -486q-260 -162 -628 -162q-373 0 -628 162q-286 181 -286 486q0 306 286 485q259 162 628 162
q372 0 628 -162q286 -181 286 -485zM1596 615q0 262 -199 415q-178 137 -436 137q-306 0 -477 -162q-159 -150 -159 -390q0 -238 160 -389q173 -163 476 -163t475 163q160 151 160 389z" />
    <glyph glyph-name="multiply" unicode="&#xd7;" horiz-adv-x="701" 
d="M655 480l-53 -122l-259 199l-277 -213l5 183l155 120l-179 138l43 129l241 -186l273 209l-3 -182l-153 -117z" />
    <glyph glyph-name="Oslash" unicode="&#xd8;" horiz-adv-x="1920" 
d="M1875 617q0 -311 -292 -491q-255 -158 -625 -158q-203 0 -378 53q-31 -42 -48 -99h-217l107 115l26 32q-401 176 -401 548q0 333 304 506q248 142 607 142q189 0 372 -50l8 14q2 8 19 65v3l-5 7l-21 25l-31 49q47 23 68 23h276l-180 -233q182 -76 291 -214
q120 -151 120 -337zM1596 617q0 202 -126 348q-35 41 -97 84l-719 -924l65 -25q93 -36 239 -36q265 0 444 142q194 154 194 411zM1261 1111l-65 25q-86 33 -238 33q-301 0 -473 -164q-160 -152 -160 -388q0 -280 217 -431z" />
    <glyph glyph-name="Ugrave" unicode="&#xd9;" horiz-adv-x="1631" 
d="M1071 1319h-229q12 19 12 24q0 16 -19 39q-111 131 -273 200l16 52h270l59 -107q69 -123 164 -208zM1586 596q0 -256 -181 -429q-212 -203 -538 -190l-26 1q-26 1 -51 0l-24 -1q-327 -13 -539 190q-180 173 -180 429q0 151 134 306q140 132 160 155q0 9 -30 31l-147 108
q39 33 65 33h335q20 0 33 -4l11 -14v-29q-283 -209 -283 -586q0 -231 131 -363q90 -90 125 -111q83 -49 235 -54q165 6 242 54q19 12 118 111q132 131 132 363q0 377 -284 586v29l12 14q12 4 33 4h335q26 0 65 -33l-147 -108q-30 -22 -30 -31q18 -23 160 -155
q134 -155 134 -306z" />
    <glyph glyph-name="Uacute" unicode="&#xda;" horiz-adv-x="1631" 
d="M1079 1582q-109 -48 -155.5 -82t-117.5 -118q-21 -25 -21 -39q1 -4 13 -24h-229q97 87 164 208l60 107h269zM1586 596q0 -256 -181 -429q-212 -203 -538 -190l-26 1q-26 1 -51 0l-24 -1q-327 -13 -539 190q-180 173 -180 429q0 151 134 306q140 132 160 155q0 9 -30 31
l-147 108q39 33 65 33h335q20 0 33 -4l11 -14v-29q-283 -209 -283 -586q0 -231 131 -363q90 -90 125 -111q83 -49 235 -54q165 6 242 54q19 12 118 111q132 131 132 363q0 377 -284 586v29l12 14q12 4 33 4h335q26 0 65 -33l-147 -108q-30 -22 -30 -31q18 -23 160 -155
q134 -155 134 -306z" />
    <glyph glyph-name="Ucircumflex" unicode="&#xdb;" horiz-adv-x="1631" 
d="M1204 1311h-263l35 22q11 4 28 26q-21 22 -146 140q-112 -88 -112 -125q1 -2 5 -25l3 -13l3 -11l2 -20l-25 6h-289q76 44 214 144q61 57 87 76q56 49 100 94q27 -24 185 -153q104 -85 173 -161zM1586 596q0 -256 -181 -429q-212 -203 -538 -190l-26 1q-26 1 -51 0l-24 -1
q-327 -13 -539 190q-180 173 -180 429q0 151 134 306q140 132 160 155q0 9 -30 31l-147 108q39 33 65 33h335q20 0 33 -4l11 -14v-29q-283 -209 -283 -586q0 -231 131 -363q90 -90 125 -111q83 -49 235 -54q165 6 242 54q19 12 118 111q132 131 132 363q0 377 -284 586v29
l12 14q12 4 33 4h335q26 0 65 -33l-147 -108q-30 -22 -30 -31q18 -23 160 -155q134 -155 134 -306z" />
    <glyph glyph-name="Udieresis" unicode="&#xdc;" horiz-adv-x="1631" 
d="M1147 1437q0 -77 -133 -79q-122 -2 -135 77q0 69 131 79q121 0 137 -77zM771 1437q0 -77 -133 -79q-122 -2 -135 77q0 68 131 79q121 0 137 -77zM1586 596q0 -256 -181 -429q-212 -203 -538 -190l-26 1q-26 1 -51 0l-24 -1q-327 -13 -539 190q-180 173 -180 429
q0 151 134 306q140 132 160 155q0 9 -30 31l-147 108q39 33 65 33h335q20 0 33 -4l11 -14v-29q-283 -209 -283 -586q0 -231 131 -363q90 -90 125 -111q83 -49 235 -54q165 6 242 54q19 12 118 111q132 131 132 363q0 377 -284 586v29l12 14q12 4 33 4h335q26 0 65 -33
l-147 -108q-30 -22 -30 -31q18 -23 160 -155q134 -155 134 -306z" />
    <glyph glyph-name="Yacute" unicode="&#xdd;" horiz-adv-x="1700" 
d="M1188 1434q-4 -33 -34 -45q-178 -94 -318 -130q-8 -2 -89 -20q0 71 266 244q28 19 69 29q37 0 69 -20q37 -23 37 -58zM1655 1227q-326 -361 -663 -780l-464 -576q-48 -60 -48 -70q0 -8 9 -13q26 -8 37 -16l76 -18q52 -16 58 -37l-425 -6l497 609l-195 278l-277 405
q-3 3 -213 231h509q11 0 58 -32q-89 -53 -89 -98q0 -115 359 -599l259 289q188 211 196 279q-7 63 -159 140l89 14h386z" />
    <glyph glyph-name="Thorn" unicode="&#xde;" horiz-adv-x="1352" 
d="M1306 582q0 -186 -168 -283q-138 -79 -339 -79h-325v-50q0 -70 10 -93q10 -27 67 -78h-390q53 54 68 89l8 82v798q0 74 -95 74q-34 0 -95 -11q60 73 191 111q62 18 236 46v-244l325 1q198 0 338 -81q169 -99 169 -282zM1082 582q0 128 -77 206.5t-206 78.5h-325v-569h324
q130 0 207 77.5t77 206.5z" />
    <glyph glyph-name="germandbls" unicode="&#xdf;" horiz-adv-x="1358" 
d="M1312 187q0 -139 -147 -219q-108 -59 -180 -73q-45 -9 -163 -9q-204 0 -335 80q-110 68 -110 264l273 -47q0 -80 -1 -73q4 -38 33 -62q69 -54 155 -54q80 0 141 42q67 47 67 124q0 129 -160 215q-74 40 -297 158q-160 85 -160 189q256 102 256 246q0 72 -43 136
q-52 78 -138 78q-99 0 -161 -93q-53 -80 -53 -170v-914l-241 -164v1075q0 5 -1 14.5t-2 14.5q-1 130 95 221q-31 0 -31 7q0 15 163 66q230 72 288 72q158 0 267 -78q123 -87 123 -239q0 -102 -106 -188l-182 -113q22 -23 303 -152q347 -159 347 -354z" />
    <glyph glyph-name="agrave" unicode="&#xe0;" horiz-adv-x="1037" 
d="M747 869h-228q12 19 13 24q0 14 -21 39q-72 84 -116 117q-48 35 -157 83l17 52h269l60 -107q67 -121 163 -208zM992 1h-265q-33 0 -55 29q-18 24 -14 34q1 5 6 16q-153 -88 -278 -88q-130 0 -220 42q-119 56 -119 171q0 198 231 246q207 43 265 63q85 29 123 83
q-108 49 -249 49q-117 0 -297 -37q159 114 408 114q122 0 253 -34q87 -32 87 -108v-480q0 -5 13 -18q32 -66 111 -82zM666 189v316q-61 -49 -141 -70q-160 -43 -179 -53q-74 -39 -74 -131q0 -135 170 -135q105 0 224 73z" />
    <glyph glyph-name="aacute" unicode="&#xe1;" horiz-adv-x="1037" 
d="M747 1132q-109 -48 -157 -83q-44 -33 -116 -117q-20 -25 -20 -39q1 -4 13 -24h-229q96 87 164 208l59 107h270zM992 1h-265q-33 0 -55 29q-18 24 -14 34q1 5 6 16q-153 -88 -278 -88q-130 0 -220 42q-119 56 -119 171q0 198 231 246q207 43 265 63q85 29 123 83
q-108 49 -249 49q-117 0 -297 -37q159 114 408 114q122 0 253 -34q87 -32 87 -108v-480q0 -5 13 -18q32 -66 111 -82zM666 189v316q-61 -49 -141 -70q-160 -43 -179 -53q-74 -39 -74 -131q0 -135 170 -135q105 0 224 73z" />
    <glyph glyph-name="acircumflex" unicode="&#xe2;" horiz-adv-x="1037" 
d="M872 879h-262l35 21q10 5 27 27q-21 22 -146 140q-111 -88 -111 -125l7 -39l3 -10l3 -20q-21 4 -25 6h-290q77 43 215 144q61 57 87 76q56 49 100 94q26 -24 184 -153q105 -85 173 -161zM992 1h-265q-33 0 -55 29q-18 24 -14 34q1 5 6 16q-153 -88 -278 -88
q-130 0 -220 42q-119 56 -119 171q0 198 231 246q207 43 265 63q85 29 123 83q-108 49 -249 49q-117 0 -297 -37q159 114 408 114q122 0 253 -34q87 -32 87 -108v-480q0 -5 13 -18q32 -66 111 -82zM666 189v316q-61 -49 -141 -70q-160 -43 -179 -53q-74 -39 -74 -131
q0 -135 170 -135q105 0 224 73z" />
    <glyph glyph-name="atilde" unicode="&#xe3;" horiz-adv-x="1048" 
d="M959 1019q-94 -77 -149 -102q-87 -40 -193 -27l-83 18q-129 47 -178 53q-32 4 -66 4q-37 0 -76 -4l-167 -32q102 77 144 96q96 44 211 30l85 -19l142 -46q109 -14 157 -10q6 0 173 39zM1001 1h-265q-32 0 -55 29q-18 23 -14 34q4 7 6 16q-153 -88 -278 -88
q-127 0 -219 43q-120 57 -120 170q0 198 231 246q208 43 265 63q86 29 123 83q-107 49 -249 49q-117 0 -297 -37q161 114 408 114q123 0 253 -34q87 -32 87 -108v-480q0 -5 13 -18q32 -66 111 -82zM675 189v316q-59 -48 -141 -70q-157 -42 -178 -53q-75 -39 -75 -131
q0 -135 170 -135q105 0 224 73z" />
    <glyph glyph-name="adieresis" unicode="&#xe4;" horiz-adv-x="1037" 
d="M815 982q0 -77 -133 -79q-122 -2 -135 77q0 69 132 79q120 0 136 -77zM439 982q0 -77 -132 -79q-122 -2 -135 77q0 68 131 79q121 0 136 -77zM992 1h-265q-33 0 -55 29q-18 24 -14 34q1 5 6 16q-153 -88 -278 -88q-130 0 -220 42q-119 56 -119 171q0 198 231 246
q207 43 265 63q85 29 123 83q-108 49 -249 49q-117 0 -297 -37q159 114 408 114q122 0 253 -34q87 -32 87 -108v-480q0 -5 13 -18q32 -66 111 -82zM666 189v316q-61 -49 -141 -70q-160 -43 -179 -53q-74 -39 -74 -131q0 -135 170 -135q105 0 224 73z" />
    <glyph glyph-name="aring" unicode="&#xe5;" horiz-adv-x="1037" 
d="M992 1h-265q-33 0 -55 29q-18 24 -14 34q1 5 6 16q-153 -88 -278 -88q-130 0 -220 42q-119 56 -119 171q0 198 231 246q207 43 265 63q85 29 123 83q-108 49 -249 49q-117 0 -297 -37q159 114 408 114q122 0 253 -34q87 -32 87 -108v-480q0 -5 13 -18q32 -66 111 -82z
M666 189v316q-61 -49 -141 -70q-160 -43 -179 -53q-74 -39 -74 -131q0 -135 170 -135q105 0 224 73z" />
    <glyph glyph-name="ae" unicode="&#xe6;" horiz-adv-x="1677" 
d="M1631 272q-133 -290 -475 -290q-159 0 -285 74q-6 -5 -52 -28q-42 -20 -42 -23q3 -3 11 -5l-61 1q-23 0 -50 20.5t-19 42.5q2 5 6 16q-153 -88 -278 -88q-130 0 -220 42q-119 56 -119 171q0 198 231 246q207 43 265 63q85 29 123 83q-108 49 -249 49q-117 0 -297 -37
q159 114 408 114q122 0 253 -34q48 -18 72 -51q118 69 292 69q154 0 250.5 -57t160.5 -192l-658 -90v-6q0 -116 90 -199q95 -88 243 -88q116 0 224 52q113 54 176 145zM1330 517q-17 59 -88 91q-62 28 -128 21q-109 -11 -164 -78q-28 -51 -57 -101zM894 367h-1l-3 -12
q0 6 4 12zM666 189v316q-61 -49 -141 -70q-160 -43 -179 -53q-74 -39 -74 -131q0 -135 170 -135q105 0 224 73z" />
    <glyph glyph-name="ccedilla" unicode="&#xe7;" horiz-adv-x="979" 
d="M933 206q-83 -172 -265 -212v-6q-6 0 -14.5 -16t-8.5 -24q0 15 11 15q20 0 77 -49q89 -76 89 -101q0 -15 -6 -27q-47 -111 -355 -111q-43 0 -96 20q-65 24 -65 61q0 5 2 10q44 -41 124 -41q112 0 167 67q11 14 11 29q0 74 -187 135q0 11 9 34q-149 21 -247 99
q-132 106 -132 286q0 149 161 245q146 87 347 87q81 0 209 -38q149 -44 149 -94q0 -16 -84 -59q-70 -36 -106 -49q13 25 13 47q0 57 -74 90q-57 25 -123 25q-131 0 -205 -92q-62 -78 -62 -185q0 -129 108 -207q97 -70 231 -70q59 0 147 30q108 37 175 101z" />
    <glyph glyph-name="egrave" unicode="&#xe8;" horiz-adv-x="1050" 
d="M779 869h-229q12 19 13 24q0 14 -21 39q-71 84 -116 117q-48 35 -157 83l17 52h269l60 -107q68 -121 164 -208zM1005 272q-134 -290 -476 -290q-177 0 -319 90q-163 104 -163 272q0 184 150 281q128 82 322 82q154 0 248 -56q98 -58 162 -193l-663 -91l-2 -12q2 10 6 19
q2 -4 2 -12q0 -132 102 -213q95 -74 230 -74q116 0 224 52q113 54 177 145zM703 517q-17 59 -87 91q-63 28 -129 21q-109 -11 -163 -78q-29 -51 -58 -101z" />
    <glyph glyph-name="eacute" unicode="&#xe9;" horiz-adv-x="1050" 
d="M779 1132q-110 -48 -158 -83q-44 -33 -115 -117q-21 -25 -21 -39q1 -4 13 -24h-229q96 87 164 208l60 107h269zM1005 272q-134 -290 -476 -290q-177 0 -319 90q-163 104 -163 272q0 184 150 281q128 82 322 82q154 0 248 -56q98 -58 162 -193l-663 -91l-2 -12q2 10 6 19
q2 -4 2 -12q0 -132 102 -213q95 -74 230 -74q116 0 224 52q113 54 177 145zM703 517q-17 59 -87 91q-63 28 -129 21q-109 -11 -163 -78q-29 -51 -58 -101z" />
    <glyph glyph-name="ecircumflex" unicode="&#xea;" horiz-adv-x="1050" 
d="M903 879h-262l35 21q10 5 27 27q-21 22 -145 140q-112 -88 -112 -125l8 -39l2 -10l3 -20q-21 4 -25 6h-290q77 43 215 144q61 57 87 76q56 49 100 94q26 -24 185 -153q104 -85 172 -161zM1005 272q-134 -290 -476 -290q-177 0 -319 90q-163 104 -163 272q0 184 150 281
q128 82 322 82q154 0 248 -56q98 -58 162 -193l-663 -91l-2 -12q2 10 6 19q2 -4 2 -12q0 -132 102 -213q95 -74 230 -74q116 0 224 52q113 54 177 145zM703 517q-17 59 -87 91q-63 28 -129 21q-109 -11 -163 -78q-29 -51 -58 -101z" />
    <glyph glyph-name="edieresis" unicode="&#xeb;" horiz-adv-x="1050" 
d="M846 982q0 -77 -132 -79q-123 -2 -136 77q0 69 132 79q121 0 136 -77zM471 982q0 -77 -133 -79q-122 -2 -135 77q0 68 131 79q121 0 137 -77zM1005 272q-134 -290 -476 -290q-177 0 -319 90q-163 104 -163 272q0 184 150 281q128 82 322 82q154 0 248 -56
q98 -58 162 -193l-663 -91l-2 -12q2 10 6 19q2 -4 2 -12q0 -132 102 -213q95 -74 230 -74q116 0 224 52q113 54 177 145zM703 517q-17 59 -87 91q-63 28 -129 21q-109 -11 -163 -78q-29 -51 -58 -101z" />
    <glyph glyph-name="igrave" unicode="&#xec;" horiz-adv-x="602" 
d="M556 869h-228q11 19 11 24q0 16 -19 39q-111 131 -273 200l17 52h269l60 -107q68 -123 163 -208zM537 0h-369l59 45q25 24 25 55v430q0 62 -54 83q-36 8 -51 16q-25 8 -81 59h389v-588q0 -24 8 -37q4 -12 74 -63z" />
    <glyph glyph-name="iacute" unicode="&#xed;" horiz-adv-x="602" 
d="M556 1132q-105 -44 -157 -83q-47 -35 -116 -117q-20 -25 -20 -39q1 -4 13 -24h-229q96 87 164 208l59 107h269zM537 0h-369l59 45q25 24 25 55v430q0 62 -54 83q-36 8 -51 16q-25 8 -81 59h389v-588q0 -24 8 -37q4 -12 74 -63z" />
    <glyph glyph-name="icircumflex" unicode="&#xee;" horiz-adv-x="850" 
d="M805 879h-263l35 21q11 5 29 27q-21 22 -147 140q-112 -88 -112 -125l8 -39l2 -10l3 -20q-21 4 -25 6h-288q75 43 213 144q61 57 87 76q56 49 101 94q22 -20 184 -153q102 -84 173 -161zM660 0h-369l60 45q25 24 25 55v430q0 62 -55 83q-34 8 -51 16q-23 8 -80 59h388
v-588q0 -24 8 -37q4 -12 74 -63z" />
    <glyph glyph-name="idieresis" unicode="&#xef;" horiz-adv-x="736" 
d="M690 982q0 -77 -132 -79q-123 -2 -136 77q0 69 132 79q121 0 136 -77zM315 982q0 -77 -133 -79q-122 -2 -135 77q0 68 131 79q121 0 137 -77zM603 0h-369l60 45q24 24 24 55v430q0 62 -54 83q-34 8 -51 16q-23 8 -80 59h388v-588q0 -24 8 -37q4 -12 74 -63z" />
    <glyph glyph-name="eth" unicode="&#xf0;" horiz-adv-x="1278" 
d="M1231 1090q-45 -79 -75 -113q-51 -58 -123 -83q101 -140 101 -318q0 -35 -6 -79q-26 -218 -160 -354q-158 -161 -425 -155q-231 6 -371 157q-107 115 -107 230q0 171 151 260q127 75 308 71q118 -2 200 -53q99 -60 99 -170q0 -35 -12 -73q-10 95 -112 155q-73 44 -132 45
q-119 3 -193 -82t-74 -202q0 -86 47 -155q68 -100 205 -103q260 -5 311 435q5 45 5 95q0 153 -57 280q-38 2 -66 2q-34 0 -55 -3q-62 -9 -134 -37l-143 -75q61 99 93 128q71 67 184 84l56 3q-90 95 -242 95q-113 0 -251 -60q-38 80 -89 108l-117 65l369 -8q345 -7 543 -200
q84 12 126 28q13 5 146 82z" />
    <glyph glyph-name="ntilde" unicode="&#xf1;" horiz-adv-x="1084" 
d="M1028 1019q-94 -77 -149 -102q-87 -40 -193 -27l-83 18q-130 47 -177 53q-31 4 -67 4q-37 0 -76 -4l-167 -32q102 77 144 96q96 44 211 30l87 -19l140 -46q109 -14 157 -10q6 0 173 39zM1039 -13h-347l3 70q107 151 107 320q0 220 -260 220q-58 0 -136 -37
q-68 -32 -68 -55v-378q0 -30 25 -54l74 -38l11 -48h-401l61 45q27 24 27 55v489q0 36 -87 101h290v-55q143 68 329 68q200 0 327 -161q33 -67 33 -154q0 -69 -95 -228l-4 -18q1 -25 86 -86z" />
    <glyph glyph-name="ograve" unicode="&#xf2;" horiz-adv-x="1105" 
d="M807 869h-229q13 19 13 24q0 14 -20 39q-72 84 -116 117q-48 35 -157 83l17 52h269l59 -107q68 -121 164 -208zM1059 344q0 -186 -168 -283q-138 -79 -339 -79q-198 0 -336 80q-169 98 -169 282q0 189 166 285q136 78 339 78q198 0 338 -81q169 -99 169 -282zM835 344
q0 128 -77 206.5t-206 78.5t-204.5 -78t-75.5 -207q0 -109 62 -188q76 -96 218 -96q128 0 205.5 78t77.5 206z" />
    <glyph glyph-name="oacute" unicode="&#xf3;" horiz-adv-x="1105" 
d="M807 1132q-109 -48 -157 -83q-44 -33 -116 -117q-21 -25 -21 -39q2 -4 13 -24h-228q96 87 163 208l60 107h269zM1059 344q0 -186 -168 -283q-138 -79 -339 -79q-198 0 -336 80q-169 98 -169 282q0 189 166 285q136 78 339 78q198 0 338 -81q169 -99 169 -282zM835 344
q0 128 -77 206.5t-206 78.5t-204.5 -78t-75.5 -207q0 -109 62 -188q76 -96 218 -96q128 0 205.5 78t77.5 206z" />
    <glyph glyph-name="ocircumflex" unicode="&#xf4;" horiz-adv-x="1105" 
d="M932 879h-263l36 21q10 5 27 27q-21 22 -146 140q-112 -88 -112 -125l8 -39l3 -10l2 -20q-20 4 -24 6h-290q77 43 214 144q61 57 87 76q56 49 101 94q26 -24 184 -153q105 -85 173 -161zM1059 344q0 -186 -168 -283q-138 -79 -339 -79q-198 0 -336 80q-169 98 -169 282
q0 189 166 285q136 78 339 78q198 0 338 -81q169 -99 169 -282zM835 344q0 128 -77 206.5t-206 78.5t-204.5 -78t-75.5 -207q0 -109 62 -188q76 -96 218 -96q128 0 205.5 78t77.5 206z" />
    <glyph glyph-name="otilde" unicode="&#xf5;" horiz-adv-x="1105" 
d="M1009 1019q-95 -77 -150 -102q-87 -40 -192 -27l-83 18q-130 47 -177 53q-31 4 -68 4q-36 0 -75 -4l-168 -32q103 77 144 96q97 44 211 30l87 -19l141 -46q109 -14 157 -10q5 0 173 39zM1059 344q0 -186 -168 -283q-138 -79 -339 -79q-198 0 -336 80q-169 98 -169 282
q0 189 166 285q136 78 339 78q198 0 338 -81q169 -99 169 -282zM835 344q0 128 -77 206.5t-206 78.5t-204.5 -78t-75.5 -207q0 -109 62 -188q76 -96 218 -96q128 0 205.5 78t77.5 206z" />
    <glyph glyph-name="odieresis" unicode="&#xf6;" horiz-adv-x="1105" 
d="M874 982q0 -77 -133 -79q-121 -2 -135 77q0 69 131 79q122 0 137 -77zM498 982q0 -77 -133 -79q-121 -2 -135 77q0 68 131 79q123 0 137 -77zM1059 344q0 -186 -168 -283q-138 -79 -339 -79q-198 0 -336 80q-169 98 -169 282q0 189 166 285q136 78 339 78q198 0 338 -81
q169 -99 169 -282zM835 344q0 128 -77 206.5t-206 78.5t-204.5 -78t-75.5 -207q0 -109 62 -188q76 -96 218 -96q128 0 205.5 78t77.5 206z" />
    <glyph glyph-name="divide" unicode="&#xf7;" horiz-adv-x="1079" 
d="M673 891q0 -86 -131 -97q-122 0 -135 95q0 86 132 96q119 0 134 -94zM1033 708l-176 -127h-810l177 127h809zM673 402q0 -87 -131 -97q-122 0 -135 95q0 87 132 97q119 0 134 -95z" />
    <glyph glyph-name="oslash" unicode="&#xf8;" horiz-adv-x="1108" 
d="M1062 345q0 -185 -168 -285q-140 -83 -339 -83q-116 0 -213 30q-73 -95 -73 -134h-222l119 125l54 63q-171 105 -171 284q0 188 167 288q138 82 339 82q79 0 165 -19l26 39l11 24l-6 14l-24 30l-32 47q47 23 68 23h256l-171 -218q214 -98 214 -310zM837 345
q0 124 -73 203l-361 -454q25 -14 58 -27q49 -11 94 -11q143 0 220 97q62 79 62 192zM660 619q-45 17 -105 17q-144 0 -220 -98q-61 -79 -61 -193q0 -91 41 -160z" />
    <glyph glyph-name="ugrave" unicode="&#xf9;" horiz-adv-x="1018" 
d="M764 869h-228q11 19 11 24q0 16 -19 39q-111 131 -273 200l17 52h269l60 -107q68 -123 163 -208zM972 305q0 -180 -136 -257q-101 -58 -300 -64q-220 -7 -345 61q-61 33 -98 108q-35 69 -35 143q0 69 95 228l4 18q-5 25 -86 86l-24 56h347l-4 -70q-107 -151 -107 -320
q0 -140 52 -175q54 -51 227 -55l5 1q82 24 114 57q7 8 22 24v-6l2 2q55 86 55 163q0 166 -131 316l-18 72h350l-22 -56q-85 -61 -86 -86l4 -16l79 -100q36 -62 36 -130z" />
    <glyph glyph-name="uacute" unicode="&#xfa;" horiz-adv-x="1018" 
d="M764 1132q-105 -44 -157 -83q-47 -35 -116 -117q-20 -25 -20 -39q1 -4 13 -24h-229q96 87 164 208l59 107h269zM972 305q0 -180 -136 -257q-101 -58 -300 -64q-220 -7 -345 61q-61 33 -98 108q-35 69 -35 143q0 69 95 228l4 18q-5 25 -86 86l-24 56h347l-4 -70
q-107 -151 -107 -320q0 -140 52 -175q54 -51 227 -55l5 1q82 24 114 57q7 8 22 24v-6l2 2q55 86 55 163q0 166 -131 316l-18 72h350l-22 -56q-85 -61 -86 -86l4 -16l79 -100q36 -62 36 -130z" />
    <glyph glyph-name="ucircumflex" unicode="&#xfb;" horiz-adv-x="1018" 
d="M888 879h-261l35 21q10 6 27 27q-21 22 -147 140q-110 -88 -110 -125q0 -13 3 -26l4 -13l4 -30q-19 4 -23 6h-290q77 43 213 144q61 57 87 76q56 49 102 94q28 -27 183 -153q106 -86 173 -161zM972 305q0 -180 -136 -257q-101 -58 -300 -64q-220 -7 -345 61
q-61 33 -98 108q-35 69 -35 143q0 69 95 228l4 18q-5 25 -86 86l-24 56h347l-4 -70q-107 -151 -107 -320q0 -140 52 -175q54 -51 227 -55l5 1q82 24 114 57q7 8 22 24v-6l2 2q55 86 55 163q0 166 -131 316l-18 72h350l-22 -56q-85 -61 -86 -86l4 -16l79 -100q36 -62 36 -130
z" />
    <glyph glyph-name="udieresis" unicode="&#xfc;" horiz-adv-x="1018" 
d="M831 982q0 -77 -133 -79q-121 -2 -135 77q0 69 131 79q122 0 137 -77zM455 982q0 -77 -133 -79q-121 -2 -135 77q0 68 131 79q123 0 137 -77zM972 305q0 -180 -136 -257q-101 -58 -300 -64q-220 -7 -345 61q-61 33 -98 108q-35 69 -35 143q0 69 95 228l4 18q-5 25 -86 86
l-24 56h347l-4 -70q-107 -151 -107 -320q0 -140 52 -175q54 -51 227 -55l5 1q82 24 114 57q7 8 22 24v-6l2 2q55 86 55 163q0 166 -131 316l-18 72h350l-22 -56q-85 -61 -86 -86l4 -16l79 -100q36 -62 36 -130z" />
    <glyph glyph-name="yacute" unicode="&#xfd;" horiz-adv-x="1136" 
d="M840 1132q-105 -44 -158 -83q-47 -35 -115 -117q-21 -25 -21 -39q1 -4 13 -24h-229q96 87 164 208l60 107h269zM1091 688l-65 -45q-29 -25 -29 -57v-497q0 -196 -69 -275l-35 -40q-154 -176 -455 -176q-62 0 -114 9q-197 34 -272 141l161 145l13 -36q0 -87 85 -137
q71 -42 165 -42q74 0 154.5 39.5t124.5 98.5q35 46 37 105q0 28 2 119q-160 -72 -303 -72q-182 0 -300 68q-144 84 -144 254q0 67 36 133q16 29 83 121q-7 35 -89 90l-16 54h347l-18 -74q-118 -138 -118 -324q0 -112 77 -172q70 -54 185 -54q98 0 185 33q75 29 75 61v387
q0 31 -24 55l-75 39l-11 49h407z" />
    <glyph glyph-name="thorn" unicode="&#xfe;" horiz-adv-x="1209" 
d="M1163 367q0 -196 -165 -301q-140 -89 -348 -89q-159 0 -269 53v-176q0 -56 28 -88q25 -28 277 -28q-287 -57 -353 -97q-81 -48 -120 -57q-35 31 -35 50v1134q0 34 -45 65q-67 45 -81 45l-5 48q75 10 206 69q52 23 177 83l-6 -79q-43 -106 -43 -164v-172q125 50 269 50
q209 0 341 -68q172 -89 172 -278zM939 367q0 122 -84 195q-81 70 -205 70q-83 0 -187 -46q-82 -36 -82 -74v-305q0 -50 104 -102q95 -48 165 -48q126 0 213 110q76 96 76 200z" />
    <glyph glyph-name="ydieresis" unicode="&#xff;" horiz-adv-x="1136" 
d="M906 982q0 -77 -133 -79q-120 -2 -135 77q0 69 132 79q122 0 136 -77zM530 982q0 -77 -132 -79q-121 -2 -135 77q0 68 131 79q122 0 136 -77zM1091 688l-65 -45q-29 -25 -29 -57v-497q0 -196 -69 -275l-35 -40q-154 -176 -455 -176q-62 0 -114 9q-197 34 -272 141
l161 145l13 -36q0 -87 85 -137q71 -42 165 -42q74 0 154.5 39.5t124.5 98.5q35 46 37 105q0 28 2 119q-160 -72 -303 -72q-182 0 -300 68q-144 84 -144 254q0 67 36 133q16 29 83 121q-7 35 -89 90l-16 54h347l-18 -74q-118 -138 -118 -324q0 -112 77 -172q70 -54 185 -54
q98 0 185 33q75 29 75 61v387q0 31 -24 55l-75 39l-11 49h407z" />
    <glyph glyph-name="OE" unicode="&#x152;" horiz-adv-x="2317" 
d="M2270 28q-17 -34 -48 -34h-995l-39 37l87 48q30 29 37 46q0 14 2 42l2 2v28q-250 -205 -533 -205q-300 0 -506 156q-230 174 -230 465q0 293 230 464q208 155 506 155q321 0 533 -175v24q0 44 -42 85l-87 48l39 37h996q30 0 48 -35q-48 -77 -48 -105l9 -71l-64 20
q-96 73 -246 99l-52 4l-53 2l-266 -2l-43 -4v-406h717l-78 -130l-105 -100q-101 135 -291 136l-204 1q-22 0 -28 -1q2 -23 2 -46q0 -68 -12 -129v-398l42 -4h319l54 4q149 26 245 99l64 20l-10 -71q0 -28 48 -106zM1295 613q0 206 -120 354q-140 174 -392 174
q-262 0 -398 -171q-115 -143 -115 -357q0 -212 116 -356q139 -173 397 -173q260 0 397 172q115 143 115 357z" />
    <glyph glyph-name="oe" unicode="&#x153;" horiz-adv-x="1845" 
d="M1799 272q-134 -290 -476 -290q-213 0 -365 131q-146 -131 -406 -131q-198 0 -336 80q-169 98 -169 282q0 189 166 285q136 78 339 78q250 0 396 -122q134 122 365 122q154 0 248 -56q99 -58 163 -193l-658 -90v-6q0 -116 90 -199q95 -88 243 -88q115 0 224 52
q113 54 176 145zM1498 517q-17 59 -88 91q-62 28 -128 21q-109 -11 -164 -78q-29 -51 -57 -101zM835 344q0 128 -77 206.5t-206 78.5t-204.5 -78t-75.5 -207q0 -109 62 -188q76 -96 218 -96q128 0 205.5 78t77.5 206z" />
    <glyph glyph-name="Scaron" unicode="&#x160;" horiz-adv-x="1304" 
d="M1048 1619q-67 -75 -173 -161q-155 -126 -183 -153q-46 45 -102 94q-30 22 -87 76q-51 48 -213 144h290l23 6l-4 -31l-4 -12q-4 -20 -4 -26q0 -37 111 -125q140 131 147 140q-20 23 -27 26l-36 22h262zM1258 362q0 -185 -221 -283q-183 -81 -447 -81q-255 0 -543 90
q75 130 79 145q9 30 10 162q194 -301 507 -301q377 0 377 176q0 146 -226 210l-465 92q-272 77 -272 269q0 154 185 271q126 80 232 102q73 15 233 15q237 0 463 -77l-30 -51q-26 -29 -42 -66l-2 -25q2 -34 2 -52q0 -13 -1 -18q-8 -16 -61 -48q-78 242 -408 242
q-137 0 -223 -48q-109 -61 -109 -187q0 -122 224 -169l467 -99q271 -84 271 -269z" />
    <glyph glyph-name="scaron" unicode="&#x161;" horiz-adv-x="916" 
d="M837 1187q-66 -75 -173 -161q-155 -126 -183 -153q-46 45 -101 94q-27 18 -88 76q-49 47 -213 144h290l24 6l-4 -31l-4 -13q-4 -13 -4 -25q0 -37 110 -125q141 131 147 140q-19 23 -27 26l-35 22h261zM871 201q0 -102 -140 -163q-120 -52 -268 -52q-163 0 -269 45
q-147 63 -147 204q53 8 70 14q52 13 126 34q-10 -22 -10 -44q0 -75 100 -141q51 -34 130 -34q74 0 130 23q75 32 75 95q0 67 -168 107q-36 9 -239 54q-141 53 -141 161q0 101 124 157q102 46 245 46q313 0 353 -191q-106 -18 -174 -55q-12 168 -190 168q-156 0 -156 -133
q0 -67 250 -109q299 -51 299 -186z" />
    <glyph glyph-name="Ydieresis" unicode="&#x178;" horiz-adv-x="1700" 
d="M1196 1429q0 -88 -131 -101q-123 0 -136 98q0 91 133 102q118 0 134 -99zM822 1429q0 -90 -133 -101q-122 0 -135 98q0 91 132 102q116 0 136 -99zM1655 1227q-326 -361 -663 -780l-464 -576q-48 -60 -48 -70q0 -8 9 -13q26 -8 37 -16l76 -18q52 -16 58 -37l-425 -6
l497 609l-195 278l-277 405q-3 3 -213 231h509q11 0 58 -32q-89 -53 -89 -98q0 -115 359 -599l259 289q188 211 196 279q-7 63 -159 140l89 14h386z" />
    <glyph glyph-name="florin" unicode="&#x192;" horiz-adv-x="1253" 
d="M1206 999l-28 -6q-22 0 -100 -35l-87 -39l67 75q-15 64 -170 64q-52 0 -100 -42q-69 -59 -80 -149l-18 -157l386 -2l-76 -93l-320 2l-63 -518q-24 -205 -198 -324q-154 -107 -372 -115q328 103 368 439l61 519l-211 -3l47 71q31 16 38 51q7 42 22 62q31 -53 86 -72
q7 -5 29 -14l19 150q24 97 76 148l87 61q116 81 286 81q91 0 176 -52q71 -44 75 -102z" />
    <glyph glyph-name="circumflex" unicode="&#x2c6;" horiz-adv-x="781" 
d="M736 836l-165 -87q-84 22 -241 106q-38 -29 -203 -105l-80 40l178 94q78 41 145 112q123 -80 162 -98q58 -27 204 -62z" />
    <glyph glyph-name="tilde" unicode="&#x2dc;" horiz-adv-x="1006" 
d="M959 1226q-94 -77 -149 -102q-87 -40 -193 -27l-83 18q-129 47 -178 53q-32 4 -66 4q-37 0 -76 -4l-167 -32q102 77 144 96q96 44 211 30l85 -19l142 -46q109 -14 157 -10q6 0 173 39z" />
    <glyph glyph-name="endash" unicode="&#x2013;" horiz-adv-x="962" 
d="M916 545l-176 -86h-693l177 86h692z" />
    <glyph glyph-name="emdash" unicode="&#x2014;" horiz-adv-x="1430" 
d="M1384 545l-179 -86h-1158l177 86h1160z" />
    <glyph glyph-name="quoteleft" unicode="&#x2018;" horiz-adv-x="360" 
d="M315 1019q1 -44 -49 -69q-40 -21 -88 -21q-131 0 -131 96q0 76 119 171q56 44 141 51l-7 -13q-86 -83 -86 -155h69q26 0 30 -23z" />
    <glyph glyph-name="quoteright" unicode="&#x2019;" horiz-adv-x="360" 
d="M315 1151q0 -76 -120 -171q-56 -44 -140 -51l6 13q85 83 86 155h-69q-27 0 -31 23v37q0 90 136 90q132 0 132 -96z" />
    <glyph glyph-name="quotesinglbase" unicode="&#x201a;" horiz-adv-x="360" 
d="M315 48q0 -76 -120 -171q-56 -44 -140 -51l6 13q85 83 86 155h-69q-27 0 -31 23v37q0 90 136 90q132 0 132 -96z" />
    <glyph glyph-name="quotedblleft" unicode="&#x201c;" horiz-adv-x="724" 
d="M679 1019q1 -44 -49 -69q-40 -21 -88 -21q-131 0 -131 96q0 76 119 171q56 44 141 51l-7 -13q-86 -83 -86 -155h69q26 0 30 -24q0 -2 2 -36zM315 1019q1 -44 -49 -69q-40 -21 -88 -21q-131 0 -131 96q0 76 119 171q56 44 141 51l-7 -13q-86 -83 -86 -155h69q26 0 30 -24
q0 -2 2 -36z" />
    <glyph glyph-name="quotedblright" unicode="&#x201d;" horiz-adv-x="724" 
d="M679 1151q0 -76 -120 -171q-56 -44 -140 -51l6 13q85 83 86 155h-69q-27 0 -31 23v37q0 90 136 90q132 0 132 -96zM315 1151q0 -76 -120 -171q-56 -44 -140 -51l6 13q85 83 86 155h-69q-27 0 -31 23v37q0 90 136 90q132 0 132 -96z" />
    <glyph glyph-name="quotedblbase" unicode="&#x201e;" horiz-adv-x="737" 
d="M692 48q0 -76 -120 -171q-56 -44 -140 -51l6 13q85 83 86 155h-69q-27 0 -31 23v37q0 90 136 90q132 0 132 -96zM315 48q0 -76 -120 -171q-56 -44 -140 -51l6 13q85 83 86 155h-69q-27 0 -31 23v37q0 90 136 90q132 0 132 -96z" />
    <glyph glyph-name="dagger" unicode="&#x2020;" horiz-adv-x="1001" 
d="M955 953q-96 -47 -98 -97h-266v-929q0 -73 7 -94q8 -25 47 -78h-275q39 54 49 90l5 82v929h-377q79 35 99 97h278v91l-5 83q-10 35 -49 89h275q-39 -53 -47 -78q-7 -21 -7 -94v-91h364z" />
    <glyph glyph-name="daggerdbl" unicode="&#x2021;" horiz-adv-x="1001" 
d="M955 103q-96 -47 -98 -97h-266v-79q0 -73 7 -94q8 -25 47 -78h-275q39 54 49 90l5 82v79h-377q79 35 99 97h278v753h-377q79 35 99 97h278v91l-5 83q-10 35 -49 89h275q-39 -53 -47 -78q-7 -21 -7 -94v-91h364q-96 -47 -98 -97h-266v-753h364z" />
    <glyph glyph-name="bullet" unicode="&#x2022;" horiz-adv-x="927" 
d="M881 762q0 -147 -142 -229q-118 -68 -276 -68t-275 68q-141 82 -141 229q0 144 144 227q119 68 274 68q159 0 275 -67q141 -81 141 -228z" />
    <glyph glyph-name="ellipsis" unicode="&#x2026;" horiz-adv-x="1334" 
d="M1288 72q0 -43 -53 -68q-42 -19 -91 -19q-144 0 -144 87q0 45 53 68q40 18 91 18t91 -18q53 -23 53 -68zM810 72q0 -44 -54 -68q-42 -19 -92 -19q-143 0 -143 87q0 86 143 86q51 0 92 -18q54 -24 54 -68zM335 72q0 -43 -53 -68q-42 -19 -91 -19q-144 0 -144 87
q0 45 53 68q40 18 91 18t92 -18q52 -23 52 -68z" />
    <glyph glyph-name="perthousand" unicode="&#x2030;" horiz-adv-x="2333" 
d="M2288 256q0 -137 -121 -210q-102 -61 -248 -61q-147 0 -247 61q-120 72 -120 210q0 135 121 210q102 62 246 62q148 0 248 -60q121 -73 121 -212zM835 961q0 -137 -121 -210q-101 -60 -247 -60q-149 0 -248 59q-120 72 -120 211q0 137 121 210q101 62 247 62
q148 0 248 -60q120 -73 120 -212zM1423 1229l-993 -1046q-60 -64 -80 -88q-43 -52 -61 -96h-242q96 60 167 132l80 80l698 736q121 127 121 181v5l-21 26l-17 30q0 40 65 40h283zM1495 256q0 -137 -121 -210q-102 -61 -248 -61q-147 0 -247 61q-120 72 -120 210
q0 135 121 210q102 62 246 62q148 0 248 -60q121 -73 121 -212zM2111 256q0 90 -51 145t-141 55q-89 0 -140 -55.5t-51 -144.5q0 -91 50.5 -146t140.5 -55q88 0 140 56.5t52 144.5zM658 961q0 89 -51.5 144.5t-139.5 55.5q-89 0 -140 -55.5t-51 -144.5q0 -200 191 -200
q88 0 140 57q51 54 51 143zM1318 256q0 90 -51 145t-141 55q-88 0 -139.5 -55.5t-51.5 -144.5q0 -91 50.5 -146t140.5 -55q88 0 140 56.5t52 144.5z" />
    <glyph glyph-name="guilsinglleft" unicode="&#x2039;" horiz-adv-x="850" 
d="M805 22l-227 -42q-59 119 -267 228l-264 138q388 95 470 329l255 27q-113 -261 -357 -355q316 -178 390 -325z" />
    <glyph glyph-name="guilsinglright" unicode="&#x203a;" horiz-adv-x="850" 
d="M805 342q-389 -94 -471 -328l-253 -27q113 263 357 355q-317 178 -391 325l226 40q59 -118 268 -227z" />
    <glyph glyph-name="trademark" unicode="&#x2122;" horiz-adv-x="1488" 
d="M1442 1103q-51 -16 -51 -38v-5l1 -345q0 -45 31 -62h-124q26 16 28 46l2 16v295q0 20 -6 34l-195 -190q-31 -30 -31 -53q0 -5 1 -8l-247 219v-248q0 -53 78 -111h-150q30 41 30 74v323l-37 18q-18 3 -36 10q-8 3 -28 17l38 4h120l235 -219l195 190l43 31zM692 1099
l-39 -22q-21 -12 -33 -39l-9 -33q-36 33 -55 42q-26 13 -71 13h-46v-346q0 -36 26 -62h-132q19 19 23 32l3 30v293q0 34 -25 48q-3 2 -12 5h-108q-54 0 -87 -12l-80 -40l54 66q24 28 24 84q43 -59 138 -59h429z" />
    <glyph glyph-name="glyph217" 
 />
    <glyph glyph-name="glyph218" 
 />
    <glyph glyph-name="glyph217" 
 />
    <glyph glyph-name="glyph218" 
 />
    <glyph glyph-name="ch331" 
 />
    <glyph glyph-name="ch332" 
 />
    <glyph glyph-name="ch333" 
 />
    <glyph glyph-name="ch334" 
 />
    <glyph glyph-name="glyph98" horiz-adv-x="1940" 
 />
    <glyph glyph-name="glyph99" horiz-adv-x="1940" 
 />
    <glyph glyph-name="glyph100" horiz-adv-x="1940" 
 />
    <glyph glyph-name="glyph112" horiz-adv-x="515" 
d="M487 463h-239q37 32 43 53l4 49v492h-5l-33 3h-17l-84 -7l34 20q65 27 131 54q85 35 121 64q-4 -13 -7 -16v1q3 -12 3 -72v-566q0 -36 49 -75z" />
    <glyph glyph-name="glyph113" horiz-adv-x="1054" 
d="M1027 609l-85 -154l-651 -2v29q10 0 129 80q94 63 139 96q239 175 239 286q0 81 -64 125q-56 39 -141 39q-26 0 -60 -10q-44 -13 -36 -29q-21 -32 -21 -74q0 -44 22 -89l-66 6l-73 -3l-44 -8q0 43 24 101q30 70 74 96q110 64 259 64q100 0 172 -32q97 -42 97 -129
q0 -209 -435 -462h278q70 0 125 21q27 10 118 49z" />
    <glyph glyph-name="glyph114" horiz-adv-x="970" 
d="M941 649q0 -104 -116 -161q-92 -46 -208 -46q-124 0 -237 39l-110 63q120 10 228 61v-36q0 -79 101 -79q57 0 107 33q69 46 69 126q0 171 -315 199q165 33 200 47q98 39 98 102q0 59 -69 91q-52 24 -120 24q-36 0 -74 -25q-41 -27 -41 -62q0 -10 4 -19l-84 10h-18
q-10 0 -62 5q108 139 343 139q95 0 175 -30q99 -37 99 -101q0 -81 -84 -127q-24 -13 -95 -35q209 -80 209 -218z" />
    <glyph glyph-name="glyph115" horiz-adv-x="1134" 
d="M1106 758l-70 -67h-112v-161q0 -12 4 -24q0 -15 46 -51h-243q41 32 46 54l6 49v133h-472q73 68 100 105q74 102 74 194q0 55 -35 82l-115 40q22 15 33 19l-4 -1q70 32 152 32q81 -36 81 -170q0 -24 -6 -43q-32 -116 -89 -191h281v135q0 27 -39 52q-16 10 -63 38
q92 10 142 30l131 67l-4 -49q-26 -64 -26 -98v-175h182z" />
    <glyph glyph-name="glyph128" horiz-adv-x="1940" 
 />
    <glyph glyph-name="glyph129" horiz-adv-x="1940" 
 />
    <glyph glyph-name="glyph227" horiz-adv-x="1940" 
 />
    <glyph glyph-name="glyph228" horiz-adv-x="1940" 
 />
  </font>
</defs>
</svg>
