<?xml version="1.0" standalone="no"?>
<!DOCTYPE svg PUBLIC "-//W3C//DTD SVG 1.1//EN" "http://www.w3.org/Graphics/SVG/1.1/DTD/svg11.dtd" >
<svg xmlns="http://www.w3.org/2000/svg" xmlns:xlink="http://www.w3.org/1999/xlink" version="1.1">
<metadata>
Created by FontForge 20170731 at Mon Apr  2 00:11:54 2001
 By Aleksey,,,
(c)GeM/FF
</metadata>
<defs>
<font id="Dumbledor13D" horiz-adv-x="1535" >
  <font-face 
    font-family="Dumbledor 1 3D"
    font-weight="400"
    font-stretch="normal"
    units-per-em="2048"
    panose-1="0 0 4 0 0 0 0 0 0 0"
    ascent="1638"
    descent="-410"
    x-height="719"
    cap-height="1260"
    bbox="-186 -573 1982 1675"
    underline-thickness="20"
    underline-position="-163"
    unicode-range="U+0020-2122"
  />
<missing-glyph horiz-adv-x="1024" 
d="M128 0v1675h768v-1675h-768zM256 128h512v1419h-512v-1419z" />
    <glyph glyph-name=".notdef" horiz-adv-x="1024" 
d="M128 0v1675h768v-1675h-768zM256 128h512v1419h-512v-1419z" />
    <glyph glyph-name="glyph1" horiz-adv-x="0" 
 />
    <glyph glyph-name="nonmarkingreturn" horiz-adv-x="877" 
 />
    <glyph glyph-name="space" unicode=" " horiz-adv-x="877" 
 />
    <glyph glyph-name="exclam" unicode="!" horiz-adv-x="480" 
d="M432 276h-20l-88 -88q32 -38 32 -90q0 -83 -71 -121l-74 -73q-40 -39 -100 -39t-98 35.5t-38 95.5q0 57 37 94l74 74l4 8q2 4 6 8h-194l96 96h-8l16 17q0 3 1 8t1 8v531q0 24 -26 47q-41 37 -66 37l-8 94l96 96v10q75 13 164 64q10 12 61 43l123 74q-20 -100 -20 -99h2
v-14q0 -15 -3 -45q-1 -6 -1 -14v-27q0 -3 -1 -8t-1 -8v-13q0 11 -2 -18q-2 -18 -2 -29v-618q0 -27 108 -136zM360 307q-67 68 -67 105v618q0 -3 5 65q1 12 1 17v21q2 36 8 108l-61 -37q-43 -26 -51 -37q-101 -57 -158 -67l4 -49q10 0 59 -43q35 -31 35 -66v-530
q0 -35 -20 -58l-49 -47h294zM326 98q0 47 -32.5 77t-80.5 30t-79.5 -29.5t-31.5 -77.5q0 -47 32 -76.5t79 -29.5q48 0 80.5 29.5t32.5 76.5zM74 1081l-2 -2v2h2z" />
    <glyph glyph-name="quotedbl" unicode="&#x22;" horiz-adv-x="402" 
d="M354 1233q0 -28 -6 -57q-25 -119 -84 -144l-78 -78q-22 -22 -51 -22q-28 26 -47 84l-57 -58q-26 -26 -64 -26q-30 76 -57 190q0 40 20 60l82 82q19 49 90 49q58 0 78 -27q25 27 78 27q96 0 96 -80zM324 1233q0 49 -66 49q-65 0 -65 -51q20 -111 36 -148q0 -8 17 -24
q43 0 71 125q7 32 7 49zM168 1233q0 49 -66 49q-65 0 -65 -51q24 -115 49 -172q45 0 76 125q6 24 6 49z" />
    <glyph glyph-name="numbersign" unicode="#" horiz-adv-x="841" 
d="M793 618q-18 -7 -31 -20l-33 -33q-18 -24 -20 -51h-13l-4 -4l74 2l14 -49q-22 -14 -35 -23l-40 -41q-15 -20 -19 -45h-12l-96 -96l-52 -2l-30 -205q0 4 -9 17l-96 -97q-29 58 -55 90v-10q-6 8 -8 17l-97 -97q-59 127 -127 142l21 141h-203l-10 41l88 88l6 12v6q2 0 8 5
l9 8h-76l-10 43l88 88q4 8 6 14v4l8 4l84 84q2 4 6 17h57l27 168l94 94l4 28q35 -71 72 -110l84 84l4 29q72 -144 137 -148l-20 -141h188zM772 641h-219l20 143q-47 2 -86 76l-32 -221h-64l23 145q-49 2 -86 74l-33 -219l-145 -2q-23 -62 -91 -96h222l-11 -64h-143
q-25 -61 -90 -96h219l-20 -145q57 -13 86 -74l32 221h64l-23 -145q60 -17 86 -76l33 221l145 2q11 49 91 96l-222 -2l11 64l143 2q8 49 90 96zM440 543l-10 -64h-61l10 64h61z" />
    <glyph glyph-name="dollar" unicode="$" horiz-adv-x="1047" 
d="M999 362q0 -176 -139 -278l-61 -61q-31 -31 -74 -56q5 -36 35 -133h-15l-96 -96h-215q2 13 10 37l-36 -37h-213q28 108 30 143q-145 19 -323 90q32 76 49 115l16 35q10 33 10 182l97 96v13l53 12q51 -100 104 -162v160l-73 18q-242 88 -242 299q0 141 109 250l49 49
q30 43 80 86q33 156 84 207l79 80q8 13 29 39v-2q35 35 133 92v-207l78 78q9 14 29 39v-2q35 35 133 92v-299q92 -17 221 -72l-35 -79q-20 -31 -28 -66h-3v-12q3 -17 3 -31v-23q0 -25 -11 -36q-25 -32 -73 -70l-52 -51q-7 -9 -22 -23v-104l41 -10q239 -97 239 -302zM969 362
q0 185 -209 269l-72 18v424q80 -59 109 -180q41 31 47 47q2 4 2 18v23q0 12 -2 29l2 24q8 37 31 68l22 51q-100 45 -211 64v268q-70 -41 -90 -68q-51 -57 -72 -164q23 17 35 17q23 0 33 -41h-102q-23 0 -43 -2v258q-66 -38 -91 -68q-52 -60 -71 -164q22 17 35 17
q26 0 32 -60q-76 -21 -168 -98q-143 -119 -143 -270q0 -195 211 -271l104 -26v-422q-147 61 -254 272q0 -135 -8 -162q-2 -12 -59 -145q168 -70 317 -84v-8q0 -33 -24 -131h147q-26 92 -26 133h4q53 0 141 10v-12q0 -37 -27 -131h150q-31 94 -31 166q55 18 111 49
q170 96 170 282zM598 676l-149 41v416q8 2 16 2h18q60 0 115 -17v-442zM358 743q-131 50 -131 156q0 156 131 211v-367zM784 270q0 -102 -96 -145v317q96 -65 96 -172zM598 100q-47 -6 -102 -6h-27q-10 0 -20 2v426l149 -39v-383z" />
    <glyph glyph-name="percent" unicode="%" horiz-adv-x="1230" 
d="M1157 1260l-801 -1096q0 -4 -20 -25q-6 -6 -41 -63q-29 -47 -53 -107h-11l-96 -96h-270l96 96h-10q33 28 98 82l434 596q-47 -43 -98 -62q-57 -22 -129 -22q-138 0 -221 78q-86 80 -86 217q0 130 80 211l63 64q88 131 266 131q142 0 228 -81t86 -222q0 -37 -6 -70
q59 90 63 133l-14 23l-15 36q0 33 17 50l84 84q12 43 76 43h280zM1182 256q0 -165 -125 -248l-64 -63q-87 -86 -229 -86q-138 0 -222.5 79t-84.5 216q0 129 82 211l61 61q87 133 266 133q143 0 229.5 -81t86.5 -222zM641 961q0 129 -76.5 200.5t-206.5 71.5
q-125 0 -203.5 -73.5t-78.5 -198.5q0 -127 77 -199t205 -72q127 0 205 72.5t78 198.5zM1096 1229h-219q-50 0 -50 -39l13 -31l16 -26v-5q0 -57 -92 -182l-598 -815q-14 -19 -60 -68q-32 -34 -69 -63h184q12 34 47 94q1 1 64 88zM1151 256q0 129 -79 202q-76 70 -206 70
q-124 0 -203 -74.5t-79 -197.5q0 -127 77 -198.5t205 -71.5q126 0 205.5 72.5t79.5 197.5zM506 961q0 -80 -33 -134q-40 -65 -115 -65q-145 0 -145 199q0 79 32 134q39 66 113 66q76 0 115 -65q33 -54 33 -135zM1014 256q0 -80 -33 -135q-40 -66 -115 -66q-72 0 -114 66
q-33 52 -33 135q0 78 33 133q41 68 114 68t115 -66q33 -52 33 -135zM379 858q0 76 -29 123q-32 53 -94 53h-4q-8 -30 -8 -73q0 -168 114 -168h15q6 30 6 65zM887 154q0 75 -29 120q-36 56 -94 56h-6q-8 -31 -8 -74q0 -170 116 -170h15q6 31 6 68z" />
    <glyph glyph-name="ampersand" unicode="&#x26;" horiz-adv-x="1113" 
d="M1065 500q-82 -133 -131 -176q-4 -85 -41 -166q-43 -92 -111 -126q-2 -1 -4 -3l-51 -52q-128 -131 -358 -131q-182 0 -312 91q-147 103 -147 286q0 142 96 238l55 55q15 21 33 39q-106 86 -106 238q0 123 84 208l59 60q31 44 78 80q108 82 262 82q158 0 266 -78
q121 -87 121 -250q0 -166 -131 -256l-59 -59q-43 -43 -103 -70l-175 -40q-73 -17 -120 -34q-20 -47 -20 -110q0 -41 10 -86q12 16 24 28l56 56q43 55 76 84q78 69 172 69q49 0 160 -28v-3h2q2 0 5 -1t5 -1l16 -4q8 -2 41 -2q64 0 109 29l6 6q7 4 20 14q23 18 70 54z
M1036 512l-68 -50q-24 -18 -28 -22q-57 -32 -123 -32q-37 0 -43 2q-17 3 -37 8q-108 28 -149 28q-87 0 -152 -61q-33 -31 -94 -113l127 56q55 16 102 16q41 0 107 -18q17 -5 47 -13q-4 -108 -74 -184t-180 -76q-118 0 -186 78q-66 75 -66 195q0 112 70 192q51 58 373 119
q165 76 165 258q0 146 -108 225q-99 72 -248 72q-142 0 -244 -76q-112 -83 -112 -221q0 -178 164 -256q-61 -23 -91 -43q-151 -102 -151 -270q0 -170 136 -267q121 -86 298 -86t297 86q137 98 137 267h-22l12 6q47 23 141 180zM596 190q-4 3 -27 9q-72 18 -100 18
q-41 0 -96 -16l-78 -35q4 -5 12 -14q62 -68 164 -68q59 0 102 22q21 39 23 84zM655 895q0 -217 -184 -217q-90 0 -140 65q-44 59 -44 152q0 217 184 217q53 0 74 -8q33 -13 63 -55q47 -67 47 -154zM358 1047q-3 -2 -8 -9zM528 793q0 79 -43 139q-27 38 -53 47q-18 6 -63 6
q-21 0 -41 -4q-11 -33 -11 -86q0 -87 37 -133q42 -53 117 -53q27 0 47 4q10 37 10 80z" />
    <glyph glyph-name="quotesingle" unicode="'" horiz-adv-x="247" 
d="M199 1233q0 -48 -29 -135q-4 -8 -4 -17q-12 -30 -43 -43l-82 -82q-24 -24 -74 -24q-40 93 -57 192q0 38 20 58l82 82q19 49 90 49q97 0 97 -80zM168 1233q0 49 -66 49q-65 0 -65 -51q20 -115 49 -172q37 0 49 28q2 7 15 54q18 63 18 92z" />
    <glyph glyph-name="parenleft" unicode="(" horiz-adv-x="519" 
d="M471 1595l-129 -272q-119 -251 -119 -598q0 -354 158 -721q-82 -57 -117 -272q-4 4 -8 12l-98 -100q-91 126 -154 297q-94 257 -94 561q0 297 61 508q48 166 197 315l33 33q102 125 270 237zM395 1507q-225 -151 -297 -401q-61 -212 -61 -502q0 -296 92 -553
q59 -165 117 -241q24 151 96 204q-149 348 -149 711q0 358 120 610z" />
    <glyph glyph-name="parenright" unicode=")" horiz-adv-x="474" 
d="M426 711q0 -314 -66 -512q-75 -223 -290 -398l-19 -20q-69 -72 -180 -148l123 254q119 246 119 600q0 351 -158 721l31 29q53 72 80 231l94 95q1 7 4 22q110 -151 168 -309q94 -254 94 -565zM395 711q0 302 -92 555q-57 156 -119 241q-24 -155 -96 -204
q152 -357 152 -713q0 -359 -121 -610l-82 -170q211 143 295 399q63 191 63 502z" />
    <glyph glyph-name="asterisk" unicode="*" horiz-adv-x="646" 
d="M598 1044q-26 -40 -86 -114q-23 -23 -41 -33l-35 -35q10 -6 31 -16q25 -10 74 -29l-11 -55h-12l-96 -96q-52 0 -143 10h-3l-8 -88q-2 6 -10 18l-96 -96q-35 72 -80 186q-4 18 -4 45q0 35 12 66q-25 0 -49 -10l-107 -45l-28 30q44 60 74 90l45 46q11 11 34 43q-4 4 -4 6
l-92 63l14 41l93 92l6 17q99 -9 131 -21q11 -4 29 -12l90 90v10l49 17q78 -131 78 -183v-6q-4 -33 -15 -59q19 4 39 16q8 0 58 37l8 8q3 4 12 10zM569 1059q-69 -50 -75 -53q-44 -25 -95 -25h-14q34 44 37 96q2 38 -66 158q11 -113 11 -88q0 -51 -25 -90q-6 -10 -18 -27
l-9 -10q-5 11 -16 35q-35 54 -98 73q-32 9 -111 19l84 -60q37 -32 51 -59q3 -6 11 -18h-13q-65 0 -114 -45q-28 -26 -72 -84l96 41q33 14 78 14q12 0 22 -2q-41 -56 -24 -129q6 -25 41 -100l10 100q4 35 25 67q32 -54 102 -69q27 -6 129 -10q-35 12 -86 34q-44 26 -70 68
q-5 8 -8 12q8 -2 21 -2q74 0 119 45q16 16 77 109z" />
    <glyph glyph-name="plus" unicode="+" horiz-adv-x="804" 
d="M756 547h-17l-96 -96h-186v-250l-11 10l-98 -98l-176 182v156h-184l-99 163l99 97l-8 12h192v223l96 96v21l189 -195v-145h211zM707 578l-58 114h-223v164l-127 131v-295h-264l67 -114h197v-170l127 -132v302h281z" />
    <glyph glyph-name="comma" unicode="," horiz-adv-x="320" 
d="M272 47q0 -87 -100 -190q-19 -20 -41 -33l-74 -74q-47 -47 -151 -55l16 51q51 68 62 121h-27q-39 0 -47 43v41q0 53 29 82l77 78q29 63 125 63q131 0 131 -127zM242 47q0 96 -101 96q-104 0 -104 -90v-37q4 -22 22 -22h54q0 -72 -66 -156l-4 -12q63 6 107 51
q92 94 92 170z" />
    <glyph glyph-name="hyphen" unicode="-" horiz-adv-x="804" 
d="M756 530q-64 -38 -68 -102h-12l-96 -96h-736l97 96h-19q20 10 66 41q2 3 2 8l92 92q1 3 3 8.5t3 8.5h651zM735 555h-622q-15 -61 -76 -96h622q5 51 76 96z" />
    <glyph glyph-name="hyphen" unicode="&#x2010;" horiz-adv-x="804" 
d="M756 530q-64 -38 -68 -102h-12l-96 -96h-736l97 96h-19q20 10 66 41q2 3 2 8l92 92q1 3 3 8.5t3 8.5h651zM735 555h-622q-15 -61 -76 -96h622q5 51 76 96z" />
    <glyph glyph-name="period" unicode="." horiz-adv-x="320" 
d="M272 68q0 -70 -61 -95l-74 -75q-31 -31 -96 -37q-119 0 -131 100q0 45 27 72l77 78q30 63 123 63h6q115 0 129 -102v-4zM242 68q-13 78 -105 75q-100 -3 -100 -77q10 -82 104 -78q101 4 101 80z" />
    <glyph glyph-name="slash" unicode="/" horiz-adv-x="1168" 
d="M1120 1464l-895 -1540h-10l-96 -96h-242l6 6q48 48 104 123q40 53 79 119l587 983q62 105 68 158l-2 6l-14 22l-37 72l96 96l-2 8q76 43 92 43h266zM1067 1434h-213q-12 0 -51 -23l24 -49l19 -27l2 -12q-4 -60 -72 -174l-588 -983q-84 -141 -151 -211h170z" />
    <glyph glyph-name="zero" unicode="0" horiz-adv-x="1172" 
d="M1124 573q0 -293 -174 -467q-31 -31 -65 -57l-41 -41q-160 -160 -381 -160q-180 0 -313.5 95.5t-198.5 265.5q-41 107 -41 262q0 295 170 465l49 49q16 25 49 57q161 160 387 160q179 0 316.5 -97t201.5 -265q41 -107 41 -267zM1094 573q0 247 -119 399
q-156 199 -410 199q-218 0 -364 -149q-164 -167 -164 -449q0 -149 39 -254q60 -161 189 -252.5t300 -91.5q244 0 391 180q138 169 138 418zM893 573q0 -182 -72 -327q-91 -183 -256 -183q-168 0 -258 183q-69 141 -69 327q0 251 104 390q91 122 223 122q167 0 258 -182
q70 -140 70 -330zM647 870q-76 88 -184 88q-55 0 -105 -24q-24 -39 -39 -70l54 54q1 6 4 16h57q7 -55 25 -135q14 -56 39 -86q12 -12 34 -31l7 -4h-2l2 -2v2l26 -16l4 2q4 12 13 36q4 13 20 125zM766 449v22q0 78 -12 145q-13 -17 -41 -49l-6 -6q45 -55 59 -112zM760 725
q0 66 -33 188q-16 -110 -18 -116q-19 -68 -64 -113q-26 -26 -31 -29l-47 -28l-49 28q-16 17 -31 29q-47 47 -61 113q-4 10 -20 116q-31 -127 -31 -188q0 -25 6 -39q14 -51 59 -98q13 -10 31 -25q-10 -10 -14 -12q-64 -64 -66 -152q-3 -28 15 -145l51 129q26 51 59 84
q16 16 51 39q39 -26 51 -39q30 -31 60 -84l49 -129q17 115 14 145q-2 90 -63 152q-6 4 -16 12q20 15 30 25q42 42 62 98q6 17 6 39zM719 207l-72 -72l-41 -2l-53 135q-29 56 -53 80q-6 2 -19 12l-53 -131h-10l-41 -41q74 -94 188 -94q66 0 119 33q2 4 12 27q9 18 23 53z
M332 459q-3 2 -8 6q-37 37 -56 74q2 -74 19 -146q16 31 45 66z" />
    <glyph glyph-name="one" unicode="1" horiz-adv-x="580" 
d="M532 -31h-20l-96 -96h-420q80 88 86 119l4 78v794l-27 4h-18l-188 -22l96 96l-15 -2l136 109v-2q15 10 39 22l12 6q40 22 121 66v-2q90 53 217 170q-15 -68 -35 -121q4 -46 4 -119v-944q0 -13 4 -33v-8q0 -14 100 -115zM461 0q-60 59 -60 84q-4 20 -4 41v944q0 99 -4 119
q4 4 10 26q-56 -52 -155 -106q-103 -57 -168 -90l-43 -35l106 12h23l41 -6q4 0 6 2l-4 -903q-10 -37 -55 -88h307z" />
    <glyph glyph-name="two" unicode="2" horiz-adv-x="1090" 
d="M1042 328l-151 -359h-10l-97 -96l-874 -2v96l96 96v13q31 0 174 125q137 119 178 159q14 13 41 39q160 185 160 314q0 111 -64.5 180.5t-175.5 69.5h-10q-6 -31 -6 -64q0 -59 45 -184l-16 2l-96 -96l-125 14l-84 -6l-88 -19q0 105 32 205q35 110 84 158l66 65
q24 36 53 58q152 112 350 112q155 0 254 -65q121 -79 121 -234q0 -143 -107 -309q-93 -145 -298 -350l-42 -42q-20 -20 -42 -38h258q84 0 149 35q6 0 225 123zM979 256l-152 -82q-65 -35 -159 -35h-357q557 422 557 770q0 136 -108 208q-93 61 -236 61q-185 0 -331 -107
q-60 -44 -97 -160q-30 -94 -30 -168l57 13l92 6l86 -10q-29 79 -29 147q0 74 27 125v8q0 24 48.5 41t74.5 17q123 0 193.5 -75.5t70.5 -199.5q0 -186 -307 -477q-74 -70 -178 -160q-154 -133 -164 -133v-47l833 2z" />
    <glyph glyph-name="three" unicode="3" horiz-adv-x="976" 
d="M928 328q0 -176 -146 -281q-3 -3 -10 -8l-51 -51q-133 -133 -342 -133q-162 0 -320 69l-190 146l98 96l-12 10q223 25 403 133v-114q0 -103 101 -103q37 0 73 19q23 51 23 114q0 155 -111 230q-85 57 -278 77l-4 48l96 96v10q223 59 266 80q2 0 4 2q7 14 7 37
q0 78 -68 125q-63 43 -150 43h-14q-2 -6 -2 -19q0 -6 25 -69l-17 2l-96 -96l-145 20h-23q-16 0 -46 4l-75 10q47 77 96 125l46 45q167 215 442 215q134 0 235 -51q146 -74 146 -198q0 -150 -131 -244l-43 -43q213 -133 213 -346zM897 328q0 229 -268 362q93 40 121 60
q108 78 108 211q0 105 -127 169q-100 50 -223 50q-303 0 -442 -232q80 -10 81 -10h23l106 -14q-6 14 -6 30q0 53 49.5 99.5t100.5 46.5q96 0 164 -47q78 -54 78 -146q0 -108 -125 -170q-33 -16 -258 -78q190 -20 282 -81q121 -80 121 -250q0 -132 -86 -209q-65 -58 -137 -58
q-60 0 -95.5 37t-35.5 97v59q-142 -86 -291 -100l139 -107q148 -65 305 -65q161 0 283 90q133 98 133 256z" />
    <glyph glyph-name="four" unicode="4" horiz-adv-x="1164" 
d="M1116 535l-137 -173h-8l-97 -96h-20v-141q0 -15 4 -35q0 -20 100 -121h-20l-96 -96h-428l12 14q37 40 82 105l6 78v196h-629q56 69 156 211q90 153 90 311q0 80 -33 113l-174 82l96 96l-4 4q40 40 64 60l-2 4q100 61 231 61q68 -44 99 -151q24 -82 24 -162v-16l14 14
l-10 8q170 21 238 53v2l219 144l-6 -146q-33 -100 -33 -157v-262h262zM1055 504h-232v293q0 61 33 161l4 82l-168 -110q-51 -33 -182 -49l80 -66q51 -42 51 -86v-225h-360q97 179 117 335q3 23 3 56q0 80 -22 154q-29 97 -80 129q-106 0 -197 -54l7 2q-15 -6 -41 -32
l145 -68q45 -43 45 -135q0 -161 -94 -324q-26 -45 -127 -174h604v-223l-6 -82q-10 -37 -62 -88h314q-60 59 -60 86q-4 20 -4 39v268h144zM514 535v92q0 30 -43 65l-63 51q-34 -114 -78 -208h184z" />
    <glyph glyph-name="five" unicode="5" horiz-adv-x="992" 
d="M944 1149l-18 -14q-8 -7 -19 -13l-73 -73q-10 -9 -31 -23q-17 -49 -43 -176q-1 2 -8 8l-80 -80q49 -19 98 -53q152 -105 152 -322q0 -206 -134 -329l-26 -24q-12 -11 -27 -21l-53 -54q-73 -74 -160 -104q-35 -16 -157 -16q-195 0 -338 73l-146 142l99 98l-9 8
q146 21 193 51l108 107q58 -181 105 -217q32 -25 119 -25q28 0 47 8q39 89 39 183q0 280 -260 280q-140 0 -345 -102v481q0 31 25 154l92 92q1 3 2 8t2 8l156 -2h672zM813 1057l-4 -4zM618 795q-11 13 -102 104q-51 39 -125 39h-67v-127q45 6 100 6q99 0 194 -22zM922 1171
l-797 3q-21 -97 -21 -130v-440q168 86 320 86q285 0 285 -305q0 -114 -50 -209q-61 -115 -163 -115q-97 0 -138 31q-54 41 -100 184l-70 -67q-40 -38 -151 -53l106 -105q138 -69 324 -69q105 0 149 14q69 22 152 100q123 116 123 307q0 199 -139 298q-121 85 -328 85
q-74 0 -131 -14v293h201q79 0 139 -43q22 -15 108 -109q27 124 49.5 153t131.5 105z" />
    <glyph glyph-name="six" unicode="6" horiz-adv-x="1019" 
d="M971 1221l-45 -33l-76 -76l-88 -65q-17 -27 -33 -78q-4 2 -6 2l-4 2l-96 -96q-131 71 -205 71q-47 0 -78 -14q-39 -65 -60 -202q-10 -60 -10 -126l4 4q45 73 129 107q51 20 103 20h14q161 0 265 -98.5t104 -263.5q0 -129 -88 -248q-42 -57 -99 -100l-57 -58
q-106 -108 -258 -108h-14q-207 0 -332 166q-110 146 -127 366q-1 6 -2 17q-2 17 -2 32v31q0 238 131 408h-2q22 30 53 61l41 41q173 219 455 227zM375 993q-3 -1 -8 -8zM872 1188l-284 -8q-271 -8 -426 -211q-125 -164 -125 -394q0 -30 4 -77q18 -216 122 -354
q121 -162 326 -156q178 6 287 157q82 114 82 230q0 153 -99 246q-96 90 -253 86q-97 -2 -164.5 -64t-67.5 -160q0 -28 11 -73q6 96 86 155q59 43 100 45q91 4 150 -82q48 -69 55 -161q9 -112 -35 -197q-51 -99 -158 -102q-130 -4 -194 186q-41 122 -48 296q-1 23 -1 48
q0 138 36 260q64 217 244 217q84 0 193 -59q27 75 69 106zM551 227v15q0 8 -2 18q-8 85 -48 147q-48 76 -126 76h-4q-22 -4 -37 -10q-14 -23 -19 -78l-14 -2l-12 -12q51 -283 192 -283h2q25 0 43 6q25 66 25 123z" />
    <glyph glyph-name="seven" unicode="7" horiz-adv-x="1127" 
d="M1079 1153q-7 -7 -22.5 -17.5t-22.5 -17.5l-65 -65l-19 -13q-90 -100 -135 -170h2q-90 -137 -115 -233q-36 -139 -56 -320q-19 -165 -19 -340h-15l-94 -96q-94 -4 -164 -49q-24 -29 -49 -61v12l-96 -96q0 435 178 878q82 205 203 344h-271q-116 0 -190 -30l2 2l-182 -103
l-29 31q8 10 8 16q0 5 -18 33q0 21 12 33l86 86q10 22 31 33q17 10 49 32q13 25 23 58l94 94q1 4 4 14l852 -2zM942 1040zM1057 1176l-824 2q-8 -33 -53 -88q-55 -67 -131 -109q-12 -7 -12 -14l9 -15q9 -16 9 -24q0 -13 -6 -21l172 97q78 32 201 32h326q-142 -141 -236 -377
q-176 -442 -176 -794q104 141 260 143q0 329 76 637q26 106 119 244q123 183 266 287z" />
    <glyph glyph-name="eight" unicode="8" horiz-adv-x="984" 
d="M936 326q0 -185 -150 -291l-55 -55q-23 -23 -51 -43q-127 -91 -311 -91q-182 0 -312 91q-147 103 -147 286q0 142 96 238l55 55q15 21 33 39q-106 86 -106 238q0 123 84 208l59 60q31 44 78 80q108 82 262 82q158 0 266 -78q121 -87 121 -250q0 -162 -127 -252
q205 -106 205 -317zM905 326q0 225 -241 313q163 78 163 256q0 146 -108 225q-99 72 -248 72q-142 0 -244 -76q-112 -83 -112 -221q0 -178 164 -256q-61 -23 -91 -43q-151 -102 -151 -270q0 -170 136 -267q121 -86 298 -86t297 86q137 98 137 267zM655 895q0 -217 -184 -217
q-90 0 -140 65q-44 59 -44 152q0 217 184 217q53 0 74 -8q33 -13 63 -55q47 -67 47 -154zM723 326q0 -116 -67 -193q-71 -80 -185 -80q-118 0 -186 78q-66 75 -66 195q0 118 66 193q70 79 186 79q112 0 184 -81q68 -77 68 -191zM528 793q0 79 -43 139q-27 38 -53 47
q-18 6 -63 6q-21 0 -41 -4q-11 -33 -11 -86q0 -87 37 -133q42 -53 117 -53q27 0 47 4q10 37 10 80zM596 223q0 104 -61 174q-64 74 -166 74q-47 0 -90 -16q-29 -58 -29 -129q0 -108 58 -175t163 -67q53 0 102 22q23 44 23 117z" />
    <glyph glyph-name="nine" unicode="9" horiz-adv-x="951" 
d="M903 600q0 -241 -131 -412q-54 -70 -113 -112l-49 -49q-151 -151 -393 -158l-362 -10l96 96h-12l120 86q8 17 21 53l90 90q1 7 8 23q136 -76 209 -76q51 0 90 21q13 22 27 69q37 122 37 250l-54 -53q-77 -76 -186 -76h-10q-163 0 -266 97t-103 259q0 120 88 244
q28 39 51 62l54 53q119 162 303 162h14q209 0 338 -168q107 -139 129 -369v-18q4 -34 4 -64zM520 696q-49 285 -194 285h-2q-12 -1 -37 -4q-25 -59 -25 -125v-21q0 -9 2 -18q10 -83 51 -147q45 -70 115 -70h4q21 0 49 16l8 30l7 32zM872 600q0 36 -4 80q-20 216 -123 352
q-123 162 -327 156q-176 -6 -285 -158q-84 -118 -84 -229q0 -157 101 -246.5t253 -85.5q100 2 165 63.5t65 159.5q0 39 -8 74q-9 -96 -86 -156q-56 -44 -103 -45q-91 -3 -147 82q-48 72 -56 164q-10 111 33 195q51 100 160 102q130 3 193 -186q41 -122 48 -294q1 -24 1 -50
q0 -136 -37 -261q-64 -217 -244 -217q-88 0 -192 62q-28 -80 -68 -109l-90 -65l282 8q274 8 429 211q124 163 124 393z" />
    <glyph glyph-name="colon" unicode=":" horiz-adv-x="320" 
d="M272 573q0 -75 -63 -110l-76 -76q-29 -29 -94 -39q-117 0 -129 119q0 57 31 88l77 78q31 63 117 65q123 3 137 -120v-5zM272 86q0 -80 -63 -111l-76 -75q-33 -33 -92 -39q-119 0 -131 119q0 57 31 88l77 77q31 64 117 66q123 3 137 -121v-4zM242 573q-13 95 -105 95
q-100 -9 -100 -97q10 -96 102 -96q103 12 103 98zM242 86q-14 98 -105 94q-100 -4 -100 -96q10 -96 104 -96q101 12 101 98z" />
    <glyph glyph-name="semicolon" unicode=";" horiz-adv-x="320" 
d="M272 571q0 -84 -61 -114l-78 -78q-33 -33 -96 -33h-6q-109 0 -121 119q0 57 33 90l73 74q31 66 119 69q121 3 137 -123v-4zM272 47q0 -87 -100 -190q-19 -20 -41 -33l-65 -66q2 2 2 4l2 2l-13 -14q-43 -47 -151 -55l16 51q51 68 62 121h-27q-39 0 -47 43v41q0 53 29 82
l77 78q29 63 125 63q131 0 131 -127zM242 571q-13 97 -105 97q-100 -9 -100 -99q10 -99 102 -96q103 3 103 98zM41 135q-3 -1 -8 -8zM242 47q0 96 -101 96q-104 0 -104 -90v-37q4 -22 22 -22h54q0 -72 -66 -156l-4 -12q63 6 107 51q92 94 92 170z" />
    <glyph glyph-name="less" unicode="&#x3c;" horiz-adv-x="707" 
d="M659 172l-16 -4l-94 -94l-221 -51q-53 132 -205 235l-244 166l98 98l-10 6q162 52 264 136q24 35 43 104l91 90l6 19l268 36q-88 -260 -238 -376l-24 -25q213 -166 282 -340zM618 195q-59 151 -299 323q189 96 275 356l-197 -26q-61 -234 -360 -330l203 -137
q154 -104 204 -227z" />
    <glyph glyph-name="equal" unicode="=" horiz-adv-x="804" 
d="M756 451q-64 -39 -68 -103h-12l-96 -96h-736l97 96h-19q20 10 66 41q2 3 2 8l14 15h-160l97 96h-19q20 10 66 41q2 3 2 8l92 92q1 3 3 8.5t3 8.5h651l17 -56q-64 -39 -68 -102h-12l-2 -2h65zM735 635h-622q-15 -62 -76 -96h622q5 51 76 96zM735 475h-622q-15 -61 -76 -96
h622q5 51 76 96z" />
    <glyph glyph-name="greater" unicode="&#x3e;" horiz-adv-x="687" 
d="M639 537l-6 -50q-5 -1 -15 -4l-94 -94q-94 -31 -164 -76q-53 -63 -77 -155l-15 -2l-94 -95l-250 -34q69 212 180 321l52 51l18 25q-212 164 -272 332l98 96l-2 4q0 3 -2 6l233 53q43 -127 207 -239zM618 514l-200 137q-168 115 -207 228l-174 -39q55 -148 301 -326
q-191 -92 -277 -354l195 26q63 232 362 328z" />
    <glyph glyph-name="question" unicode="?" horiz-adv-x="843" 
d="M795 911q0 -139 -88 -245q-36 -43 -95 -88l-37 -37q-43 -43 -98 -82q0 -2 -1 -5t-1 -5q-4 -34 -4 -48v-8q6 -54 43 -153h-14l-35 -35q47 -41 47 -107q0 -83 -72 -118l-73 -76q-37 -39 -99 -39q-60 0 -98.5 36t-38.5 95q0 63 33 96l49 49h-119q60 63 64 109q0 -13 -6 43
q-7 26 -7 55q0 45 35 80l72 72q17 34 49 53q41 25 100 70q52 82 52 186q0 92 -37 127q-39 29 -133 29q-22 0 -45 -7q-15 -34 -15 -88q0 -36 33 -69q25 -15 106 -39l-10 -55h-12l-96 -97h-15q-32 -4 -55 -4q-113 0 -182 51q-82 60 -82 174q0 86 65 150l58 57q35 56 102 101
q115 63 234 63q426 0 426 -291zM764 911q0 260 -395 260q-119 0 -217 -59q-115 -69 -115 -178q0 -101 71 -154q64 -47 168 -47q30 0 62 4q-85 27 -111 49q-34 28 -34 84q0 92 49 154q53 68 143 68q107 0 151 -36t44 -145q0 -131 -74 -227q-59 -76 -187 -156q-47 -29 -47 -77
q0 -16 6.5 -48.5t6.5 -48.5q0 -51 -33 -86h78q9 0 24.5 1t22.5 1h94q-26 77 -31 121q-2 19 9 92q4 26 83 78q109 72 152 125q80 98 80 225zM481 98q0 47 -31.5 77t-78.5 30q-113 0 -113 -107q0 -106 113 -106q46 0 78 30t32 76z" />
    <glyph glyph-name="at" unicode="@" horiz-adv-x="1502" 
d="M1454 528q0 -157 -61 -270q-42 -78 -103 -117l-65 -65q-60 -60 -148 -70l-49 -49q-207 -123 -362 -123q-299 0 -514 146q-242 164 -242 440q0 239 166 405l37 37q43 61 123 125q216 174 516 174q292 0 491 -168q211 -178 211 -465zM1073 440q0 47 -6 95v-213q6 94 6 118z
M1423 528q0 276 -202 443q-192 159 -469 159q-291 0 -496 -165q-219 -177 -219 -443q0 -262 231 -420q206 -141 500 -141q152 0 297 86l-88 19h-109q-608 0 -608 456q0 229 132.5 369.5t359.5 140.5q212 0 333 -141q115 -133 115 -348q0 -52 -14 -226q-6 -75 -103 -81
q-47 4 -47 73v482q0 75 -65 106q-105 35 -197 35q-188 0 -313 -115q137 37 229 37q107 0 191 -47q-29 -55 -95 -84q-52 -23 -202 -64q-178 -49 -178 -245q0 -106 80 -163q70 -50 180 -50q92 0 213 90q20 -43 32 -78q29 -41 66 -55q55 -28 184 -25q131 3 203 139
q59 112 59 256zM674 717q-47 10 -86 10q-90 0 -234 -39l-20 37l96 96l-2 6q37 33 80 62q-70 -21 -121 -51q-96 -127 -96 -316q0 -49 6 -88q18 46 53 80l62 61q47 84 163 115l54 15q24 6 45 12zM178 928q-1 -1 -7 -7.5t-9 -9.5zM786 98q-7 17 -20 52q-24 -14 -72 -44
q4 -1 92 -8zM881 397q-90 -71 -172 -71q-131 0 -131 135q0 94 57 131q9 6 137 51q60 21 109 72v-318zM754 362v195q-44 -28 -76 -39q-26 -9 -68 -24q-2 -11 -2 -33q0 -105 101 -105q20 0 45 6z" />
    <glyph glyph-name="A" unicode="A" horiz-adv-x="1527" 
d="M1479 23l-13 -54h-12l-96 -96h-365q-38 125 -112 277l-103 212q-131 -33 -342 -176q-55 -37 -84 -59q-51 -59 -51 -107q0 -11 14 -51h-14l-96 -96h-348l96 96h-12q14 8 28 23q83 113 209 358q149 290 303 600v11q0 47 -53 86q-22 12 -35 22q-36 23 -84 64l97 96l-11 10
l293 21q90 0 121 -58q70 -130 213 -457q126 -288 209 -454q51 -102 99.5 -161.5t148.5 -106.5zM1450 0q-85 40 -141 109q-53 65 -107 170q-70 137 -209 454q-126 288 -213 455q-25 48 -110 41l-195 -15q25 -14 70 -43q63 -47 63 -108q0 -14 -2 -21q-145 -291 -303 -600
q-202 -396 -266 -442h237q-4 12 -4 20q0 117 254 289q233 158 371 185l111 -232q78 -163 108 -262h336zM866 549l-182 -64q-70 -25 -86 -32q-190 -78 -252 -152l326 621zM696 520l-100 189l-158 -301q64 37 148 73q37 13 110 39z" />
    <glyph glyph-name="B" unicode="B" horiz-adv-x="1086" 
d="M1038 436q0 -198 -161 -317l-54 -53q-150 -147 -469 -185l-6 -8h-106q-8 0 -22.5 -1t-22.5 -1h-95l-32 2h-144l21 21q57 57 69 90l9 86v811q0 67 -35 114h-2q-47 56 -74 56l-4 96l96 96v12l60 5h16q3 0 8 1t8 1q123 0 205 -82l2 -4q158 108 316 108q130 0 219 -63
q104 -73 104 -205q0 -118 -90 -238q184 -123 184 -342zM1008 436q0 226 -199 332q104 113 104 248q0 115 -92 180q-81 57 -200 57q-175 0 -324 -118l-23 32q-70 71 -206 62l-31 -2l2 -49q19 0 70 -64q43 -54 43 -131v-813l-9 -90q-6 -29 -57 -80h86l35 -2h47q15 0 45 1t45 1
h49l-2 2q174 12 311 61q306 111 306 373zM698 999q0 -98 -47 -174l-61 13q-172 16 -252 16v164l-2 12q10 52 84 82q63 25 125 25q153 0 153 -138zM793 432q0 -179 -148 -276q-113 -74 -254 -74q-17 0 -41 -4h-8q-4 20 -4 31v657q0 8 51 8q134 0 256 -80q148 -97 148 -262z
M571 897q0 113 -129 113q-44 0 -73 -9v-116q125 -6 200 -15q2 9 2 27zM666 330q0 153 -138 241q-83 53 -159 68v-526h22q133 0 236 67v0q2 0 4 2q35 66 35 148z" />
    <glyph glyph-name="C" unicode="C" horiz-adv-x="1502" 
d="M1454 1260l-61 -52l-58 -57l-43 -37q-14 -22 -14 -41v-47q-4 -8 -4 -160q-8 8 -10 13l-99 -99q-178 226 -444 226q-211 0 -344 -91q-96 -120 -96 -301q0 -219 114 -362q126 -158 342 -158q178 0 353 168q49 62 73 100l78 78l31 43v-366q-13 -10 -39 -31l-70 -70
q-176 -176 -553 -176q-324 0 -509 173q-191 177 -191 499q0 248 162 410l39 39q64 87 157 149q225 150 555 150h631zM1370 1229h-547q-322 0 -536 -144q-250 -168 -250 -471q0 -311 184 -482q178 -165 492 -165q336 0 528 164v252q-215 -320 -504 -320q-229 0 -364 170
q-123 155 -123 381q0 247 166 388q155 131 407 131q275 0 420 -183q0 68 4 80v43q0 45 51 96z" />
    <glyph glyph-name="D" unicode="D" horiz-adv-x="1285" 
d="M1237 610q0 -290 -186 -481q-25 -21 -74 -66l-39 -38q-190 -185 -471 -185q-93 0 -193 25q-65 16 -104 37l-29 -29h-231v1051l96 96v10q190 124 350 193q85 37 267 37q276 0 450 -189q164 -178 164 -461zM1206 610q0 271 -155 442q-160 177 -428 177q-172 0 -254 -35
q-150 -64 -332 -182v-1012h182v70q46 -49 164 -78q102 -25 186 -25q280 0 458.5 182t178.5 461zM991 610q0 -203 -102 -362q-119 -185 -311 -185q-101 0 -189 23q-106 28 -170 80v678q0 132 111 215q99 74 239 74q213 0 326 -166q96 -141 96 -357zM864 508q0 205 -92 342
q-105 156 -305 156q-105 0 -186 -45q-31 -54 -31 -117v-664q44 -37 147 -63q91 -23 181 -23q106 0 190 70q96 155 96 344z" />
    <glyph glyph-name="E" unicode="E" horiz-adv-x="982" 
d="M934 1194q-49 -78 -51 -96l14 -117l-14 4l-97 -96l-102 35q-90 65 -225 90l-49 4l-37 2v-238h536l-102 -172l-131 -125h-2v2l-101 -96q-77 103 -200 131v-411h12l80 -2l49 2l43 4q148 28 229 90l111 39l-14 -117q0 -21 41 -82l2 -29q-17 -32 -47 -47l-80 -80
q-20 -20 -49 -20h-789l-67 63l98 99l-6 6l45 24v904q0 32 -27 59l-113 61l99 97l-6 4l77 74h791q49 0 82 -66zM897 29q-45 71 -45 100l8 70l-59 -21q-90 -69 -236 -94l-49 -4l-51 -2l-82 2l-41 4v569q-2 11 37 11q10 -2 14 -2q10 0 8 0q187 -9 279 -132l100 97l74 125h-512
v389l39 4l84 2l49 -2l51 -4q142 -25 236 -94l59 -21l-8 70q0 28 45 100q-18 33 -45 33h-778l-37 -35l82 -45q39 -39 39 -82v-905q-4 -30 -4 -39q-7 -19 -33 -45l-84 -47l37 -35h778q31 0 45 33z" />
    <glyph glyph-name="F" unicode="F" horiz-adv-x="974" 
d="M926 1210l-2 -30q-41 -62 -41 -82l14 -117l-14 4l-97 -96l-102 35q-88 65 -223 90h-2l-49 4l-37 2v-238h536l-102 -172l-131 -125h-2v2l-101 -96q-77 103 -200 131v-581l-17 -4l-92 -95l-49 -16l-31 -21l2 2l-51 -43l-104 -83v1284q0 32 -27 59l-113 61l99 97l-6 4l77 74
h791q45 0 74 -50zM897 1196q-18 33 -45 33h-778l-37 -35l82 -45q39 -39 39 -82v-1233l63 51l51 43l31 21l39 12v692q0 11 37 11q10 -2 14 -2q10 0 8 0q187 -9 279 -132l100 97l74 125h-512v389l39 4l84 2l49 -2l51 -4q142 -25 236 -94l59 -21l-8 70q0 28 45 100z" />
    <glyph glyph-name="G" unicode="G" horiz-adv-x="1502" 
d="M1454 1260l-61 -52l-58 -57l-45 -37q-12 -22 -12 -41v-47q-4 -8 -4 -160q-8 8 -10 13l-99 -99q-178 226 -444 226q-211 0 -344 -91q-96 -120 -96 -301q0 -219 114 -362q126 -158 342 -158q147 0 240 62l18 12q9 16 9 41l-7 58q-4 32 -4 61v10q-12 -2 -24 -2h-27
q-48 0 -111 18q-74 21 -100 21q-39 0 -92 -17l-209 -92q51 71 150 191l47 47q17 22 54 62q78 67 171 67q47 0 158 -29q4 -2 7 -3l3 -1q2 0 4 -1t5.5 -1t11.5 -3q2 -1 6 -1h32q51 0 111 33l-2 -2q22 16 43 32l63 48l39 -39l-8 -13l4 -6q-11 -7 -45 -63q-20 -49 -20 -133
q0 -109 41 -318q-14 -10 -41 -33l-68 -67q-196 -193 -586 -193q-324 0 -509 173q-191 177 -191 499q0 250 162 412l45 45q49 72 151 141q222 150 555 150h631zM1370 1229h-547q-320 0 -536 -144q-250 -167 -250 -471q0 -311 184 -482q178 -165 492 -165q352 0 559 178
q-39 220 -39 306q0 92 24 151q35 55 48 64l-11 -7l6 11q-92 -70 -98 -72q-59 -35 -123 -35q-34 0 -41 2q-14 2 -37 8q-110 29 -149 29q-84 0 -154 -59q-36 -38 -92 -115l125 55q43 19 103 19q32 0 106 -21q64 -18 104 -18q50 0 80 10q-4 -20 -4 -43q0 -20 5 -58.5t5 -58.5
q0 -103 -137 -184q-111 -66 -256 -66q-229 0 -364 170q-123 155 -123 381q0 247 166 388q155 131 407 131q275 0 420 -183q0 68 4 80v43q0 45 51 96z" />
    <glyph glyph-name="H" unicode="H" horiz-adv-x="1420" 
d="M1372 -31h-20l-97 -96h-407q67 86 80 117v2l6 78v532q-158 -31 -283 -125q-12 -12 -35 -41q-128 -161 -178 -368q10 -12 39 -52l47 -47h-20l-96 -96h-410q70 84 80 119l6 76v809q0 75 -53 116l-6 25l-10 4q-4 2 -15 6q-80 29 -94 111l96 96q0 2 -1 6t-1 6l78 13h346v-762
l37 37q242 242 473 284v92q0 6 1 18.5t1 18.5q0 125 -92 160l8 45l92 92l4 17l326 -2v-1090q0 -66 6 -86q16 -32 92 -115zM1303 0q-45 51 -54 78q-6 17 -6 92v1059l-280 2q100 -37 100 -180q0 -12 -1 -36t-1 -36v-176q-406 -4 -668 -410v836h-309l-47 -8q8 -46 74 -68
q34 -11 41 -27l4 -16q55 -41 55 -131l-6 -891q-10 -35 -53 -88h301q-17 21 -47 63q47 219 188 394q187 231 467 278v-565l-6 -82q-11 -35 -54 -88h302z" />
    <glyph glyph-name="I" unicode="I" horiz-adv-x="623" 
d="M575 -31h-18l-96 -96h-402q35 46 78 119l6 78v807q0 75 -36 105q-19 15 -107 46q-80 28 -94 111l96 96q0 2 -1 6t-1 6l78 13h405v-1090q0 -68 2 -72q7 -27 90 -129zM512 0q-43 51 -51 78q-8 18 -8 92v1059h-369l-47 -8q8 -46 74 -68q82 -28 104 -43q55 -38 55 -131
l-6 -891q-8 -33 -51 -88h299z" />
    <glyph glyph-name="J" unicode="J" horiz-adv-x="529" 
d="M481 160q0 -214 -104 -375q-52 -81 -131 -133l-41 -43q-124 -130 -342 -150l-15 39l99 99l-4 8q57 37 108 82q31 46 47 84q43 102 43 286v817q0 78 -45 111q-25 18 -77 35.5t-72 34.5q-34 27 -43 82l96 96q0 6 -2 10l76 17h407v-1100zM451 160v1069h-369l-47 -10
q7 -45 74 -68q86 -30 104 -43q55 -40 55 -131v-817q0 -188 -45 -297q-65 -158 -248 -277q247 21 375 217q101 154 101 357z" />
    <glyph glyph-name="K" unicode="K" horiz-adv-x="1490" 
d="M1442 100q-4 -1 -12 -4l-93 -92q-150 -47 -247 -104l-95 -56q-128 65 -202 176q-15 22 -53 92q-33 62 -115 218q-37 69 -105 116q-7 5 -104 52v-326q0 -64 8 -84q8 -27 86 -119h-18l-97 -96h-405q69 82 80 121l6 78v899q0 43 -217 198l98 99q-8 4 -14 10h473v-500
q106 0 191 56q7 4 16 8q69 90 69 166q0 77 -108 106l6 47l94 94l2 15l418 2q-33 -88 -65 -163q-22 -51 -70 -136q-100 -179 -178 -225l-70 -70q75 -41 147 -125q9 -11 158 -236q79 -120 137 -135q37 -25 128 -31q14 -1 28 -1q23 0 55 4h8q22 0 35 -25l8 -16q1 -2 5 -2l8 2z
M1432 129l4 -1q-6 -2 -54 -5q-74 -4 -120 0q-76 7 -109 31q-70 17 -154 147l-153 234q-105 129 -236 153q61 22 164 86q72 45 166 211q82 145 121 256l-363 -2q121 -31 121 -129q0 -81 -80 -188q-41 -55 -67 -79q-29 -28 -66 -46q-102 -49 -192 -49q-19 0 -29 2v497h-348
q166 -121 166 -174l-6 -983q-9 -37 -54 -90h301q-41 45 -49 80q-10 31 -10 92v487q38 -4 109 -22l90 -40q33 -15 53 -28q71 -46 113 -125q152 -289 165 -307q74 -105 183 -162l82 48q105 62 252 106zM575 782l-20 -20z" />
    <glyph glyph-name="L" unicode="L" horiz-adv-x="1076" 
d="M1028 238q-106 -177 -106 -365q-4 3 -13 8l-96 -98q-116 82 -377 82h-28l-431 -10q42 53 95 135v-2l6 82v802q0 73 -48 140q-45 63 -114 94l8 43l92 92l4 16h398v-1132q41 -10 86 -10q266 0 481 164zM999 250q-219 -166 -495 -166q-53 0 -94 10q-17 4 -23 10v1123h-350
q89 -41 133 -125q35 -67 35 -127l-6 -887q-9 -27 -70 -104l381 8q286 6 381 -60q0 136 108 318z" />
    <glyph glyph-name="M" unicode="M" horiz-adv-x="1791" 
d="M1743 -31h-25l-96 -96h-430l74 76q4 7 14 20h-2l4 4q14 25 21 56l2 41l-2 821l-299 -356q-64 -76 -64 -127q0 -5 6 -27l-28 -16l-82 -82l-39 -23l-410 442v-395q0 -83 47 -153q31 -46 176 -185h-20l-96 -96h-445q86 147 86 229v875l-65 41q-9 2 -28 9l-65 24
q-7 4 -100 84l98 98q-3 2 -10 8l154 19h287l505 -584l326 389l55 55l43 51l107 95l250 4l12 -58q-8 -4 -21 -8l-79 -80v-2l2 -952q0 -30 8 -71q2 -11 4 -17v-6q21 -36 125 -107zM1686 1239l-232 -4l-96 -84l-440 -524l-527 602h-270l-84 -10q47 -41 59 -48q37 -15 82 -26
l84 -51v-889q0 -92 -67 -205h337q-86 78 -122 135q-54 85 -54 172v682l555 -602q-2 6 -2 21q0 61 72 147l438 522q11 -41 11 -94v-854q-4 -80 -66 -129h281q-43 29 -58 72q-2 7 -8 45q-4 27 -4 53l-2 967q0 57 113 102z" />
    <glyph glyph-name="N" unicode="N" horiz-adv-x="1367" 
d="M1319 66q0 -78 -55 -101l-7 -6l-2 -6l-2 2l-69 -72q-17 -12 -25 -16l-8 -8q-43 20 -96 80l-668 757v-389q0 -83 47 -153q31 -46 176 -185h-20l-96 -96h-445q86 147 86 229v875l-65 41q-9 2 -28 9l-65 24q-7 4 -100 84l98 98q-3 2 -10 8l154 19h287l661 -773v383
q0 35 -10 62q-6 12 -19 37l-114 90v92l96 96v13h299v-1194zM1288 66v1163h-237v-58l108 -84q25 -40 30 -56.5t5 -57.5v-680l-803 936h-270l-84 -10q47 -41 59 -48q37 -15 82 -26l84 -51v-889q0 -92 -67 -205h337q-86 78 -122 135q-54 85 -54 172v682l820 -932q48 -55 79 -69
q-5 3 -14 10l19 -4q28 10 28 72z" />
    <glyph glyph-name="O" unicode="O" horiz-adv-x="1521" 
d="M1473 614q0 -321 -230 -508q-6 -6 -18 -14l-62 -62q-5 -5 -26 -22q-209 -168 -500 -168q-296 0 -500 168q-227 187 -227 504q0 281 178 459l37 37q45 60 111 114q209 170 503 170t504 -170q230 -187 230 -508zM1442 614q0 306 -219 486q-197 162 -484 162
q-284 0 -483 -162q-219 -178 -219 -486q0 -303 219 -485q195 -162 483 -162q285 0 484 162q219 178 219 485zM1229 614q0 -240 -123 -390q-132 -161 -367 -161q-234 0 -367 162q-122 150 -122 389q0 241 121 391q132 162 368 162q198 0 336 -137q154 -152 154 -416z
M1102 512q0 252 -146 397q-131 131 -319 131q-150 0 -252 -69q-104 -135 -104 -357q0 -228 114 -368q124 -152 344 -152q164 0 275 86q88 139 88 332z" />
    <glyph glyph-name="P" unicode="P" horiz-adv-x="992" 
d="M944 1016q0 -193 -192 -338l-39 -39q-104 -104 -291 -184q-18 -8 -57 -27l2 -258q0 -27 4 -80h2q8 -31 84 -121h-19l-96 -96h-416q84 84 90 111l9 84v813q0 67 -35 114h-2q-47 56 -74 56l-4 96l96 96v12l60 5h16q3 0 8 1t8 1q123 0 205 -82l2 -4q158 108 316 108
q130 0 219 -63q104 -73 104 -205zM913 1016q0 115 -92 180q-81 57 -200 57q-175 0 -324 -118l-23 32q-70 71 -206 62l-31 -2l2 -49q19 0 70 -64q43 -54 43 -131v-813l-9 -90q-6 -29 -57 -80h307q-40 50 -49 78q-8 23 -8 92l-2 346q34 0 180 64q399 175 399 436zM698 999
q0 -262 -362 -362v381q0 56 78 92q58 27 131 27q153 0 153 -138zM571 897q0 113 -129 113q-46 0 -75 -9v-321q100 33 174 84q30 57 30 133z" />
    <glyph glyph-name="Q" unicode="Q" horiz-adv-x="1727" 
d="M1679 -193l-18 -57q-4 0 -5.5 1t-4.5 1l-97 -98q-223 32 -315 69q-133 53 -250 191q-158 -74 -352 -74q-296 0 -500 168q-227 187 -227 504q0 281 178 459l37 37q45 60 111 114q209 170 503 170t504 -170q230 -187 230 -508q0 -313 -230 -505q7 -11 16 -19q3 -5 11 -14v2
q66 -84 182 -156q16 -10 76 -40zM1661 -219l-145 71q-50 25 -70 37q-120 72 -189 156q-17 22 -53 64l-4 4q242 180 242 501q0 306 -219 486q-197 162 -484 162q-284 0 -483 -162q-219 -178 -219 -486q0 -303 219 -485q195 -162 483 -162q199 0 359 80q83 -101 186 -168
q87 -57 377 -98zM1229 614q0 -223 -115 -374q-72 110 -121 163q-119 128 -252 185q-48 20 -247 67l233 -161q67 -47 147 -138q59 -68 119 -161q10 -16 31 -45q-121 -87 -285 -87q-234 0 -367 162q-122 150 -122 389q0 241 121 391q132 162 368 162q198 0 336 -137
q154 -152 154 -416zM1102 512q0 252 -146 397q-131 131 -319 131q-150 0 -252 -69q-104 -135 -104 -357q0 -228 114 -368q124 -152 344 -152q58 0 113 12q-33 43 -98 132q-70 82 -144 133l-241 168l20 41l86 86l12 24q193 -42 267 -74q145 -63 262 -192q22 -27 65 -82
q21 78 21 170z" />
    <glyph glyph-name="R" unicode="R" horiz-adv-x="1201" 
d="M1153 23l-12 -54h-13l-96 -96h-260q-112 65 -233 201q-47 47 -172 207v-111q0 -56 4 -80h2q8 -31 84 -121h-19l-96 -96h-416l21 21q62 62 69 90l9 86v811q0 67 -35 114h-2q-47 56 -74 56l-4 96l96 96v12l60 5h16q3 0 8 1t8 1q123 0 205 -82l2 -4q158 108 316 108
q130 0 219 -63q104 -73 104 -205q0 -199 -201 -346l-30 -31q-38 -40 -105 -88q74 -62 146 -141q10 -15 29 -36l44 -52q24 -30 74 -89q139 -159 252 -210zM1124 0q-111 56 -245 213q-63 74 -148 178q-104 128 -217 189q399 172 399 436q0 115 -92 180q-81 57 -200 57
q-175 0 -324 -118l-23 32q-70 71 -206 62l-31 -2l2 -49q19 0 70 -64q43 -54 43 -131v-813l-9 -90q-6 -29 -57 -80h307q-40 50 -49 78q-8 24 -8 92v350q66 -14 137 -102l130 -160q32 -39 56 -65q125 -139 220 -193h245zM698 999q0 -262 -362 -362v381q0 56 78 92
q58 27 131 27q153 0 153 -138zM571 897q0 113 -129 113q-46 0 -75 -9v-321q100 33 174 84q30 57 30 133z" />
    <glyph glyph-name="S" unicode="S" horiz-adv-x="1047" 
d="M999 362q0 -176 -139 -278l-61 -61q-36 -36 -90 -66q-154 -86 -357 -86q-196 0 -450 102q33 76 65 148q10 33 10 182l97 96v13l53 12q147 -299 369 -299q100 0 159 20q2 9 2 23q0 127 -155 184l-344 88q-242 88 -242 299q0 141 109 250l49 49q30 44 92 97q104 88 190 110
q59 15 189 15q198 0 395 -91l-35 -79q-20 -31 -28 -66h-3v-12q3 -17 3 -31v-23q0 -25 -11 -36q-25 -32 -73 -70l-52 -51q-14 -14 -63 -53q-64 260 -297 260q-66 0 -107 -17q-16 -35 -16 -92q0 -98 150 -139l350 -96q241 -99 241 -302zM315 1057l-8 -8zM969 362
q0 185 -209 269l-361 98q-172 47 -172 170q0 116 72 176t184 60q256 0 314 -242q41 31 47 47q2 4 2 18v23q0 12 -2 29l2 24q8 37 31 68l22 51q-172 76 -354 76q-121 0 -180 -15q-81 -21 -179 -102q-143 -119 -143 -270q0 -195 211 -271l356 -92q174 -63 174 -209
q0 -176 -288 -176q-242 0 -392 301q0 -135 -8 -162q-2 -12 -59 -145q223 -90 418 -90q201 0 344 82q170 98 170 282z" />
    <glyph glyph-name="T" unicode="T" horiz-adv-x="1582" 
d="M1534 1264l-43 -31l-78 -78l-92 -68q-5 -5 -8 -16l-41 -162q-6 2 -8 9l-99 -99q-58 65 -145 148q-50 30 -148 30v-827q0 -66 9 -84q4 -23 88 -117h-19l-96 -96h-408q68 86 80 117v2l6 78v807q0 75 -36 104q-9 9 -27 16h-156q-118 0 -188 -30l2 2l-188 -117l-31 33
l129 188q49 71 49 309l96 97v30q110 -188 171 -216.5t169 -28.5h1012zM1438 1233h-916q-113 0 -180 31q-73 34 -129 131q0 -156 -53 -234l-123 -180l180 111q72 32 199 32h162q22 -11 26 -14q55 -41 55 -131l-6 -891q-10 -35 -53 -88h301q-45 51 -51 78q-8 18 -8 92v954h131
q106 0 162 -34q29 -18 120 -117l23 90q17 66 72 106z" />
    <glyph glyph-name="U" unicode="U" horiz-adv-x="1299" 
d="M1251 596q0 -265 -147 -449q-49 -61 -105 -102l-43 -43q-152 -152 -391 -152h-20q-3 0 -9.5 1.5t-9.5 1.5t-10 -1.5t-10 -1.5h-19q-275 0 -434 199q-143 179 -143 445q0 159 104 317l117 147l-10 9l-129 125q4 6 10 12l86 86l-2 4q57 66 90 66h258q20 0 43 -9l23 -30v-52
q-219 -208 -219 -573q0 -221 102 -354h-2q23 -31 74 -88v2q69 -52 176 -58q82 4 139 33q5 5 12 14q97 124 97 349q0 366 -217 575v45l16 29l84 84l14 24q23 9 45 9h258q35 0 95 -66l-144 -137q37 -47 113 -139q108 -158 108 -322zM115 1217l-17 -17q6 5 17 17zM1221 596
q0 159 -105 305q-32 40 -84 106l-39 50q0 6 25 30l112 109q-30 33 -51 33h-258q-12 0 -24 -4l-9 -15v-28q218 -209 218 -586q0 -231 -101 -363q-78 -102 -92 -110q-59 -49 -184 -55q-118 6 -183 55q-29 22 -96 110q-100 131 -100 363q0 377 219 586v28l-10 15q-13 4 -25 4
h-258q-22 0 -49 -33l113 -109q22 -21 22 -30l-123 -156q-102 -156 -102 -305q0 -258 137 -428q154 -191 416 -191h18q11 1 20 1q10 0 19 -1h21q260 0 413 191q140 174 140 428z" />
    <glyph glyph-name="V" unicode="V" horiz-adv-x="1510" 
d="M1462 1260l-100 -207l-217 -389h2q-145 -262 -348 -682q-15 -31 -45 -45l-80 -82q-17 -17 -43 -21q-65 0 -127 156l-86 215q-66 165 -124 282q-53 105 -155 289q-64 115 -254 375l99 96q-4 8 -9 13h459q24 -10 82 -68q-31 -23 -53 -45l-8 -8q-19 -19 -21 -35l6 -31
q41 -135 121 -304q0 -1 197 -380l14 -27l150 267q87 155 157 317l4 27q-3 15 -16 39l-133 114l98 99l-8 8l127 27h311zM1413 1229h-256l-67 -15l100 -86q18 -26 20 -53l-4 -33q-79 -174 -162 -323l-251 -451q-14 22 -62 107q-275 491 -321 694l-7 31q7 51 68 96
q-31 31 -43 33h-391q171 -240 227 -338q163 -287 279 -576l86 -215q56 -139 102 -139q26 4 41 35q60 128 182 370q92 182 160 304l221 397z" />
    <glyph glyph-name="W" unicode="W" horiz-adv-x="2030" 
d="M1982 598q0 -263 -147 -448q-23 -29 -50 -55q-19 -16 -54 -48l-48 -47q-153 -150 -387 -150q-5 0 -16 -1t-16 -1q-11 -2 -23 -2h-18q-119 0 -193 25v-2q-80 25 -164 90q-157 -109 -379 -109q-275 0 -434 199q-143 179 -143 445q0 159 104 317l117 147l-10 9l-129 125
q4 6 10 12l86 86l-2 4q57 66 90 66h258q20 0 43 -9l23 -30v-52q-219 -208 -219 -573q0 -223 102 -356h-2q100 -123 307 -123h23q12 0 22 2q-98 168 -98 375q0 251 133 464q-3 3 -10 9l-131 125q4 6 10 12l86 86l-2 4q57 66 90 66h203q67 0 78 -74q-86 -258 -86 -590
q0 -199 65 -324q86 -166 229 -166h11q139 0 233 70q68 111 68 320q0 366 -219 575v47l18 27l78 78l22 30q25 9 43 9h258q33 0 91 -68l-142 -135q53 -60 125 -152q96 -149 96 -309zM733 1200zM1952 598q0 147 -103 305q-110 135 -123 156q0 9 23 31l113 106q-29 35 -50 35
h-258q-12 0 -24 -4l-10 -15v-28q219 -209 219 -586q0 -246 -92 -365q-121 -157 -336 -157h-11q-163 0 -256 180q-69 133 -69 340q0 334 86 592q-6 41 -47 41h-203q-23 0 -49 -33l115 -109q20 -19 20 -30q-135 -209 -135 -461q0 -246 149 -440q-90 -70 -223 -70
q-225 0 -338 145q-100 128 -100 365q0 377 219 586v28l-10 15q-13 4 -25 4h-258q-22 0 -49 -33l113 -109q22 -21 22 -30l-123 -156q-102 -156 -102 -305q0 -258 137 -428q154 -191 416 -191q223 0 381 115q85 -71 168 -96q77 -23 186 -23q12 0 37 2t37 2q262 0 413 191
q140 177 140 430zM115 1217l-17 -17q6 5 17 17z" />
    <glyph glyph-name="X" unicode="X" horiz-adv-x="1449" 
d="M1401 -33h-19l-96 -96l-336 -4q-68 112 -211 330l-91 127q-44 61 -91 120q-37 -54 -90 -135q-80 -130 -148 -332h-10l-96 -96l-319 -6q115 209 272 399l266 322l-141 217q-99 152 -168 152q-16 0 -88 -17l-101 -24l-20 39l96 96l-2 6q193 162 303 162q112 0 226 -150
q30 -44 94 -129q8 -10 16 -22h-2l8 -13q24 30 68 93q19 24 61 71l43 43q123 160 252 160q106 0 201 -45q-29 -96 -96 -201q-3 1 -6 4l-99 -98q-80 43 -127 43q-24 0 -43 -6q-3 -4 -51 -84q-45 -75 -86 -127zM1339 -2l-608 768q41 41 99.5 141.5t97.5 141.5q57 61 125 61
q53 0 118 -35q52 79 70 142q-74 32 -164 32q-121 0 -233 -155q-60 -83 -176 -252l-103 142q-21 31 -53 75q-102 137 -201 137q-102 0 -270 -143l90 22q70 17 94 17q84 0 189 -162l151 -232l-278 -338q-62 -75 -140 -186q-63 -88 -110 -172l260 6q55 175 143 318q8 12 70 104
l127 186q127 -157 225 -303q57 -85 203 -319z" />
    <glyph glyph-name="Y" unicode="Y" horiz-adv-x="1348" 
d="M1300 1212q-126 -182 -253 -376q-37 -57 -256 -406l-361 -575q-13 -19 -29 -45q13 -5 19 -11h4q10 -5 31 -12l18 -6q54 -18 76 -94h-14l-97 -97l-405 -6l399 631l-143 268l-213 406l2 2q-38 47 -82 113q-28 38 -83 115q-15 22 -28 38l99 96q-4 4 -9 13h453q21 0 86 -66
q-80 -61 -80 -96q0 -103 236 -522l86 125q136 198 147 262q-6 51 -162 153l97 97q-9 4 -13 8l146 30h307zM1274 1227h-297l-70 -15q117 -77 123 -139q-6 -68 -151 -278l-199 -289q-277 481 -277 598q0 45 68 98q-33 33 -43 33h-391q154 -220 164 -231l362 -685l-383 -608
l328 6q-6 27 -45 35q-20 6 -57 21q-9 6 -29 14q-8 6 -8 14q0 11 37 70l358 575q280 449 510 781z" />
    <glyph glyph-name="Z" unicode="Z" horiz-adv-x="1478" 
d="M1430 195q0 -19 -70 -68l-53 -53q-32 -32 -103 -74q-10 -7 -33 -20q-1 -1 -3 -3.5t-9 -6.5t-22 -15l-76 -78q-29 -14 -264 -14h-101q-84 0 -228 3q-33 0 -101 1l-373 6l-105 35l99 96l-8 4l946 916h-504q-150 0 -373 -62l-69 56l52 56q23 25 42 46q12 16 41 45l2 2
q16 16 94 174l90 90q2 6 10 23q63 -55 74 -60q36 -30 133 -57v-2l123 -10l158 -4q27 -1 172 6l85 4q92 4 101 4h25q4 0 12 1t12 1q12 1 35 4q150 0 154 -86q-15 -35 -31 -47l-958 -903q61 -6 186 -6q153 0 391 10l238 10q26 1 94 14q7 3 20 11q7 5 45 16q26 8 50 21v-86z
M1399 195v41q-28 -12 -84 -33q-41 -13 -92 -15l-238 -10q-238 -10 -393 -10q-219 0 -246 20l1000 945q8 6 18 28q-4 49 -117 49q10 0 0 -1t-39 -3q-353 -17 -409 -16l-160 4l-131 12q-83 22 -131 58q-16 7 -55 41q-55 -112 -86 -152q-10 -13 -119 -131l39 -31q219 60 368 60
h578l-1065 -1031l61 -20l371 -6q80 -1 264 -3l166 -1q227 0 248 10q33 52 147 123q105 65 105 72z" />
    <glyph glyph-name="bracketleft" unicode="[" horiz-adv-x="644" 
d="M596 20l-18 -6l-93 -92l-331 -115h-244l6 1379q10 38 29 57l82 82q17 26 47 45q65 41 106 41h391l11 -53l-21 -8l-90 -90l-221 -89v-1095h336zM571 45h-352v1221l35 -6l303 120h-375q-36 0 -98 -41q-31 -16 -41 -57l-6 -1348h217z" />
    <glyph glyph-name="backslash" unicode="\" horiz-adv-x="1052" 
d="M1004 -76h-19l-96 -96h-254q0 73 -109 326l-135 313q-189 438 -270 602q-70 105 -103 133l-112 68l20 86l92 92l5 16h253l564 -1288q24 -55 61 -127q6 -10 33 -42zM938 -45q-59 67 -74 94q-12 21 -53 115l-555 1270h-207l-12 -52l96 -57q20 -12 51 -53q27 -37 62 -90
q86 -173 270 -602l135 -314q111 -258 111 -311h176z" />
    <glyph glyph-name="bracketright" unicode="]" horiz-adv-x="652" 
d="M604 78q0 -103 -67 -139l-78 -78q-11 -11 -27 -19q-38 -20 -106 -43h-387l-9 43l97 97l-2 10l237 94v1090h-336l-8 45l96 96l-2 10l336 119h256v-1325zM573 78v1294h-221l-315 -112h352v-1217l-35 4l-305 -121h377q21 0 96 41q51 28 51 111z" />
    <glyph glyph-name="asciicircum" unicode="^" horiz-adv-x="726" 
d="M678 1100h-19l-96 -96h-315l78 77q-4 4 -17 23l2 -23l-12 2l-96 -96l-49 17h-295l96 96h-12q132 98 204 166q28 27 93 114l75 76q11 14 27 35q56 -60 166 -180q49 -54 170 -211zM618 1130q-50 72 -133 160q-113 121 -141 154q-27 -39 -86 -103l-18 -20q-17 -18 -39 -47
q-92 -87 -164 -144h221l18 -6l-2 21l-2 10l-2 12q-3 17 -4 27q0 35 86 125q49 -59 78 -95l37 -46q-16 -23 -23 -25l-26 -23h200z" />
    <glyph glyph-name="underscore" unicode="_" horiz-adv-x="1432" 
d="M1384 -57l-18 -6l-92 -93l-285 -92h-1063l-8 45l96 97l-2 10l291 94h1071zM1360 -33h-1053l-270 -88h1053z" />
    <glyph glyph-name="grave" unicode="`" horiz-adv-x="542" 
d="M494 1087h-19l-96 -96h-266l20 49q0 13 -10 25q-82 131 -217 205l20 86l92 92l5 16h253l54 -125q51 -117 164 -252zM428 1118q-76 88 -127 209l-45 107h-207l-12 -52q126 -71 209 -200q14 -22 14 -39q0 -6 -8 -25h176z" />
    <glyph glyph-name="a" unicode="a" horiz-adv-x="830" 
d="M782 27l-6 -58h-12l-96 -96h-211q-39 0 -66 43q-2 4 -6 14q-106 -65 -190 -65q-117 0 -195 55q-90 63 -90 182q0 130 72 203l59 60q49 85 164 116l102 27q-47 10 -88 10q-90 0 -233 -39l-21 37l96 96l-2 6q148 136 347 136q88 0 212 -39q80 -37 80 -133v-476q0 -2 2 -2
l5 -4q22 -59 77 -73zM764 0q-62 14 -86 84q-10 13 -10 16v482q0 75 -68 106q-104 35 -194 35q-189 0 -314 -115q137 37 230 37q106 0 190 -47q-29 -54 -94 -84q-42 -19 -205 -63q-176 -47 -176 -246q0 -105 80 -162q72 -51 180 -51q96 0 215 88q-4 -12 -6 -17q-4 -10 10 -32
q19 -31 43 -31h205zM512 188q-90 -71 -172 -71q-131 0 -131 135q0 93 57 131q8 5 137 51q61 21 109 72v-318zM385 154v194q-38 -25 -76 -39q-31 -13 -67 -24q-2 -9 -2 -17v-16q0 -105 100 -105q20 0 45 7z" />
    <glyph glyph-name="b" unicode="b" horiz-adv-x="1027" 
d="M948 342q0 -168 -114 -269q-109 -96 -279 -96q2 0 -152 11q-30 2 -90 69q-5 -1 -8 -4l-45 -53l-125 -6q6 49 12 57q46 51 46 88v838q0 10 -70 24q-78 15 -86 25l125 57q54 25 123 101l63 26v-559q78 54 207 54q175 0 281 -93q112 -97 112 -270zM752 -41zM979 342
q0 186 -121 292q-115 101 -303 101q-96 0 -176 -35v557l-111 -47q-71 -84 -125 -100l-157 -74l6 -6l-98 -98q23 -24 87 -48q68 -26 85 -12v-835q0 -27 -39 -74l-2 -2q-12 -12 -21 -96l166 8l43 43q51 -53 86 -55q161 -11 154 -11q192 0 295 103l16 16q-2 -2 -4 -2l-2 -2
l53 51q15 11 43 35q125 114 125 291zM774 342q0 111 -51 188q-63 95 -168 95q-51 0 -126 -49q-81 -52 -81 -99v-301q0 -35 68 -76q74 -45 139 -45q107 0 168 97q51 81 51 190zM647 240q0 -78 -26 -138q-33 -16 -66 -16q-60 0 -123 41q-53 34 -53 49v299q45 23 74 23
q93 0 147 -84q47 -73 47 -174z" />
    <glyph glyph-name="c" unicode="c" horiz-adv-x="798" 
d="M750 203q-54 -140 -144 -199l-59 -59q-90 -90 -228 -90q-195 0 -302 110.5t-107 306.5q0 136 94 230l55 55q35 50 82 86q123 94 285 94q76 0 172 -39q135 -55 135 -123q0 -30 -69 -79l-64 -64q-19 -19 -49 -39q-60 -40 -139 -71q26 69 26 90q0 41 -44 67q-38 23 -81 23
q-23 0 -45 -8q-28 -58 -28 -142q0 -104 62 -173q65 -73 167 -73q39 0 100 25v2q82 35 131 98zM719 207q-56 -70 -135 -103q-67 -28 -115 -28q-114 0 -188 82q-72 79 -72 194q0 108 47 185q56 92 160 92q55 0 99 -29q50 -34 50 -86q0 -20 -10 -47q29 11 84 49q63 44 63 59
q0 50 -114 95q-94 37 -162 37q-156 0 -266 -86q-123 -96 -123 -246q0 -185 100.5 -289t284.5 -104q213 0 297 225z" />
    <glyph glyph-name="d" unicode="d" horiz-adv-x="1009" 
d="M961 20l-64 -53l-49 -51l-70 -59q-16 -2 -33 -2h-53q-10 0 -18 2q-15 2 -41 16q-28 5 -70 35q-110 -58 -235 -58q-418 0 -418 367q0 182 113 295l51 51q16 27 51 60q119 112 305 112q41 0 82 -6v115q0 49 -18 74q-17 18 -199 18l-6 47l96 96v11q223 55 283 100v-2
q64 50 110 61q47 -49 47 -86v-946q0 -73 38 -119q25 -31 98 -78zM909 16q-65 41 -89.5 83.5t-24.5 117.5v946q0 23 -27 51q-29 -7 -92 -57q-47 -36 -273 -94q192 0 213 -29q23 -32 23 -88v-293q-88 52 -209 52q-177 0 -285 -104.5t-108 -281.5q0 -342 393 -342q131 0 240 62
q37 -32 71 -39q24 -13 39 -16q9 -2 37 -2h23q14 0 30 2zM639 176q0 -37 -66 -74q-84 -47 -143 -47q-103 0 -166 82q-55 71 -55 182q0 98 59 197q66 111 162 111q51 0 127 -49q82 -53 82 -101v-301zM512 104v271q0 33 -70.5 79t-113.5 46q-23 0 -37 -6q-51 -84 -51 -175
q0 -98 47 -163q51 -70 143 -70q35 0 82 18z" />
    <glyph glyph-name="e" unicode="e" horiz-adv-x="851" 
d="M803 268q-62 -172 -176 -254l-54 -53q-108 -106 -268 -106q-165 0 -278 110q-117 114 -117 277q0 178 104 282l62 62q108 151 323 151q135 0 224 -73q70 -58 133 -228l-17 -4l-94 -94l-393 -74q15 -44 47 -82q64 -76 166 -76q86 0 164 52v-2q4 4 8 6q3 7 10 20l88 88
q4 6 13 23zM772 272q-105 -196 -307 -196q-118 0 -189 86q-67 80 -67 200v13q-1 -7 -6 -21l2 13l510 92q-89 248 -316 248q-166 0 -264 -98t-98 -265q0 -153 107.5 -257.5t263.5 -104.5q264 0 364 290zM541 516l-336 -65q16 33 45 100q41 66 125 78q56 8 104.5 -25t61.5 -88
zM311 502q-6 2 -18 2q-4 0 -10.5 -1t-10.5 -2t-12 -1l-4 -8z" />
    <glyph glyph-name="f" unicode="f" horiz-adv-x="784" 
d="M760 979l-15 -4l-94 -94l-49 -15q-14 0 -72 -37q-2 0 -4 -2q-21 -11 -61 -33l-39 -22q-18 -10 -27 -14l82 133q-18 35 -90 41q-6 -31 -6 -66v-125l320 -2l-84 -155h-11l-96 -97h-129v-497l-39 -29l-70 -72l-204 -159v762l-174 -5l47 113l12 10q6 13 6 27q4 41 35 119
l88 88q12 45 33 74l84 83q4 11 14 23l80 80q80 80 221 80q92 0 159 -57t83 -148zM725 999q-10 62 -66 103q-69 51 -141 51q-131 0 -213 -82l-59 -59q-47 -65 -47 -150v-149q-8 5 -25 14q-43 16 -72 72q-4 -9 -11 -61q-6 -39 -25 -52l-29 -72l162 4v-737l155 121v614l246 -2
l51 95l-297 2v155q0 89 47 150q33 43 74 43q119 0 137 -66l-45 -73q10 5 65.5 39t72.5 34z" />
    <glyph glyph-name="g" unicode="g" horiz-adv-x="990" 
d="M942 674q-8 -4 -20 -8l-88 -88q-9 -74 -9 -246q0 -355 -32 -459q-49 -160 -162 -242l-60 -59q-109 -107 -288 -107q-121 0 -236 78l-133 140l98 98l-8 8q47 12 90 51q5 9 17 27q-63 19 -117 78q-84 92 -84 231q0 162 119 281l47 47q84 121 246 184q79 31 170 33l440 10z
M926 700l-434 -10q-169 -4 -306 -112q-149 -117 -149 -299q0 -131 77 -216q80 -88 210 -88q165 0 317 111q4 -142 -37 -256q-56 -156 -178 -156q-49 0 -96 33q-32 23 -80 88q-53 73 -53 99q-66 -105 -134 -123l101 -105q106 -74 221 -74q292 0 379 291q31 104 31 449
q0 188 12 266q14 57 31 68q30 11 88 34zM514 -63q-129 -80 -260 -89q5 -13 20 -34q44 -62 74 -82q41 -27 78 -27q20 0 43 6l10 25q33 82 35 201zM690 496q3 -102 -31 -201q-31 -90 -99 -154q-77 -71 -165 -71q-77 0 -131 63q-50 59 -55 139q-9 148 96 238q100 86 248 86h98
q-2 -2 -2 -4l10 -2q28 -6 31 -94zM458 75l-7 -7zM563 377v16q0 63 -12 70l-29 6h-71q-99 0 -175 -41q-36 -59 -36 -133v-23q0 -65 47.5 -118.5t107.5 -53.5q56 0 109 35q59 97 59 242z" />
    <glyph glyph-name="h" unicode="h" horiz-adv-x="914" 
d="M866 326q0 -110 -14 -170h-2l-35 -187h-12l-96 -96h-209q55 240 55 350q0 106 -37 178q-47 93 -143 93q-22 0 -49 -9v-383q0 -12 75 -133h-18l-96 -96h-357q82 109 82 127v770q0 22 -26 45q-44 39 -68 39l-8 92l96 96v13q55 8 182 71q4 2 7 2q14 10 43 29q75 41 133 78
l-13 -139q-32 -101 -32 -158v-240q118 47 223 47q319 0 319 -419zM836 326q0 389 -289 389q-115 0 -250 -62h-4v285q0 61 33 162l6 78q-46 -27 -137 -82q-97 -60 -158 -68l4 -47q10 0 61 -45q35 -31 35 -64v-770q0 -26 -57 -102h264q-51 82 -51 102v412q0 45 72 80
q55 27 110 27q108 0 162 -99q43 -78 43 -196q0 -115 -49 -326h157l33 166q15 75 15 160z" />
    <glyph glyph-name="i" unicode="i" horiz-adv-x="517" 
d="M469 -31h-20l-97 -96h-397l86 86l-4 -2q3 4 8 12h-2l4 4q4 17 4 25v430q0 43 -28 59q-14 6 -41 19q-23 15 -99 104l99 99q-3 3 -9 10h52q-25 22 -31 69q0 48 26 74l78 78q30 64 123 64h6q111 0 129 -105v-4q0 -70 -61 -96l-74 -74q-1 -1 -4 -3t-4 -3h154v-619
q0 -16 6.5 -29t95.5 -102zM326 895q-13 81 -105 78q-100 -3 -100 -80q10 -82 104 -78q101 4 101 80zM397 0q-53 53 -55 63q-6 13 -6 37v588h-299q41 -49 61 -59q8 -6 39 -17q41 -22 41 -82v-430q0 -30 -18 -55l-45 -45h282z" />
    <glyph glyph-name="j" unicode="j" horiz-adv-x="415" 
d="M367 6q0 -201 -117 -328q-31 -34 -64 -57l-57 -57q-115 -115 -303 -123l-12 43l98 98l-4 8q30 14 86 48q59 108 59 266v518q0 47 -28 63q-16 4 -43 21q-23 15 -99 104l99 99q-3 3 -9 10h52q-25 22 -31 69q0 43 26 74l78 78q28 64 125 64h6q111 0 129 -105v-4
q0 -64 -57 -92l-76 -76q-6 -6 -10 -8h152v-713zM328 895q-13 82 -105 78q-102 -4 -102 -80q10 -78 104 -78q103 10 103 80zM336 6v682h-299q41 -49 61 -59q11 -10 39 -19q43 -22 43 -86v-518q0 -338 -246 -438q185 8 293.5 131.5t108.5 306.5z" />
    <glyph glyph-name="k" unicode="k" horiz-adv-x="902" 
d="M854 735l-92 -164q-29 -29 -57 -49l-52 -51q185 -127 185 -502h-13l-96 -96h-205q0 198 -57 301q-51 92 -143 119v-191q0 -24 112 -133h-20l-97 -96h-407l6 6q92 92 92 121v791q0 22 -26 45q-41 36 -68 36l-8 95l96 96v12q87 15 176 66h-2q56 37 172 103q10 5 17 11
l-11 -141q-32 -102 -32 -158v-413q47 0 127 22q0 17 -7 58l99 98q0 2 -1 5t-1 5zM807 0q0 399 -234 483q97 37 162 103l68 119l-228 -5q3 -10 3 -20v-16q0 -92 -109 -125q-89 -27 -156 -27q-20 0 -20 -10v454q0 64 33 162l6 80l-137 -84q-97 -57 -158 -65l4 -50q9 0 61 -43
q35 -29 35 -63v-791q0 -32 -65 -102h288q-67 63 -67 102v326q4 0 6 -2q20 4 53 4q164 0 240 -141q59 -109 59 -289h156z" />
    <glyph glyph-name="l" unicode="l" horiz-adv-x="537" 
d="M489 -31h-18l-96 -96h-404q34 45 78 119l6 76v798q0 49 -49 49q-27 0 -125 -28q42 62 80 100l35 35q81 112 176 149q49 19 223 56v-1057q0 -68 2 -72q13 -37 92 -129zM424 0q-41 47 -51 78q-8 18 -8 92v1018q-65 -13 -183 -45q-99 -37 -145 -113q45 12 72 12q73 0 73 -73
l-6 -881q-8 -33 -51 -88h299z" />
    <glyph glyph-name="m" unicode="m" horiz-adv-x="1291" 
d="M1243 -45h-14l-96 -96h-332l22 106q88 135 88 305q0 67 -27 125q-34 74 -93 74h-13q13 -53 13 -96q0 -82 -76 -240v-8q2 -12 61 -68l33 -102h-14l-97 -96h-325l6 104q82 150 82 309q0 84 -35 136q-41 61 -111 61q-8 0 -24 -4v-340q0 -21 8 -31l66 -45l14 -94h-12l-97 -96
h-397l96 96h-8l16 16v500q0 29 -104 127l98 98l-10 11h330v-35q98 47 192 47q115 0 197 -74l12 -16q105 90 252 90q144 0 225 -104q74 -94 74 -242q0 -70 -33 -146l-59 -96v-4q0 -8 63 -72zM1212 373q0 136 -64 221q-72 94 -204 94q-156 0 -256 -100l-31 37q-71 63 -174 63
q-112 0 -223 -67v55h-223q67 -66 67 -103v-487q0 -36 -20 -55l-47 -45h307l-8 47l-57 39q-19 20 -19 53v379q0 21 51 53q62 39 107 39q83 0 131 -72q39 -59 39 -149q0 -170 -82 -320l-4 -69h266l-18 55q-66 61 -66 86l2 18q74 156 74 228q0 73 -31 151q66 72 164 72
q71 0 113 -80q32 -61 32 -143q0 -178 -90 -316l-14 -71h268l-16 55q-66 61 -66 86l2 16l62 101q28 63 28 129z" />
    <glyph glyph-name="n" unicode="n" horiz-adv-x="888" 
d="M840 -43h-15l-96 -96h-323l2 102q81 150 81 311q0 197 -174 197q-8 0 -24 -4v-340q0 -21 8 -31l66 -45l14 -94h-12l-97 -96h-397l96 96h-8l16 16v500q0 29 -104 127l98 98l-10 11h330v-35q104 47 221 47q176 0 281 -174q28 -61 28 -172q0 -82 -76 -242v-4q0 -12 62 -70z
M799 -12l-19 55q-65 61 -65 86l2 18q74 156 74 228q0 88 -25 153q-98 162 -254 162q-141 0 -252 -67v55h-223q67 -66 67 -103v-489q0 -34 -20 -53l-47 -45h307l-8 47l-57 39q-19 20 -19 53v379q0 21 51 53q62 39 107 39q198 0 198 -221q0 -170 -81 -320l-3 -69h267z" />
    <glyph glyph-name="o" unicode="o" horiz-adv-x="873" 
d="M825 344q0 -185 -123 -291q-5 -5 -16 -14l-16 -12l-54 -54q-118 -118 -313 -118q-175 0 -293 102q-121 105 -121 285q0 169 105 274l51 51q25 37 61 70q112 100 300 100q177 0 296 -104q123 -108 123 -289zM795 344q0 166 -113 267q-108 96 -276 96q-176 0 -279 -93
q-111 -100 -111 -270q0 -167 113 -267q108 -95 277 -95q171 0 276 94q113 101 113 268zM623 344q0 -116 -57 -199q-60 -86 -160 -86q-108 0 -168 97q-50 81 -50 188q0 116 50 193q59 92 168 92q104 0 165 -92q52 -79 52 -193zM496 242q0 106 -47 178q-53 82 -146 82
q-27 0 -57 -10q-27 -56 -27 -148q0 -99 43 -170q51 -84 144 -84q34 0 65 12q25 52 25 140z" />
    <glyph glyph-name="p" unicode="p" horiz-adv-x="988" 
d="M940 358q0 -231 -170 -346l-49 -49q-117 -117 -309 -117q-41 0 -74 7v-179q-45 -77 -102 -112l-62 -64q-69 -71 -178 -71q-41 0 -59 10q-17 16 -17 26q0 26 60 86q4 4 10 11.5t10 11.5l2 2q22 22 23 27v757q0 79 -31 120q-22 30 -100 79l98 96l-2 2q-2 0 -4 2l77 68
q17 2 33 2h33q38 0 70 -12l5 -2q5 -2 13 -4v-2q25 -9 59 -33q121 57 238 57q190 0 299 -88q127 -103 127 -285zM909 358q0 174 -114 263q-101 79 -281 79q-133 0 -240 -61q-36 31 -71 41q-13 6 -39 14q-9 2 -35 2h-25q-12 0 -28 -2l-39 -32q65 -41 90 -83t25 -118v-758
q0 -12 -52.5 -66.5t-52.5 -70.5q0 -2 2 -4q17 -8 49 -8q138 0 209 127v344q82 -52 207 -52q178 0 286.5 104.5t108.5 280.5zM735 358q0 -103 -57 -196q-68 -111 -164 -111q-52 0 -127 49q-80 52 -80 101v301q0 37 64 73q85 48 143 48q106 0 166 -82q55 -74 55 -183zM608 256
q0 99 -52 169.5t-144 70.5q-31 0 -74 -17v-278q0 -30 68 -76q64 -43 108 -43q27 0 55 12q39 76 39 162z" />
    <glyph glyph-name="q" unicode="q" horiz-adv-x="927" 
d="M879 682q-7 -49 -17 -72q-39 -45 -39 -71v-707q0 -20 31 -57v-64l-37 -26l-72 -74l-124 -96q-108 -84 -281 -84l96 96h-12q41 30 74 57q3 9 12 25v274q-78 -37 -182 -37q-185 0 -299 100q-119 105 -119 287q0 171 100 269l58 57q22 34 61 68q119 104 301 104
q39 0 152 -12q94 -10 149 -10h27l90 6zM848 684l-88 -6h-29q-55 0 -151 10q-116 12 -150 12q-172 0 -280 -95q-113 -100 -113 -269q0 -172 112 -270q107 -93 281 -93q123 0 207 54v-320q-19 -84 -115 -149q83 0 187 80l114 88v36q-30 33 -30 70v707q0 34 43 88q2 6 12 57z
M637 201q0 -47 -81 -99q-76 -49 -126 -49q-108 0 -170 94q-51 78 -51 189q0 109 51 190q61 97 170 97q61 0 137 -45q70 -42 70 -76v-301zM510 109v290q0 21 -57 56q-67 41 -125 41q-29 0 -56 -11q-32 -60 -32 -149q0 -97 45 -170q51 -82 145 -82q33 0 80 25z" />
    <glyph glyph-name="r" unicode="r" horiz-adv-x="783" 
d="M735 553q0 -113 -110 -186l-60 -60q-76 -76 -239 -114l-13 24v-100l6 -41q3 -6 107 -107h-20l-97 -96h-411l86 86q4 8 6 10h-4l8 8q2 5 2 9l4 452q1 62 -100 92l20 41h2q2 7 2 35l96 96v13l86 8h11q2 0 6 1t6 1q51 0 111 -29l6 -4q94 56 213 56q103 0 174 -39
q102 -56 102 -156zM438 397q0 21 -8 41q-23 29 -41 39q-39 21 -76 21v-260l90 90l-2 8q10 7 29 22l6 19q2 6 2 20zM705 553q0 81 -87 127q-70 37 -159 37q-125 0 -213 -62l-19 13q-57 30 -118 24l-58 -6q0 -16 -8 -27l-6 -12q91 -29 90 -106l-4 -455q0 -26 -25 -45l-41 -41
h293q-59 55 -61 70l-6 43v467q0 45 133 45q47 0 86 -23q18 -8 53 -51q15 -34 8 -76q-5 -32 -41 -74q-19 -22 -90 -79q273 63 273 231z" />
    <glyph glyph-name="s" unicode="s" horiz-adv-x="748" 
d="M700 201q0 -109 -104 -178l-61 -62q-22 -22 -64 -47v2q-102 -57 -217 -57q-344 0 -344 299l96 96v12h10q-51 56 -51 135q0 84 55 138l64 63q30 51 88 86q80 49 205 49q264 0 305 -245q-5 -1 -14 -5l-95 -94q-12 -4 -28 -8q155 -61 155 -184zM362 438q-32 58 -83 64v-6
q0 -33 83 -58zM670 201q0 137 -230 186q-192 41 -192 109q0 133 121 133q137 0 145 -168q53 37 133 55q-31 191 -270 191q-115 0 -189 -45q-96 -59 -96 -158q0 -109 109 -162l134 -38q46 -13 50 -15q129 -41 129 -107q0 -60 -51 -92q-43 -27 -107 -27q-59 0 -100 35
q-78 66 -78 142q0 24 8 43q-52 -20 -96 -33q-8 -4 -53 -14q0 -131 98 -195q84 -55 221 -55q109 0 205 53q109 60 109 162zM383 94q-16 41 -109 70q2 0 -47 14q45 -84 129 -84h27z" />
    <glyph glyph-name="t" unicode="t" horiz-adv-x="750" 
d="M702 735l-84 -153h-10l-96 -97h-123v-190q0 -113 31 -143q39 -46 63 -56q54 -33 183 -67l-4 -60h-15l-94 -96q-23 -2 -45 -2h-41q-102 0 -173 16q-77 18 -116 47q-105 78 -104 275l2 276h-178l45 111l14 14q2 3 2 11q0 3 -1 9t-1 9v18q0 29 35 86l80 80q-6 19 -23 29
q-27 6 -39 16q-27 11 -104 107l98 98l-4 4q-1 3 -4 6h393v-348h313zM653 0q-138 37 -192 72q-10 7 -62 59q-41 41 -41 164v317h242l51 93h-293v348h-299q41 -49 64 -60q8 -8 39 -14q41 -23 41 -84v-182q-70 8 -111 84q-8 -15 -8 -37q0 -6 1 -18.5t1 -18.5q0 -27 -20 -41
l-29 -70h166l-2 -301q-1 -185 94 -254q81 -59 274 -59h41q21 0 43 2z" />
    <glyph glyph-name="u" unicode="u" horiz-adv-x="839" 
d="M791 723l-33 -102q-49 -50 -60 -70v-6l58 -96q32 -76 32 -144q0 -199 -109 -277q-5 -3 -13 -10l-68 -67q-4 -2 -5.5 -3l-4.5 -3l-2 -4q-95 -84 -267 -84h-28q-155 0 -250 65q-55 37 -86 125q-27 75 -27 148t74 233l2 12q-6 19 -61 74l-35 92l96 96l-4 13h346l-6 -113
q-82 -149 -82 -307q0 -129 33 -156q31 -41 145 -45q4 1 13 4q20 58 20 105q0 153 -100 305l-23 106l96 97l-2 12h351zM758 305q0 66 -29 129l-59 101l-4 16q4 27 65 86l19 55h-271l15 -71q102 -152 102 -316q0 -78 -43 -164l-2 -2v6q-14 -16 -16 -22q-27 -37 -89 -57l-4 -3
q-135 5 -174 56q-41 35 -41 176q0 170 82 319l4 70h-268l21 -55q63 -64 65 -86l-2 -19q-74 -159 -74 -227q0 -178 103 -252q96 -69 264 -61q172 9 250 77q86 76 86 244z" />
    <glyph glyph-name="v" unicode="v" horiz-adv-x="912" 
d="M360 629q0 -2 -1 -4t-1 -4q0 4 1 5t1 3zM358 610q0 -2 -2 -2v-2q0 2 1 6t1 6v-8zM834 688q-59 -140 -183 -371l-196 -364q-41 88 -105 215q-27 38 -98 190q-58 124 -131 220l-84 110h280q11 0 15 2q0 2 2 2v-10q0 -22 -6 -65.5t-6 -65.5q0 -109 145 -358q182 387 182 399
q0 40 -37 86l-8 10h230zM864 680l-26 39h-295l8 -10l-98 -99l36 -49q33 -45 33 -72q-3 -11 -21 -50l-63 -134q-73 144 -84 217v31q0 29 2 53q-4 -20 -4 -33v37q2 19 4 47l2 25h7v41q-43 0 -54 -4h-336l9 -10l-99 -99l113 -149q72 -94 129 -215q77 -163 100 -195
q55 -105 123 -258l99 98q1 -3 4 -10l227 422q112 208 184 377zM354 522q0 -2 -1 -1t-1 3v-2h2z" />
    <glyph glyph-name="w" unicode="w" horiz-adv-x="1271" 
d="M1223 305q0 -196 -131 -287l-64 -63q-100 -98 -276 -98h-27q-154 0 -254 65l-18 23q-103 -90 -252 -90q-144 0 -224 104l3 2q-70 88 -70 234q0 75 27 135l63 100h-2l2 10q-6 15 -63 74l-27 92l96 96l-2 13h348l-24 -117q-88 -135 -88 -301q0 -73 30 -131q32 -62 86 -62
h13q-9 30 -9 91q0 73 74 233l2 10q-2 17 -61 76l-31 92l96 96l-2 13h338l-2 -111q-82 -149 -82 -309q0 -129 31 -156q31 -41 145 -45q4 0 13 4q20 58 20 105q0 157 -98 305l-23 106l97 97l-3 12h349l-29 -100q-61 -62 -64 -70v-6l60 -96q33 -76 33 -146zM1192 305
q0 66 -29 129l-61 101l-2 16q0 24 65 86l17 55h-269l15 -71q100 -150 100 -316q0 -78 -43 -164l-2 -2v6q-10 -16 -16 -22q-27 -37 -88 -57l-5 -3q-135 5 -174 56q-38 33 -38 176q0 170 81 319l2 70h-266l19 -55q63 -64 65 -86l-2 -19q-74 -159 -74 -227q0 -76 31 -152
q-65 -71 -162 -71q-73 0 -114 80q-33 64 -33 143q0 178 90 315l14 72h-268l16 -55q64 -62 68 -86l-4 -17l-62 -100q-26 -59 -26 -129q0 -137 63 -221q70 -94 203 -94q156 0 256 100l31 -37q100 -68 264 -61q338 14 338 321z" />
    <glyph glyph-name="x" unicode="x" horiz-adv-x="1013" 
d="M965 98q-62 -88 -103 -114q-6 -6 -16 -11l-55 -57q-12 -12 -35 -29v-2q-47 -37 -111 -37q-158 0 -311 234q-19 -19 -39 -33l-46 -46q-7 -7 -18 -15q-120 -115 -278 -115h-127l-6 47l98 96l-2 11q109 24 186 90q15 10 35 30q3 8 8 13l64 73q4 8 14 31q-117 195 -180 195
q-29 0 -131 -64q0 117 47 164l78 78q49 82 164 82q151 0 254 -141q123 141 290 141q74 0 216 -70l-93 -125l-30 -20l-74 -74l-121 -80q-35 70 -47 82h-6q-6 0 -15 2h-2q-8 0 -12 -2l-12 -16l115 -219q59 -113 100 -113q16 -4 24 -4q66 0 132 59zM936 113q-70 -64 -148 -64
q-16 0 -32 4q-54 0 -121 129l-123 236l66 88q52 56 100 55q31 -1 49 -22q9 -11 29 -50l92 62l65 88q-102 49 -168 49q-176 0 -292 -162q-95 162 -252 162q-69 0 -114 -38q-48 -41 -48 -109q72 45 106 45q78 0 207 -217q-8 -23 -22 -50l-64 -73q-45 -54 -143 -152
q-83 -69 -189 -94h121q145 0 262 109q68 64 78 81q5 10 16 29l15 29q162 -273 322 -273q57 0 94 31q43 27 94 107z" />
    <glyph glyph-name="y" unicode="y" horiz-adv-x="970" 
d="M922 719l-80 -70l-39 -39q-4 -8 -4 -24v-498q0 -209 -60 -293l-28 -39q-50 -70 -115 -116l-47 -48q-117 -120 -313 -120q-60 0 -95 8q-164 37 -233 168l194 223q-50 21 -90 57q-102 92 -102 260q0 68 31 146l12 24h-2q18 31 49 86q-10 29 -66 76l-20 90l96 97l-2 12h344
l-24 -119q-88 -139 -88 -309q0 -92 41 -141q47 -56 131 -56q39 0 71 8v340q0 21 -10 37l-63 43l-15 88l99 99l-2 10h430zM840 688h-314l9 -49l57 -39q18 -25 18 -55v-387q0 -32 -57 -62q-63 -33 -141 -33q-99 0 -154 66q-49 59 -49 162q0 184 90 323l14 74h-266l12 -53
q64 -53 70 -90q-21 -41 -66 -121q-26 -66 -26 -133q0 -157 94 -242q90 -82 248 -82q108 0 231 74q-2 -47 -2 -76v-45q-3 -64 -26 -104q-30 -53 -92 -95q-65 -43 -123 -43q-81 0 -137 51t-56 128l-10 37l-123 -146q57 -108 209 -141q36 -8 88 -8q217 0 348 176l29 39
q53 71 53 274v498q0 35 20 57zM481 -182q0 10 -1 30q-1 21 1 50q-110 -58 -205 -58q-38 0 -71 6q6 -60 47 -96q46 -41 115 -41q39 0 98 37q11 21 16 72z" />
    <glyph glyph-name="z" unicode="z" horiz-adv-x="970" 
d="M922 221q-30 -177 -127 -235l-68 -68q-22 -22 -47 -35q-4 -2 -21 -5q-30 -5 -47 -5h-608l-94 64l98 98l-4 4l428 403h-192q-105 0 -187 -30q-15 -4 -80 -29q-13 -4 -39 -14l-24 37l96 98l-2 4l78 80q16 28 43 90l92 92q4 12 8 21l92 -60v-2q56 -22 148 -22q12 0 139 6
q19 1 78 6q56 6 78 6q106 0 106 -80q-6 -6 -10 -14q-2 -3 -5 -6.5t-7 -12.5l-488 -454h346q99 0 168 88zM891 221q-80 -94 -189 -94h-423l538 502q6 9 19 26q0 39 -76 39q-20 0 -76 -6q-39 -4 -78 -6l-141 -6q-105 0 -166 29l-59 38q-29 -68 -58 -98l-145 -147
q108 39 117 41q82 30 188 30h270l-561 -526l64 -43h600q43 0 57 8q92 51 119 213zM760 123q-3 -4 -10 -10z" />
    <glyph glyph-name="braceleft" unicode="{" horiz-adv-x="562" 
d="M514 1368l-27 -31q-6 0 -10 -2l-86 -86q-4 -20 -4 -35v-368q0 -107 -88 -184l6 -7q82 -96 82 -174v-368q0 -36 33 -80.5t90 -44.5v-109h-12l-97 -96q-356 0 -356 272v324q0 53 -45 100l-109 88l99 99l-8 6q20 11 57 37q6 18 6 34v326q0 111 70 182l63 64q33 45 70 71
q90 62 260 62zM483 1368l-4 49q-133 0 -213 -55q-94 -64 -94 -191v-325q0 -98 -135 -178l84 -70q51 -53 51 -117v-323q0 -248 307 -248v47q-43 0 -85 57q-38 53 -38 99v368q0 83 -71 154q-19 19 -29 24l-6 7q106 69 106 180v368q0 58 35.5 103t91.5 51z" />
    <glyph glyph-name="bar" unicode="|" horiz-adv-x="271" 
d="M223 -31h-12l-96 -96h-205v1464l96 97v12h217v-1477zM193 0v1415h-156v-1415h156z" />
    <glyph glyph-name="braceright" unicode="}" horiz-adv-x="585" 
d="M537 674l-54 -45l-59 -60l-27 -22q-20 -33 -20 -66v-323q0 -153 -113 -224q-4 -2 -8 -6l-57 -57q-10 -11 -33 -29q-91 -59 -254 -59v96l96 96v13q8 0 25 4q4 12 4 18v369q0 92 74 166q4 6 16 18q-90 74 -90 180v369q0 53 -36.5 89t-90.5 42l2 96l96 97v12q172 0 262 -62
q107 -74 107 -215v-325q0 -80 160 -172zM483 668q-137 80 -137 178v325q0 128 -94 191q-82 55 -213 55l-2 -49q57 -6 92 -50.5t35 -103.5v-368q0 -107 108 -180l-8 -7q-100 -87 -100 -178v-368q0 -43 -41 -98q-43 -58 -84 -58v-47q134 0 215 55q92 62 92 193v323
q0 60 53 117zM-4 -78l-10 -10q4 3 10 10z" />
    <glyph glyph-name="asciitilde" unicode="~" horiz-adv-x="812" 
d="M764 1477q-35 -37 -109 -101l-2 -2q-80 -80 -121 -104q-59 -35 -118 -35q-34 0 -49 4l-62 16q-102 45 -133 54q-24 4 -49 4q-23 0 -51 -4l-213 -52l94 93l-12 -2q62 63 192 178l2 2q2 0 4 2q60 35 129 35q34 0 56 -4l59 -19l111 -49q40 -8 94 -8h18q20 6 127 39z
M737 1493q-125 -39 -133.5 -39.5t-20.5 -0.5q-44 0 -100 11l-108 47l-66 19q-86 14 -162 -31q-39 -23 -110 -94l129 31q28 4 57 4q50 0 104 -21q33 -14 85 -37l63 -16q20 -5 40 -5q52 0 108 32q49 28 114 100z" />
    <glyph glyph-name="nonbreakingspace" unicode="&#xa0;" 
 />
    <glyph glyph-name="exclamdown" unicode="&#xa1;" horiz-adv-x="433" 
d="M385 764q-61 -62 -61 -84v-621q0 -7 2 -21.5t2 -21.5v-8q2 -10 2 -18v-33h-2q0 -6 2 -12q4 -17 4 -27q-1 -3 -1 -9q0 9 8 -87q1 -12 1 -31l-12 8l-97 -98l-102 61q-3 5 -35 27v-2q-8 4 -16 12q-100 58 -172 70l8 92l92 92v525q0 22 -8 32l-94 95l98 98l-10 10h2
q-21 31 -21 76q0 57 37 94l74 74q32 71 127 71q62 0 102.5 -37.5t40.5 -99.5q0 -83 -71 -121l-58 -57h138zM326 991q0 47 -32.5 77t-80.5 30q-47 0 -79 -30t-32 -77q0 -48 31.5 -77t79.5 -29t80.5 29.5t32.5 76.5zM360 782h-294q20 -20 49 -47q20 -20 20 -55v-533
q0 -31 -35 -63q-49 -45 -59 -45l-4 -47q43 -6 158 -70l34 -24q13 -9 17 -13l61 -37q-2 36 -8 109v20q0 17 -4 54q-2 18 -2 28v621q0 37 67 102z" />
    <glyph glyph-name="cent" unicode="&#xa2;" horiz-adv-x="798" 
d="M750 203q-54 -140 -144 -199l-59 -59q-90 -90 -228 -90h-26q-12 0 -25 2l-92 -95h-223l20 21q15 15 54 68q24 34 45 73q-30 18 -56 45q-106 111 -106 303q0 140 96 236l57 57q85 116 222 152l-27 51l98 98l-4 8q64 44 94 44h259l-93 -226q121 -47 121 -117q0 -30 -69 -79
l-64 -64q-33 -33 -83 -61q-19 -11 -40 -21l-90 -227q45 -17 82 -17q39 0 100 25v2q82 35 131 98zM719 207q-56 -70 -135 -103q-67 -28 -115 -28q-68 0 -121 28l189 478q28 -29 28 -68q0 -20 -10 -47q29 11 84 49q63 44 63 59q0 65 -114 95l-15 4l86 213h-213q-16 0 -53 -25
l25 -49l18 -27l2 -10q0 25 4 -69h-16q-160 0 -268 -84q-121 -94 -121 -248q0 -244 170 -340q-51 -103 -94 -146h149l41 107q51 -14 119 -14q213 0 297 225zM434 629q-4 -20 -8 -29l-160 -426q-57 76 -57 178q0 108 47 185q56 92 160 92h18zM299 502q-23 -4 -31 -8
q-28 -58 -28 -142v-10z" />
    <glyph glyph-name="sterling" unicode="&#xa3;" horiz-adv-x="929" 
d="M881 18q-19 -30 -43 -43l-84 -84q-18 -18 -49 -18h-699l-67 64l98 98l-6 6l41 22v429l-174 -5l47 113l12 10q6 13 6 27q4 41 35 119l88 88q12 45 33 74l84 83q4 11 14 23l80 80q80 80 221 80q92 0 159 -57t83 -148l-15 -4l-94 -94l-49 -15q-10 0 -61 -30q-11 -9 -35 -23
l2 2l-41 -24l-29 28l43 72q-18 35 -90 41q-6 -31 -6 -66v-125l320 -2l-84 -155h-11l-96 -97h-129l2 -372h10l52 -2l49 2l45 4q111 22 198 90l111 39l-14 -117q0 -20 41 -82zM424 1008zM852 33q-45 71 -45 100l8 70l-59 -21q-99 -76 -205 -94l-51 -4l-51 -2l-54 2l-39 2
l-2 530l246 -2l51 95l-297 2v155q0 89 47 150q33 43 74 43q119 0 137 -66l-45 -73q21 13 64 38q58 35 74 35l20 6q-10 62 -66 103q-69 51 -141 51q-131 0 -213 -82l-59 -59q-47 -65 -47 -150v-149q-8 5 -25 14q-43 16 -72 72q-4 -9 -11 -61q-6 -39 -25 -52l-29 -72l162 4
v-483q-11 -29 -35 -53l-82 -47l37 -35h688q27 0 45 33z" />
    <glyph glyph-name="currency" unicode="&#xa4;" horiz-adv-x="1006" 
d="M958 489h-24l-96 -96h-222l-127 127q-61 -20 -143 -20q-81 0 -137 18l-29 -29h-8l-96 -96h-215l96 96h-12q47 35 137 109q-62 68 -62 168q0 98 60 166l-205 209l98 98l-10 10h238q20 0 82 -28l-15 -60l-6 -14q6 -14 23 -35q75 29 164 29q44 0 90 -8l77 77l-2 11
q62 28 82 28h240l-217 -219q61 -72 61 -162q0 -106 -71 -178l10 -8q48 -48 239 -193zM862 520q-80 58 -164 142l-30 30q82 68 82 176q0 99 -72 164l184 187h-166q-8 0 -45 -17l8 -33l9 -16v-8q-11 -29 -50 -72q-71 37 -169 37q-99 0 -173 -35q-36 41 -47 70v8l9 16l8 33
q-37 17 -45 17h-164l180 -185q-70 -63 -70 -166q0 -108 84 -176l-32 -30q-30 -30 -88 -82q-41 -35 -74 -60h131l131 133q61 -26 150 -26q88 0 149 26l131 -133h133zM602 864q0 -67 -43 -116q-44 -52 -110 -52t-110 50.5t-44 117.5q0 69 43 117.5t111 48.5q66 0 111 -50
q42 -49 42 -116zM475 762q0 57 -36.5 99t-92.5 42q-3 0 -8 -1t-8 -1q-4 -10 -4 -18v-19q0 -55 34.5 -96t88.5 -41q14 0 22 2q4 16 4 33z" />
    <glyph glyph-name="yen" unicode="&#xa5;" horiz-adv-x="1348" 
d="M1300 1212q-100 -145 -227 -339q-85 -142 -282 -443l-7 -10h346q-17 -10 -49 -31l-77 -78q-17 -8 -23 -12q-12 -23 -12 -37h-13l-61 -61h235q-17 -10 -49 -31l-77 -78q-17 -8 -23 -12q-12 -23 -12 -37h-13l-96 -96h-373l-57 -92q-13 -19 -29 -45q13 -5 19 -11h4
q10 -5 31 -12l18 -6q54 -18 76 -94h-14l-97 -97l-405 -6l227 363h-207l-10 41l59 59q13 23 19 45l74 74h-142l-10 41l59 59q13 23 19 45l94 95q1 5 4 14h103l-246 469l2 2q-38 47 -82 113q-28 38 -83 115q-15 22 -28 38l99 96q-4 4 -9 13h453q21 0 86 -66q-80 -61 -80 -96
q0 -103 236 -522l86 125q136 198 147 264q-8 52 -162 151l97 97q-9 4 -13 8l146 30h307zM1274 1227h-297l-70 -15q117 -77 123 -139q-6 -68 -151 -278l-199 -289q-277 481 -277 598q0 45 68 98q-33 33 -43 33h-391q154 -220 164 -231l323 -615h-280q-17 -63 -76 -96h379
l-78 -123h-225q-17 -64 -76 -96h240l-228 -363l328 6q-6 27 -45 35q-20 6 -57 21q-9 6 -29 14q-8 6 -8 14q0 9 37 70l124 203h410q4 51 78 96h-426l76 123h272q4 51 78 96h-291l37 57q188 294 510 781z" />
    <glyph glyph-name="brokenbar" unicode="&#xa6;" horiz-adv-x="271" 
d="M223 756h-12l-96 -97h-205v678l96 97v12h217v-690zM223 -35h-12l-96 -96h-205v678l96 96v12h217v-690zM193 786v629h-156v-629h156zM193 -4v629h-156v-629h156z" />
    <glyph glyph-name="section" unicode="&#xa7;" horiz-adv-x="798" 
d="M750 1217l-54 -105q-10 -35 -10 -182l-16 -4l-72 -72q131 -70 131 -184q0 -144 -111 -226q111 -65 111 -184q0 -147 -133 -235l-51 -52q-25 -26 -60 -47q-117 -71 -256 -71q-120 0 -282 69q10 27 39 74l2 2q4 4 8 25l-2 14v35q0 25 16 41l84 84q17 41 99 57l-134 45
q-149 50 -149 191q0 114 74 190l36 37q-110 67 -110 184q0 113 70 184l59 60q30 53 94 92q100 61 258 61q168 0 359 -83zM502 891q-31 55 -68 104q-65 68 -160 68q-47 0 -92 -10q6 -63 121 -99zM707 1200q-160 70 -316 70q-147 0 -241 -58q-113 -70 -113 -206
q0 -127 143 -185q-143 -69 -143 -227q0 -123 141 -170l262 -88q144 -48 144 -117q0 -71 -68 -117q-61 -41 -131 -41q-178 0 -211 162q-53 -10 -53 -47v-33l2 -18q-6 -25 -19 -41q-6 -6 -22 -45q133 -57 250 -57q138 0 243 67q123 78 123 211q0 131 -143 180q143 74 143 230
q0 126 -143 172l-262 84q-141 45 -141 137q0 70 81 102q63 25 144 25q103 0 178 -76q41 -41 100 -168q0 139 13 176zM457 104v13q0 54 -127 94l-129 41q37 -160 184 -160q37 0 72 12zM584 629q0 -125 -146 -154l-58 10q-15 3 -38 7q-190 31 -190 155q0 60 53 98
q43 31 110 35q47 -9 140 -35q129 -48 129 -116zM457 512v14q0 56 -113 95q-45 12 -135 32q-10 -2 -27 -6q0 -96 164 -125q4 0 10.5 -1t10.5 -1q11 -2 34 -6q11 0 18 -3t19 -3q6 0 19 4z" />
    <glyph glyph-name="dieresis" unicode="&#xa8;" horiz-adv-x="609" 
d="M561 1190q0 -66 -53 -94l-80 -80q-31 -31 -102 -33q-111 -2 -127 92l-60 -59q-32 -32 -102 -33q-115 -2 -127 100q0 41 27 68l75 76q25 59 123 71q117 0 135 -100l31 31q25 59 123 69q121 0 137 -104v-4zM530 1190q-13 82 -104 78q-100 -4 -100 -80q10 -80 102 -78
q102 2 102 80zM242 1190q-13 78 -105 78q-100 -13 -100 -80q10 -80 102 -78q103 2 103 80z" />
    <glyph glyph-name="copyright" unicode="&#xa9;" horiz-adv-x="1115" 
d="M1067 614q0 -241 -166 -376l-11 -9q-5 -4 -9 -8l-52 -51q-159 -156 -395 -156q-235 0 -377 130q-147 135 -147 368q0 211 133 344l43 43q32 47 86 92q153 127 365 127q234 0 380 -134q150 -138 150 -370zM1036 614q0 221 -140 349q-136 124 -359 124q-204 0 -344 -118
q-156 -132 -156 -355q0 -222 140 -350q136 -123 360 -123q202 0 344 119q155 130 155 354zM938 614q0 -172 -115 -277q-112 -101 -286 -101q-178 0 -287 100q-115 105 -115 278q0 181 112 282q107 97 290 97q175 0 286 -101q115 -105 115 -278zM811 512q0 31 -4 59v-120
q4 28 4 61zM817 367l-10 -11q6 4 10 11zM856 899h-281q-143 0 -247 -68q-119 -78 -119 -219q0 -142 87 -222.5t230 -80.5q154 0 250 82v162q-54 -83 -96 -119q-64 -55 -143 -55q-98 0 -154 69q-51 64 -51 164q0 104 71 162q66 55 172 55q76 0 117 -22q35 -19 86 -82v88l6 21
l17 18zM793 629q-1 4 -5 12l-88 -88q-44 54 -122 129q-41 20 -105 20q-51 0 -96 -16q-15 -29 -15 -74q0 -90 45 -146t130 -56q51 0 96 26q21 31 65 94l80 80q4 7 15 19zM778 354q-1 -1 -4 -3t-4 -3l-37 -37q15 7 33 21q4 6 12 22zM295 848q-43 -12 -78 -33q-27 -45 -39 -90
l37 37q29 47 78 84h-2l1 1q1 1 3 1z" />
    <glyph glyph-name="ordfeminine" unicode="&#xaa;" horiz-adv-x="654" 
d="M606 723l-6 -57h-12l-96 -97h-162q-30 0 -58 41q-77 -49 -141 -49q-95 0 -151 43q-70 54 -70 146q0 102 57 159l68 68q33 59 106 88q-59 -2 -170 -31l-20 37l96 96l-2 7q119 106 272 106q72 0 168 -31q62 -35 62 -108v-363q18 -45 59 -55zM588 696q-45 13 -66 64
q-6 8 -6 12v369q0 57 -51 84q-78 24 -148 24q-145 0 -239 -86q110 29 174 29q86 0 145 -39q-22 -43 -72 -63.5t-155 -49.5q-133 -37 -133 -188q0 -80 59 -125q51 -39 137 -39q74 0 162 70q0 -8 -2 -15q-4 -14 10 -30.5t29 -16.5h156zM397 840q-71 -56 -131 -56
q-98 0 -98 105q0 69 43 98q3 3 104 41q47 18 82 55v-243zM270 815v113q-24 -17 -49 -25q-16 -8 -22 -10v-4q0 -74 67 -74h4z" />
    <glyph glyph-name="guillemotleft" unicode="&#xab;" horiz-adv-x="1088" 
d="M1040 0l-16 -4l-94 -94l-221 -54q-29 72 -82 132l-78 -78l-221 -54q-53 135 -205 238l-244 166l98 98l-10 6q162 52 264 136q24 35 43 104l91 90l6 19l268 36q-76 -235 -213 -356q111 43 184 104q29 48 45 107l90 90l7 19l268 36q-88 -260 -238 -376l-24 -25
q213 -166 282 -340zM999 23q-59 151 -299 323q189 96 275 356l-197 -26q-61 -234 -360 -330l203 -137q157 -106 204 -229zM618 23q-59 151 -299 323q189 96 275 356l-197 -26q-61 -234 -360 -330l203 -137q157 -106 204 -229z" />
    <glyph glyph-name="logicalnot" unicode="&#xac;" horiz-adv-x="1363" 
d="M1315 326h-12l-97 -97h-213v351h-1083v200l96 97v12h1309v-563zM1284 356v502h-1247v-151h1083v-351h164z" />
    <glyph glyph-name="minus" unicode="&#xad;" horiz-adv-x="804" 
d="M756 530q-64 -38 -68 -102h-12l-96 -96h-736l97 96h-19q20 10 66 41q2 3 2 8l92 92q1 3 3 8.5t3 8.5h651zM735 555h-622q-15 -61 -76 -96h622q5 51 76 96z" />
    <glyph glyph-name="minus" unicode="&#x2212;" horiz-adv-x="804" 
d="M756 530q-64 -38 -68 -102h-12l-96 -96h-736l97 96h-19q20 10 66 41q2 3 2 8l92 92q1 3 3 8.5t3 8.5h651zM735 555h-622q-15 -61 -76 -96h622q5 51 76 96z" />
    <glyph glyph-name="registered" unicode="&#xae;" horiz-adv-x="1115" 
d="M1067 774q0 -248 -166 -377l-31 -24l-45 -45q-9 -10 -30 -29q-151 -125 -361 -125q-233 0 -376 131q-148 136 -148 367q0 213 129 342l53 53q32 43 80 84q149 127 365 127q232 0 379 -135q151 -139 151 -369zM1036 774q0 218 -142 348q-137 125 -357 125
q-202 0 -344 -119q-156 -131 -156 -354q0 -220 141 -349q136 -124 359 -124q204 0 344 119q155 131 155 354zM635 967q0 -131 -209 -183v193q0 29 47 47q37 10 74 10q88 0 88 -67zM938 774q0 -170 -115 -274q-60 51 -170 162q-71 69 -125 94q230 86 230 219q0 58 -58 92
q-46 27 -110 27q-98 0 -187 -60l-12 17q-39 32 -106 30q102 72 252 72q173 0 285 -102q116 -106 116 -277zM780 465q-100 -70 -243 -70q-140 0 -246 70h168q-33 35 -33 86v174q42 -10 80 -51q85 -92 106 -113q70 -70 127 -96h41zM315 504q-4 -12 -28 -35q-152 102 -152 305
q0 164 115 279l4 6v-2q21 0 43 -36.5t22 -62.5zM811 672q0 116 -57 198q-27 -41 -84 -79l-56 -56q20 -18 62 -53q28 -40 121 -121q14 63 14 111zM508 864q0 37 -51 43v-82q26 9 49 19q0 3 1 10t1 10zM193 633v223q0 8 -11 29q-16 -46 -16 -111q0 -82 27 -141zM508 426
q-4 1 -4 4l-4 -4h8z" />
    <glyph glyph-name="macron" unicode="&#xaf;" horiz-adv-x="1011" 
d="M963 788l-17 -4l-92 -92l-322 -65h-602l-4 49l97 96v12l331 66h604zM948 819h-588l-323 -65h594z" />
    <glyph glyph-name="macron" unicode="&#x2c9;" horiz-adv-x="1011" 
d="M963 788l-17 -4l-92 -92l-322 -65h-602l-4 49l97 96v12l331 66h604zM948 819h-588l-323 -65h594z" />
    <glyph glyph-name="degree" unicode="&#xb0;" horiz-adv-x="443" 
d="M395 1042q0 -84 -86 -141l-67 -67q-11 -11 -17 -15l2 2q-57 -45 -125 -45q-69 0 -127 41q-65 46 -65 123q0 54 37 92l71 72q13 29 39 49h-2q80 49 154 49q69 0 123 -41q63 -48 63 -119zM365 1042q0 57 -51 95q-46 34 -105 34q-65 0 -114 -31q-58 -37 -58 -98
q0 -62 55 -102q49 -37 113 -37q59 0 109.5 40t50.5 99zM49 1135q-3 -2 -8 -9zM266 1022q-10 -49 -63 -49q-18 0 -39 26q-29 36 -29 62q0 16 18 28.5t35 12.5q29 0 52.5 -25t25.5 -55z" />
    <glyph glyph-name="plusminus" unicode="&#xb1;" horiz-adv-x="871" 
d="M823 737l-194 -188h-6l-99 -96h-41v-117l-20 -10l-49 -50h334l16 -55q-64 -39 -68 -115h-12l-96 -96h-738l97 96h-19q19 11 34 21l30 20q6 9 6 21l94 94q1 5 4 14h115v177h-338l96 96h-8l195 188h55v76l96 96v11l176 106v-289h340zM748 707h-295v264l-115 -68v-196h-170
l-131 -127h301v-281l115 57v224h163zM743 246h-622q-19 -74 -78 -109h625q4 64 75 109z" />
    <glyph glyph-name="twosuperior" unicode="&#xb2;" horiz-adv-x="750" 
d="M702 676l-106 -252h-10l-97 -96l-540 -2v77l96 97v12q25 0 109 72q6 4 24 18q13 13 41 38t41 38l2 2q76 94 76 162q0 107 -92 133q6 -39 35 -107l-17 2l-96 -96l-90 10l-47 -2l-66 -16q0 78 21 141h2q19 68 53 101l68 67q12 21 41 47q96 70 217 70q101 0 164 -44
q73 -51 73 -147q0 -194 -278 -432h129q47 0 84 19q28 18 111 59q24 12 52 29zM641 608q-42 -21 -90 -49q-39 -20 -96 -20h-215q333 254 333 462q0 160 -206 160q-111 0 -199 -63q-35 -25 -57 -97q-19 -63 -19 -100l35 8l55 2l51 -6q-18 45 -18 90q0 37 16 74q-4 17 29 29
q28 10 45 10q74 0 117 -45t43 -119q0 -113 -184 -287q-41 -39 -107 -96q-92 -80 -98 -80v-28l499 2zM199 608l-23 -22q9 7 23 22z" />
    <glyph glyph-name="threesuperior" unicode="&#xb3;" horiz-adv-x="656" 
d="M608 649q0 -115 -92 -180q-4 -2 -8 -6l-68 -68q-8 -8 -30 -24q-78 -56 -185 -56q-102 0 -196 43l-140 103l99 98l-13 8q166 17 291 92v-90q0 -49 47 -49h4q5 17 5 27q0 87 -62 129q-49 33 -166 45l-4 47l96 96v10l45 15q26 4 78 16q-6 31 -37 56q-16 8 -26 12q2 -2 2 -3
t2 -3l-17 2l-96 -97l-102 17h-10q-7 0 -88 12q30 49 67 86l43 43q113 160 295 160q80 0 147 -31q95 -44 95 -131q0 -98 -80 -156l-8 -4l-9 -8q121 -84 121 -211zM578 649q0 137 -162 217q24 13 73 35q64 45 64 127q0 66 -76 102q-62 29 -135 29q-182 0 -264 -137
q39 -6 49 -6h14l64 -10q-4 12 -4 18q0 31 29.5 59.5t60.5 28.5q55 0 98 -29q47 -32 47 -86q0 -62 -76 -102q-30 -16 -153 -47q242 -25 242 -199q0 -78 -54 -127q-37 -33 -82 -33q-77 0 -77 80v35q-84 -51 -177 -59l86 -64q84 -39 183 -39q98 0 170 52q80 58 80 155z" />
    <glyph glyph-name="acute" unicode="&#xb4;" horiz-adv-x="507" 
d="M459 1389l-15 -31q-3 -3 -9 -5t-9 -5l-88 -88q-17 -11 -53 -31l-22 -30q-7 -9 -21 -34q-9 -16 -9 -20l29 -58h-16l-96 -96h-269q106 130 156 244l53 121l90 90l8 18h254zM324 1280q-2 -1 -9 -8zM428 1382l-12 52h-207l-47 -107q-55 -126 -125 -209h176l-10 25q0 17 14 39
q47 75 89 115t122 85z" />
    <glyph glyph-name="mu1" unicode="&#xb5;" horiz-adv-x="888" 
d="M840 721l-33 -103q-59 -55 -62 -67v-8q76 -160 76 -242q0 -104 -28 -172q-60 -94 -129 -133l-48 -49q-19 -20 -32 -27l2 -2q35 -53 102 -53q45 0 127 94v-57q0 -7 1 -20t1 -19q0 -49 -61 -84l-72 -72q-49 -49 -125 -49q-197 0 -268 84v-162h-12l-97 -96h-309l51 51
q25 25 41 45h-4l8 8q8 11 8 21v878q0 23 -14 39l-90 86l98 99l-10 10h418l-14 -100l-31 -19l-43 -43v-387q0 -7 53 -39q36 -22 74 -22q39 0 63 8q8 32 8 78q0 163 -81 313l-2 102l96 97v12h338zM799 690h-267l3 -69q81 -150 81 -322q0 -219 -198 -219q-47 0 -107 37
q-51 32 -51 55v379q0 29 19 53l57 37l8 49h-307l47 -45q20 -19 20 -55v-879q0 -37 -67 -100h223v444q76 -47 166 -61q-41 -35 -41 -72q0 -14 4 -26q36 -111 273 -111q34 0 73 18q51 24 51 59q0 6 -2 13q-34 -41 -96 -41q-87 0 -127 68q-10 17 -10 28q0 35 57 72
q88 33 158 145q25 68 25 154q0 70 -74 229l-2 19q0 24 65 86zM590 -41q-4 -1 -4 -4z" />
    <glyph glyph-name="mu1" unicode="&#x3bc;" horiz-adv-x="888" 
d="M840 721l-33 -103q-59 -55 -62 -67v-8q76 -160 76 -242q0 -104 -28 -172q-60 -94 -129 -133l-48 -49q-19 -20 -32 -27l2 -2q35 -53 102 -53q45 0 127 94v-57q0 -7 1 -20t1 -19q0 -49 -61 -84l-72 -72q-49 -49 -125 -49q-197 0 -268 84v-162h-12l-97 -96h-309l51 51
q25 25 41 45h-4l8 8q8 11 8 21v878q0 23 -14 39l-90 86l98 99l-10 10h418l-14 -100l-31 -19l-43 -43v-387q0 -7 53 -39q36 -22 74 -22q39 0 63 8q8 32 8 78q0 163 -81 313l-2 102l96 97v12h338zM799 690h-267l3 -69q81 -150 81 -322q0 -219 -198 -219q-47 0 -107 37
q-51 32 -51 55v379q0 29 19 53l57 37l8 49h-307l47 -45q20 -19 20 -55v-879q0 -37 -67 -100h223v444q76 -47 166 -61q-41 -35 -41 -72q0 -14 4 -26q36 -111 273 -111q34 0 73 18q51 24 51 59q0 6 -2 13q-34 -41 -96 -41q-87 0 -127 68q-10 17 -10 28q0 35 57 72
q88 33 158 145q25 68 25 154q0 70 -74 229l-2 19q0 24 65 86zM590 -41q-4 -1 -4 -4z" />
    <glyph glyph-name="paragraph" unicode="&#xb6;" horiz-adv-x="1168" 
d="M1120 1085l-30 -47q-7 0 -9 2l-96 -96h-6l6 -1024q9 -36 84 -131h-18l-97 -96h-553q71 91 78 112q8 25 8 84v502q-36 6 -165 64q-412 183 -412 458q0 105 67 172l64 64q97 135 289 135q157 0 313 -106l4 6q23 22 70 59h-2q27 17 106 17h23q8 0 16 -3q4 0 5.5 -1t4.5 -1
q51 -6 138 -65q75 -50 112 -105zM1094 1071q-31 43 -104 94q-77 54 -124 60q-30 4 -41 4h-4q-69 0 -90 -12q-12 -9 -57 -50l-21 -32q-149 118 -323 118q-120 0 -201 -57q-92 -64 -92 -180q0 -261 397 -436q145 -64 180 -64v-524q0 -62 -10.5 -92t-48.5 -80h248q-6 6 -10 6
q-5 0 -12 -4t-9 -4q-4 0 -6 2h240q-43 55 -52 90l-6 1100q0 73 74 73q25 0 72 -12zM825 -8q0 -76 -8 -94q-8 -27 -51 -78q-13 37 -21 80l-8 1083q-1 78 43 131q6 6 11 6q34 0 34 -137v-991z" />
    <glyph glyph-name="periodcentered" unicode="&#xb7;" horiz-adv-x="320" 
d="M272 512q0 -72 -57 -96l-78 -78q-31 -31 -100 -31q-51 0 -82 23q-45 33 -45 80q0 44 27 71l77 78q25 62 125 62q52 0 91 -28q42 -31 42 -81zM242 512q0 78 -103 78q-102 0 -102 -78q0 -37 29.5 -57.5t72.5 -20.5q103 0 103 78z" />
    <glyph glyph-name="periodcentered" unicode="&#x2219;" horiz-adv-x="320" 
d="M272 512q0 -72 -57 -96l-78 -78q-31 -31 -100 -31q-51 0 -82 23q-45 33 -45 80q0 44 27 71l77 78q25 62 125 62q52 0 91 -28q42 -31 42 -81zM242 512q0 78 -103 78q-102 0 -102 -78q0 -37 29.5 -57.5t72.5 -20.5q103 0 103 78z" />
    <glyph glyph-name="cedilla" unicode="&#xb8;" horiz-adv-x="515" 
d="M467 -203q0 -10 -2 -16h-4v-4q-21 -58 -72 -86l-72 -74q-68 -70 -260 -70q-47 0 -86 23l2 2q-65 31 -65 80v14q0 9 1 25.5t1 25.5v15l94 94v10q-4 4 -6 4q0 62 41 103l84 84q19 34 37 34h188v-86q16 -10 43 -41q76 -89 76 -120v-17zM436 -186q0 23 -67 100q-42 49 -60 49
q-10 0 -10 -14q0 6 7 22.5t11 16.5v43h-157q-11 0 -24 -31q-11 -26 -11 -43l19 -13q11 -7 53 -38q73 -53 73 -84q0 -16 -10 -31q-43 -65 -129 -65q-59 0 -94 41q-1 -6 -1 -12q0 -34 50 -60q41 -21 74 -21q236 0 272 113q4 12 4 27zM109 -238l-14 10q-7 5 -15 11
q-11 8 -35 27q39 -39 64 -48z" />
    <glyph glyph-name="onesuperior" unicode="&#xb9;" horiz-adv-x="456" 
d="M408 432h-21l-96 -96h-293l6 6q49 59 53 78l2 43v469l-8 2h-8l-154 -19l97 97l-15 -2l119 90l8 4l-2 -2q3 3 25 14l8 4l-2 -2q44 24 130 83q38 32 73 69q-2 -41 -2 -51v-35q0 -10 -2 -13q2 -14 2 -30v-602q0 -27 80 -107zM336 463q-39 39 -39 76v565q0 63 -2 72l4 16
q-30 -32 -106 -72q-29 -15 -87 -47l-26 -20l65 8h13l24 -4h4l-2 -541q-6 -20 -32 -53h184z" />
    <glyph glyph-name="ordmasculine" unicode="&#xba;" horiz-adv-x="529" 
d="M481 1165q0 -102 -71 -164q-17 -12 -29 -20l-78 -78q-63 -51 -162 -51q-94 0 -164 53q-67 62 -67 158q0 90 61 151l62 62q14 27 43 51q69 57 168 57q98 0 167.5 -58t69.5 -161zM451 1165q0 87 -59.5 138t-147.5 51q-92 0 -148 -49q-59 -52 -59 -140q0 -89 59 -139
q56 -47 148 -47q91 0 147 46q60 50 60 140zM55 1298zM340 1165q0 -49 -25 -84q-29 -41 -71 -41q-97 0 -97 125q0 129 97 129q96 0 96 -129zM213 1077q-6 64 -35 80q0 -61 35 -80z" />
    <glyph glyph-name="guillemotright" unicode="&#xbb;" horiz-adv-x="1068" 
d="M1020 365l-6 -50q-3 -1 -8.5 -3t-8.5 -3l-92 -92q-100 -34 -164 -76q-53 -65 -75 -155l-15 -2l-94 -95l-250 -34q69 214 178 321l58 57q3 3 8 11l-27 -27q-94 -31 -164 -76q-53 -63 -77 -155l-15 -2l-94 -95l-248 -34q69 212 180 321l56 55q4 7 14 17q-211 164 -274 336
l98 96l-2 4q0 3 -2 6l233 53q29 -71 82 -131l68 68q0 4 -1 5.5t-1 4.5l233 53q58 -139 205 -239zM999 342l-202 137q-156 106 -205 228l-174 -39q55 -148 301 -326q-193 -94 -275 -354l195 26q61 232 360 328zM618 342l-202 137q-156 106 -205 228l-174 -39
q55 -150 299 -326q-191 -94 -273 -354l193 26q63 232 362 328z" />
    <glyph glyph-name="onequarter" unicode="&#xbc;" horiz-adv-x="1561" 
d="M1513 416l-102 -129h-8l-60 -60v-69q0 -8 3 -17q0 -10 73 -90h-20l-96 -96h-297q29 32 65 80v2l4 45v108h-387q38 46 107 142q53 87 53 182q0 35 -17 59l-116 54l4 4h-17l-411 -707h-10l-97 -96h-241l12 12q40 40 99 119q46 62 79 117l586 983q61 103 67 158l-2 6l-14 22
l-37 72l96 96l-2 8q76 43 95 43h266l-469 -805l67 68h-18q24 15 88 47l2 2q33 23 40 26q1 -1 -9 -14q74 31 119 31q77 -45 84 -182l83 16q31 6 48 15l147 100l-8 -121q-19 -65 -19 -88v-143h170zM373 502h-21l-96 -96l-289 2q22 27 56 77v2l4 45v469l-9 3h-10l-153 -19
l96 96l-14 -2l116 88q17 13 66 37q2 1 4.5 1.5t7 2.5t12.5 6q80 46 174 140q-7 -38 -28 -105q4 -16 4 -35v-606q0 -26 80 -106zM1452 385h-139v174q0 33 18 98l4 50l-100 -68q-43 -21 -111 -29q16 -14 50 -39q28 -22 28 -53v-133h-215q42 76 70 190q4 16 4 43q0 134 -64 170
q-65 0 -116 -30h2q-9 -8 -25 -21l88 -39q29 -28 29 -82q0 -99 -57 -194q-10 -16 -78 -105h362v-133l-4 -49q-1 -17 -35 -53h187q-35 39 -35 51q-2 8 -2 25v159h86zM1075 416q0 23 -18 35l-6 4q-6 -13 -17 -39h41zM1135 1434h-213q-15 0 -54 -23l25 -49l18 -27l2 -12
q-4 -61 -71 -174l-586 -983q-75 -126 -154 -211h170zM301 532q-39 39 -39 76v566q0 65 -2 71q4 4 6 17q-27 -28 -106 -72q-34 -16 -88 -47l-27 -21l66 8h14l25 -4h4l-4 -540q-3 -17 -33 -54h184z" />
    <glyph glyph-name="onehalf" unicode="&#xbd;" horiz-adv-x="1551" 
d="M1503 324l-110 -261h-11l-96 -96l-543 -2v80l97 96v13q25 0 110 71l75 66q19 16 32 28l8 9q70 79 70 153q0 107 -88 133q6 -34 28 -104l-16 2l-96 -96l-89 10l-47 -4l-65 -16q0 78 20 141.5t54 97.5l69 70q19 30 41 47q94 72 217 72q100 0 164 -45q74 -52 74 -148
q0 -195 -279 -432h127q43 0 84 20q13 4 170 95zM1188 1464l-895 -1540h-10l-97 -96h-243l6 6q39 39 100 119q48 63 84 123l588 983q56 94 65 158l-2 10l-18 28l-29 62l99 98l-5 8q64 41 91 41h266zM375 502h-21l-96 -96l-289 2q22 27 56 77v2l4 48v466l-9 3h-10l-153 -19
l96 96l-14 -2l116 88q17 13 66 37q2 1 4.5 1.5t7 2.5t12.5 6q80 46 174 140q-7 -38 -28 -105q4 -16 4 -35v-606q0 -26 80 -106zM1438 250q-78 -46 -92 -49q-43 -23 -97 -23h-213q334 254 334 463q0 82 -65 125q-56 37 -142 37q-107 0 -198 -66q-35 -26 -58 -96
q-18 -56 -18 -100l35 8l55 4l51 -6q-16 49 -16 88q0 45 14 74q-4 16 29 28q28 11 47 11q73 0 115.5 -45.5t42.5 -118.5q0 -110 -185 -285q-53 -50 -106 -96q-92 -80 -101 -80v-31l502 2zM1135 1434h-213q-17 0 -52 -23l25 -49l16 -27l2 -12q-4 -66 -69 -174l-588 -983
q-79 -132 -154 -211h172zM303 532q-39 39 -39 76v566q0 65 -2 71q4 4 6 17q-27 -28 -106 -72q-34 -16 -88 -47l-27 -21l66 8h14l25 -4h4l-4 -540q-1 -16 -33 -54h184z" />
    <glyph glyph-name="threequarters" unicode="&#xbe;" horiz-adv-x="1774" 
d="M1726 416l-102 -129h-8l-60 -60v-69q0 -8 3 -17q0 -10 73 -90h-20l-96 -96h-297l6 6q44 44 59 74v2l4 45v108h-387q38 46 107 142q53 87 53 182q0 35 -17 59l-116 54l4 4h-19l-409 -707h-10l-97 -96h-243q104 104 190 248l588 983q56 94 65 158l-2 10l-18 28l-29 62
l99 98l-5 8q64 41 91 41h266l-469 -807l69 70h-18q29 15 86 45q14 14 25 16v-4q82 35 127 35q77 -47 84 -184q83 11 124 29v2l158 104l-10 -123q-19 -65 -19 -88v-143h170zM596 649q0 -110 -92 -178q-5 -3 -15 -10l-61 -62q-12 -12 -31 -26q-80 -58 -184 -58q-102 0 -197 43
l-135 103l99 96l-13 10q160 19 287 92v-90q0 -49 47 -49h4q4 17 4 27q0 88 -63 131q-45 31 -164 43l-4 47l96 96v10l45 15q26 4 78 16q-6 31 -37 56l-24 12q0 -4 2 -6l-17 2l-96 -97l-102 17h-9q-6 0 -88 12q31 49 68 86l43 43q113 160 295 160q80 0 147 -31q94 -44 94 -131
q0 -108 -84 -156q-4 -2 -8 -6l-6 -6q121 -86 121 -211zM1665 385h-139v174q0 33 18 98l4 50l-102 -68q-39 -21 -109 -29q15 -14 46.5 -37.5t31.5 -54.5v-133h-215q44 77 68 190q4 19 4 43q0 134 -62 170q-65 0 -116 -30h2q-6 -2 -25 -21l88 -39q29 -28 29 -82
q0 -97 -58 -194q-13 -22 -77 -105h362v-133l-4 -49q-1 -17 -35 -53h187q-35 39 -35 51q-2 8 -2 25v159h86zM1288 416q0 20 -14 28l-3 3q-3 2 -7 6q-6 -12 -17 -37h41zM1346 1434h-213q-17 0 -52 -23l25 -49l16 -27l2 -12q-4 -66 -69 -174l-588 -983q-79 -132 -154 -211h172z
M565 649q0 137 -162 217q56 23 74 35q66 46 66 127q0 67 -76 102q-62 29 -135 29q-182 0 -264 -137q38 -6 49 -6h12l64 -10q-3 6 -3 18q0 32 28.5 60t60.5 28q55 0 98 -29q47 -32 47 -86q0 -62 -76 -102q-30 -16 -153 -47q114 -12 167 -47q74 -49 74 -152q0 -83 -51 -127
q-38 -33 -84 -33q-78 0 -78 80v35q-86 -51 -174 -59l84 -64q84 -39 182 -39q97 0 170 54q80 59 80 153z" />
    <glyph glyph-name="questiondown" unicode="&#xbf;" horiz-adv-x="843" 
d="M795 51q0 -121 -121 -198l-51 -52q-30 -31 -66 -51q-111 -63 -227 -63q-420 0 -420 284q0 135 84 242l6 6l18 21l56 55l18 24q15 20 57 57q33 30 78 60q4 26 4 39v14q-4 37 -36 148l45 45q-47 35 -47 102q0 59 36 95l74 73q33 72 127 72q62 0 101.5 -37.5t39.5 -99.5
q0 -88 -69 -121l-19 -18h135q-73 -80 -73 -117q0 -12 4 -35q5 -27 6 -35q2 -21 2 -26q0 -66 -61 -105q-4 -4 -13 -8l-67 -68q-10 -10 -27 -20q-25 -17 -74 -51q-65 -84 -65 -209q0 -88 45 -129q37 -21 121 -21q26 0 53 10q12 33 12 78q0 50 -47 79q-18 10 -92 36l6 41l94 94
l2 14q23 0 50 5q10 2 16 2h12q115 0 187 -54q86 -64 86 -178zM541 887q0 47 -32 76.5t-79 29.5t-79 -29.5t-32 -76.5t32 -77t79 -30t79 30t32 77zM764 51q0 100 -73 154q-65 47 -169 47q-27 0 -59 -4q83 -29 108 -49q37 -29 37 -84q0 -92 -51 -154q-55 -67 -141 -67
q-108 0 -150 34q-47 38 -47 146q0 131 74 227q57 74 186 156q47 30 47 78q0 16 -6 48t-6 48q0 47 35 86h-80q-9 0 -24.5 -1t-22.5 -1h-92q12 -42 28 -121q3 -31 -6 -92q-3 -23 -86 -78q-108 -72 -151 -125q-78 -96 -78 -225q0 -260 395 -260q116 0 215 59q117 70 117 178z
" />
    <glyph glyph-name="Agrave" unicode="&#xc0;" horiz-adv-x="1527" 
d="M1479 23l-13 -54h-12l-96 -96h-365q-38 125 -112 277l-103 212q-131 -33 -342 -176q-55 -37 -84 -59q-51 -59 -51 -107q0 -11 14 -51h-14l-96 -96h-348l96 96h-12q14 8 28 23q83 113 209 358q149 290 303 600v11q0 47 -53 86q-22 12 -35 22q-36 23 -84 64l97 96l-11 10
l223 16q-1 3 -4 11q-30 48 -57 82q-14 17 -29 32q-32 32 -133 88l23 88l94 95l4 14h252l53 -125q43 -101 164 -252h-18l-97 -96h-57q76 -144 209.5 -448t208.5 -453q51 -102 99.5 -161.5t148.5 -106.5zM920 1319q-79 95 -127 209l-45 106h-207l-15 -53q86 -46 121 -82
q39 -40 90 -117q17 -26 17 -39l-11 -24h177zM1450 0q-85 40 -141 109q-53 65 -107 170q-70 137 -209 454q-126 288 -213 455q-25 48 -110 41l-195 -15q25 -14 70 -43q63 -47 63 -108q0 -14 -2 -21q-145 -291 -303 -600q-202 -396 -266 -442h237q-4 12 -4 20q0 117 254 289
q233 158 371 185l111 -232q78 -163 108 -262h336zM866 549l-182 -64q-70 -25 -86 -32q-190 -78 -252 -152l326 621zM696 520l-100 189l-158 -301q64 37 148 73q37 13 110 39z" />
    <glyph glyph-name="Aacute" unicode="&#xc1;" horiz-adv-x="1527" 
d="M1479 23l-13 -54h-12l-96 -96h-365q-38 125 -112 277l-103 212q-131 -33 -342 -176q-55 -37 -84 -59q-51 -59 -51 -107q0 -11 14 -51h-14l-96 -96h-348l96 96h-12q14 8 28 23q83 113 209 358q149 290 303 600v11q0 49 -53 88q-18 7 -35 20q-29 17 -84 64l72 71
q12 17 22 27l-8 8h15q75 98 118 197l52 120l90 91l8 18h252l20 -78l-14 -31q-12 -8 -18 -10l-89 -88q-26 -13 -51 -28q-18 -27 -55 -82v-2h2l18 -58h-14l-29 -28q81 -7 109 -58q66 -120 213 -457q126 -288 209 -454q51 -102 99.5 -161.5t148.5 -106.5zM920 1581l-15 53h-207
l-45 -106q-48 -114 -127 -209h176l-10 24q0 13 17 39q51 77 90 117q35 36 121 82zM1450 0q-85 40 -141 109q-53 65 -107 170q-70 137 -209 454q-126 288 -213 455q-25 48 -110 41l-195 -15q25 -14 70 -43q63 -47 63 -108q0 -14 -2 -21q-145 -291 -303 -600
q-202 -396 -266 -442h237q-4 12 -4 20q0 117 254 289q233 158 371 185l111 -232q78 -163 108 -262h336zM866 549l-182 -64q-70 -25 -86 -32q-190 -78 -252 -152l326 621zM696 520l-100 189l-158 -301q64 37 148 73q37 13 110 39z" />
    <glyph glyph-name="Acircumflex" unicode="&#xc2;" horiz-adv-x="1527" 
d="M1479 23l-13 -54h-12l-96 -96h-365q-38 125 -112 277l-103 212q-131 -33 -342 -176q-55 -37 -84 -59q-51 -59 -51 -107q0 -11 14 -51h-14l-96 -96h-348l96 96h-12q14 8 28 23q83 113 209 358q149 290 303 600v11q0 49 -53 88q-18 7 -35 20q-29 17 -84 64l51 51h-81l96 96
h-10q8 5 81 67q25 21 54 46q19 15 55 47l20 20q35 35 82 103l78 77q9 11 25 35q16 -19 46 -58q8 -11 11 -11l17 -17q26 -28 90 -96q80 -84 168 -213h-17l-96 -96h-160q66 -126 203 -439q128 -292 209 -454q51 -102 99.5 -161.5t148.5 -106.5zM1034 1311q-48 72 -133 162
q-46 51 -141 151q-24 -32 -78 -92q-18 -17 -66 -78q-96 -89 -165 -143h223l18 -6l-2 20l-2 10l-2 15q-2 15 -4 24q0 35 86 125l76 -94q28 -35 37 -45q-15 -25 -21 -27l-26 -22h200zM743 1264q-5 5 -14 16q-4 1 -4 4l2 -22l-12 2l-6 -7q18 0 26 -2zM1450 0q-85 40 -141 109
q-53 65 -107 170q-70 137 -209 454q-126 288 -213 455q-25 48 -110 41l-195 -15q25 -14 70 -43q63 -47 63 -108q0 -14 -2 -21q-145 -291 -303 -600q-202 -396 -266 -442h237q-4 12 -4 20q0 117 254 289q233 158 371 185l111 -232q78 -163 108 -262h336zM866 549l-182 -64
q-70 -25 -86 -32q-190 -78 -252 -152l326 621zM696 520l-100 189l-158 -301q64 37 148 73q37 13 110 39z" />
    <glyph glyph-name="Atilde" unicode="&#xc3;" horiz-adv-x="1527" 
d="M1479 23l-13 -54h-12l-96 -96h-365q-38 125 -112 277l-103 212q-131 -33 -342 -176q-55 -37 -84 -59q-51 -59 -51 -107q0 -11 14 -51h-14l-96 -96h-348l96 96h-12q14 8 28 23q83 113 209 358q149 290 303 600v11q0 49 -53 88q-18 8 -31 18h-2h-2v2q-26 14 -84 64l97 96
l-11 10l256 18l-77 35q-41 17 -72 20q-13 1 -25 1q-25 0 -53 -4l-219 -52l92 93l-10 -2q97 95 101 99q68 63 110 87v-2q59 33 125 33q35 0 55 -4l59 -19l111 -49h4q39 -8 90 -8h19q20 6 126 39l33 -47q-35 -36 -108 -101l-2 -2q-80 -80 -121 -104q-56 -33 -109 -35
q15 -12 29 -33q76 -144 213 -457q126 -288 209 -454q51 -102 99.5 -161.5t148.5 -106.5zM1094 1493q-125 -39 -134 -39.5t-21 -0.5q-43 0 -99 11l-109 47l-65 19q-85 14 -162 -31q-41 -23 -113 -94l129 31q34 4 60 4q30 0 51 -4q30 -6 137 -54l63 -16q20 -5 40 -5
q52 0 108 32q49 28 115 100zM1450 0q-85 40 -141 109q-53 65 -107 170q-70 137 -209 454q-126 288 -213 455q-25 48 -110 41l-195 -15q25 -14 70 -43q63 -47 63 -108q0 -14 -2 -21q-145 -291 -303 -600q-202 -396 -266 -442h237q-4 12 -4 20q0 117 254 289q233 158 371 185
l111 -232q78 -163 108 -262h336zM866 549l-182 -64q-70 -25 -86 -32q-190 -78 -252 -152l326 621zM696 520l-100 189l-158 -301q64 37 148 73q37 13 110 39z" />
    <glyph glyph-name="Adieresis" unicode="&#xc4;" horiz-adv-x="1527" 
d="M1479 23l-13 -54h-12l-96 -96h-365q-38 125 -112 277l-103 212q-131 -33 -342 -176q-55 -37 -84 -59q-51 -59 -51 -107q0 -11 14 -51h-14l-96 -96h-348l96 96h-12q14 8 28 23q83 113 209 358q149 290 303 600v11q0 49 -53 88q-18 7 -35 20q-29 17 -84 64l97 96l-11 10
l33 2q-53 23 -59 90q0 42 24 66l78 78q25 59 125 69q117 0 135 -98l29 29q24 59 125 69q122 0 137 -102v-4q0 -66 -53 -95l-80 -79q-33 -33 -103 -33h-2q17 -13 25 -29q73 -136 213 -457q126 -288 209 -454q51 -102 99.5 -161.5t148.5 -106.5zM991 1438q-12 75 -104 75
q-103 -10 -103 -77q11 -81 105 -78q102 3 102 80zM702 1438q-12 75 -104 75q-102 -10 -102 -77q10 -81 104 -78q102 3 102 80zM690 1260q-26 22 -33 61l-57 -57q-5 -5 -12 -11l80 7h22zM1450 0q-85 40 -141 109q-53 65 -107 170q-70 137 -209 454q-126 288 -213 455
q-25 48 -110 41l-195 -15q25 -14 70 -43q63 -47 63 -108q0 -14 -2 -21q-145 -291 -303 -600q-202 -396 -266 -442h237q-4 12 -4 20q0 117 254 289q233 158 371 185l111 -232q78 -163 108 -262h336zM866 549l-182 -64q-70 -25 -86 -32q-190 -78 -252 -152l326 621zM696 520
l-100 189l-158 -301q64 37 148 73q37 13 110 39z" />
    <glyph glyph-name="Aring" unicode="&#xc5;" horiz-adv-x="1527" 
d="M1479 23l-13 -54h-12l-96 -96h-365q-38 125 -112 277l-103 212q-131 -33 -342 -176q-55 -37 -84 -59q-51 -59 -51 -107q0 -11 14 -51h-14l-96 -96h-348l96 96h-12q14 8 28 23q83 113 209 358q149 290 303 600v11q0 47 -53 86q-22 12 -35 22q-36 23 -84 64l97 96l-11 10
l35 2q-20 47 -20 96q0 94 53 146l72 71q20 31 40 48q67 57 168 57q104 0 169 -57q69 -60 69 -162t-72 -162l-28 -21l-66 -65q64 -121 207 -447q134 -305 209 -454q51 -102 99.5 -161.5t148.5 -106.5zM950 1440q0 88 -61 139q-57 49 -146 49q-90 0 -146 -48q-60 -51 -60 -140
q0 -85 61 -138q58 -49 145 -49q90 0 148.5 47.5t58.5 139.5zM1450 0q-85 40 -141 109q-53 65 -107 170q-70 137 -209 454q-126 288 -213 455q-25 48 -110 41l-195 -15q25 -14 70 -43q63 -47 63 -108q0 -14 -2 -21q-145 -291 -303 -600q-202 -396 -266 -442h237q-4 12 -4 20
q0 117 254 289q233 158 371 185l111 -232q78 -163 108 -262h336zM840 1440q0 -50 -25 -84q-30 -41 -72 -41q-96 0 -96 125q0 129 96 129q97 0 97 -129zM866 549l-182 -64q-70 -25 -86 -32q-190 -78 -252 -152l326 621zM713 1352q-6 63 -35 80q0 -62 35 -80zM696 520
l-100 189l-158 -301q64 37 148 73q37 13 110 39z" />
    <glyph glyph-name="AE" unicode="&#xc6;" horiz-adv-x="1934" 
d="M1886 1192q-51 -80 -53 -94l18 -119l-14 4l-96 -96l-107 35q-86 65 -221 90h-2l-47 4h-29v-236h527l-103 -174l-235 -217q-78 107 -191 133q0 -325 29 -393q4 -16 8 -23h47l49 3l43 4q148 28 230 90l110 39l-14 -113q0 -23 41 -86l2 -29q-16 -32 -47 -47l-78 -76
q0 -2 -2 -4q-20 -20 -49 -20h-789l-67 63l98 99l-6 6l41 22v21q0 15 -2 82l-6 200q-121 -30 -396 -176q-171 -91 -249 -149q-13 -17 -19 -31q-2 -7 -2 -35h-12l-96 -96h-275l-10 41l96 96l-2 10q123 66 475 443q4 6 29 31l6 6q16 18 51 55q27 29 58 61q3 6 14 17
q93 103 283 306q55 58 116 126q11 20 11 43q0 8 -2 14l-50 27h-53l-55 -55l-17 16l25 25l-4 -2l2 2l-35 -13l103 103l34 12l19 14h158l28 2h39q10 0 19 -2h542q45 0 76 -57q-49 -78 -51 -98l16 -107l-6 -6l-100 35q-82 61 -228 90l-45 4l-49 2l-82 -2q0 -16 1 -48t1 -48h-8
q2 -31 2 -66v-176h520l-98 -168l-98 -98l-27 -25q-102 146 -272 146h-21v-107q-2 0 -3 1t-3 1q0 -330 29 -397q3 -8 10 -25l51 -2l49 2l47 4q140 25 226 91l102 34l-12 -104q0 -27 41 -88l2 -23q-6 -16 -19 -26l-22 -23q-16 -4 -27 -4h-790l-70 66l4 4l31 16v8l70 41
q8 8 24 25v18q0 7 1 19.5t1 19.5v37q0 8 -1 22q-1 18 -1 23l-6 191q-124 -36 -387 -172q-285 -148 -354 -246q-2 -2 -7.5 -5t-7.5 -5q-8 -13 -10 -19l-2 -2v-29l-6 -6h-275l-10 41l6 6q68 37 226 189l-54 -53q-54 -54 -168 -158l7 -19h227l98 99q86 87 328 213
q118 62 172 87q98 48 178 75l45 45l29 -25l-27 -27l4 -180q2 -90 2 -82q0 -10 -1 -28.5t-1 -28.5l2 2l-2 -8l-106 -107l43 -41h731q-21 39 -21 56v2l13 102l-103 -35q-86 -65 -223 -90h-2l-47 -4l-49 -2l-31 2l-12 -14l-23 14l11 10q-7 7 -7 15q-28 60 -28 458v52h-17l17 22
l102 102v-22h2l-2 -2h27q168 0 272 -143l33 30l88 150h-496l-24 -25l-25 25l25 24v80q0 144 -4 238h-23l23 24l102 103v-23h8l82 2l51 -2l47 -4q136 -24 222 -90q11 22 41 68q-31 57 -76 57h-547q-8 2 -16 2h-37l-27 -2h-61l24 -12l11 10l12 -23l-6 -6q2 -4 2 -10
q0 -29 -17 -53l-28 -29q-88 -95 -244 -264l-242 -263q-28 -30 -39 -40l-12 -13q-34 -35 -98 -102q-45 -49 -86 -90l-37 -37l131 139l113 121q7 7 20 23q34 33 78 84q15 17 31 32q3 5 14 17l81 88q52 56 156 169q20 22 62 66l2 2q12 21 12 48q-1 6 -4 20l-104 55l28 29
l-12 12l98 99l-6 6l43 16l19 14h160l28 3h41q12 0 21 -3h538q51 0 84 -65zM1012 1149l-45 22l24 25v31l13 12l-7 -2l-24 -25l-10 13l-5 -4l9 -9l-31 -30l61 -33h15zM1849 27q-45 71 -45 102l8 68l-59 -21q-108 -84 -235 -94l-50 -4l-51 -2l-65 2q-6 10 -15 31
q-39 88 -34 550q6 3 26 3q10 -3 14 -3h11q182 0 276 -131l103 97l73 125h-501q2 129 1 226t-6 165l33 2l82 2l51 -2l52 -4q143 -25 233 -95l61 -20l-10 70q0 24 47 100q-18 33 -47 33h-547q-10 2 -22 3q-7 1 -29 -1l-28 -2h-152l-12 -10l-6 -3l2 -2l-21 -20l84 -45v-2
q8 -17 8 -37q0 -33 -20 -66l-555 -600q-359 -384 -467 -442h237q0 10 7 20q50 115 385 289q313 163 432 185l6 -232q3 -108 0 -145q-8 -19 -33 -41l-82 -47l37 -35h778q31 0 45 33zM1094 549q-98 -31 -293 -96q-226 -79 -318 -152l584 621zM961 537l-17 213l-307 -330
q75 34 154 61q27 9 170 56z" />
    <glyph glyph-name="Ccedilla" unicode="&#xc7;" horiz-adv-x="1502" 
d="M1454 1260l-61 -52l-58 -57l-43 -37q-14 -22 -14 -41v-47q-4 -8 -4 -160q-8 8 -10 13l-99 -99q-178 226 -444 226q-211 0 -344 -91q-96 -120 -96 -301q0 -219 114 -362q126 -158 342 -158q178 0 353 168q49 62 73 100l78 78l31 43v-366q-13 -10 -39 -31l-70 -70
q-106 -86 -233 -129q37 -47 37 -73q0 -13 -6 -31l2 -2q-19 -60 -78 -92l-68 -70q-70 -72 -260 -72q-47 0 -86 23v2q-63 31 -63 80v14q0 9 1 25.5t1 25.5v15l94 96v8q-4 4 -6 4v4q-244 30 -394 170q-194 181 -194 498q0 248 162 410l39 39q64 87 157 149q225 150 555 150h631
zM1370 1229h-547q-322 0 -536 -144q-250 -168 -250 -471q0 -307 186 -479q156 -145 404 -166q-2 -6 -2 -12l19 -13q9 -6 52 -38q72 -54 72 -84q0 -18 -8 -31q-40 -65 -127 -65q-62 0 -96 41q-2 -7 -2 -13q0 -33 51 -59q42 -21 73 -21q240 0 273 113q4 14 4 27q0 25 -68 100
q-44 49 -59 49q-8 0 -8 -14q1 6 6 20q268 21 434 162v252q-215 -320 -504 -320q-229 0 -364 170q-123 155 -123 381q0 247 166 388q155 131 407 131q275 0 420 -183q0 68 4 80v43q0 45 51 96zM606 -238q-8 8 -26 21q-12 9 -35 27q35 -35 61 -48z" />
    <glyph glyph-name="Egrave" unicode="&#xc8;" horiz-adv-x="982" 
d="M934 1194q-49 -78 -51 -96l14 -117l-14 4l-97 -96l-102 35q-88 65 -223 90h-2l-49 4l-37 2v-238h536l-102 -172l-131 -125h-2v2l-101 -96q-77 103 -200 131v-411h12l80 -2l49 2l43 4q148 28 229 90l111 39l-14 -115q0 -20 41 -84l2 -29q-17 -32 -47 -47l-76 -73
q-1 -1 -1.5 -3t-2.5 -4q-21 -20 -49 -20h-789l-67 63l98 99l-6 6l45 24v904q0 32 -27 59l-113 61l99 97l-6 4l77 74h293q-1 3 -4 6q-46 68 -61 86q-33 39 -78 69q-33 21 -80 47l23 88l94 95l4 14h252l53 -125q43 -101 164 -252h-19l-28 -28h178q49 0 82 -66zM655 1319
q-80 98 -127 209l-45 106h-207l-14 -53q88 -48 123 -82q32 -31 88 -117q16 -25 16 -39l-10 -24h176zM897 29q-45 71 -45 100l8 70l-59 -21q-90 -69 -236 -94l-49 -4l-51 -2l-82 2l-41 4v569q-2 11 37 11q10 -2 14 -2q10 0 8 0q187 -9 279 -132l100 97l74 125h-512v389l39 4
l84 2l49 -2l51 -4q142 -25 236 -94l59 -21l-8 70q0 28 45 100q-18 33 -45 33h-778l-37 -35l82 -45q39 -39 39 -82v-905q-4 -30 -4 -39q-7 -19 -33 -45l-84 -47l37 -35h778q31 0 45 33z" />
    <glyph glyph-name="Eacute" unicode="&#xc9;" horiz-adv-x="982" 
d="M934 1194q-49 -78 -51 -96l14 -117l-14 4l-97 -96l-102 35q-88 65 -223 90h-2l-49 4l-37 2v-238h536l-102 -172l-131 -125h-2v2l-101 -96q-77 103 -200 131v-411h12l80 -2l49 2l43 4q148 28 229 90l111 39l-14 -117q0 -21 41 -82l2 -29q-17 -32 -47 -47l-76 -73
q-1 -1 -1.5 -3t-2.5 -4q-21 -20 -49 -20h-789l-67 63l98 99l-6 6l45 24v904q0 32 -27 59l-113 61l99 97l-6 4l77 74h99q68 91 104 176l51 120l91 91l8 18h252l20 -78l-14 -31q-13 -8 -19 -10l-88 -88q-26 -13 -51 -28q-18 -27 -55 -82v-2h2l18 -58h-14l-29 -28h416
q49 0 82 -66zM655 1581l-14 53h-207l-45 -106q-52 -122 -127 -209h176l-10 24q0 15 16 39q49 74 91 117q37 37 120 82zM897 29q-45 71 -45 100l8 70l-59 -21q-90 -69 -236 -94l-49 -4l-51 -2l-82 2l-41 4v569q-2 11 37 11q10 -2 14 -2q10 0 8 0q187 -9 279 -132l100 97
l74 125h-512v389l39 4l84 2l49 -2l51 -4q142 -25 236 -94l59 -21l-8 70q0 28 45 100q-18 33 -45 33h-778l-37 -35l82 -45q39 -39 39 -82v-905q-4 -30 -4 -39q-7 -19 -33 -45l-84 -47l37 -35h778q31 0 45 33z" />
    <glyph glyph-name="Ecircumflex" unicode="&#xca;" horiz-adv-x="982" 
d="M934 1194q-49 -78 -51 -96l14 -117l-14 4l-97 -96l-102 35q-88 65 -223 90h-2l-49 4l-37 2v-238h536l-102 -172l-131 -125h-2v2l-101 -96q-77 103 -200 131v-411h12l80 -2l49 2l43 4q148 28 229 90l111 39l-14 -115q0 -20 41 -84l2 -29q-17 -32 -47 -47l-76 -73
q-1 -1 -1.5 -3t-2.5 -4q-21 -20 -49 -20h-789l-67 63l98 99l-6 6l45 24v904q0 32 -27 59l-113 61l99 97l-6 4l77 74h11l20 20h-10q51 41 151 126l58 52q26 33 78 101l80 79q2 4 22 31q94 -95 170 -176q84 -90 168 -213h-16l-21 -20h80q49 0 82 -66zM752 1311
q-52 75 -134 162l-97 103q-36 38 -46 48q-45 -62 -75.5 -91.5t-67.5 -78.5q-53 -50 -164 -143h221l21 -6l-2 20l-5 25q-4 20 -4 24q0 35 86 125q47 -59 76 -94l37 -45q-18 -25 -23 -27l-26 -22h203zM461 1266q-5 4 -15 14q-4 1 -4 4l2 -20l-12 2l-6 -6h29zM897 29
q-45 71 -45 100l8 70l-59 -21q-90 -69 -236 -94l-49 -4l-51 -2l-82 2l-41 4v569q-2 11 37 11q10 -2 14 -2q10 0 8 0q187 -9 279 -132l100 97l74 125h-512v389l39 4l84 2l49 -2l51 -4q142 -25 236 -94l59 -21l-8 70q0 28 45 100q-18 33 -45 33h-778l-37 -35l82 -45
q39 -39 39 -82v-905q-4 -30 -4 -39q-7 -19 -33 -45l-84 -47l37 -35h778q31 0 45 33z" />
    <glyph glyph-name="Edieresis" unicode="&#xcb;" horiz-adv-x="982" 
d="M934 1194q-49 -78 -51 -96l14 -117l-14 4l-97 -96l-102 35q-90 65 -225 90l-49 4l-37 2v-238h536l-102 -172l-131 -125h-2v2l-101 -96q-77 103 -200 131v-411h12l80 -2l49 2l43 4q148 28 229 90l111 39l-14 -115q0 -20 41 -84l2 -29q-17 -32 -47 -47l-80 -80
q-20 -20 -49 -20h-789l-67 63l98 99l-6 6l45 24v904q0 32 -27 59l-113 61l99 97l-6 4l77 74h56q-25 20 -31 71q0 41 27 68l75 76q25 59 123 69q119 0 135 -100l31 31q25 59 123 69q122 0 137 -102v-4q0 -66 -53 -95l-84 -83h252q49 0 82 -66zM707 1438q-14 79 -105 75
q-100 -4 -100 -77q10 -82 102 -78q103 4 103 80zM418 1438q-13 79 -105 75q-100 -4 -100 -77q10 -81 102 -78q103 3 103 80zM408 1260q-27 22 -33 63l-64 -63h97zM897 29q-45 71 -45 100l8 70l-59 -21q-90 -69 -236 -94l-49 -4l-51 -2l-82 2l-41 4v569q-2 11 37 11
q10 -2 14 -2q10 0 8 0q187 -9 279 -132l100 97l74 125h-512v389l39 4l84 2l49 -2l51 -4q142 -25 236 -94l59 -21l-8 70q0 28 45 100q-18 33 -45 33h-778l-37 -35l82 -45q39 -39 39 -82v-905q-4 -30 -4 -39q-7 -19 -33 -45l-84 -47l37 -35h778q31 0 45 33z" />
    <glyph glyph-name="Igrave" unicode="&#xcc;" horiz-adv-x="634" 
d="M586 1288h-19l-84 -84v-1034q0 -68 2 -72q7 -27 90 -129h-18l-96 -96h-402q35 46 78 119l6 76v809q0 75 -36 105q-19 15 -107 46q-80 28 -94 111l96 96q0 2 -1 6t-1 6l78 13h141q-1 3 -4 6q-61 90 -84 112q-37 35 -133 88l20 90l93 93l4 16h254l53 -125q45 -107 164 -252
zM520 1319q-79 95 -127 209l-45 106h-207l-12 -53q85 -48 121 -82q31 -29 88 -117q16 -25 16 -39l-10 -24h176zM512 0q-43 51 -51 78q-8 18 -8 92v1059h-369l-47 -8q8 -46 74 -68q82 -28 104 -43q55 -38 55 -131l-6 -891q-8 -33 -51 -88h299z" />
    <glyph glyph-name="Iacute" unicode="&#xcd;" horiz-adv-x="623" 
d="M575 -31h-18l-96 -96h-402q35 46 78 119l6 78v807q0 75 -36 105q-19 15 -107 46q-80 28 -94 111l96 96q0 2 -1 6t-1 6l18 2q72 96 111 187l51 120l90 91l9 18h256l16 -78l-14 -31q-13 -8 -19 -10l-88 -88q-16 -8 -27 -15l-22 -13q-12 -17 -25 -37l-30 -45v-5q3 -9 24 -55
h-16l-29 -28h178v-1090q0 -68 2 -72q7 -27 90 -129zM520 1581l-12 53h-209l-45 -106q-51 -121 -125 -209h174q-8 18 -8 24q0 18 14 39q52 79 89.5 116.5t121.5 82.5zM512 0q-43 51 -51 78q-8 18 -8 92v1059h-369l-47 -8q8 -46 74 -68q82 -28 104 -43q55 -38 55 -131l-6 -891
q-8 -33 -51 -88h299z" />
    <glyph glyph-name="Icircumflex" unicode="&#xce;" horiz-adv-x="724" 
d="M676 1280h-17l-96 -96h-76v-1014q0 -68 7 -86q11 -27 84 -115h-19l-96 -96h-402q70 86 78 119l6 76v809q0 79 -43 110q-22 16 -96 39q-79 25 -100 113l45 45h-86l96 96h-10q8 5 81 67q25 21 53 46q19 15 54 47l6 6q26 26 93 113l81 81q8 9 21 29l43 -43q35 -35 70 -74
q6 -8 13 -15l15 -15q2 -3 27 -29q78 -82 168 -213zM618 1311q-44 66 -133 162l-95 103q-36 38 -46 48q-40 -56 -78 -92q-22 -21 -65 -78q-53 -50 -164 -143h221l18 -6l-2 20l-2 10l-2 15q-2 15 -4 24q0 35 86 125l115 -139q-18 -25 -23 -27l-26 -22h200zM328 1264
q-6 6 -19 22l2 -24l-12 2l-4 -4h29zM514 0q-43 51 -51 78q-6 20 -6 92v1059h-371l-47 -8q11 -47 76 -68q83 -27 104 -43q53 -41 53 -131l-6 -891q-10 -39 -51 -88h299z" />
    <glyph glyph-name="Idieresis" unicode="&#xcf;" horiz-adv-x="650" 
d="M602 1438q0 -66 -53 -95l-84 -83h18v-1090q0 -68 2 -72q7 -27 90 -129h-18l-96 -96h-402q35 46 78 119l6 76v809q0 75 -36 105q-19 15 -107 46q-80 28 -94 111l96 96q0 2 -1 5t-1 5q-41 25 -49 86q0 42 26 68l76 76q25 59 123 69q119 0 135 -100l31 31q25 59 123 69
q122 0 137 -102v-4zM571 1438q-13 79 -104 75q-100 -4 -100 -77q10 -82 102 -78q102 4 102 80zM283 1438q-14 79 -105 75q-100 -4 -100 -77q10 -81 102 -78q103 3 103 80zM272 1260q-26 22 -32 63l-64 -63h96zM512 0q-43 51 -51 78q-8 18 -8 92v1059h-369l-47 -8
q8 -46 74 -68q82 -28 104 -43q55 -38 55 -131l-6 -891q-8 -33 -51 -88h299z" />
    <glyph glyph-name="Eth" unicode="&#xd0;" horiz-adv-x="1508" 
d="M1460 610q0 -290 -186 -481q-32 -33 -74 -66l-39 -38q-190 -185 -471 -185q-92 0 -192 25q-67 17 -105 37l-28 -29h-232v494q-31 -7 -43 -15l-223 -112q38 60 75 120q52 80 85 111h-2q7 8 22 23l39 38q10 11 29 35h-2q12 13 20 19v336l96 96v10q206 133 351 195
q87 37 266 37q276 0 450 -189q164 -178 164 -461zM1430 610q0 270 -155 441q-161 178 -429 178q-172 0 -254 -35q-137 -58 -332 -182v-381q-61 -19 -115 -74q-23 -24 -108 -154l145 74q29 15 78 23v-500h182v70q49 -49 164 -78q98 -25 187 -25q278 0 457.5 182.5
t179.5 460.5zM1217 610q0 -202 -105 -362q-121 -185 -311 -185q-47 0 -94 7q-32 4 -95 16q-108 28 -170 80v305q68 -20 109 -20q110 0 184 88q36 43 113 188l-78 -65q-29 -25 -37 -29q-65 -45 -141 -45q-44 0 -51 2q-33 8 -99 26v228q0 131 113 215q100 74 238 74
q212 0 325 -166q99 -145 99 -357zM1090 508q0 206 -94 342q-109 156 -306 156q-110 0 -188 -45q-29 -50 -29 -117v-207h8q27 -4 43 -10l25 -9h43q63 0 127 44q7 5 36 29l83 69l45 -35q-69 -141 -125 -207q-32 -38 -66 -59l-61 -62q-68 -69 -158 -73v-144q52 -37 148 -63
q86 -23 180 -23q104 0 184 60q1 3 4 6q101 151 101 348z" />
    <glyph glyph-name="Ntilde" unicode="&#xd1;" horiz-adv-x="1367" 
d="M1133 1477q-66 -70 -107 -99l-25 -24q-63 -61 -102 -84q-58 -35 -119 -35q-33 0 -49 4l-63 16q-89 43 -131 54q-26 4 -50 4q-21 0 -51 -4l-143 -33l-19 37l97 96l-2 6q102 96 127 111q64 39 137 39q35 0 55 -4l60 -19l110 -49h4q39 -8 88 -8h13l24 6q12 0 37.5 9.5
t79.5 25.5zM1319 66q0 -78 -55 -101l-7 -6l-2 -6l-2 2l-69 -72q-17 -12 -25 -16l-8 -8q-43 20 -96 80l-668 757v-389q0 -83 47 -153q31 -46 176 -185h-20l-96 -96h-445q86 147 86 229v875l-65 41q-9 2 -28 9l-65 24q-7 4 -100 84l98 98q-3 2 -10 8l154 19h287l661 -773v383
q0 35 -10 62q-6 12 -19 37l-114 90v92l96 96v13h299v-1194zM1106 1493l-97 -27q-34 -10 -38 -12q-11 -1 -23 -1q-42 0 -98 11l-109 47l-65 19q-89 16 -164 -31q-36 -22 -111 -94l131 31q30 4 58 4t51 -4q33 -6 135 -54l66 -16q20 -5 40 -5q53 0 107 32q46 27 117 100z
M1288 66v1163h-237v-58l108 -84q25 -40 30 -56.5t5 -57.5v-680l-803 936h-270l-84 -10q47 -41 59 -48q37 -15 82 -26l84 -51v-889q0 -92 -67 -205h337q-86 78 -122 135q-54 85 -54 172v682l820 -932q48 -55 79 -69q-5 3 -14 10l19 -4q28 10 28 72z" />
    <glyph glyph-name="Ograve" unicode="&#xd2;" horiz-adv-x="1521" 
d="M1473 614q0 -321 -230 -508q-6 -6 -18 -14l-62 -62q-5 -5 -26 -22q-209 -168 -500 -168q-296 0 -500 168q-227 187 -227 504q0 281 178 459l37 37q46 61 111 114q160 129 364 160q-78 115 -209 184l25 90l94 95l4 14h252l53 -125q50 -117 164 -252h-18l-21 -20
q169 -42 299 -146q230 -184 230 -508zM918 1319q-73 84 -127 209l-46 106h-206l-15 -53q122 -67 211 -199q15 -22 15 -39q0 -6 -9 -24h177zM1442 614q0 306 -219 486q-197 162 -484 162q-284 0 -483 -162q-219 -178 -219 -486q0 -303 219 -485q195 -162 483 -162
q285 0 484 162q219 178 219 485zM1229 614q0 -240 -123 -390q-132 -161 -367 -161q-234 0 -367 162q-122 150 -122 389q0 241 121 391q132 162 368 162q199 0 336 -137q154 -153 154 -416zM1102 512q0 254 -146 399q-129 129 -319 129q-150 0 -252 -69q-104 -135 -104 -357
q0 -228 114 -368q124 -152 344 -152q164 0 275 86q88 139 88 332z" />
    <glyph glyph-name="Oacute" unicode="&#xd3;" horiz-adv-x="1521" 
d="M1473 614q0 -321 -230 -508q-6 -6 -18 -14l-62 -62q-5 -5 -26 -22q-209 -168 -500 -168q-296 0 -500 168q-227 187 -227 504q0 281 178 459l37 37q101 136 268 213q89 113 133 215l52 120l90 91l8 18h252l20 -78l-14 -33l-16 -8l-91 -90q-20 -10 -57 -33q-14 -18 -39 -57
q-8 -13 -10 -18q2 0 2 -2v0l16 -54q294 0 504 -170q230 -187 230 -508zM813 1481l-8 -8zM918 1581l-15 53h-207l-45 -106q-48 -114 -127 -209h176l-10 24q0 13 17 39q87 135 211 199zM1442 614q0 306 -219 486q-197 162 -484 162q-284 0 -483 -162q-219 -178 -219 -486
q0 -303 219 -485q195 -162 483 -162q285 0 484 162q219 178 219 485zM1229 614q0 -240 -123 -390q-132 -161 -367 -161q-234 0 -367 162q-122 150 -122 389q0 241 121 391q132 162 368 162q199 0 336 -137q154 -153 154 -416zM1102 512q0 254 -146 399q-129 129 -319 129
q-150 0 -252 -69q-104 -135 -104 -357q0 -228 114 -368q124 -152 344 -152q164 0 275 86q88 139 88 332z" />
    <glyph glyph-name="Ocircumflex" unicode="&#xd4;" horiz-adv-x="1521" 
d="M1473 614q0 -321 -230 -508q-6 -6 -18 -14l-62 -62q-5 -5 -26 -22q-209 -168 -500 -168q-296 0 -500 168q-227 187 -227 504q0 281 178 459l37 37q69 93 197 176h-66l96 96h-10q3 2 81 67q36 31 109 93l5 4q36 40 96 117l74 73q3 6 28 37q55 -60 166 -178
q78 -81 168 -213h-16l-33 -33q122 -43 223 -125q230 -186 230 -508zM1012 1311q-50 74 -133 162q-36 37 -94 99l-48 52q-40 -56 -78 -92q-22 -21 -65 -78q-103 -95 -166 -143h223l19 -6l-2 20v10l-4 15q-2 7 -2 24q0 35 83 125q50 -59 78 -94l35 -45q-14 -25 -20 -27
l-27 -22h201zM1442 614q0 306 -219 486q-197 162 -484 162q-284 0 -483 -162q-219 -178 -219 -486q0 -303 219 -485q195 -162 483 -162q285 0 484 162q219 178 219 485zM1229 614q0 -240 -123 -390q-132 -161 -367 -161q-234 0 -367 162q-122 150 -122 389q0 241 121 391
q132 162 368 162q199 0 336 -137q154 -153 154 -416zM1102 512q0 254 -146 399q-129 129 -319 129q-150 0 -252 -69q-104 -135 -104 -357q0 -228 114 -368q124 -152 344 -152q164 0 275 86q88 139 88 332z" />
    <glyph glyph-name="Otilde" unicode="&#xd5;" horiz-adv-x="1521" 
d="M1473 614q0 -321 -230 -508q-6 -6 -18 -14l-62 -62q-5 -5 -26 -22q-209 -168 -500 -168q-296 0 -500 168q-227 187 -227 504q0 281 178 459l37 37q46 62 111 114q156 125 346 158q-59 25 -81 29t-48 4q-33 0 -50 -4l-143 -33l-18 37l96 96l-2 6q102 96 127 111
q64 39 135 39q35 0 55 -4l62 -19l108 -47q55 -10 95 -10h22v-2l33 12l16 4q27 9 80 27l29 -49q-35 -37 -109 -101l-2 -2q-32 -33 -102 -94q201 -31 358 -158q230 -186 230 -508zM1071 1493l-96 -27q-33 -10 -37 -12q-10 -1 -23 -1q-42 0 -98 11l-108 47l-68 19
q-87 14 -162 -31q-30 -18 -110 -94l131 31q28 4 55 4q30 0 53 -4q33 -6 135 -54l66 -16q20 -5 40 -5q52 0 107 32q51 29 115 100zM1442 614q0 306 -219 486q-197 162 -484 162q-284 0 -483 -162q-219 -178 -219 -486q0 -303 219 -485q195 -162 483 -162q285 0 484 162
q219 178 219 485zM1229 614q0 -240 -123 -390q-132 -161 -367 -161q-234 0 -367 162q-122 150 -122 389q0 241 121 391q132 162 368 162q199 0 336 -137q154 -153 154 -416zM1102 512q0 254 -146 399q-129 129 -319 129q-150 0 -252 -69q-104 -135 -104 -357
q0 -228 114 -368q124 -152 344 -152q164 0 275 86q88 139 88 332z" />
    <glyph glyph-name="Odieresis" unicode="&#xd6;" horiz-adv-x="1521" 
d="M1473 614q0 -321 -230 -508q-6 -6 -18 -14l-62 -62q-5 -5 -26 -22q-209 -168 -500 -168q-296 0 -500 168q-227 187 -227 504q0 281 178 459l37 37q44 59 111 114q85 70 188 113q-68 14 -78 96q0 41 27 68l76 76q24 59 122 69q119 0 138 -98l28 29q25 59 123 69
q125 0 139 -102v-4q0 -66 -53 -95l-61 -61q198 -31 358 -160q230 -185 230 -508zM969 1438q-14 79 -107 75q-100 -4 -100 -77q10 -81 104 -78q103 3 103 80zM680 1438q-13 79 -107 75q-100 -4 -100 -77q10 -81 105 -78q102 3 102 80zM645 1286q-8 19 -10 35l-39 -39
q16 1 49 4zM1442 614q0 306 -219 486q-197 162 -484 162q-284 0 -483 -162q-219 -178 -219 -486q0 -303 219 -485q195 -162 483 -162q285 0 484 162q219 178 219 485zM1229 614q0 -240 -123 -390q-132 -161 -367 -161q-234 0 -367 162q-122 150 -122 389q0 241 121 391
q132 162 368 162q199 0 336 -137q154 -153 154 -416zM1102 512q0 254 -146 399q-129 129 -319 129q-150 0 -252 -69q-104 -135 -104 -357q0 -228 114 -368q124 -152 344 -152q164 0 275 86q88 139 88 332z" />
    <glyph glyph-name="multiply" unicode="&#xd7;" horiz-adv-x="587" 
d="M539 485l-64 -180l-6 6l-98 -98l-205 205l-148 -148v9l-96 -97l6 252l97 98v7l8 8l-125 129l45 182l92 92l6 23l203 -205l242 246l-2 -271l-109 -106zM504 479l-160 160l119 117l2 182l-209 -211l-186 186l-33 -129l137 -137l-119 -121l-4 -182l213 213l199 -199z" />
    <glyph glyph-name="Oslash" unicode="&#xd8;" horiz-adv-x="1521" 
d="M1473 616q0 -317 -224 -501h2q-20 -17 -34 -27l-31 -31q-15 -14 -45 -43l-8 -8q-207 -166 -498 -166q-125 0 -232 33l-75 -78h-238l119 164q-299 182 -299 555q0 293 178 471l43 43q37 49 86 92q201 176 520 176q41 0 129 -10l95 94l-3 9q80 43 95 43h268l-152 -254
q140 -88 224 -234h-2q82 -158 82 -328zM1442 616q0 175 -81 321q-84 151 -235 230l140 234h-213q-15 0 -54 -23l25 -49l16 -24l4 -9v-2q-6 -29 -16 -65l-4 -15q-139 52 -287 52q-310 0 -500 -168q-200 -176 -200 -482q0 -372 307 -546l-18 -33l-84 -115h168q12 58 36 98
q138 -53 291 -53q283 0 482 160q223 179 223 489zM1229 616q0 -228 -129 -385q-138 -168 -363 -168q-111 0 -184 37l-49 25l553 924q43 -39 73 -84q99 -147 99 -349zM971 1110l-553 -924q-168 150 -168 430q0 239 122 389q132 164 365 164q123 0 183 -32zM1102 514
q0 215 -94 334l-19 24l-442 -735l18 -8q79 -35 172 -35q156 0 269 88q96 140 96 332zM834 995l-29 17q-51 30 -170 30q-143 0 -248 -69q-106 -136 -106 -357t110 -358z" />
    <glyph glyph-name="Ugrave" unicode="&#xd9;" horiz-adv-x="1299" 
d="M1251 596q0 -265 -147 -449q-49 -61 -105 -102l-43 -43q-152 -152 -391 -152h-20q-3 0 -9.5 1.5t-9.5 1.5t-10 -1.5t-10 -1.5h-19q-275 0 -434 199q-143 179 -143 445q0 159 104 317l117 147l-10 9l-129 125q4 6 10 12l86 86l-2 4q57 66 90 66h258q20 0 43 -9l23 -30v-52
q-219 -208 -219 -573q0 -221 102 -354h-2q23 -31 74 -88v2q65 -52 172 -58q84 4 145 33q4 8 10 14q97 123 97 349q0 366 -217 575v45l16 29l49 49h-223l24 47l2 2q0 6 -12 25q-82 126 -217 198l21 92l92 93l4 16h254l55 -125q50 -114 160 -252h-19l-28 -28h239q35 0 95 -66
l-144 -137q37 -47 113 -139q108 -158 108 -322zM823 1319q-71 87 -125 209l-47 106h-207l-12 -53q124 -66 209 -199q16 -25 16 -39l-10 -24h176zM1221 596q0 159 -105 305q-32 40 -84 106l-39 50q0 6 25 30l112 109q-30 33 -51 33h-258q-12 0 -24 -4l-9 -15v-28
q218 -209 218 -586q0 -231 -101 -363q-78 -102 -92 -110q-59 -49 -184 -55q-118 6 -183 55q-29 22 -96 110q-100 131 -100 363q0 377 219 586v28l-10 15q-13 4 -25 4h-258q-22 0 -49 -33l113 -109q22 -21 22 -30l-123 -156q-102 -156 -102 -305q0 -258 137 -428
q154 -191 416 -191h18q11 1 20 1q10 0 19 -1h21q260 0 413 191q140 174 140 428z" />
    <glyph glyph-name="Uacute" unicode="&#xda;" horiz-adv-x="1299" 
d="M1251 596q0 -265 -147 -449q-49 -61 -105 -102l-43 -43q-152 -152 -391 -152h-20q-3 0 -9.5 1.5t-9.5 1.5t-10 -1.5t-10 -1.5h-19q-275 0 -434 199q-143 179 -143 445q0 159 104 317l117 147l-10 9l-129 125q4 6 10 12l86 86l-2 4q57 66 90 66h158q66 91 104 176l54 120
l90 91l8 18h254l16 -78l-14 -31q-12 -8 -19 -10l-88 -88q-16 -9 -49 -28q-10 -17 -24 -38l-31 -46l29 -58h-17l-96 -96h-51v-23q-219 -208 -219 -573q0 -221 102 -354h-2q23 -31 74 -88v2q65 -52 172 -58q84 4 145 33q4 8 10 14q97 123 97 349q0 366 -217 575v45l16 29
l84 84l14 24q23 9 45 9h258q35 0 95 -66l-144 -137q37 -47 113 -139q108 -158 108 -322zM829 1581l-12 53h-207l-47 -106q-56 -127 -125 -209h176l-10 24q0 13 17 39q60 90 88 117q36 34 120 82zM115 1217l-17 -17q6 5 17 17zM1221 596q0 159 -105 305q-32 40 -84 106
l-39 50q0 6 25 30l112 109q-30 33 -51 33h-258q-12 0 -24 -4l-9 -15v-28q218 -209 218 -586q0 -231 -101 -363q-78 -102 -92 -110q-59 -49 -184 -55q-118 6 -183 55q-29 22 -96 110q-100 131 -100 363q0 377 219 586v28l-10 15q-13 4 -25 4h-258q-22 0 -49 -33l113 -109
q22 -21 22 -30l-123 -156q-102 -156 -102 -305q0 -258 137 -428q154 -191 416 -191h18q11 1 20 1q10 0 19 -1h21q260 0 413 191q140 174 140 428z" />
    <glyph glyph-name="Ucircumflex" unicode="&#xdb;" horiz-adv-x="1299" 
d="M1251 596q0 -265 -147 -449q-49 -61 -105 -102l-43 -43q-152 -152 -391 -152h-20q-3 0 -9.5 1.5t-9.5 1.5t-10 -1.5t-10 -1.5h-19q-275 0 -434 199q-143 179 -143 445q0 159 104 317l117 147l-10 9l-129 125q4 6 10 12l86 86l-2 4q57 66 90 66h70l20 20h-10q8 5 81 67
l54 46q19 15 55 47l21 20q44 51 82 103l80 79q8 11 22 33q16 -19 46 -58q8 -11 12 -11l16 -17l90 -96q82 -87 168 -213h-16l-21 -20h133q35 0 95 -66l-144 -137q37 -47 113 -139q108 -158 108 -322zM926 1311q-36 51 -229 265q-35 38 -46 48q-40 -56 -78 -92
q-22 -21 -65 -78q-103 -95 -166 -143h223l19 -6l-2 20l-2 10l-2 15q-2 15 -5 24q0 35 86 125l113 -139q-14 -25 -20 -27l-27 -22h201zM115 1217l-17 -17q6 5 17 17zM879 494q0 366 -217 575v45l16 29l41 41h-164l80 80q-5 5 -14 16q-5 0 -5 4l2 -22l-12 2l-96 -97l-10 2
q-219 -208 -219 -573q0 -221 102 -354h-2q23 -31 74 -88v2q69 -52 176 -58q82 4 139 33q5 5 12 14q97 124 97 349zM1221 596q0 159 -105 305q-32 40 -84 106l-39 50q0 6 25 30l112 109q-30 33 -51 33h-258q-12 0 -24 -4l-9 -15v-28q218 -209 218 -586q0 -231 -101 -363
q-78 -102 -92 -110q-59 -49 -184 -55q-118 6 -183 55q-29 22 -96 110q-100 131 -100 363q0 377 219 586v28l-10 15q-13 4 -25 4h-258q-22 0 -49 -33l113 -109q22 -21 22 -30l-123 -156q-102 -156 -102 -305q0 -258 137 -428q154 -191 416 -191h18q11 1 20 1q10 0 19 -1h21
q260 0 413 191q140 174 140 428z" />
    <glyph glyph-name="Udieresis" unicode="&#xdc;" horiz-adv-x="1299" 
d="M1251 596q0 -265 -147 -449q-49 -61 -105 -102l-43 -43q-152 -152 -391 -152h-20q-3 0 -9.5 1.5t-9.5 1.5t-10 -1.5t-10 -1.5h-19q-275 0 -434 199q-143 179 -143 445q0 159 104 317l117 147l-10 9l-129 125q4 6 10 12l86 86l-2 4q57 66 90 66h117q-32 27 -33 71
q-1 40 27 68l75 76q25 59 123 69q119 0 138 -98l28 29q25 59 123 69q125 0 139 -102v-4q0 -66 -53 -95l-80 -79q-33 -33 -102 -33h-6q-105 0 -123 90l-57 -57q-5 -5 -15 -13l23 -30v-52q-219 -208 -219 -573q0 -221 102 -354h-2q23 -31 74 -88v2q65 -52 172 -58q84 4 145 33
q4 8 10 14q97 123 97 349q0 366 -217 575v45l16 29l84 84l14 24q23 9 45 9h258q35 0 95 -66l-144 -137q37 -47 113 -139q108 -158 108 -322zM883 1438q-14 79 -107 75q-100 -4 -100 -77q10 -81 104 -78q103 3 103 80zM594 1438q-13 79 -107 75q-100 -4 -100 -77
q10 -81 105 -78q102 3 102 80zM115 1217l-17 -17q6 5 17 17zM1221 596q0 159 -105 305q-32 40 -84 106l-39 50q0 6 25 30l112 109q-30 33 -51 33h-258q-12 0 -24 -4l-9 -15v-28q218 -209 218 -586q0 -231 -101 -363q-78 -102 -92 -110q-59 -49 -184 -55q-118 6 -183 55
q-29 22 -96 110q-100 131 -100 363q0 377 219 586v28l-10 15q-13 4 -25 4h-258q-22 0 -49 -33l113 -109q22 -21 22 -30l-123 -156q-102 -156 -102 -305q0 -258 137 -428q154 -191 416 -191h18q11 1 20 1q10 0 19 -1h21q260 0 413 191q140 174 140 428z" />
    <glyph glyph-name="Yacute" unicode="&#xdd;" horiz-adv-x="1348" 
d="M1300 1212q-126 -182 -253 -376q-37 -57 -256 -406l-361 -575q-13 -19 -29 -45q13 -5 19 -11h4q10 -5 31 -12l18 -6q54 -18 76 -94h-14l-97 -97l-405 -6l399 631l-143 268l-213 406l2 2q-38 47 -82 113q-28 38 -83 115q-15 22 -28 38l99 96q-4 4 -9 13h453q14 0 64 -43
q29 43 86 102l36 37q81 106 177 164q16 10 36 16q48 0 82.5 -30.5t34.5 -77.5v-2q0 -36 -22 -58l-2 -2q-5 -5 -13.5 -9.5t-21.5 -14.5l-70 -70q-2 -2 -6 -5t-6 -5l-2 -2q-139 -97 -252 -131q-3 -3 -41 -15q-19 -6 -59 -16q0 21 4 41q-19 -25 -19 -41q0 -103 236 -522l86 125
q136 198 147 264q-8 52 -162 151l97 97q-9 4 -13 8l146 30h307zM913 1434q1 32 -24.5 54.5t-57.5 22.5q-31 -9 -53 -28q-203 -169 -203 -244q63 20 68 21q107 32 246 129q23 13 24 45zM1274 1227h-297l-70 -15q117 -77 123 -139q-6 -68 -151 -278l-199 -289
q-277 481 -277 598q0 45 68 98q-33 33 -43 33h-391q154 -220 164 -231l362 -685l-383 -608l328 6q-6 27 -45 35q-20 6 -57 21q-9 6 -29 14q-8 6 -8 14q0 11 37 70l358 575q280 449 510 781z" />
    <glyph glyph-name="Thorn" unicode="&#xde;" horiz-adv-x="1084" 
d="M1036 582q0 -186 -123 -291q-10 -9 -32 -27l-54 -53q-121 -119 -315 -119h-113q15 -35 90 -123h-18l-96 -96h-404q35 46 78 119l6 76v798q0 49 -49 49q-27 0 -125 -28q42 62 80 100l35 35q81 112 176 149q49 19 223 56v-252h230q171 0 288 -103q123 -109 123 -290z
M1006 582q0 169 -113 268q-107 94 -279 94h-249v244q-65 -13 -183 -45q-99 -37 -145 -113q45 12 72 12q73 0 73 -73l-6 -881q-8 -33 -51 -88h299q-41 47 -51 78q-8 18 -8 92v49h249q173 0 280 94q112 99 112 269zM831 582q0 -117 -49 -193q-57 -90 -168 -90h-249v567h249
q110 0 168 -91q49 -77 49 -193zM705 479q0 113 -46 180q-55 80 -147 80h-117v-409h219q35 0 68 16q23 53 23 133z" />
    <glyph glyph-name="germandbls" unicode="&#xdf;" horiz-adv-x="1088" 
d="M1040 186q0 -155 -125 -243l-63 -64q-16 -16 -43 -35q-80 -55 -147 -75q-38 -11 -132 -11q-167 0 -274 86q-35 28 -63 97l-27 -25l-23 -25l-233 -208v1130q0 3 -1 8t-1 8v13q0 114 57 207q-8 8 -8 22q0 9 10 19l86 86q4 35 144 92q180 73 233 73q149 0 242 -102
q90 -99 90 -246q0 -114 -92 -209l-49 -41l-56 -55q80 -55 193 -121q282 -164 282 -381zM399 866q0 64 -30 123q-34 66 -84 66h-4q-29 -64 -29 -135v-236l47 47v10l45 25q21 12 37 25q18 36 18 75zM1010 186q0 195 -269 355q-213 126 -231 151l139 115q82 84 82 186
q0 137 -81 226q-84 92 -220 92q-42 0 -221 -72q-125 -50 -125 -65q0 -9 25 -9q-74 -90 -74 -221q0 -5 1 -14.5t1 -14.5v-1075l184 164v916q0 91 41 170q48 92 125 92q67 0 107 -78q32 -62 32 -135q0 -146 -196 -246q0 -106 123 -191q16 -11 143 -98l86 -59q123 -86 123 -215
q0 -71 -46 -118.5t-116 -47.5q-67 0 -119 53q-24 25 -24 64v71l-209 47q0 -178 81.5 -261t260.5 -83q87 0 125 11q65 19 139 71q113 79 113 219zM678 57q0 115 -113 195q-76 53 -229 158q-56 39 -84 77v-241l8 8v14l270 -59v-96q4 -28 21 -54q41 -34 92 -34q21 0 31 4
q4 16 4 28z" />
    <glyph glyph-name="agrave" unicode="&#xe0;" horiz-adv-x="830" 
d="M782 27l-6 -58h-12l-96 -96h-211q-39 0 -66 43q-2 4 -6 14q-106 -65 -190 -65q-117 0 -195 55q-90 63 -90 182q0 130 72 203l59 60q49 85 164 116l102 27q-47 10 -88 10q-90 0 -233 -39l-21 37l96 96l-2 6q103 93 230 123h-33l27 50q0 4 -13 24q-26 41 -86 115
q-38 36 -133 90l25 86l94 94l4 14h250l53 -124q46 -107 164 -252h-18l-97 -97h-6q31 -5 98 -26q80 -37 80 -133v-476q0 -2 2 -2l5 -4q22 -59 77 -73zM575 868q-77 96 -126 209l-46 107h-206l-15 -51q83 -49 120.5 -84.5t90.5 -116.5q17 -26 17 -39l-11 -25h176zM764 0
q-62 14 -86 84q-10 13 -10 16v482q0 75 -68 106q-104 35 -194 35q-189 0 -314 -115q137 37 230 37q106 0 190 -47q-29 -54 -94 -84q-42 -19 -205 -63q-176 -47 -176 -246q0 -105 80 -162q72 -51 180 -51q96 0 215 88q-4 -12 -6 -17q-4 -10 10 -32q19 -31 43 -31h205z
M512 188q-90 -71 -172 -71q-131 0 -131 135q0 93 57 131q8 5 137 51q61 21 109 72v-318zM385 154v194q-38 -25 -76 -39q-31 -13 -67 -24q-2 -9 -2 -17v-16q0 -105 100 -105q20 0 45 7z" />
    <glyph glyph-name="aacute" unicode="&#xe1;" horiz-adv-x="830" 
d="M782 27l-6 -58h-12l-96 -96h-211q-39 0 -66 43q-2 4 -6 14q-106 -65 -190 -65q-117 0 -195 55q-90 63 -90 182q0 130 72 203l59 60q49 85 164 116l102 27q-47 10 -88 10q-90 0 -233 -39l-21 37l96 96l-2 6q103 93 230 123h-262q108 131 157 244l52 121l90 90l8 18h250
l22 -75l-14 -31q-12 -8 -19 -10l-88 -88q-24 -15 -47 -29q-26 -33 -59 -84v-2h2l18 -57h-14l-96 -97q55 13 117 13q88 0 212 -39q80 -37 80 -133v-476q0 -2 2 -2l5 -4q22 -59 77 -73zM575 1133l-14 51h-207l-45 -107q-46 -110 -127 -209h176l-10 25q0 13 17 39q51 79 91 117
t119 84zM764 0q-62 14 -86 84q-10 13 -10 16v482q0 75 -68 106q-104 35 -194 35q-189 0 -314 -115q137 37 230 37q106 0 190 -47q-29 -54 -94 -84q-42 -19 -205 -63q-176 -47 -176 -246q0 -105 80 -162q72 -51 180 -51q96 0 215 88q-4 -12 -6 -17q-4 -10 10 -32
q19 -31 43 -31h205zM512 188q-90 -71 -172 -71q-131 0 -131 135q0 93 57 131q8 5 137 51q61 21 109 72v-318zM385 154v194q-38 -25 -76 -39q-31 -13 -67 -24q-2 -9 -2 -17v-16q0 -105 100 -105q20 0 45 7z" />
    <glyph glyph-name="acircumflex" unicode="&#xe2;" horiz-adv-x="830" 
d="M782 27l-6 -58h-12l-96 -96h-211q-39 0 -66 43q-2 4 -6 14q-106 -65 -190 -65q-117 0 -195 55q-90 63 -90 182q0 130 72 203l59 60q49 85 164 116l102 27q-47 10 -88 10q-90 0 -233 -39l-21 37l96 96l-2 6q129 117 295 134h-61l82 82q-1 3 -13 12l3 -10h-13l-96 -97
q-18 3 -53 13h-295l96 96h-12q109 82 213 172l84 108l78 78l24 33l17 -16q34 -34 100 -105h-2q82 -82 137 -152q41 -53 86 -118h-16l-97 -96h-165q77 -9 167 -37q80 -37 80 -133v-476q0 -2 2 -2l5 -4q22 -59 77 -73zM672 879q-52 76 -133 161q-46 54 -144 154
q-40 -54 -76 -94q-23 -24 -67 -76q-94 -90 -166 -145h223q5 -3 21 -7l-2 21l-2 10l-7 39q0 35 87 125l110 -139q-14 -24 -20 -29l-27 -20h203zM764 0q-62 14 -86 84q-10 13 -10 16v482q0 75 -68 106q-104 35 -194 35q-189 0 -314 -115q137 37 230 37q106 0 190 -47
q-29 -54 -94 -84q-42 -19 -205 -63q-176 -47 -176 -246q0 -105 80 -162q72 -51 180 -51q96 0 215 88q-4 -12 -6 -17q-4 -10 10 -32q19 -31 43 -31h205zM512 188q-90 -71 -172 -71q-131 0 -131 135q0 93 57 131q8 5 137 51q61 21 109 72v-318zM385 154v194q-38 -25 -76 -39
q-31 -13 -67 -24q-2 -9 -2 -17v-16q0 -105 100 -105q20 0 45 7z" />
    <glyph glyph-name="atilde" unicode="&#xe3;" horiz-adv-x="836" 
d="M764 1004q-34 -36 -107 -101l-39 -39q-44 -44 -86 -69q-59 -35 -118 -35q-34 0 -49 4l-62 16q-106 48 -135 54q-19 4 -47 4q-23 0 -51 -4l-213 -52l94 92l-12 -2q62 63 192 179l2 2q2 0 4 2q60 35 129 35q28 0 56 -5l59 -18l113 -49q57 -6 90 -6h20q20 6 127 39zM788 27
l-6 -58h-12l-96 -96h-211q-35 0 -62 43v-2q-8 12 -10 16q-102 -65 -190 -65q-118 0 -197 58q-88 64 -88 179q0 130 72 203l61 62q48 86 164 114l25 6l42 12l35 9q-55 10 -90 10q-90 0 -233 -39l-21 37l97 96l-2 6q147 136 348 136q87 0 213 -39q80 -37 80 -133l4 -482
q22 -59 77 -73zM737 1020q-125 -39 -134 -39.5t-22 -0.5q-38 0 -98 9l-108 47l-66 19q-86 14 -162 -31q-39 -23 -110 -94l129 31q28 4 57 4q27 0 51 -4q39 -10 138 -54l63 -16q20 -5 41 -5q51 0 107 32q44 26 114 102zM770 0q-61 14 -86 84q-8 10 -8 16v482q0 75 -68 106
q-104 35 -194 35q-189 0 -316 -115q138 37 230 37q106 0 190 -47q-30 -54 -92 -84q-34 -16 -205 -63q-178 -49 -178 -246q0 -104 82 -162q72 -51 178 -51q96 0 215 88q-2 -6 -6 -17q-3 -9 12 -32q20 -31 41 -31h205zM518 188q-90 -71 -172 -71q-131 0 -131 135q0 90 59 131
q65 24 129 48q73 29 115 75v-318zM391 154v194q-33 -25 -74 -39q-26 -9 -69 -24q-2 -9 -2 -17v-16q0 -105 100 -105q21 0 45 7z" />
    <glyph glyph-name="adieresis" unicode="&#xe4;" horiz-adv-x="830" 
d="M657 981q0 -70 -55 -94l-78 -78q-33 -33 -102 -33h-6q-105 0 -121 92l-59 -59q-33 -33 -103 -33h-6q-111 0 -123 101q0 40 25 65l77 78q25 59 125 70q117 0 136 -101l30 31q25 59 123 70q121 0 137 -105v-4zM782 27l-6 -58h-12l-96 -96h-211q-39 0 -66 43q-2 4 -6 14
q-106 -65 -190 -65q-117 0 -195 55q-90 63 -90 182q0 130 72 203l59 60q49 85 164 116l102 27q-47 10 -88 10q-90 0 -233 -39l-21 37l96 96l-2 6q148 136 347 136q88 0 212 -39q80 -37 80 -133v-476q0 -2 2 -2l5 -4q22 -59 77 -73zM627 981q-14 82 -105 78q-100 -4 -100 -78
q10 -81 102 -78q103 3 103 78zM338 981q-12 78 -105 78q-102 -10 -102 -78q10 -81 105 -78q102 3 102 78zM764 0q-62 14 -86 84q-10 13 -10 16v482q0 75 -68 106q-104 35 -194 35q-189 0 -314 -115q137 37 230 37q106 0 190 -47q-29 -54 -94 -84q-42 -19 -205 -63
q-176 -47 -176 -246q0 -105 80 -162q72 -51 180 -51q96 0 215 88q-4 -12 -6 -17q-4 -10 10 -32q19 -31 43 -31h205zM512 188q-90 -71 -172 -71q-131 0 -131 135q0 93 57 131q8 5 137 51q61 21 109 72v-318zM385 154v194q-38 -25 -76 -39q-31 -13 -67 -24q-2 -9 -2 -17v-16
q0 -105 100 -105q20 0 45 7z" />
    <glyph glyph-name="aring" unicode="&#xe5;" horiz-adv-x="830" 
d="M782 27l-6 -58h-12l-96 -96h-211q-39 0 -66 43q-2 4 -6 14q-106 -65 -190 -65q-117 0 -195 55q-90 63 -90 182q0 130 72 203l59 60q49 85 164 116l102 27q-47 10 -88 10q-90 0 -233 -39l-21 37l96 96l-2 6q148 136 347 136q88 0 212 -39q80 -37 80 -133v-476q0 -2 2 -2
l5 -4q22 -59 77 -73zM764 0q-62 14 -86 84q-10 13 -10 16v482q0 75 -68 106q-104 35 -194 35q-189 0 -314 -115q137 37 230 37q106 0 190 -47q-29 -54 -94 -84q-42 -19 -205 -63q-176 -47 -176 -246q0 -105 80 -162q72 -51 180 -51q96 0 215 88q-4 -12 -6 -17q-4 -10 10 -32
q19 -31 43 -31h205zM512 188q-90 -71 -172 -71q-131 0 -131 135q0 93 57 131q8 5 137 51q61 21 109 72v-318zM385 154v194q-38 -25 -76 -39q-31 -13 -67 -24q-2 -9 -2 -17v-16q0 -105 100 -105q20 0 45 7z" />
    <glyph glyph-name="ae" unicode="&#xe6;" horiz-adv-x="1334" 
d="M1286 268q-61 -172 -176 -254l-53 -53q-106 -106 -271 -106q-122 0 -221 67q-8 -8 -24 -16l-9 -4l-28 -29h-47q-46 0 -72 57q-106 -65 -190 -65q-117 0 -195 55q-90 63 -90 182q0 130 72 203l59 60q49 85 164 116l102 27q-47 10 -88 10q-90 0 -233 -39l-21 37l96 96l-2 6
q148 136 347 136q96 0 204 -37q32 -11 52 -35q94 55 219 55q134 0 223 -73q65 -53 133 -230l-16 -4l-95 -94l-393 -72q13 -36 49 -82q59 -76 164 -76q90 0 159 49q7 5 15 11l10 16l89 88q4 8 12 23zM1255 272q-48 -88 -129 -141q-84 -55 -180 -55q-114 0 -185 87t-71 199v7
l506 90q-89 248 -315 248q-133 0 -226 -68q-17 36 -55 49q-98 35 -194 35q-189 0 -314 -115q137 37 230 37q106 0 190 -47q-29 -54 -94 -84q-42 -19 -205 -63q-176 -47 -176 -246q0 -105 80 -162q72 -51 180 -51q96 0 215 88q-4 -12 -6 -17q-4 -19 14.5 -41t38.5 -22h47
l-8 4q0 3 32 24q36 23 40 27q98 -73 219 -73q266 0 366 290zM1024 516l-338 -65q16 33 45 100q41 66 125 78q56 8 106 -25t62 -88zM688 367q-4 -9 -4 -13l2 13h2zM512 188q-90 -71 -172 -71q-131 0 -131 135q0 93 57 131q8 5 137 51q61 21 109 72v-318zM793 502q-7 2 -19 2
q-3 0 -9 -1t-9 -1h-2q-4 -2 -13 -2l-4 -8zM385 154v194q-38 -25 -76 -39q-31 -13 -67 -24q-2 -9 -2 -17v-16q0 -105 100 -105q20 0 45 7z" />
    <glyph glyph-name="ccedilla" unicode="&#xe7;" horiz-adv-x="798" 
d="M750 203q-48 -127 -134 -189l-53 -53q16 -16 23 -27q78 -100 78 -120q0 -11 -7 -31v-6q-20 -60 -75 -88l-68 -70q-70 -72 -262 -72q-47 0 -86 23v2q-64 31 -64 80v14q0 9 1 25.5t1 25.5v15l95 96v8l-4 4v29q-107 26 -179 100q-106 109 -106 303q0 136 94 230l55 55
q35 50 82 86q123 94 285 94q76 0 172 -39q135 -55 135 -123q0 -30 -69 -79l-64 -64q-19 -19 -49 -39q-60 -40 -139 -71q26 69 26 90q0 41 -44 67q-38 23 -81 23q-23 0 -45 -8q-28 -58 -28 -142q0 -104 62 -173q65 -73 167 -73q39 0 100 25v2q82 35 131 98zM719 207
q-56 -70 -135 -103q-67 -28 -115 -28q-114 0 -188 82q-72 79 -72 194q0 108 47 185q56 92 160 92q55 0 99 -29q50 -34 50 -86q0 -20 -10 -47q29 11 84 49q63 44 63 59q0 50 -114 95q-94 37 -162 37q-156 0 -266 -86q-123 -96 -123 -246q0 -182 100 -287q74 -78 191 -98
q-6 -23 -6 -33l18 -13q14 -9 53 -38q72 -53 72 -84q0 -19 -8 -31q-42 -65 -129 -65q-62 0 -97 41q-1 -6 -1 -12q0 -34 51 -60q41 -21 73 -21q238 0 275 113q4 12 4 27q0 23 -70 100q-44 49 -57 49q-10 0 -10 -14q0 6 7 22.5t11 16.5v6q139 41 205 213zM303 -238l-12 10
q-19 13 -55 42q38 -39 67 -52z" />
    <glyph glyph-name="egrave" unicode="&#xe8;" horiz-adv-x="851" 
d="M664 838h-19l-96 -97h-264q12 29 16 40l4 10q0 12 -10 24q-51 79 -86 115q-30 30 -133 88l20 88l92 92l5 16h253l56 -124q54 -120 162 -252zM803 268q-62 -172 -176 -254l-54 -53q-108 -106 -268 -106q-165 0 -278 110q-117 114 -117 277q0 178 104 282l62 62
q108 151 323 151q135 0 224 -73q70 -58 133 -228l-17 -4l-94 -94l-393 -74q15 -44 47 -82q64 -76 166 -76q86 0 164 52v-2q4 4 8 6q3 7 10 20l88 88q4 6 13 23zM598 868q-70 83 -125 209l-47 107h-207l-12 -51q83 -49 121 -84.5t90 -116.5q14 -22 14 -39q0 -6 -8 -25h174z
M772 272q-105 -196 -307 -196q-118 0 -189 86q-67 80 -67 200v13q-1 -7 -6 -21l2 13l510 92q-89 248 -316 248q-166 0 -264 -98t-98 -265q0 -153 107.5 -257.5t263.5 -104.5q264 0 364 290zM541 516l-336 -65q16 33 45 100q41 66 125 78q56 8 104.5 -25t61.5 -88zM311 502
q-6 2 -18 2q-3 0 -9.5 -1t-9.5 -1q-6 -2 -16 -2l-2 -8z" />
    <glyph glyph-name="eacute" unicode="&#xe9;" horiz-adv-x="851" 
d="M629 1139l-15 -31q-8 -4 -20 -12l-86 -86q-14 -9 -25 -16l-22 -13q-20 -28 -58 -84v-2h3l18 -57h-14l-97 -97h-262q112 136 158 244l51 121l90 90l8 18h254zM803 268q-62 -172 -176 -254l-54 -53q-108 -106 -268 -106q-165 0 -278 110q-117 114 -117 277q0 178 104 282
l62 62q108 151 323 151q135 0 224 -73q70 -58 133 -228l-17 -4l-94 -94l-393 -74q15 -44 47 -82q64 -76 166 -76q86 0 164 52v-2l2 2q2 0 4 2q4 7 12 22l88 88q4 6 13 23zM598 1133l-12 51h-207l-45 -107q-46 -110 -127 -209h176l-10 25q0 14 16 39q56 87 88 117
q42 40 121 84zM772 272q-105 -196 -307 -196q-118 0 -189 86q-67 80 -67 200v13q-1 -7 -6 -21l2 13l510 92q-89 248 -316 248q-166 0 -264 -98t-98 -265q0 -153 107.5 -257.5t263.5 -104.5q264 0 364 290zM541 516l-336 -65q16 33 45 100q41 66 125 78q56 8 104.5 -25
t61.5 -88zM311 502q-6 2 -18 2q-3 0 -9.5 -1t-9.5 -1q-6 -2 -16 -2l-2 -8z" />
    <glyph glyph-name="ecircumflex" unicode="&#xea;" horiz-adv-x="851" 
d="M752 848h-17l-96 -96h-322l84 84q-8 10 -8 8l-4 4q-4 1 -4 4l2 -18q-8 0 -12 2l-96 -97q-18 3 -52 13h-295l97 96h-13q62 45 111 85q33 26 94 81l2 2q30 30 92 114l76 76q10 11 27 35q55 -61 166 -180q75 -79 168 -213zM803 268q-62 -172 -176 -254l-54 -53
q-108 -106 -268 -106q-165 0 -278 110q-117 114 -117 277q0 178 104 282l62 62q108 151 323 151q135 0 224 -73q70 -58 133 -228l-17 -4l-94 -94l-393 -74q15 -44 47 -82q64 -76 166 -76q86 0 164 52v-2l2 2q2 0 4 2q4 7 12 22l88 88q4 6 13 23zM694 879q-45 68 -133 161
q-121 128 -141 154q-42 -57 -78 -94q-31 -32 -66 -76q-87 -84 -165 -145h223q2 -5 18 -7l-2 21l-2 10l-6 39q0 35 86 125l76 -94q28 -35 37 -45q-14 -24 -21 -29l-26 -20h200zM772 272q-105 -196 -307 -196q-118 0 -189 86q-67 80 -67 200v13q-1 -7 -6 -21l2 13l510 92
q-89 248 -316 248q-166 0 -264 -98t-98 -265q0 -153 107.5 -257.5t263.5 -104.5q264 0 364 290zM541 516l-336 -65q16 33 45 100q41 66 125 78q56 8 104.5 -25t61.5 -88zM311 502q-6 2 -18 2q-3 0 -9.5 -1t-9.5 -1q-6 -2 -16 -2l-2 -8z" />
    <glyph glyph-name="edieresis" unicode="&#xeb;" horiz-adv-x="851" 
d="M682 981q0 -70 -55 -94l-78 -78q-33 -33 -103 -33h-6q-104 0 -123 90l-57 -57q-33 -33 -102 -33h-6q-111 0 -123 101q0 41 26 67l76 76q25 59 123 70q119 0 137 -99l29 29q24 59 125 70q121 0 137 -105v-4zM803 268q-62 -172 -176 -254l-54 -53q-108 -106 -268 -106
q-165 0 -278 110q-117 114 -117 277q0 178 104 282l62 62q108 151 323 151q135 0 224 -73q70 -58 133 -228l-17 -4l-94 -94l-393 -74q15 -44 47 -82q64 -76 166 -76q86 0 164 52v-2l2 2q2 0 4 2q4 7 12 22l88 88q4 6 13 23zM651 981q-12 78 -104 78q-103 -10 -103 -78
q11 -81 105 -78q102 3 102 78zM362 981q-13 82 -106 78q-100 -4 -100 -78q10 -81 104 -78q102 3 102 78zM772 272q-105 -196 -307 -196q-118 0 -189 86q-67 80 -67 200v13q-1 -7 -6 -21l2 13l510 92q-89 248 -316 248q-166 0 -264 -98t-98 -265q0 -153 107.5 -257.5
t263.5 -104.5q264 0 364 290zM541 516l-336 -65q16 33 45 100q41 66 125 78q56 8 104.5 -25t61.5 -88zM311 502q-6 2 -18 2q-3 0 -9.5 -1t-9.5 -1q-6 -2 -16 -2l-2 -8z" />
    <glyph glyph-name="igrave" unicode="&#xec;" horiz-adv-x="542" 
d="M494 838h-19l-96 -97h-266q12 29 16 40l4 10q0 12 -10 24q-82 131 -217 205l20 86l92 92l5 16h253l54 -124q52 -120 164 -252zM489 -31h-20l-96 -96h-404l86 86h-2l2 2l4 8h-2l4 6q7 13 7 23v430q0 43 -29 59q-35 13 -43 19q-23 14 -98 104l98 99q-2 3 -8 10h393v-619
q0 -16 6 -28q1 -2 102 -103zM428 868q-76 88 -127 209l-45 107h-207l-12 -51q126 -72 209 -201q14 -22 14 -39q0 -6 -8 -25h176zM414 0q-56 51 -58 63q-6 13 -6 37v588h-299q41 -49 62 -59q8 -6 39 -17q43 -22 43 -82v-430q0 -34 -21 -55l-45 -45h285z" />
    <glyph glyph-name="iacute" unicode="&#xed;" horiz-adv-x="537" 
d="M459 1139l-15 -31q-3 -3 -9 -5t-9 -5l-88 -88q-17 -11 -53 -31q-23 -29 -43 -64q-9 -16 -9 -20l29 -57h-16l-96 -97h-269q106 130 156 244l53 121l90 90l8 18h254zM489 -31h-20l-96 -96h-404l86 86h-2l2 2l4 8h-2l4 6q7 13 7 23v430q0 43 -29 59q-35 13 -43 19
q-23 14 -98 104l98 99q-2 3 -8 10h393v-619q0 -16 6 -28q1 -2 102 -103zM324 1030q-2 -1 -9 -8zM428 1133l-12 51h-207l-47 -107q-55 -126 -125 -209h176l-10 25q0 17 14 39q79 126 211 201zM414 0q-56 51 -58 63q-6 13 -6 37v588h-299q41 -49 62 -59q8 -6 39 -17
q43 -22 43 -82v-430q0 -34 -21 -55l-45 -45h285z" />
    <glyph glyph-name="icircumflex" unicode="&#xee;" horiz-adv-x="724" 
d="M676 848h-17l-96 -96h-321l84 84q-11 11 -17 20l2 -22q-8 0 -12 2l-96 -97q-19 3 -51 13h-293l96 96h-12l113 89q85 68 134 128q21 27 50 65l75 76q10 11 27 35q6 -7 166 -180q81 -88 168 -213zM580 -31h-21l-96 -96h-404l97 96h-9l13 13q0 3 1 8t1 8v430q0 43 -29 59
q-24 10 -79 52q-25 24 -66 71l98 99q-4 2 -8 10h397v-619q0 -16 6 -28t99 -103zM618 879q-44 66 -133 161q-113 121 -141 154q-33 -48 -78 -94q-34 -35 -65 -76q-53 -51 -164 -145h221q2 -5 18 -7l-2 21l-2 10l-6 39q0 35 86 125l115 -139q-7 -11 -23 -29l-26 -20h200z
M508 0q-55 55 -57 63q-7 13 -7 37v588h-299q43 -49 64 -59q8 -6 39 -17q41 -22 41 -82v-430q0 -30 -19 -55l-47 -45h285z" />
    <glyph glyph-name="idieresis" unicode="&#xef;" horiz-adv-x="609" 
d="M561 981q0 -70 -55 -94l-78 -78q-33 -33 -102 -33h-7q-104 0 -120 92l-60 -59q-34 -33 -102 -33h-6q-109 0 -121 101q0 40 27 67l75 76q25 59 123 70q117 0 135 -101l31 31q25 59 123 70q121 0 137 -105v-4zM541 -31h-21l-96 -96h-404l86 86h-2q5 8 7 10h-2l6 6
q4 14 4 23v430q0 43 -29 59q-33 12 -43 19q-23 16 -98 104l98 99q-4 2 -8 10h393v-619q0 -16 6 -28zM530 981q-13 82 -104 78q-100 -4 -100 -78q10 -82 102 -78q102 4 102 78zM242 981q-14 82 -105 78q-100 -4 -100 -78q10 -81 102 -78q103 3 103 78zM465 0q-55 51 -57 63
q-7 13 -7 37v588h-299q41 -49 62 -59q8 -6 39 -17q43 -22 43 -82v-430q0 -34 -21 -55l-45 -45h285z" />
    <glyph glyph-name="eth" unicode="&#xf0;" horiz-adv-x="1025" 
d="M977 1081q-58 -148 -141 -198q67 -146 67 -308q0 -35 -4 -71v-8q0 -89 -43 -209q-48 -135 -133 -214q-25 -24 -51 -44l-49 -49q-119 -119 -293 -119h-15q-186 0 -307 168q-86 120 -86 243q0 156 94 250l58 58q49 73 129 114q48 91 65 113q12 15 21 22l61 62q10 12 29 37
q-47 20 -94 20q-74 0 -205 -71q-34 96 -70 122l-155 113l98 98l-14 11l380 -11q271 -8 429 -196q17 3 75 22q69 50 109 82zM516 713q-4 14 -12 41h-33q-18 0 -39 -4q-16 -4 -47 -13h18q55 0 113 -24zM946 1090q-43 -29 -110 -82q-37 -19 -99 -27q-148 191 -418 199l-282 8
l90 -66q42 -31 68 -106q108 59 192 59q119 0 186 -94l-43 -4q-77 -7 -141 -84q-31 -37 -72 -127l111 74q87 41 145 41h23q14 0 29 -2q43 -127 43 -281q0 -49 -4 -94q-39 -439 -238 -436q-108 1 -160 102q-44 84 -33 197q8 90 56 161q57 85 147 82q45 -1 103 -45
q75 -56 86 -155q8 34 8 73q0 101 -64 160q-68 61 -166 64q-152 4 -253 -86t-101 -246q0 -117 82 -230q110 -151 287 -157q206 -6 327 155q101 135 123 355q4 40 4 77q0 177 -77 320q56 25 94 82q27 41 57 113zM522 295l-24 2q-11 95 -76 145q-48 37 -90 41h-4q-17 0 -33 -4
q-24 -52 -31 -117q-2 -8 -2 -20v-16q0 -80 31 -140q45 -88 133 -88h2q21 0 43 6q33 70 51 191z" />
    <glyph glyph-name="ntilde" unicode="&#xf1;" horiz-adv-x="888" 
d="M817 1004q-66 -70 -106 -101l-39 -39q-45 -45 -86 -69q-60 -35 -119 -35q-34 0 -49 4l-62 16q-102 45 -133 54q-24 4 -49 4t-53 -4l-219 -52l92 92l-10 -2q51 50 101 99q69 65 110 88v-2q59 33 124 33q31 0 56 -5l59 -18l113 -49q57 -6 90 -6h20q20 6 127 39zM840 -43
h-15l-96 -96h-323l2 102q81 150 81 311q0 197 -174 197q-8 0 -24 -4v-340q0 -21 8 -31l66 -45l14 -94h-12l-97 -96h-397l96 96h-8l16 16v500q0 29 -104 127l98 98l-10 11h330v-35q104 47 221 47q176 0 281 -174q28 -61 28 -172q0 -82 -76 -240v-8q3 -12 62 -68zM791 1020
q-125 -39 -134.5 -39.5t-22.5 -0.5q-38 0 -97 9l-109 47l-66 19q-85 13 -161 -31q-41 -24 -113 -94l129 31q32 4 59 4q26 0 52 -4q45 -12 137 -54l63 -16q20 -5 41 -5q51 0 107 32q44 26 115 102zM799 -12l-19 55q-65 61 -65 86l2 18q74 156 74 228q0 88 -25 153
q-98 162 -254 162q-141 0 -252 -67v55h-223q67 -66 67 -103v-489q0 -34 -20 -53l-47 -45h307l-8 47l-57 39q-19 20 -19 53v379q0 21 51 53q62 39 107 39q198 0 198 -221q0 -170 -81 -320l-3 -69h267z" />
    <glyph glyph-name="ograve" unicode="&#xf2;" horiz-adv-x="894" 
d="M686 838h-18l-97 -97h-270l27 50q0 6 -13 26q-56 84 -92.5 118t-124.5 83l21 88l92 92l4 16h254l55 -124q52 -117 162 -252zM846 344q0 -185 -123 -291q-11 -10 -33 -26l-53 -54l-21 -18q-112 -100 -292 -100q-182 0 -295 102q-119 106 -119 285q0 174 102 274l58 57
q22 35 55 64q111 100 301 100q178 0 297 -104q123 -107 123 -289zM621 868q-70 83 -125 209l-47 107h-207l-13 -51q79 -44 121 -84q35 -33 88 -117q17 -27 17 -39l-11 -25h177zM815 344q0 166 -113 266q-110 97 -276 97q-177 0 -280 -92q-109 -96 -109 -271q0 -169 111 -268
q107 -94 278 -94t276 94q113 101 113 268zM641 344q0 -114 -49 -192q-58 -93 -166 -93q-113 0 -170 97q-47 79 -47 188q0 116 49 194q58 91 168 91q107 0 166 -92q49 -76 49 -193zM514 242q0 104 -42 175q-50 85 -148 85q-33 0 -56 -8q-28 -56 -28 -150q0 -101 42 -170
q50 -84 144 -84q33 0 63 12q25 58 25 140z" />
    <glyph glyph-name="oacute" unicode="&#xf3;" horiz-adv-x="894" 
d="M651 1139l-14 -31q-8 -4 -21 -12l-86 -86q-12 -9 -23 -15l-22 -12q-33 -44 -59 -88l29 -57h-17l-96 -97h-268q103 127 155 244l54 121l90 90l8 18h254zM846 344q0 -185 -123 -291q-11 -10 -33 -26l-53 -54q-4 -3 -12 -10l-9 -8q-112 -100 -292 -100q-182 0 -295 102
q-119 106 -119 285q0 174 102 274l58 57q22 35 55 64q111 100 301 100q178 0 297 -104q123 -107 123 -289zM621 1133l-13 51h-207l-47 -107q-55 -126 -125 -209h177l-11 25q0 13 17 39q57 88 88 117q40 39 121 84zM815 344q0 166 -113 266q-110 97 -276 97q-177 0 -280 -92
q-109 -96 -109 -271q0 -169 111 -268q107 -94 278 -94t276 94q113 101 113 268zM115 618q-4 -3 -11 -10zM641 344q0 -114 -49 -192q-58 -93 -166 -93q-113 0 -170 97q-47 79 -47 188q0 116 49 194q58 91 168 91q107 0 166 -92q49 -76 49 -193zM514 242q0 104 -42 175
q-50 85 -148 85q-33 0 -56 -8q-28 -56 -28 -150q0 -101 42 -170q50 -84 144 -84q33 0 63 12q25 58 25 140z" />
    <glyph glyph-name="ocircumflex" unicode="&#xf4;" horiz-adv-x="894" 
d="M774 848h-16l-96 -96h-328l86 86l-4 6l-4 4q-4 1 -4 4l2 -18q-9 0 -13 2l-96 -97q-19 3 -51 13h-295l96 96h-12q59 43 110 84q33 27 95 82l2 2q21 21 92 114l76 76q10 15 26 35q55 -61 166 -180q77 -81 168 -213zM846 344q0 -185 -123 -291q-11 -10 -33 -26l-53 -54
q-4 -3 -12 -10l-9 -8q-112 -100 -292 -100q-182 0 -295 102q-119 106 -119 285q0 174 102 274l58 57q22 35 55 64q111 100 301 100q178 0 297 -104q123 -107 123 -289zM717 879q-52 75 -133 161q-120 127 -142 154q-29 -41 -77 -94q-21 -19 -66 -76q-94 -90 -166 -145h223
q2 -5 19 -7l-2 21l-2 10l-6 39q0 35 86 125l112 -139q-14 -25 -20 -29l-29 -20h203zM815 344q0 166 -113 266q-110 97 -276 97q-177 0 -280 -92q-109 -96 -109 -271q0 -169 111 -268q107 -94 278 -94t276 94q113 101 113 268zM115 618q-4 -3 -11 -10zM641 344
q0 -114 -49 -192q-58 -93 -166 -93q-113 0 -170 97q-47 79 -47 188q0 116 49 194q58 91 168 91q107 0 166 -92q49 -76 49 -193zM514 242q0 104 -42 175q-50 85 -148 85q-33 0 -56 -8q-28 -56 -28 -150q0 -101 42 -170q50 -84 144 -84q33 0 63 12q25 58 25 140z" />
    <glyph glyph-name="otilde" unicode="&#xf5;" horiz-adv-x="894" 
d="M803 1004q-68 -72 -113 -105l-22 -22q-60 -60 -97 -82q-59 -35 -120 -35q-35 0 -50 4l-61 16q-50 24 -133 54q-22 4 -49 4q-21 0 -49 -4h-3l-219 -52l93 92l-11 -2q75 74 199 179q63 39 135 39q38 0 55 -5l62 -18l112 -49q58 -6 91 -6h20q20 6 127 39zM846 344
q0 -185 -123 -291q-11 -10 -33 -26l-53 -54l-21 -18q-112 -100 -292 -100q-182 0 -295 102q-119 106 -119 285q0 174 102 274l58 57q22 35 55 64q111 100 301 100q178 0 297 -104q123 -107 123 -289zM762 971l-21 -21q13 8 21 21zM776 1020q-125 -39 -134 -39.5t-22 -0.5
q-38 0 -98 9l-108 47l-68 19q-88 14 -162 -31q-31 -19 -110 -94l129 31q32 4 57 4q34 0 53 -4q29 -6 136 -54l63 -16q21 -5 42 -5q53 0 108 32q39 23 114 102zM815 344q0 166 -113 266q-110 97 -276 97q-177 0 -280 -92q-109 -96 -109 -271q0 -169 111 -268q107 -94 278 -94
t276 94q113 101 113 268zM641 344q0 -114 -49 -192q-58 -93 -166 -93q-113 0 -170 97q-47 79 -47 188q0 116 49 194q58 91 168 91q107 0 166 -92q49 -76 49 -193zM514 242q0 104 -42 175q-50 85 -148 85q-33 0 -56 -8q-28 -56 -28 -150q0 -101 42 -170q50 -84 144 -84
q33 0 63 12q25 58 25 140z" />
    <glyph glyph-name="odieresis" unicode="&#xf6;" horiz-adv-x="894" 
d="M702 981q0 -70 -55 -94l-78 -78q-33 -33 -102 -33h-6q-105 0 -121 92l-59 -59q-33 -33 -103 -33h-6q-109 0 -123 98q0 43 27 70l78 78q24 57 122 68q117 0 136 -101l30 31q25 59 123 70q121 0 137 -107v-2zM846 344q0 -185 -123 -291q-11 -10 -33 -26l-53 -54l-21 -18
q-112 -100 -292 -100q-182 0 -295 102q-119 106 -119 285q0 174 102 274l58 57q22 35 55 64q111 100 301 100q178 0 297 -104q123 -107 123 -289zM672 981q-10 82 -105 78q-100 -4 -100 -78q10 -82 102 -78q103 4 103 78zM383 981q-10 78 -104 78q-103 -10 -103 -78
q12 -81 105 -78q102 3 102 78zM815 344q0 166 -113 266q-110 97 -276 97q-177 0 -280 -92q-109 -96 -109 -271q0 -169 111 -268q107 -94 278 -94t276 94q113 101 113 268zM641 344q0 -114 -49 -192q-58 -93 -166 -93q-113 0 -170 97q-47 79 -47 188q0 116 49 194
q58 91 168 91q107 0 166 -92q49 -76 49 -193zM514 242q0 104 -42 175q-50 85 -148 85q-33 0 -56 -8q-28 -56 -28 -150q0 -101 42 -170q50 -84 144 -84q33 0 63 12q25 58 25 140z" />
    <glyph glyph-name="divide" unicode="&#xf7;" horiz-adv-x="918" 
d="M870 739l-198 -188h-4l-101 -96h-30q8 -23 12 -49v-5q0 -79 -62 -110l-77 -78q-34 -34 -93 -35q-118 -1 -131 117q0 57 31 88l72 72h-416l96 96h-8l199 188h35q-5 15 -9 45q0 53 31 84l76 76q29 62 121 72q121 0 135 -121v-4q0 -80 -62 -111l-41 -41h424zM518 891
q-12 94 -102 94q-103 -10 -103 -96q9 -98 105 -94q100 4 100 96zM795 709h-623l-135 -127h622zM518 401q-12 97 -102 97q-103 -11 -103 -99q9 -98 105 -94q100 4 100 96z" />
    <glyph glyph-name="oslash" unicode="&#xf8;" horiz-adv-x="896" 
d="M848 344q0 -179 -123 -291q-14 -10 -41 -33l-66 -65q-107 -105 -294 -105q-52 0 -86 9q-2 -4 -1 -9q1 -4 1 -8h-13l-96 -96h-244l121 164l29 47q-123 111 -123 285q0 171 111 284l51 52q27 36 53 61q107 100 276 106l-4 11l97 96l-2 8q74 43 94 43h252l-148 -239
q156 -119 156 -320zM817 344q0 213 -166 311l133 217h-196q-15 0 -53 -22l24 -47l19 -31l4 -12l-9 -25l-18 -39q-68 19 -129 19q-173 0 -279 -98q-108 -101 -108 -273q0 -178 131 -283l-41 -63l-92 -125h170q0 37 55 133q80 -29 164 -29q170 0 278 98q113 101 113 269z
M629 -33l-6 -6zM643 344q0 -112 -47 -190q-60 -99 -170 -99q-35 0 -72 13q-26 12 -45 26l279 455q55 -80 55 -205zM508 618l-266 -434q-31 70 -31 160q0 114 47 195q57 98 168 98q47 0 82 -19zM369 502q-22 8 -45 8q-28 0 -50 -8q-32 -64 -32 -158v-25q0 -10 2 -22zM516 242
q0 63 -14 108l-150 -246q8 -6 17 -8v-2q24 -8 57 -8q35 0 66 12q24 58 24 144z" />
    <glyph glyph-name="ugrave" unicode="&#xf9;" horiz-adv-x="828" 
d="M653 838h-18l-96 -97h-271l27 50q0 5 -12 24q-85 132 -217 205l20 86l92 92l4 16h254l56 -124q60 -134 161 -252zM780 723l-28 -100q-54 -50 -64 -72v-6l60 -94q30 -72 30 -146q0 -199 -109 -277l-14 -10l-67 -67q-4 -3 -13 -10q-95 -84 -266 -84h-28q-154 0 -250 65
q-55 38 -86 125q-27 77 -27 148q0 75 76 233v12q-6 19 -62 74l-30 92l98 96l-4 13h340l-6 -113q-82 -149 -82 -307q0 -129 33 -156q30 -41 145 -45q2 1 6 2t6 2q21 55 21 105q0 153 -101 305l-22 106l96 97l-2 12h350zM588 868q-68 79 -125 209l-47 107h-207l-12 -51
q125 -71 209 -201q16 -25 16 -39l-10 -25h176zM748 305q0 70 -27 129l-62 101l-4 16q2 24 68 86l16 55h-270l14 -71q103 -152 103 -316q0 -78 -43 -164l-2 -2v6q-15 -16 -17 -22q-26 -37 -88 -57l-4 -3q-135 5 -174 56q-41 35 -41 176q0 170 82 319l4 70h-266l18 -55
q64 -64 66 -86l-2 -19q-74 -159 -74 -227q0 -70 24 -138q29 -79 78 -114q97 -69 265 -61q172 9 250 77q86 76 86 244z" />
    <glyph glyph-name="uacute" unicode="&#xfa;" horiz-adv-x="828" 
d="M618 1139l-14 -33q-8 -6 -24 -14l-82 -82q-18 -9 -52 -31q-31 -40 -43 -64q-10 -15 -10 -20l29 -57h-16l-97 -97h-268q107 132 156 244l53 121l90 90l8 18h254zM780 723l-28 -100q-54 -50 -64 -72v-6l60 -94q30 -72 30 -146q0 -199 -109 -277l-14 -10l-67 -67
q-4 -2 -5.5 -3l-4.5 -3l-3 -4q-94 -84 -266 -84h-28q-154 0 -250 65q-55 38 -86 125q-27 77 -27 148q0 75 76 233v12q-6 19 -62 74l-30 92l98 96l-4 13h340l-6 -113q-82 -149 -82 -307q0 -129 33 -156q30 -41 145 -45q2 1 6 2t6 2q21 55 21 105q0 153 -101 305l-22 106
l96 97l-2 12h350zM588 1133l-13 51h-206l-47 -107q-54 -123 -125 -209h176l-11 25q0 12 17 39q52 83 88 117q44 41 121 84zM748 305q0 70 -27 129l-62 101l-4 16q2 24 68 86l16 55h-270l14 -71q103 -152 103 -316q0 -78 -43 -164l-2 -2v6q-15 -16 -17 -22q-26 -37 -88 -57
l-4 -3q-135 5 -174 56q-41 35 -41 176q0 170 82 319l4 70h-266l18 -55q64 -64 66 -86l-2 -19q-74 -159 -74 -227q0 -70 24 -138q29 -79 78 -114q97 -69 265 -61q172 9 250 77q86 76 86 244z" />
    <glyph glyph-name="ucircumflex" unicode="&#xfb;" horiz-adv-x="828" 
d="M739 848h-16l-96 -96h-326l86 86l-4 6l-8 8l2 -18q-8 0 -12 2l-97 -97q-19 3 -51 13h-295l96 96h-12q79 57 209 170q31 38 92 117l76 75l12 18q6 9 15 19q48 -66 163 -186q74 -77 166 -213zM780 723l-28 -100q-54 -50 -64 -72v-6l60 -94q30 -72 30 -146q0 -199 -109 -277
l-14 -10l-67 -67q-4 -3 -13 -10q-95 -84 -266 -84h-28q-154 0 -250 65q-55 38 -86 125q-27 77 -27 148q0 75 76 233v12q-6 19 -62 74l-30 92l98 96l-4 13h340l-6 -113q-82 -149 -82 -307q0 -129 33 -156q30 -41 145 -45q2 1 6 2t6 2q21 55 21 105q0 153 -101 305l-22 106
l96 97l-2 12h350zM682 879q-55 82 -131 161q-126 131 -141 154q-38 -52 -78 -94q-23 -25 -68 -76q-106 -102 -164 -145h224q2 -5 18 -7l-4 31l-2 12q-4 24 -4 27q0 35 86 125l112 -139q-7 -11 -20 -29l-29 -20h201zM748 305q0 70 -27 129l-62 101l-4 16q2 24 68 86l16 55
h-270l14 -71q103 -152 103 -316q0 -78 -43 -164l-2 -2v6q-15 -16 -17 -22q-26 -37 -88 -57l-4 -3q-135 5 -174 56q-41 35 -41 176q0 170 82 319l4 70h-266l18 -55q64 -64 66 -86l-2 -19q-74 -159 -74 -227q0 -70 24 -138q29 -79 78 -114q97 -69 265 -61q172 9 250 77
q86 76 86 244z" />
    <glyph glyph-name="udieresis" unicode="&#xfc;" horiz-adv-x="828" 
d="M670 981q0 -70 -56 -94l-77 -78q-33 -33 -103 -33h-6q-104 0 -123 90l-57 -57q-33 -33 -103 -33h-6q-108 0 -123 98q0 43 27 70l78 78q24 57 123 68q116 0 135 -99l31 31q24 57 122 68q121 0 138 -107v-2zM780 723l-28 -100q-54 -50 -64 -72v-6l60 -94q30 -72 30 -146
q0 -199 -109 -277l-14 -10l-67 -67q-4 -3 -13 -10q-95 -84 -266 -84h-28q-154 0 -250 65q-55 38 -86 125q-27 77 -27 148q0 75 76 233v12q-6 19 -62 74l-30 92l98 96l-4 13h340l-6 -113q-82 -149 -82 -307q0 -129 33 -156q30 -41 145 -45q2 1 6 2t6 2q21 55 21 105
q0 153 -101 305l-22 106l96 97l-2 12h350zM639 981q-10 78 -104 78q-103 -10 -103 -78q12 -81 105 -78q102 3 102 78zM350 981q-10 78 -104 78q-103 -10 -103 -78q13 -81 105 -78q102 3 102 78zM748 305q0 70 -27 129l-62 101l-4 16q2 24 68 86l16 55h-270l14 -71
q103 -152 103 -316q0 -78 -43 -164l-2 -2v6q-15 -16 -17 -22q-26 -37 -88 -57l-4 -3q-135 5 -174 56q-41 35 -41 176q0 170 82 319l4 70h-266l18 -55q64 -64 66 -86l-2 -19q-74 -159 -74 -227q0 -70 24 -138q29 -79 78 -114q97 -69 265 -61q172 9 250 77q86 76 86 244z" />
    <glyph glyph-name="yacute" unicode="&#xfd;" horiz-adv-x="970" 
d="M676 1139l-14 -31q-13 -8 -19 -10l-88 -88q-18 -11 -53 -33q-20 -24 -41 -62q-4 -7 -10 -18q2 0 2 -2v0l18 -57h-14l-97 -97h-262q110 131 158 244l51 121l90 90l9 18h253zM922 719l-80 -70l-39 -39q-4 -12 -4 -24v-498q0 -209 -60 -293l-28 -39q-50 -70 -115 -116
l-47 -48q-117 -120 -313 -120q-60 0 -95 8q-164 37 -233 168l194 223q-50 21 -90 57q-102 92 -102 260q0 68 31 146l12 24h-2q18 31 49 86q-10 29 -66 76l-20 90l96 97l-2 12h344l-24 -119q-88 -139 -88 -309q0 -92 41 -141q47 -56 131 -56q39 0 71 8v340q0 21 -10 37
l-63 43l-15 88l99 99l-2 10h430zM541 1032q-4 -3 -11 -10zM645 1133l-12 51h-207l-45 -107q-46 -110 -127 -209h176l-10 25q0 14 16 39q50 79 87.5 116.5t121.5 84.5zM840 688h-314l9 -49l57 -39q18 -25 18 -55v-387q0 -32 -57 -62q-63 -33 -141 -33q-99 0 -154 66
q-49 59 -49 162q0 184 90 323l14 74h-266l12 -53q64 -53 70 -90q-21 -41 -66 -121q-26 -66 -26 -133q0 -157 94 -242q90 -82 248 -82q108 0 231 74q-2 -47 -2 -76v-45q-3 -64 -26 -104q-30 -53 -92 -95q-65 -43 -123 -43q-81 0 -137 51t-56 128l-10 37l-123 -146
q57 -108 209 -141q36 -8 88 -8q217 0 348 176l29 39q53 71 53 274v498q0 35 20 57zM481 -180q0 10 -1 29q-1 20 1 49q-110 -58 -205 -58q-38 0 -71 6q6 -60 47 -96q46 -41 115 -41q39 0 98 37q10 21 16 74z" />
    <glyph glyph-name="thorn" unicode="&#xfe;" horiz-adv-x="974" 
d="M926 367q0 -214 -172 -349l-54 -53q-117 -115 -303 -115q-41 0 -73 7v-2q0 -47 16 -70q11 -16 201 -16l6 -58q-3 0 -7.5 -1t-7.5 -1l-94 -96q-221 -57 -270 -94v2q-59 -48 -115 -66q-43 49 -43 76v1135q0 24 -26 47q-43 39 -68 39l-8 92l96 96v10q59 10 190 80
q45 27 136 81q22 13 39 24l-13 -140q-32 -104 -32 -159v-123q82 30 176 30q188 0 313 -100h-2q115 -102 115 -276zM895 367q0 172 -115 264q-103 82 -280 82q-113 0 -207 -49v172q0 59 33 163l6 78q-47 -26 -137 -82q-62 -33 -77 -41q-50 -24 -81 -28l4 -47q10 0 61 -45
q35 -31 35 -66v-1135q0 -20 27 -49q29 9 92 58q45 35 272 96q-194 0 -213 29q-22 33 -22 88v176q88 -54 207 -54q177 0 286 106.5t109 283.5zM723 367q0 -101 -59 -199q-67 -111 -164 -111q-53 0 -127 47q-80 51 -80 103v305q0 39 63 74q85 47 144 47q107 0 168 -82
q55 -73 55 -184zM596 264q0 101 -51 170q-54 72 -148 72q-31 0 -73 -19v-280q0 -33 86 -88h-2q55 -31 92 -31q26 0 55 12q41 78 41 164z" />
    <glyph glyph-name="ydieresis" unicode="&#xff;" horiz-adv-x="970" 
d="M727 981q0 -68 -53 -92l-80 -80q-33 -33 -100 -33h-7q-106 0 -122 92l-60 -59q-34 -33 -102 -33h-6q-109 0 -121 101q0 41 26 67l76 76q25 59 123 70q117 0 135 -101l31 31q25 59 123 70q121 0 137 -107v-2zM922 719l-80 -70l-39 -39q-4 -12 -4 -24v-498q0 -209 -60 -293
l-28 -39q-50 -70 -115 -116l-47 -48q-117 -120 -313 -120q-60 0 -95 8q-164 37 -233 168l194 223q-50 21 -90 57q-102 92 -102 260q0 68 31 146l12 24h-2q18 31 49 86q-10 29 -66 76l-20 90l96 97l-2 12h344l-24 -119q-88 -139 -88 -309q0 -92 41 -141q47 -56 131 -56
q39 0 71 8v340q0 21 -10 37l-63 43l-15 88l99 99l-2 10h430zM696 981q-10 82 -104 78q-100 -4 -100 -78q10 -80 104 -78q100 2 100 78zM408 981q-12 82 -105 78q-100 -4 -100 -78q10 -82 102 -78q103 4 103 78zM840 688h-314l9 -49l57 -39q18 -25 18 -55v-387q0 -32 -57 -62
q-63 -33 -141 -33q-99 0 -154 66q-49 59 -49 162q0 184 90 323l14 74h-266l12 -53q64 -53 70 -90q-21 -41 -66 -121q-26 -66 -26 -133q0 -157 94 -242q90 -82 248 -82q108 0 231 74q-2 -47 -2 -76v-45q-3 -64 -26 -104q-30 -53 -92 -95q-65 -43 -123 -43q-81 0 -137 51
t-56 128l-10 37l-123 -146q57 -108 209 -141q36 -8 88 -8q217 0 348 176l29 39q53 71 53 274v498q0 35 20 57zM481 -182v2q0 10 -1 29q-1 20 1 49q-110 -58 -205 -58q-38 0 -71 6q6 -60 47 -96q46 -41 115 -41q39 0 98 37q11 21 16 72z" />
    <glyph glyph-name="OE" unicode="&#x152;" horiz-adv-x="1830" 
d="M1782 1214q-43 -79 -43 -102l14 -121l-14 4l-97 -96l-92 39q-69 66 -180 94l-37 4l-41 2l-102 -2v-252h569l-78 -170l-116 -145l-4 4l-97 -96q-86 155 -221 155h-47q-2 -18 -6 -53v-366l278 2v2q113 26 183 94l102 43l-14 -123q0 -18 37 -88v-27q-14 -24 -20 -31
q-14 -16 -30 -20l-81 -82q-16 -16 -39 -16h-777l-55 65l53 54q-153 -121 -327 -121q-241 0 -406 162q-184 181 -184 483q0 299 180 479l41 41q28 36 62 70q168 164 409 164q143 0 260 -58l37 37l31 39h778q41 0 74 -68zM1747 29q-39 75 -39 104l8 72l-49 -21
q-74 -69 -188 -98l-41 -4h-246l-33 4v397q10 78 10 129v25q0 12 -2 22h179q147 0 225 -137l80 101l59 131h-551v405l33 4h246l41 -4q114 -29 188 -98l49 -21l-8 70q0 31 39 107q-16 34 -39 34h-766l-29 -37l68 -49q31 -41 31 -84v-24q-164 176 -410 176q-230 0 -389 -156
q-176 -173 -176 -465q0 -290 176 -465q156 -155 389 -155q217 0 410 205v-29q-2 -14 -2 -25v-18q-6 -16 -29 -45l-68 -49l31 -37h764q23 0 39 35zM995 612q0 -212 -88 -356q-105 -172 -305 -172q-199 0 -305 172q-88 143 -88 356q0 215 88 359q104 170 305 170
q194 0 301 -174q92 -150 92 -355zM868 510q0 201 -88 342q-101 162 -280 162q-92 0 -162 -37q-4 -9 -14 -23q-84 -131 -84 -342q0 -210 84 -340q101 -157 278 -157q109 0 182 53q84 131 84 342z" />
    <glyph glyph-name="oe" unicode="&#x153;" horiz-adv-x="1463" 
d="M1415 268q-63 -174 -178 -254l-53 -53q-106 -106 -269 -106t-280 118q-119 -118 -311 -118q-182 0 -295 102q-119 106 -119 285q0 174 102 274l58 57q22 35 55 64q111 100 301 100q174 0 301 -110q113 110 283 110q134 0 223 -73q65 -53 133 -230l-16 -4l-95 -94
l-393 -70q15 -41 49 -84q61 -76 164 -76q90 0 159 49q7 5 15 11l11 16l88 88q4 8 12 23zM1384 272q-48 -88 -129 -141q-84 -55 -180 -55q-114 0 -185 87t-71 199v7l506 90q-89 248 -315 248q-179 0 -281 -121q-115 121 -303 121q-177 0 -280 -92q-109 -96 -109 -271
q0 -169 111 -268q107 -94 278 -94q199 0 311 131q117 -131 281 -131q262 0 366 290zM115 618q-4 -3 -11 -10zM1153 516l-338 -65q16 33 45 100q41 66 125 78q56 8 106 -25t62 -88zM641 344q0 -114 -49 -192q-58 -93 -166 -93q-113 0 -170 97q-47 79 -47 188q0 116 49 194
q58 91 168 91q107 0 166 -92q49 -76 49 -193zM922 502q-7 2 -19 2q-3 0 -9 -1t-9 -1q-6 -2 -17 -2l-2 -8zM514 242q0 104 -42 175q-50 85 -148 85q-33 0 -56 -8q-28 -56 -28 -150q0 -101 42 -170q50 -84 144 -84q33 0 63 12q25 58 25 140z" />
    <glyph glyph-name="Scaron" unicode="&#x160;" horiz-adv-x="1047" 
d="M999 362q0 -176 -139 -278l-61 -61q-36 -36 -90 -66q-154 -86 -357 -86q-196 0 -450 102q33 76 65 148q10 33 10 182l97 96v13l53 12q147 -299 369 -299q100 0 159 20q2 9 2 23q0 127 -155 184l-344 88q-242 88 -242 299q0 141 109 250l49 49q30 44 92 97q105 89 190 110
h4q-9 12 -26 35q-26 20 -68 76q-33 44 -219 186l98 98q-6 2 -14 11h305l64 14l-8 -63l38 38l-12 11h293l23 -45q-31 -43 -233 -271q-40 -45 -62 -75h6q198 0 395 -91l-35 -79q-20 -31 -28 -66h-3v-12q3 -17 3 -31v-23q0 -24 -13 -38q-20 -29 -76 -72l-47 -47
q-13 -13 -63 -53q-64 260 -297 260q-66 0 -107 -17q-16 -35 -16 -92q0 -98 150 -139l350 -96q241 -99 241 -302zM807 1620h-203l29 -23q5 -5 20 -26q-4 -4 -112 -139q-86 88 -86 124q0 1 4 25l2 12l4 31l-19 -4h-223q110 -80 164 -145l39 -46q16 -20 29 -30q50 -57 77 -94
q15 21 142 153q61 63 133 162zM315 1057l-8 -8zM969 362q0 185 -209 269l-361 98q-172 47 -172 170q0 116 72 176t184 60q256 0 314 -242q41 31 47 47q2 4 2 18v23q0 12 -2 29l2 24q8 37 31 68l22 51q-172 76 -354 76q-121 0 -180 -15q-81 -21 -179 -102
q-143 -119 -143 -270q0 -195 211 -271l356 -92q174 -63 174 -209q0 -176 -288 -176q-242 0 -392 301q0 -135 -8 -162q-2 -12 -59 -145q223 -90 418 -90q201 0 344 82q170 98 170 282z" />
    <glyph glyph-name="scaron" unicode="&#x161;" horiz-adv-x="748" 
d="M670 1174q-27 -41 -61 -82q-23 -28 -74 -86q-37 -38 -101 -108q-41 -48 -63 -79q-4 4 -4 6l-99 -98q-33 39 -94 119q-7 6 -53 58q-34 40 -90 90q-51 46 -142 116l99 98q-4 2 -13 11h304l55 20l-4 -72l41 41l-13 11h289zM700 201q0 -109 -104 -178l-61 -62
q-22 -22 -64 -47v2q-102 -57 -217 -57q-344 0 -344 299l96 96v12h10q-51 56 -51 135q0 84 55 138l64 63q30 51 88 86q80 49 205 49q264 0 305 -245q-5 -1 -14 -5l-95 -94q-12 -4 -28 -8q155 -61 155 -184zM643 1188h-201l27 -23q6 -2 23 -26q-5 -4 -113 -140q-86 88 -86 125
q0 3 4 25l2 12l2 33l-16 -6h-224q121 -92 164 -146q47 -58 68 -75q49 -55 78 -95q15 23 141 154q76 79 131 162zM362 438q-32 58 -83 64v-6q0 -33 83 -58zM670 201q0 137 -230 186q-192 41 -192 109q0 133 121 133q137 0 145 -168q53 37 133 55q-31 191 -270 191
q-115 0 -189 -45q-96 -59 -96 -158q0 -109 109 -162l134 -38q46 -13 50 -15q129 -41 129 -107q0 -60 -51 -92q-43 -27 -107 -27q-59 0 -100 35q-78 66 -78 142q0 24 8 43q-52 -20 -96 -33q-8 -4 -53 -14q0 -131 98 -195q84 -55 221 -55q109 0 205 53q109 60 109 162zM383 94
q-16 41 -109 70q2 0 -47 14q45 -84 129 -84h27z" />
    <glyph glyph-name="Ydieresis" unicode="&#x178;" horiz-adv-x="1348" 
d="M1300 1212q-126 -182 -253 -376q-37 -57 -256 -406l-361 -575q-13 -19 -29 -45q13 -5 19 -11h4q10 -5 31 -12l18 -6q54 -18 76 -94h-14l-97 -97l-405 -6l399 631l-143 268l-213 406l2 2q-38 47 -82 113q-28 38 -83 115q-15 22 -28 38l99 96q-4 4 -9 13h336q-11 23 -12 55
q-1 58 33 92l76 76q30 61 118 70q109 0 133 -107l37 37q31 61 119 70q119 0 135 -127v-2q0 -84 -63 -115l-76 -76q-29 -29 -90 -39q-113 0 -131 107l-68 -68q-12 -12 -28 -20q12 -13 20 -19q-80 -61 -80 -96q0 -103 236 -522l86 125q133 194 147 262v2q-8 52 -162 151l97 97
q-9 4 -13 8l146 30h307zM920 1430q-13 98 -103 98q-106 -10 -102 -103q4 -98 104 -98q101 14 101 103zM633 1430q-17 98 -105 98q-106 -10 -102 -103q4 -98 104 -98q103 12 103 103zM1274 1227h-297l-70 -15q117 -77 123 -139q-6 -68 -151 -278l-199 -289q-277 481 -277 598
q0 45 68 98q-33 33 -43 33h-391q154 -220 164 -231l362 -685l-383 -608l328 6q-6 27 -45 35q-20 6 -57 21q-9 6 -29 14q-8 6 -8 14q0 11 37 70l358 575q280 449 510 781z" />
    <glyph glyph-name="florin" unicode="&#x192;" horiz-adv-x="1009" 
d="M961 977l-15 -4l-94 -94l-43 -13q-20 0 -70 -30l-75 -45l-31 32l51 72q-14 31 -94 37q-11 -31 -15 -68l-12 -123l320 -2l-99 -155h-10l-96 -97h-137l-35 -391q-22 -244 -207 -379l-47 -49q-60 -62 -145 -98q-80 -33 -179 -37l-10 45l96 96l-2 11q45 19 103 59
q64 106 78 254l45 491l-175 -2l54 113l16 16q2 7 8 21q6 45 47 115l80 79q1 2 23 39v-2q13 29 35 58l80 80q6 9 18 26l70 62q102 90 241 90q81 0 156 -60q67 -54 70 -147zM635 1010q-3 -2 -8 -9zM928 999q-2 64 -67 111q-60 43 -126 43q-131 0 -221 -82l-65 -59
q-41 -56 -60 -150l-14 -149q-8 6 -23 14q-43 18 -65 72q-14 -25 -19 -61.5t-28 -51.5l-35 -72l162 4l-48 -520q-31 -338 -282 -438q184 10 305 133q116 118 133 305l47 518l246 -2l59 95l-297 2l15 155q9 90 61 150q37 43 76 43q121 0 131 -66l-51 -73l67 38q62 35 76 35z
" />
    <glyph glyph-name="circumflex" unicode="&#x2c6;" horiz-adv-x="683" 
d="M635 846l-37 -25l-80 -80l-178 -120q-78 24 -188 100q-46 -35 -158 -103l-105 70l99 98l-6 5l190 131l6 8l74 74q9 12 29 36q49 -43 145 -118l-2 2q47 -27 211 -78zM565 836q-107 32 -155 61q-29 18 -125 98q-51 -67 -113 -110l-135 -94l61 -41q59 33 156 104
q119 -84 184 -104z" />
    <glyph glyph-name="tilde" unicode="&#x2dc;" horiz-adv-x="812" 
d="M764 1210q-34 -36 -107 -100l-39 -39q-104 -104 -204 -104q-34 0 -49 4l-62 16q-102 45 -133 53q-24 4 -49 4q-23 0 -51 -4l-213 -51l94 92l-12 -2q62 64 192 181q70 36 135 36q34 0 56 -4l59 -18l113 -49q57 -6 90 -6h20q20 5 127 38zM737 1227q-125 -39 -134 -39.5
t-22 -0.5q-38 0 -98 9l-108 47l-66 19q-87 14 -162 -29q-33 -19 -110 -96l129 30q17 4 57 4q49 0 104 -21q33 -13 85 -36l63 -16q21 -5 42 -5q52 0 106 31q43 25 114 103z" />
    <glyph glyph-name="endash" unicode="&#x2013;" horiz-adv-x="859" 
d="M811 575l-45 -28l-80 -80l-213 -135h-623l97 96h-17l232 147h649zM705 545h-533l-135 -86h532z" />
    <glyph glyph-name="emdash" unicode="&#x2014;" horiz-adv-x="1222" 
d="M1174 575l-50 -30l-77 -78l-216 -135h-981l97 96h-17l232 147h1012zM1065 545h-893l-135 -86h891z" />
    <glyph glyph-name="quoteleft" unicode="&#x2018;" horiz-adv-x="327" 
d="M279 1286l-19 -63q-46 -61 -57 -113h14q49 0 55 -49v-45q0 -62 -67 -103l-72 -71q-40 -39 -98 -39q-125 0 -125 119q0 90 98 188l53 53l45 54q43 47 173 69zM242 1020v37q-4 22 -25 22h-51q0 72 65 156l5 12q-68 -10 -107 -51q-92 -96 -92 -172q0 -94 100 -94q41 0 73 24
t32 66z" />
    <glyph glyph-name="quoteright" unicode="&#x2019;" horiz-adv-x="320" 
d="M272 1151q0 -87 -100 -190q-12 -12 -41 -33l-74 -74q-47 -47 -151 -55l16 51q51 63 62 121h-27q-39 0 -47 43v41q0 53 29 82l77 77q29 64 125 64q131 0 131 -127zM41 1239q-3 -1 -8 -8zM242 1151q0 96 -101 96q-104 0 -104 -90v-37q4 -22 22 -22h54q0 -72 -66 -156
l-4 -12q63 6 107 51q92 94 92 170z" />
    <glyph glyph-name="quotesinglbase" unicode="&#x201a;" horiz-adv-x="320" 
d="M272 47q0 -87 -100 -190q-19 -20 -41 -33l-74 -74q-47 -47 -151 -55l16 51q51 68 62 121h-27q-39 0 -47 43v41q0 53 29 82l77 78q29 63 125 63q131 0 131 -127zM242 47q0 96 -101 96q-104 0 -104 -90v-37q4 -22 22 -22h54q0 -72 -66 -156l-4 -12q63 6 107 51
q92 94 92 170z" />
    <glyph glyph-name="quotedblleft" unicode="&#x201c;" horiz-adv-x="607" 
d="M559 1286l-20 -67q-43 -52 -60 -109h19q47 0 53 -53v-13q0 -8 2 -22v-2q0 -71 -66 -105l-73 -73q-39 -39 -99 -39q-114 0 -127 94l-55 -55q-39 -39 -98 -39q-125 0 -125 119q0 90 98 188l53 53l45 54q43 47 173 69l-19 -63q-46 -61 -57 -113h14q33 0 45 -25l78 78
q22 29 74 77q47 29 145 46zM522 1020q-2 14 -2 22v13q-4 24 -22 24h-54q0 72 68 156l4 12q-68 -10 -108 -51q-93 -95 -93 -172q0 -94 103 -94q42 0 73 24.5t31 65.5zM242 1020v35q-4 24 -25 24h-51q0 72 65 156l5 12q-68 -10 -107 -51q-92 -96 -92 -172q0 -94 100 -94
q41 0 73 24t32 66z" />
    <glyph glyph-name="quotedblright" unicode="&#x201d;" horiz-adv-x="601" 
d="M553 1151q0 -88 -100 -190q-16 -17 -35 -27l-72 -72q-51 -51 -170 -63l25 47q53 66 61 125h-24q-29 0 -41 16q-19 -22 -66 -59l-74 -74q-47 -47 -151 -55l16 51q51 63 62 121h-27q-39 0 -47 43v41q0 53 29 82l77 77q29 64 125 64q109 0 127 -90l27 26q29 64 127 64
q131 0 131 -127zM522 1151q0 96 -100 96q-107 0 -107 -90v-37q4 -22 25 -22h53q-4 -76 -65 -156l-6 -12q65 6 108 51q92 96 92 170zM242 1151q0 96 -101 96q-104 0 -104 -90v-37q4 -22 22 -22h54q0 -72 -66 -156l-4 -12q63 6 107 51q92 94 92 170z" />
    <glyph glyph-name="quotedblbase" unicode="&#x201e;" horiz-adv-x="611" 
d="M563 47q0 -108 -116 -204q-9 -7 -19 -11l-72 -74q-49 -51 -170 -63l25 47q51 68 61 125h-24q-35 0 -45 24q-36 -45 -72 -67l-74 -74q-47 -47 -151 -55l16 51q51 68 62 121h-27q-39 0 -47 43v41q0 53 29 82l77 78q29 63 125 63q113 0 129 -98l35 35q29 63 125 63
q133 0 133 -127zM532 47q0 96 -102 96q-104 0 -104 -90v-37q4 -22 24 -22h53q-4 -76 -65 -156l-6 -12q65 6 108 51q92 96 92 170zM242 47q0 96 -101 96q-104 0 -104 -90v-37q4 -22 22 -22h54q0 -72 -66 -156l-4 -12q63 6 107 51q92 94 92 170z" />
    <glyph glyph-name="dagger" unicode="&#x2020;" horiz-adv-x="804" 
d="M756 928q-64 -39 -68 -103h-12l-96 -96h-95v-803q0 -63 7 -86q6 -19 45 -92q3 -8 10 -24h-15l-96 -97h-295q45 88 54 117v2l4 78v905h-355l97 96h-19q34 20 66 41q2 3 2 8l92 93q2 5 6 16h109l-2 37q-7 35 -54 119l99 98q-3 3 -7 10h314q-3 -8 -10 -24q-20 -37 -45 -93
q-7 -22 -7 -86v-61h254zM735 952h-280v92q0 66 6 91t35 82h-211q30 -56 37 -91l4 -82v-92h-213q-15 -61 -76 -96h289l-4 -1012q-7 -34 -37 -90h211q-30 57 -35.5 81.5t-5.5 90.5v930h204q5 51 76 96z" />
    <glyph glyph-name="daggerdbl" unicode="&#x2021;" horiz-adv-x="890" 
d="M842 983q-25 -15 -54 -37l-71 -72l-12 -6q-17 -26 -17 -43h-12l-96 -96h-95v-596h254l17 -55q-64 -39 -68 -103h-12l-96 -96h-95q4 -27 7 -39q5 -16 45 -92q3 -8 10 -24h-15l-96 -97h-295q45 88 54 117v2l4 80v53h-355l97 96h-19q34 20 66 41q2 3 2 9l92 92q2 5 6 16h111
v596h-355l97 96h-19q34 20 66 41q2 3 2 8l92 93q2 5 6 16h109l-2 37q-7 35 -54 119l99 98q-3 3 -7 10h314q-3 -8 -10 -24q-20 -37 -45 -93q-7 -22 -7 -86v-61h357zM735 102h-280v754h204q5 51 76 96h-280v92q0 66 6 91t35 82h-211q30 -56 37 -91l4 -82v-92h-213
q-15 -61 -76 -96h289v-754h-213q-15 -61 -76 -96h289v-80l-4 -82q-7 -34 -37 -90h211q-30 57 -35.5 81.5t-5.5 90.5v80h204q5 51 76 96z" />
    <glyph glyph-name="bullet" unicode="&#x2022;" horiz-adv-x="757" 
d="M709 762q0 -144 -105 -238q-20 -18 -33 -26l-57 -58q-5 -5 -16 -14q-100 -88 -244 -88q-146 0 -245 86.5t-99 234.5q0 130 84 215l63 64q18 28 56 61q102 88 245 88q146 0 246 -86q105 -90 105 -239zM678 762q0 135 -94 217q-89 78 -226 78q-135 0 -225 -80
q-96 -86 -96 -215q0 -136 93 -218q88 -79 226 -79q136 0 229 83t93 214z" />
    <glyph glyph-name="ellipsis" unicode="&#x2026;" horiz-adv-x="1070" 
d="M1022 72q0 -54 -66 -103q-4 -2 -5.5 -3l-4.5 -3l-63 -63q-6 -3 -15 -11l-4 -6q-41 -24 -86 -24q-137 0 -137 110q0 43 29 72l78 78q35 69 133 69q56 0 92 -26q49 -36 49 -90zM653 72q0 -54 -65 -103q-4 -2 -5.5 -3l-4.5 -3l-64 -63q-5 -3 -14 -11l-4 -6q-41 -24 -86 -24
q-136 0 -136 110q0 51 27 78l80 80q27 61 131 61q57 0 92 -26q49 -36 49 -90zM289 72q0 -54 -66 -103q-4 -2 -5.5 -3l-4.5 -3l-63 -63q-10 -8 -19 -17q-41 -24 -86 -24q-135 0 -135 110q0 43 31 74l75 76q13 24 37 43q41 26 94 26q57 0 93 -26q49 -36 49 -90zM991 72
q0 39 -37 65q-30 21 -73 21q-44 0 -76 -21q-37 -24 -37 -65q0 -86 113 -86q44 0 73 20q37 25 37 66zM623 72q0 40 -37 65q-31 21 -74 21q-111 0 -111 -86t111 -86q44 0 74 20q37 25 37 66zM258 72q0 39 -37 65q-30 21 -74 21q-110 0 -110 -86t110 -86q44 0 74 20
q37 25 37 66z" />
    <glyph glyph-name="perthousand" unicode="&#x2030;" horiz-adv-x="1838" 
d="M1790 256q0 -164 -123 -248l-65 -65q-84 -84 -228 -84q-216 0 -287 172q-10 -9 -32 -25l-62 -61q-87 -86 -229 -86q-138 0 -222.5 79t-84.5 216q0 129 82 211l61 61q87 133 266 133q228 0 293 -184l51 51q89 133 267 133q142 0 227.5 -81t85.5 -222zM1157 1260
l-801 -1096q0 -4 -20 -25q-6 -6 -41 -63q-29 -47 -53 -107h-11l-96 -96h-270l96 96h-10q33 28 98 82l434 596q-47 -43 -98 -62q-57 -22 -129 -22q-138 0 -221 78q-86 80 -86 217q0 130 80 211l63 64q88 131 266 131q142 0 228 -81t86 -222q0 -37 -6 -70q59 90 63 133l-14 23
l-15 36q0 33 17 50l84 84q12 43 76 43h280zM815 1231zM1759 256q0 129 -76 200.5t-206 71.5q-124 0 -203.5 -74.5t-79.5 -197.5q0 -127 79 -199q76 -71 204 -71q126 0 204 72.5t78 197.5zM641 961q0 129 -76.5 200.5t-206.5 71.5q-125 0 -203.5 -73.5t-78.5 -198.5
q0 -127 77 -199t205 -72q127 0 205 72.5t78 198.5zM1096 1229h-219q-50 0 -50 -39l13 -31l16 -26v-5q0 -57 -92 -182l-598 -815q-14 -19 -60 -68q-32 -34 -69 -63h184q12 34 47 94q1 1 64 88zM1151 256q0 129 -79 202q-76 70 -206 70q-124 0 -203 -74.5t-79 -197.5
q0 -127 77 -198.5t205 -71.5q126 0 205.5 72.5t79.5 197.5zM1624 256q0 -77 -34 -134q-40 -67 -113 -67t-115 66q-33 52 -33 135q0 78 33 133q41 68 115 68q72 0 114 -66q33 -52 33 -135zM506 961q0 -80 -33 -134q-40 -65 -115 -65q-145 0 -145 199q0 79 32 134
q39 66 113 66q76 0 115 -65q33 -54 33 -135zM1014 256q0 -80 -33 -135q-40 -66 -115 -66q-72 0 -114 66q-33 52 -33 135q0 78 33 133q41 68 114 68t115 -66q33 -52 33 -135zM1497 154q0 74 -29 120q-36 56 -94 56h-6q-8 -31 -8 -74q0 -170 117 -170h12q8 32 8 68zM379 858
q0 76 -29 123q-32 53 -94 53h-4q-8 -30 -8 -73q0 -168 114 -168h15q6 30 6 65zM887 154q0 75 -29 120q-36 56 -94 56h-6q-8 -31 -8 -74q0 -170 116 -170h15q6 31 6 68z" />
    <glyph glyph-name="guilsinglleft" unicode="&#x2039;" horiz-adv-x="707" 
d="M659 0l-16 -4l-94 -94l-221 -54q-53 135 -205 238l-244 166l98 98l-10 6q162 52 264 136q24 35 43 104l91 90l6 19l268 36q-88 -260 -238 -376l-24 -25q213 -166 282 -340zM618 23q-59 151 -299 323q189 96 275 356l-197 -26q-61 -234 -360 -330l203 -137
q157 -106 204 -229z" />
    <glyph glyph-name="guilsinglright" unicode="&#x203a;" horiz-adv-x="687" 
d="M639 365l-6 -50q-5 -1 -15 -4l-94 -94q-94 -31 -164 -76q-53 -63 -77 -155l-15 -2l-94 -95l-250 -34q39 110 91 201q41 69 94 122l49 49l18 25q-213 162 -274 332l98 96l-2 4q0 3 -2 6l233 53q58 -139 205 -239zM618 342l-202 137q-156 106 -205 228l-174 -39
q55 -148 301 -326q-186 -92 -277 -354l195 26q63 232 362 328z" />
    <glyph glyph-name="trademark" unicode="&#x2122;" horiz-adv-x="1252" 
d="M1204 623h-30l-97 -97h-258l76 76v238l-4 -4q-17 -21 -17 -35h-6l-102 -103q-1 3 -6 9l-29 -27q10 -12 25 -26l30 -31h-20l-96 -97h-217q43 70 43 99v309l-11 6q-8 0 -14 2l-92 -92q-8 8 -10 12v-147q0 -29 51 -94h-19l-96 -97h-201q37 51 43 62v2l3 26v291q0 17 -5 21
q-8 4 -8 8h-74q-33 0 -53 -8l-2 -2h-2l2 2l-67 -47l-33 30l47 74h2q12 21 12 162l97 96v31q81 -142 137 -142h477l160 -194l37 45l65 66l33 40l45 46l96 2l10 -58q-6 -1 -18 -6l-8 -8v-2l2 -346q0 -31 102 -92zM1110 1104l-80 -2l-33 -33l-149 -188l-182 219h-93l-28 -4
q16 -17 20 -19q11 -6 29 -10l29 -16v-324q0 -35 -25 -74h117q-60 60 -60 111v248l191 -219q-2 3 -2 8q0 23 24 53l150 190q4 -16 4 -34v-312q-4 -30 -23 -45h97q-25 15 -25 62l-2 350q0 22 41 39zM532 1100h-329q-74 0 -107 57q0 -55 -18 -84l-41 -65l61 41q25 12 68 12h82
q4 -2 8 -6q20 -15 20 -47l-2 -324q-2 -10 -18 -33h102q-20 27 -20 64v346h35q34 0 55 -14q15 -10 41 -41l8 32q6 25 25 39z" />
    <glyph glyph-name="glyph218" 
 />
    <glyph glyph-name="glyph219" 
 />
    <glyph glyph-name="glyph218" 
 />
    <glyph glyph-name="glyph221" 
 />
    <glyph glyph-name="glyph219" 
 />
    <glyph glyph-name="glyph217" 
 />
    <glyph glyph-name="ch255" 
 />
    <glyph glyph-name="ch331" 
 />
    <glyph glyph-name="ch332" 
 />
    <glyph glyph-name="glyph98" 
 />
    <glyph glyph-name="glyph99" 
 />
    <glyph glyph-name="glyph100" 
 />
    <glyph glyph-name="glyph112" horiz-adv-x="423" 
d="M375 463h-184q28 32 33 53l3 49v492h-4l-25 3h-13l-65 -7l26 20q51 27 102 55q66 36 92 63q-3 -13 -5 -16v1q2 -12 2 -72v-566q0 -36 38 -75z" />
    <glyph glyph-name="glyph113" horiz-adv-x="838" 
d="M790 609l-65 -154l-501 -2v29q7 0 99 80q72 63 107 96q184 175 184 286q0 74 -42.5 119t-115.5 45q-19 0 -46 -10q-34 -13 -28 -29q-16 -32 -16 -74q0 -44 17 -89l-51 6l-56 -3l-34 -8q0 43 19 101q23 70 57 96q85 64 199 64q85 0 141 -37q66 -43 66 -124
q0 -209 -335 -462h214q54 0 96 21q21 10 91 49z" />
    <glyph glyph-name="glyph114" horiz-adv-x="772" 
d="M724 649q0 -96 -79 -154q-71 -53 -170 -53q-96 0 -183 39l-84 63q92 10 175 61v-36q0 -79 78 -79q44 0 82 33q53 46 53 126q0 171 -242 199q127 33 154 47q75 39 75 102q0 55 -47 87q-41 28 -98 28q-31 0 -60 -28t-29 -59q0 -10 3 -19l-64 10h-14q-8 0 -48 5
q83 139 264 139q73 0 135 -30q76 -37 76 -101q0 -81 -65 -127q-19 -13 -73 -35q161 -80 161 -218z" />
    <glyph glyph-name="glyph115" horiz-adv-x="899" 
d="M851 758l-54 -67h-86v-161q0 -12 3 -24q0 -15 35 -51h-187q32 32 36 54l4 49v133h-363q56 68 77 105q57 102 57 194q0 55 -27 82l-88 40q17 15 25 19l-3 -1q54 32 117 32q62 -36 62 -170q0 -24 -4 -43q-25 -116 -69 -191h216v135q0 27 -30 52q-12 10 -48 38q71 10 109 30
l101 67l-3 -49q-20 -64 -20 -98v-175h140z" />
    <glyph glyph-name="glyph128" 
 />
    <glyph glyph-name="glyph129" 
 />
    <glyph glyph-name="glyph227" 
 />
    <glyph glyph-name="glyph228" 
 />
    <glyph glyph-name=".null" 
 />
  </font>
</defs>
</svg>
