<?xml version="1.0" standalone="no"?>
<!DOCTYPE svg PUBLIC "-//W3C//DTD SVG 1.1//EN" "http://www.w3.org/Graphics/SVG/1.1/DTD/svg11.dtd" >
<svg xmlns="http://www.w3.org/2000/svg" xmlns:xlink="http://www.w3.org/1999/xlink" version="1.1">
<metadata>
Created by FontForge 20170731 at Sun Apr  1 23:46:11 2001
 By Aleksey,,,
(c)GeM/FF
</metadata>
<defs>
<font id="Dumbledor1CutUp" horiz-adv-x="289" >
  <font-face 
    font-family="Dumbledor 1 Cut Up"
    font-weight="400"
    font-stretch="normal"
    units-per-em="1000"
    panose-1="0 0 4 0 0 0 0 0 0 0"
    ascent="800"
    descent="-200"
    x-height="336"
    cap-height="600"
    bbox="-32 -217 953 798"
    underline-thickness="10"
    underline-position="-80"
    unicode-range="U+0020-2122"
  />
<missing-glyph horiz-adv-x="500" 
d="M63 0v798h375v-798h-375zM125 63h250v673h-250v-673z" />
    <glyph glyph-name=".notdef" horiz-adv-x="500" 
d="M63 0v798h375v-798h-375zM125 63h250v673h-250v-673z" />
    <glyph glyph-name="glyph1" horiz-adv-x="0" 
 />
    <glyph glyph-name="nonmarkingreturn" 
 />
    <glyph glyph-name="space" unicode=" " 
 />
    <glyph glyph-name="exclam" unicode="!" horiz-adv-x="193" 
d="M150 606q-1 -8 -2 -23h-37q1 0 9 5zM148 575q-2 -10 -2 -22v-3h-89q15 7 38 20l5 5h48zM146 541q0 -7 -2 -23v-1h-125l-1 20q5 1 16 4h112zM143 483h-86q-2 3 -8 9q-12 9 -18 15h112v-24zM143 450h-77v10q0 5 -3 13h80v-23zM143 417h-77v22h77v-22zM143 383h-77v21h77
v-21zM143 350h-77v20h77v-20zM143 317h-77v19h77v-19zM143 283h-77v19h77v-19zM143 250h-77v18h77v-18zM143 217h-77v17h77v-17zM149 183h-87q4 8 4 16h77q0 -7 6 -16zM176 150h-144l15 15h115q7 -10 14 -15zM146 83h-84q9 9 22 14h39q13 -5 23 -14zM159 50h-109q0 5 2 13
h105q2 -8 2 -13zM156 29q-3 -8 -7 -12h-90q-4 4 -6 12h103z" />
    <glyph glyph-name="quotedbl" unicode="&#x22;" horiz-adv-x="175" 
d="M153 617h-54q7 9 27 9q19 0 27 -9zM158 602q0 -9 -2 -19h-59q-2 7 -3 18q0 5 1 8h62q1 -2 1 -7zM154 575q-3 -16 -7 -25h-42q-3 12 -6 25h55zM77 617h-54q7 9 27 9q19 0 27 -9zM144 541q-11 -23 -22 -24h-2q-8 8 -9 12t-4 12h37zM82 602q0 -9 -2 -19h-58q-3 7 -4 18
q0 5 1 8h62q1 -2 1 -7zM78 575l-3 -14q-2 -6 -4 -11h-41q-2 8 -6 25h54zM67 541q-12 -24 -25 -24q-5 10 -9 24h34z" />
    <glyph glyph-name="numbersign" unicode="#" horiz-adv-x="395" 
d="M239 417h-2l1 3q0 -1 1 -1v-2zM277 383h-45l3 21h13q15 -20 29 -21zM278 370l-3 -20h-48l3 20h48zM161 417h-2l1 2q0 -2 1 -2zM273 336l-3 -19h-48l3 19h48zM199 383h-45l3 21h12q13 -20 30 -21zM200 370l-3 -20h-48l3 20h48zM359 302q-11 -10 -19 -19h-285q5 4 8 9l6 10
h290zM195 336l-3 -19h-48l3 19h48zM333 266l-70 -1l-3 -15h-48l3 15h-30l-3 -15h-48l3 14h-108q2 1 7 4h297v-2zM364 234q-14 -8 -24 -17h-287q6 7 9 16h70v1h232zM247 165l-2 -15h-47l2 15h47zM326 199q-4 -8 -4 -11l-71 -1l-1 -4h-47l1 4h-31l-1 -4h-48l1 3h-107
q10 4 19 13h289zM242 131l-2 -14h-47l2 14h47zM237 97l-2 -14h-2q-1 2 -9 14h13zM169 165l-2 -15h-47l2 15h47zM164 131l-2 -14h-47l2 14h47zM159 97l-2 -14h-2q-1 2 -9 14h13z" />
    <glyph glyph-name="dollar" unicode="$" horiz-adv-x="490" 
d="M336 717h-14q6 4 14 8v-8zM336 684h-51q1 1 3.5 4t3.5 4q3 5 9 10l14 10h21v-28zM336 650h-69q6 16 14 28h55v-28zM219 717h-14q6 4 14 8v-8zM336 617h-55q-3 3 -7 3q-5 0 -9 -3h-7q2 9 7 27h71v-27zM219 684h-51q1 1 3.5 4t3.5 4q3 5 9 10l14 10h21v-28zM429 541l-1 -3
q-8 -11 -12 -21h-71q-3 2 -9 7v-7h-44v24h137zM413 483h-42q-9 16 -17 24h59v-2l-1 -12v-5q1 -4 1 -5zM384 583h-234l12 4q6 2 11 4q-2 12 -4 18h50v-10q10 1 21 1h50l-3 9h49v-15q12 -2 24 -5zM413 468q0 -8 -1 -9q-2 -5 -7 -9h-20q-3 13 -9 23h37v-5zM219 650h-69
q6 16 14 28h55v-28zM439 563l-6 -13h-157q-18 4 -40 4h-9q-4 0 -8 -1v-3h-120q14 11 36 25h274zM393 439q-2 -1 -4 -3v2q-1 0 -1 1h5zM219 617h-55q-3 3 -7 3q-5 0 -9 -3h-7q2 9 7 27h71v-27zM336 483h-44v24h44v-24zM336 450h-44v23h44v-23zM336 417h-44v22h44v-22z
M219 517h-44v24h44v-24zM336 383h-44v21h44v-21zM219 483h-44v24h44v-24zM336 350h-44v20h44v-20zM219 450h-44v23h44v-23zM173 541q-22 -9 -35 -24h-75q7 9 25 24h85zM219 417h-44v22h44v-22zM473 183h-104l-6 8q-3 4 -7 8h115q2 -10 2 -16zM467 217h-175v17h168
q4 -8 7 -17zM219 383h-44v21h44v-21zM472 165q0 -3 -1 -7v-8h-90q-2 10 -4 15h95zM129 507q-8 -11 -12 -24h-78q6 12 16 24h74zM451 250h-213l-19 5v-5h-44v16l-8 2h269zM467 131q-1 -5 -5 -14h-80q0 2 1 7v7h84zM418 283h-304q-13 5 -36 19h307q20 -10 33 -19zM114 473
q-3 -15 -3 -23h-85q2 8 8 23h80zM336 317h-277q-9 9 -17 19h228l22 -6v6h44v-19zM336 183h-44v16h44v-16zM452 97q-1 -2 -9 -14h-77q6 6 9 14h77zM114 417h-93q0 12 2 22h88q0 -12 3 -22zM219 350h-185q-5 11 -8 20h133q6 -4 16 -7v7h44v-20zM138 383h-115q-2 10 -2 21h98
q8 -13 19 -21zM336 150h-44v15h44v-15zM336 117h-44v14h44v-14zM219 217h-44v17h44v-17zM424 63q-7 -7 -17 -13h-115v13h44v-2q2 0 4 2h84zM336 83h-44v14h44v-14zM219 183h-44v16h44v-16zM219 150h-44v15h44v-15zM219 117h-44v14h44v-14zM338 -17h-49q2 10 2 12h46
q0 -2 1 -6v-6zM219 83h-44v14h44v-14zM346 -50h-64q1 4 3 10h58q2 -6 3 -10zM56 183h-5v10q1 -4 5 -10zM372 29q-15 -8 -30 -12h-249q-20 4 -39 12h318zM75 150h-25q0 3 1 7v8h15zM100 117h-52q0 2 1 7v7h40q4 -8 11 -14zM221 -17h-50q2 10 2 12h47q0 -7 1 -12zM219 50h-198
q3 7 5 13h142q4 -2 7 -3v3h44v-13zM135 83h-100q4 10 6 14h78q8 -8 16 -14zM228 -50h-63q0 3 2 10h59q0 -3 2 -10z" />
    <glyph glyph-name="percent" unicode="%" horiz-adv-x="579" 
d="M535 600l-13 -17h-118q2 17 24 17h107zM516 575l-18 -25h-80v3l-8 13l-4 9h110zM492 541l-18 -24h-66q7 15 8 24h76zM467 507l-18 -24h-61q8 12 14 24h65zM442 473l-17 -23h-61l9 12q3 4 8 11h61zM417 439l-16 -22h-61l16 22h61zM306 517h-67q-3 6 -8 18q-2 2 -4 6h68
l6 -12q3 -6 5 -12zM312 483h-66q0 12 -3 24h65q4 -12 4 -24zM253 583h-155q33 19 77 19q43 0 78 -19zM391 404l-15 -21h-61l15 21h61zM313 469v-10q-1 -6 -1 -9h-66q0 3 1 10v9v4h66v-4zM289 550h-70q-17 17 -44 17q-25 0 -44 -17h-70q11 14 25 25h179q13 -9 24 -25z
M551 183h-68l-4 8q-2 3 -6 8h70zM310 439q-2 -7 -6 -22h-66q4 9 6 22h66zM366 370l-14 -20h-61l14 20h61zM560 150h-67q0 7 -3 15h67zM476 250h-104q24 8 51 8t53 -8zM562 117h-67v14h67v-14zM529 217h-78q-12 6 -28 6t-29 -6h-75q9 9 20 17h170q9 -6 20 -17zM298 404
q-7 -14 -14 -21h-72q10 7 19 21h67zM342 336l-14 -19h-62l14 19h62zM559 97q0 -5 -3 -14h-67q2 4 4 14h66zM124 541q-3 -3 -9 -15q-2 -4 -4 -9h-67q2 6 5 12l6 12h69zM317 302l-14 -19h-62l14 19h62zM108 507l-4 -24h-67q1 8 4 24h67zM548 63l-3 -7l-4 -6h-69q5 5 7 9l2 4
h67zM272 370q-19 -14 -32 -20h-132q-15 7 -30 20h194zM104 450h-66q-1 5 -1 9v14h67v-23zM373 199l-6 -9q-1 -1 -4 -7h-66q3 8 8 16h68zM292 268l-13 -18h-62l13 18h62zM111 417h-65q-4 8 -7 22h67q1 -11 5 -22zM135 383h-70q-9 10 -14 21h66q6 -14 18 -21zM356 165
q-2 -5 -4 -15h-65q0 5 3 15h66zM267 234l-12 -17h-62l12 17h62zM523 29q-6 -8 -15 -12h-171q-5 2 -8 5l-7 7h83q5 -2 9 -2h17q4 0 9 2h83zM351 117h-66v14h66v-14zM449 -5q-12 -2 -26 -2q-15 0 -27 2h53zM356 83h-66q-1 4 -3 14h66q0 -5 3 -14zM242 199l-12 -16h-62l12 16
h62zM373 50h-68q-2 3 -3 6l-4 7h66q8 -12 9 -13zM217 165l-11 -15h-62l11 15h62zM192 131l-10 -14h-62l10 14h62zM168 97l-6 -8q-1 -1 -2.5 -3t-2.5 -3h-62l10 14h63zM142 63q-3 -5 -9 -13h-63q4 4 10 13h62zM121 29l-6 -12h-77l12 12h71z" />
    <glyph glyph-name="ampersand" unicode="&#x26;" horiz-adv-x="523" 
d="M380 517h-87q-13 16 -27 22q-2 0 -6 2h98q5 -4 22 -24zM397 483h-85q-5 12 -12 24h87q6 -12 10 -24zM403 450h-84q0 11 -4 23h85q3 -17 3 -23zM346 550h-228q23 16 54 25h119q32 -9 55 -25zM404 437q0 -10 -2 -20h-83q0 3 1 10v10v2h84v-2zM401 404q-3 -11 -7 -21h-82
q4 11 5 21h84zM496 234q-4 -5 -11 -17h-23q7 4 22 17h12zM389 370q-6 -10 -14 -20h-85q7 6 16 20h83zM206 541q-28 -6 -43 -24h-81q8 11 23 24h101zM155 507q-5 -8 -10 -24h-82q2 6 5 12l6 12h81zM143 473q-3 -11 -3 -23h-84q1 8 4 23h83zM362 336q-15 -13 -28 -19h-208
q-13 6 -28 19h100q12 -5 32 -5q22 0 35 5h97zM442 150h-88v3q-17 3 -48 12h136q-1 -1 -2.5 -1.5t-2.5 -1.5l-6 -3h11v-9zM472 199q-6 -10 -12 -16h-253q1 1 3 2.5t3 2.5l6 6q3 3 7 5h246zM141 417h-84q0 3 -1 10v10v2h84v-12q0 -5 1 -10zM440 131q-2 -10 -3 -14h-88
q1 4 3 14h88zM301 217h-31q5 1 8 1h9h7q5 -1 7 -1zM150 383h-85q-4 11 -6 21h84q1 -6 3 -11zM174 350h-90q-4 5 -7 10l-6 10h86q1 -3 5 -7q1 -2 12 -13zM431 97q-2 -5 -7 -14h-90q3 4 7 14h90zM278 302q-25 -5 -75 -19h-122q3 2 10 7t20 12h167zM411 63q-3 -4 -6 -7l-6 -6
h-95q4 3 7 6l7 7h93zM249 165q-7 -1 -20 -5l-23 -10h-26l12 15h57zM162 268q-13 -7 -21 -15l-3 -3h-91q8 10 16 18h99zM126 234q-3 -5 -9 -17h-88l4 8q2 4 4 9h89zM111 199q-1 -5 -3 -16h-89q1 5 3 16h89zM375 29q-10 -8 -19 -12h-252q-9 4 -19 12h115q15 -3 30 -3t30 3h115
zM300 -5q-35 -8 -70 -8q-36 0 -70 8h140zM107 150h-89v15h89v-15zM112 117h-90q-2 8 -2 14h89q2 -10 3 -14zM125 83h-90q-2 4 -6 14h89q2 -5 7 -14zM154 50h-94l-6 6q-3 3 -6 7h91q7 -7 15 -13z" />
    <glyph glyph-name="quotesingle" unicode="'" horiz-adv-x="99" 
d="M77 617h-54q7 9 27 9q19 0 27 -9zM82 602q0 -7 -2 -19h-59l-3 18q0 5 1 8h62q1 -2 1 -7zM78 575q-5 -18 -5.5 -20.5t-1.5 -4.5h-41q-2 8 -7 25h55zM69 541q-1 -3 -3 -10q-6 -14 -24 -14q-4 7 -10 24h37z" />
    <glyph glyph-name="parenleft" unicode="(" horiz-adv-x="210" 
d="M193 736l-9 -19h-17q4 3 26 19zM181 712l-13 -28h-38q14 14 31 28h20zM165 678l-12 -26q-1 -1 -1 -2v0h-51q10 14 24 28h40zM149 644l-12 -27h-57q9 16 17 27h52zM135 609q-3 -9 -9 -26h-63q4 9 12 26h60zM123 575q-2 -8 -7 -25h-65q3 14 9 25h63zM114 541q-2 -6 -3 -12
l-2 -12h-68q2 8 7 23v1h66zM107 507l-4 -24h-69q1 8 5 24h68zM102 473q-1 -8 -3 -23h-71q1 7 4 23h70zM97 439q0 -4 -1 -11v-11h-72q1 7 3 22h70zM95 404q0 -4 -1 -11v-10h-73q0 11 2 21h72zM94 350h-75v10q0 5 1 10h74v-20zM94 317h-76v19h76v-19zM97 283h-79v19h77
q0 -6 2 -19zM100 250h-81q-1 5 -1 9v9h80q2 -10 2 -18zM105 217h-84q0 3 -1 8v9h82q1 -6 3 -17zM111 183h-86q-2 8 -2 16h85q1 -5 3 -16zM119 150h-89l-3 15h88q1 -5 4 -15zM127 117h-91q-1 4 -3 14h90q2 -8 4 -14zM138 83h-94q-1 4 -3 14h92q1 -5 5 -14zM149 50h-95
q-2 8 -4 13h95q1 -4 2 -7zM163 17h-97q-1 2 -3 8l-2 4h97q1 -4 5 -12zM154 -5q-6 -6 -9 -12h-66q-1 4 -5 12h80zM134 -40q-2 -4 -4 -10h-36q-2 5 -5 10h45zM123 -74q0 -3 -2 -9h-8l-6 9h16z" />
    <glyph glyph-name="parenright" unicode=")" horiz-adv-x="210" 
d="M103 717h-17q2 7 4 19q5 -6 13 -19zM120 684h-43q5 14 8 28h21q5 -9 14 -28zM135 650h-77q10 12 16 28h49q4 -9 12 -28zM148 617h-98q-2 6 -7 19q3 2 9 8h86q5 -14 10 -26v-1zM159 583h-95q-4 8 -10 26h97q4 -14 8 -26zM169 550h-94q-3 8 -9 25h96q2 -8 7 -25zM176 517
h-91q-2 8 -7 24h93q2 -6 3 -12zM182 483h-88q-2 8 -7 24h91q1 -8 4 -24zM187 450h-86q-4 13 -5 23h88q1 -8 3 -23zM190 417h-83q-1 3 -4 22h85q0 -7 2 -22zM192 383h-81q0 7 -2 21h82q0 -4 1 -11v-10zM193 350h-79q0 3 -1 10v10h80v-20zM193 317h-77v19h77v-19zM192 292
q0 -4 -1 -9h-74v19h75v-10zM191 268q0 -6 -2 -18h-73q0 3 1 9v9h74zM188 234q0 -6 -2 -17h-72q1 4 1 8v9h73zM184 199q-1 -5 -3 -16h-70q0 6 2 16h71zM178 165l-3 -15h-69q2 10 2 15h70zM170 131q-2 -10 -4 -14h-66q1 4 3 14h67zM160 97q-1 -7 -5 -14h-63q2 6 4 14h64z
M147 63q-2 -5 -6 -13h-59l2 6q1 3 2 7h61zM130 29q-4 -8 -7 -12h-53q1 4 5 12h55zM109 -5q-4 -4 -10 -12h-45l4 7q0 2 2 5h49zM80 -40q-3 -4 -10 -10h-31l4 10h37zM43 -74q-3 -3 -11 -9h-9l4 9h16z" />
    <glyph glyph-name="asterisk" unicode="*" horiz-adv-x="295" 
d="M185 583h-9q0 7 -2 20q4 -7 11 -20zM201 550h-23q1 3 1 10q0 3 -2 15h12l7 -14q3 -6 5 -11zM271 507q-6 -8 -16 -24h-32q6 2 17 8t24 16h7zM206 526v-5q-1 -2 -1 -4h-38q7 9 10 24h26q3 -9 3 -15zM145 517h-46l-14 14l-14 10h50q13 -9 24 -24zM203 507q-5 -14 -12 -24
h-122q17 10 40 10h6l-2 4q-1 2 -2.5 4t-3.5 6h43q2 -6 4 -9l4 5l2 4h43zM101 550h-43l-14 10q40 -5 54 -9q1 -1 3 -1zM248 473q-13 -17 -28 -23h-110q2 4 4 6q-5 1 -11 1q-20 0 -38 -7h-32q7 8 20 21l2 2h193zM252 387q-22 1 -63 5q-17 3 -30 12h51q14 -6 42 -17zM192 417
h-47l-6 9l-6 -9h-33q0 12 4 22h70l2 -2q7 -12 16 -20zM129 404q-2 -8 -2 -11l-1 -10h-21q-3 6 -4 11t-1 10h29zM124 370l-2 -20h-3q-6 10 -9 20h14zM39 439l-21 -9l6 9h15z" />
    <glyph glyph-name="plus" unicode="+" horiz-adv-x="369" 
d="M177 450h-31v23h8zM208 417h-62v22h41l21 -21v-1zM208 383h-62v21h62v-21zM208 350h-62v20h62v-20zM327 317h-298l-11 19h300zM344 283h-295l-11 19h297zM208 250h-62v18h62v-18zM208 217h-62v17h62v-17zM208 183h-47l-15 16h62v-16zM208 150h-15l-14 15h29v-15z" />
    <glyph glyph-name="comma" unicode="," horiz-adv-x="135" 
d="M112 50h-89q3 5 13 13h63q7 -4 13 -13zM118 17h-100v12h100v-12zM112 -5l-6 -12h-52q0 2 1 6v6h57zM90 -40q-4 -6 -8 -10h-40q1 4 5 10h43zM56 -74q-10 -6 -23 -9h-12l2 4q2 4 3 5h30z" />
    <glyph glyph-name="hyphen" unicode="-" horiz-adv-x="376" 
d="M354 268q-14 -9 -21 -18h-287q5 9 8 18h300zM324 234q-2 -8 -2 -10h-304q8 4 14 10h292z" />
    <glyph glyph-name="hyphen" unicode="&#x2010;" horiz-adv-x="376" 
d="M354 268q-14 -9 -21 -18h-287q5 9 8 18h300zM324 234q-2 -8 -2 -10h-304q8 4 14 10h292z" />
    <glyph glyph-name="period" unicode="." horiz-adv-x="135" 
d="M112 50h-90q6 9 13 13h65q7 -4 12 -13zM118 29q-2 -9 -4 -12h-92q-2 3 -4 12h100zM78 -5q-6 0 -9 -1q-11 0 -15 1h24z" />
    <glyph glyph-name="slash" unicode="/" horiz-adv-x="539" 
d="M521 700l-10 -16h-117l-2 5q19 11 25 11h104zM508 678l-17 -28h-78v2l-9 13l-7 13h111zM488 644l-16 -27h-65q5 13 7 27h74zM467 609l-15 -26h-60q7 12 12 26h63zM448 575l-15 -25h-61l7 11q3 5 8 14h61zM428 541l-14 -24h-61l14 24h61zM408 507l-14 -24h-62l15 24h61z
M388 473l-13 -23h-63l14 23h62zM368 439l-13 -22h-62l13 22h62zM348 404l-13 -21h-62l12 21h63zM328 370l-12 -20h-63l12 20h63zM308 336l-11 -19h-64l12 19h63zM289 302l-11 -19h-65l11 19h65zM269 268l-10 -18h-66l11 18h65zM249 234l-10 -17h-66l10 17h66zM229 199
l-10 -16h-66l9 16h67zM209 165l-9 -15h-67l9 15h67zM189 131l-8 -14h-68l9 14h67zM170 97l-8 -14h-69l8 14h69zM150 63l-7 -13h-70l4 6q2 3 4 7h69zM131 29l-7 -12h-74l8 12h73zM111 -5l-7 -12h-82q2 2 5.5 6t5.5 6h78z" />
    <glyph glyph-name="zero" unicode="0" horiz-adv-x="551" 
d="M469 483h-94q-13 15 -25 24h96l12 -12q6 -6 11 -12zM493 450h-96q-6 11 -14 23h94q10 -13 16 -23zM510 417h-97q-4 7 -10 22h96q3 -7 11 -22zM522 383h-98l-6 21h97q2 -7 7 -21zM529 350h-98l-4 20h98q2 -8 4 -20zM381 550h-211q50 22 106 22q55 0 105 -22zM533 317h-98
q-1 6 -3 19h99q0 -9 2 -19zM435 517h-102q-28 13 -57 13q-31 0 -56 -13h-103q15 12 35 24h247q23 -13 36 -24zM362 417h-11q2 10 3 22h3q2 -6 5 -22zM534 283h-98v9q0 5 -1 10h98q0 -3 1 -9v-10zM369 383h-25q0 3 1 6t4 15h16q1 -6 2 -11zM534 268q0 -3 -1 -9v-9h-98
q0 3 1 9v9h98zM371 350h-43q7 10 11 20h31q1 -5 1 -9v-11zM531 234q0 -7 -2 -17h-98q1 6 3 17h97zM526 199q-1 -5 -4 -16h-98q2 6 4 16h98zM368 335q-4 -11 -8 -18h-65l5 3q2 1 15 14l2 2h51v-1zM204 507q-14 -11 -27 -24h-93q6 8 14 16l8 8h98zM202 417h-11q1 7 5 22h3
q1 -12 3 -22zM517 165l-6 -15h-97q4 10 5 15h98zM209 383h-24q1 7 4 21h15q3 -14 3.5 -15l1.5 -3v-3zM169 473q-2 -2 -2 -3q-4 -5 -7 -10l-6 -10h-94q6 10 16 23h93zM503 131q-2 -5 -7 -14h-97l1 1q3 9 6 13h97zM351 302q-12 -16 -18 -19h-113q-4 2 -12 12q-3 3 -6 7h149z
M224 350h-41v20h31q4 -10 10 -20zM359 217h-47q-4 3 -10 11q-4 4 -7 6h59q3 -8 5 -17zM258 317h-65l-7 18h-1v1h51q0 -2 2 -2q7 -6 11 -9l4 -5zM346 250h-139q6 9 15 18h110q5 -6 14 -18zM362 183h-30l-1 4q-4 8 -7 12h38v-16zM147 439l-4 -11l-5 -11h-95q5 11 11 22h93z
M483 97q-5 -8 -11 -14h-94q6 6 10 14h95zM360 165q0 -5 -2 -15h-13l-6 15h21zM356 131q-1 -3 -1 -7l-3 7h4zM133 404l-6 -21h-96q2 7 7 21h95zM455 63l-7 -7q-3 -3 -7 -6h-98q7 5 17 13h95zM258 234l-6 -6q-7 -7 -10 -11h-49q2 6 6 17h59zM124 370q-2 -8 -4 -20h-96
q1 7 4 20h96zM229 199l-8 -16h-30q-1 3 -1 6t1 6v4h38zM119 336q-2 -10 -2 -19h-97v9q0 5 1 10h98zM214 165l-6 -15h-14q0 5 -2 15h22zM116 283h-98v19h98v-19zM117 250h-99v18h98v-9q0 -4 1 -9zM201 131l-3 -7q-1 2 -1 7h4zM414 29q-10 -8 -20 -12h-240q-9 4 -19 12h279z
M120 217h-98q-2 10 -2 17h98q0 -6 2 -17zM127 183h-99q-1 5 -3 16h98q2 -10 4 -16zM337 -5q-27 -7 -61 -7q-29 0 -62 7h123zM137 150h-98q-2 4 -4 11l-2 4h99q1 -5 5 -15zM151 117h-96q-4 6 -8 14h98q1 -6 5 -11q0 -1 1 -1v-2zM172 83h-95q-4 4 -10 14h96q1 -2 9 -14z
M208 50h-100q-4 3 -7 6l-7 7h97q7 -7 17 -13z" />
    <glyph glyph-name="one" unicode="1" horiz-adv-x="242" 
d="M197 593q-1 -7 -3 -10h-8q3 4 11 10zM194 550h-57q17 9 38 25h18v-11q0 -6 1 -14zM194 517h-118l45 24h73v-24zM194 450h-90v23h90v-23zM194 483h-90v1q-1 -1 -3 -1l-20 3h-11l-26 -3h-23l18 14l5 3q5 2 13 7h137v-24zM194 417h-90v22h90v-22zM194 383h-90v21h90v-21z
M194 350h-90v20h90v-20zM194 317h-90v19h90v-19zM194 283h-90v19h90v-19zM194 250h-90v18h90v-18zM194 217h-90v17h90v-17zM194 183h-90v16h90v-16zM194 150h-90v15h90v-15zM194 117h-90v14h90v-14zM194 83h-90v14h90v-14zM194 50h-92l1 13h91v-13zM209 17h-120q3 4 7 12
h104q3 -6 9 -12z" />
    <glyph glyph-name="two" unicode="2" horiz-adv-x="495" 
d="M419 483h-109q-11 13 -24 24h122q6 -9 11 -24zM424 450h-97q-4 11 -11 23h105q1 -8 3 -23zM363 550h-224q57 25 108 25h19q52 0 97 -25zM424 439q0 -12 -2 -22h-88q-1 7 -4 22h94zM401 517h-131q-30 15 -64 15q-29 0 -52 -15h-68q2 2 8 6l27 18h256q14 -10 24 -24z
M420 404q-1 -7 -5 -21h-81q0 3 1 8v7v6h85zM411 370q-3 -11 -7 -20h-79q5 11 6 20h80zM398 336q-3 -7 -10 -19h-78q5 8 10 19h78zM380 302q-4 -6 -12 -19h-79q7 8 13 19h78zM146 500q-4 -8 -7 -17h-77q4 9 15 24h69v-7zM478 125l-4 -8h-10q6 4 14 8zM358 268q-5 -6 -14 -18
h-79q5 6 14 18h79zM136 473q-3 -11 -3 -23h-85q2 5 9 23h79zM466 97l-6 -14h-60q2 0 4 2l6 3q6 3 17 9h39zM134 417h-95q2 7 6 22h88v-12q0 -5 1 -10zM332 234q-8 -10 -15 -17h-81q2 3 7.5 8.5t7.5 8.5h81zM147 367l-25 3h23q1 -1 1 -1.5t1 -1.5zM141 383h-108q1 9 3 21h100
q1 -7 5 -21zM301 199q-7 -9 -16 -16h-82q9 7 16 16h82zM75 370l-15 -1l-28 -6v7h43zM267 165q-5 -4 -8 -7l-8 -8h-82l9 9q3 3 7 6h82zM451 63l-5 -13h-392l8 6q4 3 8 7h381zM230 131q-6 -5 -17 -14h-81q3 3 8 7t8 7h82zM437 29l-5 -12h-414v5q3 1 10 7h409zM189 97
q-6 -5 -18 -14h-78q1 1 5.5 4.5t10.5 9.5h80z" />
    <glyph glyph-name="three" unicode="3" horiz-adv-x="455" 
d="M418 483h-105q-7 12 -19 24h115q6 -12 9 -24zM419 459q0 -4 -1 -9h-95q-1 10 -5 23h101v-14zM361 550h-237q20 10 44 17q31 8 51 8h55q43 -4 83 -23q2 -2 4 -2zM416 439q-3 -14 -7 -22h-91q2 5 5 22h93zM402 517h-122q-34 20 -75 20q-23 0 -46 -20h-83q19 17 32 24h268
q16 -12 26 -24zM402 404q-8 -13 -16 -21h-90q9 9 17 21h89zM371 370q-1 -1 -2.5 -2t-2.5 -2q-9 -7 -29 -16h-102q15 5 44 20h92zM412 250h-105q-6 9 -15 18h107q9 -11 13 -18zM385 283h-113q-15 10 -40 19h132q12 -10 21 -19zM428 217h-104q-3 9 -3.5 9t-3.5 8h104
q4 -8 7 -17zM149 507q-11 -12 -15 -24h-89l20 24h84zM436 183h-105q0 6 -2 16h104l2 -8q1 -4 1 -8zM342 317h-170q-12 1 -36 5q18 4 52 14h121l17 -9zM135 451l-52 7h-11l-40 5q4 6 6 10h94q-1 -2 0 -3q0 -6 3 -19zM438 150h-105v15h105v-15zM435 131q-2 -10 -3 -14h-105
q1 4 3 14h105zM424 97q-4 -10 -7 -14h-105q5 7 8 14h104zM403 63q-3 -4 -6 -7l-6 -6h-110q6 4 10 8l5 5h107zM160 117h-12q8 4 12 7v-7zM364 29q-8 -7 -20 -12h-244q-10 4 -14 6l-8 6h286zM281 -5q-22 -4 -46 -4q-28 0 -54 4h100zM160 83h-96q17 3 41 14h55v-14zM175 50
h-125l-17 13h134q3 -8 8 -13z" />
    <glyph glyph-name="four" unicode="4" horiz-adv-x="532" 
d="M420 507l-2 -24h-36l36 24h2zM418 468l-6 -18h-83q6 2 9 4l29 19h51v-5zM409 439q-2 -6 -5 -22h-139l-16 13q29 3 49 9h111zM403 404q-1 -5 -1 -9v-12h-99q-4 5 -15 15l-8 6h123zM402 350h-89v6q0 6 -3 14h92v-20zM402 317h-89v19h89v-19zM169 550h-118q45 25 95 25
q14 -10 23 -25zM402 283h-89v19h89v-19zM183 517h-114l-36 17l7 7h133q5 -8 10 -24zM192 483h-75q-7 12 -13 18l-13 6h95zM196 450h-71q-1 8 -4 23h72q1 -8 3 -23zM402 250h-89v18h89v-18zM196 427q0 -5 -1 -10h-70q1 5 1 9v13h70v-12zM193 401q-1 -2 -4 -18h-68l3 21h69v-3
zM402 150h-89v15h89v-15zM185 370q-1 -7 -5 -20h-68q2 7 6 20h67zM505 234l-13 -17h-454q4 6 12 17h455zM402 117h-89v14h89v-14zM175 336q-2 -6 -6 -19h-69q4 7 7 19h68zM402 83h-89v14h89v-14zM477 199l-5 -7h-70v-9h-89v9h-295q4 4 6 7h453zM163 302q-3 -6 -8 -19h-72
q5 8 10 19h70zM402 50h-92l1 13h91v-13zM417 17h-122q3 3 5 6l4 6h104zM148 268l-9 -18h-77q5 6 12 18h74z" />
    <glyph glyph-name="five" unicode="5" horiz-adv-x="467" 
d="M378 507q-1 -1 -7 -24h-45q-6 5 -17 16l-6 4q-3 2 -7 4h82zM450 572q-16 -12 -31 -22h-363q1 8 5 23l63 -1h326zM368 473q-2 -8 -6 -23h-4q-6 7 -11 13l-11 10h32zM407 541q-15 -12 -21 -20q-1 -1 -3 -4h-114q-14 3 -28 3h-98v-3h-92l3 24h353zM417 283h-93q-5 9 -15 19
h97q4 -6 11 -19zM429 250h-91l-6 18h91zM395 317h-105q-27 16 -63 19h148q7 -6 20 -19zM434 217h-90q0 7 -2 17h90q2 -10 2 -17zM143 483h-92v24h92v-24zM239 383h-61q7 1 14 1h15h16q11 -1 16 -1zM435 197v-7q-1 -5 -1 -7h-88v5v5q-1 4 -1 6h90v-2zM355 350h-304v20h259
q19 -6 45 -20zM143 450h-92v23h92v-23zM433 165q0 -5 -2 -15h-88q0 5 2 15h88zM143 417h-92v22h92v-22zM426 131q-2 -8 -4 -14h-87q2 4 4 14h87zM143 383h-92v21h92v-21zM413 97q-4 -8 -8 -14h-85l1 1q0 1 1 2q4 5 5 11h86zM183 336q-42 -5 -82 -19h-50v19h132zM390 63
q-7 -9 -12 -13h-83l6 6q3 3 6 7h83zM65 302q-7 -4 -14 -7v7h14zM132 117h-25l15 14h5q1 -7 5 -14zM354 29q-8 -8 -16 -12h-251q-8 3 -17 8l-4 4h288zM290 -5q-20 -4 -62 -4q-33 0 -61 4h123zM146 83h-94q23 7 33 14h55q4 -10 6 -14zM169 50h-125l-13 13h127q3 -5 11 -13z
" />
    <glyph glyph-name="six" unicode="6" horiz-adv-x="443" 
d="M419 575l-35 -25h-212q22 10 46 17q30 8 49 8h152zM352 507q-1 -4 -4 -11q-7 4 -22 11h26zM373 541q-8 -8 -16 -24h-57q-26 8 -46 8q-23 0 -44 -8h-90q18 15 34 24h219zM191 507q-16 -11 -25 -24h-79q8 8 22 24h82zM406 250h-98q-4 3 -5 8q-4 4 -8 10h103q3 -6 8 -18z
M416 217h-94q-2 6 -6 17h96q1 -6 4 -17zM353 317h-183q13 11 31 19h112q25 -9 40 -19zM159 473q-4 -5 -7 -11l-6 -12h-83q6 10 16 23h80zM419 183h-90q0 6 -2 16h91q1 -4 1 -8v-8zM388 283h-109q-22 16 -49 15q-18 0 -40 -15h-47q6 11 12 19h216q9 -9 17 -19zM418 165
l-3 -15h-85q1 5 1 15h87zM142 439q-4 -9 -7 -20v-1l-1 -1h-89q5 11 11 22h86zM410 131q-1 -7 -5 -14h-80q1 4 3 14h82zM130 404q-1 -7 -4 -21h-94q2 7 7 21h91zM395 97q-3 -5 -8 -14h-74q2 4 6 14h76zM123 370q-1 -7 -3 -20h-96q2 8 4 20h95zM171 268q-8 -8 -16 -18h-21
q1 6 4 18h33zM119 336q-1 -3 -1 -9.5t-1 -9.5h-97q0 9 2 19h97zM373 63q-6 -8 -11 -13h-76q7 6 13 13h74zM147 234q-5 -10 -6 -17h-6q-1 5 -1 8v9h13zM117 283h-99v19h99v-19zM118 250h-99q0 3 -1 9v9h99q1 -5 1 -9v-9zM122 217h-99q-2 10 -2 17h99q0 -7 2 -17zM127 183h-98
q-1 5 -4 16h99q1 -5 3 -16zM339 29q-9 -8 -18 -12h-183q-9 4 -18 12h219zM134 150h-96q-1 5 -5 15h97q1 -5 4 -15zM252 -5q-2 0 -7 -1h-6h-15q-7 0 -15 1h43zM144 117h-93q-2 4 -6 14h94q1 -5 5 -14zM159 83h-89q-4 6 -8 14h90q2 -5 7 -14zM186 50h-90q-5 5 -11 13h88
q6 -8 13 -13z" />
    <glyph glyph-name="seven" unicode="7" horiz-adv-x="533" 
d="M516 574l-30 -24h-384q8 13 12 25zM414 473q-8 -10 -17 -23h-79q5 8 17 23h79zM475 541l-24 -24h-377l7 7q4 4 6.5 7.5t7.5 9.5h380zM389 439q-2 -4 -3 -5q-4 -5 -11 -17h-79q5 8 15 22h78zM442 507l-20 -24h-79q5 6 11 12l11 11h-159q-60 0 -98 -16l-13 -7h-64
q19 12 33 24h378zM367 404q-5 -7 -12 -21h-77q3 8 11 21h78zM348 370q-3 -7 -9 -20h-77q3 7 9 20h77zM334 336q-2 -6 -6 -19h-80q4 9 8 19h78zM325 302q-1 -6 -5 -19h-85q2 6 7 19h83zM317 268q-1 -6 -4 -18h-90l6 18h88zM77 473l-41 -23h-9v3q0 4 -4 12l-5 7v1h59zM310 234
q0 -6 -2 -17h-95l2 8q1 4 3 9h92zM305 199q-2 -10 -2 -16h-101q3 6 5 16h98zM300 165q0 -5 -2 -15h-105q2 5 4 15h103zM297 131q0 -5 -2 -14h-110q2 6 4 14h108zM294 97q-1 -4 -1 -8v-6h-115q1 4 3 14h113zM292 63q0 -2 -1 -7v-6h-118q0 5 2 13h117zM291 17h-122q0 8 1 12
h121v-12zM240 -5q-12 -5 -24 -12h-50v12h74zM186 -40q-6 -6 -9 -10h-13v10h22z" />
    <glyph glyph-name="eight" unicode="8" horiz-adv-x="459" 
d="M380 517h-87q-13 16 -27 22q-2 0 -6 2h98q5 -4 22 -24zM397 483h-85q-5 12 -12 24h87q6 -12 10 -24zM403 450h-84q0 11 -4 23h85q3 -17 3 -23zM346 550h-228q23 16 54 25h119q32 -9 55 -25zM404 437q0 -10 -2 -20h-83q0 3 1 10v10v2h84v-2zM401 404q-4 -14 -7 -21h-82
q4 11 5 21h84zM388 370l-6 -10q-3 -5 -7 -10h-85q7 6 16 20h82zM206 541q-28 -6 -43 -24h-81q8 11 23 24h101zM414 250h-92q-2 0 -2 2q-5 7 -17 16h95q8 -8 16 -18zM432 217h-90q-2 5 -9 17h91q3 -6 8 -17zM155 507q-5 -8 -10 -24h-82q2 6 5 12l6 12h81zM440 183h-89
q-1 5 -3 16h89l2 -8q1 -4 1 -8zM143 473q-3 -11 -3 -23h-84q1 8 4 23h83zM361 336q-15 -13 -28 -19h-207q-13 6 -28 19h100q12 -5 32 -5q22 0 35 5h96zM442 150h-89v15h89v-15zM141 417h-84q0 3 -1 10v10v2h84v-12q0 -5 1 -10zM380 283h-102q-23 9 -48 9q-28 0 -50 -9h-99
q3 2 10 7t20 12h236q20 -10 33 -19zM440 131q-2 -10 -3 -14h-89q1 4 3 14h89zM150 383h-85q-4 11 -6 21h84q1 -6 3 -11zM174 350h-90q-4 5 -7 10l-6 10h86q1 -3 5 -7q1 -2 12 -13zM431 97q-2 -5 -7 -14h-91q3 4 7 14h91zM411 63q-3 -4 -6 -7l-6 -6h-95q10 7 14 13h93z
M155 268q-5 -4 -8 -7l-11 -11h-89q8 10 16 18h92zM125 234q-3 -6 -8 -17h-88l4 8q2 4 4 9h88zM111 199q-1 -5 -3 -16h-89q1 5 3 16h89zM375 29q-10 -8 -19 -12h-252q-9 4 -19 12h115q15 -3 30 -3t29 3h116zM300 -5q-35 -8 -70 -8q-36 0 -70 8h140zM107 150h-89v15h89v-15z
M112 117h-90q-2 8 -2 14h89q2 -10 3 -14zM125 83h-90q-2 4 -6 14h89q2 -5 7 -14zM154 50h-94l-6 6q-3 3 -6 7h91q7 -7 15 -13z" />
    <glyph glyph-name="nine" unicode="9" horiz-adv-x="443" 
d="M378 483h-90q-5 12 -14 24h87l3 -3q6 -7 14 -21zM353 517h-88q-23 23 -52 24h115q12 -9 25 -24zM395 450h-93q-2 5 -9 23h91q4 -7 11 -23zM407 417h-96q-2 7 -6 22h95q2 -7 7 -22zM316 550h-205q25 17 55 25h92q34 -8 58 -25zM416 383h-99q-1 7 -4 21h98q2 -5 5 -21z
M422 350h-100q-1 7 -3 20h100q1 -7 3 -20zM425 317h-100q0 11 -1 16q-1 1 -1 3h100q0 -2 1 -2q0 -7 1 -17zM205 541q-35 -2 -57 -24h-73q12 13 24 24h106zM426 283h-100v19h100v-19zM308 350h-8q4 11 5 20h1q2 -10 2 -20zM425 268q0 -6 -2 -18h-98q0 3 1 9v9h99zM309 336
q0 -9 -2 -19h-25q8 10 12 19h15zM421 234q-1 -6 -3 -17h-97q2 10 2 17h98zM140 507q-7 -9 -10 -16q-2 -3 -4 -8h-74l6 10q3 5 7 10q2 2 3 4h72zM303 302q-3 -6 -8 -19h-57q9 6 27 17q1 0 3 2h35zM414 199q-1 -5 -5 -16h-94q1 5 3 16h96zM122 473q-5 -13 -6 -23h-81q2 5 5 11
l6 12h76zM402 165q-2 -5 -7 -15h-89q1 2 2.5 6.5t2.5 8.5h91zM114 439q-1 -5 -1 -11v-11h-87q1 7 5 22h83zM115 383h-91v21h89q0 -6 2 -15v-6zM385 131q-1 -2 -9 -14h-83q2 4 6 14h86zM284 268q-10 -12 -20 -18h-162q-15 8 -26 18h208zM124 350h-96q-3 9 -3 20h93
q2 -7 6 -20zM229 234q-16 -5 -32 -5q-28 -1 -53 5h85zM140 317h-102q-4 7 -7 19h99q5 -11 10 -19zM362 97q-6 -8 -12 -14h-80q6 6 11 14h81zM177 283h-117q-5 6 -14 19h106q11 -13 25 -19zM330 63q-7 -7 -16 -13h-108q22 3 39 13h85zM281 29q-11 -7 -26 -12h-206l13 9
q2 2 4 3h215zM171 50h-89l4 6l3 7h37q18 -8 45 -13zM52 -5l-34 -1l1 1h33z" />
    <glyph glyph-name="colon" unicode=":" horiz-adv-x="135" 
d="M99 317h-62q12 7 30 9q20 0 32 -9zM117 283h-99q0 9 4 19h90q2 -5 5 -19zM117 268q-2 -6 -9 -18h-81q-5 9 -8 18h98zM79 234q-6 -2 -11 -2h-9q-4 0 -8 2h28zM92 83h-48q7 3 23 5q13 0 25 -5zM116 50h-98q1 5 4 13h90q2 -5 4 -13zM116 29q-2 -9 -4 -12h-88q-2 3 -4 12h96z
M76 -5q-5 0 -7 -1h-7q-4 1 -6 1h20z" />
    <glyph glyph-name="semicolon" unicode=";" horiz-adv-x="135" 
d="M99 317h-62q10 7 30 9q20 0 32 -9zM117 283h-99q0 9 5 19h88q5 -9 6 -19zM117 268q-2 -11 -7 -18h-84q-4 6 -7 18h98zM88 234q-7 -2 -20 -3q-14 -1 -23 3h43zM112 50h-89q3 5 13 13h63q7 -4 13 -13zM118 17h-100v12h100v-12zM112 -5l-6 -12h-52q0 2 1 6v6h57zM90 -40
q-4 -6 -8 -10h-40q1 4 5 10h43zM56 -74q-10 -6 -23 -9h-12l2 4q2 4 3 5h30z" />
    <glyph glyph-name="less" unicode="&#x3c;" horiz-adv-x="319" 
d="M290 427q-2 -6 -4 -10h-70zM281 404q-3 -7 -8 -21h-90q5 9 8 21h90zM266 370q-4 -7 -10 -20h-92q4 5 7 10l6 10h89zM247 336q-5 -6 -14 -19h-98q10 9 19 19h93zM220 302q-3 -3 -10 -9.5t-10 -9.5h-112q15 8 29 19h103zM269 150h-107q-7 7 -17 15h111q7 -7 13 -15z
M291 117h-98q-6 6 -12 14h102q4 -8 8 -14zM239 183h-118q-1 1 -4 3l-20 13h126zM181 268q-7 -6 -25 -15q2 -2 4 -3h-138l-4 3q20 6 40 15h123zM202 217h-131l-25 17h135q6 -5 11 -9zM302 95l-51 -12h-38l-7 14h95q0 -2 1 -2z" />
    <glyph glyph-name="equal" unicode="=" horiz-adv-x="376" 
d="M347 302q-11 -8 -18 -19h-287q4 6 11 19h294zM322 263l-300 2q2 1 4 3h296v-5zM359 232q-13 -8 -20 -15h-290l6 15h304zM326 199q-4 -10 -4 -14h-304q12 7 18 14h290z" />
    <glyph glyph-name="greater" unicode="&#x3e;" horiz-adv-x="319" 
d="M108 417h-59l54 12q1 -4 5 -12zM302 251q-1 -1 -3 -1h-136q1 0 2 1q-8 5 -23 17h135zM255 283h-132q-12 9 -22 19h126zM129 383h-98q-8 13 -11 21h95q8 -14 14 -21zM205 317h-120q-10 9 -19 19h113q1 -1 25 -18zM162 350h-108q-5 7 -15 20h102q10 -12 21 -20zM257 234
q-5 -3 -16.5 -8.5t-16.5 -8.5h-110q7 6 22 17h121zM198 199q-6 -5 -19 -16h-96q4 5 13 16h102zM163 165q-4 -5 -11 -15h-91l9 15h93zM140 131q-4 -10 -6 -14h-90l7 14h89zM126 97q0 -1 -1 -3v-3l-59 -8h-35q1 5 5 14h90z" />
    <glyph glyph-name="question" unicode="?" horiz-adv-x="390" 
d="M368 483h-89q-5 16 -10 24h88q6 -9 11 -24zM373 450h-90q0 13 -2 23h89q3 -12 3 -23zM307 550h-220q46 22 93 22q81 0 127 -22zM373 439q0 -12 -2 -22h-90q2 10 2 22h90zM350 517h-90q-22 16 -72 16q-31 0 -53 -16h-93q7 8 28 24h254q16 -11 26 -24zM368 404
q-2 -12 -6 -21h-89l6 21h89zM356 370q-4 -10 -11 -20h-87q6 10 10 20h88zM335 336l-1 -1l-18 -18h-84q16 13 16 19h87zM124 507q-1 -1 -3 -3.5t-3 -3.5q-6 -8 -11 -17h-85q3 12 12 24h90zM299 302q-13 -11 -26 -19h-80q8 6 23 19h83zM102 473q-4 -10 -6 -23h-78v14q0 4 1 9
h83zM94 417h-69q-5 11 -6 22h75v-22zM165 360q-16 -2 -30 -2q-36 0 -63 12h65q9 -4 28 -10zM112 383h-62q-11 8 -19 21h66q5 -12 14 -20q0 -1 1 -1zM251 268q-13 -9 -22 -18h-83q4 4 9 7t16 11h80zM218 234q0 -6 -2 -17h-83v3q0 6 2 14h83zM216 183h-78q-1 5 -3 16h79
q0 -6 1 -8q0 -5 1 -8zM224 150h-89q3 7 3 15h81q1 -5 5 -15zM222 83h-87q8 9 22 14h43q14 -5 22 -14zM235 50h-109v6q0 4 1 7h106q2 -8 2 -13zM231 29q-2 -8 -6 -12h-90q-4 4 -6 12h102z" />
    <glyph glyph-name="at" unicode="@" horiz-adv-x="712" 
d="M621 450h-106q-14 13 -29 23h111q8 -7 24 -23zM648 417h-105q-4 7 -13 18l-4 4h105q6 -7 17 -22zM668 383h-105q-3 7 -11 21h105q8 -13 11 -21zM681 350h-106q-3 11 -7 20h106q2 -7 7 -20zM689 317h-107q-1 6 -4 19h107q0 -1 4 -19zM694 283h-109v9q0 5 -1 10h108
q0 -6 2 -19zM409 550h-84q22 2 42 2t42 -2zM695 250h-110q1 5 1 9v9h109v-18zM529 517h-331q36 16 71 24h193q35 -9 67 -24zM694 234q0 -6 -2 -17h-109q0 6 2 17h109zM585 483h-118q-44 21 -100 21q-60 0 -108 -21h-119q19 13 39 24h369q13 -7 37 -24zM506 383h-83q3 3 7 11
q-8 5 -21 10h95q2 -10 2 -18v-3zM428 450h-103q30 5 53 5q22 0 50 -5zM689 199q-2 -10 -4 -16h-104q1 4 1 8v8h107zM506 350h-129q21 7 34 20h95v-20zM498 417h-251q16 12 41 22h183q1 -1 3 -1q17 -9 24 -21zM506 317h-76v19h76v-19zM679 165q-1 -5 -5 -15h-96q1 6 2 15h99z
M506 283h-76v19h76v-19zM665 131q-1 -2 -9 -14h-112q17 3 26 14h95zM506 250h-76v18h76v-18zM506 217h-76v17h76v-17zM416 336q-10 -8 -31 -19h-117q6 1 17 5l50 14h81zM506 183h-91q1 0 15 11v5h76v-16zM244 404q-6 -1 -19 -5l5 5h14zM640 97q-6 -7 -17 -14h-158
q-9 4 -15 14h190zM240 473q-5 -3 -32 -23h-107q10 10 24 21l2 2h113zM520 117h-80q-2 4 -6 14h75q3 -11 11 -14zM343 302q-30 -11 -33 -13q-6 -4 -8 -6h-81q9 10 19 19h103zM196 439l-4 -4q-8 -8 -16 -18h-105q3 3 9.5 11t9.5 11h106zM506 150h-295q-2 5 -7 15h109
q13 -6 33 -6q17 0 34 6h126v-15zM290 268l-6 -18h-80l7 18h79zM167 404l-12 -21h-106q4 7 13 21h105zM282 217h-84q0 6 2 17h82v-17zM149 370l-8 -20h-107q3 7 9 20h106zM413 131q-10 -7 -22 -14h-145l-9 6q-6 3 -11 8h187zM292 183h-93q-1 5 -1 16h87q1 -9 7 -16zM137 336
q0 -1 -4 -19h-109q1 6 5 19h108zM130 302q-2 -10 -2 -19h-109q0 5 3 19h108zM520 23q-2 -1 -5.5 -3t-5.5 -3h-319q-9 3 -25 12h326zM460 -5q-26 -9 -52 -12h-82q-38 4 -72 12h206zM127 250h-109v18h109v-18zM129 217h-109q0 6 -2 17h109q2 -10 2 -17zM136 183h-108
q-2 6 -4 16h108q2 -10 4 -16zM279 50h-148q-13 8 -18 13h131q8 -4 17 -7zM149 150h-108q-2 5 -7 15h108q2 -5 7 -15zM170 117h-109q-6 6 -10 14h109q3 -5 10 -14zM207 83h-117q-8 6 -14 14h114q8 -8 17 -14z" />
    <glyph glyph-name="A" unicode="A" horiz-adv-x="726" 
d="M379 583h-131q-9 5 -16 10l95 7q40 3 52 -17zM396 550h-109q-6 8 -21 22q-2 1 -2.5 1.5t-2.5 1.5h122q5 -8 13 -25zM413 517h-116v2q0 10 -5 22h109zM429 483h-146l12 24h123q2 -6 5 -12zM459 417h-114l-12 22h116q3 -8 10 -22zM444 450h-177q4 8 11 23h155q4 -7 11 -23z
M474 383h-111l-11 21h113zM488 350h-108l-10 20h110q1 -4 4 -11t4 -9zM503 317h-105l-10 19h106q3 -6 9 -19zM518 283h-103l-10 19h105q3 -6 8 -19zM548 217h-100l-8 17h101q2 -6 7 -17zM322 439l-11 -22h-61q6 11 11 22h61zM533 250h-162q22 8 52 18h102q3 -6 8 -18z
M564 183h-100l-7 16h100q2 -5 7 -16zM580 150h-100l-7 15h100q2 -5 7 -15zM597 117h-101q-1 4 -5 11l-2 3h100q4 -8 8 -14zM304 404l-11 -21h-60l6 10l5 11h60zM617 83h-105q-2 4 -6 14h102q1 -2 9 -14zM641 50h-115q-1 4 -5 13h110q1 -2 5 -6.5t4 -5t1 -1.5zM678 17h-140
q-2 8 -4 12h128q5 -5 16 -12zM286 370l-10 -20h-60q6 10 10 20h60zM410 234q-14 -4 -42 -17h-86q15 6 44 17h84zM269 336l-10 -19h-59q3 6 9 19h60zM251 302l-10 -19h-58q3 6 9 19h59zM333 199q-9 -6 -28 -16h-92q10 5 30 16h90zM233 268l-10 -18h-57q4 7 9 18h58zM215 234
l-9 -17h-58q3 5 9 17h58zM277 165q-3 -3 -10.5 -7t-9.5 -6t-3 -2h-83q7 7 17 15h89zM196 199l-8 -16h-57q3 5 8 16h57zM178 165l-8 -15h-56q3 5 8 15h56zM227 131q-3 -3 -18 -14h-113q4 6 8 14h123zM185 97q-4 -5 -14 -14h-94q4 6 8 14h100zM154 63q-7 -8 -9 -13h-88l4 6
q2 3 4 7h89zM135 29l-3 -12h-98q4 4 9 12h92z" />
    <glyph glyph-name="B" unicode="B" horiz-adv-x="509" 
d="M444 517h-108q-4 15 -17 24h118q2 -8 7 -24zM189 583q37 20 76 26h74q36 -6 62 -25v-1h-212zM446 496q0 -9 -1 -13h-104v5q0 9 -2 19h106q1 -4 1 -11zM444 473q-1 -10 -5 -23h-102q3 15 3 23h104zM436 439q-3 -8 -11 -22h-99q4 10 8 22h102zM433 550h-132q-17 5 -35 5
q-16 0 -41 -5h-177q-21 24 -28 25h109q1 -2 5 -5l11 -16q12 11 29 21h238q14 -12 21 -25zM462 317h-119q-9 9 -24 19h128q5 -6 15 -19zM480 283h-111q-4 8 -13 19h115q3 -6 9 -19zM432 350h-135q-23 12 -48 20h155q9 -7 28 -20zM489 250h-107q-2 9 -6 18h109q1 -6 4 -18z
M492 217h-105q0 7 -2 17h106q0 -3 1 -9v-8zM118 583h-100v16l15 1q50 3 85 -17zM199 541q-22 -9 -30 -24h-101q-5 13 -13 24h144zM418 404q-5 -7 -16 -21h-328v21l244 -1v1h100zM491 199q0 -8 -2 -16h-104q0 5 2 16h104zM165 483h-91q0 12 -3 24h93v-4l1 -6v-14zM486 165
q-1 -5 -5 -15h-105q1 5 5 15h105zM165 450h-91v23h91v-23zM74 417v22h91v-22h-91zM473 131q-4 -8 -8 -14h-107q6 6 9 14h106zM165 350h-91v20h91v-20zM449 97q-6 -8 -14 -14h-110q5 3 9 7l7 7h108zM165 317h-91v19h91v-19zM165 283h-91v19h91v-19zM409 63q-9 -7 -22 -13
h-128q19 5 33 13h117zM165 250h-91v18h91v-18zM165 217h-91v17h91v-17zM165 183h-91v16h91v-16zM165 150h-91v15h91v-15zM165 117h-91v14h91v-14zM338 29q-20 -8 -40 -12h-241q6 6 9 12h272zM165 83h-91v14h91v-14zM165 50h-94l1 13h93v-13z" />
    <glyph glyph-name="C" unicode="C" horiz-adv-x="686" 
d="M612 541q-3 -9 -3 -17v-7h-62q-26 15 -55 24h120zM609 503q-2 -4 -2 -20h-17q-12 14 -28 24h47v-4zM607 464q-3 3 -8 9h8v-9zM669 600l-21 -17h-389q70 17 143 17h267zM634 571q-12 -12 -17 -21h-168q-23 3 -47 3q-28 0 -53 -3h-175q25 14 59 25zM606 183h-3q2 2 3 4v-4z
M606 150h-28l12 15h16v-15zM304 541q-40 -12 -60 -24h-122q7 4 18 13q6 4 17 11h147zM606 117h-57q6 4 13 14h44v-14zM227 507q-12 -8 -24 -18q-4 -3 -7 -6h-111q7 9 25 24h117zM606 83h-96q2 1 18 14h78v-14zM605 63q-10 -8 -17 -13h-134q9 4 26 13h125zM186 473
q-7 -8 -20 -23h-107q9 13 17 23h110zM159 439q-4 -7 -13 -22h-105q3 7 11 22h107zM141 404q-3 -7 -8 -21h-104q2 7 7 21h105zM130 370q-2 -5 -3 -10l-2 -10h-103q1 7 3 20h105zM124 336q-1 -3 -1 -9.5t-1 -9.5h-104q0 6 2 19h104zM555 29q-4 -2 -26 -12h-350q-6 2 -23 12
h399zM122 283h-104v19h104v-19zM459 -5q-53 -11 -111 -11q-51 0 -104 11h215zM125 250h-105q0 3 -1 9v9h104q0 -6 2 -18zM131 217h-106q-1 6 -3 17h106q1 -6 3 -17zM142 183h-108q-1 5 -4 16h107q2 -10 5 -16zM158 150h-111q-2 5 -7 15h110q3 -5 8 -15zM264 50h-139
q-8 6 -15 13h129q10 -7 25 -13zM179 117h-114q-3 4 -9 14h113q3 -5 10 -14zM211 83h-121q-6 6 -12 14h118l8 -7q3 -4 7 -7z" />
    <glyph glyph-name="D" unicode="D" horiz-adv-x="606" 
d="M537 483h-109q-12 15 -22 24h112q6 -8 19 -24zM509 517h-115q-21 15 -45 24h134l14 -11q6 -6 12 -13zM556 450h-106q-6 11 -6.5 11t-6.5 11q-1 0 -1 1h108q4 -8 12 -23zM570 417h-106q-2 8 -9 22h107q5 -12 8 -22zM580 383h-105l-6 21h105q4 -9 6 -21zM586 350h-105
q-2 12 -4 20h106q1 -7 3 -20zM409 583h-229q42 17 124 17q57 0 105 -17zM588 317h-105q0 3 -1 10v9h105q1 -5 1 -10v-9zM472 550h-155q-20 3 -39 3q-21 0 -39 -3h-127q13 7 25 13l24 12h267q23 -10 44 -25zM589 283h-106q0 3 1 8v7v4h105v-19zM588 268q0 -6 -2 -18h-105
q0 6 2 18h105zM583 234q0 -6 -3 -17h-105q1 6 3 17h105zM576 199q-1 -5 -5 -16h-107q2 5 6 16h106zM563 165l-6 -15h-107q2 5 7 15h106zM206 541q-24 -9 -45 -24h-107q14 8 41 24h111zM547 131q-1 -2 -9 -14h-107q2 2 4 5t5 9h107zM148 507q-12 -12 -21 -24h-109v11
q7 4 20 13h110zM523 97q-6 -8 -12 -14h-107q6 6 12 14h107zM122 473q-7 -14 -10 -23h-94v23h104zM109 439q-2 -10 -2 -22h-89v22h91zM491 63l-7 -7q-3 -3 -7 -6h-117q7 4 21 13h110zM107 383h-89v21h89v-21zM107 350h-89v20h89v-20zM107 317h-89v19h89v-19zM107 283h-89v19
h89v-19zM107 250h-89v18h89v-18zM447 29q-11 -8 -21 -12h-296q-11 4 -18 12h335zM107 217h-89v17h89v-17zM367 -5q-46 -11 -89 -11q-40 0 -87 11h176zM107 183h-89v16h89v-16zM107 150h-89v15h89v-15zM107 117h-89v14h89v-14zM107 83h-89v14h89v-14zM164 50h-146v13h116
q9 -5 30 -13zM107 17h-89v12h89v-12z" />
    <glyph glyph-name="E" unicode="E" horiz-adv-x="456" 
d="M420 501l-18 6h17zM418 517h-36q-22 14 -46 24h80v-6zM438 584q0 -1 -1 -1v0h-419l18 17h380q13 0 22 -16zM432 575q-8 -14 -12 -25h-112q-11 2 -32 7l-25 2l-24 1l-41 -1l-19 -2v-7h-100q-5 5 -9 11l-26 14h400zM167 517h-90v4q0 8 -5 20h95v-24zM377 302l-20 -19h-48
q-6 5 -28 19h96zM167 483h-90v24h90v-24zM417 367l-10 -17h-330v20h90v-3h250zM341 268l-9 -9q-3 3 -7 9h16zM167 450h-90v23h90v-23zM398 336l-11 -19h-146q-22 4 -45 6h-4q-2 0 -7 1q-19 0 -18 -5v-2h-90v19h321zM167 417h-90v22h90v-22zM167 383h-90v21h90v-21zM420 97
l-2 -14h-32q1 1 2.5 2t2.5 2zM419 50h-103q16 4 35 13h65q0 -6 3 -13zM167 283h-90v19h90v-19zM167 250h-90v18h90v-18zM167 217h-90v17h90v-17zM167 183h-90v16h90v-16zM167 150h-90v15h90v-15zM436 17h-415l22 12h386q2 -4 7 -12zM167 117h-90v14h90v-14zM167 83h-90v14
h90v-14zM167 50h-97q3 5 5 10v3h92v-13z" />
    <glyph glyph-name="F" unicode="F" horiz-adv-x="432" 
d="M420 501l-18 6h17zM418 517h-36q-22 14 -46 24h80v-6zM438 584q0 -1 -1 -1v0h-419l18 17h380q13 0 22 -16zM432 575q-8 -14 -12 -25h-112q-11 2 -32 7l-25 2l-24 1l-41 -1l-19 -2v-7h-100q-5 5 -9 11l-26 14h400zM167 517h-90v4q0 8 -5 20h95v-24zM377 302l-20 -19h-48
q-6 5 -28 19h96zM167 483h-90v24h90v-24zM417 367l-10 -17h-330v20h90v-3h250zM341 268l-9 -9q-3 3 -7 9h16zM167 450h-90v23h90v-23zM398 336l-11 -19h-146q-22 4 -45 6h-4q-2 0 -7 1q-18 0 -18 -5v-2h-90v19h321zM167 417h-90v22h90v-22zM167 383h-90v21h90v-21zM167 283
h-90v19h90v-19zM167 250h-90v18h90v-18zM167 217h-90v17h90v-17zM167 183h-90v16h90v-16zM167 150h-90v15h90v-15zM167 117h-90v14h90v-14zM167 83h-90v14h90v-14zM167 50h-90v13h90v-13zM167 17h-90v12h90v-12zM167 -17h-90v12h90v-12zM127 -40l-12 -10h-38v10h50zM85 -74
l-8 -7v7h8z" />
    <glyph glyph-name="G" unicode="G" horiz-adv-x="686" 
d="M612 541q-3 -9 -3 -17v-7h-62q-26 15 -55 24h120zM609 503q-2 -4 -2 -20h-17q-12 14 -28 24h47v-4zM607 464q-3 3 -8 9h8v-9zM669 600l-21 -17h-389q66 17 143 17h267zM634 571q-12 -12 -17 -21h-168q-23 3 -47 3q-28 0 -53 -3h-176q35 18 59 25zM637 325q-3 -2 -8 -8h-7
q4 3 13 10l-3 -5zM619 302q-1 -1 -2.5 -4t-2.5 -4q-3 -5 -4 -11h-42q11 4 19 9q4 1 15 10h17zM604 183h-55q0 6 -2 16h55q0 -5 2 -16zM602 217h-55q0 6 2 14q-15 -5 -39 -5q-22 0 -48 8h140v-17zM304 541q-40 -12 -60 -24h-122q6 4 18 13q6 4 17 11h147zM608 150h-56v3
q0 7 -1 12h55q0 -5 2 -15zM606 268l-3 -18h-276q2 2 7 7.5t7 7.5l3 3h262zM478 283h-111q24 11 49 11q16 0 62 -11zM613 117h-71q4 6 6 14h63q0 -6 2 -14zM618 83h-105q3 2 15 14h88q0 -5 2 -14zM227 507q-12 -8 -24 -18q-4 -3 -7 -6h-111q10 12 24 24h118zM611 63
q-7 -7 -17 -13h-135q13 6 26 13h126zM186 473q-7 -8 -20 -23h-107q9 13 17 23h110zM352 234l-38 -17h-13q4 5 7 9l6 8h38zM159 439q-4 -7 -13 -22h-105q3 7 11 22h107zM141 404q-3 -7 -8 -21h-104q2 7 7 21h105zM130 370q-2 -5 -3 -10l-2 -10h-103q1 7 3 20h105zM124 336
q-1 -3 -1 -9.5t-1 -9.5h-104q0 6 2 19h104zM559 29q-4 -2 -26 -12h-354q-6 2 -23 12h403zM122 283h-104v19h104v-19zM462 -5q-55 -11 -114 -11q-51 0 -104 11h218zM125 250h-105q0 3 -1 9v9h104q0 -6 2 -18zM131 217h-106q-1 6 -3 17h106q1 -6 3 -17zM142 183h-108
q-1 5 -4 16h107q2 -10 5 -16zM158 150h-111q-2 5 -7 15h110q3 -5 8 -15zM264 50h-139q-8 6 -15 13h129q10 -7 25 -13zM179 117h-114q-3 4 -9 14h113q3 -5 10 -14zM211 83h-121q-6 6 -12 14h118l8 -7q3 -4 7 -7z" />
    <glyph glyph-name="H" unicode="H" horiz-adv-x="653" 
d="M607 583h-109q-12 12 -28 18l137 -1v-17zM607 550h-92q-5 14 -11 25h103v-25zM607 517h-88q0 12 -3 24h91v-24zM607 483h-89q0 4 1 12v12h88v-24zM607 450h-89v23h89v-23zM607 417h-89v22h89v-22zM607 383h-168q37 9 79 9v12h89v-21zM607 317h-89v19h89v-19zM607 283h-89
v19h89v-19zM607 350h-89v9q-14 -3 -41 -9h-125l44 20h211v-20zM607 250h-89v18h89v-18zM607 217h-89v17h89v-17zM607 183h-89v16h89v-16zM607 150h-89v15h89v-15zM192 583h-169q-4 8 -5 13l23 4h151v-17zM436 336q-19 -9 -38 -19h-95q4 3 26 19h107zM607 117h-89v14h89v-14z
M192 550h-118q-3 6 -19 13q-20 7 -25 12h162v-25zM192 517h-96q-8 16 -19 24h115v-24zM607 83h-89v14h89v-14zM192 483h-89q-2 16 -4 24h93v-24zM608 50h-93l1 13h91q0 -10 1 -13zM374 302q-9 -6 -26 -19h-84q3 3 10 9.5t10 9.5h90zM192 450h-89v23h89v-23zM621 17h-119
q3 4 7 12h105q4 -8 7 -12zM192 417h-89v22h89v-22zM332 268q-3 -3 -9.5 -9t-9.5 -9h-79q8 10 16 18h82zM192 383h-89v21h89v-21zM192 350h-89v20h89v-20zM299 234q-3 -4 -8 -9.5t-6 -7.5h-76q4 6 12 17h78zM192 317h-89v19h89v-19zM192 283h-89v19h89v-19zM192 250h-89v18
h89v-18zM271 199q-4 -5 -10 -16h-158v16h89v-7q1 2 4 7h75zM192 217h-89v17h89v-17zM249 165q-3 -5 -8 -15h-138v15h146zM231 131q-2 -5 -6 -14h-122v14h128zM217 97q-4 -10 -5 -14h-109v14h114zM206 63q-1 -4 -2 -7l-2 -6h-102l1 13h105zM207 17h-120q3 4 7 12h105
q2 -4 8 -12z" />
    <glyph glyph-name="I" unicode="I" horiz-adv-x="267" 
d="M221 583h-198q-4 8 -5 13l23 4h180v-17zM221 517h-96q-6 15 -19 24h115v-24zM221 550h-132q-12 4 -35 13q-15 4 -24 12h191v-25zM221 483h-89q-2 16 -4 24h93v-24zM221 450h-89v23h89v-23zM221 417h-89v22h89v-22zM221 383h-89v21h89v-21zM221 350h-89v20h89v-20z
M221 317h-89v19h89v-19zM221 283h-89v19h89v-19zM221 250h-89v18h89v-18zM221 217h-89v17h89v-17zM221 183h-89v16h89v-16zM221 150h-89v15h89v-15zM221 117h-89v14h89v-14zM221 83h-89v14h89v-14zM222 50h-93l1 13h91q0 -10 1 -13zM236 17h-120q3 4 7 12h106q4 -8 7 -12z
" />
    <glyph glyph-name="J" unicode="J" horiz-adv-x="243" 
d="M220 583h-199q-2 3 -4 12l23 5h180v-17zM220 517h-97q-6 14 -19 24h116v-24zM220 550h-135q-12 4 -32 12q-17 4 -25 13h192v-25zM220 483h-89q-2 16 -4 24h93v-24zM220 450h-89v23h89v-23zM220 417h-89v22h89v-22zM220 383h-89v21h89v-21zM220 350h-89v20h89v-20z
M220 317h-89v19h89v-19zM220 283h-89v19h89v-19zM220 250h-89v18h89v-18zM220 217h-89v17h89v-17zM220 183h-89v16h89v-16zM220 150h-89v15h89v-15zM220 117h-89v14h89v-14zM220 83h-89v14h89v-14zM219 50h-89q0 2 1 6v7h88v-13zM217 29q-2 -8 -2 -12h-87q1 4 1 12h88z
M210 -5l-3 -12h-84q2 8 2 12h85zM199 -40q-2 -6 -4 -10h-80q1 4 3 10h81zM184 -74q-1 -3 -5 -9h-78q1 1 2.5 4.5t2.5 4.5h78zM162 -108q-4 -6 -7 -9h-74l6 9h75zM132 -142q-3 -2 -9 -8h-70q2 3 7 8h72zM83 -176q-5 -2 -15 -7h-53q3 3 9 7h59z" />
    <glyph glyph-name="K" unicode="K" horiz-adv-x="718" 
d="M518 606q-2 -5 -9 -23h-125q-15 14 -43 22zM506 575q-3 -8 -11 -25h-96q-1 13 -9 25h116zM491 541l-12 -24h-83q4 12 4 24h91zM474 507q-4 -8 -14 -24h-78q7 12 12 24h80zM454 473q-3 -7 -13 -23h-80q10 13 16 23h77zM434 439q-5 -7 -16 -22h-85q9 7 20 22h81zM699 63
q8 -2 -8 -2q3 0 8 2zM408 404q-13 -15 -23 -21h-102q11 5 36 21h89zM188 583h-136l-16 12q-8 6 -18 14h170v-26zM188 550h-102q-8 9 -25 25h127v-25zM188 517h-89v7q0 5 -7 17h96v-24zM188 483h-89v24h89v-24zM420 250h-77q-6 6 -19 18h83q2 -3 5 -6.5t8 -11.5zM691 61
q-10 -4 -31 -11h-201q-4 4 -10 13h143q10 -3 24 -3q20 -2 59 0q12 0 16 1zM442 217h-76q-4 6 -11 17h76q4 -6 11 -17zM393 283h-91q-6 4 -40 19h110q7 -6 21 -19zM464 183h-80q-3 5 -9 16h79q4 -5 10 -16zM188 450h-89v23h89v-23zM486 150h-85q-3 5 -8 15h83q2 -4 10 -15z
M365 370q-20 -12 -36 -20h-230v20h89v-4q5 -1 14 -1q19 0 42 5h121zM509 117h-90q-4 6 -8 14h87q4 -5 11 -14zM545 83h-108l-4 6q-2 3 -4 8h98q10 -10 18 -14zM188 417h-89v22h89v-22zM610 29l-24 -12h-95q-4 4 -13 12h132zM349 317h-128q-11 1 -33 5v-5h-89v19h199
q28 -6 51 -19zM188 383h-89v21h89v-21zM548 -5l-12 -7l-7 3l-6 4h25zM188 283h-89v19h89v-19zM188 250h-89v18h89v-18zM188 217h-89v17h89v-17zM188 183h-89v16h89v-16zM188 150h-89v15h89v-15zM188 117h-89v14h89v-14zM188 83h-89v14h89v-14zM190 50h-94l1 13h91
q0 -4 2 -13zM203 17h-120q3 4 7 12h106q4 -8 7 -12z" />
    <glyph glyph-name="L" unicode="L" horiz-adv-x="505" 
d="M189 583h-144q-8 6 -27 16h171v-16zM189 550h-113q-8 12 -21 25h134v-25zM189 517h-97q-3 10 -9 21l-1 1q0 1 -1 2h108v-24zM189 483h-89l-2 12q-1 6 -3 12h94v-24zM189 450h-89v23h89v-23zM488 122q-2 -4 -3 -5h-4q4 2 7 5zM189 417h-89v22h89v-22zM474 97q-2 -5 -7 -14
h-41q11 5 25 14h23zM189 383h-89v21h89v-21zM189 350h-89v20h89v-20zM189 317h-89v19h89v-19zM457 63q-2 -4 -3 -7l-2 -6h-119q19 3 46 13h78zM189 283h-89v19h89v-19zM189 250h-89v18h89v-18zM189 217h-89v17h89v-17zM437 -5q0 -4 -2 -12h-38q-33 9 -84 12h124zM189 183
h-89v16h89v-16zM189 150h-89v15h89v-15zM445 29l-4 -12h-359q6 8 8 12h355zM189 117h-89v14h89v-14zM189 83h-89v14h89v-14zM190 50h-93l1 13h91v-12v-1h1zM202 -5l-139 -3q1 1 1 2l1 1h137z" />
    <glyph glyph-name="M" unicode="M" horiz-adv-x="840" 
d="M823 605q-18 -7 -40 -22h-96l23 20zM775 575q-7 -10 -7 -20v-5h-115l10 12l15 13h97zM768 483h-70q0 14 -2 24h72v-24zM768 517h-73q-2 6 -2 9l-8 -9h-60l20 24h123v-24zM768 450h-70v23h70v-23zM768 417h-70v22h70v-22zM677 507l-20 -24h-60l20 24h60zM768 383h-70v21
h70v-21zM768 350h-70v20h70v-20zM648 473l-19 -23h-60l19 23h60zM768 317h-70v19h70v-19zM768 283h-70v19h70v-19zM620 439l-18 -22h-61l19 22h60zM768 250h-70v18h70v-18zM768 217h-70v17h70v-17zM591 404l-18 -21h-60l17 21h61zM768 183h-70v16h70v-16zM768 150h-70v15h70
v-15zM562 370l-17 -20h-60l17 20h60zM768 117h-70v14h70v-14zM769 83h-70v14h70v-14zM533 336l-16 -19h-60l16 19h60zM771 50h-75q0 4 2 13h72q0 -5 1 -6v-7zM785 17h-103q5 6 7 12h88q2 -4 8 -12zM264 517h-136v17l-12 7h127zM505 302l-16 -19h-131l-17 19h164zM322 450
h-118l-21 23h119zM351 417h-117l-20 22h117zM381 383h-115l-20 21h116zM293 483h-165v24h144zM410 350h-114l-18 20h114zM206 583h-174q-8 6 -14 12l41 5h132zM235 550h-133l-15 9q-22 5 -40 13q-2 0 -5 3h171zM438 317h-111l-18 19h113zM476 268q-9 -11 -13 -18h-74l-17 18
h104zM453 234q-2 -6 -7 -17h-27l-16 17h50zM445 189l-10 10h9q0 -7 1 -10zM174 450h-46v23h46v-23zM174 417h-46v22h46v-22zM174 383h-46v21h46v-21zM174 350h-46v20h46v-20zM174 317h-46v19h46v-19zM174 283h-46v19h46v-19zM174 250h-46v18h46v-18zM174 217h-46v17h46v-17z
M174 183h-46v16h46v-16zM174 150h-46v15h46v-15zM177 117h-49v14h47q0 -6 2 -14zM190 83h-63q0 2 1 7v7h55q2 -5 7 -14zM212 50h-93q1 4 4 13h79q6 -9 10 -13zM242 17h-138l6 12h120z" />
    <glyph glyph-name="N" unicode="N" horiz-adv-x="646" 
d="M629 583h-116v17h116v-17zM629 550h-88l-28 22v3h116v-25zM629 517h-55q-4 6 -8 14l-13 10h76v-24zM629 483h-46q-2 14 -3 20q-1 1 -1 4h50v-24zM629 450h-46v23h46v-23zM629 417h-46v22h46v-22zM629 383h-46v21h46v-21zM629 350h-46v20h46v-20zM629 317h-46v19h46v-19z
M629 283h-46v19h46v-19zM629 250h-46v18h46v-18zM629 217h-46v17h46v-17zM629 183h-46v16h46v-16zM629 150h-46v15h46v-15zM262 517h-134v17l-12 7h125zM319 450h-116l-20 23h116zM348 417h-116l-20 22h117zM291 483h-163v24h142zM377 383h-115l-19 21h116zM205 583h-173
q-8 6 -14 12l41 5h132zM234 550h-132l-15 9q-22 5 -40 13q-2 0 -5 3h170zM405 350h-114l-18 20h115zM433 317h-113l-17 19h114zM463 283h-114l-16 19h113zM491 250h-113l-16 18h114zM519 217h-112l-15 17h113zM629 117h-134l-12 14h146v-14zM548 183h-111l-14 16h112z
M577 150h-111l-13 15h111zM629 83h-104l-12 14h116v-14zM629 50h-75l-11 13h86v-13zM629 29q0 -2 -1 -6v-6h-44q-4 3 -10 11l-1 1h56zM174 450h-46v23h46v-23zM613 -6q-1 1 -3 1h2zM174 417h-46v22h46v-22zM174 383h-46v21h46v-21zM174 350h-46v20h46v-20zM174 317h-46v19
h46v-19zM174 283h-46v19h46v-19zM174 250h-46v18h46v-18zM174 217h-46v17h46v-17zM174 183h-46v16h46v-16zM174 150h-46v15h46v-15zM177 117h-49v14h47q0 -6 2 -14zM190 83h-63q0 2 1 7v7h55q2 -5 7 -14zM212 50h-93q1 4 4 13h79q6 -9 10 -13zM242 17h-138l6 12h120z" />
    <glyph glyph-name="O" unicode="O" horiz-adv-x="721" 
d="M648 483h-105q-6 7 -18 20q-3 1 -4 4h107zM619 517h-109q-18 15 -34 24h116q1 -2 5 -4q12 -10 22 -20zM669 450h-104q-4 8 -14 23h104q5 -8 14 -23zM684 417h-103q-4 7 -10 22h103q3 -5 10 -22zM694 383h-103l-6 21h103q4 -9 6 -21zM700 350h-103q-1 7 -3 20h103
q1 -7 3 -20zM703 317h-103q0 6 -2 19h104q1 -5 1 -10v-9zM524 583h-326q32 14 83 26h159q51 -11 84 -26zM704 300v-9q-1 -5 -1 -8h-104q0 3 1 8v9v2h104v-2zM580 550h-122q-45 20 -97 20q-58 0 -104 -20h-115q18 12 40 25h357q24 -13 41 -25zM703 268l-3 -18h-103q0 3 1 9v9
h105zM698 234q-1 -6 -3 -17h-104q1 6 3 17h104zM690 199q-2 -5 -6 -16h-103q3 6 5 16h104zM676 165q-2 -5 -7 -15h-103q2 5 7 15h103zM658 131q-4 -8 -10 -14h-103q6 6 10 14h103zM240 541q-16 -9 -34 -24h-104q5 5 11 10l12 10q1 1 2.5 2t2.5 2h110zM632 97q-7 -10 -13 -14
h-105q8 6 14 14h104zM196 507q-9 -9 -14 -16q-2 -3 -7 -8h-102l20 24h103zM597 63q-5 -4 -9 -7l-8 -6h-118q15 6 25 13h110zM168 473q-8 -12 -13 -23h-103q4 8 14 23h102zM149 439l-4 -11l-5 -11h-102q2 8 9 22h102zM136 404l-6 -21h-103q2 12 6 21h103zM128 370
q-1 -7 -3 -20h-104q1 7 3 20h104zM123 336q0 -3 -1 -10v-9h-104q1 5 1 9v10h104zM546 29q-7 -5 -23 -12h-326q-5 2 -22 12h371zM122 283h-104v19h104v-19zM459 -5q-49 -11 -98 -11q-50 0 -99 11h197zM125 250h-104q-2 10 -2 18h104q0 -6 2 -18zM131 217h-104q-1 6 -3 17h103
q1 -6 4 -17zM141 183h-103q-2 5 -6 16h103q2 -5 6 -16zM155 150h-102q-3 5 -8 15h103q2 -5 7 -15zM260 50h-119l-8 6q-4 3 -8 7h110q10 -7 25 -13zM176 117h-102q-6 6 -10 14h102q3 -5 10 -14zM208 83h-105q-6 4 -13 14h103l8 -7q3 -4 7 -7z" />
    <glyph glyph-name="P" unicode="P" horiz-adv-x="463" 
d="M444 517h-108q-4 15 -17 24h118q2 -8 7 -24zM189 583q37 20 76 26h74q36 -6 62 -25v-1h-212zM446 496q0 -9 -1 -13h-104v5q0 9 -2 19h106q1 -4 1 -11zM444 473q-1 -10 -5 -23h-103q4 10 4 23h104zM435 439q-5 -13 -10 -22h-101q6 11 9 22h102zM433 550h-132q-17 5 -35 5
q-20 0 -43 -5h-175q-21 24 -28 25h109q1 -2 5 -5l11 -16q12 11 29 21h238q14 -12 21 -25zM417 404q-5 -7 -16 -21h-102q9 9 17 21h101zM389 370q-13 -13 -23 -20h-108q9 7 28 20h103zM118 583h-100v16l15 1q50 3 85 -17zM199 541q-21 -11 -30 -24h-101q-5 13 -13 24h144z
M165 507q-1 -3 -1 -10v-14h-90q0 12 -3 24h94zM348 336q-3 -2 -30 -19h-134q17 5 48 19h116zM164 450h-90v23h90v-23zM164 417h-90v22h90v-22zM164 383h-90v21h90v-21zM164 350h-90v20h90v-20zM291 302q-18 -9 -40 -19h-177v19h217zM164 317h-90v19h90v-19zM217 268
q-39 -16 -54 -16v-2h-89v18h143zM163 217h-89v17h89v-17zM163 183h-89v16h89v-16zM163 150h-89v15h89v-15zM163 117h-89v14h89v-14zM164 83h-90v14h90v-14zM165 50h-94l1 13h92q1 -5 1 -13zM179 17h-122q6 6 9 12h106q4 -8 7 -12z" />
    <glyph glyph-name="Q" unicode="Q" horiz-adv-x="828" 
d="M648 483h-105q-6 7 -18 20q-3 1 -4 4h107zM619 517h-109q-18 15 -34 24h116q1 -2 5 -4q12 -10 22 -20zM669 450h-104q-4 8 -14 23h104q5 -8 14 -23zM684 417h-103q-4 7 -10 22h103q3 -5 10 -22zM694 383h-103l-6 21h103q4 -9 6 -21zM700 350h-103q-1 7 -3 20h103
q1 -7 3 -20zM703 317h-103q0 6 -2 19h104q1 -5 1 -10v-9zM524 583h-326q32 14 83 26h159q51 -11 84 -26zM704 300v-9q-1 -5 -1 -8h-104q0 3 1 8v9v2h104v-2zM580 550h-122q-45 20 -97 20q-58 0 -104 -20h-115q18 12 40 25h357q24 -13 41 -25zM703 268q0 -6 -2 -18h-104
q1 5 1 9v9h105zM698 234q-1 -6 -4 -17h-103q1 6 3 17h104zM689 199q-2 -10 -5 -16h-104q2 5 6 16h103zM676 165q-2 -5 -7 -15h-104q3 5 8 15h103zM658 131q-4 -8 -10 -14h-104q4 4 10 14h104zM240 541q-16 -9 -34 -24h-104q5 5 11 10l12 10q1 1 2.5 2t2.5 2h110zM632 97
q-3 -4 -6 -7l-7 -7h-127q-2 2 -3 5l-4 7q-1 0 -1 2h148zM497 183h-78q-4 5 -7 9l-8 7h79q0 -2 2 -2q6 -8 12 -14zM466 217h-81q-5 5 -10 9l-10 8h82q6 -5 19 -17zM521 150h-74q-8 7 -12 15h76q4 -5 10 -15zM762 -83h-76q-15 4 -28 9h86q9 -4 18 -9zM427 250h-85l-26 18h83
l15 -9q6 -4 13 -9zM196 507q-9 -9 -14 -16q-2 -3 -7 -8h-102l20 24h103zM544 117h-74q-3 4 -9 14h74q3 -4 9 -14zM371 283h-77l-27 19h48q33 -10 47 -15q3 -2 9 -4zM699 -50h-86q-4 3 -13 10h84q5 -4 15 -10zM653 -17h-80l-12 12h78q5 -4 14 -12zM596 63q-4 -4 -10 -8l5 -5
h-132q9 4 26 13h111zM168 473q-8 -12 -13 -23h-103q4 8 14 23h102zM254 317h-9l-4 3q4 -1 13 -3zM149 439l-4 -11l-5 -11h-102q2 8 9 22h102zM136 404l-6 -21h-103q2 12 6 21h103zM128 370q-1 -7 -3 -20h-104q1 7 3 20h104zM618 17h-77q-4 4 -5 6q-4 -2 -13 -6h-326
q-5 2 -22 12h433q2 -2 5 -6.5t5 -5.5zM123 336q0 -3 -1 -10v-9h-104q1 5 1 9v10h104zM122 283h-104v19h104v-19zM459 -5q-51 -11 -98 -11q-50 0 -99 11h197zM125 250h-104q-2 10 -2 18h104q0 -6 2 -18zM131 217h-104q-1 6 -3 17h103q1 -6 4 -17zM141 183h-103q-2 5 -6 16
h103q2 -5 6 -16zM155 150h-102q-3 5 -8 15h103q2 -5 7 -15zM260 50h-119l-8 6q-4 3 -8 7h110q10 -7 25 -13zM176 117h-102q-6 6 -10 14h103q1 -2 9 -14zM208 83h-105q-6 4 -13 14h103l8 -7q3 -4 7 -7z" />
    <glyph glyph-name="R" unicode="R" horiz-adv-x="566" 
d="M444 517h-108q-4 15 -17 24h118q2 -8 7 -24zM189 583q37 20 76 26h74q36 -6 62 -25v-1h-212zM446 496q0 -9 -1 -13h-104v5q0 9 -2 19h106q1 -4 1 -11zM444 473q-1 -10 -5 -23h-103q4 10 4 23h104zM435 439q-5 -13 -10 -22h-101q6 11 9 22h102zM433 550h-132q-17 5 -35 5
q-20 0 -43 -5h-175q-21 24 -28 25h109q1 -2 5 -5l11 -16q12 11 29 21h238q14 -12 21 -25zM417 404q-5 -7 -16 -21h-102q9 9 17 21h101zM389 370q-13 -13 -23 -20h-108q9 7 28 20h103zM118 583h-100v16l15 1q50 3 85 -17zM199 541q-21 -11 -30 -24h-101q-5 13 -13 24h144z
M165 507q-1 -3 -1 -10v-14h-90q0 12 -3 24h94zM348 336q-3 -2 -30 -19h-134q17 5 48 19h116zM164 450h-90v23h90v-23zM164 417h-90v22h90v-22zM164 383h-90v21h90v-21zM334 217h-114l-9 9q-4 4 -9 8h115zM363 183h-116q-4 5 -12 16h115q8 -8 9.5 -11t3.5 -5zM390 150h-116
l-12 15h116zM164 350h-90v20h90v-20zM418 117h-116q-3 3 -12 14h116q4 -5 12 -14zM520 17h-117l-15 12h116q10 -9 16 -12zM291 302q-18 -9 -40 -19h-177v19h217zM447 83h-116q-3 3 -9 11q-2 0 -3 3h116q6 -8 12 -14zM480 50h-116q-7 6 -13 13h116zM164 317h-90v19h90v-19z
M299 250h-123q-4 2 -12 4v-4h-90v18h201zM164 217h-90v17h90v-17zM164 183h-90v16h90v-16zM164 150h-90v15h90v-15zM164 117h-90v14h90v-14zM164 83h-90v14h90v-14zM165 50h-94l1 13h92q1 -5 1 -13zM179 17h-122q6 6 9 12h106q4 -8 7 -12z" />
    <glyph glyph-name="S" unicode="S" horiz-adv-x="490" 
d="M429 541l-1 -3q-8 -11 -12 -21h-71q-17 15 -37 24h121zM413 483h-42q-8 15 -16 24h58v-2l-1 -12v-5q1 -4 1 -5zM385 583h-234q17 7 27 10q26 7 88 7q59 0 119 -17zM413 468q0 -8 -1 -9q-2 -5 -7 -9h-20l-4 12q-2 6 -5 11h37v-5zM439 563l-6 -13h-154q-20 4 -43 4
q-24 0 -40 -4h-97q14 11 36 25h274zM393 439q-2 -1 -4 -3v2q-1 0 -1 1h5zM171 541q-23 -13 -34 -24h-74q7 9 25 24h83zM467 217h-133q-12 7 -36 17h162q4 -8 7 -17zM473 183h-104l-6 8q-3 4 -7 8h115q2 -10 2 -16zM472 165q0 -3 -1 -7v-8h-90q-2 10 -4 15h95zM129 507
q-8 -11 -12 -24h-78q6 12 16 24h74zM451 250h-215l-70 18h270zM467 131q-1 -5 -5 -14h-81q2 8 2 14h84zM418 283h-304q-13 5 -36 19h307q20 -10 33 -19zM114 473q-3 -12 -3 -23h-85q2 8 8 23h80zM338 317h-279q-9 9 -17 19h226zM452 97q-1 -2 -9 -14h-77q3 4 9 14h77z
M114 417h-93q0 12 2 22h88q0 -12 3 -22zM217 350h-183q-5 11 -8 20h131q12 -7 38 -14zM137 383h-114q-2 10 -2 21h99q6 -11 17 -21zM424 63q-7 -7 -17 -13h-112q28 5 44 13h85zM56 183h-5v10q1 -4 5 -10zM371 29q-13 -7 -29 -12h-248q-20 4 -39 12h316zM75 150h-25q0 3 1 7
v8h15zM100 117h-52q0 2 1 7v7h39q6 -8 12 -14zM135 83h-100q4 10 6 14h77q5 -5 17 -14zM204 50h-183q3 7 5 13h141q17 -8 37 -13z" />
    <glyph glyph-name="T" unicode="T" horiz-adv-x="719" 
d="M633 541q-3 -7 -9 -22l-1 -2h-50q-13 11 -19 15q-9 4 -21 9h100zM621 507l-6 -24h-9q-8 8 -23 24h38zM702 602l-27 -19h-588q4 9 9 26h94q25 -7 65 -7h447zM659 571q-12 -9 -20 -21h-573l12 17q1 2 5 8zM411 517h-96q-8 16 -19 24h115v-24zM411 483h-89q-2 16 -4 24h93
v-24zM411 450h-89v23h89v-23zM411 417h-89v22h89v-22zM125 650h-22q0 5 1 14v14h1q10 -16 20 -28zM167 617h-69q1 3 4 27h28q16 -17 37 -27zM411 383h-89v21h89v-21zM411 350h-89v20h89v-20zM411 317h-89v19h89v-19zM411 283h-89v19h89v-19zM411 250h-89v18h89v-18zM128 541
q-12 -4 -22 -8l-26 -16h-36l16 24h68zM411 217h-89v17h89v-17zM411 183h-89v16h89v-16zM63 507l-39 -24h-4l17 24h26zM411 150h-89v15h89v-15zM411 117h-89v14h89v-14zM411 83h-89v14h89v-14zM412 50h-93l1 13h91q0 -10 1 -13zM426 17h-120q3 4 7 12h105q4 -8 8 -12z" />
    <glyph glyph-name="U" unicode="U" horiz-adv-x="613" 
d="M552 584l-1 -1h-166v8l4 7q6 2 12 2h126q10 0 25 -16zM542 575l-25 -25h-107q-10 12 -23 25h155zM507 541l-10 -10q-11 -11 -12 -14h-51l-8 12q-4 6 -9 12h90zM510 483h-58l-12 24h51q6 -8 19 -24zM537 450h-71q-3 8 -9 23h61q6 -8 19 -23zM559 417h-83q-2 7 -6 22h75
q8 -12 14 -22zM576 383h-93q-1 7 -4 21h87q5 -8 10 -21zM588 350h-100q0 5 -1 10l-2 10h96q2 -7 7 -20zM594 317h-104v9q0 5 -1 10h102q1 -6 3 -19zM596 283h-105v19h104q0 -2 1 -6v-5v-8zM595 268q0 -3 -1 -9v-9h-105q0 3 1 9v9h105zM592 234q-1 -6 -3 -17h-104q2 10 2 17
h105zM229 583l-167 1q13 16 24 16h126q6 0 12 -2l5 -7v-8zM585 199q-1 -5 -4 -16h-104q1 5 4 16h104zM227 575q-13 -13 -23 -25h-107l-26 25h156zM196 541l-16 -24h-52q-2 4 -11 14l-11 10h90zM575 165l-6 -15h-105l6 15h105zM173 507l-12 -24h-59q7 8 19 24h52zM560 131
q-4 -8 -8 -14h-108q3 4 9 14h107zM156 473q-3 -8 -9 -23h-71q6 8 18 23h62zM539 97q-3 -5 -10 -14h-111q4 5 11 14h110zM143 439q-2 -7 -6 -22h-84q6 10 14 22h76zM511 63q-4 -6 -14 -13h-115q9 4 15 10l3 3h111zM133 404l-2 -10l-2 -11h-92q5 13 10 21h86zM127 370
q-2 -10 -2 -20h-99q2 7 6 20h95zM123 326q0 -4 -1 -9h-103q1 6 3 19h101v-10zM122 283h-104v19h104v-19zM124 250h-104q0 6 -2 18h104q0 -6 2 -18zM470 29q-6 -5 -20 -12h-287q-12 5 -20 12h327zM128 217h-104q-1 6 -3 17h104q1 -6 3 -17zM387 -5q-29 -6 -61 -6h-10
q-9 1 -19 0h-9q-32 0 -62 6h161zM136 183h-104q-1 5 -4 16h104q2 -10 4 -16zM149 150h-105l-6 15h104q2 -5 7 -15zM168 117h-107q-5 7 -8 14h106q1 -2 9 -14zM196 83h-112q-3 3 -11 14h111q6 -8 12 -14zM233 50h-118q-4 3 -7 6l-7 7h113q7 -7 19 -13z" />
    <glyph glyph-name="V" unicode="V" horiz-adv-x="708" 
d="M690 600l-8 -17h-139l-11 10l33 7h125zM678 575l-12 -25h-85v1l-28 24h125zM661 541l-11 -24h-60l1 8q-2 9 -5 16h75zM644 507l-13 -24h-54q4 8 11 24h56zM625 473l-13 -23h-50q1 3 11 23h52zM606 439l-12 -22h-48l11 22h49zM586 404l-11 -21h-47q3 7 11 21h47zM568 370
l-11 -20h-48l1 1q1 2 11 19h47zM549 336l-5 -9q-3 -6 -6 -10h-47l10 19h48zM530 302q-4 -6 -10 -19h-48l10 19h48zM512 268q-4 -6 -10 -18h-49l10 18h49zM230 584q-1 -1 -2 -1h-198l-6 8q-3 4 -6 9h191q6 -1 21 -16zM219 575q-11 -10 -19 -25h-146q-1 1 -18 25h183zM494 234
q-3 -5 -9 -17h-50l9 17h50zM201 517h-124q-6 8 -17 24h137v-4l3 -15q0 -1 1 -3v-2zM213 483h-114q-5 8 -16 24h121zM476 199q-3 -5 -8 -16h-52l9 16h51zM225 450h-105q-5 8 -14 23h110q3 -8 9 -23zM239 417h-100q-4 6 -10 18q-2 2 -2 4h103l5 -11zM254 383h-96l-12 21h99z
M459 165q-3 -5 -8 -15h-54l9 15h53zM269 350h-94q-4 7 -10 20h95q3 -7 9 -20zM285 317h-93q-4 6 -10 19h94q3 -6 9 -19zM303 283h-94q-4 6 -10 19h94q3 -7 10 -19zM320 250h-96q-3 6 -8 18h95zM338 217h-99l-4 8q-2 4 -4 9h98q3 -6 9 -17zM357 183h-104q-2 5 -6 16h101
q3 -5 9 -16zM442 131q-2 -5 -7 -14h-156l-5 14h168zM376 150h-110l-1 4q-1 4 -5 11h107zM425 97q-2 -5 -7 -14h-125l-6 14h138zM408 63q-2 -4 -6 -13h-96l-5 13h107zM392 29l-6 -12h-65l-6 12h77zM375 -5q-5 -8 -11 -12h-16q-6 4 -14 12h41z" />
    <glyph glyph-name="W" unicode="W" horiz-adv-x="970" 
d="M909 584l-1 -1h-166v9l5 7q6 2 12 2h126q10 0 24 -17zM899 575l-26 -25h-105q-10 12 -23 25h154zM863 541l-9 -9q-11 -11 -11 -15h-51q-5 8 -17 24h88zM869 483h-59l-12 24h52q7 -8 19 -24zM895 450h-71q-3 8 -9 23h62q6 -8 18 -23zM917 417h-83q-2 7 -7 22h77
q4 -7 13 -22zM934 383h-93q-1 7 -4 21h87q5 -8 10 -21zM945 350h-99q-1 7 -3 20h96q2 -7 6 -20zM951 317h-103v9q0 5 -1 10h101q3 -11 3 -19zM953 283h-104v19h104v-19zM952 268q0 -3 -1 -9v-9h-104q1 5 1 9v9h104zM949 234q-1 -6 -3 -17h-103q1 6 3 17h103zM942 199
q-1 -5 -5 -16h-101q2 6 4 16h102zM932 165l-6 -15h-101l6 15h101zM517 583l-145 1q13 16 24 16h99q19 0 22 -17zM516 575q-3 -11 -8 -25h-100l-27 25h135zM506 541l-6 -24h-62q-2 7 -10 14l-11 10h89zM916 131q-4 -10 -7 -14h-103q3 4 9 14h101zM498 507l-6 -24h-74
q6 12 14 24h66zM896 97q-3 -5 -10 -14h-111q8 6 14 14h107zM491 473q-1 -7 -4 -23h-84q4 8 10 23h78zM485 439q-1 -7 -3 -22h-91q4 10 8 22h86zM868 63l-13 -13h-137q9 2 28 13h122zM481 404q0 -11 -2 -21h-97q1 7 5 21h94zM478 370q0 -3 -1 -10v-10h-101q1 7 3 20h99z
M476 317h-104q0 6 2 19h102v-19zM229 583l-167 1q13 16 24 16h126q6 0 12 -2l5 -7v-8zM476 283h-104v19h104v-19zM227 575q-13 -13 -23 -25h-107l-26 25h156zM827 29q-6 -5 -20 -12h-294q-9 4 -18 12h332zM477 250h-103q0 6 -2 18h104q1 -5 1 -9v-9zM196 541l-16 -24h-52
q-2 4 -11 14l-11 10h90zM481 217h-102q-1 6 -3 17h103q0 -7 2 -17zM744 -5q-29 -6 -61 -6q-6 0 -18 -1t-18 -1q-47 0 -81 8h178zM173 507l-12 -24h-59q7 8 19 24h52zM488 183h-100q-2 9 -5 16h101q2 -10 4 -16zM499 150h-98l-6 15h98zM514 117h-97q-4 6 -8 14h98l3 -6
q2 -6 4 -8zM156 473q-3 -8 -9 -23h-71q6 8 18 23h62zM538 83h-98q-6 6 -10 14h97q4 -8 11 -14zM579 50h-185q19 5 31 13h133q11 -9 21 -13zM143 439q-2 -7 -6 -22h-84q6 10 14 22h76zM133 404l-2 -10l-2 -11h-92q5 13 10 21h86zM127 370q-2 -10 -2 -20h-99q2 7 6 20h95z
M123 326q0 -4 -1 -9h-103q1 6 3 19h101v-10zM122 283h-104v19h104v-19zM123 250h-103q0 6 -2 18h104q1 -5 1 -9v-9zM449 29q-10 -7 -23 -12h-263q-12 5 -20 12h306zM128 217h-104q-1 6 -3 17h104q1 -6 3 -17zM355 -5q-32 -6 -67 -6q-32 0 -62 6h129zM136 183h-104
q-1 5 -4 16h103q1 -5 5 -16zM148 150h-104l-6 15h104zM268 50h-153q-4 3 -7 6l-7 7h132q13 -8 35 -13zM168 117h-107q-5 7 -8 14h105q4 -8 10 -14zM201 83h-117q-3 3 -11 14h112l8 -7q3 -4 8 -7z" />
    <glyph glyph-name="X" unicode="X" horiz-adv-x="671" 
d="M606 594q-2 -8 -4 -11h-145q28 22 54 26h38q30 -3 57 -15zM582 541q-4 -5 -10 -16q-25 12 -45 16h55zM599 575q-4 -8 -12 -25h-163l12 14q5 6 11 11h152zM500 541q-24 -5 -43 -24h-58q7 10 18 24h83zM448 507q-7 -7 -19 -24h-54q3 5 17 24h56zM423 473q-5 -8 -15 -23h-56
q5 8 16 23h55zM403 439q-4 -8 -14 -22h-59q6 10 14 22h59zM164 583h-25q2 0 7 1h6h6q4 -1 6 -1zM274 483h-93q-11 13 -21 24h97q6 -8 17 -24zM221 550h-155q24 16 46 25h75q17 -9 34 -25zM298 450h-94l-2 4q-6 8 -13 19h92q5 -8 17 -23zM381 404q-5 -7 -16 -21h-117l-14 21
h147zM322 417h-96l-15 22h95q5 -7 16 -22zM376 350h-106l-13 20h103zM250 517h-101q-20 16 -39 16q-14 0 -46 -8l-32 -8h-9q16 13 30 24h177q10 -10 20 -24zM402 317h-146l16 19h115zM455 250h-104q-1 2 -14 18h104zM481 217h-105q-5 5 -13 17h105zM508 183h-108
q-4 5 -11 16h106zM534 150h-111q-2 2 -2 3q-6 8 -8 12h109zM560 117h-115q-4 4 -10 14h114zM429 283h-104q-5 6 -14 18q-9 -11 -13 -18h-70l16 19h170zM587 83h-121q-3 4 -9 14h119zM614 50h-127q-5 6 -8 13h124zM640 17h-132l-8 12h130zM288 268q-7 -11 -13 -18h-74l15 18
h72zM265 234q-4 -5 -12 -17h-79l14 17h77zM241 199q-3 -6 -11 -16h-84l13 16h82zM218 165l-3 -6l-6 -9h-90l12 15h87zM199 131q-4 -8 -8 -14h-97q4 4 10 14h95zM181 97q-2 -5 -7 -14h-105q4 4 10 14h102zM166 63q-2 -4 -3 -7l-2 -6h-114q3 4 8 13h111zM153 29q-2 -4 -4 -12
h-122q2 4 7 12h119z" />
    <glyph glyph-name="Y" unicode="Y" horiz-adv-x="639" 
d="M622 599q-6 -7 -11 -16h-155q-4 3 -13 9l34 7h145zM605 575q-8 -15 -17 -25h-96q-7 8 -26 25h139zM582 541q-5 -8 -17 -24h-64q2 4 2 7q-2 8 -6 17h85zM559 507l-16 -24h-55q2 4 10 24h61zM536 473q-5 -8 -15 -23h-52q4 8 13 23h54zM514 439q-5 -8 -15 -22h-51
q7 10 14 22h52zM491 404q-3 -3 -7 -10.5t-7 -10.5h-52l4 5q4 5 11 16h51zM469 370q-4 -5 -7 -10l-6 -10h-53l13 20h53zM447 336q-4 -6 -12 -19h-55l13 19h54zM230 587q-1 -1 -2.5 -2t-2.5 -2h-193q-5 7 -14 20h191q5 0 21 -16zM216 575q-14 -14 -18 -25h-143q-6 8 -17 25
h178zM425 302q-4 -6 -12 -19h-56l13 19h55zM200 517h-121q-8 9 -18 24h136v-2q0 -10 3 -22zM211 483h-110l-3 7q-3 2 -13 17h118q3 -8 8 -24zM404 268l-12 -18h-58l12 18h58zM225 450h-106l-12 23h108q4 -8 10 -23zM240 417h-104l-11 22h105q4 -7 10 -22zM257 383h-103
l-11 21h104q4 -7 10 -21zM275 350h-103l-11 20h103q4 -7 11 -20zM292 317h-103l-10 19h103q7 -12 10 -19zM311 283h-104l-5 9l-5 10h104q4 -6 10 -19zM383 234q-4 -5 -10 -16l-1 -1h-130l-9 17h150zM330 250h-106l-9 18h105q4 -6 10 -18zM361 199l-10 -16h-91l-9 16h110z
M340 165l-10 -15h-59l4 6l-5 9h70zM318 131l-8 -14h-60l9 14h59zM297 97l-9 -14h-60l9 14h60zM276 63l-8 -13h-60l8 13h60zM255 29l-8 -12h-60l8 12h60zM234 -5l-8 -12h-60l7 12h61zM212 -40l-6 -10h-61l6 10h61zM191 -74q-4 -6 -5 -9h-62l6 9h61zM215 -117h-112l5 9h86
q1 -1 3.5 -2.5t7.5 -3.5z" />
    <glyph glyph-name="Z" unicode="Z" horiz-adv-x="700" 
d="M655 583h-200q56 1 135 6q15 1 21 2q30 0 44 -8zM608 507l-25 -24h-76l25 24h76zM572 473l-24 -23h-75l23 23h76zM666 567q-5 -11 -9 -14l-3 -3h-551q15 15 20 25h540q3 -5 3 -8zM536 439l-23 -22h-75l23 22h75zM644 541l-25 -24h-546q4 4 11 12t11 12h549zM499 404
l-22 -21h-74l22 21h74zM312 583h-184q7 9 15 26h52q24 -13 53 -20zM184 617h-37q4 10 10 20q19 -16 27 -20zM463 370l-21 -20h-74l21 20h74zM427 336l-20 -19h-73l20 19h73zM391 302l-20 -19h-72l19 19h73zM181 507q-55 -9 -105 -23l-19 15q1 1 3.5 4t3.5 4h117zM683 95
q0 -2 -15 -12h-304q39 1 117 4l116 5q23 1 39 5h47v-2zM355 268l-19 -18h-71l18 18h72zM319 234l-18 -17h-70l17 17h71zM282 199l-17 -16h-69l16 16h70zM637 63q-4 -2 -5 -3q-5 -4 -16 -10h-557l13 13h565zM246 165l-16 -15h-68l15 15h69zM588 29q-5 -4 -14 -12h-549l12 12
h551zM210 131l-15 -14h-67l14 14h68zM226 83h-133l14 14h67l-5 -5q9 -8 57 -9z" />
    <glyph glyph-name="bracketleft" unicode="[" horiz-adv-x="296" 
d="M272 674l-61 -24h-177q13 8 27.5 16t27.5 8h183zM196 644l-67 -27h-17l-5 1v-1h-86v9q1 10 8 18h167zM107 583h-87l1 26h86v-26zM107 550h-87v25h87v-25zM107 517h-87v24h87v-24zM107 483h-88l1 24h87v-24zM107 450h-88v23h88v-23zM107 417h-89l1 22h88v-22zM107 383h-89
v21h89v-21zM107 350h-89v20h89v-20zM107 317h-89v19h89v-19zM107 283h-89v19h89v-19zM107 250h-89v18h89v-18zM107 217h-89v17h89v-17zM107 183h-89v16h89v-16zM107 150h-89v15h89v-15zM107 117h-89v14h89v-14zM279 22l-15 -5h-246v12h89v-7h172zM107 83h-89v14h89v-14z
M107 50h-89v13h89v-13zM201 -5l-34 -12h-149v12h183z" />
    <glyph glyph-name="backslash" unicode="\" horiz-adv-x="475" 
d="M132 684h-112l4 16h101zM146 650h-86l-42 25v3h116zM161 617h-69q-7 9 -23 27h80zM176 583h-60q-10 14 -18 26h66zM190 550h-57q-3 7 -6 13l-6 12h58zM205 517h-56l-12 24h57zM220 483h-56q-4 8 -11 24h56zM234 450h-55q-4 7 -10 23h55zM249 417h-55q-3 5 -10 22h55z
M263 383h-54q-4 7 -10 21h55zM278 350h-55q-3 7 -9 20h55zM292 317h-55q-3 6 -8 19h55zM307 283h-55q-5 10 -8 19h55zM322 250h-56l-8 18h56zM336 217h-55l-8 17h56zM351 183h-56l-7 16h56zM366 150h-57l-6 15h56zM380 117h-56q-4 8 -6 13l-1 1h57zM394 83h-56q-2 4 -6 14
h56zM409 50h-58q-4 8 -5 13h57q2 -5 6 -13zM426 17h-63l-4 12h60q2 -4 3 -5.5t4 -6.5zM454 -17h-83q0 4 -2 12h74q4 -4 11 -12z" />
    <glyph glyph-name="bracketright" unicode="]" horiz-adv-x="297" 
d="M280 650h-164l56 20h108v-20zM280 583h-90v26h90v-26zM280 550h-90v25h90v-25zM280 617h-257l76 27h181v-27zM280 517h-90v24h90v-24zM280 483h-90v24h90v-24zM280 450h-90v23h90v-23zM280 417h-90v22h90v-22zM280 383h-90v21h90v-21zM280 350h-90v20h90v-20zM280 317
h-90v19h90v-19zM280 283h-90v19h90v-19zM280 250h-90v18h90v-18zM280 217h-90v17h90v-17zM280 183h-90v16h90v-16zM280 150h-90v15h90v-15zM280 117h-90v14h90v-14zM280 83h-90v14h90v-14zM280 50h-90v13h90v-13zM280 29q0 -4 -2 -12h-120l15 6l17 -2v8h90zM268 -5
q-4 -6 -13 -11q-1 0 -2 -1h-181l30 12h166z" />
    <glyph glyph-name="asciicircum" unicode="^" horiz-adv-x="319" 
d="M187 684h-36q1 1 17 21q4 -6 19 -21zM249 617h-55q-8 9 -22 27h52q3 -4 6 -7l7 -7q3 -4 6 -7zM278 583h-56q-7 9 -21 26h55l12 -13q5 -7 10 -13zM218 650h-97q3 2 10 10t15 18h46q10 -12 26 -28zM302 552h-98l13 11q3 1 11 12h57q6 -8 17 -23zM172 644q-15 -15 -25 -27
h-54l5 5q6 7 18 22h56zM142 609q-12 -17 -12 -26h-75q13 10 29 26h58zM135 550h-3l-6 2h-108q10 7 28 23h85q0 -3 1 -5l1 -6l1 -5z" />
    <glyph glyph-name="underscore" unicode="_" horiz-adv-x="681" 
d="M150 -16zM590 -40l-31 -10h-514l31 10h514z" />
    <glyph glyph-name="grave" unicode="`" horiz-adv-x="226" 
d="M132 684h-112l4 16h101zM146 650h-91q-17 12 -37 25v3h116zM161 617h-71l-27 27h85q2 -4 13 -27zM181 583h-65q-6 9 -19 26h69q4 -9 15 -26zM205 550h-80l2 8q0 6 -6 17h65q11 -15 19 -25z" />
    <glyph glyph-name="a" unicode="a" horiz-adv-x="370" 
d="M326 283h-81q1 1 2.5 4.5t2.5 4.5q-8 5 -21 10h95q2 -10 2 -18v-1zM237 350h-81q19 3 42 3q19 0 39 -3zM326 250h-125q2 0 3 1q17 7 27 17h95v-18zM317 317h-247q19 12 35 19h188q16 -8 24 -19zM326 217h-76v17h76v-17zM326 183h-76v16h76v-16zM326 150h-76v15h76v-15z
M326 117h-76v14h76v-14zM236 234q-13 -11 -27 -17h-115q5 2 37 11l23 6h82zM326 83h-88l12 9v5h76v-14zM64 302q-6 -1 -19 -5l5 5h14zM344 17h-93q-5 8 -5 12h90q4 -8 8 -12zM160 199q-26 -9 -29 -11.5t-7 -4.5h-81q4 6 16 16h101zM326 50h-297q-4 8 -5 13h109q13 -6 33 -6
q17 0 34 6h126v-13zM110 165q-4 -10 -5 -15h-80q1 7 6 15h79zM102 117h-83q0 9 1 14h82v-14zM236 29q-9 -7 -20 -12h-154q-2 1 -5 4q-6 3 -11 8h190zM111 83h-92q-1 4 -1 14h87q1 -8 6 -14z" />
    <glyph glyph-name="b" unicode="b" horiz-adv-x="480" 
d="M170 583h-19l19 8v-8zM170 550h-59q12 10 25 25h34v-25zM446 250h-88q-1 3 -5 9l-6 9h88q4 -6 11 -18zM424 283h-92q-16 13 -36 19h108q1 -1 4 -3zM170 517h-117l26 12q9 3 21 12h70v-24zM457 217h-85q-2 6 -6 17h86q3 -8 5 -17zM462 183h-85v8q0 4 -1 8h85q0 -3 1 -8v-8
zM170 450h-76v23h76v-23zM170 483h-86q-6 3 -24 6q-38 8 -42 12l13 6h139v-24zM463 165q0 -10 -1 -15h-85q1 5 1 15h85zM383 317h-289v19h76v-18q16 10 38 18h129q26 -8 46 -19zM170 417h-76v22h76v-22zM460 131q-2 -10 -3 -14h-85q1 4 3 14h85zM170 383h-76v21h76v-21z
M450 97q-4 -10 -6 -14h-86q3 4 7 14h85zM170 350h-76v20h76v-20zM252 302q-19 -6 -40 -19h-118v19h158zM432 63q-6 -8 -11 -13h-88l6 6q3 3 6 7h87zM191 268q-12 -11 -16 -18h-81v18h97zM170 217h-76v17h76v-17zM170 183h-76v16h76v-16zM170 150h-76v15h76v-15zM398 29
q-7 -7 -17 -12h-218q-4 3 -10 11q-2 0 -4 -2l-8 -9h-72q1 4 3 7t3 5h175q5 -2 10 -2h11q10 0 20 2h107zM170 117h-76v14h76v-14zM326 -5q-26 -6 -55 -6q-11 0 -29 1l-45 4q-2 0 -5 1h134zM170 83h-76v14h76v-14zM201 50h-112q4 8 4 13h90q6 -6 18 -13z" />
    <glyph glyph-name="c" unicode="c" horiz-adv-x="368" 
d="M343 283h-80l-5 5q-3 3 -7 5l-18 9h99q9 -8 11 -19zM333 268q-6 -6 -21 -16q-2 -2 -3 -2h-33v1q0 8 -3 17h60zM309 317h-210q20 12 44 19h117l27 -9q12 -6 22 -10zM284 234q-6 -4 -13 -6q1 2 2 6h11zM349 97q-4 -10 -6 -14h-9q6 4 13 14h2zM172 302q-15 -5 -30 -19h-86
q3 3 10 9.5t10 9.5h96zM333 63q-3 -4 -9 -13h-42q2 0 3 1q13 5 23 12h25zM129 268q-1 -1 -4.5 -6.5t-6.5 -11.5h-85q4 6 11 18h85zM111 234q-2 -7 -4 -17h-86l2 8q1 4 3 9h85zM103 199q0 -3 -1 -8v-8h-84v16h85zM103 150h-83q0 5 -2 15h84q0 -3 1 -7v-8zM306 29
q-6 -7 -14 -12h-193q-5 4 -17 12h224zM242 -5q-16 -4 -36 -4q-23 0 -45 4h81zM112 117h-86q-1 5 -3 14h84q1 -7 5 -14zM131 83h-92q-2 4 -6 14h88q3 -5 10 -14zM171 50h-111q-4 4 -10 13h101q11 -9 20 -13z" />
    <glyph glyph-name="d" unicode="d" horiz-adv-x="461" 
d="M383 583h-29q10 6 21 10q4 -6 8 -10zM388 550h-88q21 7 30 15q4 4 12 10h45q1 -3 1 -7v-18zM388 483h-78q-3 13 -9 22l-2 2h89v-24zM388 517h-133q-22 2 -58 2q52 14 79 22h112v-24zM388 450h-76v12q0 7 -1 11h77v-23zM388 417h-76v22h76v-22zM388 383h-76v21h76v-21z
M388 350h-76v20h76v-20zM388 283h-118q-20 13 -38 19h156v-19zM388 250h-81q-7 10 -16 18h97v-18zM388 217h-76v17h76v-17zM388 317h-286q16 10 44 19h126q13 -4 40 -17v17h76v-19zM388 183h-76v16h76v-16zM388 150h-76v15h76v-15zM388 117h-76v14h76v-14zM389 83h-77v14h76
q0 -10 1 -14zM185 302q-17 -6 -30 -19h-94q3 4 9.5 10t10.5 9h104zM399 50h-119l10 6q5 3 9 7h94q2 -5 6 -13zM428 -5l-3 -3q-8 -1 -15 -1h-11q-13 0 -18 1l-9 3h56zM141 268q-4 -5 -10 -16l-2 -2h-90q4 6 11 18h91zM121 234q-2 -5 -4 -9l-4 -8h-87q2 9 5 17h90zM430 17
h-101l-2 2q-2 -2 -4 -2h-238q-7 3 -17 12h120q5 -2 10 -2h21q5 0 10 2h187q6 -6 14 -12zM107 199q-1 -5 -3 -16h-85q0 6 2 16h86zM102 150h-84v15h84v-15zM265 -5q-26 -6 -55 -6q-37 0 -67 6h122zM106 117h-85q-2 8 -2 14h84q2 -10 3 -14zM118 83h-88q-1 5 -5 14h87
q4 -10 6 -14zM144 50h-96q-3 4 -9 13h93q3 -4 6 -7z" />
    <glyph glyph-name="e" unicode="e" horiz-adv-x="395" 
d="M320 283h-73q-12 13 -26 19h84q7 -9 7.5 -9t7.5 -10zM338 250h-85l11 2q-2 5 -6 16h71zM289 317h-199q19 12 41 19h122q21 -8 36 -19zM376 131q-1 -7 -5 -14h-4q3 4 9 14zM362 97q-4 -8 -8 -14h-15q6 4 13 14h10zM349 224l-39 -7h-287q2 9 5 17h78q-4 -10 -6 -14l71 14
h174q1 -3 4 -10zM161 302q-16 -6 -29 -19h-79q3 3 9 9.5t9 9.5h90zM341 63q-5 -8 -10 -13h-42q9 3 24 13h28zM121 268l-7 -18h-80l9 18h78zM210 199l-89 -16h-103q0 5 2 16h190zM310 29q-8 -8 -16 -12h-191q-10 5 -17 12h224zM104 150h-86v15h84q0 -5 2 -15zM240 -5
q-20 -4 -41 -4q-20 0 -40 4h81zM112 117h-87q-2 4 -4 14h87q2 -8 4 -14zM131 83h-92l-7 14h90q1 -2 9 -14zM170 50h-107q-5 5 -11 13h98q11 -9 20 -13z" />
    <glyph glyph-name="f" unicode="f" horiz-adv-x="325" 
d="M354 488l-10 -3q-2 0 -9 -2h-38l2 2q-4 13 -18 22h67q4 -9 6 -19zM303 550h-112q29 13 62 13q22 0 50 -13zM343 517h-200l6 6q8 7 25 18h144q2 -2 4 -3q13 -11 21 -21zM316 473q-1 -1 -4 -2.5t-4 -2.5q-17 -11 -29 -18h-2l14 23h25zM206 507l-5 -5q-4 -4 -14 -19h-74
q2 5 7 11l13 13h73zM182 473q-4 -10 -7 -23h-74q2 8 7 23h74zM173 417h-76v4q0 8 2 18h74v-22zM173 383h-76v21h76v-21zM173 350h-76v20h76v-20zM312 336l-10 -19h-277l7 18q1 0 1 1h279zM294 302l-1 -2l-120 1v-18h-76v19h197zM53 383h-6q1 2 3 7q1 -3 3 -7zM93 350h-51
q0 3 1 10t2 10h18q9 -10 22 -15q2 -2 8 -5zM173 250h-76v18h76v-18zM173 217h-76v17h76v-17zM97 302l-79 -2l1 2h78zM173 183h-76v16h76v-16zM173 150h-76v15h76v-15zM173 117h-76v14h76v-14zM173 83h-76v14h76v-14zM173 50h-76v13h76v-13zM173 17h-76v12h76v-12zM165 -5
l-15 -12h-53v12h68zM120 -40l-13 -10h-10v10h23z" />
    <glyph glyph-name="g" unicode="g" horiz-adv-x="469" 
d="M391 268q-1 -5 -1 -9v-9h-54q0 8 -2 18h57zM436 336q-9 -3 -27 -11l-3 -3q-2 -2 -4 -5h-254q33 14 71 19h217zM389 234q0 -3 -1 -9v-8h-51v17h52zM388 183h-56q1 5 3 16h53v-16zM397 302q-4 -8 -4 -15q0 -2 -1 -4h-63q-2 2 -7 5l-5 1q0 1 1 2h-48q-30 0 -59 -8h-119
q12 10 28 19h277zM388 150h-64q1 5 4 15h60v-15zM388 117h-78q3 4 7 14h71v-14zM387 83h-100q3 3 11 14h89v-14zM176 268q-15 -8 -26 -18h-92q4 5 8 9l9 9h101zM386 50h-138q3 1 18 13h120v-13zM385 29q-1 -4 -1 -12h-71v12h72zM381 -5q0 -8 -1 -12h-70q0 2 1 6v6h70z
M134 234q-8 -10 -13 -17h-85q4 5 10 17h88zM377 -40q-2 -6 -2 -10h-71q1 4 3 10h70zM112 199q-2 -5 -6 -16h-82q1 5 4 16h84zM367 -74l-3 -9h-69l3 9h69zM103 165q-2 -10 -2 -15h-83q0 5 2 15h83zM352 -108l-6 -9h-67q1 3 5 9h68zM294 29q-11 -8 -21 -12h-203q-6 4 -12 12
h236zM103 117h-84q-1 4 -1 14h84q0 -10 1 -14zM116 83h-91q-1 4 -3 14h87q4 -10 7 -14zM216 -5q-33 -7 -58 -7q-27 0 -48 7h106zM144 50h-103q-4 5 -7 13h96q7 -9 14 -13zM328 -142l-8 -8h-74q6 3 11 8h71zM287 -176q-5 -2 -15 -7h-157q-5 2 -14 7h186zM110 -83h-37
q1 1 4 4.5t4 4.5h23q3 -6 6 -9zM135 -117h-99l-5 5q6 1 11 4h85q3 -3 8 -9zM172 -150h-105l-7 8h99q1 0 3.5 -1.5t9.5 -6.5z" />
    <glyph glyph-name="h" unicode="h" horiz-adv-x="425" 
d="M162 575l-2 -25h-40q14 8 42 25zM159 537q-2 -7 -6 -20h-91q15 7 33 18q3 1 9 6h55v-4zM397 250h-84q-1 2 -3 5.5t-7 12.5h88zM384 283h-95q-17 14 -42 19h125q2 -3 12 -19zM404 217h-79q-2 9 -5 17h81q1 -6 3 -17zM150 507q-1 -2 -5 -24h-126l-1 19l10 2q5 1 10 3h112z
M407 183h-76q0 5 -2 16h77q0 -5 1 -16zM144 473q-1 -5 -1 -9v-14h-86l-7 7q-11 9 -19 16h113zM359 317h-292v19h76v-17h2q15 7 43 17h143q15 -8 28 -19zM143 417h-76v9q0 5 -3 13h79v-22zM408 150h-76v15h76v-15zM143 383h-76v21h76v-21zM407 131q0 -10 -1 -14h-77q0 5 2 14
h76zM143 350h-76v20h76v-20zM404 97q-2 -10 -3 -14h-76q1 5 1 14h78zM216 302q-29 -5 -51 -19h-98v19h149zM397 63l-2 -13h-76q0 4 2 13h76zM391 29l-3 -12h-76q0 4 2 12h77zM148 268q-5 -8 -5 -17v-1h-76v18h81zM143 217h-76v17h76v-17zM143 183h-76v16h76v-16zM143 150
h-76v15h76v-15zM143 117h-76v14h76v-14zM143 83h-76v14h76v-14zM143 50h-76v13h76v-13zM157 17h-106q6 8 8 12h92z" />
    <glyph glyph-name="i" unicode="i" horiz-adv-x="211" 
d="M155 450h-94q6 17 29 23h40q19 -7 25 -23zM159 437q0 -13 -6 -20h-88q-4 5 -6 19v3h99q0 -1 1 -1v-1zM137 404q-10 -4 -27 -6q-19 0 -31 6h58zM164 317h-129q-7 5 -17 19h146v-19zM164 283h-82q-4 10 -15 16q-4 1 -10 3h107v-19zM164 250h-77v9q0 6 -1 9h78v-18zM164 217
h-77v17h77v-17zM164 183h-77v16h77v-16zM164 150h-77v15h77v-15zM164 117h-77v14h77v-14zM164 83h-77v14h77v-14zM164 50h-77v13h77v-13zM177 17h-104l5 5q1 2 4 7h86q1 -5 9 -12z" />
    <glyph glyph-name="j" unicode="j" horiz-adv-x="203" 
d="M156 450h-95q6 17 30 23h40q19 -7 25 -23zM160 437q0 -13 -6 -20h-89q-4 5 -6 19v3h100q0 -1 1 -1v-1zM137 404q-13 -6 -27 -6q-18 -1 -31 6h58zM164 317h-129q-7 5 -17 19h146v-19zM164 283h-82q-5 9 -15 15q-8 2 -11 4h108v-19zM164 250h-76v6v6q-1 4 -1 6h77v-18z
M164 217h-76v17h76v-17zM164 183h-76v16h76v-16zM164 150h-76v15h76v-15zM164 117h-76v14h76v-14zM164 83h-76v14h76v-14zM164 50h-76v13h76v-13zM164 17h-76v12h76v-12zM164 -5q0 -8 -1 -12h-76q0 2 1 6v6h76zM161 -40q-2 -6 -2 -10h-75q0 3 2 10h75zM153 -74l-3 -9h-72
q0 3 2 9h73zM138 -108q-1 -3 -5 -9h-67q1 3 4 9h68zM115 -142q-2 -1 -4 -5l-3 -3h-61q1 1 2.5 4t2.5 4h63zM79 -176q-5 -3 -11 -7h-52q1 1 4 3.5t4 3.5h55zM-18 -210q-2 0 -7 -1h-7q1 1 3 1h11z" />
    <glyph glyph-name="k" unicode="k" horiz-adv-x="411" 
d="M162 583h-4q2 0 4 2v-2zM161 575l-2 -25h-55q14 8 41 25h16zM387 336l-11 -19h-95q0 1 1 4v3v12h105zM157 541q-2 -8 -7 -24h-112q21 7 52 24h67zM368 302l-9 -16l-3 -3h-91q8 6 13 19h90zM148 507q-1 -8 -4 -24h-114q-8 5 -10 5l-2 19h130zM143 450h-80q-8 15 -17 20
q-2 1 -4 3h101v-23zM143 417h-76v22h76v-22zM338 268q-11 -9 -28 -18h-150q29 2 69 13q7 2 13 5h96zM143 383h-76v21h76v-21zM350 183h-95q-12 10 -26 16h107q8 -8 14 -16zM368 150h-85q-2 4 -10 15h88q2 -5 7 -15zM143 350h-76v20h76v-20zM380 117h-80q-2 5 -6 14h82
q2 -10 4 -14zM388 83h-78q-1 5 -4 14h79q1 -5 3 -14zM143 317h-76v19h76v-19zM316 217h-249v17h218l16 -8q8 -4 15 -9zM392 50h-77q0 5 -2 13h77q0 -4 2 -13zM143 283h-76v19h76v-19zM394 17h-76q0 2 -1 6v6h76q0 -2 1 -6v-6zM143 250h-76v18h76v-18zM143 183h-76v16h76v-16
zM143 150h-76v15h76v-15zM143 117h-76v14h76v-14zM143 83h-76v14h76v-14zM143 50h-76v13h76v-13zM159 17h-109l9 12h91z" />
    <glyph glyph-name="l" unicode="l" horiz-adv-x="224" 
d="M178 550h-107q8 4 18 8q35 10 65 17h24v-25zM178 517h-150q9 13 27 24h123v-24zM178 483h-90q-3 18 -19 24h109v-24zM178 450h-89v23h89v-23zM178 417h-89v22h89v-22zM34 507q-5 -1 -16 -4l2 4h14zM178 383h-89v21h89v-21zM178 350h-89v20h89v-20zM178 317h-89v19h89v-19
zM178 283h-89v19h89v-19zM178 250h-89v18h89v-18zM178 217h-89v17h89v-17zM178 183h-89v16h89v-16zM178 150h-89v15h89v-15zM178 117h-89v14h89v-14zM178 83h-89v14h89v-14zM179 50h-93l1 13h91q0 -10 1 -13zM193 17h-120q3 4 7 12h106q4 -8 7 -12z" />
    <glyph glyph-name="m" unicode="m" horiz-adv-x="609" 
d="M581 250h-89q-1 0 -1 2q-4 5 -10 16h92q3 -6 8 -18zM531 317h-155q40 19 85 19h6q33 0 64 -19zM589 217h-85q-2 9 -5 17h87q1 -6 3 -17zM592 183h-85v8q0 4 -1 8h85q1 -4 1 -8v-8zM591 165l-3 -15h-83q1 5 1 15h85zM583 131q-1 -4 -5 -12l-1 -2h-77q1 4 3 14h80zM564 97
l-8 -14h-66q1 5 5 14h69zM565 283h-100q-14 8 -29 8q-22 0 -43 -8h-154q-16 8 -35 8q-14 0 -33 -8h-120q-1 7 -9 19h281l13 -15q7 7 17 15h197q4 -4 10 -12q1 -3 5 -7zM368 268l-12 -12q2 -4 2 -6h-86q-1 2 -4 6l-9 12h109zM551 50h-75q4 8 6 13h65v-1q0 -5 4 -12zM305 317
h-152q40 19 74 19h16q30 0 62 -19zM368 217h-84q-2 9 -5 17h84q2 -5 3 -9zM580 17h-119l2 11v1h106q6 -6 10 -9zM371 183h-84v8q0 4 -1 8h84q1 -5 1 -9v-7zM587 -7h-131v2h130zM369 165l-3 -15h-81q1 5 1 15h83zM360 131q-1 -5 -5 -14h-75q1 4 3 14h77zM347 97l-7 -14h-69
q2 4 4 14h72zM127 317h-96l-13 13h109v-13zM145 268q-15 -11 -18 -18h-76v18h94zM338 50h-80q4 8 6 13h70v-1q0 -5 4 -12zM367 17h-121l1 10q0 1 1 2h108q6 -6 10 -9zM127 217h-76v17h76v-17zM375 -7h-130v2h129zM127 183h-76v16h76v-16zM127 150h-76v15h76v-15zM127 117
h-76v14h76v-14zM127 83h-76v14h76v-14zM128 50h-77v13h76v-2q0 -8 1 -11zM162 17h-119q4 4 6 12h96zM168 -7h-150l2 2h147z" />
    <glyph glyph-name="n" unicode="n" horiz-adv-x="407" 
d="M377 250h-90q-4 9 -13 18h93q2 -4 7 -10q2 -6 3 -8zM384 217h-86q-1 6 -4 17h87q1 -6 3 -17zM319 317h-168q33 14 73 19h44q29 -5 51 -19zM386 183h-85v1q0 10 -1 15h85q1 -4 1 -8v-8zM384 165q-2 -10 -4 -15h-81q1 5 1 15h84zM357 283h-105q-20 9 -48 9q-16 0 -35 -9
h-118q-2 9 -8 19h296q6 -6 18 -19zM374 131q-2 -8 -5 -14h-75q1 4 3 14h77zM361 97q-2 -5 -6 -14h-70q2 6 4 14h72zM127 317h-96q-4 5 -13 14h109v-14zM354 50h-82q1 4 5 13h72q0 -5 5 -13zM144 268q-14 -10 -17 -18h-76v18h93zM382 17h-122l1 12h111q3 -3 9 -8zM390 -6
h-130v1zM127 217h-76v17h76v-17zM127 183h-76v16h76v-16zM127 150h-76v15h76v-15zM127 117h-76v14h76v-14zM127 83h-76v14h76v-14zM128 50h-77v13h76v-1q0 -8 1 -12zM164 17h-122q4 4 7 12h97zM168 -6l-149 1h149v-1z" />
    <glyph glyph-name="o" unicode="o" horiz-adv-x="398" 
d="M348 283h-86q-15 13 -32 19h98q3 -3 5 -4zM370 250h-84q-2 4 -7 12q-2 2 -4 6h85q4 -6 10 -18zM382 217h-84q-2 9 -5 17h84q3 -8 5 -17zM387 183h-84q0 3 -1 8v8h84q0 -3 1 -8v-8zM307 317h-223q16 10 44 19h136q29 -10 43 -19zM388 165q0 -10 -1 -15h-84q1 5 1 15h84z
M385 131q-2 -10 -3 -14h-84q1 4 3 14h84zM375 97q-2 -5 -6 -14h-85q3 4 7 14h84zM165 302q-20 -7 -32 -19h-88l17 17l2 2h101zM357 63q-6 -8 -11 -13h-88q7 6 13 13h86zM120 268q-1 -1 -4.5 -6.5t-6.5 -11.5h-85q4 6 10 18h86zM102 234q-1 -6 -5 -17h-84q2 9 5 17h84z
M94 199q-2 -10 -2 -16h-84q0 5 2 16h84zM323 29q-7 -7 -17 -12h-214q-6 2 -18 12h249zM92 150h-84v15h84v-15zM245 -5q-22 -4 -47 -4q-24 0 -46 4h93zM98 117h-84q-1 4 -3 14h84q2 -10 3 -14zM112 83h-85q-3 4 -7 14h85q4 -10 7 -14zM137 50h-87q-5 5 -11 13h86q3 -4 6 -7z
" />
    <glyph glyph-name="p" unicode="p" horiz-adv-x="461" 
d="M430 250h-89q-3 4 -9 14q-2 2 -3 4h91q4 -6 10 -18zM409 283h-95q-20 15 -41 19h116q7 -6 20 -19zM440 217h-86q-1 6 -5 17h86q3 -8 5 -17zM444 183h-85q0 6 -2 16h86q0 -3 1 -8v-8zM367 317h-224q28 14 52 19h120q24 -5 52 -19zM444 165q0 -5 -2 -15h-85q0 5 2 15h85z
M440 131q-2 -8 -4 -14h-87q2 6 4 14h87zM430 97q-4 -10 -7 -14h-90q4 6 8 14h89zM232 302q-16 -3 -48 -19h-122q-6 9 -16 19h186zM412 63q-3 -4 -10 -13h-94l6 6q3 3 6 7h92zM128 317h-101l-9 6l15 13h57q13 -6 38 -19zM162 268q-9 -9 -12 -18h-78q-1 6 -4 18h94zM150 217
h-76v17h76v-17zM150 183h-76v16h76v-16zM150 150h-76v15h76v-15zM380 29q-8 -8 -16 -12h-290v12h154q11 -4 23 -4q13 0 24 4h105zM313 -5q-30 -8 -62 -8q-33 0 -63 8h125zM150 117h-76v14h76v-14zM154 83h-80v14h76q0 -9 4 -14zM187 50h-113v13h96q7 -7 17 -13zM150 -17h-76
v12h76v-12zM150 -50h-76v10h76v-10zM150 -83h-76v9h76v-9zM150 -117h-76v9h76v-9zM150 -150h-78q2 4 2 5v3h76v-8zM136 -176q-1 -1 -3 -3.5t-3 -3.5h-87l5 5q0 2 2 2h86zM92 -210q-9 -3 -28 -7h-31l-9 3q-1 1 -1 2v2h69z" />
    <glyph glyph-name="q" unicode="q" horiz-adv-x="431" 
d="M405 302q-5 -6 -13 -19h-117q-23 14 -45 19h175zM387 250h-77q-1 8 -13 18h90v-18zM414 334q-1 -6 -4 -17h-306q25 14 50 19h129l44 -3q18 -2 30 -2h14zM387 217h-76v17h76v-17zM387 183h-76v16h76v-16zM387 150h-76v15h76v-15zM387 117h-76v14h76v-14zM387 83h-80
q4 8 4 14h76v-14zM189 302q-23 -5 -40 -19h-89l6 6q2 2 6 5.5t9 7.5h108zM387 50h-116q12 7 18 13h98v-13zM134 268q-2 -4 -7 -11q-1 -1 -2.5 -3.5t-2.5 -3.5h-85q4 6 11 18h86zM387 -17h-76v12h76v-12zM387 -50h-76v10h76v-10zM115 234q-5 -10 -6 -17h-85q2 6 6 17h85z
M387 -83h-76v9h76v-9zM387 17h-294q-7 3 -17 12h109q12 -3 25 -3q9 0 18 3h159v-12zM105 199q-1 -5 -3 -16h-84q0 5 2 16h85zM402 -117h-91v9h84q2 -3 7 -8v-1zM102 150h-84v15h84v-1q0 -4 -0.5 -7.5t0.5 -6.5zM391 -142l-10 -8h-72q0 2 2 7v1h80zM271 -5q-29 -8 -61 -8
q-35 0 -67 8h128zM107 117h-85q-2 8 -2 14h84q2 -10 3 -14zM120 83h-86q-2 4 -6 14h86q4 -10 6 -14zM145 50h-90q-6 5 -10 13h88q1 -2 12 -13zM347 -176l-1 -1q-6 -4 -8 -6h-46q1 1 2.5 3.5t2.5 3.5h50zM289 -210q-18 -6 -34 -6q1 1 4 3t4 3h26z" />
    <glyph glyph-name="r" unicode="r" horiz-adv-x="347" 
d="M343 283h-84q-12 10 -33 19h110q4 -7 7 -19zM344 268q0 -8 -2 -18h-66q-2 11 -5 18h73zM336 234q-3 -8 -10 -17h-57q4 7 6 15v2h61zM324 317h-306l3 5q4 5 4 13l9 1h51q7 -2 26 -10l9 -6q12 8 28 16h146l8 -4q8 -5 22 -15zM308 199q-10 -8 -25 -16h-41q5 4 13 13l1 1
q0 1 1 2h51zM163 302q-25 -6 -25 -19h-80q-5 10 -13 19h118zM241 165q-10 -3 -30 -8q2 2 5 4t5 4h20zM138 250h-76v18h76v-18zM138 217h-77v17h77v-17zM138 183h-77v16h77v-16zM138 150h-78v15h78v-15zM138 117h-78v14h78v-14zM138 83h-78v14h78v-14zM138 50h-78v13h78v-13z
M153 17h-108l3 3q1 1 3.5 4.5t3.5 4.5h88q4 -4 10 -12z" />
    <glyph glyph-name="s" unicode="s" horiz-adv-x="344" 
d="M307 283h-73q-12 14 -25 19h87q4 -6 11 -19zM316 252q-6 -2 -8 -2h-60l-6 18h70q1 -5 4 -16zM282 317h-199l9 6q9 6 28 13h126q22 -8 36 -19zM265 234q-2 -1 -14 -9q0 6 -1 9h15zM152 302q-15 -6 -22 -19h-77q4 10 13 19h86zM324 117h-87q-4 3 -23 14h104q5 -8 6 -14z
M327 97q0 -10 -1 -14h-75v6v4q-1 3 -1 4h77zM303 150h-145q-18 5 -53 15h177q12 -8 21 -15zM124 268q-3 -9 -3 -18h-76q0 8 2 18h77zM238 183h-165l-7 8q-4 3 -7 8h116q14 -5 40 -10q8 -2 23 -6zM319 63q-2 -5 -8 -13h-77q8 8 10 13h75zM136 217h-87q-1 2 -4 17h77
q3 -9 14 -17zM290 29q-7 -5 -16 -10q-2 -2 -4 -2h-200q-1 1 -4 3q-8 4 -12 9h236zM88 131q-1 -4 -1 -8v-6h-60q7 1 17 4.5t28 9.5h16zM203 -5q-14 -2 -29 -2q-19 0 -35 2h64zM95 83h-74q-2 8 -2 14h71q1 -7 5 -14zM122 50h-87q-2 3 -3 6l-4 7h81q6 -7 13 -13z" />
    <glyph glyph-name="t" unicode="t" horiz-adv-x="319" 
d="M175 483h-113q-2 0 -2 2q-9 3 -25 22h140v-24zM175 450h-77q-3 14 -12 23h89v-23zM175 417h-76v22h76v-22zM175 383h-76v21h76v-21zM175 350h-76v20h76v-20zM313 336l-10 -19h-278l7 16l3 3h278zM294 302l-1 -3h-118v-16h-77l1 16h-81l1 3h275zM48 383h-6l3 6zM89 350
h-47v3v8q-1 6 -1 9h17q14 -16 31 -20zM175 250h-77v18h77v-18zM175 217h-77v17h77v-17zM175 183h-77v16h77v-16zM175 150h-77v15h77v-15zM176 117h-76q0 5 -2 14h77q0 -10 1 -14zM183 83h-76q-2 4 -4 14h76q2 -8 4 -14zM263 17h-100q-11 5 -19 11q-1 0 -2 1h93q13 -7 28 -12
zM208 50h-86q-4 5 -7 13h80q4 -5 13 -13z" />
    <glyph glyph-name="u" unicode="u" horiz-adv-x="389" 
d="M365 336l-6 -19h-121l-4 19h131zM347 302q-7 -7 -16 -19h-78q-4 6 -12 19h106zM333 250h-63l-9 18h64l2 -7zM353 217h-71q-2 6 -6 17h67zM366 183h-78q0 6 -2 16h75q1 -5 5 -16zM370 150h-79q0 10 -1 15h79q1 -5 1 -15zM369 131q0 -10 -1 -14h-81q1 4 3 14h79zM153 334
l-1 -17h-124l-6 17h131zM365 97q-2 -8 -4 -14h-85q2 4 6 14h83zM151 300q-3 -6 -9 -17h-88q-5 6 -17 19h114v-2zM353 63q-2 -4 -4 -7l-4 -6h-93q6 6 9 10q0 1 2 3h90zM135 268l-7 -18h-68l3 6l1 9q0 2 -1 3h72zM123 234q-1 -5 -2 -9l-2 -8h-73q2 4 7 17h70zM115 199
q0 -5 -2 -16h-79q2 9 5 16h76zM111 150h-84q0 5 2 15h82v-15zM327 29q-8 -8 -18 -12h-224q-5 1 -8 5q-6 4 -9 7h259zM112 117h-83q0 5 -2 14h84q0 -10 1 -14zM237 -5q-10 -1 -31 -3q-14 -1 -30 0q-14 1 -27 3h88zM117 83h-80q-2 6 -4 14h81q2 -10 3 -14zM139 50h-88
q-2 3 -3 6l-4 7h82q1 -2 4.5 -6t8.5 -7z" />
    <glyph glyph-name="v" unicode="v" horiz-adv-x="424" 
d="M407 336q-3 -6 -8 -19h-91q-3 4 -9 14l-4 5h112zM392 302q-3 -6 -9 -19h-68l2 6q0 5 -2 13h77zM376 268l-9 -18h-66q4 10 8 18h67zM359 234q-3 -6 -9 -17h-64q2 6 7 17h66zM341 199q-3 -5 -8 -16h-63q2 5 7 16h64zM323 165q-1 -3 -5 -10l-3 -5h-61q2 5 7 15h62zM163 333
v-8q-1 -5 -1 -8h-130l-14 19h145v-3zM305 131l-8 -14h-58q2 4 6 14h60zM160 302q-2 -10 -2 -19h-100l-14 19h116zM159 250h-78l-12 18h88q0 -8 2 -18zM168 217h-67q-4 8 -10 17h71q2 -6 6 -17zM181 183h-62q-5 8 -8 16h63q2 -5 7 -16zM197 150h-62q-3 5 -8 15h63q2 -5 7 -15
zM287 97l-8 -14h-109q-4 6 -8 14h64q0 -1 2 -3q0 1 1 2v1h58zM215 117h-64l-7 14h63q3 -5 8 -14zM268 63l-7 -13h-74q-2 3 -3 6l-4 7h88zM250 29l-7 -12h-40l-6 12h53zM231 -5l-6 -12h-6q-1 4 -5 12h17z" />
    <glyph glyph-name="w" unicode="w" horiz-adv-x="599" 
d="M576 336l-5 -19h-121l-4 19h130zM559 302q-9 -11 -16 -19h-78q-4 6 -12 19h106zM544 250h-62l-9 18h64l1 -7zM565 217h-72q-2 9 -5 17h66zM578 183h-79q0 6 -2 16h76q1 -5 5 -16zM582 150h-80q0 10 -1 15h80q1 -5 1 -15zM581 131q-1 -4 -1 -8v-6h-82q1 4 3 14h80z
M364 334l-1 -17h-124l-5 17h130zM576 97q-1 -7 -5 -14h-84q2 4 6 14h83zM363 300q-3 -6 -9 -17h-89q-5 6 -17 19h115v-2zM562 63q-2 -5 -8 -13h-91q6 6 9 10l1 1q1 0 2 2h87zM347 268l-7 -18h-69l3 6l1 9q0 2 -1 3h73zM335 234q-1 -5 -2 -9l-2 -8h-74q2 4 7 17h71zM327 199
q0 -5 -2 -16h-80q2 9 5 16h77zM323 150h-85q0 5 2 15h83v-15zM534 29q-6 -5 -18 -12l-224 2q-3 1 -4 3l-6 7h252zM153 334l-4 -17h-122l-5 17h131zM323 117h-83q0 5 -2 14h85v-14zM448 -5q-8 -1 -31 -3q-13 -1 -29 0q-14 1 -27 3h87zM146 299q-6 -8 -10 -16h-83q-6 6 -18 19
h111v-3zM328 83h-80q-2 6 -4 14h82q0 -5 2 -14zM128 268q-3 -6 -8 -18h-64l5 7l2 8q0 2 -1 3h66zM350 50h-123q3 1 18 13h92q1 -2 4.5 -6t8.5 -7zM115 234q-3 -8 -5 -17h-74l11 17h68zM106 199q0 -5 -2 -16h-82q1 5 5 16h79zM102 150h-84q0 10 1 15h83v-15zM104 117h-85
q-1 4 -1 14h84q0 -5 2 -14zM261 29q-5 -5 -17 -12h-177q-6 4 -12 12h206zM114 83h-88q-2 4 -4 14h86q4 -10 6 -14zM190 -5q-20 -4 -42 -4q-20 0 -36 4h78zM136 50h-96q-4 5 -7 13h92q5 -9 11 -13z" />
    <glyph glyph-name="x" unicode="x" horiz-adv-x="460" 
d="M435 317h-149q38 19 69 19h16q28 -3 64 -19zM412 268l-27 -18h-22q-3 4 -8 13q-2 2 -6 5h63zM438 302l-14 -19h-182q3 3 10.5 9.5t10.5 9.5h175zM457 55q-2 -4 -3 -5h-3q2 1 6 5zM308 268q-10 -5 -23 -18h-161q-9 10 -18 18h108q4 -6 7 -11q3 4 8 11h79zM166 317h-124
q22 19 56 19h7q30 0 61 -19zM272 234l-13 -17h-110q-5 5 -13 17h136zM203 283h-118q-8 3 -14 3t-15 -3h-35q1 9 8 19h157q9 -9 17 -19zM261 183h-91q-4 8 -10 16h92zM438 29q-2 -4 -5 -7l-5 -5h-136q-8 6 -14 12h79q6 -3 13 -4t15 -1q17 0 30 5h23zM278 150h-122l5 6
q1 3 4 9h105zM313 83h-81q-3 4 -9 14h83zM398 -5q-16 -7 -33 -7q-15 0 -36 7h69zM334 50h-76l-6 6q-3 3 -5 7h78q3 -4 9 -13zM295 117h-85l-2 4q-1 -2 -3 -4h-78l3 3l9 11h149zM25 268q-2 -1 -6 -4v4h6zM195 97q0 -2 -1 -2.5t-2 -2l-3 -4.5t-4 -5h-87q2 2 6 7t6 7h85z
M166 63q-3 -3 -11 -10q-1 -1 -4 -3h-87q2 2 7 6.5t7 6.5h88zM124 29q-10 -8 -20 -12h-89q11 4 22 12h87z" />
    <glyph glyph-name="y" unicode="y" horiz-adv-x="427" 
d="M410 336l-22 -19h-128l-3 19h153zM377 302q-2 -5 -2 -16v-3h-81q-2 5 -5 10l-14 9h102zM375 250h-77v18h77v-18zM375 217h-77v17h77v-17zM375 183h-77v16h77v-16zM375 150h-77v15h77v-15zM375 117h-77v14h77v-14zM375 83h-77v14h77v-14zM153 336l-4 -19h-122l-4 19h130z
M146 300q-4 -5 -11 -17h-80q-3 5 -7 10l-10 9h108v-2zM375 50h-100q11 5 17 13h83v-13zM128 268q-3 -6 -8 -18h-66q3 5 9 16v1q-1 0 -1 1h66zM373 -5q-1 -4 -1 -12h-75v12h76zM115 234q-1 -6 -5 -17h-74q3 6 9 17h70zM368 -40q0 -3 -2 -10h-70q0 2 1 5v5h71zM106 199
q0 -5 -2 -16h-81q1 7 5 16h78zM357 -74q-2 -6 -4 -9h-66q2 3 4 9h66zM375 29q0 -2 -1 -6v-6h-76v3q-4 -2 -5 -3h-221q-6 4 -8 6l-6 6h317zM102 150h-84q0 3 1 8v7h83v-15zM336 -108l-1 -2q-4 -4 -5 -7h-68l9 9h65zM103 117h-84q0 2 -1 7v7h84q0 -2 1 -7v-7zM245 -5
q-33 -11 -60 -11q-39 0 -72 11h132zM113 83h-87q-2 4 -4 14h86q1 -7 5 -14zM139 50h-98q-2 3 -3 6l-4 7h92q6 -7 13 -13zM308 -142q-1 -1 -4.5 -4t-4.5 -4h-86l16 8h79zM85 -83h-32l8 9h24v-9zM260 -176q-5 -2 -16 -7h-153q-5 2 -8 3l-7 4h184zM98 -117h-73l7 9h61
q1 -3 5 -9zM139 -150h-100q-2 3 -7 8h92q5 -3 15 -8z" />
    <glyph glyph-name="z" unicode="z" horiz-adv-x="452" 
d="M408 320l-3 -3h-314q5 6 13 19h65q24 -6 58 -6q7 0 69 3q15 1 38 3h61q13 -4 13 -16zM357 268l-20 -18h-68l19 18h69zM393 302l-20 -19h-316l19 19h317zM433 97q-2 -8 -4 -14h-21q9 6 17 14h8zM320 234l-18 -17h-68l18 17h68zM137 350h-26q4 8 6 13zM283 199l-17 -16h-68
l17 16h68zM246 165l-16 -15h-67l16 15h67zM89 268q-10 -4 -15 -5.5t-37 -12.5h-12l17 18h47zM423 63q-2 -5 -6 -13h-361l14 13h67l-1 -1h207q10 0 15 1h65zM210 131l-15 -14h-67l15 14h67zM405 29q-3 -4 -11 -12h-363l-6 4l8 8h372zM173 97l-15 -14h-67l15 14h67z" />
    <glyph glyph-name="braceleft" unicode="{" horiz-adv-x="253" 
d="M234 684h-63q29 8 63 8v-8zM236 668q-23 -3 -38 -18h-86q15 15 29 22l12 6h82zM192 644q-11 -12 -15 -27h-86q6 16 16 27h85zM175 609q-1 -4 -1 -8v-18h-90q1 9 5 26h86zM174 550h-90v25h90v-25zM174 517h-90v24h90v-24zM174 483h-90v24h90v-24zM174 450h-90v23h90v-23z
M174 417h-90v22h90v-22zM173 404q0 -11 -4 -21h-92q4 10 6 21h90zM164 370l-6 -10q-3 -5 -7 -10h-100q10 8 18 20h95zM137 336q-5 -4 -15 -11l3 -3q2 -1 7 -5h-103l-11 9q4 2 15 10h104zM160 283h-94q-4 6 -7 9l-12 10h99q7 -7 14 -19zM173 250h-91q-2 9 -6 18h92
q3 -7 5 -18zM174 217h-90v17h90v-17zM174 183h-90v16h90v-16zM174 150h-90v15h90v-15zM174 117h-90v14h90v-14zM174 83h-90v14h90v-14zM174 50h-88q0 4 -2 13h90v-13zM234 -44q-31 0 -51 4h51v-4zM186 17h-90q-1 4 -5 12h88q4 -8 7 -12zM219 -17h-94q-4 3 -7 6l-6 6h91
q8 -8 16 -12z" />
    <glyph glyph-name="bar" unicode="|" horiz-adv-x="111" 
d="M94 684h-76v7h76v-7zM94 650h-76v28h76v-28zM94 617h-76v27h76v-27zM94 583h-76v26h76v-26zM94 550h-76v25h76v-25zM94 517h-76v24h76v-24zM94 483h-76v24h76v-24zM94 450h-76v23h76v-23zM94 417h-76v22h76v-22zM94 383h-76v21h76v-21zM94 350h-76v20h76v-20zM94 317h-76
v19h76v-19zM94 283h-76v19h76v-19zM94 250h-76v18h76v-18zM94 217h-76v17h76v-17zM94 183h-76v16h76v-16zM94 150h-76v15h76v-15zM94 117h-76v14h76v-14zM94 83h-76v14h76v-14zM94 50h-76v13h76v-13zM94 17h-76v12h76v-12z" />
    <glyph glyph-name="braceright" unicode="}" horiz-adv-x="253" 
d="M141 650h-84q-17 15 -39 18v10h81l12 -6q7 -3 30 -22zM161 617h-85q-4 14 -14 27h84q12 -14 15 -27zM82 684h-64l1 8q33 0 63 -8zM168 583h-88v10q0 6 -2 16h86q4 -12 4 -26zM169 550h-89v25h89v-25zM169 517h-89v24h89v-24zM169 483h-89v24h89v-24zM169 450h-89v23h89
v-23zM169 417h-89v22h89v-22zM176 383h-91q-3 6 -5 21h89q2 -12 7 -21zM201 350h-97q-5 5 -8 10l-6 10h93q8 -12 18 -20zM236 326l-11 -9h-103q1 1 3.5 2.5t3.5 2.5l4 3q-1 1 -15 11h102q7 -5 16 -10zM207 302l-12 -10q-1 -1 -4 -4.5t-4 -4.5h-94q8 13 14 19h100zM177 268
l-7 -18h-89q2 11 5 18h91zM169 217h-89v17h89v-17zM169 183h-89v16h89v-16zM169 150h-89v15h89v-15zM169 117h-89v14h89v-14zM169 83h-89v14h89v-14zM168 63q0 -5 -2 -13h-86v13h88zM161 29l-6 -12h-89q2 4 7 12h88zM138 -5q-6 -6 -14 -12h-90q7 4 15 12h89zM64 -40
q-22 -4 -45 -4v4h45z" />
    <glyph glyph-name="asciitilde" unicode="~" horiz-adv-x="378" 
d="M360 729q-4 -4 -11 -12h-28zM300 678q-35 -20 -68 -11l-31 8l-6 3h105zM344 712q-19 -19 -34 -28h-129q-37 15 -46.5 17t-25.5 2q-14 0 -28 -2l-63 -15l15 15q6 6 12 11h208q14 -2 24 -2q10 -1 18 0h2q3 0 6 2h41zM231 717h-180q26 21 54 29h49l29 -8z" />
    <glyph glyph-name="nonbreakingspace" unicode="&#xa0;" horiz-adv-x="729" 
 />
    <glyph glyph-name="exclamdown" unicode="&#xa1;" horiz-adv-x="193" 
d="M148 517h-87q14 19 43 19q28 0 44 -19zM159 483h-109v1q0 11 5 23h99q5 -12 5 -23v-1zM158 473q-3 -13 -11 -23h-86q-9 10 -10 23h107zM133 439q-13 -7 -29 -7q-18 0 -29 7h58zM164 370q-10 -10 -15 -20h-87q-3 6 -6 8.5t-12 11.5h120zM143 317h-77v19h77v-19zM143 283
h-77v19h77v-19zM143 250h-77v18h77v-18zM143 217h-77v17h77v-17zM143 183h-77v16h77v-16zM143 150h-77v15h77v-15zM143 117h-77v14h77v-14zM143 83h-77v14h77v-14zM143 50h-86q5 5 7 13h79v-13zM143 17h-123v2q4 0 15 10h108v-12zM148 -50h-36q-5 3 -15 10h50q0 -6 1 -10z
M146 -17h-90q-20 9 -33 12h123v-12z" />
    <glyph glyph-name="cent" unicode="&#xa2;" horiz-adv-x="368" 
d="M322 433l-7 -16h-121l-2 4q18 12 26 12h104zM310 404l-8 -21h-89v1l-9 13l-4 7h110zM296 370l-8 -20h-72q-1 6 -1 11v9h81zM343 283h-80q-1 0 -1 1l-1 -1h-57l4 10l3 9h122q8 -8 10 -19zM333 268q-6 -6 -21 -16q-2 -2 -3 -2h-33v1q0 7 -4 17h61zM311 317h-215
q19 11 45 19h142l-3 -7l7 -2q8 -3 24 -10zM284 234q-6 -4 -13 -6q1 2 2 6h11zM255 268l-7 -18h-56l6 18h57zM242 234l-7 -17h-56l7 17h56zM349 97q-4 -10 -6 -14h-9q6 4 13 14h2zM172 302q-15 -5 -30 -19h-88q3 3 10 9.5t10 9.5h98zM228 199l-6 -16h-56l6 16h56zM333 63
q-3 -4 -9 -13h-42q2 0 3 1q13 5 23 12h25zM215 165l-6 -15h-55l5 15h56zM129 268q-1 -1 -4.5 -6.5t-6.5 -11.5h-85q2 5 10 18h86zM201 131l-5 -14h-54l5 14h54zM111 234q-2 -7 -4 -17h-86l2 8q1 4 3 9h85zM103 199q0 -3 -1 -8v-8h-84v16h85zM103 150h-83q0 5 -2 15h84
q0 -3 1 -7v-8zM306 29q-6 -7 -14 -12h-191q-9 4 -19 12h224zM188 97l-6 -14h-143q-3 4 -7 14h89l9 -12l4 12h54zM242 -5q-16 -4 -36 -4q-26 0 -46 4h82zM112 117h-86q-1 4 -3 14h84q1 -7 5 -14zM174 63l-4 -12v-1h-109l-6 6q-3 3 -5 7h124zM147 -5l-5 -12h-60q3 4 7 12h58z
M133 -40l-4 -10h-70q4 6 8 10h66z" />
    <glyph glyph-name="sterling" unicode="&#xa3;" horiz-adv-x="433" 
d="M354 488l-10 -3q-2 0 -8 -2h-39l2 2q-4 13 -18 22h67q4 -9 6 -19zM303 550h-112q29 13 62 13q22 0 50 -13zM343 517h-200l6 6q8 7 25 18h144q2 -2 4 -3q13 -11 21 -21zM316 473q-1 -1 -4 -2.5t-4 -2.5q-14 -9 -30 -18h-1l14 23h25zM206 507l-5 -5q-4 -4 -14 -19h-74
q2 5 7 11l13 13h73zM182 473q-4 -10 -7 -23h-74q2 8 7 23h74zM173 417h-76v4q0 8 2 18h74v-22zM173 383h-76v21h76v-21zM173 350h-76v20h76v-20zM312 336l-10 -19h-277l7 18q1 0 1 1h279zM294 302l-1 -2l-120 1v-18h-76v19h197zM397 97l-1 -14h-35q2 2 8 6l23 8h5zM53 383
h-6q1 2 3 7q1 -3 3 -7zM93 350h-51q0 3 1 10t2 10h18q9 -10 22 -15q2 -2 8 -5zM398 50h-101q16 5 31 13h66q0 -5 4 -13zM173 250h-76v18h76v-18zM173 217h-76v17h76v-17zM97 302l-79 -2l1 2h78zM173 183h-76v16h76v-16zM173 150h-76v15h76v-15zM173 117h-76v14h76v-14z
M415 17h-375l21 12h347q2 -4 7 -12zM173 83h-76v14h76v-14zM174 50h-86q6 8 8 13h77z" />
    <glyph glyph-name="currency" unicode="&#xa4;" horiz-adv-x="438" 
d="M421 595l-12 -12h-90l-1 4q18 8 22 8h81zM401 575l-25 -25h-54q2 3 4 9v4l-4 8l-1 4h80zM363 450h-74q-5 13 -12 23h78q5 -13 8 -23zM366 417h-72v5q0 7 -2 17h73q0 -3 1 -7v-8v-7zM367 541l-23 -24h-250l-23 24h50q6 -8 14 -16q28 13 60 16h47q34 -4 60 -17q5 5 14 17
h51zM364 404q-1 -10 -5 -21h-74q3 7 7 21h72zM349 483h-80q-22 20 -50 20q-29 0 -51 -20h-81q7 12 19 22l-2 2h230l-3 -3q10 -11 18 -21zM353 370q-6 -10 -14 -20h-84q13 8 22 20h76zM120 587l-1 -4h-90l-11 12h80q4 0 22 -8zM421 254h-65l-14 14h60q8 -7 19 -14zM117 575
l-1 -4l-4 -8v-4q2 -6 4 -9h-54l-25 25h80zM384 283h-57l-18 19h53q8 -6 22 -19zM160 473q-7 -10 -12 -23h-74q2 8 8 23h78zM347 317h-53l-2 2q-4 -2 -5 -2h-137q-2 0 -4 2l-2 -2h-53l6 6l14 13h217zM145 439q-1 -5 -1 -9v-13h-72v22h73zM153 383h-74q-4 11 -6 21h73
q1 -6 3 -11zM183 350h-83q-8 8 -15 20h75q9 -12 23 -20zM129 302l-19 -19h-57q3 3 10.5 9.5t10.5 9.5h55zM96 268l-14 -14h-64q6 5 17 14h61z" />
    <glyph glyph-name="yen" unicode="&#xa5;" horiz-adv-x="639" 
d="M622 599q-6 -7 -11 -16h-155q-4 3 -13 9l34 7h145zM605 575q-9 -14 -17 -25h-96q-7 8 -26 25h139zM582 541q-5 -8 -16 -24h-65q2 4 2 7q-2 8 -6 17h85zM559 507q-5 -8 -16 -24h-55q2 4 10 24h61zM537 473q-5 -8 -15 -23h-53q4 8 13 23h55zM514 439q-7 -12 -14 -22h-52
q7 10 14 22h52zM492 404q-3 -3 -7 -10.5t-7 -10.5h-53l4 5q4 5 11 16h52zM470 370q-8 -11 -13 -20h-54l13 20h54zM448 336q-5 -6 -13 -19h-55l13 19h55zM230 587q-1 -1 -2.5 -2t-2.5 -2h-193q-5 7 -14 20h191q5 0 21 -16zM216 575q-14 -14 -18 -25h-143q-6 8 -17 25h178z
M426 302q-4 -6 -12 -19h-57l13 19h56zM200 517h-121q-8 9 -18 24h136v-2q0 -10 3 -22zM211 483h-110l-3 7q-3 2 -13 17h118q3 -8 8 -24zM404 268q-5 -9 -5.5 -9t-5.5 -9h-59l12 18h58zM225 450h-106l-12 23h108q4 -8 10 -23zM240 417h-104l-11 22h105q4 -7 10 -22zM257 383
h-103l-11 21h104q4 -7 10 -21zM275 350h-103l-11 20h103q4 -7 11 -20zM292 317h-103l-10 19h103q7 -12 10 -19zM311 283h-104l-5 9l-5 10h104q4 -6 10 -19zM383 234q-4 -5 -10 -16l-1 -1h-130l-9 17h150zM330 250h-106l-9 18h105q4 -6 10 -18zM497 190q-4 -2 -11 -7h-369
q0 2 2 7h137l-5 9h110l-6 -9h142zM467 165q-3 -5 -7 -15h-367q7 5 14 15h360zM318 131l-8 -14h-60l9 14h59zM297 97l-8 -14h-60l9 14h59zM471 63q-3 -4 -8 -13h-363l6 6q3 3 5 7h360zM254 29l-7 -12h-60l7 12h60zM233 -5l-7 -12h-61l8 12h60zM212 -40l-6 -10h-62l7 10h61z
M191 -74q-4 -6 -5 -9h-62l5 9h62zM215 -117h-112l5 9h86q1 -1 3.5 -2.5t7.5 -3.5z" />
    <glyph glyph-name="brokenbar" unicode="&#xa6;" horiz-adv-x="111" 
d="M94 684h-76v7h76v-7zM94 650h-76v28h76v-28zM94 617h-76v27h76v-27zM94 583h-76v26h76v-26zM94 550h-76v25h76v-25zM94 517h-76v24h76v-24zM94 483h-76v24h76v-24zM94 450h-76v23h76v-23zM94 417h-76v22h76v-22zM94 384h-76v20h76v-20zM94 283h-76v19h76v-19zM94 250h-76
v18h76v-18zM94 217h-76v17h76v-17zM94 183h-76v16h76v-16zM94 150h-76v15h76v-15zM94 117h-76v14h76v-14zM94 83h-76v14h76v-14zM94 50h-76v13h76v-13zM94 17h-76v12h76v-12z" />
    <glyph glyph-name="section" unicode="&#xa7;" horiz-adv-x="362" 
d="M339 575l-12 -25h-62q-21 18 -42 25h116zM324 541q-2 -9 -3 -24h-31q-5 8 -16 24h50zM236 617h-90q21 3 45 3q22 0 45 -3zM320 483h-11q-4 8 -13 24h24v-24zM345 586l-2 -3h-284q5 3 14 9q13 8 36 17h169q39 -11 67 -23zM320 462q-2 4 -6 11h6v-11zM131 575
q-12 -4 -34 -15q-7 -5 -12 -10h-54q4 7 9 13l10 12h81zM341 317h-58q-3 11 -11 19h68q1 -3 1 -9v-10zM337 350h-84q-24 14 -40 17q-5 1 -10 3h125q6 -9 9 -20zM339 302q-1 -6 -5 -19h-52q1 6 3 19h54zM317 383h-258q10 6 29 18q-3 1 -7 3h205q19 -9 31 -21zM79 541
q-5 -9 -5 -22v-2h-54q1 6 3 12l4 12h52zM252 417h-195q-13 9 -23 22h149zM327 268q-4 -9 -11 -18h-58q11 8 17 18h52zM88 483h-70v24h57q3 -14 13 -24zM149 450h-122q-5 13 -8 23h80q15 -11 44 -21zM338 150h-88q-14 7 -35 14l-3 1h121q4 -10 5 -15zM341 127q0 -7 -1 -10
h-57q-1 5 -8 14h66v-4zM110 370q-16 -8 -25 -20h-54q8 13 15 20h64zM322 183h-164l-47 16h193q12 -8 18 -16zM337 97q-2 -10 -4 -14h-53q4 8 4 14h53zM300 234q-10 -9 -25 -17h-208q-14 7 -23 17h157q4 0 13 -2q3 0 9 2h77zM77 336q-3 -9 -3 -19h-54q1 8 5 19h52zM322 63
q-5 -8 -10 -13h-60q10 7 15 13h55zM83 283h-65v19h57q3 -12 8 -19zM127 250h-97q-4 5 -9 18h74q12 -10 32 -18zM288 29q-2 -2 -7 -5t-12 -7h-225q-2 0 -4 2q2 6 4 10h244zM93 83h-34v3q0 6 3 11h26q1 -7 5 -14zM207 -5q-22 -4 -45 -4q-22 0 -44 4h89zM118 50h-62q3 4 4 11v2
h45q6 -7 13 -13z" />
    <glyph glyph-name="dieresis" unicode="&#xa8;" horiz-adv-x="276" 
d="M226 617h-32q5 0 14 2q8 0 18 -2zM258 583h-99q0 17 14 26h71q11 -9 14 -26zM258 575q-2 -17 -16 -25h-66q-13 7 -16 25h98zM85 617h-30q4 0 12 2q8 0 18 -2zM117 583h-99q2 17 16 26h69q11 -9 14 -26zM117 575q-2 -17 -16 -25h-66q-13 7 -16 25h98z" />
    <glyph glyph-name="copyright" unicode="&#xa9;" horiz-adv-x="523" 
d="M456 450h-72q-23 15 -45 23h94zM493 383h-53q-5 10 -12 21h57q3 -7 8 -21zM502 350h-50q-2 10 -6 20h51q2 -5 3 -10zM505 317h-48q0 9 -2 19h49q1 -5 1 -10v-9zM357 517h-186q44 14 91 14q50 0 95 -14zM506 291q0 -4 -1 -8h-48q1 4 1 8v11h48v-11zM421 483h-126
q-16 2 -33 2q-18 0 -34 -2h-122q18 13 41 24h235q21 -11 39 -24zM478 417h-59q-2 2 -6 6.5t-6 6.5l-15 -13h-214q44 22 92 22h195q4 -7 13 -22zM504 268q0 -8 -2 -18h-50q1 2 4 18h48zM382 404l-2 -7v-14h-27q-8 6 -15 11q-15 6 -35 10h79zM380 354q-8 10 -14 16h14v-16z
M498 234q-1 -6 -5 -17h-52q2 4 7 17h50zM485 199q-3 -5 -8 -16h-58q4 5 12 16h54zM379 250h-14q6 7 12 18h2v-18zM261 404q-32 -4 -58 -21h-71q12 12 25 21h104zM182 473q-26 -9 -46 -23h-66q12 14 24 23h88zM379 217h-42q7 5 15 17h27v-17zM466 165l-12 -15h-71q9 5 19 15
h64zM122 439l-1 -1q-3 -3 -10 -10.5t-10 -10.5h-55q4 8 15 22h61zM188 370q-8 -8 -15 -20h-62q5 11 11 20h66zM435 131q-9 -9 -18 -14h-122q28 3 53 14h87zM167 336q0 -1 -4 -19h-60q1 6 3 19h61zM92 404q-8 -13 -11 -21h-50l9 21h52zM379 191q-4 -3 -11 -8h-215q-6 4 -9 7
l-9 9h73q21 -14 54 -14q28 0 52 14h65v-8zM162 283h-60v19h60v-19zM336 165q-34 -14 -79 -14q-46 0 -74 14h153zM76 370q-2 -5 -3 -10l-2 -10h-49l2 10q1 5 3 10h49zM169 250h-61q-1 1 -4 18h60q1 -9 5 -18zM188 217h-66q-3 5 -9 17h64q3 -7 10 -15q0 -1 1 -1v-1zM68 336
q-1 -3 -1 -9.5t-1 -9.5h-48q0 6 2 19h48zM385 97q-14 -8 -33 -14h-186q-11 4 -33 14h252zM66 283h-48v19h48v-19zM71 250h-49l-3 18h49zM228 117h-127q-8 6 -15 13q-1 0 -1 1h88q27 -11 55 -14zM82 217h-52q-1 6 -5 17h51q2 -6 6 -17zM103 183h-59q-4 6 -7 16h55
q1 -3 11 -16zM139 150h-73l-11 15h66q0 -1 1 -1q8 -8 17 -14z" />
    <glyph glyph-name="ordfeminine" unicode="&#xaa;" horiz-adv-x="304" 
d="M252 550h-67q3 4 9 13q-13 8 -25 12h80q3 -9 3 -18v-7zM245 583h-188q34 22 76 26h43q30 -5 51 -11q12 -6 18 -15zM252 483h-58v24h58v-24zM252 517h-58v12q-5 -6 -13 -12h-68q23 6 62 24h77v-24zM252 450h-58v23h58v-23zM252 417h-58v22h58v-22zM67 575q-10 -2 -29 -7
q5 5 8 7h21zM165 507q-8 -4 -11 -5q-43 -15 -50 -19h-64q15 16 39 24h86zM268 350h-73q-4 5 -4 9q0 2 1 4.5t1 6.5h62q6 -13 13 -20zM252 383h-118q25 1 52 21h66v-21zM93 473q-9 -10 -10 -23h-61q5 14 10 23h61zM83 417h-65q0 12 2 22h62v-14q0 -4 1 -8zM193 370
q-17 -13 -30 -20h-109q-4 2 -7 5q-10 7 -15 15h161zM125 383h-101q-5 9 -6 21h70q11 -20 37 -21z" />
    <glyph glyph-name="guillemotleft" unicode="&#xab;" horiz-adv-x="505" 
d="M474 336q-3 -6 -8 -19h-90l2 6q1 3 2 7l44 6h50zM460 302q-3 -6 -9 -19h-90q6 9 9 19h90zM443 268q-5 -9 -5.5 -9t-5.5 -9h-94q5 6 14 18h91zM420 234q-8 -10 -15 -17h-103q10 7 20 17h98zM288 336q-3 -6 -8 -19h-90l2 6q1 3 2 7l44 6h50zM274 302q-3 -6 -9 -19h-90
q6 9 9 19h90zM386 199q-6 -6 -21 -16h-124l17 8q8 3 16 8h112zM441 83h-113q-2 1 -18 14h117zM467 50h-103l-13 13h106q3 -4 10 -13zM257 268q-5 -9 -5.5 -9t-5.5 -9h-94q5 6 14 18h91zM407 117h-126l-21 14h131q8 -8 16 -14zM485 17h-96q-2 4 -8 12h98q4 -6 6 -12zM367 150
h-135l-22 15h137q7 -5 20 -15zM423 -5l-20 -5q-2 4 -2 5h22zM234 234q-8 -10 -15 -17h-103q10 7 20 17h98zM200 199q-6 -6 -21 -16h-124l17 8q8 3 16 8h112zM255 83h-113q-2 1 -18 14h117zM281 50h-103l-13 13h106q3 -4 10 -13zM221 117h-126l-21 14h131q8 -8 16 -14z
M299 17h-96q-2 4 -8 12h98q4 -6 6 -12zM181 150h-135l-22 15h137q7 -5 20 -15zM237 -5l-20 -5q-2 4 -2 5h22z" />
    <glyph glyph-name="logicalnot" unicode="&#xac;" horiz-adv-x="644" 
d="M627 317h-80v19h80v-19zM627 283h-80v19h80v-19zM627 250h-80v18h80v-18zM627 217h-80v17h80v-17zM627 183h-80v16h80v-16zM627 417h-609v2h609v-2zM627 383h-609v21h609v-21zM627 350h-609v20h609v-20z" />
    <glyph glyph-name="minus" unicode="&#xad;" horiz-adv-x="376" 
d="M354 268q-14 -9 -21 -18h-287q5 9 8 18h300zM324 234q-2 -8 -2 -10h-304q8 4 14 10h292z" />
    <glyph glyph-name="minus" unicode="&#x2212;" horiz-adv-x="376" 
d="M354 268q-14 -9 -21 -18h-287q5 9 8 18h300zM324 234q-2 -8 -2 -10h-304q8 4 14 10h292z" />
    <glyph glyph-name="registered" unicode="&#xae;" horiz-adv-x="523" 
d="M464 517h-68q-15 12 -35 24h82q12 -12 21 -24zM484 483h-57q-6 8 -20 24h64q4 -6 7 -12zM497 450h-52q-5 13 -11 23h55q3 -8 8 -23zM503 417h-49q-1 9 -5 22h50q1 -7 4 -22zM506 383h-48q0 11 -2 21h49q0 -4 1 -11v-10zM384 583h-241q54 26 119 26q68 0 122 -26zM506 370
q0 -3 -1 -10v-10h-49q2 10 2 20h48zM433 550h-93q-37 13 -78 13q-46 0 -81 -13h-89q8 6 19 14q8 6 16 11h272q18 -10 34 -25zM348 517h-131q34 17 71 17q32 0 54 -13q2 -2 6 -4zM503 336q-2 -12 -4 -19h-50q1 6 5 19h49zM370 473l-2 -12q-1 -6 -3 -11h-58q3 10 3 22v1h60z
M495 302q-3 -12 -7 -19h-54q3 6 9 19h52zM360 439q-11 -16 -18 -22h-59q10 8 19 22h58zM369 483h-61q-6 22 -41 22q-18 0 -36 -5q-19 -8 -22 -17h-56q-4 11 -14 24h56l2 -2l2 2h160q8 -10 10 -24zM481 268q-4 -6 -11 -18h-62q8 6 16 18h57zM186 517h-125q9 12 21 24h78
q-7 -4 -21 -13q27 1 47 -11zM208 450h-52v18q0 3 -1 5h53v-23zM326 404q-14 -11 -35 -21h-135v21h52v-21q34 8 56 21h62zM459 234q-4 -5 -8 -9l-8 -8h-78q8 4 16 10h-20q-8 3 -13 7h111zM208 417h-52v22h52v-22zM395 250h-70q-10 8 -20 18h70q7 -6 20 -18zM324 317h-66
q-4 4 -11 12l-7 7h65l7 -6q3 -4 7 -7q1 -2 5 -6zM358 283h-68l-8 9q-5 4 -10 10h67zM288 350h-68q-4 2 -12 4v-4h-52v20h104q-1 -1 -2 -1q20 -11 30 -19zM115 507q-6 -8 -19 -24h-56l6 12q3 6 7 12h62zM90 473q-4 -7 -11 -23h-52q3 8 8 23h55zM208 317h-52v19h52v-19z
M75 439q-2 -7 -6 -22h-49q1 7 4 22h51zM208 283h-52v19h52v-19zM422 199q-2 -2 -23 -16h-279q-10 6 -23 16h110q27 -6 55 -6q29 0 55 6h105zM210 250h-56l2 18h52q0 -8 2 -18zM67 404q-1 -5 -1 -11v-10h-48v10q0 6 1 11h48zM363 165q-26 -10 -58 -15h-90q-30 4 -59 15h207z
M67 350h-48q-1 5 -1 10v10h48v-10q0 -5 1 -10zM74 317h-50q-1 6 -3 19h48q1 -6 5 -19zM224 227h-82q9 -7 17 -10h-82q-8 8 -14 17h70q4 -4 7 -5q2 1 5 5h73q2 -3 6 -7zM89 283h-54q-4 7 -7 19h51q5 -11 10 -19zM114 250h-62q-4 6 -11 18h57q8 -12 16 -18z" />
    <glyph glyph-name="macron" unicode="&#xaf;" horiz-adv-x="480" 
d="M463 400l-83 -17h-288l84 17h287zM18 368l10 2z" />
    <glyph glyph-name="macron" unicode="&#x2c9;" horiz-adv-x="480" 
d="M463 400l-83 -17h-288l84 17h287zM18 368l10 2z" />
    <glyph glyph-name="degree" unicode="&#xb0;" horiz-adv-x="195" 
d="M159 550h-122l9 6q24 16 56 16q28 0 51 -17q4 -4 6 -5zM178 507q-2 -14 -6 -24h-50q5 5 8 16q0 2 -2 8h50zM177 517h-53q-12 21 -32 21q-8 0 -17 -6t-9 -14v-1h-48q3 15 11 24h138q8 -11 10 -24zM166 473q-6 -12 -28 -23h-78q-9 3 -16 8.5t-14 14.5h136zM84 483h-60
q-6 10 -6 24h50q3 -8 12 -19q2 -4 4 -5z" />
    <glyph glyph-name="plusminus" unicode="&#xb1;" horiz-adv-x="382" 
d="M221 450h-41l39 23h2v-23zM221 417h-56v22h56v-22zM221 383h-56v21h56v-21zM221 350h-56v20h56v-20zM355 336l-19 -19h-283l19 19h283zM320 302l-19 -19h-283l19 19h283zM221 250h-56v18h56v-18zM221 217h-56v17h56v-17zM221 183h-56v16h56v-16zM203 165l-30 -15h-8v15
h38zM363 120q-4 -2 -5 -3h-300q0 1 1 2v1h304zM337 97q-5 -6 -8 -14h-289q6 6 10 14h287z" />
    <glyph glyph-name="twosuperior" unicode="&#xb2;" horiz-adv-x="349" 
d="M275 517h-67q-20 21 -52 24h104q10 -11 15 -24zM280 483h-56q-2 8 -9 24h63q2 -10 2 -18v-6zM247 550h-143q36 17 75 17q40 0 68 -17zM279 473q-1 -10 -5 -23h-48q0 2 1 5v6q0 8 -1 12h53zM271 439q-5 -13 -10 -22h-46q3 7 8 22h48zM145 541q-35 -8 -32 -19q-2 -4 -3 -5
h-45q8 13 17 19q4 2 7 5h56zM254 404q-8 -14 -14 -21h-47q4 4 14 21h47zM313 297l-6 -14h-20q10 4 26 14zM107 507q-2 -10 -2 -21v-3h-53q0 3 2 6l6 18h47zM230 370q-5 -7 -16 -20h-49q10 10 18 20h47zM111 450h-66q1 8 4 23h56q2 -13 6 -23zM201 336q-3 -3 -10 -9.5
t-10 -9.5h-48l19 19h49zM300 268l-7 -18h-236l21 18h45q-4 -4 -6 -5h105q22 0 35 5h43zM164 302q-5 -5 -22 -19h-47q3 3 11 9.5t11 9.5h47zM286 234l-5 -12l-244 -1v13h249z" />
    <glyph glyph-name="threesuperior" unicode="&#xb3;" horiz-adv-x="311" 
d="M268 517h-65l-6 6q-11 11 -35 18h88q13 -11 18 -24zM270 502q0 -9 -2 -19h-55v4q0 10 -4 20h61v-5zM237 550h-146q32 16 76 16q35 0 66 -14q2 -2 4 -2zM265 473q-4 -11 -14 -23h-55q10 9 15 23h54zM131 541q-17 -6 -28 -24h-53q11 12 26 24h55zM237 439q-11 -6 -34 -16
q8 -4 11 -6h-101q26 6 63 20q1 0 3 2h58zM276 350h-62q-3 9 -10 20h63q7 -12 9 -20zM258 383h-65q-3 2 -9 7q-13 8 -31 14h82q7 -5 13 -10zM282 317h-63q0 9 -2 19h63q2 -10 2 -19zM100 491l-31 5h-7q-5 0 -24 3l2 4q1 2 3 4h56q-1 -3 -1 -7q0 -3 2 -9zM281 302
q-1 -6 -5 -19h-63q2 5 5 19h63zM269 268q-6 -11 -15 -18h-67q2 1 6 5l6 6q3 3 5 7h65zM115 283h-23q10 3 23 12v-12zM232 234q-24 -14 -51 -17h-44q-33 3 -64 17h159zM123 250h-73l-21 16q5 0 15 2h71q2 -12 8 -18z" />
    <glyph glyph-name="acute" unicode="&#xb4;" horiz-adv-x="226" 
d="M207 684h-112l7 16h101zM209 675q-25 -14 -40 -25h-89l12 28h116zM160 644l-10 -10l-8 -8q-4 -4 -8 -9h-70q8 14 13 27h83zM128 609q-11 -13 -19 -26h-64q1 2 15 26h68zM104 575q-5 -9 -5 -17q0 -2 3 -8h-81q1 1 18 25h65z" />
    <glyph glyph-name="mu1" unicode="&#xb5;" horiz-adv-x="407" 
d="M389 336l-6 -19h-123v19h129zM372 302q-7 -7 -16 -19h-85q-3 7 -10 19h111zM354 250h-70l-7 18h72l1 -9q1 -3 4 -9zM368 217h-75l-2 8q-1 4 -2 9h72q2 -6 7 -17zM380 183h-81q0 5 -2 16h77q2 -5 6 -16zM386 150h-85q0 10 -1 15h84q2 -10 2 -15zM385 131q0 -10 -1 -14h-85
q0 2 1 7v7h85zM381 97q-2 -10 -3 -14h-90q2 4 6 14h87zM168 336l-4 -19h-125l-20 19h149zM147 302l-11 -7q-6 -8 -7 -12h-78v5q0 6 -2 14h98zM368 63q-3 -4 -9 -13h-103q9 4 18 13h94zM127 250h-76v18h76v-18zM127 217h-76v17h76v-17zM127 183h-76v16h76v-16zM127 150h-76
v15h76v-15zM288 -5q-5 -4 -13 -12h-80q4 6 10 12h83zM340 29q-6 -6 -14 -12h-181q-5 2 -18 10v-10h-76v12h289zM382 -74q-2 -6 -5 -9h-162q-8 6 -11 9h97q14 -7 35 -7q15 0 31 7h15zM127 117h-76v14h76v-14zM275 -50h-85q-2 8 -2 10h82q1 -3 4 -8v0q0 -1 1 -2zM127 83h-76
v14h76v-14zM164 50h-113v13h92q2 -2 8.5 -6t12.5 -7zM127 -17h-76v12h76v-12zM127 -50h-76v10h76v-10zM127 -83h-76v9h76v-9zM127 -117h-76v9h76v-9zM127 -150h-78q2 6 2 8h76v-8zM127 -183h-102l7 7h95v-7z" />
    <glyph glyph-name="mu1" unicode="&#x3bc;" horiz-adv-x="407" 
d="M389 336l-6 -19h-123v19h129zM372 302q-7 -7 -16 -19h-85q-3 7 -10 19h111zM354 250h-70l-7 18h72l1 -9q1 -3 4 -9zM368 217h-75l-2 8q-1 4 -2 9h72q2 -6 7 -17zM380 183h-81q0 5 -2 16h77q2 -5 6 -16zM386 150h-85q0 10 -1 15h84q2 -10 2 -15zM385 131q0 -10 -1 -14h-85
q0 2 1 7v7h85zM381 97q-2 -10 -3 -14h-90q2 4 6 14h87zM168 336l-4 -19h-125l-20 19h149zM147 302l-11 -7q-6 -8 -7 -12h-78v5q0 6 -2 14h98zM368 63q-3 -4 -9 -13h-103q9 4 18 13h94zM127 250h-76v18h76v-18zM127 217h-76v17h76v-17zM127 183h-76v16h76v-16zM127 150h-76
v15h76v-15zM288 -5q-5 -4 -13 -12h-80q4 6 10 12h83zM340 29q-6 -6 -14 -12h-181q-5 2 -18 10v-10h-76v12h289zM382 -74q-2 -6 -5 -9h-162q-8 6 -11 9h97q14 -7 35 -7q15 0 31 7h15zM127 117h-76v14h76v-14zM275 -50h-85q-2 8 -2 10h82q1 -3 4 -8v0q0 -1 1 -2zM127 83h-76
v14h76v-14zM164 50h-113v13h92q2 -2 8.5 -6t12.5 -7zM127 -17h-76v12h76v-12zM127 -50h-76v10h76v-10zM127 -83h-76v9h76v-9zM127 -117h-76v9h76v-9zM127 -150h-78q2 6 2 8h76v-8zM127 -183h-102l7 7h95v-7z" />
    <glyph glyph-name="paragraph" unicode="&#xb6;" horiz-adv-x="551" 
d="M461 583h-118q10 8 14 11q10 6 44 6h2q27 0 58 -17zM534 523q-23 6 -35 6q-21 0 -30 -12h-68q-3 18 -7 24h124q10 -10 16 -18zM464 507q-1 -4 -1 -14v-10h-60q0 4 -1 12v12h62zM463 450h-60v23h60v-23zM463 417h-60v22h60v-22zM508 550h-477q7 12 20 25h238q15 -9 30 -21
l10 16l5 5h140l9 -6q9 -6 25 -19zM463 383h-60v21h60v-21zM463 350h-60v20h60v-20zM275 583h-214q1 0 2 1q24 19 61 25h75q37 -6 76 -26zM463 317h-60v19h60v-19zM378 541q-10 -15 -13 -24h-345q1 12 6 24h352zM463 283h-60v19h60v-19zM463 250h-60v18h60v-18zM362 507
q-2 -6 -2 -12v-12h-342v24h344zM463 217h-60v17h60v-17zM360 450h-336q-4 13 -5 23h341v-23zM463 183h-60v16h60v-16zM360 417h-322q-5 9 -10 22h332v-22zM360 383h-298q-5 7 -16 21h314v-21zM463 150h-60v15h60v-15zM360 350h-263q-12 9 -23 20h286v-20zM360 317h-215
q-10 6 -30 19h245v-19zM360 250h-60v2q-16 0 -54 16h114v-18zM360 283h-148q-22 9 -41 19h189v-19zM463 117h-60v14h60v-14zM360 217h-60v17h60v-17zM464 83h-61v14h61v-14zM360 183h-60v16h60v-16zM464 50h-61v13h61v-13zM361 150h-61v15h61v-15zM465 17h-62v12h62v-12z
M361 117h-61v14h61v-14zM465 -17h-62v12h62v-12zM362 83h-62v14h62v-14zM467 -50h-68q2 6 2 10h65v-4q0 -4 1 -6zM362 50h-62v13h62v-13zM363 17h-63v12h63v-12zM487 -83h-109q1 1 3.5 4.5t3.5 4.5h95q4 -6 7 -9zM363 -17h-63v12h63v-12zM364 -50h-69v1q2 6 2 9h67v-10z
M372 -83h-97l6 9h88z" />
    <glyph glyph-name="periodcentered" unicode="&#xb7;" horiz-adv-x="135" 
d="M94 283h-56q13 5 30 5q13 0 26 -5zM118 250h-100q0 11 4 18h91q5 -8 5 -18zM115 234q-5 -13 -18 -17h-56q-2 1 -9 5t-10 12h93z" />
    <glyph glyph-name="periodcentered" unicode="&#x2219;" horiz-adv-x="135" 
d="M94 283h-56q13 5 30 5q13 0 26 -5zM118 250h-100q0 11 4 18h91q5 -8 5 -18zM115 234q-5 -13 -18 -17h-56q-2 1 -9 5t-10 12h93z" />
    <glyph glyph-name="cedilla" unicode="&#xb8;" horiz-adv-x="230" 
d="M155 -6q-3 0 -7 -11h-87l3 12h91v-1zM187 -50h-86q-3 3 -5 4q-6 4 -8 6h90l2 -2q2 -3 7 -8zM210 -83h-79q-2 6 -4 9h79q2 -3 4 -9zM209 -108q-2 -6 -4 -9h-91q6 6 8 9h87zM176 -142q-11 -5 -20 -8h-112q-1 1 -2 1v0q-6 3 -12 7h146zM20 -117h-3q0 1 1 1v2l1 -1q0 -1 1 -2
z" />
    <glyph glyph-name="onesuperior" unicode="&#xb9;" horiz-adv-x="193" 
d="M145 550h-45q24 13 38 25h6v-1q0 -4 1 -12v-12zM145 517h-62l-6 1h-6l-8 -1h-20l9 7q3 1 30 17h63v-24zM145 483h-54v24h54v-24zM145 450h-54v23h54v-23zM145 417h-54v22h54v-22zM145 383h-54v21h54v-21zM145 350h-54v20h54v-20zM145 317h-54v19h54v-19zM145 283h-54v19
h54v-19zM147 250h-58l1 1v1v16h55v-5q0 -9 2 -13zM164 226h-90q1 1 3 4t3 4h76q3 -5 8 -8z" />
    <glyph glyph-name="ordmasculine" unicode="&#xba;" horiz-adv-x="237" 
d="M219 583h-54q-2 17 -7 26h53q7 -13 8 -26zM170 650h-103q24 11 52 11q27 0 51 -11zM220 569q0 -9 -2 -19h-54q2 10 2 19v6h54v-6zM207 617h-54q-12 15 -34 15q-23 0 -35 -15h-54l8 10q6 5 18 17h124q4 -2 10 -7q10 -7 17 -20zM216 541q-3 -12 -11 -24h-61q12 10 17 24h55
zM79 609q-5 -9 -7 -26h-54q1 13 8 26h53zM197 507l-7 -7q-16 -13 -33 -17h-75q-20 6 -35 18l-6 6h156zM73 550h-54q-1 5 -1 9v16h54v-16q0 -4 1 -9zM89 517h-56q-8 10 -12 24h54q4 -16 14 -24z" />
    <glyph glyph-name="guillemotright" unicode="&#xbb;" horiz-adv-x="505" 
d="M303 317h-96l-3 9l44 10h44q1 -2 11 -19zM464 183h-135q-7 5 -20 16h131zM414 217h-126q-9 7 -18 17h119zM330 283h-103q-5 6 -12 19h99q7 -11 16 -19zM367 250h-113l-15 18h107q9 -9 21 -18zM482 165l-39 -15h-122q2 1 26 15h135zM407 131q-7 -4 -20 -14h-103l14 14h109
zM364 97l-7 -7q-3 -3 -6 -7h-93q3 4 9 14h97zM117 317h-96l-3 9l44 10h44q1 -2 11 -19zM278 183h-136q-7 5 -20 16h132zM228 217h-127q-9 7 -18 17h120zM144 283h-103q-8 10 -12 19h99q7 -11 16 -19zM181 250h-114l-15 18h108q9 -9 21 -18zM296 165l-39 -15h-122q6 4 25 15
h136zM336 63q-2 -5 -8 -13h-89q2 4 7 13h90zM319 29q-2 -4 -4 -12h-90l4 12h90zM221 131q-7 -4 -20 -14h-103l14 14h109zM224 -5l-7 -1v1h7zM177 97q-4 -4 -13 -14h-93q4 4 10 14h96zM150 63q-2 -4 -4 -7l-4 -6h-89q2 4 6 13h91zM132 29l-4 -12h-89l4 12h89zM38 -5l-7 -1v1
h7z" />
    <glyph glyph-name="onequarter" unicode="&#xbc;" horiz-adv-x="731" 
d="M554 700l-10 -16h-118l-2 5q19 11 26 11h104zM541 678l-17 -28h-79v2l-9 13l-7 13h112zM521 644l-16 -27h-66q5 13 7 27h75zM500 609l-15 -26h-61q7 12 12 26h64zM481 575l-15 -25h-62l7 11q3 5 8 14h62zM651 336l-1 -15l-2 -4h-38l28 19h13zM461 541l-14 -24h-62l14 24
h62zM441 507l-14 -24h-63l15 24h62zM645 302q-1 -6 -4 -19h-73q-3 1 -19 15q8 0 24 4h72zM641 250h-54v3q0 7 -5 15h59v-18zM490 383h-26q10 2 23 2q2 -2 3 -2zM421 473l-13 -23h-64l14 23h63zM641 217h-54v17h54v-17zM512 350h-71l-22 10q4 3 7 6l4 4h73q6 -9 9 -20z
M517 317h-43q-2 11 -8 19h49q2 -10 2 -19zM401 439l-13 -22h-63l13 22h63zM518 302q0 -9 -2 -19h-41q0 3 1 9v9v1h42zM709 188l-4 -5h-273q9 10 12 16h43q-1 -4 -5 -11h105v11h54v-11h68zM512 268q-2 -11 -5 -18h-39q1 2 4 18h40zM641 117h-54v14h54v-14zM381 404l-13 -21
h-63l12 21h64zM691 165l-8 -10h-42v-5h-54v5h-177q2 2 4 5t4 5h273zM502 234q-2 -6 -6 -17h-42l4 8q2 4 4 9h40zM641 83h-55l1 7v7h54v-14zM128 583h-46q14 8 40 26h6q0 -1 -1 -1v0q1 -2 1 -9v-16zM361 370l-12 -20h-64l12 20h64zM650 50h-74q7 9 8 13h58q1 -4 8 -13z
M128 550h-55l-12 2h-7l-16 -2h-14l11 8q13 7 32 17h61v-25zM128 517h-53v24h53v-24zM341 336l-11 -19h-65l12 19h64zM128 483h-53v24h53v-24zM321 302l-11 -19h-65l11 19h65zM128 450h-53v23h53v-23zM128 417h-53v22h53v-22zM302 268l-11 -18h-66l11 18h66zM128 383h-53v21
h53v-21zM282 234l-10 -17h-66l10 17h66zM128 350h-53v20h53v-20zM128 317h-53v19h53v-19zM261 199l-9 -16h-66l9 16h66zM130 283h-58q1 1 1 3l1 16h54v-5q0 -10 2 -14zM147 260h-90q1 1 3 4t3 4h76q3 -5 8 -8zM241 165l-9 -15h-66l9 15h66zM221 131l-8 -14h-67l9 14h66z
M202 97l-8 -14h-68l8 14h68zM182 63l-7 -13h-69l4 6q2 3 4 7h68zM163 29l-7 -12h-74l9 12h72zM143 -5l-7 -12h-81q6 8 10 12h78z" />
    <glyph glyph-name="onehalf" unicode="&#xbd;" horiz-adv-x="725" 
d="M554 700l-10 -16h-117l-2 5q17 11 25 11h104zM541 678l-17 -28h-79v2l-8 13l-7 13h111zM521 644l-16 -27h-66q5 13 7 27h75zM500 609l-15 -26h-61q7 12 12 26h64zM481 575l-15 -25h-61l7 11q3 5 8 14h61zM669 317h-58q-5 11 -10 19h65q1 -6 3 -19zM620 383h-107
q25 9 55 9q29 0 52 -9zM461 541l-14 -24h-61l14 24h61zM668 302q0 -10 -3 -19h-49v2q0 7 -2 17h54zM660 350h-73q-21 15 -48 15q-31 0 -37 -15h-41q4 6 9.5 10t15.5 10h156q6 -5 10 -10zM441 507l-14 -24h-62l15 24h61zM661 268l-7 -18h-46l6 18h47zM421 473l-13 -23h-63
l14 23h62zM646 234q-4 -8 -10 -17h-47q4 5 11 17h46zM702 122l-2 -5h-6q2 1 8 5zM498 336q-3 -9 -3 -19h-51q3 6 8 19h46zM401 439l-13 -22h-62l13 22h62zM623 199q-6 -9 -13 -16h-48q6 6 14 16h47zM503 267l-9 1h8v-1h1zM498 283h-63l4 19h56q0 -5 3 -19zM381 404l-13 -21
h-62l12 21h63zM594 165q-3 -4 -6 -7l-8 -8h-50l15 15h49zM451 268l-17 -4v4h17zM129 583h-46q14 8 40 26h6q0 -1 -1 -1v0q1 -2 1 -9v-16zM361 370l-12 -20h-63l12 20h63zM691 97l-6 -14h-230l8 6q4 3 9 8h47q-4 -3 -13 -10h104q26 0 45 10h36zM559 131l-7 -7q-4 -4 -9 -7
h-48q5 4 15 14h49zM129 550h-55l-12 2h-7l-16 -2h-14l11 8q13 7 32 17h61v-25zM129 517h-53v24h53v-24zM341 336l-11 -19h-64l12 19h63zM677 63l-6 -13h-246v10q2 0 5 3h247zM129 483h-53v24h53v-24zM322 302l-11 -19h-65l11 19h65zM129 450h-53v23h53v-23zM129 417h-53v22
h53v-22zM302 268l-10 -18h-66l11 18h65zM129 383h-53v21h53v-21zM282 234l-10 -17h-66l10 17h66zM129 350h-53v20h53v-20zM129 317h-53v19h53v-19zM262 199l-10 -16h-66l9 16h67zM131 283h-58q1 1 1 3l1 16h54v-5q0 -10 2 -14zM148 260h-90q1 1 3 4t3 4h76q3 -5 8 -8z
M242 165l-9 -15h-67l9 15h67zM222 131l-8 -14h-68l9 14h67zM203 97l-8 -14h-69l8 14h69zM183 63l-7 -13h-71q3 4 9 13h69zM164 29l-7 -12h-74l8 12h73zM144 -5l-7 -12h-83q8 8 11 12h79z" />
    <glyph glyph-name="threequarters" unicode="&#xbe;" horiz-adv-x="836" 
d="M657 700l-10 -16h-117l-2 5q17 11 25 11h104zM644 678l-17 -28h-79v2l-8 13l-7 13h111zM624 644l-16 -27h-66q5 13 7 27h75zM603 609l-15 -26h-61q7 12 12 26h64zM584 575l-15 -25h-61l7 11q3 5 8 14h61zM755 336l-1 -15l-2 -4h-39l29 19h13zM564 541l-14 -24h-61l14 24
h61zM544 507l-14 -24h-62l15 24h61zM749 302q-1 -6 -4 -19h-75q-6 4 -17 15q8 1 23 4h73zM745 250h-54v3q0 8 -4 15h58v-18zM594 383h-26q10 2 23 2q2 -2 3 -2zM524 473l-13 -23h-63l14 23h62zM745 217h-54v17h54v-17zM615 350h-70l-22 10q9 9 12 10h71q6 -9 9 -20zM620 317
h-42q-2 11 -8 19h48q2 -10 2 -19zM504 439l-13 -22h-62l13 22h62zM621 302q0 -9 -2 -19h-40q0 3 1 9v9v1h41zM813 188l-4 -5h-273q9 10 12 16h43q-1 -4 -5 -11h105v11h54v-11h68zM616 268q-3 -7 -5 -18h-39q1 2 4 18h40zM745 117h-54v14h54v-14zM484 404l-13 -21h-62l12 21
h63zM795 165l-8 -10h-42v-5h-54v5h-177q2 2 4 5t4 5h273zM606 234q-2 -6 -6 -17h-42l4 8q2 4 4 9h40zM745 83h-55l1 7v7h54v-14zM464 370l-12 -20h-63l12 20h63zM754 50h-74q7 9 8 13h58q1 -4 8 -13zM263 517h-66l-6 6q-11 11 -35 18h89q13 -11 18 -24zM444 336l-11 -19h-64
l12 19h63zM265 502q0 -9 -2 -19h-56v4q0 10 -4 20h62v-5zM232 550h-146q32 16 76 16q35 0 66 -14q2 -2 4 -2zM260 473q-6 -14 -15 -23h-55q10 9 15 23h55zM425 302l-11 -19h-65l11 19h65zM405 268l-10 -18h-66l11 18h65zM125 541q-19 -7 -28 -24h-52q11 12 26 24h54z
M232 439q-12 -7 -35 -16q8 -4 11 -6h-101q26 6 63 20q1 0 3 2h59zM270 350h-62q-4 10 -10 20h63q7 -12 9 -20zM252 383h-65q-10 10 -39 21h81q7 -5 13 -10zM385 234l-10 -17h-66l10 17h66zM276 317h-63q0 9 -2 19h63q2 -10 2 -19zM94 491l-31 5h-6q-5 0 -24 3l2 4q1 2 3 4
h55v-7q0 -6 1 -9zM275 302q-1 -6 -5 -19h-63q2 5 5 19h63zM365 199l-10 -16h-66l9 16h67zM262 268q-6 -11 -15 -18h-66q4 2 7 5l6 6q3 3 5 7h63zM345 165l-9 -15h-67l9 15h67zM325 131l-8 -14h-68l9 14h67zM109 283h-23q10 3 23 12v-12zM224 234q-24 -14 -51 -17h-42
q-33 3 -64 17h157zM306 97l-8 -14h-69l8 14h69zM117 250h-72l-21 16q5 0 15 2h70q2 -12 8 -18zM286 63l-7 -13h-71q3 4 9 13h69zM267 29l-7 -12h-74l8 12h73zM247 -5l-7 -12h-83q8 8 11 12h79z" />
    <glyph glyph-name="questiondown" unicode="&#xbf;" horiz-adv-x="390" 
d="M225 483h-31q8 2 16 2q5 0 15 -2zM261 450h-103q4 13 16 23h72q10 -9 15 -23zM264 433q0 -8 -2 -16h-104q-2 5 -2 16v6h108v-6zM255 404q-11 -17 -30 -21h-31q-20 4 -30 21h91zM258 336q-3 -6 -7 -19h-81q-1 6 -5 19h93zM254 283h-79v7q-1 4 -2 12h78q1 -6 3 -19z
M257 261q0 -5 -2 -11h-82q0 6 2 18h81q1 -3 1 -7zM247 234l-6 -6q-3 -3 -7 -5l-9 -6h-81q12 8 21 17h82zM354 83h-63q-5 8 -12 14h62l7 -7q3 -3 6 -7zM370 50h-73v13h69q1 -4 4 -13zM300 117h-63q-3 1 -11 4q16 2 29 2q24 0 45 -6zM373 25v-4q-1 -3 -1 -4h-81l3 12h79v-4z
M199 199q-7 -5 -21 -16h-82q7 5 22 16h81zM368 -5l-6 -12h-88l8 12h86zM159 165l-7 -7q-4 -4 -7 -8h-86l15 15h85zM344 -40l-5 -5q-3 -3 -6 -5h-110q14 4 26 10h95zM132 131q-3 -5 -8 -14h-87q3 5 8 14h87zM116 97q-1 -5 -4 -14h-89q1 4 5 14h88zM108 63q0 -9 -1 -13h-89
q0 4 2 13h88zM292 -74l-24 -9h-142q-10 3 -31 9h197zM107 17h-88q-1 4 -1 12h89v-12zM170 -50h-116q-3 2 -6 5l-5 5h94q16 -7 33 -10zM116 -17h-88q-2 4 -4 12h88q2 -4 4 -12z" />
    <glyph glyph-name="Agrave" unicode="&#xc0;" horiz-adv-x="726" 
d="M371 784h-111l4 14h101zM385 750h-92q-12 8 -36 22l2 8h113zM401 717h-72q-8 10 -13.5 15t-16.5 14h88q5 -14 14 -29zM419 684h-65q-7 10 -21 28h70zM444 650h-79q3 4 3 6q0 6 -8 19q-2 2 -2 3h65q7 -9 21 -28zM379 583h-131q-9 5 -16 10l95 7q40 3 52 -17zM396 550h-109
q-6 8 -21 22q-2 1 -2.5 1.5t-2.5 1.5h122q5 -8 13 -25zM413 517h-116v2q0 10 -5 22h109zM429 483h-146l12 24h123q2 -6 5 -12zM459 417h-114l-12 22h116q3 -8 10 -22zM444 450h-177q4 8 11 23h155q4 -7 11 -23zM474 383h-111l-11 21h113zM488 350h-108l-10 20h110
q1 -4 4 -11t4 -9zM503 317h-105l-10 19h106q3 -6 9 -19zM518 283h-103l-10 19h105q3 -6 8 -19zM548 217h-100l-8 17h101q2 -6 7 -17zM322 439l-11 -22h-61q6 11 11 22h61zM533 250h-162q22 8 52 18h102q3 -6 8 -18zM564 183h-100l-7 16h100q2 -5 7 -16zM580 150h-100l-7 15
h100q2 -5 7 -15zM597 117h-101q-1 4 -5 11l-2 3h100q4 -8 8 -14zM304 404l-11 -21h-60l6 10l5 11h60zM617 83h-105q-2 4 -6 14h102q1 -2 9 -14zM641 50h-115q-1 4 -5 13h110q1 -2 5 -6.5t4 -5t1 -1.5zM678 17h-140q-2 8 -4 12h128q5 -5 16 -12zM286 370l-10 -20h-60
q6 10 10 20h60zM410 234q-14 -4 -42 -17h-86q15 6 44 17h84zM269 336l-10 -19h-59q3 6 9 19h60zM251 302l-10 -19h-58q3 6 9 19h59zM333 199q-9 -6 -28 -16h-92q10 5 30 16h90zM233 268l-10 -18h-57q4 7 9 18h58zM215 234l-9 -17h-58q3 5 9 17h58zM277 165q-3 -3 -10.5 -7
t-9.5 -6t-3 -2h-83q7 7 17 15h89zM196 199l-8 -16h-57q3 5 8 16h57zM178 165l-8 -15h-56q3 5 8 15h56zM227 131q-3 -3 -18 -14h-113q4 6 8 14h123zM185 97q-4 -5 -14 -14h-94q4 6 8 14h100zM154 63q-7 -8 -9 -13h-88l4 6q2 3 4 7h89zM135 29l-3 -12h-98q4 4 9 12h92z" />
    <glyph glyph-name="Aacute" unicode="&#xc1;" horiz-adv-x="726" 
d="M446 784h-111l6 14h101zM449 772q-12 -6 -37 -22h-92l13 30h114zM406 746q-10 -8 -16 -14l-6 -6q-4 -4 -8 -9h-71q5 10 14 29h87zM372 712q-10 -12 -20 -28h-66q8 12 16 28h70zM348 678q-2 -2 -2 -3q-8 -13 -8 -19l2 -6h-78q7 9 20 28h66zM379 583h-131q-9 5 -16 10l95 7
q40 3 52 -17zM396 550h-109q-6 8 -21 22q-2 1 -2.5 1.5t-2.5 1.5h122q5 -8 13 -25zM413 517h-116v2q0 10 -5 22h109zM429 483h-146l12 24h123q2 -6 5 -12zM459 417h-114l-12 22h116q3 -8 10 -22zM444 450h-177q4 8 11 23h155q4 -7 11 -23zM474 383h-111l-11 21h113zM488 350
h-108l-10 20h110q1 -4 4 -11t4 -9zM503 317h-105l-10 19h106q3 -6 9 -19zM518 283h-103l-10 19h105q3 -6 8 -19zM548 217h-100l-8 17h101q2 -6 7 -17zM322 439l-11 -22h-61q6 11 11 22h61zM533 250h-162q22 8 52 18h102q3 -6 8 -18zM564 183h-100l-7 16h100q2 -5 7 -16z
M580 150h-100l-7 15h100q2 -5 7 -15zM597 117h-101q-1 4 -5 11l-2 3h100q4 -8 8 -14zM304 404l-11 -21h-60l6 10l5 11h60zM617 83h-105q-2 4 -6 14h102q1 -2 9 -14zM641 50h-115q-1 4 -5 13h110q1 -2 5 -6.5t4 -5t1 -1.5zM678 17h-140q-2 8 -4 12h128q5 -5 16 -12zM286 370
l-10 -20h-60q6 10 10 20h60zM410 234q-14 -4 -42 -17h-86q15 6 44 17h84zM269 336l-10 -19h-59q3 6 9 19h60zM251 302l-10 -19h-58q3 6 9 19h59zM333 199q-9 -6 -28 -16h-92q10 5 30 16h90zM233 268l-10 -18h-57q4 7 9 18h58zM215 234l-9 -17h-58q3 5 9 17h58zM277 165
q-3 -3 -10.5 -7t-9.5 -6t-3 -2h-83q7 7 17 15h89zM196 199l-8 -16h-57q3 5 8 16h57zM178 165l-8 -15h-56q3 5 8 15h56zM227 131q-3 -3 -18 -14h-113q4 6 8 14h123zM185 97q-4 -5 -14 -14h-94q4 6 8 14h100zM154 63q-7 -8 -9 -13h-88l4 6q2 3 4 7h89zM135 29l-3 -12h-98
q4 4 9 12h92z" />
    <glyph glyph-name="Acircumflex" unicode="&#xc2;" horiz-adv-x="726" 
d="M379 784h-15q3 3 7 9q1 -2 8 -9zM411 750h-76q9 10 26 30h21q10 -10 29 -30zM471 684h-57q-5 5 -10 12l-13 16h55q8 -9 25 -28zM498 650h-79l1 1q3 1 10 13q-4 3 -11 14h57q8 -9 22 -28zM442 717h-55q-6 6 -12 15q-4 -5 -7 -8l-7 -7h-55q8 9 25 29h84q10 -12 25 -27
q0 -2 2 -2zM505 640h-98l4 4h91q1 -2 3 -4zM356 712q-13 -16 -20 -28h-64l14 12q16 14 16 16h54zM336 650h-104q8 6 33 28h69q-1 -3 -1 -7q0 -2 2 -12l1 -7v-2zM338 637l-9 3h-109q1 1 2.5 2t2.5 2h112zM379 583h-131q-9 5 -16 10l95 7q40 3 52 -17zM396 550h-109
q-6 8 -21 22q-2 1 -2.5 1.5t-2.5 1.5h122q5 -8 13 -25zM413 517h-116v2q0 10 -5 22h109zM429 483h-146l12 24h123q2 -6 5 -12zM459 417h-114l-12 22h116q3 -8 10 -22zM444 450h-177q4 8 11 23h155q4 -7 11 -23zM474 383h-111l-11 21h113zM488 350h-108l-10 20h110
q1 -4 4 -11t4 -9zM503 317h-105l-10 19h106q3 -6 9 -19zM518 283h-103l-10 19h105q3 -6 8 -19zM548 217h-100l-8 17h101q2 -6 7 -17zM322 439l-11 -22h-61q6 11 11 22h61zM533 250h-162q22 8 52 18h102q3 -6 8 -18zM564 183h-100l-7 16h100q2 -5 7 -16zM580 150h-100l-7 15
h100q2 -5 7 -15zM597 117h-101q-1 4 -5 11l-2 3h100q4 -8 8 -14zM304 404l-11 -21h-60l6 10l5 11h60zM617 83h-105q-2 4 -6 14h102q1 -2 9 -14zM641 50h-115q-1 4 -5 13h110q1 -2 5 -6.5t4 -5t1 -1.5zM678 17h-140q-2 8 -4 12h128q5 -5 16 -12zM286 370l-10 -20h-60
q6 10 10 20h60zM410 234q-14 -4 -42 -17h-86q15 6 44 17h84zM269 336l-10 -19h-59q3 6 9 19h60zM251 302l-10 -19h-58q3 6 9 19h59zM333 199q-9 -6 -28 -16h-92q10 5 30 16h90zM233 268l-10 -18h-57q4 7 9 18h58zM215 234l-9 -17h-58q3 5 9 17h58zM277 165q-3 -3 -10.5 -7
t-9.5 -6t-3 -2h-83q7 7 17 15h89zM196 199l-8 -16h-57q3 5 8 16h57zM178 165l-8 -15h-56q3 5 8 15h56zM227 131q-3 -3 -18 -14h-113q4 6 8 14h123zM185 97q-4 -5 -14 -14h-94q4 6 8 14h100zM154 63q-7 -8 -9 -13h-88l4 6q2 3 4 7h89zM135 29l-3 -12h-98q4 4 9 12h92z" />
    <glyph glyph-name="Atilde" unicode="&#xc3;" horiz-adv-x="726" 
d="M534 729q-4 -4 -11 -12h-28zM474 678q-35 -20 -68 -11l-31 8l-6 3h105zM518 712q-19 -19 -34 -28h-129q-37 15 -46.5 17t-25.5 2q-13 0 -29 -2l-63 -15q16 16 28 26h208q14 -2 24 -2q10 -1 18 0h2q3 0 6 2h41zM405 717h-180q26 21 54 29h49l29 -8zM379 583h-131
q-9 5 -16 10l95 7q40 3 52 -17zM396 550h-109q-6 8 -21 22q-2 1 -2.5 1.5t-2.5 1.5h122q5 -8 13 -25zM413 517h-116v2q0 10 -5 22h109zM429 483h-146l12 24h123q2 -6 5 -12zM459 417h-114l-12 22h116q3 -8 10 -22zM444 450h-177q4 8 11 23h155q4 -7 11 -23zM474 383h-111
l-11 21h113zM488 350h-108l-10 20h110q1 -4 4 -11t4 -9zM503 317h-105l-10 19h106q3 -6 9 -19zM518 283h-103l-10 19h105q3 -6 8 -19zM548 217h-100l-8 17h101q2 -6 7 -17zM322 439l-11 -22h-61q6 11 11 22h61zM533 250h-162q22 8 52 18h102q3 -6 8 -18zM564 183h-100l-7 16
h100q2 -5 7 -16zM580 150h-100l-7 15h100q2 -5 7 -15zM597 117h-101q-1 4 -5 11l-2 3h100q4 -8 8 -14zM304 404l-11 -21h-60l6 10l5 11h60zM617 83h-105q-2 4 -6 14h102q1 -2 9 -14zM641 50h-115q-1 4 -5 13h110q1 -2 5 -6.5t4 -5t1 -1.5zM678 17h-140q-2 8 -4 12h128
q5 -5 16 -12zM286 370l-10 -20h-60q6 10 10 20h60zM410 234q-14 -4 -42 -17h-86q15 6 44 17h84zM269 336l-10 -19h-59q3 6 9 19h60zM251 302l-10 -19h-58q3 6 9 19h59zM333 199q-9 -6 -28 -16h-92q10 5 30 16h90zM233 268l-10 -18h-57q4 7 9 18h58zM215 234l-9 -17h-58
q3 5 9 17h58zM277 165q-3 -3 -10.5 -7t-9.5 -6t-3 -2h-83q7 7 17 15h89zM196 199l-8 -16h-57q3 5 8 16h57zM178 165l-8 -15h-56q3 5 8 15h56zM227 131q-3 -3 -18 -14h-113q4 6 8 14h123zM185 97q-4 -5 -14 -14h-94q4 6 8 14h100zM154 63q-7 -8 -9 -13h-88l4 6q2 3 4 7h89z
M135 29l-3 -12h-98q4 4 9 12h92z" />
    <glyph glyph-name="Adieresis" unicode="&#xc4;" horiz-adv-x="726" 
d="M479 717h-93q12 21 47 22t46 -22zM484 702q0 -8 -4 -18h-93q-4 8 -4 17q0 7 1 11h97q1 -3 3 -10zM476 678q-11 -14 -42 -15t-42 15h84zM338 717h-93q12 21 47 22t46 -22zM343 702q0 -8 -4 -18h-93q-4 8 -4 17q0 7 1 11h97q1 -3 3 -10zM335 678q-11 -14 -42 -15t-42 15h84
zM379 583h-131q-9 5 -16 10l95 7q40 3 52 -17zM396 550h-109q-6 8 -21 22q-2 1 -2.5 1.5t-2.5 1.5h122q5 -8 13 -25zM413 517h-116v2q0 10 -5 22h109zM429 483h-146l12 24h123q2 -6 5 -12zM459 417h-114l-12 22h116q3 -8 10 -22zM444 450h-177q4 8 11 23h155q4 -7 11 -23z
M474 383h-111l-11 21h113zM488 350h-108l-10 20h110q1 -4 4 -11t4 -9zM503 317h-105l-10 19h106q3 -6 9 -19zM518 283h-103l-10 19h105q3 -6 8 -19zM548 217h-100l-8 17h101q2 -6 7 -17zM322 439l-11 -22h-61q6 11 11 22h61zM533 250h-162q22 8 52 18h102q3 -6 8 -18z
M564 183h-100l-7 16h100q2 -5 7 -16zM580 150h-100l-7 15h100q2 -5 7 -15zM597 117h-101q-1 4 -5 11l-2 3h100q4 -8 8 -14zM304 404l-11 -21h-60l6 10l5 11h60zM617 83h-105q-2 4 -6 14h102q1 -2 9 -14zM641 50h-115q-1 4 -5 13h110q1 -2 5 -6.5t4 -5t1 -1.5zM678 17h-140
q-2 8 -4 12h128q5 -5 16 -12zM286 370l-10 -20h-60q6 10 10 20h60zM410 234q-14 -4 -42 -17h-86q15 6 44 17h84zM269 336l-10 -19h-59q3 6 9 19h60zM251 302l-10 -19h-58q3 6 9 19h59zM333 199q-9 -6 -28 -16h-92q10 5 30 16h90zM233 268l-10 -18h-57q4 7 9 18h58zM215 234
l-9 -17h-58q3 5 9 17h58zM277 165q-3 -3 -10.5 -7t-9.5 -6t-3 -2h-83q7 7 17 15h89zM196 199l-8 -16h-57q3 5 8 16h57zM178 165l-8 -15h-56q3 5 8 15h56zM227 131q-3 -3 -18 -14h-113q4 6 8 14h123zM185 97q-4 -5 -14 -14h-94q4 6 8 14h100zM154 63q-7 -8 -9 -13h-88l4 6
q2 3 4 7h89zM135 29l-3 -12h-98q4 4 9 12h92z" />
    <glyph glyph-name="Aring" unicode="&#xc5;" horiz-adv-x="726" 
d="M463 717h-54q-1 16 -8 29h53q6 -13 9 -29zM414 784h-103q24 11 52 11q27 0 51 -11zM464 703q0 -9 -2 -19h-54q2 10 2 19v9h53q1 -3 1 -9zM451 750h-53q-13 16 -35 16q-23 0 -36 -16h-54q8 13 18 21l12 9h118q19 -12 30 -30zM461 678q-3 -14 -13 -28h-61q4 3 11 12
q3 5 8 16h55zM325 746q-8 -12 -9 -29h-54q2 10 9 29h54zM444 644l-9 -9q-17 -13 -36 -18h-72q-21 6 -35 19q-3 2 -9 8h65q8 -2 15 -2q9 0 13 2h68zM317 684h-54q-1 5 -1 9v19h54v-19q0 -4 1 -9zM335 650h-57q-10 14 -13 28h53q4 -18 17 -28zM379 583h-131q-9 5 -16 10l95 7
q40 3 52 -17zM396 550h-109q-6 8 -21 22q-2 1 -2.5 1.5t-2.5 1.5h122q5 -8 13 -25zM413 517h-116v2q0 10 -5 22h109zM429 483h-146l12 24h123q2 -6 5 -12zM459 417h-114l-12 22h116q3 -8 10 -22zM444 450h-177q4 8 11 23h155q4 -7 11 -23zM474 383h-111l-11 21h113zM488 350
h-108l-10 20h110q1 -4 4 -11t4 -9zM503 317h-105l-10 19h106q3 -6 9 -19zM518 283h-103l-10 19h105q3 -6 8 -19zM548 217h-100l-8 17h101q2 -6 7 -17zM322 439l-11 -22h-61q6 11 11 22h61zM533 250h-162q22 8 52 18h102q3 -6 8 -18zM564 183h-100l-7 16h100q2 -5 7 -16z
M580 150h-100l-7 15h100q2 -5 7 -15zM597 117h-101q-1 4 -5 11l-2 3h100q4 -8 8 -14zM304 404l-11 -21h-60l6 10l5 11h60zM617 83h-105q-2 4 -6 14h102q1 -2 9 -14zM641 50h-115q-1 4 -5 13h110q1 -2 5 -6.5t4 -5t1 -1.5zM678 17h-140q-2 8 -4 12h128q5 -5 16 -12zM286 370
l-10 -20h-60q6 10 10 20h60zM410 234q-14 -4 -42 -17h-86q15 6 44 17h84zM269 336l-10 -19h-59q3 6 9 19h60zM251 302l-10 -19h-58q3 6 9 19h59zM333 199q-9 -6 -28 -16h-92q10 5 30 16h90zM233 268l-10 -18h-57q4 7 9 18h58zM215 234l-9 -17h-58q3 5 9 17h58zM277 165
q-3 -3 -10.5 -7t-9.5 -6t-3 -2h-83q7 7 17 15h89zM196 199l-8 -16h-57q3 5 8 16h57zM178 165l-8 -15h-56q3 5 8 15h56zM227 131q-3 -3 -18 -14h-113q4 6 8 14h123zM185 97q-4 -5 -14 -14h-94q4 6 8 14h100zM154 63q-7 -8 -9 -13h-88l4 6q2 3 4 7h89zM135 29l-3 -12h-98
q4 4 9 12h92z" />
    <glyph glyph-name="AE" unicode="&#xc6;" horiz-adv-x="920" 
d="M885 500l-21 7h20zM882 517h-37q-20 13 -47 24h83q-1 -3 -1 -7zM903 583h-420l9 9l-1 1l3 1l6 5h74l14 1q11 1 14 1q6 -1 11 -2h267q14 0 23 -16zM898 575q-5 -8 -14 -25h-115q-9 2 -28 6l-25 2l-25 1l-40 -1l-16 -1v-7h-109l-3 9v1l-28 15h403zM636 517h-115q6 12 6 24
h109v-24zM843 302l-21 -19h-49q-14 12 -26 19h96zM882 366l-10 -16h-344l-1 20h110v-4h245zM637 483h-144q10 12 22 24h122v-24zM806 268l-10 -10q-2 3 -8 10h18zM864 336l-11 -19h-145q-28 5 -47 5h-5q-2 0 -7 1q-10 0 -13 -1v-5h-105l-2 19h335zM637 450h-175q11 11 21 23
h154v-23zM637 417h-114l-1 22h115v-22zM637 383h-111l-2 21h113v-21zM885 96l-2 -13h-31q2 2 4 3zM510 439l-20 -22h-59l11 11q5 5 10 11h58zM883 50h-99q14 3 34 13h63v-6q0 -3 2 -7zM636 283h-103l-1 19h104v-19zM477 404l-19 -21h-58q9 9 19 21h58zM636 250h-158
q19 6 56 18h102v-18zM636 217h-100v17h100v-17zM637 183h-100v16h100v-16zM446 370l-19 -20h-58l10 10q4 4 9 10h58zM639 150h-101v15h100q0 -10 1 -15zM900 17h-412l21 12h384q2 -4 7 -12zM641 117h-102v14h101q0 -10 1 -14zM414 336l-18 -19h-57q9 9 17 19h58zM645 83
h-105v14h103q0 -5 2 -14zM508 234q-19 -6 -46 -17h-83q8 2 12 4q8 2 18 6l20 7h79zM654 50h-119q1 1 4 7v6h110l3 -9t2 -4zM382 302l-18 -19h-56q3 3 8.5 9.5t8.5 9.5h57zM350 268l-17 -18h-56q3 3 8.5 9t8.5 9h56zM421 199q-11 -5 -34 -16h-91q6 3 18.5 8t18.5 8h88z
M318 234l-16 -17h-55q5 5 15 17h56zM352 165q-9 -4 -27 -14q-1 -1 -2 -1v0h-83q2 2 22 15h90zM285 199l-15 -16h-55l8 8q3 3 7 8h55zM253 165l-14 -15h-56l15 15h55zM287 131q-12 -8 -24 -14h-112l14 14h122zM230 97q-7 -6 -21 -14h-92l14 14h99zM183 63q-10 -8 -15 -13h-87
q4 3 7 6l7 7h88zM148 29q-6 -8 -8 -12h-97q6 4 15 12h90z" />
    <glyph glyph-name="Ccedilla" unicode="&#xc7;" horiz-adv-x="686" 
d="M612 541q-3 -9 -3 -17v-7h-62q-26 15 -55 24h120zM609 503q-2 -4 -2 -20h-17q-12 14 -28 24h47v-4zM607 464q-3 3 -8 9h8v-9zM669 600l-21 -17h-389q70 17 143 17h267zM634 571q-12 -12 -17 -21h-168q-23 3 -47 3q-28 0 -53 -3h-175q25 14 59 25zM606 183h-3q2 2 3 4v-4z
M606 150h-28l12 15h16v-15zM304 541q-40 -12 -60 -24h-122q7 4 18 13q6 4 17 11h147zM606 117h-57q6 4 13 14h44v-14zM227 507q-12 -8 -24 -18q-4 -3 -7 -6h-111q7 9 25 24h117zM606 83h-96q2 1 18 14h78v-14zM605 63q-10 -8 -17 -13h-134q9 4 26 13h125zM186 473
q-7 -8 -20 -23h-107q9 13 17 23h110zM159 439q-4 -7 -13 -22h-105q3 7 11 22h107zM141 404q-3 -7 -8 -21h-104q2 7 7 21h105zM130 370q-2 -5 -3 -10l-2 -10h-103q1 7 3 20h105zM124 336q-1 -3 -1 -9.5t-1 -9.5h-104q0 6 2 19h104zM554 29q-13 -8 -25 -12h-348q-6 2 -23 12
h396zM122 283h-104v19h104v-19zM461 -5q-16 -4 -33 -6l-34 -4q-1 -1 -1 -2h-88q0 1 1 1v1q-21 2 -62 10h217zM431 -50h-86q-3 3 -5 4q-6 4 -8 6h90l2 -2q2 -3 7 -8zM454 -83h-80q-2 6 -4 9h80q2 -3 4 -9zM125 250h-105q0 3 -1 9v9h104q0 -6 2 -18zM131 217h-105q-1 6 -3 17
h105q1 -6 3 -17zM453 -108q-2 -6 -4 -9h-90q1 1 4 4.5t4 4.5h86zM142 183h-107q-3 6 -5 16h107q2 -10 5 -16zM158 150h-110q-2 5 -7 15h109q3 -5 8 -15zM264 50h-136q-9 6 -16 13h127q10 -7 25 -13zM179 117h-113q-5 7 -8 14h111q3 -5 10 -14zM211 83h-119q-6 6 -12 14h116
l8 -7q3 -4 7 -7zM420 -142q-7 -3 -20 -8h-112q-1 1 -2 1v0q-6 3 -12 7h146zM264 -117h-3q0 1 1 1v2l1 -1q0 -1 1 -2z" />
    <glyph glyph-name="Egrave" unicode="&#xc8;" horiz-adv-x="456" 
d="M242 784h-111l4 14h101zM256 750h-91q-12 8 -37 22l2 8h113zM272 717h-71q-8 10 -13 15q-3 2 -18 14h88q5 -14 14 -29zM290 684h-65q-6 10 -20 28h69zM315 650h-79q3 4 3 6q0 6 -8 19q-2 2 -2 3h65q7 -9 21 -28zM420 501l-18 6h17zM418 517h-36q-22 14 -46 24h80v-6z
M438 584q0 -1 -1 -1v0h-419l18 17h380q13 0 22 -16zM432 575q-8 -14 -12 -25h-112q-11 2 -32 7l-25 2l-24 1l-41 -1l-19 -2v-7h-100q-5 5 -9 11l-26 14h400zM167 517h-90v4q0 8 -5 20h95v-24zM377 302l-20 -19h-48q-6 5 -28 19h96zM167 483h-90v24h90v-24zM417 367l-10 -17
h-330v20h90v-3h250zM341 268l-9 -9q-3 3 -7 9h16zM167 450h-90v23h90v-23zM398 336l-11 -19h-146q-22 4 -45 6h-4q-2 0 -7 1q-19 0 -18 -5v-2h-90v19h321zM167 417h-90v22h90v-22zM167 383h-90v21h90v-21zM420 97l-2 -14h-32q1 1 2.5 2t2.5 2zM419 50h-103q16 4 35 13h65
q0 -6 3 -13zM167 283h-90v19h90v-19zM167 250h-90v18h90v-18zM167 217h-90v17h90v-17zM167 183h-90v16h90v-16zM167 150h-90v15h90v-15zM436 17h-415l22 12h386q2 -4 7 -12zM167 117h-90v14h90v-14zM167 83h-90v14h90v-14zM167 50h-97q3 5 5 10v3h92v-13z" />
    <glyph glyph-name="Eacute" unicode="&#xc9;" horiz-adv-x="456" 
d="M317 784h-111l6 14h101zM320 772q-12 -6 -37 -22h-92l13 30h114zM277 746q-10 -8 -16 -14l-6 -6q-4 -4 -8 -9h-71q5 10 14 29h87zM420 501l-18 6h17zM418 517h-36q-22 14 -46 24h80v-6zM243 712q-10 -12 -20 -28h-65q6 9 16 28h69zM219 678q-2 -2 -2 -3q-8 -13 -8 -19
l2 -6h-78q7 9 20 28h66zM438 584q0 -1 -1 -1v0h-419l18 17h380q13 0 22 -16zM432 575q-8 -14 -12 -25h-112q-11 2 -32 7l-25 2l-24 1l-41 -1l-19 -2v-7h-100q-5 5 -9 11l-26 14h400zM167 517h-90v4q0 8 -5 20h95v-24zM377 302l-20 -19h-48q-6 5 -28 19h96zM167 483h-90v24
h90v-24zM417 367l-10 -17h-330v20h90v-3h250zM341 268l-9 -9q-3 3 -7 9h16zM167 450h-90v23h90v-23zM398 336l-11 -19h-146q-22 4 -45 6h-4q-2 0 -7 1q-19 0 -18 -5v-2h-90v19h321zM167 417h-90v22h90v-22zM167 383h-90v21h90v-21zM420 97l-2 -14h-32q1 1 2.5 2t2.5 2z
M419 50h-103q16 4 35 13h65q0 -6 3 -13zM167 283h-90v19h90v-19zM167 250h-90v18h90v-18zM167 217h-90v17h90v-17zM167 183h-90v16h90v-16zM167 150h-90v15h90v-15zM436 17h-415l22 12h386q2 -4 7 -12zM167 117h-90v14h90v-14zM167 83h-90v14h90v-14zM167 50h-97q3 5 5 10v3
h92v-13z" />
    <glyph glyph-name="Ecircumflex" unicode="&#xca;" horiz-adv-x="456" 
d="M241 784h-16q3 3 7 9zM273 750h-76q9 9 25 30h23q9 -10 28 -30zM333 684h-57q-5 5 -10 12l-13 16h55q8 -9 25 -28zM360 650h-80l1 1q2 1 11 13q-4 3 -11 14h57q8 -9 22 -28zM304 717h-55q-6 6 -12 15q-4 -5 -7 -8l-7 -7h-56q16 19 26 29h84q10 -12 25 -27q0 -2 2 -2z
M367 640h-99l4 4h92q1 -2 3 -4zM420 501l-18 6h17zM418 517h-36q-22 14 -46 24h80v-6zM218 712q-13 -16 -20 -28h-65l14 12q16 14 16 16h55zM438 584q0 -1 -1 -1v0h-419l18 17h380q13 0 22 -16zM198 650h-104q11 9 33 28h69q-1 -3 -1 -7q0 2 2 -12l1 -7v-2zM432 575
q-8 -14 -12 -25h-112q-11 2 -32 7l-25 2l-24 1l-41 -1l-19 -2v-7h-100q-5 5 -9 11l-26 14h400zM200 637l-10 3h-108q1 1 2.5 2t2.5 2h112zM167 517h-90v4q0 8 -5 20h95v-24zM377 302l-20 -19h-48q-6 5 -28 19h96zM167 483h-90v24h90v-24zM417 367l-10 -17h-330v20h90v-3h250
zM341 268l-9 -9q-3 3 -7 9h16zM167 450h-90v23h90v-23zM398 336l-11 -19h-146q-22 4 -45 6h-4q-2 0 -7 1q-19 0 -18 -5v-2h-90v19h321zM167 417h-90v22h90v-22zM167 383h-90v21h90v-21zM420 97l-2 -14h-32q1 1 2.5 2t2.5 2zM419 50h-103q16 4 35 13h65q0 -6 3 -13zM167 283
h-90v19h90v-19zM167 250h-90v18h90v-18zM167 217h-90v17h90v-17zM167 183h-90v16h90v-16zM167 150h-90v15h90v-15zM436 17h-415l22 12h386q2 -4 7 -12zM167 117h-90v14h90v-14zM167 83h-90v14h90v-14zM167 50h-97q3 5 5 10v3h92v-13z" />
    <glyph glyph-name="Edieresis" unicode="&#xcb;" horiz-adv-x="456" 
d="M340 717h-92q12 21 46 22q35 1 46 -22zM345 702q0 -8 -4 -18h-92q-4 8 -4 17q0 7 1 11h96q1 -3 3 -10zM337 678q-11 -14 -42 -15q-30 -1 -42 15h84zM420 501l-18 6h17zM418 517h-36q-22 14 -46 24h80v-6zM199 717h-92q12 21 46 22q35 1 46 -22zM204 702q0 -8 -4 -18h-92
q-4 8 -4 17q0 7 1 11h96q1 -3 3 -10zM196 678q-11 -14 -42 -15t-42 15h84zM438 584q0 -1 -1 -1v0h-419l18 17h380q13 0 22 -16zM432 575q-8 -14 -12 -25h-112q-11 2 -32 7l-25 2l-24 1l-41 -1l-19 -2v-7h-100q-5 5 -9 11l-26 14h400zM167 517h-90v4q0 8 -5 20h95v-24z
M377 302l-20 -19h-48q-6 5 -28 19h96zM167 483h-90v24h90v-24zM417 367l-10 -17h-330v20h90v-3h250zM341 268l-9 -9q-3 3 -7 9h16zM167 450h-90v23h90v-23zM398 336l-11 -19h-146q-22 4 -45 6h-4q-2 0 -7 1q-19 0 -18 -5v-2h-90v19h321zM167 417h-90v22h90v-22zM167 383h-90
v21h90v-21zM420 97l-2 -14h-32q1 1 2.5 2t2.5 2zM419 50h-103q16 4 35 13h65q0 -6 3 -13zM167 283h-90v19h90v-19zM167 250h-90v18h90v-18zM167 217h-90v17h90v-17zM167 183h-90v16h90v-16zM167 150h-90v15h90v-15zM436 17h-415l22 12h386q2 -4 7 -12zM167 117h-90v14h90
v-14zM167 83h-90v14h90v-14zM167 50h-97q3 5 5 10v3h92v-13z" />
    <glyph glyph-name="Igrave" unicode="&#xcc;" horiz-adv-x="271" 
d="M176 784h-110l3 14h101zM190 750h-91q-12 8 -36 22l2 8h112zM206 717h-71q-8 10 -13.5 15t-16.5 14h87q5 -14 14 -29zM224 684h-65q-6 10 -20 28h69zM249 650h-79q3 4 3 6q0 6 -8 19q-2 2 -2 3h65q7 -9 21 -28zM221 583h-198q-4 8 -5 13l23 4h180v-17zM221 517h-96
q-6 15 -19 24h115v-24zM221 550h-132q-12 4 -35 13q-15 4 -24 12h191v-25zM221 483h-89q-2 16 -4 24h93v-24zM221 450h-89v23h89v-23zM221 417h-89v22h89v-22zM221 383h-89v21h89v-21zM221 350h-89v20h89v-20zM221 317h-89v19h89v-19zM221 283h-89v19h89v-19zM221 250h-89
v18h89v-18zM221 217h-89v17h89v-17zM221 183h-89v16h89v-16zM221 150h-89v15h89v-15zM221 117h-89v14h89v-14zM221 83h-89v14h89v-14zM222 50h-93l1 13h91q0 -10 1 -13zM236 17h-120q3 4 7 12h106q4 -8 7 -12z" />
    <glyph glyph-name="Iacute" unicode="&#xcd;" horiz-adv-x="271" 
d="M251 784h-111l6 14h102zM254 772q-12 -6 -37 -22h-92l13 30h114zM211 746q-10 -8 -16 -14l-6 -6q-4 -4 -8 -9h-71q5 10 14 29h87zM177 712q-10 -12 -20 -28h-65q6 9 16 28h69zM153 678q-2 -2 -2 -3q-7 -11 -7 -19q0 -3 1 -6h-77q7 9 20 28h65zM221 583h-198q-4 8 -5 13
l23 4h180v-17zM221 517h-96q-6 15 -19 24h115v-24zM221 550h-132q-12 4 -35 13q-15 4 -24 12h191v-25zM221 483h-89q-2 16 -4 24h93v-24zM221 450h-89v23h89v-23zM221 417h-89v22h89v-22zM221 383h-89v21h89v-21zM221 350h-89v20h89v-20zM221 317h-89v19h89v-19zM221 283
h-89v19h89v-19zM221 250h-89v18h89v-18zM221 217h-89v17h89v-17zM221 183h-89v16h89v-16zM221 150h-89v15h89v-15zM221 117h-89v14h89v-14zM221 83h-89v14h89v-14zM222 50h-93l1 13h91q0 -10 1 -13zM236 17h-120q3 4 7 12h106q4 -8 7 -12z" />
    <glyph glyph-name="Icircumflex" unicode="&#xce;" horiz-adv-x="319" 
d="M177 784h-16q3 3 7 9zM208 750h-76q9 10 26 30h22q9 -10 28 -30zM268 684h-56q-10 10 -24 28h55q8 -9 25 -28zM295 650h-79l1 1q2 1 11 13q-4 3 -11 14h56q8 -9 22 -28zM239 717h-55q-6 6 -12 15q-4 -5 -7 -8l-7 -7h-55q8 9 25 29h84q8 -9 25 -27q0 -2 2 -2zM302 640h-98
l4 4h91q1 -2 3 -4zM153 712q-13 -16 -20 -28h-64l14 12q16 14 16 16h54zM133 650h-103q11 9 33 28h68q-1 -3 -1 -7q0 -2 2 -12l1 -7v-2zM135 637l-9 3h-108q1 1 2.5 2t2.5 2h111zM223 583h-199q-4 8 -5 13l23 4h181v-17zM223 517h-97q-5 13 -18 24h115v-24zM223 550h-132
q-12 4 -35 13q-15 4 -24 12h191v-25zM223 483h-90q-2 16 -4 24h94v-24zM223 450h-90v23h90v-23zM223 417h-90v22h90v-22zM223 383h-90v21h90v-21zM223 350h-90v20h90v-20zM223 317h-90v19h90v-19zM223 283h-90v19h90v-19zM223 250h-90v18h90v-18zM223 217h-90v17h90v-17z
M223 183h-90v16h90v-16zM223 150h-90v15h90v-15zM223 117h-90v14h90v-14zM223 83h-90v14h90v-14zM224 50h-94l1 13h92q0 -10 1 -13zM237 17h-119l6 12h106q4 -8 7 -12z" />
    <glyph glyph-name="Idieresis" unicode="&#xcf;" horiz-adv-x="296" 
d="M274 717h-92q12 21 46 22q35 1 46 -22zM279 702q0 -8 -4 -18h-92q-4 8 -4 17q0 7 1 11h96q1 -3 3 -10zM271 678q-11 -14 -42 -15q-30 -1 -42 15h84zM133 717h-92q12 21 46 22q35 1 46 -22zM138 702q0 -8 -4 -18h-92q-4 8 -4 17q0 7 1 11h96q1 -3 3 -10zM130 678
q-11 -14 -42 -15t-42 15h84zM221 583h-198q-4 8 -5 13l23 4h180v-17zM221 517h-96q-6 15 -19 24h115v-24zM221 550h-132q-12 4 -35 13q-15 4 -24 12h191v-25zM221 483h-89q-2 16 -4 24h93v-24zM221 450h-89v23h89v-23zM221 417h-89v22h89v-22zM221 383h-89v21h89v-21z
M221 350h-89v20h89v-20zM221 317h-89v19h89v-19zM221 283h-89v19h89v-19zM221 250h-89v18h89v-18zM221 217h-89v17h89v-17zM221 183h-89v16h89v-16zM221 150h-89v15h89v-15zM221 117h-89v14h89v-14zM221 83h-89v14h89v-14zM222 50h-93l1 13h91q0 -10 1 -13zM236 17h-120
q3 4 7 12h106q4 -8 7 -12z" />
    <glyph glyph-name="Eth" unicode="&#xd0;" horiz-adv-x="715" 
d="M646 483h-108q-12 15 -22 24h111q6 -8 19 -24zM618 517h-114q-21 15 -45 24h133l14 -11q6 -6 12 -13zM665 450h-106q-4 8 -13 22h-1v1h108q4 -8 12 -23zM679 417h-105l-4 11l-5 11h106q5 -12 8 -22zM689 383h-104l-6 21h104q4 -9 6 -21zM695 350h-104q-2 12 -4 20h105
q1 -7 3 -20zM518 583h-229q42 17 124 17q57 0 105 -17zM697 317h-104q0 3 -1 10v9h104q1 -5 1 -10v-9zM581 550h-155q-18 3 -39 3t-39 -3h-127l50 25h266q23 -10 44 -25zM698 283h-105q0 3 1 8v7v4h104v-19zM697 268q0 -6 -2 -18h-104q0 6 2 18h104zM692 234q0 -6 -3 -17
h-104q1 6 3 17h104zM685 199q-1 -5 -5 -16h-106q3 6 5 16h106zM672 165l-6 -15h-106q2 5 7 15h105zM315 541q-25 -9 -44 -24h-107q14 8 41 24h110zM414 355q-2 -4 -3 -5h-3q2 1 6 5zM656 131q-1 -2 -9 -14h-107q2 2 4 5t5 9h107zM404 336q-4 -6 -11 -19h-24q7 6 22 19h13z
M258 507q-12 -12 -21 -24h-110v11q7 4 20 13h111zM632 97q-6 -8 -12 -14h-107q6 6 12 14h107zM231 473q-7 -14 -10 -23h-94v23h104zM218 439q-2 -10 -2 -22h-89v22h91zM600 63l-7 -7q-3 -3 -7 -6h-116l10 6q5 3 10 7h110zM216 383h-89v21h89v-21zM216 350h-89v20h89v-20z
M385 302q-4 -6 -12 -19h-291q12 10 29 19h105v-1q16 -4 48 -13q3 -1 25 -1q32 0 58 15h38zM216 317h-89v19h89v-19zM363 268q-1 -2 -4 -5.5t-6 -6.5l-6 -6h-294q3 3 14 18h296zM325 234q-24 -14 -56 -14q-20 0 -53 10v-13h-89v17h198zM556 29q-11 -8 -21 -12h-296
q-11 4 -18 12h335zM476 -5q-46 -11 -89 -11q-40 0 -87 11h176zM216 183h-89v16h89v-16zM216 150h-89v15h89v-15zM216 117h-89v14h89v-14zM90 234q0 -1 -1 -1v0l-32 -16h-26q3 6 11 17h48zM216 83h-89v14h89v-14zM273 50h-146v13h116q9 -5 30 -13zM22 199l-4 -2l1 1v1h3z
M216 17h-89v12h89v-12z" />
    <glyph glyph-name="Ntilde" unicode="&#xd1;" horiz-adv-x="646" 
d="M540 729l-12 -12h-30zM629 583h-116v17h116v-17zM629 550h-88l-28 22v3h116v-25zM629 517h-55q-4 6 -8 14l-13 10h76v-24zM629 483h-46q-2 14 -3 20q-1 1 -1 4h50v-24zM479 678q-34 -19 -68 -11l-32 8l-6 3h106zM629 450h-46v23h46v-23zM523 712q-19 -19 -34 -28h-129
q-19 9 -47 17q-12 2 -25 2q-14 0 -28 -2l-64 -15q16 16 28 26h208q14 -2 24 -2q10 -1 18 0l6 2h43zM410 717h-180q6 6 19.5 15t34.5 14h49l29 -8zM629 417h-46v22h46v-22zM629 383h-46v21h46v-21zM629 350h-46v20h46v-20zM629 317h-46v19h46v-19zM629 283h-46v19h46v-19z
M629 250h-46v18h46v-18zM629 217h-46v17h46v-17zM629 183h-46v16h46v-16zM629 150h-46v15h46v-15zM262 517h-134v17l-12 7h125zM319 450h-116l-20 23h116zM348 417h-116l-20 22h117zM291 483h-163v24h142zM377 383h-115l-19 21h116zM205 583h-173q-8 6 -14 12l41 5h132z
M234 550h-132l-15 9q-22 5 -40 13q-2 0 -5 3h170zM405 350h-114l-18 20h115zM433 317h-113l-17 19h114zM463 283h-114l-16 19h113zM491 250h-113l-16 18h114zM519 217h-112l-15 17h113zM629 117h-134l-12 14h146v-14zM548 183h-111l-14 16h112zM577 150h-111l-13 15h111z
M629 83h-104l-12 14h116v-14zM629 50h-75l-11 13h86v-13zM629 29q0 -2 -1 -6v-6h-44q-4 3 -10 11l-1 1h56zM174 450h-46v23h46v-23zM613 -6q-1 1 -3 1h2zM174 417h-46v22h46v-22zM174 383h-46v21h46v-21zM174 350h-46v20h46v-20zM174 317h-46v19h46v-19zM174 283h-46v19h46
v-19zM174 250h-46v18h46v-18zM174 217h-46v17h46v-17zM174 183h-46v16h46v-16zM174 150h-46v15h46v-15zM177 117h-49v14h47q0 -6 2 -14zM190 83h-63q0 2 1 7v7h55q2 -5 7 -14zM212 50h-93q1 4 4 13h79q6 -9 10 -13zM242 17h-138l6 12h120z" />
    <glyph glyph-name="Ograve" unicode="&#xd2;" horiz-adv-x="721" 
d="M370 784h-111l4 14h101zM384 750h-94q-15 11 -34 22l2 8h113zM648 483h-105q-6 7 -18 20q-3 1 -4 4h107zM399 717h-72q-16 15 -32 29h91q4 -10 13 -29zM619 517h-109q-18 15 -34 24h116q1 -2 5 -4q12 -10 22 -20zM418 684h-65q-8 9 -22 28h71zM669 450h-104q-5 8 -15 23
h105q5 -8 14 -23zM443 650h-79l2 6q0 9 -7 19q-2 2 -2 3h65q7 -9 21 -28zM684 417h-104l-4 11l-5 11h103q3 -5 10 -22zM694 383h-103l-6 21h103q4 -9 6 -21zM700 350h-103q-1 7 -3 20h103q1 -7 3 -20zM703 317h-103q0 6 -2 19h104q1 -5 1 -10v-9zM524 583h-326q32 14 83 26
h159q51 -11 84 -26zM704 300v-9q-1 -5 -1 -8h-104q0 3 1 8v9v2h104v-2zM580 550h-122q-45 20 -97 20q-58 0 -104 -20h-115q18 12 40 25h357q24 -13 41 -25zM703 268l-3 -18h-103q0 3 1 9v9h105zM698 234q-1 -6 -3 -17h-104q1 6 3 17h104zM690 199q-2 -5 -6 -16h-103
q3 6 5 16h104zM676 165q-2 -5 -7 -15h-103q2 5 7 15h103zM658 131q-4 -8 -10 -14h-103q6 6 10 14h103zM240 541q-16 -9 -34 -24h-104q5 5 11 10l12 10q1 1 2.5 2t2.5 2h110zM632 97q-7 -10 -13 -14h-105q8 6 14 14h104zM196 507q-9 -9 -14 -16q-2 -3 -7 -8h-102l20 24h103z
M597 63q-5 -4 -9 -7l-8 -6h-118q15 6 25 13h110zM168 473q-8 -12 -13 -23h-103q4 8 14 23h102zM149 439l-4 -11l-5 -11h-102q2 8 9 22h102zM136 404l-6 -21h-103q2 12 6 21h103zM128 370q-1 -7 -3 -20h-104q1 7 3 20h104zM123 336q0 -3 -1 -10v-9h-104q1 5 1 9v10h104z
M546 29q-7 -5 -23 -12h-326q-5 2 -22 12h371zM122 283h-104v19h104v-19zM459 -5q-49 -11 -98 -11q-50 0 -99 11h197zM125 250h-104q-2 10 -2 18h104q0 -6 2 -18zM131 217h-104q-1 6 -3 17h103q1 -6 4 -17zM141 183h-103q-2 5 -6 16h103q2 -5 6 -16zM155 150h-102q-3 5 -8 15
h103q2 -5 7 -15zM260 50h-119l-8 6q-4 3 -8 7h110q10 -7 25 -13zM176 117h-102q-6 6 -10 14h102q3 -5 10 -14zM208 83h-105q-6 4 -13 14h103l8 -7q3 -4 7 -7z" />
    <glyph glyph-name="Oacute" unicode="&#xd3;" horiz-adv-x="721" 
d="M445 784h-111l6 14h101zM448 772q-23 -12 -37 -22h-92l13 30h114zM405 746q-10 -8 -15.5 -13t-14.5 -16h-71q5 10 14 29h87zM648 483h-105q-6 7 -18 20q-3 1 -4 4h107zM619 517h-109q-18 15 -34 24h116q1 -2 5 -4q12 -10 22 -20zM669 450h-104q-5 8 -15 23h105
q5 -8 14 -23zM684 417h-104l-4 11l-5 11h103q3 -5 10 -22zM694 383h-103l-6 21h103q4 -9 6 -21zM370 712q-10 -12 -20 -28h-65q8 12 16 28h69zM700 350h-103q-1 7 -3 20h103q1 -7 3 -20zM703 317h-103q0 6 -2 19h104q1 -5 1 -10v-9zM347 678q-2 -2 -2 -3q-8 -13 -8 -19l2 -6
h-78q7 9 20 28h66zM524 583h-326q32 14 83 26h159q51 -11 84 -26zM704 300v-9q-1 -5 -1 -8h-104q0 3 1 8v9v2h104v-2zM580 550h-122q-45 20 -97 20q-58 0 -104 -20h-115q18 12 40 25h357q24 -13 41 -25zM703 268l-3 -18h-103q0 3 1 9v9h105zM698 234q-1 -6 -3 -17h-104
q1 6 3 17h104zM690 199q-2 -5 -6 -16h-103q3 6 5 16h104zM676 165q-2 -5 -7 -15h-103q2 5 7 15h103zM658 131q-4 -8 -10 -14h-103q6 6 10 14h103zM240 541q-16 -9 -34 -24h-104q5 5 11 10l12 10q1 1 2.5 2t2.5 2h110zM632 97q-7 -10 -13 -14h-105q8 6 14 14h104zM196 507
q-9 -9 -14 -16q-2 -3 -7 -8h-102l20 24h103zM597 63q-5 -4 -9 -7l-8 -6h-118q15 6 25 13h110zM168 473q-8 -12 -13 -23h-103q4 8 14 23h102zM149 439l-4 -11l-5 -11h-102q2 8 9 22h102zM136 404l-6 -21h-103q2 12 6 21h103zM128 370q-1 -7 -3 -20h-104q1 7 3 20h104z
M123 336q0 -3 -1 -10v-9h-104q1 5 1 9v10h104zM546 29q-7 -5 -23 -12h-326q-5 2 -22 12h371zM122 283h-104v19h104v-19zM459 -5q-49 -11 -98 -11q-50 0 -99 11h197zM125 250h-104q-2 10 -2 18h104q0 -6 2 -18zM131 217h-104q-1 6 -3 17h103q1 -6 4 -17zM141 183h-103
q-2 5 -6 16h103q2 -5 6 -16zM155 150h-102q-3 5 -8 15h103q2 -5 7 -15zM260 50h-119l-8 6q-4 3 -8 7h110q10 -7 25 -13zM176 117h-102q-6 6 -10 14h102q3 -5 10 -14zM208 83h-105q-6 4 -13 14h103l8 -7q3 -4 7 -7z" />
    <glyph glyph-name="Ocircumflex" unicode="&#xd4;" horiz-adv-x="721" 
d="M368 784h-15q3 3 7 9q3 -3 8 -9zM399 750h-75q9 10 26 30h21q9 -10 28 -30zM460 684h-57q-5 5 -10 12l-13 16h55q9 -9 25 -28zM487 650h-79l1 1q3 1 10 13q-3 5 -11 14h57q8 -9 22 -28zM431 717h-55q-6 6 -12 15q-4 -5 -7 -8l-7 -7h-55q8 9 25 29h83q5 -6 12 -12l14 -15
q0 -2 2 -2zM494 640h-98l4 4h91q1 -2 3 -4zM648 483h-105q-6 7 -18 20q-3 1 -4 4h107zM619 517h-109q-18 15 -34 24h116q1 -2 5 -4q12 -10 22 -20zM669 450h-104q-5 8 -15 23h105q5 -8 14 -23zM684 417h-104l-4 11l-5 11h103q3 -5 10 -22zM694 383h-103l-6 21h103
q4 -9 6 -21zM700 350h-103q-1 7 -3 20h103q1 -7 3 -20zM346 712q-13 -16 -20 -28h-65l14 12q16 14 16 16h55zM703 317h-103q0 6 -2 19h104q1 -5 1 -10v-9zM524 583h-326q32 14 83 26h159q51 -11 84 -26zM704 300v-9q-1 -5 -1 -8h-104q0 3 1 8v9v2h104v-2zM326 650h-105
q8 6 33 28h70q-1 -3 -1 -7q0 -9 1 -12l2 -7v-2zM580 550h-122q-45 20 -97 20q-58 0 -104 -20h-115q18 12 40 25h357q24 -13 41 -25zM703 268l-3 -18h-103q0 3 1 9v9h105zM327 637l-9 3h-109q1 1 2.5 2t2.5 2h112zM698 234q-1 -6 -3 -17h-104q1 6 3 17h104zM690 199
q-2 -5 -6 -16h-103q3 6 5 16h104zM676 165q-2 -5 -7 -15h-103q2 5 7 15h103zM658 131q-4 -8 -10 -14h-103q6 6 10 14h103zM240 541q-16 -9 -34 -24h-104q5 5 11 10l12 10q1 1 2.5 2t2.5 2h110zM632 97q-7 -10 -13 -14h-105q8 6 14 14h104zM196 507q-9 -9 -14 -16
q-2 -3 -7 -8h-102l20 24h103zM597 63q-5 -4 -9 -7l-8 -6h-118q15 6 25 13h110zM168 473q-8 -12 -13 -23h-103q4 8 14 23h102zM149 439l-4 -11l-5 -11h-102q2 8 9 22h102zM136 404l-6 -21h-103q2 12 6 21h103zM128 370q-1 -7 -3 -20h-104q1 7 3 20h104zM123 336q0 -3 -1 -10
v-9h-104q1 5 1 9v10h104zM546 29q-7 -5 -23 -12h-326q-5 2 -22 12h371zM122 283h-104v19h104v-19zM459 -5q-49 -11 -98 -11q-50 0 -99 11h197zM125 250h-104q-2 10 -2 18h104q0 -6 2 -18zM131 217h-104q-1 6 -3 17h103q1 -6 4 -17zM141 183h-103q-2 5 -6 16h103q2 -5 6 -16z
M155 150h-102q-3 5 -8 15h103q2 -5 7 -15zM260 50h-119l-8 6q-4 3 -8 7h110q10 -7 25 -13zM176 117h-102q-6 6 -10 14h102q3 -5 10 -14zM208 83h-105q-6 4 -13 14h103l8 -7q3 -4 7 -7z" />
    <glyph glyph-name="Otilde" unicode="&#xd5;" horiz-adv-x="721" 
d="M523 729q-4 -4 -11 -12h-30q14 4 41 12zM463 678q-34 -19 -68 -11l-32 8l-6 3h106zM648 483h-105q-6 7 -18 20q-3 1 -4 4h107zM619 517h-109q-18 15 -34 24h116q1 -2 5 -4q12 -10 22 -20zM669 450h-104q-5 8 -15 23h105q5 -8 14 -23zM684 417h-104l-4 11l-5 11h103
q3 -5 10 -22zM507 712q-19 -19 -34 -28h-129q-19 9 -47 17q-12 2 -26 2q-13 0 -27 -2l-64 -15q16 16 28 26h208q14 -2 24 -2q10 -1 18 0l6 2h43zM394 717h-180q7 6 20 15q19 10 33 14h49l30 -8zM694 383h-103l-6 21h103q4 -9 6 -21zM700 350h-103q-1 7 -3 20h103q1 -7 3 -20
zM703 317h-103q0 6 -2 19h104q1 -5 1 -10v-9zM524 583h-326q32 14 83 26h159q51 -11 84 -26zM704 300v-9q-1 -5 -1 -8h-104q0 3 1 8v9v2h104v-2zM580 550h-122q-45 20 -97 20q-58 0 -104 -20h-115q18 12 40 25h357q24 -13 41 -25zM703 268l-3 -18h-103q0 3 1 9v9h105z
M698 234q-1 -6 -3 -17h-104q1 6 3 17h104zM690 199q-2 -5 -6 -16h-103q3 6 5 16h104zM676 165q-2 -5 -7 -15h-103q2 5 7 15h103zM658 131q-4 -8 -10 -14h-103q6 6 10 14h103zM240 541q-16 -9 -34 -24h-104q5 5 11 10l12 10q1 1 2.5 2t2.5 2h110zM632 97q-7 -10 -13 -14h-105
q8 6 14 14h104zM196 507q-9 -9 -14 -16q-2 -3 -7 -8h-102l20 24h103zM597 63q-5 -4 -9 -7l-8 -6h-118q15 6 25 13h110zM168 473q-8 -12 -13 -23h-103q4 8 14 23h102zM149 439l-4 -11l-5 -11h-102q2 8 9 22h102zM136 404l-6 -21h-103q2 12 6 21h103zM128 370q-1 -7 -3 -20
h-104q1 7 3 20h104zM123 336q0 -3 -1 -10v-9h-104q1 5 1 9v10h104zM546 29q-7 -5 -23 -12h-326q-5 2 -22 12h371zM122 283h-104v19h104v-19zM459 -5q-49 -11 -98 -11q-50 0 -99 11h197zM125 250h-104q-2 10 -2 18h104q0 -6 2 -18zM131 217h-104q-1 6 -3 17h103q1 -6 4 -17z
M141 183h-103q-2 5 -6 16h103q2 -5 6 -16zM155 150h-102q-3 5 -8 15h103q2 -5 7 -15zM260 50h-119l-8 6q-4 3 -8 7h110q10 -7 25 -13zM176 117h-102q-6 6 -10 14h102q3 -5 10 -14zM208 83h-105q-6 4 -13 14h103l8 -7q3 -4 7 -7z" />
    <glyph glyph-name="Odieresis" unicode="&#xd6;" horiz-adv-x="721" 
d="M468 717h-93q12 21 46 22q36 2 47 -22zM473 702q0 -8 -4 -18h-93q-4 8 -4 17q0 7 1 11h97q1 -3 3 -10zM465 678q-11 -14 -42 -15t-42 15h84zM648 483h-105q-6 7 -18 20q-3 1 -4 4h107zM619 517h-109q-18 15 -34 24h116q1 -2 5 -4q12 -10 22 -20zM669 450h-104
q-5 8 -15 23h105q5 -8 14 -23zM684 417h-104l-4 11l-5 11h103q3 -5 10 -22zM694 383h-103l-6 21h103q4 -9 6 -21zM327 717h-93q12 21 46 22q36 2 47 -22zM700 350h-103q-1 7 -3 20h103q1 -7 3 -20zM332 702q0 -8 -4 -18h-93q-4 8 -4 17q0 7 1 11h97q1 -3 3 -10zM703 317
h-103q0 6 -2 19h104q1 -5 1 -10v-9zM524 583h-326q32 14 83 26h159q51 -11 84 -26zM324 678q-11 -14 -42 -15t-42 15h84zM704 300v-9q-1 -5 -1 -8h-104q0 3 1 8v9v2h104v-2zM580 550h-122q-45 20 -97 20q-58 0 -104 -20h-115q18 12 40 25h357q24 -13 41 -25zM703 268l-3 -18
h-103q0 3 1 9v9h105zM698 234q-1 -6 -3 -17h-104q1 6 3 17h104zM690 199q-2 -5 -6 -16h-103q3 6 5 16h104zM676 165q-2 -5 -7 -15h-103q2 5 7 15h103zM658 131q-4 -8 -10 -14h-103q6 6 10 14h103zM240 541q-16 -9 -34 -24h-104q5 5 11 10l12 10q1 1 2.5 2t2.5 2h110zM632 97
q-7 -10 -13 -14h-105q8 6 14 14h104zM196 507q-9 -9 -14 -16q-2 -3 -7 -8h-102l20 24h103zM597 63q-5 -4 -9 -7l-8 -6h-118q15 6 25 13h110zM168 473q-8 -12 -13 -23h-103q4 8 14 23h102zM149 439l-4 -11l-5 -11h-102q2 8 9 22h102zM136 404l-6 -21h-103q2 12 6 21h103z
M128 370q-1 -7 -3 -20h-104q1 7 3 20h104zM123 336q0 -3 -1 -10v-9h-104q1 5 1 9v10h104zM546 29q-7 -5 -23 -12h-326q-5 2 -22 12h371zM122 283h-104v19h104v-19zM459 -5q-49 -11 -98 -11q-50 0 -99 11h197zM125 250h-104q-2 10 -2 18h104q0 -6 2 -18zM131 217h-104
q-1 6 -3 17h103q1 -6 4 -17zM141 183h-103q-2 5 -6 16h103q2 -5 6 -16zM155 150h-102q-3 5 -8 15h103q2 -5 7 -15zM260 50h-119l-8 6q-4 3 -8 7h110q10 -7 25 -13zM176 117h-102q-6 6 -10 14h102q3 -5 10 -14zM208 83h-105q-6 4 -13 14h103l8 -7q3 -4 7 -7z" />
    <glyph glyph-name="multiply" unicode="&#xd7;" horiz-adv-x="263" 
d="M227 450h-8l8 8v-8zM227 439l-1 -22h-40l22 22h19zM226 383h-73l20 21h53v-21zM226 369l-20 -19h-155l-20 20h79l15 -15l15 15h86v-1zM63 417h-37l6 22h9zM192 336l-19 -19h-89l-19 19h127zM97 383h-79l5 21h53zM230 250h-79l-18 18h79zM246 234l-6 -17h-56l-17 17h79z
M197 283h-145l19 19h107zM234 199l-6 -16h-10l-16 16h32zM125 268l-18 -18h-80v7l11 11h87zM91 234l-17 -17h-48v17h65zM56 199l-16 -16h-15l1 16h30z" />
    <glyph glyph-name="Oslash" unicode="&#xd8;" horiz-adv-x="721" 
d="M614 678l-17 -28h-98l-11 23q1 1 4 2.5t4 2.5h118zM594 644l-16 -27h-72q1 5 4 15v1l-2 4l-5 7h91zM648 483h-105q-7 8 -22 24h109zM668 450h-103q-4 7 -13 21l-2 2h105l9 -15q1 -1 2 -4zM621 517h-162l14 24h121zM683 417h-103q-3 8 -10 22h104l5 -11zM694 383h-103
l-6 21h103zM700 350h-103q-2 12 -4 20h104q1 -7 3 -20zM391 617h-61q5 0 15 1h15h15q8 0 16 -1zM704 317h-104q0 6 -2 19h104q0 -6 2 -19zM573 609l-15 -26h-371q39 17 79 26h179q25 -5 55 -16l2 7l2 9h69zM513 507l-15 -24h-60l15 24h60zM704 292q0 -4 -1 -9h-104q1 5 1 9
v10h104v-10zM583 550h-125l-9 5q-29 16 -89 16q-58 0 -104 -21h-123q16 12 39 25h381l-3 -5q11 -7 33 -20zM492 473l-13 -23h-60l13 23h60zM703 268l-3 -18h-104q2 10 2 18h105zM698 234q-1 -6 -4 -17h-104l2 8q1 4 2 9h104zM472 439l-13 -22h-60l13 22h60zM689 199
q-1 -7 -5 -16h-105q2 5 6 16h104zM452 404l-13 -21h-60l13 21h60zM676 165q-2 -5 -7 -15h-107q3 5 8 15h106zM432 370l-12 -20h-60l12 20h60zM658 131q-4 -8 -10 -14h-108q4 5 11 14h107zM411 336l-11 -19h-60l11 19h60zM240 541q-16 -9 -34 -24h-110q3 3 10 9.5t9.5 8.5
t6.5 6h118zM632 97q-3 -4 -6 -7l-7 -7h-111q4 3 8 7l7 7h109zM391 302l-12 -19h-60l12 19h60zM196 507q-9 -9 -14 -16q-2 -3 -7 -8h-106q8 12 18 24h109zM370 268l-11 -18h-60l11 18h60zM595 62q-5 -5 -15 -12h-125q15 6 25 13zM168 473q-8 -12 -13 -23h-105q2 4 6 11.5
t6 11.5h106zM350 234l-10 -17h-60l10 17h60zM149 439l-4 -11l-5 -11h-104l5 11l4 11h104zM329 199l-10 -16h-60l10 16h60zM136 404l-6 -21h-104l6 21h104zM128 370q-1 -7 -3 -20h-104q1 7 3 20h104zM308 165l-9 -15h-60l9 15h60zM123 336q0 -3 -1 -10v-9h-104q0 3 1 10v9
h104zM288 131l-9 -14h-60l9 14h60zM546 29q-8 -5 -24 -12l-363 1l6 11h381zM122 283h-104v19h104v-19zM458 -5q-47 -11 -98 -11q-48 0 -95 11h193zM125 250h-104q0 6 -2 18h104q0 -6 2 -18zM131 217h-104l-2 8q-1 4 -2 9h104q1 -6 4 -17zM141 183h-104q-3 6 -5 16h104
q2 -10 5 -16zM267 97l-8 -14h-157l-6 7q-4 3 -7 7h108q2 -2 7 -6l3 6h60zM156 150h-104q-3 5 -8 15h105q2 -5 7 -15zM268 50h-126q-10 6 -17 13h122l-1 -2zM179 117h-107q-3 4 -9 14h105q3 -5 11 -14zM210 -5q-1 -4 -5 -12h-72l9 12h68z" />
    <glyph glyph-name="Ugrave" unicode="&#xd9;" horiz-adv-x="613" 
d="M324 784h-110l3 14h101zM552 584l-1 -1h-166v8l4 7q6 2 12 2h126q10 0 25 -16zM339 750h-94q-15 11 -34 22l2 8h113zM354 717h-73q-7 8 -15 15l-16 14h91q4 -10 13 -29zM373 684h-66q-7 9 -21 28h71q8 -16 16 -28zM542 575l-25 -25h-107q-10 12 -23 25h155zM397 650h-79
q3 4 3 6q0 8 -8 19q-2 2 -2 3h66q10 -16 20 -28zM507 541l-10 -10q-11 -11 -12 -14h-51l-8 12q-4 6 -9 12h90zM510 483h-58l-12 24h51q6 -8 19 -24zM537 450h-71q-3 8 -9 23h61q6 -8 19 -23zM559 417h-83q-2 7 -6 22h75q8 -12 14 -22zM576 383h-93q-1 7 -4 21h87
q5 -8 10 -21zM588 350h-100q0 5 -1 10l-2 10h96q2 -7 7 -20zM594 317h-104v9q0 5 -1 10h102q1 -6 3 -19zM596 283h-105v19h104q0 -2 1 -6v-5v-8zM595 268q0 -3 -1 -9v-9h-105q0 3 1 9v9h105zM592 234q-1 -6 -3 -17h-104q2 10 2 17h105zM229 583l-167 1q13 16 24 16h126
q6 0 12 -2l5 -7v-8zM585 199q-1 -5 -4 -16h-104q1 5 4 16h104zM227 575q-13 -13 -23 -25h-107l-26 25h156zM196 541l-16 -24h-52q-2 4 -11 14l-11 10h90zM575 165l-6 -15h-105l6 15h105zM173 507l-12 -24h-59q7 8 19 24h52zM560 131q-4 -8 -8 -14h-108q3 4 9 14h107z
M156 473q-3 -8 -9 -23h-71q6 8 18 23h62zM539 97q-3 -5 -10 -14h-111q4 5 11 14h110zM143 439q-2 -7 -6 -22h-84q6 10 14 22h76zM511 63q-4 -6 -14 -13h-115q9 4 15 10l3 3h111zM133 404l-2 -10l-2 -11h-92q5 13 10 21h86zM127 370q-2 -10 -2 -20h-99q2 7 6 20h95zM123 326
q0 -4 -1 -9h-103q1 6 3 19h101v-10zM122 283h-104v19h104v-19zM124 250h-104q0 6 -2 18h104q0 -6 2 -18zM470 29q-6 -5 -20 -12h-287q-12 5 -20 12h327zM128 217h-104q-1 6 -3 17h104q1 -6 3 -17zM387 -5q-29 -6 -61 -6h-10q-9 1 -19 0h-9q-32 0 -62 6h161zM136 183h-104
q-1 5 -4 16h104q2 -10 4 -16zM149 150h-105l-6 15h104q2 -5 7 -15zM168 117h-107q-5 7 -8 14h106q1 -2 9 -14zM196 83h-112q-3 3 -11 14h111q6 -8 12 -14zM233 50h-118q-4 3 -7 6l-7 7h113q7 -7 19 -13z" />
    <glyph glyph-name="Uacute" unicode="&#xda;" horiz-adv-x="613" 
d="M402 784h-110l6 14h101zM405 772q-12 -6 -37 -22h-91l13 30h113zM552 584l-1 -1h-166v8l4 7q6 2 12 2h126q10 0 25 -16zM363 746q-6 -5 -17 -14q-5 -5 -13 -15h-72q5 10 14 29h88zM542 575l-25 -25h-107q-10 12 -23 25h155zM507 541l-10 -10q-11 -11 -12 -14h-51l-8 12
q-4 6 -9 12h90zM328 712q-8 -10 -19 -28h-66q6 9 16 28h69zM510 483h-58l-12 24h51q6 -8 19 -24zM537 450h-71q-3 8 -9 23h61q6 -8 19 -23zM559 417h-83q-2 7 -6 22h75q8 -12 14 -22zM305 678q-2 -2 -2 -3q-8 -13 -8 -19q0 -3 2 -6h-78q7 9 20 28h66zM576 383h-93
q-1 7 -4 21h87q5 -8 10 -21zM588 350h-100q0 5 -1 10l-2 10h96q2 -7 7 -20zM594 317h-104v9q0 5 -1 10h102q1 -6 3 -19zM596 283h-105v19h104q0 -2 1 -6v-5v-8zM595 268q0 -3 -1 -9v-9h-105q0 3 1 9v9h105zM592 234q-1 -6 -3 -17h-104q2 10 2 17h105zM229 583l-167 1
q13 16 24 16h126q6 0 12 -2l5 -7v-8zM585 199q-1 -5 -4 -16h-104q1 5 4 16h104zM227 575q-13 -13 -23 -25h-107l-26 25h156zM196 541l-16 -24h-52q-2 4 -11 14l-11 10h90zM575 165l-6 -15h-105l6 15h105zM173 507l-12 -24h-59q7 8 19 24h52zM560 131q-4 -8 -8 -14h-108
q3 4 9 14h107zM156 473q-3 -8 -9 -23h-71q6 8 18 23h62zM539 97q-3 -5 -10 -14h-111q4 5 11 14h110zM143 439q-2 -7 -6 -22h-84q6 10 14 22h76zM511 63q-4 -6 -14 -13h-115q9 4 15 10l3 3h111zM133 404l-2 -10l-2 -11h-92q5 13 10 21h86zM127 370q-2 -10 -2 -20h-99
q2 7 6 20h95zM123 326q0 -4 -1 -9h-103q1 6 3 19h101v-10zM122 283h-104v19h104v-19zM124 250h-104q0 6 -2 18h104q0 -6 2 -18zM470 29q-6 -5 -20 -12h-287q-12 5 -20 12h327zM128 217h-104q-1 6 -3 17h104q1 -6 3 -17zM387 -5q-29 -6 -61 -6h-10q-9 1 -19 0h-9q-32 0 -62 6
h161zM136 183h-104q-1 5 -4 16h104q2 -10 4 -16zM149 150h-105l-6 15h104q2 -5 7 -15zM168 117h-107q-5 7 -8 14h106q1 -2 9 -14zM196 83h-112q-3 3 -11 14h111q6 -8 12 -14zM233 50h-118q-4 3 -7 6l-7 7h113q7 -7 19 -13z" />
    <glyph glyph-name="Ucircumflex" unicode="&#xdb;" horiz-adv-x="613" 
d="M326 784h-15q3 3 7 9q1 -2 8 -9zM358 750h-76q9 10 26 30h21q10 -10 29 -30zM418 684h-57q-5 5 -10 12l-13 16h55q8 -9 25 -28zM445 650h-79l1 1q3 1 10 13q-4 3 -11 14h57q8 -9 22 -28zM552 584l-1 -1h-166v8l4 7q6 2 12 2h126q10 0 25 -16zM389 717h-55q-6 6 -12 15
q-4 -5 -7 -8l-7 -7h-55q8 9 25 29h84q10 -12 25 -27q0 -2 2 -2zM452 640h-98l4 4h91q1 -2 3 -4zM542 575l-25 -25h-107q-10 12 -23 25h155zM507 541l-10 -10q-11 -11 -12 -14h-51l-8 12q-4 6 -9 12h90zM510 483h-58l-12 24h51q6 -8 19 -24zM303 712q-13 -16 -20 -28h-64
l14 12q16 14 16 16h54zM537 450h-71q-3 8 -9 23h61q6 -8 19 -23zM559 417h-83q-2 7 -6 22h75q8 -12 14 -22zM576 383h-93q-1 7 -4 21h87q5 -8 10 -21zM588 350h-100q0 5 -1 10l-2 10h96q2 -7 7 -20zM283 650h-104q8 6 33 28h69q-1 -3 -1 -7q0 -2 2 -12l1 -7v-2zM594 317
h-104v9q0 5 -1 10h102q1 -6 3 -19zM285 637l-9 3h-109q1 1 2.5 2t2.5 2h112zM596 283h-105v19h104q0 -2 1 -6v-5v-8zM595 268q0 -3 -1 -9v-9h-105q0 3 1 9v9h105zM592 234q-1 -6 -3 -17h-104q2 10 2 17h105zM229 583l-167 1q13 16 24 16h126q6 0 12 -2l5 -7v-8zM585 199
q-1 -5 -4 -16h-104q1 5 4 16h104zM227 575q-13 -13 -23 -25h-107l-26 25h156zM196 541l-16 -24h-52q-2 4 -11 14l-11 10h90zM575 165l-6 -15h-105l6 15h105zM173 507l-12 -24h-59q7 8 19 24h52zM560 131q-4 -8 -8 -14h-108q3 4 9 14h107zM156 473q-3 -8 -9 -23h-71
q6 8 18 23h62zM539 97q-3 -5 -10 -14h-111q4 5 11 14h110zM143 439q-2 -7 -6 -22h-84q6 10 14 22h76zM511 63q-4 -6 -14 -13h-115q9 4 15 10l3 3h111zM133 404l-2 -10l-2 -11h-92q5 13 10 21h86zM127 370q-2 -10 -2 -20h-99q2 7 6 20h95zM123 326q0 -4 -1 -9h-103q1 6 3 19
h101v-10zM122 283h-104v19h104v-19zM124 250h-104q0 6 -2 18h104q0 -6 2 -18zM470 29q-6 -5 -20 -12h-287q-12 5 -20 12h327zM128 217h-104q-1 6 -3 17h104q1 -6 3 -17zM387 -5q-29 -6 -61 -6h-10q-9 1 -19 0h-9q-32 0 -62 6h161zM136 183h-104q-1 5 -4 16h104q2 -10 4 -16z
M149 150h-105l-6 15h104q2 -5 7 -15zM168 117h-107q-5 7 -8 14h106q1 -2 9 -14zM196 83h-112q-3 3 -11 14h111q6 -8 12 -14zM233 50h-118q-4 3 -7 6l-7 7h113q7 -7 19 -13z" />
    <glyph glyph-name="Udieresis" unicode="&#xdc;" horiz-adv-x="613" 
d="M426 717h-93q12 21 46 22q36 2 47 -22zM431 702q0 -8 -4 -18h-93q-4 8 -4 17q0 7 1 11h97q1 -3 3 -10zM552 584l-1 -1h-166v8l4 7q6 2 12 2h126q10 0 25 -16zM423 678q-11 -14 -42 -15t-42 15h84zM542 575l-25 -25h-107q-10 12 -23 25h155zM507 541l-10 -10
q-11 -11 -12 -14h-51l-8 12q-4 6 -9 12h90zM510 483h-58l-12 24h51q6 -8 19 -24zM285 717h-93q12 21 46 22q36 2 47 -22zM537 450h-71q-3 8 -9 23h61q6 -8 19 -23zM559 417h-83q-2 7 -6 22h75q8 -12 14 -22zM290 702q0 -8 -4 -18h-93q-4 8 -4 17q0 7 1 11h97q1 -3 3 -10z
M576 383h-93q-1 7 -4 21h87q5 -8 10 -21zM282 678q-11 -14 -42 -15t-42 15h84zM588 350h-100q0 5 -1 10l-2 10h96q2 -7 7 -20zM594 317h-104v9q0 5 -1 10h102q1 -6 3 -19zM596 283h-105v19h104q0 -2 1 -6v-5v-8zM595 268q0 -3 -1 -9v-9h-105q0 3 1 9v9h105zM592 234
q-1 -6 -3 -17h-104q2 10 2 17h105zM229 583l-167 1q13 16 24 16h126q6 0 12 -2l5 -7v-8zM585 199q-1 -5 -4 -16h-104q1 5 4 16h104zM227 575q-13 -13 -23 -25h-107l-26 25h156zM196 541l-16 -24h-52q-2 4 -11 14l-11 10h90zM575 165l-6 -15h-105l6 15h105zM173 507l-12 -24
h-59q7 8 19 24h52zM560 131q-4 -8 -8 -14h-108q3 4 9 14h107zM156 473q-3 -8 -9 -23h-71q6 8 18 23h62zM539 97q-3 -5 -10 -14h-111q4 5 11 14h110zM143 439q-2 -7 -6 -22h-84q6 10 14 22h76zM511 63q-4 -6 -14 -13h-115q9 4 15 10l3 3h111zM133 404l-2 -10l-2 -11h-92
q5 13 10 21h86zM127 370q-2 -10 -2 -20h-99q2 7 6 20h95zM123 326q0 -4 -1 -9h-103q1 6 3 19h101v-10zM122 283h-104v19h104v-19zM124 250h-104q0 6 -2 18h104q0 -6 2 -18zM470 29q-6 -5 -20 -12h-287q-12 5 -20 12h327zM128 217h-104q-1 6 -3 17h104q1 -6 3 -17zM387 -5
q-29 -6 -61 -6h-10q-9 1 -19 0h-9q-32 0 -62 6h161zM136 183h-104q-1 5 -4 16h104q2 -10 4 -16zM149 150h-105l-6 15h104q2 -5 7 -15zM168 117h-107q-5 7 -8 14h106q1 -2 9 -14zM196 83h-112q-3 3 -11 14h111q6 -8 12 -14zM233 50h-118q-4 3 -7 6l-7 7h113q7 -7 19 -13z" />
    <glyph glyph-name="Yacute" unicode="&#xdd;" horiz-adv-x="639" 
d="M441 717h-70q6 4 9 7q13 10 26 14q23 0 35 -21zM622 599q-6 -7 -11 -16h-155q-4 3 -13 9l34 7h145zM605 575q-8 -15 -17 -25h-96q-7 8 -26 25h139zM446 700q-1 -10 -6 -16h-105q11 9 31 28h78q2 -8 2 -12zM582 541q-5 -8 -17 -24h-64q2 4 2 7q-2 8 -6 17h85zM434 678
q-22 -16 -44 -28h-86q8 10 25 28h105zM559 507l-16 -24h-55q2 4 10 24h61zM536 473q-5 -8 -15 -23h-52q4 8 13 23h54zM380 644q-31 -18 -59 -27h-38q5 12 16 27h81zM514 439q-5 -8 -15 -22h-51q7 10 14 22h52zM294 609l-6 -2q-3 -1 -7 -2v4h13zM491 404q-3 -3 -7 -10.5
t-7 -10.5h-52l4 5q4 5 11 16h51zM469 370q-4 -5 -7 -10l-6 -10h-53l13 20h53zM447 336q-4 -6 -12 -19h-55l13 19h54zM230 587q-1 -1 -2.5 -2t-2.5 -2h-193q-5 7 -14 20h191q5 0 21 -16zM216 575q-14 -14 -18 -25h-143q-6 8 -17 25h178zM425 302q-4 -6 -12 -19h-56l13 19h55z
M200 517h-121q-8 9 -18 24h136v-2q0 -10 3 -22zM211 483h-110l-3 7q-3 2 -13 17h118q3 -8 8 -24zM404 268l-12 -18h-58l12 18h58zM225 450h-106l-12 23h108q4 -8 10 -23zM240 417h-104l-11 22h105q4 -7 10 -22zM257 383h-103l-11 21h104q4 -7 10 -21zM275 350h-103l-11 20
h103q4 -7 11 -20zM292 317h-103l-10 19h103q7 -12 10 -19zM311 283h-104l-5 9l-5 10h104q4 -6 10 -19zM383 234q-4 -5 -10 -16l-1 -1h-130l-9 17h150zM330 250h-106l-9 18h105q4 -6 10 -18zM361 199l-10 -16h-91l-9 16h110zM340 165l-10 -15h-59l4 6l-5 9h70zM318 131
l-8 -14h-60l9 14h59zM297 97l-9 -14h-60l9 14h60zM276 63l-8 -13h-60l8 13h60zM255 29l-8 -12h-60l8 12h60zM234 -5l-8 -12h-60l7 12h61zM212 -40l-6 -10h-61l6 10h61zM191 -74q-4 -6 -5 -9h-62l6 9h61zM215 -117h-112l5 9h86q1 -1 3.5 -2.5t7.5 -3.5z" />
    <glyph glyph-name="Thorn" unicode="&#xde;" horiz-adv-x="508" 
d="M463 383h-85q-10 13 -19 21h88q5 -7 16 -21zM480 350h-84q-4 10 -10 20h85q7 -12 9 -20zM489 317h-85l-4 19h85zM491 283h-85v10q0 4 -1 9h85q1 -5 1 -9v-10zM490 268q0 -8 -2 -18h-85q2 10 2 18h85zM375 450h-286v23h89v-12h122q39 0 75 -11zM434 417h-98q-17 6 -36 6
h-122v-6h-89v22h312q14 -8 33 -22zM178 550h-107q8 4 18 8q35 10 65 17h24v-25zM485 234q-1 -8 -5 -17h-85q4 9 5 17h85zM178 517h-150q9 13 27 24h123v-24zM178 483h-90q-3 18 -19 24h109v-24zM472 199q-5 -9 -10 -16h-85q3 4 8 12q0 2 2 4h85zM448 165l-15 -15h-103
q15 4 29 15h89zM34 507q-5 -1 -16 -4l2 4h14zM178 383h-89v21h89v-21zM178 350h-89v20h89v-20zM178 317h-89v19h89v-19zM178 283h-89v19h89v-19zM178 250h-89v18h89v-18zM405 131q-18 -10 -33 -14h-283v14h316zM178 217h-89v17h89v-17zM178 183h-89v16h89v-16zM178 150h-89
v15h89v-15zM178 83h-89v14h89v-14zM179 50h-93l1 13h91q0 -10 1 -13zM193 17h-120q3 4 7 12h106q4 -8 7 -12z" />
    <glyph glyph-name="germandbls" unicode="&#xdf;" horiz-adv-x="510" 
d="M292 617h-160q61 23 78 23q47 0 82 -23zM345 550h-111q-13 19 -32 25h130q10 -15 13 -25zM354 517h-104q-3 9 -9 22q-1 0 -1 2h109q2 -6 3 -12zM357 483h-100q-1 8 -4 24h103q0 -4 1 -11v-11v-2zM327 583h-274q16 7 49 22q6 2 10 4h190l8 -6l7 -8q4 -4 10 -12zM356 473
q-1 -8 -4 -23h-98q3 10 3 23h99zM347 439q-4 -11 -12 -22h-96q8 11 12 22h96zM174 575q-19 -6 -35 -25h-100q7 11 14 19q-12 0 -12 4q0 1 1 2h132zM326 404q-3 -4 -9 -10l-14 -11h-95l21 21h97zM133 541q-4 -6 -5.5 -10t-6.5 -14h-96q3 12 9 24h99zM288 370l-25 -20h-102v3
q14 7 29 17h98zM459 183h-126q-10 6 -24 16h137q4 -4 7 -8zM479 150h-111q-6 8 -13 15h117q2 -5 7 -15zM428 217h-145l-12 8q-6 4 -13 9h149q7 -5 21 -17zM117 507q-4 -12 -6 -24h-93q1 8 4 24h95zM490 117h-104q-1 6 -6 14h107q2 -10 3 -14zM384 250h-149q-6 4 -14 10
q-6 3 -11 8h145q2 -3 7 -4q12 -8 22 -14zM276 317h-107q-5 9 -6 19h87q3 -3 26 -19zM330 283h-137q-9 8 -16 19h122q11 -8 31 -19zM493 83h-100q0 4 -2 14h102v-14zM109 473q-1 -6 -1 -12v-11h-90q-1 4 -1 11v12h92zM490 63q0 -5 -3 -13h-99q2 8 3 13h99zM108 417h-90v22h90
v-22zM108 383h-90v21h90v-21zM478 29q-4 -8 -7 -12h-105q7 5 11 12h101zM108 350h-90v20h90v-20zM108 317h-90v19h90v-19zM108 283h-90v19h90v-19zM108 250h-90v18h90v-18zM452 -5q-5 -4 -14 -11q-1 0 -2 -1h-253l-12 12h281zM108 217h-90v17h90v-17zM244 83h-101
q-1 4 -1 14h66l36 -8v-6zM398 -40q-4 -2 -24 -10h-122q-13 3 -31 10h177zM108 183h-90v16h90v-16zM244 50h-97q0 4 -2 13h99v-13zM262 17h-104q-2 4 -5 12h98q2 -2 5 -6zM108 150h-90v15h90v-15zM108 117h-90v14h90v-14zM108 83h-90v14h90v-14zM108 50h-90v13h90v-13z
M108 17h-90v12h90v-12zM100 -5l-14 -12h-68v12h82zM60 -40l-11 -10h-31v10h42zM22 -74l-4 -4v4h4z" />
    <glyph glyph-name="agrave" unicode="&#xe0;" horiz-adv-x="390" 
d="M209 550h-115q-2 1 -2.5 1.5t-2.5 1.5l6 22h103zM223 517h-81q-12 10 -33 24h103l7 -15q2 -6 4 -9zM240 483h-68q-2 2 -19 24h74q7 -14 13 -24zM261 450h-66q-1 1 -4 5.5t-11 17.5h66q5 -8 15 -23zM281 424h-86l5 12v3h69zM326 283h-81q1 1 2.5 4.5t2.5 4.5q-8 5 -21 10
h95q2 -10 2 -18v-1zM237 350h-81q19 3 42 3q19 0 39 -3zM326 250h-125q2 0 3 1q17 7 27 17h95v-18zM317 317h-247q19 12 35 19h188q16 -8 24 -19zM326 217h-76v17h76v-17zM326 183h-76v16h76v-16zM326 150h-76v15h76v-15zM326 117h-76v14h76v-14zM236 234q-13 -11 -27 -17
h-115q5 2 37 11l23 6h82zM326 83h-88l12 9v5h76v-14zM64 302q-6 -1 -19 -5l5 5h14zM344 17h-93q-5 8 -5 12h90q4 -8 8 -12zM160 199q-26 -9 -29 -11.5t-7 -4.5h-81q4 6 16 16h101zM326 50h-297q-4 8 -5 13h109q13 -6 33 -6q17 0 34 6h126v-13zM110 165q-4 -10 -5 -15h-80
q1 7 6 15h79zM102 117h-83q0 9 1 14h82v-14zM236 29q-9 -7 -20 -12h-154q-2 1 -5 4q-6 3 -11 8h190zM111 83h-92q-1 4 -1 14h87q1 -8 6 -14z" />
    <glyph glyph-name="aacute" unicode="&#xe1;" horiz-adv-x="390" 
d="M281 553l-6 -3h-114l11 25h103zM260 541l-33 -24h-80q2 6 4 9l6 15h103zM217 507q-7 -8 -20 -24h-68q3 3 13 24h75zM190 473l-12 -18q-2 -4 -3 -5h-66q5 8 14 23h67zM326 283h-81q1 1 2.5 4.5t2.5 4.5q-8 5 -21 10h95q2 -10 2 -18v-1zM175 424h-86l12 15h69v-3zM237 350
h-81q19 3 42 3q19 0 39 -3zM326 250h-125q2 0 3 1q17 7 27 17h95v-18zM317 317h-247q19 12 35 19h188q16 -8 24 -19zM326 217h-76v17h76v-17zM326 183h-76v16h76v-16zM326 150h-76v15h76v-15zM326 117h-76v14h76v-14zM236 234q-13 -11 -27 -17h-115q5 2 37 11l23 6h82z
M326 83h-88l12 9v5h76v-14zM64 302q-6 -1 -19 -5l5 5h14zM344 17h-93q-5 8 -5 12h90q4 -8 8 -12zM160 199q-26 -9 -29 -11.5t-7 -4.5h-81q4 6 16 16h101zM326 50h-297q-4 8 -5 13h109q13 -6 33 -6q17 0 34 6h126v-13zM110 165q-4 -10 -5 -15h-80q1 7 6 15h79zM102 117h-83
q0 9 1 14h82v-14zM236 29q-9 -7 -20 -12h-154q-2 1 -5 4q-6 3 -11 8h190zM111 83h-92q-1 4 -1 14h87q1 -8 6 -14z" />
    <glyph glyph-name="acircumflex" unicode="&#xe2;" horiz-adv-x="390" 
d="M224 550h-57q7 8 20 25h14q8 -10 23 -25zM286 483h-58q-7 7 -19 24h55q8 -8 22 -24zM313 450h-63l1 1q0 1 1 2q-4 4 -16 20h58q6 -8 19 -23zM254 517h-53q-2 2 -3 4l-4 -4h-57q6 7 11 12l8 8q2 2 3 4h73q10 -10 22 -24zM328 429h-99l13 10h79q2 -4 7 -10zM184 507
q-6 -8 -19 -24h-60q5 4 9 8l9 9q1 1 3 3.5t3 3.5h55zM159 473q-3 -8 -3 -13l1 -10h-89q9 8 26 23h65zM326 283h-81q1 1 2.5 4.5t2.5 4.5q-8 5 -21 10h95q2 -10 2 -18v-1zM237 350h-81q19 3 42 3q19 0 39 -3zM161 426q-9 2 -10 3h-109q4 3 13 10h104l1 -3zM326 250h-125
q2 0 3 1q17 7 27 17h95v-18zM317 317h-247q19 12 35 19h188q16 -8 24 -19zM326 217h-76v17h76v-17zM326 183h-76v16h76v-16zM326 150h-76v15h76v-15zM326 117h-76v14h76v-14zM236 234q-13 -11 -27 -17h-115q5 2 37 11l23 6h82zM326 83h-88l12 9v5h76v-14zM64 302
q-6 -1 -19 -5l5 5h14zM344 17h-93q-5 8 -5 12h90q4 -8 8 -12zM160 199q-26 -9 -29 -11.5t-7 -4.5h-81q4 6 16 16h101zM326 50h-297q-4 8 -5 13h109q13 -6 33 -6q17 0 34 6h126v-13zM110 165q-4 -10 -5 -15h-80q1 7 6 15h79zM102 117h-83q0 9 1 14h82v-14zM236 29
q-9 -7 -20 -12h-154q-2 1 -5 4q-6 3 -11 8h190zM111 83h-92q-1 4 -1 14h87q1 -8 6 -14z" />
    <glyph glyph-name="atilde" unicode="&#xe3;" horiz-adv-x="394" 
d="M360 498q-4 -5 -7 -8l-7 -7h-36q17 5 50 15zM285 439q-27 -10 -53 -4l-16 4h69zM336 473q-11 -11 -29 -23h-121q-47 21 -77 21q-14 0 -28 -2l-63 -15l19 19h299zM236 483h-188l36 24h95l4 -1zM330 283h-83l6 9q-8 5 -21 10h96q2 -10 2 -18v-1zM241 350h-81q19 3 42 3
q19 0 39 -3zM330 250h-125q2 0 3 1q10 4 26 17h96v-18zM321 317h-248l18 10q9 5 18 9h188q16 -8 24 -19zM330 217h-77v17h77v-17zM330 183h-77v16h77v-16zM330 150h-77v15h77v-15zM330 117h-77v14h77v-14zM239 234q-13 -11 -26 -17h-116l38 11l23 6h81zM330 83h-89l12 9v5
h77v-14zM67 302q-6 -1 -19 -5l5 5h14zM347 17h-93q-4 7 -4 12h89q4 -8 8 -12zM163 199q-25 -9 -28 -11.5t-7 -4.5h-82q7 9 16 16h101zM330 50h-297q-4 7 -6 13h109q13 -6 33 -6q17 0 34 6h127v-13zM114 165q-5 -8 -6 -15h-80q1 7 6 15h80zM105 117h-83q0 9 1 14h82v-14z
M239 29q-9 -7 -20 -12h-153q-2 1 -5.5 3.5t-9.5 8.5h188zM114 83h-92q-1 4 -1 14h87q1 -8 6 -14z" />
    <glyph glyph-name="adieresis" unicode="&#xe4;" horiz-adv-x="390" 
d="M305 483h-99q1 15 14 24h71q11 -10 14 -24zM305 473q-1 -15 -13 -23h-72q-10 7 -13 23h98zM164 483h-100q1 15 15 24h71q11 -10 14 -24zM164 473q-1 -15 -13 -23h-72q-11 8 -14 23h99zM326 283h-81q1 1 2.5 4.5t2.5 4.5q-8 5 -21 10h95q2 -10 2 -18v-1zM237 350h-81
q19 3 42 3q19 0 39 -3zM326 250h-125q2 0 3 1q17 7 27 17h95v-18zM317 317h-247q19 12 35 19h188q16 -8 24 -19zM326 217h-76v17h76v-17zM326 183h-76v16h76v-16zM326 150h-76v15h76v-15zM326 117h-76v14h76v-14zM236 234q-13 -11 -27 -17h-115q5 2 37 11l23 6h82zM326 83
h-88l12 9v5h76v-14zM64 302q-6 -1 -19 -5l5 5h14zM344 17h-93q-5 8 -5 12h90q4 -8 8 -12zM160 199q-26 -9 -29 -11.5t-7 -4.5h-81q4 6 16 16h101zM326 50h-297q-4 8 -5 13h109q13 -6 33 -6q17 0 34 6h126v-13zM110 165q-4 -10 -5 -15h-80q1 7 6 15h79zM102 117h-83q0 9 1 14
h82v-14zM236 29q-9 -7 -20 -12h-154q-2 1 -5 4q-6 3 -11 8h190zM111 83h-92q-1 4 -1 14h87q1 -8 6 -14z" />
    <glyph glyph-name="aring" unicode="&#xe5;" horiz-adv-x="390" 
d="M326 283h-81q1 1 2.5 4.5t2.5 4.5q-8 5 -21 10h95q2 -10 2 -18v-1zM237 350h-81q19 3 42 3q19 0 39 -3zM326 250h-125q2 0 3 1q17 7 27 17h95v-18zM317 317h-247q19 12 35 19h188q16 -8 24 -19zM326 217h-76v17h76v-17zM326 183h-76v16h76v-16zM326 150h-76v15h76v-15z
M326 117h-76v14h76v-14zM236 234q-13 -11 -27 -17h-115q5 2 37 11l23 6h82zM326 83h-88l12 9v5h76v-14zM64 302q-6 -1 -19 -5l5 5h14zM344 17h-93q-5 8 -5 12h90q4 -8 8 -12zM160 199q-26 -9 -29 -11.5t-7 -4.5h-81q4 6 16 16h101zM326 50h-297q-4 8 -5 13h109q13 -6 33 -6
q17 0 34 6h126v-13zM110 165q-4 -10 -5 -15h-80q1 7 6 15h79zM102 117h-83q0 9 1 14h82v-14zM236 29q-9 -7 -20 -12h-154q-2 1 -5 4q-6 3 -11 8h190zM111 83h-92q-1 4 -1 14h87q1 -8 6 -14z" />
    <glyph glyph-name="ae" unicode="&#xe6;" horiz-adv-x="630" 
d="M555 283h-72q-11 13 -27 19h84q7 -9 7.5 -9t7.5 -10zM573 250h-84l11 2q-2 5 -6 16h70zM524 317h-197q17 11 40 19h121q21 -8 36 -19zM612 131q-1 -7 -5 -14h-4q3 4 9 14zM598 97q-4 -8 -8 -14h-16l14 14h10zM584 224l-39 -7h-295v17h91q-4 -10 -6 -14l72 14h173
q1 -3 4 -10zM577 63q-5 -8 -10 -13h-43q9 3 24 13h29zM396 302q-16 -6 -29 -19h-122q1 1 2.5 4.5t2.5 4.5q-8 5 -21 10h167zM237 350h-81q19 3 42 3q19 0 39 -3zM444 199l-90 -16h-104v16h194zM356 268l-7 -18h-148q2 0 3 1q17 7 27 17h125zM317 317h-247q19 12 35 19h188
q16 -6 24 -19zM339 150h-89v15h87q0 -5 2 -15zM475 -5q-20 -4 -41 -4q-20 0 -38 4h79zM348 117h-98v14h93q1 -7 5 -14zM546 29q-8 -8 -16 -12h-189q-6 4 -14 10q-3 -3 -14 -10h-63q-4 5 -4 12h300zM368 83h-130l12 9v5h108q3 -5 10 -14zM236 234q-13 -11 -27 -17h-115
q5 2 37 11l23 6h82zM64 302q-6 -1 -19 -5l5 5h14zM160 199q-26 -9 -29 -11.5t-7 -4.5h-81q4 6 16 16h101zM406 50h-377q-4 8 -5 13h109q13 -6 33 -6q17 0 34 6h187q6 -5 19 -13zM110 165q-4 -10 -5 -15h-80q1 7 6 15h79zM102 117h-83q0 9 1 14h82v-14zM236 29q-9 -7 -20 -12
h-154q-2 1 -5 4q-6 3 -11 8h190zM111 83h-92q-1 4 -1 14h87q1 -8 6 -14z" />
    <glyph glyph-name="ccedilla" unicode="&#xe7;" horiz-adv-x="368" 
d="M343 283h-80l-5 5q-3 3 -7 5l-18 9h99q9 -8 11 -19zM333 268q-6 -6 -21 -16q-2 -2 -3 -2h-33v1q0 8 -3 17h60zM309 317h-210q20 12 44 19h117l27 -9q12 -6 22 -10zM284 234q-6 -4 -13 -6q1 2 2 6h11zM349 97q-4 -10 -6 -14h-9q6 4 13 14h2zM172 302q-15 -5 -30 -19h-86
q3 3 10 9.5t10 9.5h96zM333 63q-3 -4 -9 -13h-42q2 0 3 1q13 5 23 12h25zM129 268q-1 -1 -4.5 -6.5t-6.5 -11.5h-85q4 6 11 18h85zM111 234q-2 -7 -4 -17h-86l2 8q1 4 3 9h85zM103 199q0 -3 -1 -8v-8h-84v16h85zM103 150h-83q0 5 -2 15h84q0 -3 1 -7v-8zM306 29l-7 -7
q-3 -3 -7 -5h-192q-9 4 -18 12h224zM251 -6q-3 0 -7 -11h-87q0 6 3 12h91v-1zM112 117h-86q-2 4 -4 14h85q1 -7 5 -14zM282 -50h-85q-3 3 -5 4q-6 4 -8 6h89l2 -2q2 -3 7 -8zM306 -83h-80q-2 6 -4 9h79q4 -6 5 -9zM131 83h-92q-3 4 -7 14h89q3 -5 10 -14zM171 50h-110l-6 6
q-3 3 -5 7h101q11 -9 20 -13zM305 -108q-2 -6 -4 -9h-91q6 6 8 9h87zM272 -142q-11 -6 -21 -8h-112q-1 1 -2 1v0q-6 3 -12 7h147zM115 -117h-3q0 1 1 1v2l1 -1q0 -1 1 -2z" />
    <glyph glyph-name="egrave" unicode="&#xe8;" horiz-adv-x="395" 
d="M220 550h-114q-2 1 -2.5 1.5t-2.5 1.5l5 22h103zM235 517h-81q-12 10 -33 24h103l7 -15q2 -6 4 -9zM252 483h-68q-2 2 -19 24h74q7 -14 13 -24zM272 450h-65q-1 1 -4 5.5t-11 17.5h66q6 -11 14 -23zM292 424h-85q4 9 4 12v3h69zM320 283h-73q-12 13 -26 19h84
q7 -9 7.5 -9t7.5 -10zM338 250h-85l11 2q-2 5 -6 16h71zM289 317h-199q19 12 41 19h122q21 -8 36 -19zM376 131q-1 -7 -5 -14h-4q3 4 9 14zM362 97q-4 -8 -8 -14h-15q6 4 13 14h10zM349 224l-39 -7h-287q2 9 5 17h78q-4 -10 -6 -14l71 14h174q1 -3 4 -10zM161 302
q-16 -6 -29 -19h-79q3 3 9 9.5t9 9.5h90zM341 63q-5 -8 -10 -13h-42q9 3 24 13h28zM121 268l-7 -18h-80l9 18h78zM210 199l-89 -16h-103q0 5 2 16h190zM310 29q-8 -8 -16 -12h-191q-10 5 -17 12h224zM104 150h-86v15h84q0 -5 2 -15zM240 -5q-20 -4 -41 -4q-20 0 -40 4h81z
M112 117h-87q-2 4 -4 14h87q2 -8 4 -14zM131 83h-92l-7 14h90q1 -2 9 -14zM170 50h-107q-5 5 -11 13h98q11 -9 20 -13z" />
    <glyph glyph-name="eacute" unicode="&#xe9;" horiz-adv-x="395" 
d="M292 553l-6 -3h-113l11 25h102zM271 541q-20 -14 -33 -24h-79q2 6 4 9l6 15h102zM228 507q-7 -7 -19 -24h-68q3 3 13 24h74zM202 473l-12 -18q-2 -4 -3 -5h-66q5 8 14 23h67zM187 424h-86l12 15h69v-3zM320 283h-73q-12 13 -26 19h84q7 -9 7.5 -9t7.5 -10zM338 250h-85
l11 2q-2 5 -6 16h71zM289 317h-199q19 12 41 19h122q21 -8 36 -19zM376 131q-1 -7 -5 -14h-4q3 4 9 14zM362 97q-4 -8 -8 -14h-15q6 4 13 14h10zM349 224l-39 -7h-287q2 9 5 17h78q-4 -10 -6 -14l71 14h174q1 -3 4 -10zM161 302q-16 -6 -29 -19h-79q3 3 9 9.5t9 9.5h90z
M341 63q-5 -8 -10 -13h-42q9 3 24 13h28zM121 268l-7 -18h-80l9 18h78zM210 199l-89 -16h-103q0 5 2 16h190zM310 29q-8 -8 -16 -12h-191q-10 5 -17 12h224zM104 150h-86v15h84q0 -5 2 -15zM240 -5q-20 -4 -41 -4q-20 0 -40 4h81zM112 117h-87q-2 4 -4 14h87q2 -8 4 -14z
M131 83h-92l-7 14h90q1 -2 9 -14zM170 50h-107q-5 5 -11 13h98q11 -9 20 -13z" />
    <glyph glyph-name="ecircumflex" unicode="&#xea;" horiz-adv-x="395" 
d="M235 550h-57q1 1 21 25h13q8 -10 23 -25zM297 483h-58q-7 8 -19 24h55q8 -8 22 -24zM324 450h-62l1 1q0 1 1 2q-4 4 -16 20h57q6 -8 19 -23zM265 517h-53q-2 2 -3 4l-4 -4h-56q6 6 18 20q2 3 3 4h73q10 -10 22 -24zM339 429h-98l13 10h78q2 -4 7 -10zM195 507
q-6 -8 -19 -24h-59q5 4 9 8l9 9q1 1 3 3.5t3 3.5h54zM170 473q-3 -8 -3 -13l1 -10h-88q9 8 26 23h64zM320 283h-73q-12 13 -26 19h84q7 -9 7.5 -9t7.5 -10zM338 250h-85l11 2q-2 5 -6 16h71zM172 426q-8 1 -9 3h-109q4 3 13 10h103l1 -3zM289 317h-199q19 12 41 19h122
q21 -8 36 -19zM376 131q-1 -7 -5 -14h-4q3 4 9 14zM362 97q-4 -8 -8 -14h-15q6 4 13 14h10zM349 224l-39 -7h-287q2 9 5 17h78q-4 -10 -6 -14l71 14h174q1 -3 4 -10zM161 302q-16 -6 -29 -19h-79q3 3 9 9.5t9 9.5h90zM341 63q-5 -8 -10 -13h-42q9 3 24 13h28zM121 268
l-7 -18h-80l9 18h78zM210 199l-89 -16h-103q0 5 2 16h190zM310 29q-8 -8 -16 -12h-191q-10 5 -17 12h224zM104 150h-86v15h84q0 -5 2 -15zM240 -5q-20 -4 -41 -4q-20 0 -40 4h81zM112 117h-87q-2 4 -4 14h87q2 -8 4 -14zM131 83h-92l-7 14h90q1 -2 9 -14zM170 50h-107
q-5 5 -11 13h98q11 -9 20 -13z" />
    <glyph glyph-name="edieresis" unicode="&#xeb;" horiz-adv-x="395" 
d="M317 483h-100q1 15 15 24h71q11 -10 14 -24zM317 473q-1 -15 -13 -23h-72q-11 8 -14 23h99zM176 483h-100q1 15 14 24h72q11 -10 14 -24zM176 473q-1 -15 -13 -23h-72q-11 8 -14 23h99zM320 283h-73q-12 13 -26 19h84q7 -9 7.5 -9t7.5 -10zM338 250h-85l11 2q-2 5 -6 16
h71zM289 317h-199q19 12 41 19h122q21 -8 36 -19zM376 131q-1 -7 -5 -14h-4q3 4 9 14zM362 97q-4 -8 -8 -14h-15q6 4 13 14h10zM349 224l-39 -7h-287q2 9 5 17h78q-4 -10 -6 -14l71 14h174q1 -3 4 -10zM161 302q-16 -6 -29 -19h-79q3 3 9 9.5t9 9.5h90zM341 63
q-5 -8 -10 -13h-42q9 3 24 13h28zM121 268l-7 -18h-80l9 18h78zM210 199l-89 -16h-103q0 5 2 16h190zM310 29q-8 -8 -16 -12h-191q-10 5 -17 12h224zM104 150h-86v15h84q0 -5 2 -15zM240 -5q-20 -4 -41 -4q-20 0 -40 4h81zM112 117h-87q-2 4 -4 14h87q2 -8 4 -14zM131 83
h-92l-7 14h90q1 -2 9 -14zM170 50h-107q-5 5 -11 13h98q11 -9 20 -13z" />
    <glyph glyph-name="igrave" unicode="&#xec;" horiz-adv-x="226" 
d="M137 550h-114q-2 1 -2.5 1.5t-2.5 1.5l5 22h103zM150 517h-82q-8 7 -31 24h103l7 -15zM168 483h-68l-21 24h76q4 -8 13 -24zM188 450h-65q-1 1 -3 5l-12 18h66q4 -8 14 -23zM209 424h-86q4 9 4 12v3h70l6 -8q3 -4 6 -7zM171 317h-129q-7 5 -17 19h146v-19zM171 283h-81
q-4 9 -16 16q-4 1 -10 3h107v-19zM171 250h-76v9q0 6 -1 9h77v-18zM171 217h-76v17h76v-17zM171 183h-76v16h76v-16zM171 150h-76v15h76v-15zM171 117h-76v14h76v-14zM171 83h-76v14h76v-14zM171 50h-76v13h76v-13zM184 17h-104l5 5q1 1 2.5 3.5t2.5 3.5h85q1 -5 9 -12z" />
    <glyph glyph-name="iacute" unicode="&#xed;" horiz-adv-x="226" 
d="M209 553l-6 -3h-114l11 25h103zM188 541q-12 -7 -33 -24h-80q2 6 4 9l6 15h103zM144 507q-7 -7 -19 -24h-67l12 24h74zM117 473q-6 -11 -14 -23h-65q5 8 14 23h65zM104 424h-86l12 15h69v-3zM171 317h-129q-7 5 -17 19h146v-19zM171 283h-81q-4 9 -16 16q-4 1 -10 3h107
v-19zM171 250h-76v9q0 6 -1 9h77v-18zM171 217h-76v17h76v-17zM171 183h-76v16h76v-16zM171 150h-76v15h76v-15zM171 117h-76v14h76v-14zM171 83h-76v14h76v-14zM171 50h-76v13h76v-13zM184 17h-104l5 5q1 1 2.5 3.5t2.5 3.5h85q1 -5 9 -12z" />
    <glyph glyph-name="icircumflex" unicode="&#xee;" horiz-adv-x="319" 
d="M198 550h-57q1 1 21 25h13q8 -10 23 -25zM260 483h-57q-7 8 -20 24h55q8 -8 22 -24zM287 450h-62l3 3q-4 4 -16 20h56q6 -8 19 -23zM228 517h-53q-2 2 -3 4l-4 -4h-56q6 6 18 20q2 3 3 4h73q10 -10 22 -24zM302 429h-98l13 10h78q2 -4 7 -10zM158 507q-6 -8 -19 -24h-59
l24 24h54zM133 473q-3 -8 -3 -13l1 -10h-87q4 4 12.5 11.5t12.5 11.5h64zM135 426q-8 1 -9 3h-108q4 3 13 10h102l1 -3zM217 317h-128q-6 4 -18 19h146v-19zM217 283h-81q-4 10 -15 16q-4 1 -10 3h106v-19zM217 250h-76v9q0 6 -1 9h77v-18zM217 217h-76v17h76v-17zM217 183
h-76v16h76v-16zM217 150h-76v15h76v-15zM217 117h-76v14h76v-14zM217 83h-76v14h76v-14zM217 50h-76v13h76v-13zM231 17h-104l5 5q1 2 4 7h85q1 -3 10 -12z" />
    <glyph glyph-name="idieresis" unicode="&#xef;" horiz-adv-x="276" 
d="M258 483h-99q1 15 14 24h71q11 -10 14 -24zM258 473q-1 -15 -13 -23h-72q-10 7 -13 23h98zM117 483h-99q1 15 14 24h71q11 -10 14 -24zM117 473q-1 -15 -13 -23h-72q-10 7 -13 23h98zM196 317h-129q-7 5 -17 19h146v-19zM196 283h-81q-4 9 -16 16q-4 1 -10 3h107v-19z
M196 250h-76v9q0 6 -1 9h77v-18zM196 217h-76v17h76v-17zM196 183h-76v16h76v-16zM196 150h-76v15h76v-15zM196 117h-76v14h76v-14zM196 83h-76v14h76v-14zM196 50h-76v13h76v-13zM209 17h-104l5 5q1 1 2.5 3.5t2.5 3.5h85q1 -5 9 -12z" />
    <glyph glyph-name="eth" unicode="&#xf0;" horiz-adv-x="480" 
d="M462 532q-5 -10 -7 -15h-13q7 4 20 15zM450 507l-12 -24h-57q10 2 23 8l4 1q3 1 21 15h21zM357 483h-80q-10 13 -25 24h83q8 -8 22 -24zM431 473q-8 -12 -22 -23h-206q19 16 40 23h188zM411 383h-94q-1 7 -5 21h91q3 -7 8 -21zM419 350h-97q0 7 -2 20h95zM324 517h-90
q-22 8 -45 8q-20 0 -47 -8h-56q-8 16 -16 24h220q16 -9 34 -24zM398 417h-89l-4 12q-7 1 -14 1h-11q-23 0 -56 -13h-47q4 7 13 19l1 1q0 1 1 2h200q-2 -2 -4 -2q4 -7 10 -20zM273 550h-214l-34 25h150q56 -5 98 -25zM424 317h-99q0 3 -1 10v9h98q2 -10 2 -19zM426 283h-100
v19h99q1 -5 1 -10v-9zM426 268q0 -6 -2 -18h-100q1 5 1 9v9h101zM116 507q-8 -3 -21 -11q-3 5 -4 11h25zM423 234q0 -6 -2 -17h-100q0 7 2 17h100zM200 404l-32 -21h-9l6 11l4 10h31zM418 199q-1 -5 -4 -16h-98q0 5 2 16h100zM308 250h-20q-8 10 -16 18h33zM309 234
q0 -3 -1 -9v-8h-6q-1 7 -6 17h13zM410 165q-4 -10 -5 -15h-96l3 15h98zM274 317h-184q16 11 39 19h113q20 -8 32 -19zM398 131q-4 -10 -6 -14h-93q1 4 5 14h94zM299 283h-46q-24 15 -40 15q-27 1 -49 -15h-110q8 10 17 19h217q4 -6 11 -19zM381 97q-3 -7 -8 -14h-89
q2 5 7 14h90zM358 63q-2 -4 -5 -7l-6 -6h-90q5 3 13 13h88zM148 268q-1 -1 -3.5 -5t-3.5 -5q-4 -6 -5 -8h-101q4 9 9 18h104zM128 234q-4 -8 -7 -17h-95q2 10 4 17h98zM117 199q-1 -5 -3 -16h-90v16h93zM323 29q-9 -8 -18 -12h-183q-9 4 -19 12h220zM113 150h-86
q-2 10 -2 15h88v-15zM233 -5q-8 -1 -15 -1h-14h-7q-4 1 -6 1h42zM118 117h-81q-1 5 -5 14h83q0 -5 3 -14zM130 83h-74q-3 4 -9 14h76q4 -10 7 -14zM157 50h-76l-6 6q-3 3 -5 7h73q4 -6 14 -13z" />
    <glyph glyph-name="ntilde" unicode="&#xf1;" horiz-adv-x="407" 
d="M386 498q-4 -5 -7 -8l-7 -7h-36q17 5 50 15zM311 439q-27 -10 -53 -4l-16 4h69zM362 473q-11 -11 -29 -23h-121q-47 21 -77 21q-13 0 -29 -2l-63 -15q3 3 10 9.5t10 9.5h299zM262 483h-188l36 24h95l4 -1zM377 250h-90q-4 9 -13 18h93q2 -4 7 -10q2 -6 3 -8zM384 217h-86
q-1 6 -4 17h87q1 -6 3 -17zM319 317h-168q33 14 73 19h44q29 -5 51 -19zM386 183h-85v1q0 10 -1 15h85q1 -4 1 -8v-8zM384 165q-2 -10 -4 -15h-81q1 5 1 15h84zM357 283h-105q-20 9 -48 9q-16 0 -35 -9h-118q-2 9 -8 19h296q6 -6 18 -19zM374 131q-2 -8 -5 -14h-75q1 4 3 14
h77zM361 97q-2 -5 -6 -14h-70q2 6 4 14h72zM127 317h-96q-4 5 -13 14h109v-14zM354 50h-82q1 4 5 13h72q0 -5 5 -13zM144 268q-14 -10 -17 -18h-76v18h93zM382 17h-122l1 12h111q3 -3 9 -8zM390 -6h-130v1zM127 217h-76v17h76v-17zM127 183h-76v16h76v-16zM127 150h-76v15
h76v-15zM127 117h-76v14h76v-14zM127 83h-76v14h76v-14zM128 50h-77v13h76v-1q0 -8 1 -12zM164 17h-122q4 4 7 12h97zM168 -6l-149 1h149v-1z" />
    <glyph glyph-name="ograve" unicode="&#xf2;" horiz-adv-x="415" 
d="M231 550h-114q-2 1 -2.5 1.5t-2.5 1.5l5 22h103zM246 517h-81q-12 10 -33 24h103l7 -15q2 -6 4 -9zM263 483h-68q-1 1 -19 24h74q7 -14 13 -24zM283 450h-66q-1 1 -3 5l-12 18h67q6 -11 14 -23zM303 424h-86l5 12v3h69zM380 250h-85l-6 12q-2 2 -4 6h85q4 -6 10 -18z
M358 283h-86q-15 13 -32 19h98q3 -3 5 -4zM392 217h-85q-2 10 -4 17h84q3 -8 5 -17zM397 183h-85q0 3 -1 8v8h85q0 -3 1 -8v-8zM317 317h-223q16 10 44 19h136q29 -10 43 -19zM398 165q0 -10 -1 -15h-85q1 5 1 15h85zM395 131q-2 -10 -3 -14h-85q1 4 3 14h85zM385 97
q-2 -5 -6 -14h-85q2 5 7 14h84zM175 302q-20 -7 -32 -19h-88q4 5 8 9l10 10h102zM367 63q-6 -8 -11 -13h-88q7 6 13 13h86zM130 268q-1 -1 -4.5 -6.5t-6.5 -11.5h-85q2 5 10 18h86zM112 234q-1 -6 -5 -17h-84q2 9 5 17h84zM104 199q-2 -10 -2 -16h-84q0 5 2 16h84zM333 29
q-7 -7 -17 -12h-215q-9 4 -18 12h250zM102 150h-84v15h84v-15zM255 -5q-22 -4 -47 -4q-24 0 -46 4h93zM108 117h-84q-1 4 -3 14h84q2 -10 3 -14zM121 83h-84q-3 4 -7 14h84q4 -10 7 -14zM147 50h-88q-6 5 -10 13h85q6 -7 13 -13z" />
    <glyph glyph-name="oacute" unicode="&#xf3;" horiz-adv-x="415" 
d="M303 553l-6 -3h-114l11 25h103zM282 541q-20 -14 -33 -24h-80q2 6 4 9l6 15h103zM239 507q-7 -7 -19 -24h-68l12 24h75zM213 473l-12 -18q-2 -4 -3 -5h-66q5 8 14 23h67zM358 283h-86q-15 13 -32 19h98q3 -3 5 -4zM380 250h-85l-6 12q-2 2 -4 6h85q4 -6 10 -18zM198 424
h-86l12 15h69v-3zM392 217h-85q-2 10 -4 17h84q3 -8 5 -17zM397 183h-85q0 3 -1 8v8h85q0 -3 1 -8v-8zM317 317h-223q16 10 44 19h136q29 -10 43 -19zM398 165q0 -10 -1 -15h-85q1 5 1 15h85zM395 131q-2 -10 -3 -14h-85q1 4 3 14h85zM385 97q-2 -5 -6 -14h-85q2 5 7 14h84z
M175 302q-20 -7 -32 -19h-88q4 5 8 9l10 10h102zM367 63q-6 -8 -11 -13h-88q7 6 13 13h86zM130 268q-1 -1 -4.5 -6.5t-6.5 -11.5h-85q2 5 10 18h86zM112 234q-1 -6 -5 -17h-84q2 9 5 17h84zM104 199q-2 -10 -2 -16h-84q0 5 2 16h84zM333 29q-7 -7 -17 -12h-215q-9 4 -18 12
h250zM102 150h-84v15h84v-15zM255 -5q-22 -4 -47 -4q-24 0 -46 4h93zM108 117h-84q-1 4 -3 14h84q2 -10 3 -14zM121 83h-84q-3 4 -7 14h84q4 -10 7 -14zM147 50h-88q-6 5 -10 13h85q6 -7 13 -13z" />
    <glyph glyph-name="ocircumflex" unicode="&#xf4;" horiz-adv-x="415" 
d="M246 550h-57q1 1 21 25h13q8 -10 23 -25zM308 483h-58q-7 8 -19 24h55q8 -8 22 -24zM335 450h-62l1 1q0 1 1 2q-4 4 -16 20h57q6 -8 19 -23zM276 517h-53q-2 2 -3 4l-4 -4h-56q5 7 10 12l8 8q2 2 3 4h73q10 -10 22 -24zM350 429h-99l14 10h78q2 -4 7 -10zM206 507
q-6 -8 -19 -24h-59q5 4 9 8l9 9q1 1 3 3.5t3 3.5h54zM181 473q-3 -8 -3 -13l1 -10h-88q9 8 26 23h64zM358 283h-86q-15 13 -32 19h98q3 -3 5 -4zM380 250h-85l-6 12q-2 2 -4 6h85q4 -6 10 -18zM392 217h-85q-2 10 -4 17h84q3 -8 5 -17zM183 426q-8 1 -9 3h-109q4 3 13 10
h103l1 -3zM397 183h-85q0 3 -1 8v8h85q0 -3 1 -8v-8zM317 317h-223q16 10 44 19h136q29 -10 43 -19zM398 165q0 -10 -1 -15h-85q1 5 1 15h85zM395 131q-2 -10 -3 -14h-85q1 4 3 14h85zM385 97q-2 -5 -6 -14h-85q2 5 7 14h84zM175 302q-20 -7 -32 -19h-88q4 5 8 9l10 10h102z
M367 63q-6 -8 -11 -13h-88q7 6 13 13h86zM130 268q-1 -1 -4.5 -6.5t-6.5 -11.5h-85q2 5 10 18h86zM112 234q-1 -6 -5 -17h-84q2 9 5 17h84zM104 199q-2 -10 -2 -16h-84q0 5 2 16h84zM333 29q-7 -7 -17 -12h-215q-9 4 -18 12h250zM102 150h-84v15h84v-15zM255 -5
q-22 -4 -47 -4q-24 0 -46 4h93zM108 117h-84q-1 4 -3 14h84q2 -10 3 -14zM121 83h-84q-3 4 -7 14h84q4 -10 7 -14zM147 50h-88q-6 5 -10 13h85q6 -7 13 -13z" />
    <glyph glyph-name="otilde" unicode="&#xf5;" horiz-adv-x="415" 
d="M379 498q-8 -9 -15 -15h-35q17 5 50 15zM304 439q-28 -10 -54 -4l-16 4h70zM354 473q-3 -3 -28 -23h-122q-33 14 -51 19q-12 2 -26 2q-12 0 -28 -2l-63 -15q3 3 10 9.5t10 9.5h298zM255 483h-188q8 7 23 17q4 2 12 7h96l4 -1zM358 283h-86q-15 13 -32 19h98q3 -3 5 -4z
M380 250h-85l-6 12q-2 2 -4 6h85q4 -6 10 -18zM392 217h-85q-2 10 -4 17h84q3 -8 5 -17zM397 183h-85q0 3 -1 8v8h85q0 -3 1 -8v-8zM317 317h-223q16 10 44 19h136q29 -10 43 -19zM398 165q0 -10 -1 -15h-85q1 5 1 15h85zM395 131q-2 -10 -3 -14h-85q1 4 3 14h85zM385 97
q-2 -5 -6 -14h-85q2 5 7 14h84zM175 302q-20 -7 -32 -19h-88q4 5 8 9l10 10h102zM367 63q-6 -8 -11 -13h-88q7 6 13 13h86zM130 268q-1 -1 -4.5 -6.5t-6.5 -11.5h-85q2 5 10 18h86zM112 234q-1 -6 -5 -17h-84q2 9 5 17h84zM104 199q-2 -10 -2 -16h-84q0 5 2 16h84zM333 29
q-7 -7 -17 -12h-215q-9 4 -18 12h250zM102 150h-84v15h84v-15zM255 -5q-22 -4 -47 -4q-24 0 -46 4h93zM108 117h-84q-1 4 -3 14h84q2 -10 3 -14zM121 83h-84q-3 4 -7 14h84q4 -10 7 -14zM147 50h-88q-6 5 -10 13h85q6 -7 13 -13z" />
    <glyph glyph-name="odieresis" unicode="&#xf6;" horiz-adv-x="415" 
d="M327 483h-99q1 15 14 24h71q11 -10 14 -24zM327 473q-1 -15 -13 -23h-72q-10 7 -13 23h98zM186 483h-100q1 15 15 24h71q11 -10 14 -24zM186 473q-1 -15 -13 -23h-72q-11 8 -14 23h99zM358 283h-86q-15 13 -32 19h98q3 -3 5 -4zM380 250h-85l-6 12q-2 2 -4 6h85
q4 -6 10 -18zM392 217h-85q-2 10 -4 17h84q3 -8 5 -17zM397 183h-85q0 3 -1 8v8h85q0 -3 1 -8v-8zM317 317h-223q16 10 44 19h136q29 -10 43 -19zM398 165q0 -10 -1 -15h-85q1 5 1 15h85zM395 131q-2 -10 -3 -14h-85q1 4 3 14h85zM385 97q-2 -5 -6 -14h-85q2 5 7 14h84z
M175 302q-20 -7 -32 -19h-88q4 5 8 9l10 10h102zM367 63q-6 -8 -11 -13h-88q7 6 13 13h86zM130 268q-1 -1 -4.5 -6.5t-6.5 -11.5h-85q2 5 10 18h86zM112 234q-1 -6 -5 -17h-84q2 9 5 17h84zM104 199q-2 -10 -2 -16h-84q0 5 2 16h84zM333 29q-7 -7 -17 -12h-215q-9 4 -18 12
h250zM102 150h-84v15h84v-15zM255 -5q-22 -4 -47 -4q-24 0 -46 4h93zM108 117h-84q-1 4 -3 14h84q2 -10 3 -14zM121 83h-84q-3 4 -7 14h84q4 -10 7 -14zM147 50h-88q-6 5 -10 13h85q6 -7 13 -13z" />
    <glyph glyph-name="divide" unicode="&#xf7;" horiz-adv-x="405" 
d="M250 450h-95q4 14 19 23h59q10 -7 17 -23zM253 435q0 -11 -3 -18h-94q-3 7 -3 17v5h99q0 -2 1 -2v-2zM243 404q-13 -16 -39 -16q-28 -1 -40 16h79zM377 336l-20 -19h-304l20 19h304zM341 302l-19 -18h-304l19 18h304zM247 217h-90q4 9 15 17h62q9 -7 13 -17zM253 196
q0 -5 -2 -13h-96q-2 6 -2 12v4h99q0 -1 1 -1v-2zM243 165q-11 -12 -31 -15h-21q-18 3 -27 15h79z" />
    <glyph glyph-name="oslash" unicode="&#xf8;" horiz-adv-x="416" 
d="M383 426l-6 -9h-113q16 9 23 9h96zM369 404l-13 -21h-78l-5 9l-7 12h103zM348 370l-12 -20h-61l5 9l3 11h65zM382 250h-85q-2 5 -10 18h86zM362 283h-126l12 19h95zM394 217h-85q-1 6 -5 17h85q1 -6 5 -17zM398 183h-85q0 3 -1 8v8h85q0 -3 1 -8v-8zM328 336l-10 -16
q1 -1 5 -3h-231q19 12 37 19h199zM399 165q0 -10 -1 -15h-85q1 5 1 15h85zM287 268l-11 -18h-60l11 18h60zM396 131q-2 -10 -3 -14h-85q1 4 3 14h85zM266 234l-11 -17h-60l11 17h60zM386 97q-4 -10 -6 -14h-85q3 4 7 14h84zM166 302q-14 -7 -26 -19h-85q4 5 8 9l10 10h93z
M244 199l-10 -16h-60l10 16h60zM367 63q-5 -8 -10 -13h-86l6 6q3 3 6 7h84zM223 165l-9 -15h-60l9 15h60zM129 268q-2 -4 -3 -5q-2 -4 -7 -13h-84l9 18h85zM113 234q-1 -6 -5 -17h-84q2 9 5 17h84zM203 131l-9 -14h-60l9 14h60zM105 199q-2 -10 -2 -16h-84q0 5 2 16h84z
M334 29q-8 -8 -16 -12h-244l8 12h106q5 -2 10 -2h20q5 0 10 2h106zM103 150h-84v15h84v-15zM263 -5q-26 -6 -55 -6t-54 6h109zM182 97l-9 -14h-135q-2 5 -6 14h83q1 -3 3 -7l4 7h60zM109 117h-84q-1 4 -3 14h84q2 -10 3 -14zM161 63l-8 -13h-92q-4 4 -10 13h110zM123 -5
q-2 -4 -7 -12h-65l9 12h63zM106 -40q-1 -3 -4 -10h-75l7 10h72z" />
    <glyph glyph-name="ugrave" unicode="&#xf9;" horiz-adv-x="382" 
d="M215 550h-114q-2 1 -2.5 1.5t-2.5 1.5l5 22h103zM229 517h-83q-8 7 -31 24h104l7 -15zM246 483h-68l-21 24h77zM267 450h-66q-1 1 -3 5l-12 18h66q5 -8 15 -23zM287 424h-86l5 12v3h69zM360 336l-5 -19h-122l-4 19h131zM343 302q-9 -11 -16 -19h-79q-4 6 -12 19h107z
M328 250h-63l-9 18h64l2 -7zM349 217h-72q-2 6 -6 17h67zM361 183h-78q0 6 -2 16h76q1 -5 4 -16zM365 150h-79q0 10 -1 15h79q1 -5 1 -15zM364 131q0 -10 -1 -14h-81q1 4 3 14h79zM148 334l-1 -17h-124l-5 17h130zM360 97q-2 -8 -4 -14h-85q2 4 6 14h83zM146 300
q-3 -6 -9 -17h-88q-5 6 -17 19h114v-2zM348 63q-2 -4 -4 -7l-4 -6h-93q6 6 9 10q0 1 2 3h90zM130 268l-7 -18h-68l3 6l1 9q0 2 -1 3h72zM118 234q-1 -5 -2 -9l-2 -8h-73q2 4 7 17h70zM110 199q0 -5 -2 -16h-79q2 9 5 16h76zM106 150h-84q0 5 2 15h82v-15zM322 29
q-8 -8 -18 -12h-224q-5 1 -8 5q-6 4 -9 7h259zM107 117h-83q0 5 -2 14h84q0 -10 1 -14zM232 -5q-10 -1 -31 -3q-14 -1 -30 0q-14 1 -27 3h88zM112 83h-80q-2 6 -4 14h81q2 -10 3 -14zM134 50h-88q-2 3 -3 6l-4 7h82q1 -2 4.5 -6t8.5 -7z" />
    <glyph glyph-name="uacute" unicode="&#xfa;" horiz-adv-x="382" 
d="M287 553l-6 -3h-114l11 25h103zM266 541l-33 -24h-80q2 6 4 9l6 15h103zM222 507q-7 -7 -19 -24h-67l12 24h74zM360 336l-5 -19h-122l-4 19h131zM196 473q-4 -6 -11 -18q-1 -2 -3 -5h-66q5 8 14 23h66zM343 302q-9 -11 -16 -19h-79q-4 6 -12 19h107zM182 424h-86l12 15
h69v-3zM328 250h-63l-9 18h64l2 -7zM349 217h-72q-2 6 -6 17h67zM361 183h-78q0 6 -2 16h76q1 -5 4 -16zM365 150h-79q0 10 -1 15h79q1 -5 1 -15zM364 131q0 -10 -1 -14h-81q1 4 3 14h79zM148 334l-1 -17h-124l-5 17h130zM360 97q-2 -8 -4 -14h-85q2 4 6 14h83zM146 300
q-3 -6 -9 -17h-88q-5 6 -17 19h114v-2zM348 63q-2 -4 -4 -7l-4 -6h-93q6 6 9 10q0 1 2 3h90zM130 268l-7 -18h-68l3 6l1 9q0 2 -1 3h72zM118 234q-1 -5 -2 -9l-2 -8h-73q2 4 7 17h70zM110 199q0 -5 -2 -16h-79q2 9 5 16h76zM106 150h-84q0 5 2 15h82v-15zM322 29
q-8 -8 -18 -12h-224q-5 1 -8 5q-6 4 -9 7h259zM107 117h-83q0 5 -2 14h84q0 -10 1 -14zM232 -5q-10 -1 -31 -3q-14 -1 -30 0q-14 1 -27 3h88zM112 83h-80q-2 6 -4 14h81q2 -10 3 -14zM134 50h-88q-2 3 -3 6l-4 7h82q1 -2 4.5 -6t8.5 -7z" />
    <glyph glyph-name="ucircumflex" unicode="&#xfb;" horiz-adv-x="382" 
d="M229 550h-56q1 1 21 25h12q8 -10 23 -25zM291 483h-57q-7 8 -19 24h55zM318 450h-62l3 3q-4 4 -16 20h57q6 -8 18 -23zM260 517h-53q-2 2 -3 4l-4 -4h-57q6 7 11 12l8 8q2 2 3 4h72q8 -8 23 -24zM333 429h-98l14 10h77q3 -4 7 -10zM190 507q-6 -8 -19 -24h-60q5 4 9 8
l9 9q1 1 3 3.5t3 3.5h55zM360 336l-5 -19h-122l-4 19h131zM343 302q-9 -11 -16 -19h-79q-4 6 -12 19h107zM165 473q-3 -8 -3 -13q0 -2 1 -5v-5h-88q9 8 26 23h64zM328 250h-63l-9 18h64l2 -7zM167 426q-8 1 -9 3h-109q4 3 13 10h103zM349 217h-72q-2 6 -6 17h67zM361 183
h-78q0 6 -2 16h76q1 -5 4 -16zM365 150h-79q0 10 -1 15h79q1 -5 1 -15zM364 131q0 -10 -1 -14h-81q1 4 3 14h79zM148 334l-1 -17h-124l-5 17h130zM360 97q-2 -8 -4 -14h-85q2 4 6 14h83zM146 300q-3 -6 -9 -17h-88q-5 6 -17 19h114v-2zM348 63q-2 -4 -4 -7l-4 -6h-93
q6 6 9 10q0 1 2 3h90zM130 268l-7 -18h-68l3 6l1 9q0 2 -1 3h72zM118 234q-1 -5 -2 -9l-2 -8h-73q2 4 7 17h70zM110 199q0 -5 -2 -16h-79q2 9 5 16h76zM106 150h-84q0 5 2 15h82v-15zM322 29q-8 -8 -18 -12h-224q-5 1 -8 5q-6 4 -9 7h259zM107 117h-83q0 5 -2 14h84
q0 -10 1 -14zM232 -5q-10 -1 -31 -3q-14 -1 -30 0q-14 1 -27 3h88zM112 83h-80q-2 6 -4 14h81q2 -10 3 -14zM134 50h-88q-2 3 -3 6l-4 7h82q1 -2 4.5 -6t8.5 -7z" />
    <glyph glyph-name="udieresis" unicode="&#xfc;" horiz-adv-x="382" 
d="M311 483h-100q1 15 15 24h71q11 -10 14 -24zM311 473q-1 -15 -13 -23h-72q-11 8 -14 23h99zM360 336l-5 -19h-122l-4 19h131zM170 483h-100q1 15 15 24h71q11 -10 14 -24zM170 473q-1 -15 -13 -23h-72q-11 8 -14 23h99zM343 302q-9 -11 -16 -19h-79q-4 6 -12 19h107z
M328 250h-63l-9 18h64l2 -7zM349 217h-72q-2 6 -6 17h67zM361 183h-78q0 6 -2 16h76q1 -5 4 -16zM365 150h-79q0 10 -1 15h79q1 -5 1 -15zM364 131q0 -10 -1 -14h-81q1 4 3 14h79zM148 334l-1 -17h-124l-5 17h130zM360 97q-2 -8 -4 -14h-85q2 4 6 14h83zM146 300
q-3 -6 -9 -17h-88q-5 6 -17 19h114v-2zM348 63q-2 -4 -4 -7l-4 -6h-93q6 6 9 10q0 1 2 3h90zM130 268l-7 -18h-68l3 6l1 9q0 2 -1 3h72zM118 234q-1 -5 -2 -9l-2 -8h-73q2 4 7 17h70zM110 199q0 -5 -2 -16h-79q2 9 5 16h76zM106 150h-84q0 5 2 15h82v-15zM322 29
q-8 -8 -18 -12h-224q-5 1 -8 5q-6 4 -9 7h259zM107 117h-83q0 5 -2 14h84q0 -10 1 -14zM232 -5q-10 -1 -31 -3q-14 -1 -30 0q-14 1 -27 3h88zM112 83h-80q-2 6 -4 14h81q2 -10 3 -14zM134 50h-88q-2 3 -3 6l-4 7h82q1 -2 4.5 -6t8.5 -7z" />
    <glyph glyph-name="yacute" unicode="&#xfd;" horiz-adv-x="427" 
d="M315 553l-6 -3h-113l11 25h102zM294 541l-33 -24h-79q2 6 4 9l6 15h102zM251 507q-13 -13 -20 -24h-67q3 3 13 24h74zM410 336l-22 -19h-128l-3 19h153zM224 473q-6 -11 -14 -23h-66q5 8 14 23h66zM377 302q-2 -5 -2 -16v-3h-81q-2 5 -5 10l-14 9h102zM210 424h-86l12 15
h69v-3zM375 250h-77v18h77v-18zM375 217h-77v17h77v-17zM375 183h-77v16h77v-16zM375 150h-77v15h77v-15zM375 117h-77v14h77v-14zM375 83h-77v14h77v-14zM153 336l-4 -19h-122l-4 19h130zM146 300q-4 -5 -11 -17h-80q-3 5 -7 10l-10 9h108v-2zM375 50h-100q11 5 17 13h83
v-13zM128 268q-3 -6 -8 -18h-66q3 5 9 16v1q-1 0 -1 1h66zM373 -5q-1 -4 -1 -12h-75v12h76zM115 234q-1 -6 -5 -17h-74q3 6 9 17h70zM368 -40q0 -3 -2 -10h-70q0 2 1 5v5h71zM106 199q0 -5 -2 -16h-81q1 7 5 16h78zM357 -74q-2 -6 -4 -9h-66q2 3 4 9h66zM375 29q0 -2 -1 -6
v-6h-76v3q-4 -2 -5 -3h-221q-6 4 -8 6l-6 6h317zM102 150h-84q0 3 1 8v7h83v-15zM336 -108l-1 -2q-4 -4 -5 -7h-68l9 9h65zM103 117h-84q0 2 -1 7v7h84q0 -2 1 -7v-7zM245 -5q-33 -11 -60 -11q-39 0 -72 11h132zM113 83h-87q-2 4 -4 14h86q1 -7 5 -14zM139 50h-98q-2 3 -3 6
l-4 7h92q6 -7 13 -13zM308 -142q-1 -1 -4.5 -4t-4.5 -4h-86l16 8h79zM85 -83h-32l8 9h24v-9zM260 -176q-5 -2 -16 -7h-153q-5 2 -8 3l-7 4h184zM98 -117h-73l7 9h61q1 -3 5 -9zM139 -150h-100q-2 3 -7 8h92q5 -3 15 -8z" />
    <glyph glyph-name="thorn" unicode="&#xfe;" horiz-adv-x="454" 
d="M162 526l-1 -9h-13q4 3 14 9zM406 283h-92q-12 11 -30 19h104q6 -6 18 -19zM424 250h-86q-5 9 -12 18h90q3 -6 8 -18zM160 507l-1 -19q-2 -4 -2 -5h-67q18 10 41 24h29zM434 217h-85q-1 6 -5 17h86q1 -6 4 -17zM437 183h-84q0 3 -1 8v8h84q0 -3 1 -8v-8zM436 165
q0 -10 -1 -15h-85q2 10 2 15h84zM154 473q-2 -8 -6 -23h-130v2q20 3 53 21h83zM369 317h-302v19h76v-12l27 12h158q25 -8 41 -19zM146 439q-3 -12 -3 -22h-105q-15 12 -18 12l-1 10h127zM432 131q-2 -10 -3 -14h-88q1 5 5 14h86zM143 383h-77q-3 11 -13 21h90v-21zM143 350
h-76v20h76v-20zM422 97q-2 -5 -7 -14h-91q5 7 8 14h90zM207 302q-19 -7 -33 -16l-6 -3h-101v19h140zM402 63q-5 -8 -10 -13h-93l6 6q3 3 6 7h91zM149 268q-6 -9 -6 -18h-76v18h82zM143 217h-76v17h76v-17zM143 183h-76v16h76v-16zM143 150h-76v15h76v-15zM371 29
q-5 -5 -17 -12h-287v12h165q4 -1 12 -1q9 0 14 1h113zM300 -5q-27 -6 -56 -6q-28 0 -53 6h109zM143 117h-76v14h76v-14zM148 83h-81v14h76q0 -7 5 -14zM67 50v13h98l8 -6q4 -3 9 -6v-1h-115zM143 -17h-76v12h76v-12zM143 -50h-76v10h76v-10zM143 -83h-76v9h76v-9zM157 -117
h-90v9h83l3 -6t4 -3zM207 -142q-8 -2 -14 -4l-12 -4h-114v8h140zM124 -176q-1 -1 -4.5 -3.5t-4.5 -3.5h-48v7h57z" />
    <glyph glyph-name="ydieresis" unicode="&#xff;" horiz-adv-x="427" 
d="M339 483h-99q1 15 14 24h71q11 -10 14 -24zM339 473q-2 -16 -13 -23h-71q-11 8 -14 23h98zM410 336l-22 -19h-128l-3 19h153zM198 483h-99q1 15 14 24h71q11 -10 14 -24zM377 302q-2 -5 -2 -16v-3h-81q-2 5 -5 10l-14 9h102zM198 473q-1 -15 -13 -23h-72q-10 7 -13 23h98
zM375 250h-77v18h77v-18zM375 217h-77v17h77v-17zM375 183h-77v16h77v-16zM375 150h-77v15h77v-15zM375 117h-77v14h77v-14zM375 83h-77v14h77v-14zM153 336l-4 -19h-122l-4 19h130zM146 300q-4 -5 -11 -17h-80q-3 5 -7 10l-10 9h108v-2zM375 50h-100q11 5 17 13h83v-13z
M128 268q-3 -6 -8 -18h-66q3 5 9 16v1q-1 0 -1 1h66zM373 -5q-1 -4 -1 -12h-75v12h76zM115 234q-1 -6 -5 -17h-74q3 6 9 17h70zM368 -40q0 -3 -2 -10h-70q0 2 1 5v5h71zM106 199q0 -5 -2 -16h-81q1 7 5 16h78zM357 -74q-2 -6 -4 -9h-66q2 3 4 9h66zM375 29q0 -2 -1 -6v-6
h-76v3q-4 -2 -5 -3h-221q-6 4 -8 6l-6 6h317zM102 150h-84q0 3 1 8v7h83v-15zM336 -108l-1 -2q-4 -4 -5 -7h-68l9 9h65zM103 117h-84q0 2 -1 7v7h84q0 -2 1 -7v-7zM245 -5q-33 -11 -60 -11q-39 0 -72 11h132zM113 83h-87q-2 4 -4 14h86q1 -7 5 -14zM139 50h-98q-2 3 -3 6
l-4 7h92q6 -7 13 -13zM308 -142q-1 -1 -4.5 -4t-4.5 -4h-86l16 8h79zM85 -83h-32l8 9h24v-9zM260 -176q-5 -2 -16 -7h-153q-5 2 -8 3l-7 4h184zM98 -117h-73l7 9h61q1 -3 5 -9zM139 -150h-100q-2 3 -7 8h92q5 -3 15 -8z" />
    <glyph glyph-name="OE" unicode="&#x152;" horiz-adv-x="870" 
d="M837 517h-21l-2 1q-15 14 -30 23h50zM853 594q-4 -8 -6 -11h-388l-13 10l12 16h383q6 -5 12 -15zM843 575q-7 -16 -8 -25h-68q-23 11 -45 16l-20 2l-20 1l-100 -1l-16 -2v-16h-76q-5 10 -11 19l-9 6h373zM566 517h-72v11q0 5 -2 13h74v-24zM804 302l-15 -19h-42
q-10 10 -22 19h79zM777 268l-10 -13q-3 4 -9 13h19zM835 368l-8 -18h-345q0 7 -2 20h86v-2h269zM566 483h-132q-8 12 -20 24h152v-24zM820 336l-8 -19h-120q-8 2 -17 3l-18 2h-87v-5h-85q0 3 -1 10v9h336zM566 450h-113q-4 7 -12 22h-1v1h126v-23zM493 517h-89
q-16 14 -36 24h100q4 -4 12.5 -12t12.5 -12zM566 417h-99l-4 11l-5 11h108v-22zM566 383h-89l-6 21h95v-21zM837 97l-1 -14h-30q3 2 8 7l17 7h6zM398 583h-208q49 19 104 19q53 0 104 -19zM456 550h-111q-28 7 -51 7q-25 0 -53 -7h-109q23 18 39 25h245q20 -10 40 -25z
M837 50h-89q11 3 29 13h57q0 -6 3 -13zM571 283h-85v19h85v-19zM570 268q-2 -10 -2 -18h-85q0 6 2 18h85zM566 217h-88q1 6 3 17h85v-17zM566 183h-97q3 6 5 16h92v-16zM217 541q-20 -10 -36 -24h-86l9 9q3 3 8 7.5t8 7.5h97zM851 17h-403l17 12h380zM566 150h-109l6 15h103
v-15zM566 117h-128q1 1 2.5 4t2.5 4l3 6h120v-14zM170 507q-12 -12 -20 -24h-82q7 12 18 24h84zM566 50h-79q4 6 6 11v2h73v-13zM566 83h-72v13q-6 -7 -13 -13h-72l7 7q3 3 6 7h144v-14zM144 473q-5 -8 -13 -23h-82q5 11 13 23h82zM127 439l-4 -11l-5 -11h-82q3 10 8 22h83z
M115 404l-6 -21h-83q1 7 5 21h84zM459 63q-7 -7 -16 -13h-91q18 5 30 13h77zM107 370q-1 -7 -3 -20h-83q1 7 3 20h83zM103 336q0 -3 -1 -10v-9h-84q1 5 1 9v10h84zM102 283h-84v19h84v-19zM104 250h-84q0 3 -1 9v9h84q0 -3 1 -9v-9zM412 29q-11 -7 -23 -12h-204
q-14 5 -25 12h252zM109 217h-83q-1 6 -3 17h83q1 -6 3 -17zM118 183h-83q-2 9 -5 16h83q3 -7 5 -16zM131 150h-83l-6 15h83zM235 50h-106q-9 6 -16 13h93q12 -8 29 -13zM150 117h-83q-5 7 -8 14h82q1 -2 3 -6.5t6 -7.5zM179 83h-86q-6 6 -12 14h84z" />
    </font>
</defs>
</svg>
