<?xml version="1.0" standalone="no"?>
<!DOCTYPE svg PUBLIC "-//W3C//DTD SVG 1.1//EN" "http://www.w3.org/Graphics/SVG/1.1/DTD/svg11.dtd" >
<svg xmlns="http://www.w3.org/2000/svg" xmlns:xlink="http://www.w3.org/1999/xlink" version="1.1">
<metadata>
Created by FontForge 20170731 at Sun Apr  1 23:03:27 2001
 By Aleksey,,,
(c)GeM/FF
</metadata>
<defs>
<font id="Dumbledor1Italic" horiz-adv-x="277" >
  <font-face 
    font-family="Dumbledor 1 Italic"
    font-weight="400"
    font-style="italic"
    font-stretch="normal"
    units-per-em="2048"
    panose-1="0 0 4 0 0 0 0 0 0 0"
    ascent="1638"
    descent="-410"
    x-height="688"
    cap-height="1229"
    bbox="-157 -446 2116 1637"
    underline-thickness="20"
    underline-position="-163"
    unicode-range="U+0020-2122"
  />
<missing-glyph horiz-adv-x="1024" 
d="M128 0v1637h768v-1637h-768zM256 128h512v1381h-512v-1381z" />
    <glyph glyph-name=".notdef" horiz-adv-x="1024" 
d="M128 0v1637h768v-1637h-768zM256 128h512v1381h-512v-1381z" />
    <glyph glyph-name=".null" horiz-adv-x="0" 
 />
    <glyph glyph-name="nonmarkingreturn" horiz-adv-x="592" 
 />
    <glyph glyph-name="space" unicode=" " horiz-adv-x="592" 
 />
    <glyph glyph-name="exclam" unicode="!" horiz-adv-x="395" 
d="M425 308h-295l60 46q26 24 33 57l113 531q7 34 -21 65q-40 44 -52 44l7 48q59 9 173 69q12 11 59 36l70 37q-18 -67 -36 -128q-27 -92 -30 -105l-127 -597q-1 -5 -1 -10q0 -35 47 -93zM298 22q-39 -30 -86 -30q-91 0 -91 82q0 62 51 102q37 29 86 29q91 0 91 -81
q0 -62 -51 -102z" />
    <glyph glyph-name="quotedbl" unicode="&#x22;" horiz-adv-x="359" 
d="M569 1183q-56 -124 -99 -124q-12 16 -10 24q-7 26 -7 87q0 27 2 61q10 51 75 51q57 0 57 -37q0 -22 -18 -62zM413 1183q-57 -124 -101 -124q-14 58 -14 172q10 51 77 51q56 0 57 -36q0 -21 -19 -63z" />
    <glyph glyph-name="numbersign" unicode="#" horiz-adv-x="808" 
d="M909 642q-91 -47 -110 -98l-146 -1l-23 -63l221 2q-90 -47 -110 -98l-146 -1l-80 -221q-13 62 -70 75l53 145h-63l-80 -221q-14 62 -70 75l53 145l-221 -1q73 35 110 97l146 1l23 63l-221 -1q73 35 110 97l146 1l80 221q20 -72 70 -75l-53 -145h63l80 221q20 -72 70 -75
l-53 -145zM556 542h-63l-23 -63h63z" />
    <glyph glyph-name="dollar" unicode="$" horiz-adv-x="1003" 
d="M1045 362q-39 -185 -230 -283q-56 -29 -119 -48q-6 -28 -9 -54q-4 -38 2 -112h-149q46 98 54 131l3 13q-69 -11 -143 -11h-4q-1 -4 -3 -21q-4 -35 2 -112h-149q45 95 54 131l2 8q-150 16 -301 84q83 125 92 145q13 30 42 162q60 -210 195 -273l90 423l-99 27
q-158 63 -159 204q0 31 7 65q33 155 199 271q107 75 190 99q1 11 1 20q0 39 -21 39q-13 0 -39 -16q45 107 106 164q29 27 105 67l-55 -259q42 3 96 3q24 0 49 -1q0 42 -22 42q-13 0 -39 -16q45 107 106 164q29 27 105 67l-57 -268q103 -19 198 -65l-34 -51q-26 -29 -46 -66
l-7 -25q-4 -26 -14 -70q-10 -16 -57 -48q-5 121 -71 182l-90 -424l67 -19q159 -70 159 -209q0 -27 -7 -60zM741 675l95 444q-48 15 -112 15q-18 0 -35 -1l-89 -416zM516 744l78 367q-178 -70 -178 -244q0 -82 100 -123zM842 270q5 24 5 45q0 78 -65 127l-67 -317
q106 43 127 145zM619 101l82 382l-142 39l-90 -425q21 -3 46 -3q57 0 104 7z" />
    <glyph glyph-name="percent" unicode="%" horiz-adv-x="1185" 
d="M846 961q-26 -123 -120 -196.5t-220 -73.5q-103 0 -165 48q-69 53 -69 153q0 32 8 69q26 123 120.5 197.5t220.5 74.5q103 0 165 -49q68 -53 68 -153q0 -32 -8 -70zM1356 1229l-986 -1046q-62 -66 -81 -88q-46 -54 -67 -96h-186q89 62 157 132l78 80l693 736
q122 129 132 181l1 5l-11 26l-6 30q8 40 58 40h218zM1204 256q-25 -123 -120 -197t-221 -74q-125 0 -188 74q-44 51 -44 128q0 35 7 69q25 121 120 196.5t220 75.5q103 0 165 -49q69 -54 69 -154q0 -30 -8 -69zM710 961q17 78 -3 132q-24 68 -101 68q-75 0 -128 -65
q-45 -55 -62 -135q-9 -43 -9 -79q0 -121 114 -121q74 0 127 65q45 55 62 135zM1068 256q17 78 -3 132q-25 68 -102 68q-75 0 -128 -65q-45 -54 -62 -135q-17 -79 3 -133q24 -68 102 -68q74 0 128 66q45 55 62 135z" />
    <glyph glyph-name="ampersand" unicode="&#x26;" horiz-adv-x="1072" 
d="M1146 512q-130 -158 -181 -180l-14 -6l23 -1q-36 -168 -193 -266q-138 -86 -316 -86q-146 0 -248 64q-120 75 -120 213q0 37 8 75q36 169 210 271q36 21 99 42q-118 60 -118 187q0 32 8 70q29 138 156 221q117 76 264 76q125 0 205 -51q96 -60 96 -178q0 -30 -8 -68
q-38 -180 -220 -258q-336 -62 -398 -118q-87 -79 -111 -194q-8 -38 -8 -74q0 -70 33 -119q53 -79 169 -79q113 0 199 76q82 72 110 185q-17 4 -45 12q-66 19 -102 19q-60 0 -105 -18l-138 -55q84 89 117 114q79 60 165 60q42 0 144 -29q12 -3 35 -8q10 -2 42 -2q65 0 130 34
q9 5 112 71zM845 895q19 90 -13 153q-22 44 -52 56q-20 8 -73 8q-184 0 -230 -217q-19 -91 11 -150q35 -68 127 -68q184 0 230 218z" />
    <glyph glyph-name="quotesingle" unicode="'" horiz-adv-x="203" 
d="M392 1140q-7 -15 -25 -53q-20 -28 -56 -28q-13 60 -13 172q10 51 76 51q58 0 57 -37q0 -26 -39 -105z" />
    <glyph glyph-name="parenleft" unicode="(" horiz-adv-x="430" 
d="M715 1507l-118 -171q-176 -255 -251 -610q-38 -180 -38 -359q0 -178 38 -353q-84 -50 -141 -205q-43 79 -66 242q-14 99 -14 197q0 169 40 357q61 288 168 500q126 251 382 402z" />
    <glyph glyph-name="parenright" unicode=")" horiz-adv-x="430" 
d="M546 711q-62 -290 -168 -500q-126 -251 -383 -402l119 171q173 249 250 610q39 183 39 359q0 178 -38 353q81 50 140 205q43 -81 67 -242q14 -94 14 -196q0 -171 -40 -358z" />
    <glyph glyph-name="asterisk" unicode="*" horiz-adv-x="604" 
d="M794 1058q-72 -85 -101 -108q-56 -44 -127 -44q-9 0 -20 2q1 -3 5 -14q16 -41 56 -66q4 -3 77 -36q-97 2 -123 8q-70 16 -91 72q-27 -34 -38 -67l-33 -101q-19 76 -19 101q-1 73 51 128q-12 2 -21 2q-36 0 -81 -13l-106 -41q61 63 90 84q61 44 125 44h11q-2 7 -4 19
q-11 29 -39 59l-72 60q82 -10 107 -18q60 -19 82 -75q5 -13 9 -34l11 10q3 2 22 26q34 43 45 91q2 8 9 88q42 -116 31 -158q-14 -53 -57 -96h16q49 0 99 25q8 4 86 52z" />
    <glyph glyph-name="plus" unicode="+" horiz-adv-x="723" 
d="M652 692l33 -115h-282l-64 -301l-98 132l35 169h-195l-44 115h263l64 296l99 -131l-35 -165h224z" />
    <glyph glyph-name="comma" unicode="," 
d="M124 -123q-52 -44 -119 -51l8 13q82 83 99 155h-53q-21 0 -19 23l6 25q6 28 8 33q27 69 118 69q84 0 84 -67q0 -89 -132 -200z" />
    <glyph glyph-name="hyphen" unicode="-" horiz-adv-x="770" 
d="M853 555q-84 -47 -97 -97h-623q69 35 97 97h623z" />
    <glyph glyph-name="hyphen" unicode="&#x2010;" horiz-adv-x="770" 
d="M853 555q-84 -47 -97 -97h-623q69 35 97 97h623z" />
    <glyph glyph-name="period" unicode="." 
d="M256 67q-15 -70 -118 -80q-95 0 -88 78q16 75 119 79q43 2 66.5 -16t20.5 -61z" />
    <glyph glyph-name="slash" unicode="/" horiz-adv-x="1103" 
d="M1373 1434l-1176 -1479h-171q91 79 198 211l796 982q94 116 108 176l1 11l-13 27l-13 49q41 23 57 23h213z" />
    <glyph glyph-name="zero" unicode="0" horiz-adv-x="1129" 
d="M1216 574q-60 -284 -260 -448q-183 -150 -396 -150q-168 0 -279 90t-137 254q-17 108 14 254q60 281 260 447q182 151 396 151q164 0 277.5 -90.5t139.5 -251.5q17 -104 -15 -256zM1014 574q20 95 20 180q0 81 -19 150q-50 181 -219 181q-130 0 -248 -122
q-135 -139 -188 -389q-20 -94 -20 -174q0 -82 20 -155q50 -182 218 -182t296 182q101 143 140 329zM900 686q-30 -55 -82 -98q-11 -9 -36 -25q3 -3 12 -13q48 -59 33 -150q-6 -34 -46 -146l-23 128q-16 54 -41 85q-11 14 -43 38q-42 -24 -59 -38q-38 -31 -78 -85l-77 -128
q7 110 16 146q23 90 97 150q9 7 18 13q-57 46 -65 123q-6 55 74 228q-7 -101 -6 -118q4 -64 40 -111q10 -13 24 -29l42 -30l54 30q10 6 38 29q54 45 86 111q7 15 43 118q2 -36 2 -67q0 -118 -23 -161z" />
    <glyph glyph-name="one" unicode="1" horiz-adv-x="495" 
d="M460 0h-306q56 54 73 89l23 82l175 820q-4 -1 -8 -1l-39 6h-23l-110 -12l50 33l189 91q115 56 177 106q-11 -26 -15 -27l1 1q-2 -19 -23 -119l-200 -944q-5 -24 -5 -41q-5 -24 41 -84z" />
    <glyph glyph-name="two" unicode="2" horiz-adv-x="1014" 
d="M1034 257l-163 -257l-836 -3l11 48q11 0 193 134q160 118 212 159q369 292 408 477q8 38 8 71q0 74 -38 126q-56 77 -176 77q-29 0 -79 -17q-62 -21 -57 -48q-62 -87 -62 -205q0 -34 6 -68l-83 10l-95 -5l-60 -12q14 66 68 167q64 119 129 161q165 106 354 106
q119 0 197 -44q98 -54 98 -164q0 -27 -7 -60q-74 -349 -721 -770h357q94 0 167 35q41 20 169 82z" />
    <glyph glyph-name="three" unicode="3" horiz-adv-x="932" 
d="M967 327q-34 -158 -188 -256q-140 -89 -302 -89q-160 0 -290 66l-118 105q155 16 313 101l-13 -60q-13 -58 14.5 -95t87.5 -37q72 0 149 56q105 76 133 209q8 38 8 76q0 71 -32 129q-53 97 -310 127q222 55 274 79q166 77 166 208q0 76 -68 118q-57 36 -138 36
q-43 0 -101 -42q-88 -63 -80 -135l-102 16h-23q-15 0 -79 9q187 232 490 232q105 0 194 -40q114 -51 114 -145q0 -15 -4 -34q-29 -136 -153 -212q-31 -19 -134 -58q200 -111 200 -289q0 -38 -8 -75z" />
    <glyph glyph-name="four" unicode="4" horiz-adv-x="1090" 
d="M1162 504l-112 -111h-143l-57 -268q-5 -24 -5 -40q-5 -25 41 -85h-312q63 53 79 89l23 82l48 222h-604q122 119 165 174q130 166 163 324q7 33 7 59q0 49 -23 77l-132 67q32 26 47 32l-5 -1q101 52 206 52q44 -30 53 -128q2 -23 2 -53q0 -97 -33 -174q-82 -191 -182 -318
h359l48 225q10 47 -32 87q-21 20 -66 64q121 16 192 49l193 112l-22 -82q-56 -106 -68 -163l-62 -292h232z" />
    <glyph glyph-name="five" unicode="5" horiz-adv-x="957" 
d="M1171 1172q-131 -80 -153 -104q-27 -30 -83 -154q-65 91 -85 108q-50 43 -131 43h-200l-62 -292q65 13 134 13q397 0 397 -284q0 -48 -11 -99q-42 -194 -188 -307q-102 -79 -173 -100q-47 -14 -153 -14q-185 0 -308 69l-86 105q109 16 164 52l84 69q16 -145 62 -184
q36 -31 129 -31q106 0 190 115q67 92 92 208q12 56 12 104q0 202 -231 202q-151 0 -339 -87l94 441q5 25 47 128z" />
    <glyph glyph-name="six" unicode="6" horiz-adv-x="907" 
d="M1125 1188l-104 -65q-46 -29 -92 -108q-94 60 -181 60q-177 0 -289 -217q-120 -233 -120 -524q0 -270 158 -266q105 3 179 102q64 85 77 196q11 92 -21 162q-38 85 -130 82q-46 -1 -112 -45q-92 -61 -119 -155q-3 148 107 234q76 59 177 62q154 4 235 -87q57 -64 57 -161
q0 -163 -140.5 -313.5t-319.5 -156.5q-206 -6 -294 155q-55 101 -55 244q0 96 20 189q49 228 209 393q197 203 472 211z" />
    <glyph glyph-name="seven" unicode="7" horiz-adv-x="1092" 
d="M1307 1176q-171 -110 -328 -288q-122 -138 -170 -243q-143 -312 -212 -637q-156 -1 -291 -144q75 352 347 795q148 241 314 378h-325q-121 0 -207 -33l-193 -97q9 11 11 20q-6 17 -11 40q1 7 17 15q82 41 153 107q58 55 71 88z" />
    <glyph glyph-name="eight" unicode="8" horiz-adv-x="940" 
d="M974 325q-36 -168 -193 -266q-138 -86 -316 -86q-146 0 -248 64q-120 75 -120 213q0 37 8 75q36 169 210 271q36 21 99 42q-118 60 -118 187q0 32 8 70q29 138 156 221q117 76 264 76q125 0 205 -51q96 -60 96 -178q0 -31 -8 -68q-38 -178 -218 -256q183 -74 183 -239
q0 -38 -8 -75zM845 895q19 90 -13 153q-22 44 -52 56q-20 8 -73 8q-184 0 -230 -217q-19 -91 11 -150q35 -68 127 -68q184 0 230 218zM791 325q8 39 8 71q0 70 -34 121q-53 80 -167 80q-116 0 -203 -80q-82 -75 -107 -192q-8 -38 -8 -74q0 -70 33 -119q53 -79 169 -79
t202 80q83 76 107 192z" />
    <glyph glyph-name="nine" unicode="9" horiz-adv-x="907" 
d="M791 207q-197 -203 -472 -211l-286 -8l104 65q45 28 92 108q92 -60 180 -60q178 0 290 217q120 232 120 522q0 272 -158 268q-105 -3 -179 -102q-63 -85 -77 -195q-11 -91 21 -163q38 -85 130 -82q46 1 112 45q91 60 119 155q3 -148 -106 -232q-79 -61 -178 -64
q-155 -4 -235 87q-57 65 -57 161q0 161 140.5 312.5t319.5 157.5q205 6 293 -155q55 -100 55 -247q0 -344 -228 -579z" />
    <glyph glyph-name="colon" unicode=":" 
d="M364 573q-18 -86 -123 -97q-94 0 -84 95q19 86 123 97q92 0 84 -95zM260 85q-18 -85 -122 -98q-85 0 -85 78q0 9 1 18q18 86 122 97q92 0 84 -95z" />
    <glyph glyph-name="semicolon" unicode=";" 
d="M364 572q-21 -95 -123 -98q-85 -3 -85 76q0 10 1 20q19 87 123 98q92 0 84 -96zM124 -123q-52 -44 -119 -51l8 13q82 83 99 155h-53q-21 0 -19 23l6 25q6 28 8 33q27 69 118 69q84 0 84 -67q0 -89 -132 -200z" />
    <glyph glyph-name="less" unicode="&#x3c;" horiz-adv-x="654" 
d="M660 194l-182 -40q-21 117 -158 226l-174 138q319 95 432 329l202 27q-143 -261 -351 -355q205 -178 231 -325z" />
    <glyph glyph-name="equal" unicode="=" horiz-adv-x="770" 
d="M870 635q-84 -47 -97 -97h-623q69 35 97 97h623zM836 475q-84 -47 -97 -97h-623q69 35 97 97h623z" />
    <glyph glyph-name="greater" unicode="&#x3e;" horiz-adv-x="654" 
d="M728 514q-319 -94 -431 -328l-201 -27q141 262 350 355q-206 178 -232 325l183 40q18 -114 159 -227z" />
    <glyph glyph-name="question" unicode="?" horiz-adv-x="799" 
d="M958 911q-26 -127 -128 -224q-57 -54 -178 -126q-93 -55 -101 -78q-25 -72 -27 -91q-5 -40 5 -121h-52q-39 0 -90 -2q-25 -1 -79 -1q42 38 52 86q3 75 10 99q14 48 62 75q147 82 217 153q97 98 125 230q8 38 8 72q0 47 -19 70q-33 39 -147 39q-89 0 -157 -68
q-63 -62 -82 -153q-12 -55 17 -84q23 -23 101 -50q-34 -4 -63 -4q-203 0 -203 155q0 22 5 45q24 110 153 179q113 60 230 60q348 0 347 -201q0 -32 -6 -60zM453 22q-39 -30 -85 -30q-91 0 -91 81q0 11 3 25q23 107 134 107q91 0 91 -82q0 -61 -52 -101z" />
    <glyph glyph-name="at" unicode="@" horiz-adv-x="1459" 
d="M1536 529q-30 -141 -115 -256q-100 -135 -232 -139q-124 -4 -180 23q-33 16 -53 57q-5 32 -15 76q-139 -89 -232 -89q-91 0 -150 35q-72 43 -72 128q0 22 6 50q42 198 230 246q170 43 218 63q71 29 111 83q-72 49 -180 49q-90 0 -237 -37q147 114 338 114q94 0 188 -34
q47 -25 47 -78q0 -16 -3 -30l-102 -480q-15 -72 31 -74q98 5 120 82q54 185 62 225q15 74 15 133q0 124 -59 214q-94 143 -301 143q-227 0 -392 -145q-159 -140 -207 -365q-13 -61 -13 -118q0 -340 524 -340h107l84 -18q-161 -85 -315 -85q-291 0 -468 140
q-156 123 -156 310q0 54 12 111q57 271 315 445q241 162 529 162q278 0 435 -159q125 -126 125 -309q0 -63 -15 -133zM966 398l67 316q-57 -49 -123 -70q-131 -42 -150 -53q-64 -38 -84 -131q-5 -23 -5 -44q0 -91 107 -91q81 0 188 73z" />
    <glyph glyph-name="A" unicode="A" horiz-adv-x="1486" 
d="M1451 -1h-337q-9 104 -52 264l-62 230q-147 -28 -409 -183q-291 -172 -316 -289q-2 -10 0 -21l-70 -1l-169 1q76 47 362 442q51 71 431 601q8 21 8 43q0 46 -43 86q-30 21 -60 43l196 14q89 6 104 -41q48 -154 116 -454q71 -317 112 -456q60 -207 189 -279zM983 549
l-115 372l-457 -619q82 76 282 151q32 12 290 96z" />
    <glyph glyph-name="B" unicode="B" horiz-adv-x="1042" 
d="M1100 437q-56 -264 -385 -374q-143 -48 -323 -60l1 -3h-48q-15 0 -46 -1t-46 -1h-46l-35 2h-85q62 52 74 79l27 92l173 813q16 75 -16 130q-38 64 -57 64l9 48l31 2q16 1 31 1q114 0 164 -61l14 -34q176 120 350 120q99 0 167 -43q81 -51 81 -144q0 -24 -6 -52
q-29 -135 -158 -246q139 -85 139 -242q0 -43 -10 -90zM911 999q5 24 5 40q0 97 -131 97q-65 0 -128 -23q-83 -30 -102 -83l-2 -13l-34 -163q81 -1 249 -17q16 -1 60 -11q62 73 83 173zM885 433q8 38 8 68q0 123 -111 202q-100 71 -227 71q-52 0 -55 -9l-140 -656
q-3 -14 -1 -31q4 -1 9 0q25 4 41 4q140 0 269 74q169 97 207 277z" />
    <glyph glyph-name="C" unicode="C" horiz-adv-x="1405" 
d="M1631 1229l-84 -59q-60 -42 -72 -97l-9 -42q-6 -10 -21 -81q-105 183 -381 183q-256 0 -439 -134q-192 -139 -244 -385q-17 -80 -17 -147q0 -131 59 -233q99 -171 327 -171q290 0 572 319l-53 -250q-225 -165 -564 -165q-309 0 -454 168q-104 120 -104 305q0 79 20 174
q64 304 351 471q247 144 566 144h547z" />
    <glyph glyph-name="D" unicode="D" horiz-adv-x="1241" 
d="M1336 611q-59 -278 -274 -459q-218 -185 -500 -185q-90 0 -181 24q-106 28 -147 79l-15 -70l-183 -1l215 1013q222 122 371 181q92 36 261 36q263 0 388 -179q83 -119 83 -279q0 -76 -18 -160zM1122 611q18 85 18 159q0 110 -41 196q-79 167 -289 167q-143 0 -259 -75
q-125 -81 -153 -215l-144 -678q99 -102 336 -102q193 0 351 184q138 161 181 364z" />
    <glyph glyph-name="E" unicode="E" horiz-adv-x="933" 
d="M904 29q-25 -33 -53 -33h-778l-29 35l92 46q33 28 44 45q3 13 11 40l2 2l192 902q2 9 2 20q0 32 -24 62l-73 46l44 35h778q28 0 39 -33q-62 -74 -67 -101l-6 -68l-56 19q-78 70 -214 95l-50 4l-50 2l-84 -2l-40 -4l-83 -389h513l-101 -125l-121 -96q-65 123 -250 131
q-4 0 -23 1q-38 1 -39 -10l-120 -569l39 -4l83 -2l51 2l51 4q147 25 255 95l64 19l-23 -68q-1 -3 -1 -10q0 -29 25 -91z" />
    <glyph glyph-name="F" unicode="F" horiz-adv-x="884" 
d="M1151 1196q-62 -74 -67 -101l-6 -68l-56 19q-78 70 -214 95l-50 4l-50 2l-84 -2l-40 -4l-83 -389h513l-101 -125l-121 -96q-65 123 -250 131q-4 0 -23 1q-37 1 -39 -10l-147 -691l-41 -14l-35 -19l-59 -43l-75 -51l262 1231q2 9 2 20q0 32 -24 62l-73 46l44 35h778
q28 0 39 -33z" />
    <glyph glyph-name="G" unicode="G" horiz-adv-x="1405" 
d="M1631 1229l-84 -59q-60 -42 -72 -97l-9 -42q-6 -10 -21 -81q-105 183 -381 183q-256 0 -439 -134q-192 -139 -244 -385q-17 -80 -17 -147q0 -131 59 -233q99 -171 327 -171q147 0 270 65q163 86 180 194q3 101 26 152q-32 -11 -83 -11q-34 0 -101 19.5t-101 19.5
q-61 0 -106 -18l-138 -55q84 89 117 114q79 60 165 60q41 0 144 -29q4 -1 35 -8q9 -2 42 -2q65 0 130 34q9 5 112 71l-8 -10l11 6q-13 -9 -59 -63q-38 -57 -58 -152q-18 -85 -26 -304q-244 -179 -597 -179q-309 0 -454 168q-104 120 -104 305q0 79 20 174q64 305 351 472
q245 143 566 143h547z" />
    <glyph glyph-name="H" unicode="H" horiz-adv-x="1337" 
d="M1302 0h-300q53 54 71 89l23 82l120 564q-289 -44 -526 -278q-181 -179 -271 -394q8 -21 33 -63h-300q53 54 71 89l23 82l172 808q6 28 6 51q0 54 -32 81v16q-4 14 -36 25q-59 21 -61 68l49 9h310l-177 -836q350 407 754 410l37 176q25 119 25 137q0 87 -68 115l279 -2
l-225 -1058q-15 -69 -12 -93q3 -28 35 -78z" />
    <glyph glyph-name="I" unicode="I" horiz-adv-x="547" 
d="M512 0h-300q53 54 71 89l23 82l172 808q6 28 6 52q0 54 -32 80q-15 12 -96 41q-59 21 -61 68l49 9h370l-225 -1058q-15 -69 -12 -93q3 -28 35 -78z" />
    <glyph glyph-name="J" unicode="J" horiz-adv-x="498" 
d="M485 160q-43 -203 -177 -357q-168 -194 -421 -216q209 119 307 276q68 110 108 297l174 817q20 92 -26 131q-12 10 -97 42q-58 22 -60 69l49 10h370z" />
    <glyph glyph-name="K" unicode="K" horiz-adv-x="1471" 
d="M1459 128q-159 -45 -274 -105l-93 -48q-100 58 -147 163q-4 10 -101 307q-25 77 -87 124q-28 21 -128 68q-30 14 -104 23l-103 -488q-15 -71 -12 -95q3 -26 34 -78h-300q53 55 71 91l24 82l191 902q11 54 -129 173h349l-106 -498q14 -1 29 -1q92 0 203 48q70 30 160 125
q122 128 122 218q0 75 -95 101l361 1q-73 -126 -174 -256q-128 -165 -211 -211q-112 -62 -183 -85q127 -26 204 -155q10 -16 103 -233q55 -128 123 -148q27 -24 102 -31q52 -5 120 0q69 5 51 6z" />
    <glyph glyph-name="L" unicode="L" horiz-adv-x="1035" 
d="M1053 249q-148 -182 -176 -317q-81 64 -369 59l-381 -7q74 74 90 105l23 82l171 803q14 65 -6 128q-26 85 -108 125h351l-239 -1123q2 -3 20 -9q35 -12 92 -12q279 0 532 166z" />
    <glyph glyph-name="M" unicode="M" horiz-adv-x="1721" 
d="M1950 1240q-134 -48 -138 -117l-201 -952q-7 -32 -8 -55q-2 -34 0 -45q7 -43 42 -71h-282q69 44 93 129l12 42l171 812q12 57 10 94l-550 -523q-104 -99 -105 -166l-427 601l-145 -682q-19 -91 16 -171q23 -52 94 -136h-337q92 113 111 205l189 889l-73 50q-32 9 -76 27
q-12 7 -51 47l87 11h270l399 -602l551 523l116 85z" />
    <glyph glyph-name="N" unicode="N" horiz-adv-x="1324" 
d="M1303 65q-13 -62 -44 -72l-18 4q4 -2 12 -10q-32 18 -66 70l-620 932l-145 -682q-19 -91 16 -171q23 -52 94 -136h-337q92 113 111 205l189 889l-73 50q-32 9 -76 27q-12 7 -51 47l87 11h270l604 -937l145 680q6 28 6 47q0 7 -1 11q-2 21 -16 57l-91 85l12 57h239z" />
    <glyph glyph-name="O" unicode="O" horiz-adv-x="1477" 
d="M1573 615q-66 -307 -324 -486q-234 -162 -517 -162q-288 0 -449 162q-133 133 -133 334q0 72 17 152q65 306 323 485q233 162 517 162q286 0 449 -162q134 -133 134 -334q0 -72 -17 -151zM1359 615q17 80 17 155q0 156 -82 260q-108 137 -307 137q-237 0 -402 -162
q-153 -149 -204 -390q-18 -85 -18 -159q0 -133 58 -230q98 -163 331 -163q237 0 403 162q153 149 204 390z" />
    <glyph glyph-name="P" unicode="P" horiz-adv-x="948" 
d="M1129 1015q-56 -263 -491 -436q-156 -62 -194 -62l-73 -346q-14 -67 -11 -93t33 -78h-306q62 52 74 79l27 92l173 813q16 75 -16 130q-38 64 -57 64l9 48l31 2q16 1 31 1q114 0 164 -61l14 -34q176 120 350 120q99 0 167 -43q81 -51 81 -144q0 -24 -6 -52zM911 999
q5 24 5 42q0 95 -131 95q-69 0 -135 -26q-87 -34 -99 -92l-81 -382q386 101 441 363z" />
    <glyph glyph-name="Q" unicode="Q" horiz-adv-x="1696" 
d="M1614 -220q-278 42 -355 99q-91 67 -151 169q-176 -81 -376 -81q-288 0 -449 162q-133 133 -133 334q0 72 17 152q65 306 323 485q233 162 517 162q286 0 449 -162q134 -134 134 -334q0 -71 -17 -151q-68 -320 -348 -502l3 -5q18 -30 39 -62q57 -87 156 -156
q31 -22 191 -110zM1359 615q17 81 17 155q0 156 -82 260q-108 137 -307 137q-237 0 -402 -162q-153 -149 -204 -390q-18 -85 -18 -159q0 -133 58 -230q98 -163 331 -163q166 0 303 87q-9 18 -21 44q-52 118 -83 163q-59 87 -119 136l-200 163q180 -44 234 -69
q126 -58 213 -184q31 -45 86 -163q147 151 194 375z" />
    <glyph glyph-name="R" unicode="R" horiz-adv-x="1160" 
d="M1125 0h-246q-82 53 -179 192q-10 15 -138 225q-52 86 -116 104l-75 -350q-14 -66 -11 -92t33 -79h-306q62 52 74 79l27 92l173 813q16 75 -16 130q-38 64 -57 64l9 48l31 2q16 1 31 1q114 0 164 -61l14 -34q176 120 350 120q99 0 167 -43q81 -51 81 -144q0 -24 -6 -52
q-56 -264 -491 -436q95 -59 176 -187q28 -47 110 -179q100 -158 201 -213zM911 999q5 24 5 42q0 95 -131 95q-69 0 -135 -26q-87 -34 -99 -92l-81 -382q386 101 441 363z" />
    <glyph glyph-name="S" unicode="S" horiz-adv-x="1003" 
d="M1045 362q-39 -185 -230 -283q-158 -81 -361 -81q-196 0 -399 90q83 125 92 145q13 30 42 162q85 -301 326 -301q290 0 327 176q5 24 5 45q0 111 -134 165l-338 92q-158 63 -159 204q0 31 7 65q33 155 199 271q114 80 201 102q59 15 182 15q182 0 340 -77l-34 -51
q-26 -29 -46 -66l-7 -25q-4 -26 -14 -70q-10 -16 -57 -48q-9 242 -263 242q-121 0 -211 -71q-97 -77 -97 -196q0 -96 139 -137l338 -99q159 -70 159 -209q0 -27 -7 -60z" />
    <glyph glyph-name="T" unicode="T" horiz-adv-x="1473" 
d="M1700 1232l-101 -62q-66 -41 -96 -108l-40 -90q-63 93 -97 117q-49 35 -154 35h-131l-203 -953q-15 -69 -12 -93q3 -28 35 -78h-300q53 54 71 89l23 82l172 808q6 28 6 51q0 54 -32 81q-6 5 -24 13h-163q-125 0 -204 -33l-206 -111l162 181q71 79 104 233
q36 -98 104 -133q56 -29 170 -29h916z" />
    <glyph glyph-name="U" unicode="U" horiz-adv-x="1255" 
d="M1347 596q-55 -256 -231 -429q-193 -190 -454 -190l-20 1q-19 1 -39 0l-19 -1q-262 0 -374 190q-66 112 -66 261q0 280 187 474q50 49 156 155q2 8 -17 31l-90 108q37 33 57 33h258q15 0 24 -4l6 -14l-6 -29q-262 -209 -342 -586q-20 -94 -20 -170q0 -114 44 -193
q51 -91 72 -111q52 -49 169 -54q129 6 198 54q19 13 115 111q129 131 178 363q25 118 25 223q0 220 -119 363l6 29l12 14q10 4 26 4h258q20 0 43 -33l-136 -108q-27 -22 -29 -31q9 -23 90 -155q48 -106 48 -211q0 -48 -10 -95z" />
    <glyph glyph-name="V" unicode="V" horiz-adv-x="1449" 
d="M1675 1229l-112 -163l-306 -397q-199 -258 -485 -674q-21 -30 -48 -34q-49 0 -75 140q-10 54 -39 215q-54 295 -156 574q-35 96 -157 339h392q15 -5 37 -32q-72 -48 -88 -98l-2 -30q26 -275 174 -695q8 -20 39 -106l349 450q130 168 229 324l12 33q4 27 -10 53l-82 87
l71 14h257z" />
    <glyph glyph-name="W" unicode="W" horiz-adv-x="1987" 
d="M2079 597q-55 -257 -230 -429q-193 -190 -455 -190q-13 0 -37.5 -2t-37.5 -2q-115 0 -177 19q-79 24 -151 99q-182 -115 -407 -115q-262 0 -374 190q-66 112 -66 261q0 280 187 474q50 49 156 155q2 8 -17 31l-90 108q37 33 57 33h258q15 0 24 -4l6 -14l-6 -29
q-262 -209 -342 -586q-20 -94 -20 -171q0 -340 349 -340q131 0 239 71q-74 134 -74 289q0 71 17 151q54 253 235 461q2 10 -16 31l-92 108q37 33 56 33h203q42 0 39 -42q-141 -258 -211 -591q-22 -104 -22 -191q0 -82 20 -148q55 -181 217 -181h9q216 0 371 158
q116 119 168 363q24 113 25 213q2 227 -119 373l7 29l12 14q9 4 25 4h258q20 0 43 -33l-136 -108q-27 -22 -29 -31q9 -23 90 -155q48 -106 48 -211q0 -48 -10 -95z" />
    <glyph glyph-name="X" unicode="X" horiz-adv-x="1374" 
d="M1339 -2l-275 -5q-96 236 -134 320q-70 154 -163 303q-135 -150 -259 -292q-111 -128 -209 -316l-262 -5q126 164 326 357l351 339l-102 231q-71 161 -155 161q-36 0 -96 -15l-96 -24q197 145 301 145q96 0 170 -138q7 -13 110 -217q117 131 231 252q147 156 267 156
q88 0 157 -33q-38 -71 -101 -142q-59 35 -112 35q-68 0 -138 -62q-48 -42 -128 -141.5t-128 -141.5z" />
    <glyph glyph-name="Y" unicode="Y" horiz-adv-x="1308" 
d="M1534 1227q-337 -373 -676 -780l-479 -576q-50 -60 -52 -70q-2 -8 4 -13q25 -13 79 -35q37 -12 38 -36l-328 -6l511 609l-91 278l-127 405q-16 33 -115 231h392q8 0 37 -32q-79 -53 -88 -98q-3 -15 -3 -34q0 -141 151 -565l261 289q189 209 210 279q8 63 -92 140l71 14
h297z" />
    <glyph glyph-name="Z" unicode="Z" horiz-adv-x="1433" 
d="M1439 194q-1 -6 -119 -72q-131 -73 -174 -122q-19 -11 -248 -11q-122 0 -430 5l-370 6l-58 21l1285 1029h-577q-154 0 -381 -59l-33 30q130 115 147 133q42 45 117 150q32 -30 47 -40q37 -38 120 -57l128 -14l158 -3q65 -1 415 17q58 3 38 3q115 0 106 -48
q-16 -24 -23 -29l-1200 -945q23 -21 239 -21q135 0 398 11l239 10q58 2 95 15q27 9 90 33z" />
    <glyph glyph-name="bracketleft" unicode="[" horiz-adv-x="606" 
d="M581 46l-341 -112h-218l292 1348q19 39 54 58q66 36 108 41h375l-330 -121l-33 5l-259 -1219h352z" />
    <glyph glyph-name="backslash" unicode="\" horiz-adv-x="972" 
d="M927 -45h-176q12 59 -42 311q-18 79 -69 314q-46 215 -143 602q-46 108 -82 144l-85 56l24 52h207l285 -1271q21 -92 29 -113q14 -36 52 -95z" />
    <glyph glyph-name="bracketright" unicode="]" horiz-adv-x="608" 
d="M590 78q-18 -84 -74 -111q-77 -37 -107 -41h-375l330 121l35 -5l259 1218h-354l341 112h220z" />
    <glyph glyph-name="asciicircum" unicode="^" horiz-adv-x="654" 
d="M859 1130h-202l32 22q9 4 27 26q-11 22 -83 140q-105 -88 -112 -125q-2 -11 -2 -25v-13l-1 -11l-2 -20l-18 6h-222q91 59 195 144q25 23 83 76q37 33 98 94q12 -21 108 -153q61 -84 99 -161z" />
    <glyph glyph-name="underscore" unicode="_" horiz-adv-x="1395" 
d="M1353 -33l-290 -87h-1053l290 87h1053z" />
    <glyph glyph-name="grave" unicode="`" horiz-adv-x="463" 
d="M666 1119h-176q6 6 14 24q3 16 -7 39q-57 131 -167 200l24 52h207l23 -107q26 -123 82 -208z" />
    <glyph glyph-name="a" unicode="a" horiz-adv-x="757" 
d="M763 1h-204q-24 0 -36 29q-9 23 -3 34q2 5 8 16q-137 -88 -233 -88q-90 0 -149 36q-72 44 -72 128q0 21 6 49q42 198 230 246q168 43 217 63q71 29 112 83q-73 49 -181 49q-90 0 -237 -37q148 114 339 114q94 0 187 -34q48 -25 48 -78q0 -11 -4 -30l-102 -480
q-1 -5 7 -18q10 -66 67 -82zM552 189l67 316q-57 -49 -123 -70q-132 -43 -149 -53q-65 -39 -85 -131q-5 -23 -5 -43q0 -92 108 -92q81 0 187 73z" />
    <glyph glyph-name="b" unicode="b" horiz-adv-x="983" 
d="M1021 342q-35 -167 -169 -267q-130 -98 -303 -98q-44 0 -148 11q-29 3 -53 37l-23 33q-5 -1 -9 -5l-56 -53l-125 -6q16 47 24 57q55 53 63 89l177 836q3 12 -64 25q-74 14 -81 25l137 57q50 15 145 100l69 27l-119 -559q91 54 218 54q172 0 260 -94q67 -71 67 -180
q0 -42 -10 -89zM848 342q23 109 -12 189q-42 94 -149 94q-51 0 -136 -49q-92 -53 -102 -99l-64 -301q-1 -5 -1 -10q0 -41 72 -78q63 -32 110 -32q107 0 189 96q70 82 93 190z" />
    <glyph glyph-name="c" unicode="c" horiz-adv-x="753" 
d="M762 206q-131 -224 -345 -224q-180 0 -260 106q-54 72 -54 177q0 48 13 110q31 149 176 245q131 87 285 87q63 0 153 -38q105 -44 94 -94q-3 -16 -76 -59q-61 -36 -93 -49q15 23 20 47q11 53 -33 86q-38 29 -93 29q-101 0 -177 -91q-65 -78 -88 -186q-8 -38 -8 -67
q0 -71 39 -127q58 -83 171 -83q45 0 119 30q91 37 157 101z" />
    <glyph glyph-name="d" unicode="d" horiz-adv-x="944" 
d="M912 16l-46 -33q-31 -2 -53 -2q-23 0 -36 2q-17 5 -35 16q-37 11 -64 40q-120 -62 -252 -62q-333 0 -333 251q0 40 11 91q38 175 168 280.5t309 105.5q120 0 196 -52l62 294q20 94 -52 112q-13 3 -158 3q231 56 292 96q71 46 104 56q20 -31 16 -50l-201 -947
q-8 -38 -8 -70q0 -29 7 -48q15 -42 73 -83zM675 176l65 302q1 5 1 12q0 48 -66 93q-61 43 -111 43q-96 0 -186 -109q-79 -96 -101 -198q-23 -107 15 -180q42 -83 151 -83q61 0 153 47q71 36 79 73z" />
    <glyph glyph-name="e" unicode="e" horiz-adv-x="808" 
d="M831 272q-164 -290 -428 -290q-149 0 -237 107q-65 79 -65 180q0 38 8 75q35 163 154.5 263t285.5 100q126 0 188 -63q55 -57 75 -186l-529 -91l-5 -12q5 10 9 19q1 -4 -1 -12q-8 -37 -8 -73q0 -71 34 -126q54 -88 169 -88q97 0 196 59q91 54 154 138zM651 517
q-1 55 -44 87t-98 25q-87 -11 -143 -78l-65 -101z" />
    <glyph glyph-name="f" unicode="f" horiz-adv-x="666" 
d="M938 999l-23 -6q-16 0 -80 -35q-13 -7 -73 -39l61 75q-4 64 -122 64q-41 0 -83 -42q-60 -60 -79 -149l-33 -157l296 -2l-70 -93l-246 2l-130 -614l-182 -121l156 736l-163 -3l45 71q23 15 35 52q15 46 25 61q17 -53 57 -72q4 -5 22 -14l31 150q30 97 78 148l74 61
q98 81 230 81q70 0 129 -52q49 -43 45 -102z" />
    <glyph glyph-name="g" unicode="g" horiz-adv-x="961" 
d="M1075 700q-87 -30 -97 -35q-22 -11 -45 -68q-25 -62 -68 -266q-71 -339 -127 -448q-149 -291 -439 -291q-113 0 -206 75l-79 104q74 19 159 123q-5 -27 32.5 -96.5t62.5 -89.5q43 -33 89 -33q122 0 211 156q62 109 90 256q-171 -111 -339 -111q-130 0 -192 87
q-41 58 -41 137q0 36 9 78q38 178 215 299q159 109 328 113zM795 495q17 89 -10 94l-10 2q0 2 3 5h-99q-149 0 -266 -88q-124 -92 -146 -235q-12 -79 25 -138q40 -65 119 -65q90 0 182 73q80 63 129 152q54 97 73 200z" />
    <glyph glyph-name="h" unicode="h" horiz-adv-x="870" 
d="M856 165l-67 -165h-159q129 292 129 445q0 175 -152 175q-54 0 -117 -26q-78 -32 -88 -79l-87 -413q-4 -18 30 -102h-265q73 75 79 102l163 770q7 34 -21 64q-42 44 -53 44l7 48q68 10 173 67l153 83l-21 -79q-55 -101 -68 -162l-60 -283h4q148 61 263 61q224 0 224 -235
q0 -150 -67 -315z" />
    <glyph glyph-name="i" unicode="i" horiz-adv-x="433" 
d="M516 895q-15 -70 -118 -80q-95 0 -88 78q16 75 119 79q43 2 66.5 -16t20.5 -61zM398 0h-284l56 45q23 23 30 55l92 430q3 14 3 29q0 38 -28 54q-25 8 -35 16q-18 8 -50 59h299l-125 -588q-3 -14 -3 -25q0 -7 1 -12q1 -12 44 -63z" />
    <glyph glyph-name="j" unicode="j" horiz-adv-x="415" 
d="M517 895q-15 -70 -118 -80q-95 0 -88 78q16 75 119 79q43 2 66.5 -16t20.5 -61zM337 6q-40 -186 -171 -306q-136 -124 -323 -133q266 103 338 439l111 519q3 14 3 32q0 39 -27 54q-25 9 -36 17q-17 8 -49 60h299z" />
    <glyph glyph-name="k" unicode="k" horiz-adv-x="842" 
d="M807 0h-156q20 92 20 166q0 265 -227 265q-32 0 -53 -5q-3 2 -7 3l-69 -327q-8 -37 46 -102h-290q81 68 88 102l168 790q7 34 -22 64q-42 44 -52 44l6 48q67 10 173 67l154 83l-22 -79q-56 -106 -68 -162l-97 -456q3 11 23 11q63 0 161 27q135 37 141 162l228 4l-92 -119
q-80 -65 -183 -103q154 -60 154 -283q0 -87 -24 -200z" />
    <glyph glyph-name="l" unicode="l" horiz-adv-x="459" 
d="M424 -1h-300q52 54 71 89l23 82l170 798q3 15 3 24q-1 50 -61 50q-26 0 -75 -11q61 73 171 111q52 18 192 46l-217 -1018q-15 -71 -13 -93q3 -27 36 -78z" />
    <glyph glyph-name="m" unicode="m" horiz-adv-x="1247" 
d="M1236 243l-83 -100l-6 -16q-4 -25 48 -86l5 -56h-269l29 72q120 135 158 316q17 82 -2 143q-25 79 -98 79q-97 0 -178 -71q7 -38 7 -74q0 -38 -8 -77q-14 -69 -121 -228l-7 -18q-4 -25 48 -86l7 -56h-267l18 70q114 151 150 320q19 89 -6 148q-30 72 -118 72
q-44 0 -112 -37q-59 -32 -64 -55l-80 -378q-2 -9 -2 -18q0 -20 9 -36l49 -38l-1 -48h-309l56 45q26 21 33 55l104 489q8 36 -46 101h223l-11 -55q124 68 237 68q101 0 162 -64l23 -37q120 101 276 101q131 0 183 -95q29 -53 29 -125q0 -125 -66 -225z" />
    <glyph glyph-name="n" unicode="n" horiz-adv-x="834" 
d="M796 -13h-267l18 70q114 151 150 320q9 42 9 75q0 145 -162 145q-45 0 -113 -37q-59 -32 -64 -55l-80 -378q-2 -9 -2 -18q0 -20 10 -36l48 -38l-1 -48h-309l57 45q24 19 32 55l104 489q8 36 -45 101h223l-12 -55q125 68 268 68q154 0 217 -161q4 -25 4 -52
q0 -49 -11 -102q-14 -68 -122 -228l-7 -18q-4 -25 48 -86z" />
    <glyph glyph-name="o" unicode="o" horiz-adv-x="815" 
d="M868 344q-35 -166 -167 -265q-128 -97 -300 -97q-169 0 -256 96q-66 72 -66 178q0 41 10 88q36 170 165 268q125 95 301 95q169 0 257 -96q66 -72 66 -179q0 -41 -10 -88zM695 344q24 113 -7 190q-37 95 -149 95q-113 0 -190 -96q-63 -79 -87 -189q-23 -109 8 -188
q38 -96 148 -96q108 0 186 91q67 78 91 193z" />
    <glyph glyph-name="p" unicode="p" horiz-adv-x="944" 
d="M985 359q-37 -175 -167.5 -280.5t-309.5 -105.5q-122 0 -196 52l-73 -344q-99 -127 -236 -127q-31 0 -46 7q-2 2 -1 4q4 19 66 70t66 69l161 757q8 38 8 69t-7 50q-15 40 -73 82l46 33q31 2 53 2t36 -2q16 -5 35 -16q36 -11 64 -40q120 62 252 62q333 0 333 -252
q0 -38 -11 -90zM812 359q22 106 -16 179q-43 84 -150 84q-62 0 -153 -47q-71 -37 -79 -73l-64 -302q-2 -6 -2 -12q0 -48 66 -93q61 -43 111 -43q96 0 186 109q80 96 101 198z" />
    <glyph glyph-name="q" unicode="q" horiz-adv-x="883" 
d="M993 684q-18 -47 -24 -57q-55 -53 -63 -89l-150 -706q-1 -5 -1 -16q0 -26 18 -53l-8 -38l-133 -88q-121 -80 -204 -80q109 64 146 151l68 319q-93 -54 -218 -54q-173 0 -261 94q-66 71 -66 179q0 44 10 90q36 167 169 268q129 97 303 97q50 0 148 -11.5t148 -11.5h29z
M679 201l64 301q10 45 -66 85q-66 35 -115 35q-107 0 -189 -96q-70 -82 -93 -190t12 -188q41 -95 149 -95q50 0 136 49q92 53 102 99z" />
    <glyph glyph-name="r" unicode="r" horiz-adv-x="711" 
d="M822 552q-36 -164 -321 -231q81 57 107 81q66 62 66 122q0 13 -3 26q-27 45 -42 53q-31 21 -81 21q-133 0 -143 -45l-99 -466l-3 -43q-1 -15 47 -70h-292l50 40q22 18 32 47l101 453q3 13 3 25q0 58 -70 82l10 12q11 13 14 27l57 6q65 7 115 -25l14 -12q102 62 226 62
q78 0 139 -29q77 -37 77 -107q0 -11 -4 -29z" />
    <glyph glyph-name="s" unicode="s" horiz-adv-x="705" 
d="M570 38q-103 -52 -217 -52q-274 0 -274 190q0 27 7 59q43 8 57 14q43 13 104 34q-20 -36 -20 -74q0 -58 50 -111q32 -34 93 -34q65 0 119 32q65 38 65 99q0 58 -108 94q-30 9 -172 54q-79 43 -79 122q0 126 133 196q88 46 198 46q241 0 232 -191q-86 -18 -146 -55
q4 28 4 51q0 117 -114 117q-61 0 -105.5 -41t-44.5 -102q0 -60 170 -99q194 -45 194 -156q0 -119 -146 -193z" />
    <glyph glyph-name="t" unicode="t" horiz-adv-x="653" 
d="M654 0q-46 -3 -86 -3q-192 0 -261 60q-54 47 -54 146q0 48 13 109h1l65 300h-166l45 71q23 15 29 40q4 48 21 73q24 -73 92 -84l40 183q14 62 -24 83q-25 8 -36 16q-17 8 -49 59h299l-74 -348h293l-71 -93h-242l-67 -317q-26 -122 5 -164q40 -54 48 -60q46 -35 179 -71z
" />
    <glyph glyph-name="u" unicode="u" horiz-adv-x="797" 
d="M823 305q-65 -307 -404 -321q-170 -7 -252 61q-35 29 -50 100q-8 38 -8 71q0 39 9 80q15 69 121 228l7 18q2 25 -48 86l-7 56h267l-17 -70q-116 -152 -151 -320q-29 -140 3 -175q30 -51 163 -55l4 1q70 24 100 57q6 7 22 24l-1 -6l1 2q90 126 90 273q0 107 -46 206l1 72
h269l-29 -56q-78 -61 -84 -86v-16l39 -100q8 -31 8 -64t-7 -66z" />
    <glyph glyph-name="v" unicode="v" horiz-adv-x="868" 
d="M979 688q-81 -132 -261 -371l-274 -364q-20 87 -59 214q-19 46 -58 192q-33 126 -84 218l-61 111h282q7 0 14 3q1 1 3 2l-3 -12q-17 -50 -38 -130q-5 -19 -5 -49q0 -109 73 -309q265 385 268 398q5 40 -20 86l-6 11h229z" />
    <glyph glyph-name="w" unicode="w" horiz-adv-x="1226" 
d="M1256 305q-66 -308 -404 -321q-165 -6 -252 61l-24 37q-121 -101 -276 -101q-133 0 -184 94q-28 52 -28 124q0 126 67 227l82 100l6 16q2 25 -48 86l-5 56h269l-29 -72q-120 -135 -158 -316q-17 -79 3 -143q24 -79 97 -79q96 0 178 71q-7 38 -7 74q0 40 8 77
q15 69 121 228l7 18q2 25 -48 86l-7 56h267l-17 -70q-116 -152 -151 -320q-29 -140 3 -175q30 -51 163 -55l4 1q70 24 100 57q6 7 22 24l-1 -6l1 2q90 126 90 273q0 107 -46 206l1 72h269l-29 -56q-78 -61 -84 -86v-16l39 -100q8 -31 8 -64t-7 -66z" />
    <glyph glyph-name="x" unicode="x" horiz-adv-x="942" 
d="M960 113q-68 -80 -117 -107q-43 -31 -101 -31q-157 0 -264 273q-19 -27 -42 -58q-15 -20 -95 -82q-139 -108 -285 -108h-121q108 24 207 94q64 45 177 151l79 74q16 24 33 49q-82 218 -161 218q-32 0 -117 -45q14 67 69 107t125 40q155 0 217 -162q151 162 327 162
q69 0 158 -50l-85 -87l-104 -61q-6 20 -17 49q-12 18 -46 23q-50 -1 -113 -57l-83 -88l72 -234q40 -130 94 -130q10 -4 31 -4q79 0 162 64z" />
    <glyph glyph-name="y" unicode="y" horiz-adv-x="874" 
d="M985 688l-59 -45q-26 -20 -34 -57l-106 -497q-41 -194 -112 -275l-35 -40q-154 -176 -387 -176q-49 0 -87 9q-143 34 -179 141l155 145l3 -36q-5 -22 -5 -41q0 -65 48 -103q44 -35 111 -35q63 0 135 44q65 39 109 94q35 44 50 105q6 26 28 119q-139 -72 -249 -72
q-124 0 -198 55q-85 62 -85 182q0 115 66 218q19 30 90 121q1 35 -50 90l-1 54h267l-29 -74q-121 -138 -160 -324q-21 -98 15 -159q39 -67 139 -67q76 0 149 33q64 29 71 61l82 387q2 9 2 19q0 20 -9 36l-49 39l1 49h313z" />
    <glyph glyph-name="z" unicode="z" horiz-adv-x="925" 
d="M937 222q-62 -165 -162 -213q-8 -4 -61 -9h-599l-54 43l673 526h-270q-104 0 -195 -30q-6 -1 -127 -42l177 149q35 30 78 98l52 -39q51 -30 158 -30q33 0 145 7q14 1 78 7q52 5 77 5q76 0 68 -38q-19 -23 -24 -27l-645 -503h423q109 0 208 96z" />
    <glyph glyph-name="braceleft" unicode="{" horiz-adv-x="518" 
d="M774 1369q-55 -7 -101.5 -53t-58.5 -101l-78 -369q-23 -108 -146 -181l7 -5q6 -4 22 -25q44 -56 43 -117q0 -19 -4 -37l-78 -369q-9 -44 17 -97q29 -57 74 -57l-10 -48q-264 0 -262 183q0 33 7 64l69 324q3 14 3 30q0 46 -30 88l-70 68q154 81 175 179l69 325
q27 125 131 189q93 57 228 57z" />
    <glyph glyph-name="bar" unicode="|" horiz-adv-x="227" 
d="M192 0h-156l301 1415h156z" />
    <glyph glyph-name="braceright" unicode="}" horiz-adv-x="519" 
d="M626 667l-100 -68q-64 -56 -77 -118l-69 -324q-53 -247 -360 -247l10 48q41 0 96 57q53 54 62 97l78 369q25 116 138 179l9 5q-74 60 -74 141q0 16 5 40l78 369q4 19 4 34q0 107 -99 120l13 48q263 0 263 -188q0 -25 -7 -58l-69 -325q-3 -14 -3 -29q0 -81 102 -150z" />
    <glyph glyph-name="asciitilde" unicode="~" horiz-adv-x="774" 
d="M1056 1494q-90 -77 -137 -102q-76 -40 -154 -27l-60 18q-90 47 -126 53q-24 4 -50 4q-28 0 -59 -4l-136 -32q94 76 132 96q84 44 168 30l62 -19l99 -46q81 -14 119 -10q4 0 142 39z" />
    <glyph glyph-name="nonbreakingspace" unicode="&#xa0;" horiz-adv-x="1492" 
 />
    <glyph glyph-name="exclamdown" unicode="&#xa1;" horiz-adv-x="395" 
d="M487 915q-39 -30 -85 -30q-91 0 -91 81q0 61 51 102q38 30 85 30q91 0 91 -82q0 -61 -51 -101zM526 782q-82 -66 -90 -103l-127 -597q-4 -17 -15 -105q-11 -83 -18 -128l-54 37q-17 11 -44 36q-89 60 -144 69l14 48q12 0 71 44q41 30 48 65l113 531q7 33 -9 57
q-6 7 -40 46h295z" />
    <glyph glyph-name="cent" unicode="&#xa2;" horiz-adv-x="753" 
d="M762 206q-131 -224 -345 -224q-63 0 -114 13l-63 -105h-151q55 47 125 144q-111 73 -111 232q0 48 13 109q32 150 171 244q130 88 290 88q8 0 16 -1l10 70v11l-12 27l-14 49q41 23 57 23h213l-130 -212l13 -5q95 -37 95 -84q0 -5 -1 -10q-3 -16 -76 -59q-61 -36 -93 -49
q22 36 22 67q0 26 -17 47l-290 -476q48 -30 116 -30q45 0 119 30q91 37 157 101zM568 628q-9 1 -19 1q-101 0 -177 -91q-65 -78 -88 -186q-8 -38 -8 -66q0 -62 28 -111l251 425q7 12 13 28z" />
    <glyph glyph-name="sterling" unicode="&#xa3;" horiz-adv-x="887" 
d="M859 33q-25 -33 -53 -33h-688l-30 35l93 46q27 22 47 54l102 483l-163 -3l45 71q23 15 35 52q15 46 25 61q17 -53 57 -72q4 -5 22 -14l31 150q30 97 78 148l74 61q98 81 230 81q70 0 129 -52q49 -43 45 -102l-23 -6q-15 0 -80 -35l-73 -39l61 75q-4 64 -122 64
q-41 0 -83 -42q-60 -60 -79 -149l-33 -157l296 -2l-70 -93l-246 2l-112 -530l40 -3l52 -2l52 2l51 4q92 7 225 95l64 19l-24 -68q-5 -27 25 -101z" />
    <glyph glyph-name="currency" unicode="&#xa4;" horiz-adv-x="898" 
d="M1121 1218l-223 -185q41 -47 41 -113q0 -24 -6 -52q-23 -109 -119 -175l25 -31q75 -92 134 -141h-132l-104 132q-71 -27 -156 -27t-143 27l-159 -132h-132q86 53 193 141l38 31q-52 50 -52 123q0 134 112 219l-143 183h164q13 0 42 -15l-15 -33l-12 -18l-1 -7
q4 -28 32 -70q80 35 179 35t163 -37q47 44 64 72l2 7l-4 18l-1 33q36 15 48 15h165zM790 903q0 55 -34 91t-89 36q-78 0 -136 -63t-58 -142q0 -44 25 -79q35 -49 98 -49q68 0 123 51q71 66 71 155z" />
    <glyph glyph-name="yen" unicode="&#xa5;" horiz-adv-x="1308" 
d="M1534 1227q-293 -326 -676 -780l-48 -57h290q-84 -47 -97 -97h-274l-102 -123h426q-84 -47 -96 -97h-410l-168 -202q-50 -60 -52 -70q-2 -8 4 -13q25 -13 79 -35q37 -12 38 -36l-328 -6l304 362h-240q68 35 96 97h224l104 123h-378q69 35 97 97h281l-68 208l-127 405
q-16 33 -115 231h392q8 0 37 -32q-79 -53 -88 -98q-3 -15 -3 -34q0 -141 151 -565l261 289q189 209 210 279q8 63 -92 140l71 14h297z" />
    <glyph glyph-name="brokenbar" unicode="&#xa6;" horiz-adv-x="227" 
d="M359 787h-156l134 628h156zM191 -4h-156l134 628h156z" />
    <glyph glyph-name="section" unicode="&#xa7;" horiz-adv-x="742" 
d="M962 1201l-56 -79q-19 -36 -49 -175q-32 121 -66 167q-56 76 -161 76q-81 0 -148 -25q-108 -40 -108 -125q0 -76 116 -115l245 -83q109 -51 109 -138q0 -15 -4 -34q-33 -155 -191 -229q109 -40 109 -137q0 -21 -5 -44q-28 -132 -166 -210q-121 -68 -259 -68
q-114 0 -239 57q24 37 34 45q14 14 25 40l2 19l8 34q8 35 64 47q-2 -162 176 -162q75 0 149 47q84 53 84 124q0 61 -119 103l-244 87q-109 54 -109 139q0 17 3 31q33 156 194 228q-111 49 -111 144q0 17 5 40q30 138 153 206q105 59 258 59q151 0 301 -69zM717 629q1 8 1 15
q0 60 -105 102q-36 14 -132 34q-65 -1 -119 -35q-60 -37 -73 -97q-4 -18 -4 -30q0 -100 161 -127q56 -9 94 -15q150 28 177 153z" />
    <glyph glyph-name="dieresis" unicode="&#xa8;" horiz-adv-x="566" 
d="M784 1190q-16 -77 -119 -79q-43 -1 -65 16q-26 19 -22 61q14 69 117 79q93 0 89 -77zM495 1190q-16 -77 -119 -79q-43 -1 -65 16q-26 19 -22 61q14 68 117 79q93 0 89 -77z" />
    <glyph glyph-name="copyright" unicode="&#xa9;" horiz-adv-x="1072" 
d="M1168 615q-48 -225 -232 -355q-167 -118 -369 -118q-221 0 -332 125q-82 93 -82 229q0 54 14 119q48 223 231 354q167 119 370 119q216 0 329 -127q84 -94 84 -231q0 -54 -13 -115zM1069 615q10 47 10 91q0 111 -67 186q-91 102 -264 102q-183 0 -312 -100
q-133 -102 -170 -279q-11 -52 -11 -95q0 -111 65 -184q89 -100 267 -100q179 0 312 103t170 276zM1048 899l-67 -48l-19 -18l-10 -19l-19 -90q-40 65 -68 83q-36 23 -113 23q-106 0 -185 -57q-83 -59 -105 -160q-21 -99 15 -163q40 -71 141 -71q79 0 153 55q43 32 123 118
l-34 -161q-117 -81 -268 -81q-143 0 -213 81q-49 57 -49 143q0 37 9 79q30 140 164 218q116 68 264 68h281z" />
    <glyph glyph-name="ordfeminine" unicode="&#xaa;" horiz-adv-x="623" 
d="M736 696h-155q-15 0 -26 17.5t-4 30.5q3 6 6 13q-104 -68 -177 -68q-167 0 -167 125q0 19 4 38q32 152 175 189q122 32 166 49q54 21 84 63q-54 38 -137 38q-68 0 -180 -28q113 87 258 87q72 0 142 -26q36 -20 36 -60q0 -14 -2 -23l-79 -368q0 -6 4 -14q8 -51 52 -63z
M576 840l51 243q-42 -37 -93 -54q-103 -34 -114 -41q-49 -28 -64 -100q-4 -19 -4 -34q0 -70 81 -70q62 0 143 56z" />
    <glyph glyph-name="guillemotleft" unicode="&#xab;" horiz-adv-x="1035" 
d="M1005 22l-183 -42q-21 119 -158 228l-173 138q319 95 431 329l202 27q-142 -261 -350 -355q205 -178 231 -325zM624 22l-183 -42q-21 119 -158 228l-173 138q319 95 431 329l202 27q-142 -261 -350 -355q205 -178 231 -325z" />
    <glyph glyph-name="logicalnot" unicode="&#xac;" horiz-adv-x="1319" 
d="M1360 357h-164l74 349h-1084l32 152h1248z" />
    <glyph glyph-name="minus" unicode="&#xad;" horiz-adv-x="770" 
d="M853 555q-84 -47 -97 -97h-623q69 35 97 97h623z" />
    <glyph glyph-name="minus" unicode="&#x2212;" horiz-adv-x="770" 
d="M853 555q-84 -47 -97 -97h-623q69 35 97 97h623z" />
    <glyph glyph-name="registered" unicode="&#xae;" horiz-adv-x="1072" 
d="M1202 774q-44 -211 -213.5 -342t-387.5 -131q-219 0 -331 126q-83 94 -83 230q0 51 14 117q48 225 231 355q167 118 370 118q216 0 329 -127q83 -94 83 -231q0 -58 -12 -115zM840 966q3 14 3 19q0 50 -77 50q-122 0 -134 -59l-40 -192q219 51 248 182zM1103 774
q10 46 10 91q0 109 -68 186q-91 102 -263 102q-150 0 -267 -71q68 1 99 -31l9 -17q99 60 200 60q64 0 105 -27q50 -32 37 -93q-28 -132 -276 -219q46 -24 106 -93q34 -54 134 -163q137 105 174 275zM880 465h-42q-50 26 -107 96q-15 20 -83 113q-32 43 -69 52l-37 -175
q-3 -14 -3 -27q0 -33 19 -59h-168q94 -70 231 -70q143 0 259 70zM437 551l87 408q1 5 1 14q0 22 -10 47q-14 36 -37 36l1 2l-6 -5q-138 -115 -173 -279q-11 -52 -11 -97q0 -133 96 -209q33 25 37 36z" />
    <glyph glyph-name="macron" unicode="&#xaf;" horiz-adv-x="984" 
d="M1123 819l-333 -65h-594l338 65h589z" />
    <glyph glyph-name="macron" unicode="&#x2c9;" horiz-adv-x="984" 
d="M1123 819l-333 -65h-594l338 65h589z" />
    <glyph glyph-name="degree" unicode="&#xb0;" horiz-adv-x="400" 
d="M586 1042q-12 -60 -71 -100q-55 -39 -118 -39q-62 0 -105 38q-48 41 -35 101q13 59 78 96q58 34 123 34q59 0 97 -35q43 -38 31 -95zM483 1021q4 29 -13.5 55t-46.5 26q-53 0 -61 -41q-6 -28 14 -61q16 -27 34 -27q56 0 73 48z" />
    <glyph glyph-name="plusminus" unicode="&#xb1;" horiz-adv-x="783" 
d="M898 707l-158 -127h-165l-47 -224l-128 -58l60 282h-301l159 127h169l42 196l129 67l-56 -263h296zM795 245q-83 -47 -99 -107h-623q67 34 99 107h623z" />
    <glyph glyph-name="twosuperior" unicode="&#xb2;" horiz-adv-x="715" 
d="M769 609l-96 -154l-502 -2l6 29q6 0 116 80q75 55 127 96q227 181 248 295q2 11 2 33q0 122 -128 122q-20 0 -48 -10q-36 -13 -35 -29q-36 -51 -36 -121q0 -21 4 -42l-50 6l-58 -3l-35 -8q8 42 40 101q39 72 77 96q101 64 213 64q177 0 177 -125q0 -17 -4 -36
q-45 -209 -432 -462h214q54 0 100 21q23 10 100 49z" />
    <glyph glyph-name="threesuperior" unicode="&#xb3;" horiz-adv-x="637" 
d="M715 649q-20 -94 -110 -153q-83 -54 -184 -54q-96 0 -174 39l-71 63q94 10 188 61l-8 -36q-3 -13 -3 -25q0 -54 64 -54q45 0 90 33q62 45 79 126q6 28 6 49q0 126 -206 150q134 33 164 47q84 39 98 102q12 55 -29 87q-36 28 -93 28q-36 0 -74 -35t-34 -71l-61 10h-14
q-9 0 -48 5q114 139 295 139q63 0 116 -24q68 -31 68 -86q0 -12 -2 -21q-18 -82 -91 -127q-20 -12 -82 -35q121 -67 121 -173q0 -21 -5 -45z" />
    <glyph glyph-name="acute" unicode="&#xb4;" horiz-adv-x="463" 
d="M722 1382q-89 -43 -139 -83q-43 -35 -114 -117q-21 -25 -24 -39q3 -10 5 -24h-176q92 87 170 208l69 107h207z" />
    <glyph glyph-name="mu1" unicode="&#xb5;" horiz-adv-x="834" 
d="M946 690l-31 -56q-78 -61 -85 -86v-18q28 -116 28 -184q0 -25 -4 -44q-18 -87 -58 -154q-93 -113 -186 -145q-66 -38 -74 -73q-3 -12 4 -29q27 -67 114 -67q61 0 104 41q-2 -43 -65 -71q-45 -20 -77 -20q-236 0 -249 111q-7 54 57 99q-87 15 -152 61l-95 -445h-223
q81 65 89 101l186 879q2 9 2 18q0 20 -11 37l-37 45h309l-20 -48l-65 -38q-24 -24 -30 -54l-80 -378q-5 -23 40 -55q52 -37 97 -37q200 0 247 220q15 70 15 138q0 94 -29 182l12 70h267z" />
    <glyph glyph-name="mu1" unicode="&#x3bc;" horiz-adv-x="834" 
d="M946 690l-31 -56q-78 -61 -85 -86v-18q28 -116 28 -184q0 -25 -4 -44q-18 -87 -58 -154q-93 -113 -186 -145q-66 -38 -74 -73q-3 -12 4 -29q27 -67 114 -67q61 0 104 41q-2 -43 -65 -71q-45 -20 -77 -20q-236 0 -249 111q-7 54 57 99q-87 15 -152 61l-95 -445h-223
q81 65 89 101l186 879q2 9 2 18q0 20 -11 37l-37 45h309l-20 -48l-65 -38q-24 -24 -30 -54l-80 -378q-5 -23 40 -55q52 -37 97 -37q200 0 247 220q15 70 15 138q0 94 -29 182l12 70h267z" />
    <glyph glyph-name="paragraph" unicode="&#xb6;" horiz-adv-x="1129" 
d="M1322 1072q-46 11 -71 11q-74 0 -89 -74l-227 -1100q2 -35 33 -89h-240q2 -3 5 -3q2 0 10 4t12 4q5 0 9 -5h-246q48 49 64 77.5t30 93.5l113 526q-39 0 -168 62q-313 150 -313 367q0 32 8 69q25 116 127 180q93 59 217 59q174 0 298 -120l28 34q52 41 69 49q23 11 92 11
h3v1q15 0 41 -4q45 -7 111.5 -59t83.5 -94zM823 -9l211 992q15 71 15 102q0 35 -20 35q-5 0 -11 -6q-57 -57 -72 -130l-222 -1085q-3 -32 4 -79q53 51 68 78q12 21 27 93z" />
    <glyph glyph-name="periodcentered" unicode="&#xb7;" 
d="M351 512q-17 -78 -120 -78q-41 0 -69 21q-19 18 -19 42q0 5 2 15q16 78 119 78q39 0 65 -19q30 -22 22 -59z" />
    <glyph glyph-name="periodcentered" unicode="&#x2219;" 
d="M351 512q-17 -78 -120 -78q-41 0 -69 21q-19 18 -19 42q0 5 2 15q16 78 119 78q39 0 65 -19q30 -22 22 -59z" />
    <glyph glyph-name="cedilla" unicode="&#xb8;" horiz-adv-x="472" 
d="M387 -214q-61 -111 -297 -111q-34 0 -68 19q-40 21 -40 52q0 10 4 20q27 -41 88 -41q85 0 142 67q13 15 16 29q7 31 -54.5 83.5t-61.5 51.5q3 15 20.5 44.5t28.5 29.5h159l-9 -42q-5 0 -15 -16.5t-11 -23.5q23 -17 69 -52q41 -32 41 -69q0 -19 -12 -41z" />
    <glyph glyph-name="onesuperior" unicode="&#xb9;" horiz-adv-x="396" 
d="M433 463h-184q35 32 45 53l13 49l105 492h-4l-25 3h-13l-66 -7l30 20q15 7 97 47q91 44 122 71q-6 -13 -8 -16v1q-3 -23 -13 -72l-121 -566q-3 -15 -4 -25q-1 -13 26 -50z" />
    <glyph glyph-name="ordmasculine" unicode="&#xba;" horiz-adv-x="485" 
d="M698 1165q-19 -87 -87.5 -137t-159.5 -50q-73 0 -119 34q-53 39 -53 109q0 20 5 44q18 88 87 138.5t160 50.5q72 0 119 -35q53 -39 53 -109q0 -22 -5 -45zM587 1165q6 28 6 51q0 78 -75 78q-96 0 -123 -129q-6 -27 -6 -47q-1 -78 75 -78q96 0 123 125z" />
    <glyph glyph-name="guillemotright" unicode="&#xbb;" horiz-adv-x="1035" 
d="M1073 342q-319 -94 -432 -328l-200 -27q139 261 350 355q-206 178 -232 325l182 40q20 -117 158 -227zM692 342q-319 -94 -432 -328l-200 -27q139 261 349 355q-206 176 -231 325l183 40q19 -117 157 -227z" />
    <glyph glyph-name="onequarter" unicode="&#xbc;" horiz-adv-x="1498" 
d="M1439 1434l-1176 -1479h-171q91 79 198 211l796 982q94 116 108 176l1 11l-13 27l-13 49q41 23 57 23h213zM414 533h-184q35 32 45 53l13 49l105 492h-4l-25 3h-13l-66 -7l30 20q28 14 97 47q90 43 123 71q-7 -13 -9 -16v1q-3 -23 -13 -72l-121 -566q-3 -15 -4 -25
q-1 -13 26 -50zM1534 384l-68 -66h-86l-35 -161q-2 -9 -2 -24q-3 -15 24 -51h-187q39 32 48 53l14 50l29 133h-363q74 72 99 104q78 100 98 195q4 19 4 35q0 29 -14 46l-79 40q20 16 28 20l-3 -1q60 31 123 31q37 -24 37 -90q0 -69 -23 -123q-49 -115 -109 -191h216l28 135
q6 30 -18 53q-10 9 -40 38q73 10 115 29l115 68l-13 -50q-34 -63 -41 -97l-37 -176h140z" />
    <glyph glyph-name="onehalf" unicode="&#xbd;" horiz-adv-x="1485" 
d="M1440 1434l-1176 -1479h-171q91 79 198 211l796 982q94 116 108 176l1 11l-13 27l-13 49q41 23 57 23h213zM416 533h-184q35 32 44 53l14 49l105 492h-4l-25 3h-14l-65 -7l30 20q28 14 97 47q90 43 122 71q-6 -13 -8 -16v1q-3 -23 -13 -72l-121 -566q-3 -15 -4 -25
q-1 -13 26 -50zM1490 249l-98 -154l-501 -2l6 29q7 0 116 80q78 57 127 96q222 175 245 286q5 24 5 42q0 122 -128 122q-19 0 -48 -10q-37 -13 -34 -29q-37 -52 -37 -123q0 -20 3 -40l-50 6l-56 -3l-37 -8q10 44 41 101q38 70 78 96q100 64 212 64q177 0 177 -125
q0 -17 -4 -36q-44 -209 -433 -462h214q57 0 101 21q20 10 101 49z" />
    <glyph glyph-name="threequarters" unicode="&#xbe;" horiz-adv-x="1713" 
d="M1651 1434l-1176 -1479h-171q91 79 198 211l796 982q94 116 108 176l1 11l-13 27l-13 49q41 23 57 23h213zM703 649q-20 -95 -109 -153q-82 -54 -184 -54q-96 0 -174 39l-71 63q94 10 188 61l-8 -36q-3 -13 -3 -25q0 -54 64 -54q44 0 89 33q63 46 80 126q6 28 6 50
q0 125 -206 149q134 33 164 47q83 39 97 102q12 55 -29 87q-35 28 -92 28q-37 0 -74.5 -35t-33.5 -71l-62 10h-13q-9 0 -48 5q113 139 294 139q63 0 116 -24q69 -31 69 -86q0 -12 -2 -21q-18 -81 -92 -127q-19 -11 -81 -35q120 -66 120 -173q0 -21 -5 -45zM1746 384l-67 -66
h-86l-35 -161q-1 -4 -3 -24q-2 -15 25 -51h-187q38 32 48 53l13 50l29 133h-362q74 72 99 104q78 100 98 195q4 19 4 35q0 29 -14 46l-80 40q20 16 29 20l-3 -1q60 31 123 31q36 -24 36 -89q0 -70 -23 -124q-49 -115 -108 -191h215l28 135q6 30 -18 53q-10 9 -40 38
q74 10 115 29l116 68l-13 -50q-34 -63 -41 -97l-37 -176h139z" />
    <glyph glyph-name="questiondown" unicode="&#xbf;" horiz-adv-x="799" 
d="M730 887q-22 -107 -134 -107q-91 0 -91 82q0 61 51 101q38 30 85 30q91 0 91 -81q0 -15 -2 -25zM775 52q-23 -109 -154 -179q-113 -60 -229 -60q-347 0 -347 201q0 27 7 60q27 128 126 224q56 55 178 126q96 56 103 78q21 64 25 91q6 39 -3 121h52q38 0 88 2q25 1 80 1
q-43 -38 -53 -86q-1 -32 -8 -96q-10 -48 -64 -78q-145 -82 -216 -153q-96 -97 -124 -230q-9 -43 -9 -73q0 -46 19 -69q32 -39 147 -39q89 0 157 68q62 62 82 153q12 55 -18 84q-24 23 -99 50q33 4 62 4q203 0 203 -155q0 -21 -5 -45z" />
    <glyph glyph-name="Agrave" unicode="&#xc0;" horiz-adv-x="1486" 
d="M1199 1319h-176q7 6 15 24q4 14 -7 39q-37 85 -64 117q-31 37 -104 83l24 52h207l24 -107q28 -124 81 -208zM1451 -1h-337q-9 104 -52 264l-62 230q-147 -28 -409 -183q-291 -172 -316 -289q-2 -10 0 -21l-70 -1l-169 1q76 47 362 442q51 71 431 601q8 21 8 43
q0 46 -43 86q-30 21 -60 43l196 14q89 6 104 -41q48 -154 116 -454q71 -317 112 -456q60 -207 189 -279zM983 549l-115 372l-457 -619q82 76 282 151q32 12 290 96z" />
    <glyph glyph-name="Aacute" unicode="&#xc1;" horiz-adv-x="1486" 
d="M1255 1582q-90 -45 -138 -83q-42 -33 -114 -117q-21 -25 -25 -39q3 -10 5 -24h-176q96 90 171 208l68 107h207zM1451 -1h-337q-9 104 -52 264l-62 230q-147 -28 -409 -183q-291 -172 -316 -289q-2 -10 0 -21l-70 -1l-169 1q76 47 362 442q51 71 431 601q8 21 8 43
q0 46 -43 86q-30 21 -60 43l196 14q89 6 104 -41q48 -154 116 -454q71 -317 112 -456q60 -207 189 -279zM983 549l-115 372l-457 -619q82 76 282 151q32 12 290 96z" />
    <glyph glyph-name="Acircumflex" unicode="&#xc2;" horiz-adv-x="1486" 
d="M1314 1311h-202l31 22q9 4 27 26q-12 22 -82 140q-105 -88 -113 -125q0 -12 -1 -25l-1 -13v-11l-3 -20l-17 6h-223q68 44 195 144q61 55 180 170q13 -20 110 -153q62 -85 99 -161zM1451 -1h-337q-9 104 -52 264l-62 230q-147 -28 -409 -183q-291 -172 -316 -289
q-2 -10 0 -21l-70 -1l-169 1q76 47 362 442q51 71 431 601q8 21 8 43q0 46 -43 86q-30 21 -60 43l196 14q89 6 104 -41q48 -154 116 -454q71 -317 112 -456q60 -207 189 -279zM983 549l-115 372l-457 -619q82 76 282 151q32 12 290 96z" />
    <glyph glyph-name="Atilde" unicode="&#xc3;" horiz-adv-x="1486" 
d="M1412 1494q-90 -77 -137 -102q-76 -40 -154 -27l-60 18q-90 47 -125 53q-23 4 -51 4t-59 -4l-136 -32q94 76 132 96q84 44 168 30l63 -19l98 -46q81 -14 119 -10q4 0 142 39zM1451 -1h-337q-9 104 -52 264l-62 230q-147 -28 -409 -183q-291 -172 -316 -289q-2 -10 0 -21
l-70 -1l-169 1q76 47 362 442q51 71 431 601q8 21 8 43q0 46 -43 86q-30 21 -60 43l196 14q89 6 104 -41q48 -154 116 -454q71 -317 112 -456q60 -207 189 -279zM983 549l-115 372l-457 -619q82 76 282 151q32 12 290 96z" />
    <glyph glyph-name="Adieresis" unicode="&#xc4;" horiz-adv-x="1486" 
d="M1296 1437q-16 -77 -118 -79q-43 -1 -67 17t-21 60q15 69 118 79q93 0 88 -77zM1007 1437q-16 -77 -118 -79q-43 -1 -67 17t-21 60q14 68 118 79q93 0 88 -77zM1451 -1h-337q-9 104 -52 264l-62 230q-147 -28 -409 -183q-291 -172 -316 -289q-2 -10 0 -21l-70 -1l-169 1
q76 47 362 442q51 71 431 601q8 21 8 43q0 46 -43 86q-30 21 -60 43l196 14q89 6 104 -41q48 -154 116 -454q71 -317 112 -456q60 -207 189 -279zM983 549l-115 372l-457 -619q82 76 282 151q32 12 290 96z" />
    <glyph glyph-name="Aring" unicode="&#xc5;" horiz-adv-x="1486" 
d="M1256 1440q-19 -88 -87 -137.5t-160 -49.5q-72 0 -119 35q-53 39 -53 109q0 20 5 43q19 87 89 139q67 50 158 50q74 0 120 -35q52 -39 52 -110q0 -21 -5 -44zM1451 -1h-337q-9 104 -52 264l-62 230q-147 -28 -409 -183q-291 -172 -316 -289q-2 -10 0 -21l-70 -1l-169 1
q76 47 362 442q51 71 431 601q8 21 8 43q0 46 -43 86q-30 21 -60 43l196 14q89 6 104 -41q48 -154 116 -454q71 -317 112 -456q60 -207 189 -279zM1151 1491q0 78 -75 78q-96 0 -123 -129q-6 -29 -6 -48q0 -77 76 -77q45 0 81 41q47 54 47 135zM983 549l-115 372l-457 -619
q82 76 282 151q32 12 290 96z" />
    <glyph glyph-name="AE" unicode="&#xc6;" horiz-adv-x="1885" 
d="M1856 27q-25 -33 -53 -33h-778l-30 35l93 46q30 25 41 41q14 55 31 147l42 230q-125 -22 -471 -183q-370 -172 -447 -289q-7 -11 -9 -21l-71 -1l-168 1q123 58 561 442q170 150 683 601q37 43 37 83q0 10 -2 19v1l-74 46l25 20l-3 3l7 1l16 11h150l29 2q30 2 51 -2h548
q28 0 39 -33q-62 -74 -68 -101l-5 -68l-56 19q-78 70 -215 95l-49 4l-51 2l-83 -2l-34 -3q-21 -134 -79 -390h502l-100 -125l-122 -96q-69 131 -250 131q-6 0 -23 1t-27 -2q-86 -388 -86 -514q0 -35 12 -67l64 -2l52 2l50 4q148 25 256 95l64 19l-24 -68q-6 -27 25 -101z
M1211 549l53 372l-717 -619q114 74 350 151q95 31 314 96z" />
    <glyph glyph-name="Ccedilla" unicode="&#xc7;" horiz-adv-x="1405" 
d="M1631 1229l-84 -59q-60 -42 -72 -97l-9 -42q-6 -10 -21 -81q-105 183 -381 183q-256 0 -439 -134q-192 -139 -244 -385q-17 -80 -17 -147q0 -131 59 -233q99 -171 327 -171q290 0 572 319l-53 -250q-193 -141 -469 -162q-10 -15 -11 -22q23 -17 68 -52q41 -33 41 -69
q0 -21 -11 -41q-61 -111 -297 -111q-34 0 -68 18q-40 21 -40 52q0 10 4 21q26 -41 88 -41q86 0 142 67q12 14 15 29q7 31 -54 83.5t-61 51.5q1 5 5 14q-217 19 -341 136q-133 124 -133 337q0 77 20 171q65 304 351 471q247 144 566 144h547z" />
    <glyph glyph-name="Egrave" unicode="&#xc8;" horiz-adv-x="933" 
d="M935 1319h-176q7 6 15 24q4 14 -7 39q-37 85 -64 117q-31 37 -104 83l24 52h207l24 -107q28 -124 81 -208zM904 29q-25 -33 -53 -33h-778l-29 35l92 46q33 28 44 45q3 13 11 40l2 2l192 902q2 9 2 20q0 32 -24 62l-73 46l44 35h778q28 0 39 -33q-62 -74 -67 -101l-6 -68
l-56 19q-78 70 -214 95l-50 4l-50 2l-84 -2l-40 -4l-83 -389h513l-101 -125l-121 -96q-65 123 -250 131q-4 0 -23 1q-38 1 -39 -10l-120 -569l39 -4l83 -2l51 2l51 4q147 25 255 95l64 19l-23 -68q-1 -3 -1 -10q0 -29 25 -91z" />
    <glyph glyph-name="Eacute" unicode="&#xc9;" horiz-adv-x="933" 
d="M991 1582q-90 -45 -138 -83q-42 -33 -114 -117q-21 -25 -25 -39q3 -10 5 -24h-176q96 90 171 208l68 107h207zM904 29q-25 -33 -53 -33h-778l-29 35l92 46q33 28 44 45q3 13 11 40l2 2l192 902q2 9 2 20q0 32 -24 62l-73 46l44 35h778q28 0 39 -33q-62 -74 -67 -101
l-6 -68l-56 19q-78 70 -214 95l-50 4l-50 2l-84 -2l-40 -4l-83 -389h513l-101 -125l-121 -96q-65 123 -250 131q-4 0 -23 1q-38 1 -39 -10l-120 -569l39 -4l83 -2l51 2l51 4q147 25 255 95l64 19l-23 -68q-1 -3 -1 -10q0 -29 25 -91z" />
    <glyph glyph-name="Ecircumflex" unicode="&#xca;" horiz-adv-x="933" 
d="M1030 1311h-202l31 22q9 4 27 26q-12 22 -82 140q-105 -88 -113 -125q0 -12 -1 -25l-1 -13v-11l-3 -20l-17 6h-223q68 44 195 144q61 55 180 170q13 -20 110 -153q62 -85 99 -161zM904 29q-25 -33 -53 -33h-778l-29 35l92 46q33 28 44 45q3 13 11 40l2 2l192 902
q2 9 2 20q0 32 -24 62l-73 46l44 35h778q28 0 39 -33q-62 -74 -67 -101l-6 -68l-56 19q-78 70 -214 95l-50 4l-50 2l-84 -2l-40 -4l-83 -389h513l-101 -125l-121 -96q-65 123 -250 131q-4 0 -23 1q-38 1 -39 -10l-120 -569l39 -4l83 -2l51 2l51 4q147 25 255 95l64 19
l-23 -68q-1 -3 -1 -10q0 -29 25 -91z" />
    <glyph glyph-name="Edieresis" unicode="&#xcb;" horiz-adv-x="933" 
d="M1012 1437q-16 -77 -118 -79q-43 -1 -67 17t-21 60q15 69 118 79q93 0 88 -77zM723 1437q-16 -77 -118 -79q-43 -1 -67 17t-21 60q14 68 118 79q93 0 88 -77zM904 29q-25 -33 -53 -33h-778l-29 35l92 46q33 28 44 45q3 13 11 40l2 2l192 902q2 9 2 20q0 32 -24 62l-73 46
l44 35h778q28 0 39 -33q-62 -74 -67 -101l-6 -68l-56 19q-78 70 -214 95l-50 4l-50 2l-84 -2l-40 -4l-83 -389h513l-101 -125l-121 -96q-65 123 -250 131q-4 0 -23 1q-38 1 -39 -10l-120 -569l39 -4l83 -2l51 2l51 4q147 25 255 95l64 19l-23 -68q-1 -3 -1 -10q0 -29 25 -91
z" />
    <glyph glyph-name="Igrave" unicode="&#xcc;" horiz-adv-x="556" 
d="M800 1319h-176q7 6 15 24q4 14 -7 39q-37 85 -64 117q-31 37 -104 83l24 52h207l24 -107q28 -124 81 -208zM512 0h-300q53 54 71 89l23 82l172 808q6 28 6 52q0 54 -32 80q-15 12 -96 41q-59 21 -61 68l49 9h370l-225 -1058q-15 -69 -12 -93q3 -28 35 -78z" />
    <glyph glyph-name="Iacute" unicode="&#xcd;" horiz-adv-x="556" 
d="M856 1582q-90 -45 -138 -83q-42 -33 -114 -117q-21 -25 -25 -39q3 -10 5 -24h-176q96 90 171 208l68 107h207zM512 0h-300q53 54 71 89l23 82l172 808q6 28 6 52q0 54 -32 80q-15 12 -96 41q-59 21 -61 68l49 9h370l-225 -1058q-15 -69 -12 -93q3 -28 35 -78z" />
    <glyph glyph-name="Icircumflex" unicode="&#xce;" horiz-adv-x="654" 
d="M898 1311h-202l31 22q9 4 28 26q-12 22 -83 140q-105 -88 -113 -125q0 -12 -1 -25l-1 -13v-11l-3 -20l-17 6h-222q67 44 194 144q61 55 181 170q13 -22 109 -153q62 -85 99 -161zM515 0h-300q54 54 71 89l23 82l172 808q6 28 6 51q0 54 -32 81q-16 13 -96 41
q-58 20 -61 68l49 9h370l-225 -1058q-15 -69 -12 -93q3 -28 35 -78z" />
    <glyph glyph-name="Idieresis" unicode="&#xcf;" horiz-adv-x="607" 
d="M877 1437q-16 -77 -118 -79q-43 -1 -67 17t-21 60q15 69 118 79q93 0 88 -77zM588 1437q-16 -77 -118 -79q-43 -1 -67 17t-21 60q14 68 118 79q93 0 88 -77zM512 0h-300q53 54 71 89l23 82l172 808q6 28 6 52q0 54 -32 80q-15 12 -96 41q-59 21 -61 68l49 9h370
l-225 -1058q-15 -69 -12 -93q3 -28 35 -78z" />
    <glyph glyph-name="Eth" unicode="&#xd0;" horiz-adv-x="1465" 
d="M1560 611q-59 -278 -274 -459q-218 -185 -500 -185q-90 0 -181 24q-106 28 -147 79l-15 -70l-183 -1l106 500q-50 -7 -81 -21l-163 -74q103 120 142 154q63 55 130 73l81 381q222 122 371 181q92 36 261 36q263 0 388 -179q83 -119 83 -279q0 -76 -18 -160zM1346 611
q18 85 18 159q0 110 -41 196q-79 167 -289 167q-144 0 -259 -74q-125 -81 -153 -216l-48 -227q34 -11 92 -27q7 -2 50 -2q74 0 153 46q14 8 134 95q-108 -147 -149 -186q-96 -92 -208 -92q-38 0 -103 21l-65 -306q99 -102 336 -102q193 0 351 184q138 161 181 364z" />
    <glyph glyph-name="Ntilde" unicode="&#xd1;" horiz-adv-x="1324" 
d="M1423 1494q-87 -75 -138 -102q-76 -40 -154 -27l-60 18q-89 47 -125 53q-24 4 -51 4t-58 -4l-137 -32q98 77 132 96q82 44 168 30l63 -19l98 -46q80 -14 119 -10q9 1 143 39zM1303 65q-13 -62 -44 -72l-18 4q4 -2 12 -10q-32 18 -66 70l-620 932l-145 -682
q-19 -91 16 -171q23 -52 94 -136h-337q92 113 111 205l189 889l-73 50q-32 9 -76 27q-12 7 -51 47l87 11h270l604 -937l145 680q6 28 6 47q0 7 -1 11q-2 21 -16 57l-91 85l12 57h239z" />
    <glyph glyph-name="Ograve" unicode="&#xd2;" horiz-adv-x="1477" 
d="M1197 1319h-176q6 6 14 24q4 16 -6 39q-34 77 -65 116q-35 42 -103 84l24 52h207l24 -107q29 -128 81 -208zM1573 615q-66 -307 -324 -486q-234 -162 -517 -162q-288 0 -449 162q-133 133 -133 334q0 72 17 152q65 306 323 485q233 162 517 162q286 0 449 -162
q134 -133 134 -334q0 -72 -17 -151zM1359 615q18 83 17 158q-1 154 -82 257q-107 137 -307 137q-237 0 -402 -162q-153 -149 -204 -390q-18 -85 -18 -159q0 -133 58 -230q98 -163 331 -163q237 0 403 162q153 149 204 390z" />
    <glyph glyph-name="Oacute" unicode="&#xd3;" horiz-adv-x="1477" 
d="M1253 1582q-88 -43 -138 -83q-44 -35 -114 -117q-21 -25 -25 -39q3 -10 5 -24h-176q96 90 171 208l68 107h207zM1573 615q-66 -307 -324 -486q-234 -162 -517 -162q-288 0 -449 162q-133 133 -133 334q0 72 17 152q65 306 323 485q233 162 517 162q286 0 449 -162
q134 -133 134 -334q0 -72 -17 -151zM1359 615q18 83 17 158q-1 154 -82 257q-107 137 -307 137q-237 0 -402 -162q-153 -149 -204 -390q-18 -85 -18 -159q0 -133 58 -230q98 -163 331 -163q237 0 403 162q153 149 204 390z" />
    <glyph glyph-name="Ocircumflex" unicode="&#xd4;" horiz-adv-x="1477" 
d="M1291 1311h-201l31 22q8 4 27 26q-12 22 -83 140q-104 -88 -112 -125q-2 -9 -2 -25v-13l-1 -11l-3 -20q-12 5 -16 6h-223q68 44 194 144q61 55 181 170q18 -30 109 -153q65 -88 99 -161zM1573 615q-66 -307 -324 -486q-234 -162 -517 -162q-288 0 -449 162
q-133 133 -133 334q0 72 17 152q65 306 323 485q233 162 517 162q286 0 449 -162q134 -133 134 -334q0 -72 -17 -151zM1359 615q18 83 17 158q-1 154 -82 257q-107 137 -307 137q-237 0 -402 -162q-153 -149 -204 -390q-18 -85 -18 -159q0 -133 58 -230q98 -163 331 -163
q237 0 403 162q153 149 204 390z" />
    <glyph glyph-name="Otilde" unicode="&#xd5;" horiz-adv-x="1477" 
d="M1390 1494q-87 -75 -138 -102q-76 -40 -154 -27l-60 18q-89 47 -125 53q-24 4 -51 4t-58 -4l-137 -32q98 77 132 96q82 44 168 30l63 -19l98 -46q80 -14 119 -10q9 1 143 39zM1573 615q-66 -307 -324 -486q-234 -162 -517 -162q-288 0 -449 162q-133 133 -133 334
q0 72 17 152q65 306 323 485q233 162 517 162q286 0 449 -162q134 -133 134 -334q0 -72 -17 -151zM1359 615q18 83 17 158q-1 154 -82 257q-107 137 -307 137q-237 0 -402 -162q-153 -149 -204 -390q-18 -85 -18 -159q0 -133 58 -230q98 -163 331 -163q237 0 403 162
q153 149 204 390z" />
    <glyph glyph-name="Odieresis" unicode="&#xd6;" horiz-adv-x="1477" 
d="M1273 1437q-16 -77 -118 -79q-43 -1 -67 17t-21 60q15 69 118 79q94 0 88 -77zM984 1437q-16 -77 -118 -79q-43 -1 -67 17t-21 60q14 68 118 79q94 0 88 -77zM1573 615q-66 -307 -324 -486q-234 -162 -517 -162q-288 0 -449 162q-133 133 -133 334q0 72 17 152
q65 306 323 485q233 162 517 162q286 0 449 -162q134 -133 134 -334q0 -72 -17 -151zM1359 615q18 83 17 158q-1 154 -82 257q-107 137 -307 137q-237 0 -402 -162q-153 -149 -204 -390q-18 -85 -18 -159q0 -133 58 -230q98 -163 331 -163q237 0 403 162q153 149 204 390z
" />
    <glyph glyph-name="multiply" unicode="&#xd7;" horiz-adv-x="539" 
d="M606 480l-67 -122l-157 199l-258 -213l43 183l145 120l-109 138l60 129l147 -186l254 209l-42 -182l-141 -117z" />
    <glyph glyph-name="Oslash" unicode="&#xd8;" horiz-adv-x="1477" 
d="M1573 617q-67 -312 -328 -491q-230 -158 -515 -158q-156 0 -280 53q-32 -42 -58 -99h-167l108 115l27 32q-209 136 -211 387q0 73 18 161q63 301 299 478q227 170 540 170q145 0 275 -50l9 14q4 8 29 65l1 3l-3 7l-11 25l-13 49q41 23 57 23h213l-189 -233
q132 -80 185 -231q30 -85 30 -179q0 -66 -16 -141zM1359 617q17 81 17 151q0 109 -40 197q-18 40 -57 84l-749 -924l44 -25q63 -36 177 -36q227 0 399 167q161 156 209 386zM1206 1111l-45 25q-59 33 -176 33q-232 0 -399 -164q-155 -152 -205 -388q-18 -85 -18 -158
q0 -168 94 -273z" />
    <glyph glyph-name="Ugrave" unicode="&#xd9;" horiz-adv-x="1255" 
d="M1104 1319h-176q6 6 14 24q4 16 -6 39q-34 77 -65 116q-35 42 -103 84l24 52h207l24 -107q29 -128 81 -208zM1347 596q-55 -256 -231 -429q-193 -190 -454 -190l-20 1q-19 1 -39 0l-19 -1q-262 0 -374 190q-66 112 -66 261q0 280 187 474q50 49 156 155q2 8 -17 31
l-90 108q37 33 57 33h258q15 0 24 -4l6 -14l-6 -29q-262 -209 -342 -586q-20 -94 -20 -170q0 -114 44 -193q51 -91 72 -111q52 -49 169 -54q129 6 198 54q19 13 115 111q129 131 178 363q25 118 25 223q0 220 -119 363l6 29l12 14q10 4 26 4h258q20 0 43 -33l-136 -108
q-27 -22 -29 -31q9 -23 90 -155q48 -106 48 -211q0 -48 -10 -95z" />
    <glyph glyph-name="Uacute" unicode="&#xda;" horiz-adv-x="1255" 
d="M1166 1582q-90 -45 -138 -83q-42 -33 -114 -117q-21 -25 -25 -39q3 -10 5 -24h-176q96 90 171 208l68 107h207zM1347 596q-55 -256 -231 -429q-193 -190 -454 -190l-20 1q-19 1 -39 0l-19 -1q-262 0 -374 190q-66 112 -66 261q0 280 187 474q50 49 156 155q2 8 -17 31
l-90 108q37 33 57 33h258q15 0 24 -4l6 -14l-6 -29q-262 -209 -342 -586q-20 -94 -20 -170q0 -114 44 -193q51 -91 72 -111q52 -49 169 -54q129 6 198 54q19 13 115 111q129 131 178 363q25 118 25 223q0 220 -119 363l6 29l12 14q10 4 26 4h258q20 0 43 -33l-136 -108
q-27 -22 -29 -31q9 -23 90 -155q48 -106 48 -211q0 -48 -10 -95z" />
    <glyph glyph-name="Ucircumflex" unicode="&#xdb;" horiz-adv-x="1255" 
d="M1205 1311h-202l31 22q9 4 27 26q-12 22 -82 140q-105 -88 -113 -125q0 -12 -1 -25l-1 -13v-11l-3 -20l-17 6h-223q68 44 195 144q61 55 180 170q13 -20 110 -153q62 -85 99 -161zM1347 596q-55 -256 -231 -429q-193 -190 -454 -190l-20 1q-19 1 -39 0l-19 -1
q-262 0 -374 190q-66 112 -66 261q0 280 187 474q50 49 156 155q2 8 -17 31l-90 108q37 33 57 33h258q15 0 24 -4l6 -14l-6 -29q-262 -209 -342 -586q-20 -94 -20 -170q0 -114 44 -193q51 -91 72 -111q52 -49 169 -54q129 6 198 54q19 13 115 111q129 131 178 363
q25 118 25 223q0 220 -119 363l6 29l12 14q10 4 26 4h258q20 0 43 -33l-136 -108q-27 -22 -29 -31q9 -23 90 -155q48 -106 48 -211q0 -48 -10 -95z" />
    <glyph glyph-name="Udieresis" unicode="&#xdc;" horiz-adv-x="1255" 
d="M1187 1437q-16 -77 -118 -79q-43 -1 -67 17t-21 60q15 69 118 79q93 0 88 -77zM898 1437q-16 -77 -118 -79q-43 -1 -67 17t-21 60q14 68 118 79q93 0 88 -77zM1347 596q-55 -256 -231 -429q-193 -190 -454 -190l-20 1q-19 1 -39 0l-19 -1q-262 0 -374 190
q-66 112 -66 261q0 280 187 474q50 49 156 155q2 8 -17 31l-90 108q37 33 57 33h258q15 0 24 -4l6 -14l-6 -29q-262 -209 -342 -586q-20 -94 -20 -170q0 -114 44 -193q51 -91 72 -111q52 -49 169 -54q129 6 198 54q19 13 115 111q129 131 178 363q25 118 25 223
q0 220 -119 363l6 29l12 14q10 4 26 4h258q20 0 43 -33l-136 -108q-27 -22 -29 -31q9 -23 90 -155q48 -106 48 -211q0 -48 -10 -95z" />
    <glyph glyph-name="Yacute" unicode="&#xdd;" horiz-adv-x="1308" 
d="M1183 1389q-155 -93 -272 -130q-17 -5 -73 -20q15 71 256 244q27 19 59 29q68 0 68 -62q0 -43 -38 -61zM1534 1227q-337 -373 -676 -780l-479 -576q-50 -60 -52 -70q-2 -8 4 -13q25 -13 79 -35q37 -12 38 -36l-328 -6l511 609l-91 278l-127 405q-16 33 -115 231h392
q8 0 37 -32q-79 -53 -88 -98q-3 -15 -3 -34q0 -141 151 -565l261 289q189 209 210 279q8 63 -92 140l71 14h297z" />
    <glyph glyph-name="Thorn" unicode="&#xde;" horiz-adv-x="1040" 
d="M1129 582q-36 -168 -167 -266q-126 -96 -300 -96h-250l-11 -50q-15 -70 -13 -93q3 -26 36 -78h-300q52 54 71 89l23 82l170 798q3 15 3 24q-1 50 -61 50q-26 0 -75 -11q61 73 171 111q52 18 192 46l-52 -244l250 1q167 1 256 -96q67 -73 67 -179q0 -42 -10 -88zM956 582
q23 111 -8 190q-38 95 -149 95h-250l-121 -569h249q108 0 187 91q68 78 92 193z" />
    <glyph glyph-name="germandbls" unicode="&#xdf;" horiz-adv-x="1045" 
d="M889 -32q-95 -59 -153 -73q-37 -9 -128 -9q-157 0 -240 80q-45 43 -45 136q0 55 16 128l200 -47l-17 -73q-5 -38 13 -62q41 -54 108 -54q69 0 125 48.5t70 117.5q6 29 6 51q0 96 -83 164q-45 36 -196 158q-86 69 -86 153q0 18 3 36q219 102 250 246q15 72 -4 136
q-24 78 -90 78q-77 0 -144 -93q-58 -80 -77 -170l-194 -914l-220 -164l229 1075q1 8 4 29q25 128 120 221q-26 0 -26 7q0 15 138 66q196 72 242 72q134 0 197 -91q44 -63 44 -146q0 -36 -9 -80q-21 -102 -122 -188l-164 -113q12 -23 201 -152q198 -135 198 -296
q0 -174 -166 -277z" />
    <glyph glyph-name="agrave" unicode="&#xe0;" horiz-adv-x="798" 
d="M760 869h-176q6 6 15 24q3 14 -8 39q-37 85 -64 117q-31 37 -103 83l24 52h207l23 -107q26 -121 82 -208zM763 1h-204q-24 0 -36 29q-9 23 -3 34q2 5 8 16q-137 -88 -233 -88q-90 0 -149 36q-72 44 -72 128q0 21 6 49q42 198 230 246q168 43 217 63q71 29 112 83
q-73 49 -181 49q-90 0 -237 -37q148 114 339 114q94 0 187 -34q48 -25 48 -78q0 -11 -4 -30l-102 -480q-1 -5 7 -18q10 -66 67 -82zM552 189l67 316q-57 -49 -123 -70q-132 -43 -149 -53q-65 -39 -85 -131q-5 -23 -5 -43q0 -92 108 -92q81 0 187 73z" />
    <glyph glyph-name="aacute" unicode="&#xe1;" horiz-adv-x="798" 
d="M816 1132q-90 -44 -139 -83q-42 -34 -114 -117q-21 -25 -24 -39q3 -10 5 -24h-176q92 87 170 208l69 107h207zM763 1h-204q-24 0 -36 29q-9 23 -3 34q2 5 8 16q-137 -88 -233 -88q-90 0 -149 36q-72 44 -72 128q0 21 6 49q42 198 230 246q168 43 217 63q71 29 112 83
q-73 49 -181 49q-90 0 -237 -37q148 114 339 114q94 0 187 -34q48 -25 48 -78q0 -11 -4 -30l-102 -480q-1 -5 7 -18q10 -66 67 -82zM552 189l67 316q-57 -49 -123 -70q-132 -43 -149 -53q-65 -39 -85 -131q-5 -23 -5 -43q0 -92 108 -92q81 0 187 73z" />
    <glyph glyph-name="acircumflex" unicode="&#xe2;" horiz-adv-x="798" 
d="M858 879h-202l31 21q9 5 27 27q-11 22 -82 140q-105 -88 -113 -125q0 -13 -1 -26l-1 -13v-10l-2 -20q-15 4 -18 6h-223q68 43 195 144q23 22 84 76q35 30 97 94q12 -20 109 -153q62 -85 99 -161zM763 1h-204q-24 0 -36 29q-9 23 -3 34q2 5 8 16q-137 -88 -233 -88
q-90 0 -149 36q-72 44 -72 128q0 21 6 49q42 198 230 246q168 43 217 63q71 29 112 83q-73 49 -181 49q-90 0 -237 -37q148 114 339 114q94 0 187 -34q48 -25 48 -78q0 -11 -4 -30l-102 -480q-1 -5 7 -18q10 -66 67 -82zM552 189l67 316q-57 -49 -123 -70q-132 -43 -149 -53
q-65 -39 -85 -131q-5 -23 -5 -43q0 -92 108 -92q81 0 187 73z" />
    <glyph glyph-name="atilde" unicode="&#xe3;" horiz-adv-x="806" 
d="M955 1019q-90 -77 -137 -102q-76 -40 -154 -27l-60 18q-90 47 -126 53q-24 4 -50 4q-28 0 -59 -4l-136 -32q94 76 132 96q84 44 168 30l62 -19l99 -46q81 -14 119 -10q6 1 142 39zM770 1h-204q-24 0 -36 29q-9 22 -3 34l8 16q-137 -88 -233 -88q-89 0 -149 37
q-72 44 -72 128q0 20 6 48q42 198 230 246q168 43 217 63q73 30 112 83q-72 49 -181 49q-90 0 -237 -37q149 114 339 114q95 0 187 -34q48 -25 48 -78q0 -11 -4 -30l-102 -480q-1 -5 7 -18q10 -66 67 -82zM559 189l67 316q-55 -48 -123 -70q-129 -42 -148 -53
q-66 -39 -86 -131q-5 -23 -5 -43q0 -92 108 -92q81 0 187 73z" />
    <glyph glyph-name="adieresis" unicode="&#xe4;" horiz-adv-x="798" 
d="M836 982q-17 -77 -119 -79q-43 -1 -67 17t-21 60q15 69 118 79q93 0 89 -77zM547 982q-17 -77 -119 -79q-43 -1 -67 17t-21 60q15 68 118 79q93 0 89 -77zM763 1h-204q-24 0 -36 29q-9 23 -3 34q2 5 8 16q-137 -88 -233 -88q-90 0 -149 36q-72 44 -72 128q0 21 6 49
q42 198 230 246q168 43 217 63q71 29 112 83q-73 49 -181 49q-90 0 -237 -37q148 114 339 114q94 0 187 -34q48 -25 48 -78q0 -11 -4 -30l-102 -480q-1 -5 7 -18q10 -66 67 -82zM552 189l67 316q-57 -49 -123 -70q-132 -43 -149 -53q-65 -39 -85 -131q-5 -23 -5 -43
q0 -92 108 -92q81 0 187 73z" />
    <glyph glyph-name="aring" unicode="&#xe5;" horiz-adv-x="798" 
d="M763 1h-204q-24 0 -36 29q-9 23 -3 34q2 5 8 16q-137 -88 -233 -88q-90 0 -149 36q-72 44 -72 128q0 21 6 49q42 198 230 246q168 43 217 63q71 29 112 83q-73 49 -181 49q-90 0 -237 -37q148 114 339 114q94 0 187 -34q48 -25 48 -78q0 -11 -4 -30l-102 -480
q-1 -5 7 -18q10 -66 67 -82zM552 189l67 316q-57 -49 -123 -70q-132 -43 -149 -53q-65 -39 -85 -131q-5 -23 -5 -43q0 -92 108 -92q81 0 187 73z" />
    <glyph glyph-name="ae" unicode="&#xe6;" horiz-adv-x="1290" 
d="M1313 272q-164 -290 -428 -290q-122 0 -203 74q-41 -23 -83 -51q2 -3 7 -5l-47 1q-20 0 -34 22.5t-5 40.5l8 16q-137 -88 -233 -88q-90 0 -149 36q-72 44 -72 128q0 21 6 49q42 198 230 246q168 43 217 63q71 29 112 83q-73 49 -181 49q-90 0 -237 -37q148 114 339 114
q94 0 187 -34q34 -18 45 -51q105 69 239 69q126 0 188 -63q55 -57 75 -186l-525 -90l-1 -6q-8 -48 -8 -71q0 -71 35 -128q54 -88 168 -88q97 0 196 59q91 54 154 138zM1133 517q-1 55 -44 87t-98 25q-87 -11 -143 -78l-65 -101zM766 367h-1l-5 -12q2 6 6 12zM552 189l67 316
q-57 -49 -123 -70q-132 -43 -149 -53q-65 -39 -85 -131q-5 -23 -5 -43q0 -92 108 -92q81 0 187 73z" />
    <glyph glyph-name="ccedilla" unicode="&#xe7;" horiz-adv-x="753" 
d="M762 206q-101 -172 -249 -212l-2 -6q-18 0 -26 -40q23 -17 68 -52q41 -33 41 -69q0 -21 -11 -41q-61 -111 -297 -111q-34 0 -68 18q-40 21 -40 52q0 10 4 21q26 -41 88 -41q86 0 142 67q12 14 15 29q7 31 -54 83.5t-61 51.5q2 11 14 34q-223 42 -223 276q0 48 13 109
q32 149 176 245q131 87 285 87q63 0 153 -38q105 -44 94 -94q-3 -16 -76 -59q-61 -36 -93 -49q15 23 20 47q11 53 -33 86q-38 29 -93 29q-101 0 -177 -91q-65 -78 -88 -186q-8 -38 -8 -67q0 -71 39 -127q58 -83 171 -83q45 0 119 30q91 37 157 101z" />
    <glyph glyph-name="egrave" unicode="&#xe8;" horiz-adv-x="808" 
d="M784 869h-176q6 6 15 24q3 14 -8 39q-37 85 -64 117q-31 37 -103 83l24 52h207l23 -107q26 -121 82 -208zM831 272q-164 -290 -428 -290q-149 0 -237 107q-65 79 -65 180q0 38 8 75q35 163 154.5 263t285.5 100q126 0 188 -63q55 -57 75 -186l-529 -91l-5 -12q5 10 9 19
q1 -4 -1 -12q-8 -37 -8 -73q0 -71 34 -126q54 -88 169 -88q97 0 196 59q91 54 154 138zM651 517q-1 55 -44 87t-98 25q-87 -11 -143 -78l-65 -101z" />
    <glyph glyph-name="eacute" unicode="&#xe9;" horiz-adv-x="808" 
d="M840 1132q-90 -44 -139 -83q-42 -34 -114 -117q-21 -25 -24 -39q3 -10 5 -24h-176q92 87 170 208l69 107h207zM831 272q-164 -290 -428 -290q-149 0 -237 107q-65 79 -65 180q0 38 8 75q35 163 154.5 263t285.5 100q126 0 188 -63q55 -57 75 -186l-529 -91l-5 -12
q5 10 9 19q1 -4 -1 -12q-8 -37 -8 -73q0 -71 34 -126q54 -88 169 -88q97 0 196 59q91 54 154 138zM651 517q-1 55 -44 87t-98 25q-87 -11 -143 -78l-65 -101z" />
    <glyph glyph-name="ecircumflex" unicode="&#xea;" horiz-adv-x="808" 
d="M882 879h-202l31 21q9 5 27 27q-11 22 -82 140q-105 -88 -113 -125q0 -13 -1 -26l-1 -13v-10l-2 -20q-15 4 -18 6h-223q68 43 195 144q23 22 84 76q35 30 97 94q12 -20 109 -153q62 -85 99 -161zM831 272q-164 -290 -428 -290q-149 0 -237 107q-65 79 -65 180q0 38 8 75
q35 163 154.5 263t285.5 100q126 0 188 -63q55 -57 75 -186l-529 -91l-5 -12q5 10 9 19q1 -4 -1 -12q-8 -37 -8 -73q0 -71 34 -126q54 -88 169 -88q97 0 196 59q91 54 154 138zM651 517q-1 55 -44 87t-98 25q-87 -11 -143 -78l-65 -101z" />
    <glyph glyph-name="edieresis" unicode="&#xeb;" horiz-adv-x="808" 
d="M860 982q-17 -77 -119 -79q-43 -1 -67 17t-21 60q15 69 118 79q93 0 89 -77zM571 982q-17 -77 -119 -79q-43 -1 -67 17t-21 60q15 68 118 79q93 0 89 -77zM831 272q-164 -290 -428 -290q-149 0 -237 107q-65 79 -65 180q0 38 8 75q35 163 154.5 263t285.5 100
q126 0 188 -63q55 -57 75 -186l-529 -91l-5 -12q5 10 9 19q1 -4 -1 -12q-8 -37 -8 -73q0 -71 34 -126q54 -88 169 -88q97 0 196 59q91 54 154 138zM651 517q-1 55 -44 87t-98 25q-87 -11 -143 -78l-65 -101z" />
    <glyph glyph-name="igrave" unicode="&#xec;" horiz-adv-x="463" 
d="M613 869h-176q5 6 14 24q3 16 -7 39q-33 75 -65 115q-36 44 -102 85l24 52h207l23 -107q26 -123 82 -208zM413 0h-284l56 45q23 23 30 55l92 430q3 14 3 29q0 38 -28 54q-25 8 -35 16q-18 8 -50 59h299l-125 -588q-3 -14 -3 -25q0 -7 1 -12q1 -12 44 -63z" />
    <glyph glyph-name="iacute" unicode="&#xed;" horiz-adv-x="463" 
d="M669 1132q-137 -66 -253 -200q-21 -24 -24 -39q3 -10 5 -24h-176q92 87 170 208l69 107h207zM413 0h-284l56 45q23 23 30 55l92 430q3 14 3 29q0 38 -28 54q-25 8 -35 16q-18 8 -50 59h299l-125 -588q-3 -14 -3 -25q0 -7 1 -12q1 -12 44 -63z" />
    <glyph glyph-name="icircumflex" unicode="&#xee;" horiz-adv-x="654" 
d="M806 879h-202l31 21q9 5 28 27q-11 22 -83 140q-105 -88 -113 -125q0 -13 -1 -26l-1 -13v-10l-2 -20q-15 4 -18 6h-222q67 43 194 144q26 25 84 76q33 29 98 94q12 -21 108 -153q61 -84 99 -161zM508 0h-284l56 45q23 23 30 55l92 430q3 14 3 29q0 38 -28 54
q-24 8 -35 16q-17 8 -50 59h299l-125 -588q-3 -14 -3 -25q0 -7 1 -12q1 -12 44 -63z" />
    <glyph glyph-name="idieresis" unicode="&#xef;" horiz-adv-x="566" 
d="M740 982q-17 -77 -119 -79q-43 -1 -67 17t-21 60q15 69 118 79q93 0 89 -77zM451 982q-17 -77 -119 -79q-43 -1 -67 17t-21 60q15 68 118 79q93 0 89 -77zM464 0h-284l56 45q23 23 30 55l92 430q3 14 3 29q0 38 -28 54q-24 8 -35 16q-17 8 -50 59h299l-125 -588
q-3 -14 -3 -25q0 -7 1 -12q1 -12 44 -63z" />
    <glyph glyph-name="eth" unicode="&#xf0;" horiz-adv-x="983" 
d="M1179 1090q-54 -82 -82 -113q-51 -58 -112 -83q26 -78 26 -167q0 -71 -17 -151q-9 -42 -20 -79q-65 -215 -200 -354q-158 -161 -359 -155q-176 6 -252 157q-41 82 -41 162q0 31 8 68q33 153 149.5 244t273.5 87q81 -2 133 -45q56 -46 56 -125q0 -58 -31 -126q2 15 2 29
q0 61 -44 115t-103 56q-91 3 -166 -82q-61 -69 -89 -162q-34 -112 -7 -196q32 -99 135 -102q139 -4 245 201q71 138 111 329q21 101 21 190q0 46 -5 90q-29 2 -51 2q-26 0 -43 -3q-50 -9 -110 -37l-126 -75q67 98 98 128q70 67 160 84l43 3q-49 95 -166 95q-87 0 -205 -60
q-14 81 -46 108l-76 65l282 -8q264 -7 375 -200q67 12 103 28q11 5 130 82z" />
    <glyph glyph-name="ntilde" unicode="&#xf1;" horiz-adv-x="834" 
d="M1008 1019q-90 -77 -137 -102q-76 -40 -154 -27l-60 18q-90 47 -125 53q-23 4 -51 4t-59 -4l-136 -32q94 76 132 96q84 44 168 30l63 -19l98 -46q81 -14 119 -10q6 1 142 39zM796 -13h-267l18 70q114 151 150 320q9 42 9 75q0 145 -162 145q-45 0 -113 -37
q-59 -32 -64 -55l-80 -378q-2 -9 -2 -18q0 -20 10 -36l48 -38l-1 -48h-309l57 45q24 19 32 55l104 489q8 36 -45 101h223l-12 -55q125 68 268 68q154 0 217 -161q4 -25 4 -52q0 -49 -11 -102q-14 -68 -122 -228l-7 -18q-4 -25 48 -86z" />
    <glyph glyph-name="ograve" unicode="&#xf2;" horiz-adv-x="850" 
d="M806 869h-176q6 6 15 24q3 14 -8 39q-37 85 -64 117q-31 37 -103 83l24 52h207l23 -107q26 -121 82 -208zM888 344q-35 -166 -167 -265q-128 -97 -300 -97q-169 0 -256 96q-66 72 -66 178q0 41 10 88q36 170 165 268q125 95 301 95q169 0 257 -96q66 -72 66 -179
q0 -41 -10 -88zM715 344q24 113 -7 190q-37 95 -149 95q-113 0 -190 -96q-63 -79 -87 -189q-23 -109 8 -188q38 -96 148 -96q108 0 186 91q67 78 91 193z" />
    <glyph glyph-name="oacute" unicode="&#xf3;" horiz-adv-x="850" 
d="M862 1132q-90 -44 -139 -83q-42 -34 -114 -117q-21 -25 -24 -39q3 -10 5 -24h-176q92 87 170 208l69 107h207zM888 344q-35 -166 -167 -265q-128 -97 -300 -97q-169 0 -256 96q-66 72 -66 178q0 41 10 88q36 170 165 268q125 95 301 95q169 0 257 -96q66 -72 66 -179
q0 -41 -10 -88zM715 344q24 113 -7 190q-37 95 -149 95q-113 0 -190 -96q-63 -79 -87 -189q-23 -109 8 -188q38 -96 148 -96q108 0 186 91q67 78 91 193z" />
    <glyph glyph-name="ocircumflex" unicode="&#xf4;" horiz-adv-x="850" 
d="M904 879h-202l31 21q9 5 27 27q-11 22 -82 140q-105 -88 -113 -125q0 -13 -1 -26l-1 -13v-10l-2 -20q-15 4 -18 6h-223q68 43 195 144q23 22 84 76q35 30 97 94q12 -20 109 -153q62 -85 99 -161zM888 344q-35 -166 -167 -265q-128 -97 -300 -97q-169 0 -256 96
q-66 72 -66 178q0 41 10 88q36 170 165 268q125 95 301 95q169 0 257 -96q66 -72 66 -179q0 -41 -10 -88zM715 344q24 113 -7 190q-37 95 -149 95q-113 0 -190 -96q-63 -79 -87 -189q-23 -109 8 -188q38 -96 148 -96q108 0 186 91q67 78 91 193z" />
    <glyph glyph-name="otilde" unicode="&#xf5;" horiz-adv-x="850" 
d="M993 1019q-90 -77 -137 -102q-76 -40 -154 -27l-60 18q-90 47 -125 53q-23 4 -51 4t-59 -4l-136 -32q94 76 132 96q84 44 168 30l63 -19l98 -46q81 -14 119 -10q6 1 142 39zM888 344q-35 -166 -167 -265q-128 -97 -300 -97q-169 0 -256 96q-66 72 -66 178q0 41 10 88
q36 170 165 268q125 95 301 95q169 0 257 -96q66 -72 66 -179q0 -41 -10 -88zM715 344q24 113 -7 190q-37 95 -149 95q-113 0 -190 -96q-63 -79 -87 -189q-23 -109 8 -188q38 -96 148 -96q108 0 186 91q67 78 91 193z" />
    <glyph glyph-name="odieresis" unicode="&#xf6;" horiz-adv-x="850" 
d="M881 982q-17 -77 -119 -79q-43 -1 -67 17t-21 60q15 69 118 79q94 0 89 -77zM592 982q-17 -77 -119 -79q-43 -1 -67 17t-21 60q15 68 118 79q94 0 89 -77zM888 344q-35 -166 -167 -265q-128 -97 -300 -97q-169 0 -256 96q-66 72 -66 178q0 41 10 88q36 170 165 268
q125 95 301 95q169 0 257 -96q66 -72 66 -179q0 -41 -10 -88zM715 344q24 113 -7 190q-37 95 -149 95q-113 0 -190 -96q-63 -79 -87 -189q-23 -109 8 -188q38 -96 148 -96q108 0 186 91q67 78 91 193z" />
    <glyph glyph-name="divide" unicode="&#xf7;" horiz-adv-x="830" 
d="M707 891q-18 -86 -121 -97q-94 0 -84 95q18 86 122 96q91 0 83 -94zM945 708l-163 -127h-623l163 127h623zM603 402q-18 -87 -121 -97q-94 0 -84 95q19 87 123 97q91 0 82 -95z" />
    <glyph glyph-name="oslash" unicode="&#xf8;" horiz-adv-x="852" 
d="M890 345q-36 -169 -165 -268.5t-303 -99.5q-89 0 -158 30q-76 -95 -84 -134h-171l119 125l54 63q-81 78 -81 196q0 41 10 88q36 170 164 270t304 100q61 0 123 -19l28 39l13 24l-1 14l-12 30l-14 47q41 23 57 23h197l-179 -218q111 -75 110 -217q0 -43 -11 -93zM717 345
q11 50 11 92q0 64 -24 111l-374 -454q16 -14 39 -27q35 -11 70 -11q111 0 190 97q63 78 88 192zM640 619q-32 17 -78 17q-111 0 -190 -98q-64 -79 -88 -193q-10 -47 -10 -92q0 -36 7 -68z" />
    <glyph glyph-name="ugrave" unicode="&#xf9;" horiz-adv-x="783" 
d="M773 869h-176q5 6 14 24q3 16 -7 39q-33 75 -65 115q-36 44 -102 85l24 52h207l23 -107q26 -123 82 -208zM813 305q-65 -307 -404 -321q-170 -7 -252 61q-35 29 -50 100q-8 38 -8 71q0 39 9 80q15 69 121 228l7 18q2 25 -48 86l-7 56h267l-17 -70q-116 -152 -151 -320
q-29 -140 3 -175q30 -51 163 -55l4 1q70 24 100 57q6 7 22 24l-1 -6l1 2q90 126 90 273q0 107 -46 206l1 72h269l-29 -56q-78 -61 -84 -86v-16l39 -100q8 -31 8 -64t-7 -66z" />
    <glyph glyph-name="uacute" unicode="&#xfa;" horiz-adv-x="783" 
d="M829 1132q-137 -66 -253 -200q-21 -24 -24 -39q3 -10 5 -24h-176q92 87 170 208l69 107h207zM813 305q-65 -307 -404 -321q-170 -7 -252 61q-35 29 -50 100q-8 38 -8 71q0 39 9 80q15 69 121 228l7 18q2 25 -48 86l-7 56h267l-17 -70q-116 -152 -151 -320
q-29 -140 3 -175q30 -51 163 -55l4 1q70 24 100 57q6 7 22 24l-1 -6l1 2q90 126 90 273q0 107 -46 206l1 72h269l-29 -56q-78 -61 -84 -86v-16l39 -100q8 -31 8 -64t-7 -66z" />
    <glyph glyph-name="ucircumflex" unicode="&#xfb;" horiz-adv-x="783" 
d="M870 879h-201l31 21q9 6 27 27q-11 22 -83 140q-104 -88 -112 -125q-2 -9 -2 -26v-13l-3 -30q-14 4 -17 6h-223q103 66 194 144q25 23 84 76q37 33 98 94q19 -31 108 -153q65 -89 99 -161zM813 305q-65 -307 -404 -321q-170 -7 -252 61q-35 29 -50 100q-8 38 -8 71
q0 39 9 80q15 69 121 228l7 18q2 25 -48 86l-7 56h267l-17 -70q-116 -152 -151 -320q-29 -140 3 -175q30 -51 163 -55l4 1q70 24 100 57q6 7 22 24l-1 -6l1 2q90 126 90 273q0 107 -46 206l1 72h269l-29 -56q-78 -61 -84 -86v-16l39 -100q8 -31 8 -64t-7 -66z" />
    <glyph glyph-name="udieresis" unicode="&#xfc;" horiz-adv-x="783" 
d="M848 982q-17 -77 -119 -79q-43 -1 -67 17t-21 60q15 69 118 79q94 0 89 -77zM559 982q-17 -77 -119 -79q-43 -1 -67 17t-21 60q15 68 118 79q94 0 89 -77zM813 305q-65 -307 -404 -321q-170 -7 -252 61q-35 29 -50 100q-8 38 -8 71q0 39 9 80q15 69 121 228l7 18
q2 25 -48 86l-7 56h267l-17 -70q-116 -152 -151 -320q-29 -140 3 -175q30 -51 163 -55l4 1q70 24 100 57q6 7 22 24l-1 -6l1 2q90 126 90 273q0 107 -46 206l1 72h269l-29 -56q-78 -61 -84 -86v-16l39 -100q8 -31 8 -64t-7 -66z" />
    <glyph glyph-name="yacute" unicode="&#xfd;" horiz-adv-x="874" 
d="M887 1132q-137 -66 -253 -200q-21 -24 -24 -39q3 -10 5 -24h-176q92 87 170 208l69 107h207zM985 688l-59 -45q-26 -20 -34 -57l-106 -497q-41 -194 -112 -275l-35 -40q-154 -176 -387 -176q-49 0 -87 9q-143 34 -179 141l155 145l3 -36q-5 -22 -5 -41q0 -65 48 -103
q44 -35 111 -35q63 0 135 44q65 39 109 94q35 44 50 105q6 26 28 119q-139 -72 -249 -72q-124 0 -198 55q-85 62 -85 182q0 115 66 218q19 30 90 121q1 35 -50 90l-1 54h267l-29 -74q-121 -138 -160 -324q-21 -98 15 -159q39 -67 139 -67q76 0 149 33q64 29 71 61l82 387
q2 9 2 19q0 20 -9 36l-49 39l1 49h313z" />
    <glyph glyph-name="thorn" unicode="&#xfe;" horiz-adv-x="930" 
d="M973 367q-37 -176 -168 -283t-310 -107q-122 0 -196 53l-37 -176q-12 -56 3 -88q13 -28 207 -28q-232 -57 -292 -97q-72 -48 -104 -57q-21 31 -17 50l241 1134q7 34 -21 65q-41 45 -52 45l6 48q58 10 173 69q67 35 154 83l-22 -79q-57 -111 -68 -164l-36 -172
q107 50 218 50q331 0 331 -255q0 -44 -10 -91zM800 367q23 109 -14 181q-42 84 -152 84q-63 0 -153 -46q-71 -36 -79 -74l-65 -305q-1 -5 -1 -13q0 -49 65 -94q60 -43 111 -43q97 0 187 110q79 96 101 200z" />
    <glyph glyph-name="ydieresis" unicode="&#xff;" horiz-adv-x="874" 
d="M906 982q-17 -77 -119 -79q-43 -1 -67 17t-21 60q15 69 118 79q94 0 89 -77zM617 982q-17 -77 -119 -79q-43 -1 -67 17t-21 60q15 68 118 79q94 0 89 -77zM985 688l-59 -45q-26 -20 -34 -57l-106 -497q-41 -194 -112 -275l-35 -40q-154 -176 -387 -176q-49 0 -87 9
q-143 34 -179 141l155 145l3 -36q-5 -22 -5 -41q0 -65 48 -103q44 -35 111 -35q63 0 135 44q65 39 109 94q35 44 50 105q6 26 28 119q-139 -72 -249 -72q-124 0 -198 55q-85 62 -85 182q0 115 66 218q19 30 90 121q1 35 -50 90l-1 54h267l-29 -74q-121 -138 -160 -324
q-21 -98 15 -159q39 -67 139 -67q76 0 149 33q64 29 71 61l82 387q2 9 2 19q0 20 -9 36l-49 39l1 49h313z" />
    <glyph glyph-name="OE" unicode="&#x152;" horiz-adv-x="1782" 
d="M1752 28q-20 -34 -44 -34h-765l-22 37l77 48q29 29 38 46q3 14 10 42l2 2l6 28q-236 -205 -454 -205q-230 0 -356 156q-97 120 -97 297q0 79 19 168q63 293 276 464q193 155 422 155q247 0 373 -175l5 24q2 10 2 25q0 31 -16 60l-57 48l38 37h766q23 0 29 -35
q-53 -77 -59 -105l-8 -71l-45 20q-58 73 -168 99l-39 4l-40 2l-206 -2l-34 -4l-86 -406h552l-88 -130l-102 -100q-49 135 -195 136l-157 1q-15 0 -21 -1q-16 -93 -45 -175l-85 -398l31 -4h246l42 4q121 26 210 99l54 20l-24 -71q-1 -6 -1 -15q0 -31 16 -91zM1126 613
q20 95 20 170q0 135 -58 227q-82 131 -243 131q-201 0 -343 -171q-119 -143 -164 -357q-19 -90 -19 -172q0 -102 33 -184q69 -173 268 -173t342 172q119 143 164 357z" />
    <glyph glyph-name="oe" unicode="&#x153;" horiz-adv-x="1419" 
d="M1442 272q-164 -290 -428 -290q-164 0 -253 131q-140 -131 -340 -131q-169 0 -256 96q-66 72 -66 178q0 41 10 88q36 170 165 268q125 95 301 95q192 0 278 -122q129 122 307 122q126 0 188 -63q55 -57 75 -186l-525 -90l-1 -6q-8 -48 -8 -71q0 -71 35 -128
q54 -88 168 -88q97 0 196 59q91 54 154 138zM1262 517q-1 55 -44 87t-98 25q-87 -11 -143 -78l-65 -101zM715 344q24 113 -7 190q-37 95 -149 95q-113 0 -190 -96q-63 -79 -87 -189q-23 -109 8 -188q38 -96 148 -96q108 0 186 91q67 78 91 193z" />
    <glyph glyph-name="Scaron" unicode="&#x160;" horiz-adv-x="1003" 
d="M1150 1619q-64 -72 -167 -161q-140 -121 -174 -153q-25 45 -58 94q-16 18 -50 76q-28 47 -134 144h223l19 6l-9 -31l-6 -12q-7 -20 -8 -26q-8 -37 58 -125l143 140q-10 23 -16 26l-22 22h201zM1045 362q-39 -185 -230 -283q-158 -81 -361 -81q-196 0 -399 90
q83 125 92 145q13 30 42 162q85 -301 326 -301q290 0 327 176q5 24 5 45q0 111 -134 165l-338 92q-158 63 -159 204q0 31 7 65q33 155 199 271q114 80 201 102q59 15 182 15q182 0 340 -77l-34 -51q-26 -29 -46 -66l-7 -25q-4 -26 -14 -70q-10 -16 -57 -48q-9 242 -263 242
q-121 0 -211 -71q-97 -77 -97 -196q0 -96 139 -137l338 -99q159 -70 159 -209q0 -27 -7 -60z" />
    <glyph glyph-name="scaron" unicode="&#x161;" horiz-adv-x="705" 
d="M896 1187q-62 -70 -167 -161q-135 -117 -173 -153q-26 45 -58 94q-17 18 -51 76q-28 48 -134 144h223l20 6l-10 -31l-6 -13q-5 -11 -8 -25q-8 -37 58 -125l143 140q-10 23 -15 26l-23 22h201zM570 38q-103 -52 -217 -52q-274 0 -274 190q0 27 7 59q43 8 57 14
q43 13 104 34q-20 -36 -20 -74q0 -58 50 -111q32 -34 93 -34q65 0 119 32q65 38 65 99q0 58 -108 94q-30 9 -172 54q-79 43 -79 122q0 126 133 196q88 46 198 46q241 0 232 -191q-86 -18 -146 -55q4 28 4 51q0 117 -114 117q-61 0 -105.5 -41t-44.5 -102q0 -60 170 -99
q194 -45 194 -156q0 -119 -146 -193z" />
    <glyph glyph-name="Ydieresis" unicode="&#x178;" horiz-adv-x="1308" 
d="M1224 1429q-19 -88 -123 -101q-84 0 -84 79q0 9 1 19q19 91 124 102q91 0 82 -99zM936 1429q-19 -90 -124 -101q-84 0 -84 79q0 9 1 19q19 91 124 102q89 0 83 -99zM1534 1227q-337 -373 -676 -780l-479 -576q-50 -60 -52 -70q-2 -8 4 -13q25 -13 79 -35q37 -12 38 -36
l-328 -6l511 609l-91 278l-127 405q-16 33 -115 231h392q8 0 37 -32q-79 -53 -88 -98q-3 -15 -3 -34q0 -141 151 -565l261 289q189 209 210 279q8 63 -92 140l71 14h297z" />
    <glyph glyph-name="florin" unicode="&#x192;" horiz-adv-x="964" 
d="M1140 999l-23 -6q-16 0 -84 -35l-76 -39l68 75q2 64 -117 64q-39 0 -86 -42q-66 -60 -93 -149l-47 -157l296 -2l-78 -93l-246 2l-158 -518q-56 -184 -198 -304q-147 -126 -334 -135q274 103 376 439l157 519l-162 -3l51 71q25 16 41 52q23 53 29 61q13 -53 51 -72
q4 -5 20 -14l45 150q40 97 91 148l80 61q106 81 237 81q70 0 124 -52q46 -44 36 -102z" />
    <glyph glyph-name="circumflex" unicode="&#x2c6;" horiz-adv-x="601" 
d="M744 836l-146 -87q-59 22 -162 106q-35 -29 -179 -105l-53 40l157 94q70 42 136 112q77 -80 103 -98q39 -27 144 -62z" />
    <glyph glyph-name="tilde" unicode="&#x2dc;" horiz-adv-x="774" 
d="M999 1226q-90 -77 -137 -102q-76 -40 -154 -27l-60 18q-90 47 -126 53q-24 4 -50 4q-28 0 -59 -4l-136 -32q94 76 132 96q84 44 168 30l62 -19l99 -46q81 -14 119 -10q6 1 142 39z" />
    <glyph glyph-name="endash" unicode="&#x2013;" horiz-adv-x="740" 
d="M821 545l-154 -86h-533l154 86h533z" />
    <glyph glyph-name="emdash" unicode="&#x2014;" horiz-adv-x="1100" 
d="M1181 545l-156 -86h-891l154 86h893z" />
    <glyph glyph-name="quoteleft" unicode="&#x2018;" 
d="M459 1019q-7 -40 -44.5 -65t-80.5 -25q-84 0 -84 66q0 89 132 201q52 44 119 51l-8 -13q-83 -83 -99 -155h53q20 0 18 -23q0 -4 -6 -37z" />
    <glyph glyph-name="quoteright" unicode="&#x2019;" 
d="M358 980q-52 -44 -119 -51l8 13q83 83 99 155h-53q-21 0 -19 23l6 25q6 28 8 33q27 69 118 69q84 0 84 -67q0 -89 -132 -200z" />
    <glyph glyph-name="quotesinglbase" unicode="&#x201a;" 
d="M124 -123q-52 -44 -119 -51l8 13q82 83 99 155h-53q-21 0 -19 23l6 25q6 28 8 33q27 69 118 69q84 0 84 -67q0 -89 -132 -200z" />
    <glyph glyph-name="quotedblleft" unicode="&#x201c;" horiz-adv-x="557" 
d="M739 1019q-7 -41 -44.5 -65.5t-80.5 -24.5q-84 0 -84 66q0 89 132 201q52 44 119 51l-8 -13q-83 -83 -99 -155h53q20 0 18 -24q-1 -9 -6 -36zM459 1019q-7 -41 -44.5 -65.5t-80.5 -24.5q-84 0 -84 66q0 89 132 201q52 44 119 51l-8 -13q-83 -83 -99 -155h53q20 0 18 -24
q-1 -9 -6 -36z" />
    <glyph glyph-name="quotedblright" unicode="&#x201d;" horiz-adv-x="557" 
d="M638 980q-52 -44 -119 -51l8 13q83 83 99 155h-53q-21 0 -19 23l6 25q6 28 8 33q27 69 118 69q84 0 84 -67q0 -89 -132 -200zM358 980q-52 -44 -119 -51l8 13q83 83 99 155h-53q-21 0 -19 23l6 25q6 28 8 33q27 69 118 69q84 0 84 -67q0 -89 -132 -200z" />
    <glyph glyph-name="quotedblbase" unicode="&#x201e;" horiz-adv-x="567" 
d="M414 -123q-52 -44 -119 -51l8 13q82 83 99 155h-53q-21 0 -19 23l6 25q6 28 8 33q27 69 118 69q84 0 84 -67q0 -89 -132 -200zM124 -123q-52 -44 -119 -51l8 13q82 83 99 155h-53q-21 0 -19 23l6 25q6 28 8 33q27 69 118 69q84 0 84 -67q0 -89 -132 -200z" />
    <glyph glyph-name="dagger" unicode="&#x2020;" horiz-adv-x="770" 
d="M938 953q-84 -47 -97 -97h-204l-198 -929q-15 -70 -14 -94q1 -27 19 -78h-211q41 54 56 90l21 82l198 929h-290q68 35 97 97h214l19 91l14 83q0 35 -19 89h211q-40 -52 -52 -78q-10 -22 -25 -94l-19 -91h280z" />
    <glyph glyph-name="daggerdbl" unicode="&#x2021;" horiz-adv-x="770" 
d="M757 103q-84 -47 -97 -97h-204l-17 -79q-15 -69 -14 -94q1 -27 19 -78h-211q41 54 56 90l21 82l17 79h-290q69 35 97 97h214l160 753h-290q68 35 97 97h214l19 91l14 83q0 35 -19 89h211q-40 -52 -52 -78q-10 -22 -25 -94l-19 -91h280q-84 -47 -97 -97h-204l-160 -753
h280z" />
    <glyph glyph-name="bullet" unicode="&#x2022;" horiz-adv-x="713" 
d="M840 762q-28 -132 -140 -215q-108 -82 -245 -82q-134 0 -208 81q-56 62 -56 149q0 33 7 67q27 129 141 213q110 82 244 82q133 0 207 -80q57 -61 57 -149q0 -33 -7 -66z" />
    <glyph glyph-name="ellipsis" unicode="&#x2026;" horiz-adv-x="1026" 
d="M1006 72q-8 -39 -49 -64q-37 -23 -80 -23q-95 0 -95 64q0 14 2 23q18 86 130 86q42 0 69 -21q32 -24 23 -65zM638 72q-8 -39 -50 -64q-38 -23 -80 -23q-43 0 -70 21q-31 24 -22 66q19 86 129 86q43 0 70 -21q32 -24 23 -65zM273 72q-8 -39 -49 -64q-37 -23 -80 -23
q-95 0 -95 64q0 14 2 23q18 86 130 86q42 0 69 -21q32 -24 23 -65z" />
    <glyph glyph-name="perthousand" unicode="&#x2030;" horiz-adv-x="1795" 
d="M1814 256q-25 -123 -120 -197t-221 -74q-125 0 -188 74q-44 51 -44 128q0 35 7 69q25 121 120 196.5t220 75.5q103 0 165 -49q69 -54 69 -154q0 -30 -8 -69zM846 961q-26 -123 -120 -196.5t-220 -73.5q-103 0 -165 48q-69 53 -69 153q0 32 8 69q26 123 120.5 197.5
t220.5 74.5q103 0 165 -49q68 -53 68 -153q0 -32 -8 -70zM1356 1229l-986 -1046q-62 -66 -81 -88q-46 -54 -67 -96h-186q89 62 157 132l78 80l693 736q122 129 132 181l1 5l-11 26l-6 30q8 40 58 40h218zM1204 256q-25 -123 -120 -197t-221 -74q-125 0 -188 74
q-44 51 -44 128q0 35 7 69q25 121 120 196.5t220 75.5q103 0 165 -49q69 -54 69 -154q0 -30 -8 -69zM1678 256q17 78 -3 132q-25 68 -102 68q-75 0 -128 -65q-45 -54 -62 -135q-17 -79 3 -133q24 -68 102 -68q74 0 128 66q45 55 62 135zM710 961q17 78 -3 132
q-24 68 -101 68q-75 0 -128 -65q-45 -55 -62 -135q-9 -43 -9 -79q0 -121 114 -121q74 0 127 65q45 55 62 135zM1068 256q17 78 -3 132q-25 68 -102 68q-75 0 -128 -65q-45 -54 -62 -135q-17 -79 3 -133q24 -68 102 -68q74 0 128 66q45 55 62 135z" />
    <glyph glyph-name="guilsinglleft" unicode="&#x2039;" horiz-adv-x="654" 
d="M624 22l-183 -42q-21 119 -158 228l-173 138q319 95 431 329l202 27q-142 -261 -350 -355q205 -178 231 -325z" />
    <glyph glyph-name="guilsinglright" unicode="&#x203a;" horiz-adv-x="654" 
d="M692 342q-319 -94 -432 -328l-201 -27q143 263 351 355q-206 178 -232 325l182 40q20 -117 158 -227z" />
    <glyph glyph-name="trademark" unicode="&#x2122;" horiz-adv-x="1145" 
d="M1343 1103q-43 -16 -47 -38l-1 -5l-72 -345q-9 -45 11 -62h-96q25 17 32 46l4 16l63 295q4 19 3 34l-190 -190q-37 -37 -36 -61l-144 219l-53 -248q-11 -53 37 -111h-116q32 41 39 74l68 323l-24 18q-13 3 -26 10q-4 2 -17 17l30 4h92l134 -219l190 190l40 31zM766 1099
l-35 -22q-17 -11 -33 -39l-14 -33q-21 33 -33 42q-18 13 -53 13h-35l-73 -346q-3 -14 -3 -24q0 -21 10 -38h-102q21 21 24 32l9 30l62 293q2 9 2 19q0 26 -19 34h-83q-42 0 -69 -12l-71 -40l56 66q24 28 36 84q21 -59 94 -59h330z" />
    <glyph glyph-name="glyph217" horiz-adv-x="592" 
 />
    <glyph glyph-name="glyph218" horiz-adv-x="592" 
 />
    <glyph glyph-name="glyph217" horiz-adv-x="592" 
 />
    <glyph glyph-name="glyph218" horiz-adv-x="592" 
 />
    <glyph glyph-name="ch331" horiz-adv-x="592" 
 />
    <glyph glyph-name="ch332" horiz-adv-x="592" 
 />
    <glyph glyph-name="glyph98" horiz-adv-x="1492" 
 />
    <glyph glyph-name="glyph99" horiz-adv-x="1492" 
 />
    <glyph glyph-name="glyph100" horiz-adv-x="1492" 
 />
    <glyph glyph-name="glyph112" horiz-adv-x="396" 
d="M473 463h-184q35 32 45 53l13 49l105 492h-4l-25 3h-13l-66 -7l30 20q15 7 97 47q91 44 122 71q-6 -13 -8 -16v1q-3 -23 -13 -72l-121 -566q-3 -15 -4 -25q-1 -13 26 -50z" />
    <glyph glyph-name="glyph113" horiz-adv-x="811" 
d="M919 609l-97 -154l-502 -2l6 29q7 0 116 80q93 68 128 96q224 177 246 292q3 16 3 36q0 122 -127 122q-21 0 -49 -10q-36 -13 -34 -29q-37 -52 -37 -123q0 -20 4 -40l-50 6l-57 -3l-35 -8q8 43 40 101q39 71 77 96q99 64 213 64q177 0 177 -125q0 -17 -4 -36
q-45 -209 -433 -462h214q54 0 100 21q23 10 101 49z" />
    <glyph glyph-name="glyph114" horiz-adv-x="746" 
d="M862 649q-20 -95 -109 -153q-82 -54 -184 -54q-96 0 -175 39l-70 63q94 10 188 61l-8 -36q-3 -13 -3 -25q0 -54 64 -54q44 0 89 33q85 62 85 175q0 126 -205 150q134 33 164 47q83 39 97 102q12 55 -29 87q-35 28 -92 28q-37 0 -74.5 -35t-33.5 -71l-62 10h-14
q-8 0 -47 5q113 139 294 139q63 0 116 -24q69 -31 69 -86q0 -12 -2 -21q-18 -81 -92 -127q-19 -11 -81 -35q120 -66 120 -173q0 -21 -5 -45z" />
    <glyph glyph-name="glyph115" horiz-adv-x="872" 
d="M1012 758l-68 -67h-86l-34 -161q-3 -14 -2 -24q-4 -15 24 -51h-187q40 33 47 54l15 49l28 133h-363q71 69 99 105q78 100 98 194q5 24 5 35q0 30 -14 47l-80 40q21 15 29 19l-3 -1q61 32 124 32q36 -24 36 -89q0 -33 -10 -81q-5 -25 -13 -43q-50 -117 -110 -191h216
l29 135q6 27 -19 52q-7 7 -40 38q82 11 115 30l116 67l-14 -49q-35 -69 -41 -98l-37 -175h140z" />
    <glyph glyph-name="glyph128" horiz-adv-x="1492" 
 />
    <glyph glyph-name="glyph129" horiz-adv-x="1492" 
 />
    <glyph glyph-name="glyph227" horiz-adv-x="1492" 
 />
    <glyph glyph-name="glyph228" horiz-adv-x="1492" 
 />
  </font>
</defs>
</svg>
