<?xml version="1.0" standalone="no"?>
<!DOCTYPE svg PUBLIC "-//W3C//DTD SVG 1.1//EN" "http://www.w3.org/Graphics/SVG/1.1/DTD/svg11.dtd" >
<svg xmlns="http://www.w3.org/2000/svg" xmlns:xlink="http://www.w3.org/1999/xlink" version="1.1">
<metadata>
Created by FontForge 20170731 at Sun Apr  1 23:02:07 2001
 By Aleksey,,,
(c)GeM/FF
</metadata>
<defs>
<font id="Dumbledor1" horiz-adv-x="277" >
  <font-face 
    font-family="Dumbledor 1"
    font-weight="400"
    font-stretch="normal"
    units-per-em="2048"
    panose-1="0 0 4 0 0 0 0 0 0 0"
    ascent="1638"
    descent="-410"
    x-height="688"
    cap-height="1229"
    bbox="-65 -446 1952 1637"
    underline-thickness="20"
    underline-position="-163"
    unicode-range="U+0020-2122"
  />
<missing-glyph horiz-adv-x="1024" 
d="M128 0v1637h768v-1637h-768zM256 128h512v1381h-512v-1381z" />
    <glyph glyph-name=".notdef" horiz-adv-x="1024" 
d="M128 0v1637h768v-1637h-768zM256 128h512v1381h-512v-1381z" />
    <glyph glyph-name=".null" horiz-adv-x="0" 
 />
    <glyph glyph-name="nonmarkingreturn" horiz-adv-x="592" 
 />
    <glyph glyph-name="space" unicode=" " horiz-adv-x="592" 
 />
    <glyph glyph-name="exclam" unicode="!" horiz-adv-x="395" 
d="M360 308h-295l50 46q21 24 21 57v531q0 34 -35 65q-50 44 -61 44l-4 48q57 9 159 69q9 11 51 36l62 37q-3 -30 -8 -108l-1 -20q-1 -12 -4 -53q-3 -32 -3 -52v-597q0 -37 68 -103zM325 99q0 -47 -32 -77t-79 -30q-48 0 -79.5 29.5t-31.5 77.5t31.5 77t79.5 29
q47 0 79 -29.5t32 -76.5z" />
    <glyph glyph-name="quotedbl" unicode="&#x22;" horiz-adv-x="359" 
d="M324 1233q0 -25 -6 -50q-30 -124 -73 -124q-15 16 -15 24q-18 38 -37 148q0 51 65 51q66 0 66 -49zM168 1233q0 -25 -6 -50q-30 -124 -75 -124q-26 58 -51 172q0 51 67 51q65 0 65 -49z" />
    <glyph glyph-name="numbersign" unicode="#" horiz-adv-x="808" 
d="M773 642q-81 -47 -90 -98l-145 -1l-10 -63l221 2q-80 -47 -90 -98l-145 -1l-33 -221q-27 62 -86 75l22 145h-63l-33 -221q-27 62 -86 75l22 145l-221 -1q66 35 90 97l145 1l10 63l-221 -1q66 35 90 97l145 1l33 221q36 -72 86 -75l-22 -145h63l33 221q36 -72 86 -75
l-22 -145zM441 542h-63l-10 -63h63z" />
    <glyph glyph-name="dollar" unicode="$" horiz-adv-x="1003" 
d="M968 362q0 -185 -170 -283q-50 -29 -109 -48q0 -70 29 -166h-149q26 99 26 131v13q-67 -11 -141 -11h-4q0 -38 28 -133h-149q26 99 26 131v8q-153 16 -319 84q57 129 61 145q7 31 8 162q105 -210 253 -273v423l-105 27q-209 77 -209 269q0 154 142 271q91 75 169 99
q-7 59 -33 59q-13 0 -36 -16q23 107 72 164q23 27 90 67v-259q42 3 96 3q24 0 49 -1q-9 42 -31 42q-13 0 -36 -16q23 107 72 164q23 27 90 67v-268q107 -19 212 -65l-23 -51q-20 -29 -32 -66l-2 -25q2 -34 2 -52q0 -13 -1 -18q-6 -16 -47 -48q-30 121 -109 182v-424l71 -19
q209 -84 209 -269zM598 675v444q-51 15 -115 15q-18 0 -35 -1v-416zM358 744v367q-130 -56 -130 -212q0 -106 130 -155zM785 270q0 109 -97 172v-317q97 43 97 145zM598 101v382l-150 39v-425q22 -3 47 -3q57 0 103 7z" />
    <glyph glyph-name="percent" unicode="%" horiz-adv-x="1185" 
d="M642 961q0 -124 -78.5 -197t-204.5 -73q-127 0 -205 72t-78 198q0 124 79 198t204 74q127 0 205 -73t78 -199zM1095 1229l-764 -1046q-46 -63 -62 -88q-33 -52 -47 -96h-186q74 60 129 132l61 80l537 736q93 127 93 181v5l-16 26l-13 30q0 40 50 40h218zM1150 256
q0 -124 -79 -197.5t-205 -73.5t-204 73t-78 198q0 123 79.5 197.5t202.5 74.5q127 0 205.5 -73t78.5 -199zM506 961q0 80 -33 134q-39 66 -114 66t-114 -66q-33 -54 -33 -134q0 -200 147 -200q75 0 114 66q33 54 33 134zM1014 256q0 81 -33 135q-39 65 -115 65
q-75 0 -114 -66q-33 -54 -33 -134q0 -81 32 -135q39 -66 115 -66q74 0 114 66q34 56 34 135z" />
    <glyph glyph-name="ampersand" unicode="&#x26;" horiz-adv-x="1072" 
d="M1037 512q-94 -156 -143 -180l-12 -6l23 -1q0 -168 -137 -266q-121 -86 -297 -86q-175 0 -297 86q-138 97 -138 266t152 271q32 21 90 42q-164 76 -164 257q0 137 113 221q102 76 244 76q150 0 247 -72q109 -80 109 -225q0 -180 -165 -258q-324 -62 -373 -118
q-70 -79 -70 -194q0 -118 66 -193q69 -79 186 -79q111 0 181 76q68 73 72 185q-17 4 -47 12q-71 19 -106 19q-48 0 -102 -18l-126 -55q63 87 93 114q66 60 152 60q42 0 150 -29q11 -3 37 -8q10 -2 42 -2q64 0 123 34q9 5 97 71zM655 895q0 89 -46 153q-32 44 -64 56
q-22 8 -74 8q-184 0 -184 -217q0 -94 44 -152q49 -66 140 -66q184 0 184 218z" />
    <glyph glyph-name="quotesingle" unicode="'" horiz-adv-x="203" 
d="M168 1233q0 -27 -18 -93q-5 -17 -14 -53q-14 -28 -50 -28q-26 60 -50 172q0 51 66 51t66 -49z" />
    <glyph glyph-name="parenleft" unicode="(" horiz-adv-x="430" 
d="M395 1507l-82 -171q-121 -252 -121 -610q0 -361 151 -712q-73 -50 -97 -205q-60 80 -118 242q-92 257 -92 554q0 287 62 500q73 251 297 402z" />
    <glyph glyph-name="parenright" unicode=")" horiz-adv-x="430" 
d="M395 711q0 -309 -63 -503q-83 -256 -296 -399l82 171q121 252 121 610q0 361 -151 712q71 50 97 205q60 -81 118 -242q92 -256 92 -554z" />
    <glyph glyph-name="asterisk" unicode="*" horiz-adv-x="604" 
d="M569 1058q-56 -87 -78 -108q-47 -44 -118 -44q-9 0 -20 2q2 -3 8 -14q23 -41 70 -66q7 -4 85 -36q-95 2 -129 10q-71 17 -102 70q-20 -34 -24 -67l-12 -101q-34 75 -40 101q-17 73 24 128q-13 2 -22 2q-36 0 -78 -13l-97 -41q50 65 72 84q49 44 116 44h11q-4 7 -9 19
q-17 29 -51 59l-85 60q84 -10 111 -18q64 -19 98 -75q8 -13 16 -34l9 10q4 4 17 26q25 41 25 91q0 8 -10 88q67 -116 65 -158q-3 -53 -37 -96h16q50 0 94 25q7 4 75 52z" />
    <glyph glyph-name="plus" unicode="+" horiz-adv-x="756" 
d="M649 692l57 -115h-281v-301l-127 132v169h-196l-68 115h264v296l127 -131v-165h224z" />
    <glyph glyph-name="comma" unicode="," 
d="M242 48q0 -76 -92 -171q-43 -44 -108 -51l5 13q65 83 66 155h-53q-21 0 -24 23v37q0 90 105 90q101 0 101 -96z" />
    <glyph glyph-name="hyphen" unicode="-" horiz-adv-x="770" 
d="M735 555q-74 -47 -76 -97h-623q61 35 76 97h623z" />
    <glyph glyph-name="hyphen" unicode="&#x2010;" horiz-adv-x="770" 
d="M735 555q-74 -47 -76 -97h-623q61 35 76 97h623z" />
    <glyph glyph-name="period" unicode="." 
d="M242 67q0 -70 -101 -80q-95 0 -105 78q0 75 102 79q92 4 104 -77z" />
    <glyph glyph-name="slash" unicode="/" horiz-adv-x="1103" 
d="M1068 1434l-861 -1479h-171q76 82 153 211l587 982q69 115 71 176l-2 11l-18 27l-24 49q36 23 52 23h213z" />
    <glyph glyph-name="zero" unicode="0" horiz-adv-x="1129" 
d="M1094 574q0 -284 -165 -448q-151 -150 -364 -150q-171 0 -300 91.5t-189 252.5q-40 108 -40 254q0 281 165 447q150 151 364 151q167 0 299 -92.5t191 -249.5q39 -103 39 -256zM892 574q0 189 -69 330q-89 181 -258 181q-130 0 -222 -122q-105 -139 -105 -389
q0 -185 70 -329q88 -182 257 -182q167 0 257 182q70 142 70 329zM759 726q0 -25 -5 -40q-18 -55 -61 -98q-9 -9 -31 -25q7 -5 15 -13q61 -59 65 -150q2 -37 -15 -146l-50 128q-28 54 -59 85q-14 14 -51 38q-35 -22 -51 -38q-33 -33 -60 -85l-50 -128q-16 114 -15 146
q4 90 65 150q6 6 15 13q-19 14 -30 25q-44 44 -61 98q-5 16 -5 40q0 63 31 188q14 -101 19 -118q18 -66 63 -111q26 -26 31 -29l48 -30l48 30q5 3 31 29q45 45 63 111q2 9 18 118q32 -125 32 -188z" />
    <glyph glyph-name="one" unicode="1" horiz-adv-x="495" 
d="M460 0h-306q45 54 54 89l6 82v820q-4 -1 -7 -1l-41 6h-23l-107 -12l43 33q3 3 168 91q106 57 156 106q-6 -25 -9 -27v1q3 -19 3 -119v-944q0 -20 4 -41q0 -24 59 -84z" />
    <glyph glyph-name="two" unicode="2" horiz-adv-x="1014" 
d="M979 257l-108 -257l-835 -3v48q11 0 165 134q129 113 178 159q307 292 307 477q0 121 -71.5 197.5t-192.5 76.5q-31 0 -73 -15q-51 -18 -51 -42q0 -5 1 -8q-27 -54 -27 -124q0 -73 29 -149l-85 10l-94 -5l-57 -12q0 67 32 167q38 119 95 161q143 106 332 106
q143 0 236 -61q109 -71 109 -207q0 -349 -558 -770h357q94 0 160 35q1 0 151 82z" />
    <glyph glyph-name="three" unicode="3" horiz-adv-x="932" 
d="M897 327q0 -158 -133 -256q-121 -89 -283 -89q-160 0 -304 66l-141 105q152 16 292 101v-60q0 -59 35.5 -95.5t94.5 -36.5q72 0 137 56q88 76 88 209q0 171 -121 251q-89 59 -283 81q211 55 257 79q126 65 126 170q0 90 -79 144q-70 48 -164 48q-51 0 -99.5 -47.5
t-48.5 -98.5q0 -16 5 -31l-106 16h-23q-15 0 -81 9q138 232 441 232q121 0 224 -50q127 -62 127 -169q0 -136 -108 -212q-27 -19 -122 -58q269 -134 269 -364z" />
    <glyph glyph-name="four" unicode="4" horiz-adv-x="1090" 
d="M1055 504l-89 -111h-143v-268q0 -20 4 -40q0 -25 59 -85h-312q52 53 60 89l6 82v222h-604q96 118 128 174q95 167 95 324q0 92 -45 136l-147 67q27 26 41 32l-5 -1q90 52 195 52q50 -30 80 -128q24 -79 24 -155q0 -40 -7 -72q-42 -193 -114 -318h359v225q0 47 -50 87
l-80 64q118 16 182 49l169 112l-5 -82q-33 -106 -33 -163v-292h232z" />
    <glyph glyph-name="five" unicode="5" horiz-adv-x="957" 
d="M922 1172q-114 -80 -131 -104q-21 -30 -50 -154q-86 92 -108 108q-59 43 -140 43h-200v-292q62 13 131 13q208 0 328 -85q139 -98 139 -298q0 -194 -122 -307q-85 -79 -152 -100q-44 -14 -150 -14q-185 0 -323 69l-108 105q105 16 153 52l69 69q47 -145 101 -184
q43 -31 136 -31q105 0 165 115q48 92 48 208q0 306 -284 306q-151 0 -320 -87v441q0 26 20 128l129 -1h669z" />
    <glyph glyph-name="six" unicode="6" horiz-adv-x="907" 
d="M872 1188l-90 -65q-40 -29 -69 -108q-106 60 -193 60q-178 0 -243 -217q-37 -123 -37 -260q0 -49 4 -95q38 -440 239 -435q104 3 157 102q45 85 35 196q-9 93 -55 162q-57 85 -148 82q-45 -1 -102 -45q-79 -60 -86 -155q-9 38 -9 73q0 100 66 161q63 59 164 62
q155 4 254 -86t99 -245q0 -115 -82 -230q-108 -151 -286 -157q-205 -6 -327 155q-104 137 -123 354q-4 46 -4 79q0 228 125 393q154 203 427 211z" />
    <glyph glyph-name="seven" unicode="7" horiz-adv-x="1092" 
d="M1057 1176q-148 -110 -267 -288q-92 -137 -118 -243q-77 -312 -77 -637q-155 -1 -260 -144q0 352 178 795q97 241 234 378h-325q-121 0 -200 -33l-173 -97q7 11 7 20q0 8 -10 24l-10 16q0 7 14 15q76 42 131 107q45 53 52 88z" />
    <glyph glyph-name="eight" unicode="8" horiz-adv-x="940" 
d="M905 325q0 -168 -137 -266q-121 -86 -297 -86q-175 0 -297 86q-138 97 -138 266t152 271q32 21 90 42q-164 76 -164 257q0 137 113 221q102 76 244 76q150 0 247 -72q109 -80 109 -225q0 -178 -164 -256q242 -90 242 -314zM655 895q0 89 -46 153q-32 44 -64 56
q-22 8 -74 8q-184 0 -184 -217q0 -94 44 -152q49 -66 140 -66q184 0 184 218zM722 325q0 116 -67 192q-70 80 -184 80q-116 0 -186 -79q-66 -75 -66 -193t66 -193q69 -79 186 -79q114 0 184 80q67 76 67 192z" />
    <glyph glyph-name="nine" unicode="9" horiz-adv-x="907" 
d="M872 600q0 -228 -125 -393q-154 -203 -427 -211l-284 -8l90 65q39 28 69 108q105 -60 193 -60q177 0 243 217q37 122 37 260q0 50 -4 95q-39 440 -239 435q-107 -3 -158 -102q-44 -83 -34 -195q8 -92 55 -163q56 -85 148 -82q45 1 102 45q78 60 86 155q9 -38 9 -73
q0 -99 -65 -159.5t-165 -63.5q-156 -4 -253 85q-100 91 -100 246q0 113 83 230q107 151 285 157q205 6 327 -155q103 -136 123 -354q4 -44 4 -79z" />
    <glyph glyph-name="colon" unicode=":" 
d="M242 573q0 -86 -102 -97q-94 0 -104 95q0 86 102 97q92 0 104 -95zM242 85q0 -85 -101 -98q-95 0 -105 96q0 86 102 97q92 0 104 -95z" />
    <glyph glyph-name="semicolon" unicode=";" 
d="M242 572q0 -95 -102 -98q-94 -3 -104 96q0 87 102 98q92 0 104 -96zM242 48q0 -76 -92 -171q-43 -44 -108 -51l5 13q65 83 66 155h-53q-21 0 -24 23v37q0 90 105 90q101 0 101 -96z" />
    <glyph glyph-name="less" unicode="&#x3c;" horiz-adv-x="654" 
d="M619 194l-174 -40q-46 117 -206 226l-203 138q299 95 362 329l196 27q-87 -261 -275 -355q243 -178 300 -325z" />
    <glyph glyph-name="equal" unicode="=" horiz-adv-x="770" 
d="M735 635q-74 -47 -76 -97h-623q61 35 76 97h623zM735 475q-74 -47 -76 -97h-623q61 35 76 97h623z" />
    <glyph glyph-name="greater" unicode="&#x3e;" horiz-adv-x="654" 
d="M619 514q-299 -94 -362 -328l-195 -27q86 262 275 355q-244 178 -301 325l174 40q42 -114 207 -227z" />
    <glyph glyph-name="question" unicode="?" horiz-adv-x="799" 
d="M764 911q0 -127 -80 -224q-46 -55 -151 -126q-82 -55 -85 -78q-9 -67 -7 -91q3 -42 30 -121h-52q-38 0 -89 -2q-25 -1 -79 -1q34 38 34 86q0 16 -6 48t-6 48q0 48 47 78q129 81 186 156q74 97 74 227q0 105 -46 145q-43 36 -150 36q-88 0 -142 -68q-50 -62 -50 -153
q0 -55 35 -84q28 -23 111 -50q-33 -4 -62 -4q-102 0 -167 48q-73 53 -73 152q0 110 115 179q100 60 217 60q396 0 396 -261zM481 98q0 -46 -32.5 -76t-78.5 -30q-48 0 -79.5 29t-31.5 77q0 107 111 107q47 0 79 -30t32 -77z" />
    <glyph glyph-name="at" unicode="@" horiz-adv-x="1459" 
d="M1424 529q0 -141 -61 -256q-72 -135 -202 -139q-124 -4 -185 23q-37 16 -65 57q-12 32 -32 76q-120 -89 -213 -89q-111 0 -181 50q-80 56 -80 163q0 198 178 246q159 43 204 63q65 29 94 83q-83 49 -191 49q-90 0 -229 -37q123 114 314 114q94 0 195 -34q67 -32 67 -108
v-480q0 -72 47 -74q96 5 102 82q15 194 15 225q0 214 -116 348q-123 142 -334 142q-225 0 -357.5 -141.5t-132.5 -368.5q0 -458 608 -458h107l88 -18q-143 -85 -297 -85q-291 0 -498 140q-233 157 -233 421q0 268 219 442q207 165 496 165q278 0 469 -159q204 -170 204 -442
zM881 398v316q-47 -49 -108 -70q-124 -43 -139 -53q-56 -37 -56 -131q0 -135 131 -135q81 0 172 73z" />
    <glyph glyph-name="A" unicode="A" horiz-adv-x="1486" 
d="M1451 -1h-337q-31 105 -108 264l-111 230q-141 -28 -370 -183q-254 -172 -254 -289q0 -11 4 -21l-70 -1l-169 1q66 46 268 442q80 156 303 601q2 10 2 20q0 60 -64 109q-35 21 -69 43l193 14q87 6 112 -41q83 -157 213 -454q137 -313 209 -456q57 -113 106 -170
q59 -69 142 -109zM866 549l-194 372l-325 -619q65 75 250 151q39 16 269 96z" />
    <glyph glyph-name="B" unicode="B" horiz-adv-x="1042" 
d="M1007 437q0 -264 -305 -374q-133 -48 -311 -60l2 -3h-48q-15 0 -46 -1t-46 -1h-46l-35 2h-85q51 52 57 79l8 92v813q0 75 -44 130q-52 64 -70 64l-2 48l31 2q136 9 208 -60l21 -34q150 120 324 120q120 0 201 -58q92 -65 92 -181q0 -135 -105 -246q199 -108 199 -332z
M699 999q0 137 -155 137q-66 0 -124 -23q-76 -30 -84 -83l1 -13v-163q82 -1 253 -17q15 -1 62 -11q47 73 47 173zM793 433q0 165 -148 262q-121 79 -255 79q-52 0 -53 -9v-656q0 -16 5 -31q4 -1 9 0q24 4 41 4q140 0 253 74q148 97 148 277z" />
    <glyph glyph-name="C" unicode="C" horiz-adv-x="1405" 
d="M1370 1229l-72 -59q-51 -53 -51 -97v-42q-4 -10 -4 -81q-144 183 -420 183q-252 0 -407 -131q-166 -141 -166 -388q0 -225 123 -380q135 -171 364 -171q290 0 504 319v-250q-190 -165 -529 -165q-312 0 -491 166q-185 172 -185 481q0 304 251 471q216 144 536 144h547z
" />
    <glyph glyph-name="D" unicode="D" horiz-adv-x="1241" 
d="M1206 611q0 -280 -178.5 -462t-458.5 -182q-90 0 -186 24q-112 28 -164 79v-70l-183 -1v1013q178 115 332 181q84 36 254 36q266 0 428 -178q156 -171 156 -440zM992 611q0 212 -98 355q-115 167 -325 167q-139 0 -239 -74q-111 -82 -111 -216v-678q58 -49 170 -78
q93 -24 188 -24q192 0 311 184q104 161 104 364z" />
    <glyph glyph-name="E" unicode="E" horiz-adv-x="933" 
d="M898 29q-18 -33 -46 -33h-778l-37 35l83 46q27 28 34 45q0 13 3 40l1 2v902q0 43 -39 82l-83 46l37 35h778q28 0 46 -33q-46 -74 -46 -101l9 -68l-60 19q-93 70 -235 95l-50 4l-51 2l-83 -2l-40 -4v-389h513l-74 -125l-101 -96q-91 123 -278 131q-4 0 -23 1
q-20 1 -29 -1.5t-8 -8.5l1 -569l40 -4l83 -2l51 2l50 4q142 25 235 95l60 19l-9 -68q0 -27 46 -101z" />
    <glyph glyph-name="F" unicode="F" horiz-adv-x="884" 
d="M897 1196q-46 -74 -46 -101l9 -68l-60 19q-93 70 -235 95l-50 4l-51 2l-83 -2l-40 -4v-389h513l-74 -125l-101 -96q-91 123 -278 131q-4 0 -23 1q-37 1 -37 -10v-691l-38 -14l-31 -19l-50 -43l-64 -51v1231q0 43 -39 82l-83 46l37 35h778q28 0 46 -33z" />
    <glyph glyph-name="G" unicode="G" horiz-adv-x="1405" 
d="M1370 1229l-72 -59q-51 -53 -51 -97v-42q-4 -10 -4 -81q-144 183 -420 183q-252 0 -407 -131q-166 -141 -166 -388q0 -225 123 -380q135 -171 364 -171q146 0 256 65q138 82 138 185q0 20 -5.5 58.5t-5.5 58.5q0 24 5 44q-29 -11 -80 -11q-36 0 -105.5 19.5t-105.5 19.5
q-48 0 -102 -18l-126 -55q63 87 93 114q66 60 152 60q42 0 150 -29q11 -3 37 -8q10 -2 42 -2q64 0 123 34q9 5 97 71l-6 -10l10 6q-12 -9 -46 -63q-26 -58 -26 -152q0 -82 39 -304q-206 -179 -559 -179q-312 0 -491 166q-185 172 -185 481q0 305 251 472q215 143 536 143
h547z" />
    <glyph glyph-name="H" unicode="H" horiz-adv-x="1337" 
d="M1302 0h-300q42 54 52 89l6 82v564q-280 -44 -467 -278q-143 -179 -187 -394q12 -21 46 -63h-300q42 54 52 89l6 82v808q0 93 -54 132l-4 16q-6 14 -41 25q-63 21 -75 68l47 9h310v-836q264 407 667 410v176q0 12 1 35.5t1 35.5q0 144 -99 181l280 -2v-1058q0 -70 7 -93
q8 -27 52 -78z" />
    <glyph glyph-name="I" unicode="I" horiz-adv-x="547" 
d="M512 0h-300q42 54 52 89l6 82v808q0 94 -54 132q-17 12 -105 41q-63 21 -75 68l47 9h370v-1058q0 -70 7 -93q8 -27 52 -78z" />
    <glyph glyph-name="J" unicode="J" horiz-adv-x="498" 
d="M451 160q0 -203 -101 -357q-127 -194 -375 -216q184 119 248 276q45 110 45 297v817q0 92 -54 131q-14 10 -105 42q-63 22 -75 69l47 10h370v-1069z" />
    <glyph glyph-name="K" unicode="K" horiz-adv-x="1471" 
d="M1432 128q-150 -46 -252 -105l-83 -48q-112 58 -181 163q-14 21 -167 307q-42 78 -113 124q-34 22 -142 68q-33 14 -109 23v-488q0 -65 10 -93q10 -31 49 -80h-300q42 55 52 91l6 82v902q0 53 -166 173h349v-498q14 -1 29 -1q93 0 193 48q62 30 133 125q79 106 79 189
q0 99 -120 130l361 1q-47 -128 -119 -256q-92 -164 -167 -211q-99 -62 -164 -85q131 -26 236 -155q16 -20 153 -233q82 -128 154 -148q33 -24 109 -31q53 -5 120 0q68 5 50 6z" />
    <glyph glyph-name="L" unicode="L" horiz-adv-x="1035" 
d="M1000 249q-109 -182 -109 -317q-94 64 -381 59l-380 -7q59 74 68 105l6 82v803q0 65 -33 128q-45 85 -135 125h351v-1123q3 -3 22 -9q37 -12 94 -12q279 0 497 166z" />
    <glyph glyph-name="M" unicode="M" horiz-adv-x="1721" 
d="M1686 1240q-114 -45 -114 -104q0 -6 1 -13l2 -952q0 -36 3 -55q5 -32 10 -45q16 -43 57 -71h-282q60 45 66 129l3 42l-2 812q0 57 -10 94l-439 -523q-71 -85 -71 -146q0 -10 2 -20l-555 601v-682q0 -91 52 -171q35 -54 123 -136h-337q67 113 67 205v889l-83 50
q-34 9 -82 27q-13 7 -61 47l85 11h270l527 -602l440 523l97 85z" />
    <glyph glyph-name="N" unicode="N" horiz-adv-x="1324" 
d="M1289 65q0 -62 -29 -72l-18 4q4 -2 14 -10q-34 17 -81 70l-818 932v-682q0 -91 52 -171q35 -54 123 -136h-337q67 113 67 205v889l-83 50q-34 9 -82 27q-13 7 -61 47l85 11h270l803 -937v680q0 43 -7 58q-6 21 -28 57l-109 85v57h239v-1164z" />
    <glyph glyph-name="O" unicode="O" horiz-adv-x="1477" 
d="M1442 615q0 -307 -220 -486q-200 -162 -483 -162q-287 0 -483 162q-220 181 -220 486q0 306 220 485q199 162 483 162q286 0 483 -162q220 -181 220 -485zM1228 615q0 263 -153 415q-137 137 -336 137q-236 0 -367 -162q-122 -149 -122 -390q0 -239 123 -389
q132 -163 366 -163t366 163q123 150 123 389z" />
    <glyph glyph-name="P" unicode="P" horiz-adv-x="948" 
d="M913 1015q0 -263 -398 -436q-143 -62 -181 -62l1 -346q0 -63 9.5 -92.5t48.5 -78.5h-306q51 52 57 79l8 92v813q0 75 -44 130q-52 64 -70 64l-2 48l31 2q136 9 208 -60l21 -34q150 120 324 120q120 0 201 -58q92 -65 92 -181zM699 999q0 137 -155 137q-70 0 -130 -26
q-79 -34 -79 -92v-382q364 101 364 363z" />
    <glyph glyph-name="Q" unicode="Q" horiz-adv-x="1696" 
d="M1661 -220q-287 42 -376 99q-106 68 -187 169q-159 -81 -359 -81q-287 0 -483 162q-220 181 -220 486q0 306 220 485q199 162 483 162q286 0 483 -162q220 -181 220 -485q0 -320 -241 -502l4 -5q19 -23 52 -62q75 -88 189 -156q34 -20 215 -110zM1228 615q0 263 -153 415
q-137 137 -336 137q-236 0 -367 -162q-122 -149 -122 -390q0 -239 123 -389q132 -163 366 -163q166 0 284 87q-13 18 -30 44q-78 119 -118 163q-78 87 -148 136l-234 163q189 -44 248 -69q137 -58 252 -184q43 -47 121 -163q114 150 114 375z" />
    <glyph glyph-name="R" unicode="R" horiz-adv-x="1160" 
d="M1125 0h-246q-93 52 -220 192q-20 22 -186 225q-70 86 -138 104v-350q0 -63 10 -92t48 -79h-306q51 52 57 79l8 92v813q0 75 -44 130q-52 64 -70 64l-2 48l31 2q136 9 208 -60l21 -34q150 120 324 120q120 0 201 -58q92 -65 92 -181q0 -264 -398 -436q108 -59 216 -187
q38 -47 148 -179q134 -158 246 -213zM699 999q0 137 -155 137q-70 0 -130 -26q-79 -34 -79 -92v-382q364 101 364 363z" />
    <glyph glyph-name="S" unicode="S" horiz-adv-x="1003" 
d="M968 362q0 -185 -170 -283q-141 -81 -344 -81q-196 0 -418 90q57 129 61 145q7 31 8 162q149 -301 390 -301q290 0 290 176q0 146 -174 210l-358 92q-209 77 -209 269q0 154 142 271q97 80 179 102q56 15 179 15q182 0 356 -77l-23 -51q-20 -29 -32 -66l-2 -25
q2 -34 2 -52q0 -13 -1 -18q-6 -16 -47 -48q-60 242 -314 242q-117 0 -184 -58q-71 -61 -71 -177q0 -122 172 -169l359 -99q209 -84 209 -269z" />
    <glyph glyph-name="T" unicode="T" horiz-adv-x="1473" 
d="M1438 1232l-88 -62q-48 -34 -73 -108l-21 -90q-82 93 -121 117q-57 35 -162 35h-131v-953q0 -70 7 -93q8 -27 52 -78h-300q42 54 52 89l6 82v808q0 93 -54 132q-7 5 -27 13h-163q-125 0 -197 -33l-182 -111l123 181q54 79 55 233q55 -95 127 -131q64 -31 181 -31h916z
" />
    <glyph glyph-name="U" unicode="U" horiz-adv-x="1255" 
d="M1220 596q0 -256 -139 -429q-153 -190 -414 -190l-20 1q-19 1 -39 0l-19 -1q-262 0 -414 190q-139 173 -139 429q0 151 103 306q108 132 123 155q0 9 -23 31l-113 108q30 33 50 33h258q15 0 25 -4l9 -14v-29q-218 -209 -218 -586q0 -231 101 -363q69 -90 96 -111
q64 -49 181 -54q127 6 186 54q15 12 91 111q101 131 101 363q0 377 -218 586v29l9 14q9 4 25 4h258q20 0 50 -33l-113 -108q-23 -22 -23 -31q14 -23 123 -155q103 -155 103 -306z" />
    <glyph glyph-name="V" unicode="V" horiz-adv-x="1449" 
d="M1414 1229l-78 -163l-221 -397q-151 -272 -342 -674q-14 -30 -41 -34q-49 0 -104 140l-85 215q-115 291 -278 574q-55 95 -229 339h392q16 -5 44 -32q-62 -48 -68 -98l5 -30q83 -269 322 -695q32 -58 61 -106l253 450q94 167 161 324l5 33q-2 27 -22 53l-100 87l68 14
h257z" />
    <glyph glyph-name="W" unicode="W" horiz-adv-x="1987" 
d="M1952 597q0 -256 -139 -429q-153 -190 -414 -190q-12 0 -37 -2t-37 -2q-119 0 -187 21q-81 25 -167 97q-157 -115 -382 -115q-262 0 -414 190q-139 173 -139 429q0 151 103 306q108 132 123 155q0 9 -23 31l-113 108q30 33 50 33h258q15 0 25 -4l9 -14v-29
q-218 -209 -218 -586q0 -233 100 -364q112 -147 338 -147q131 0 224 71q-151 197 -151 440q0 252 137 461q0 10 -22 31l-115 108q30 33 49 33h203q42 0 48 -42q-86 -258 -86 -591q0 -203 70 -339q93 -181 256 -181h9q216 0 337 158q91 119 91 363q0 377 -218 586v29l9 14
q9 4 25 4h258q20 0 50 -33l-113 -108q-23 -22 -23 -31q14 -23 123 -155q103 -155 103 -306z" />
    <glyph glyph-name="X" unicode="X" horiz-adv-x="1374" 
d="M1339 -2l-274 -5q-139 225 -202 320q-105 157 -227 303q-157 -227 -195 -290q-95 -159 -144 -318l-261 -5q92 165 250 357l279 339l-151 231q-105 161 -189 161q-36 0 -93 -15l-91 -24q167 145 271 145q96 0 199 -138q29 -41 156 -217q71 105 177 252q112 156 234 156
q88 0 164 -33q-23 -71 -70 -142q-67 35 -120 35q-68 0 -125 -62q-38 -41 -96.5 -141t-99.5 -142z" />
    <glyph glyph-name="Y" unicode="Y" horiz-adv-x="1308" 
d="M1273 1227q-251 -362 -510 -780l-357 -576q-37 -60 -37 -70q0 -8 7 -13q20 -8 29 -16q16 -6 58 -19q39 -12 45 -36l-327 -6l382 609l-150 278l-213 405q-2 3 -164 231h392q8 0 44 -32q-68 -53 -68 -98q0 -115 276 -599l199 289q145 211 151 279q-5 63 -122 140l68 14h297
z" />
    <glyph glyph-name="Z" unicode="Z" horiz-adv-x="1433" 
d="M1398 194q0 -6 -104 -72q-116 -73 -148 -122q-17 -11 -246 -11q-122 0 -431 5l-371 6l-62 21l1066 1029h-577q-154 0 -369 -59l-39 30q107 117 119 133q32 43 85 150q38 -30 55 -40q45 -38 132 -57l131 -14l159 -3q64 -1 411 17q57 3 38 3q115 0 116 -48q-10 -23 -17 -29
l-999 -945q28 -21 244 -21q134 0 395 11l237 10q57 2 92 15q26 9 83 33v-42z" />
    <glyph glyph-name="bracketleft" unicode="[" horiz-adv-x="606" 
d="M571 46l-317 -112h-218l6 1348q10 39 41 58q58 36 99 41h375l-304 -121l-34 5v-1219h352z" />
    <glyph glyph-name="backslash" unicode="\" horiz-adv-x="972" 
d="M937 -45h-176q0 56 -109 311l-135 314q-182 424 -271 602q-69 108 -113 144l-97 56l13 52h207l555 -1271q40 -92 53 -113q20 -33 73 -95z" />
    <glyph glyph-name="bracketright" unicode="]" horiz-adv-x="608" 
d="M573 78q0 -84 -50 -111q-69 -37 -98 -41h-375l304 121l36 -5v1218h-354l317 112h220v-1294z" />
    <glyph glyph-name="asciicircum" unicode="^" horiz-adv-x="654" 
d="M619 1130h-202l27 22q8 4 22 26q-16 22 -113 140q-86 -88 -86 -125q1 -2 4 -25l2 -13l2 -11l2 -20l-19 6h-222q58 44 164 144q47 57 67 76q43 49 78 94q20 -24 141 -153q80 -86 133 -161z" />
    <glyph glyph-name="underscore" unicode="_" horiz-adv-x="1395" 
d="M1360 -33l-271 -87h-1053l271 87h1053z" />
    <glyph glyph-name="grave" unicode="`" horiz-adv-x="463" 
d="M428 1119h-176q9 20 9 24q0 16 -15 39q-85 131 -210 200l13 52h207l46 -107q53 -123 126 -208z" />
    <glyph glyph-name="a" unicode="a" horiz-adv-x="757" 
d="M763 1h-204q-25 0 -42 29q-14 24 -11 34q1 5 5 16q-118 -88 -214 -88q-111 0 -181 50q-80 56 -80 163q0 198 178 246q159 43 204 63q65 29 94 83q-83 49 -191 49q-90 0 -229 -37q123 114 314 114q94 0 195 -34q67 -32 67 -108v-480q0 -5 10 -18q24 -66 85 -82zM512 189
v316q-47 -49 -108 -70q-123 -43 -138 -53q-57 -39 -57 -131q0 -135 131 -135q81 0 172 73z" />
    <glyph glyph-name="b" unicode="b" horiz-adv-x="983" 
d="M948 342q0 -167 -115 -268q-109 -97 -279 -97q-42 0 -150 11q-32 3 -91 70q-5 -1 -8 -5l-45 -53l-124 -6q6 47 12 57q44 53 44 89v836q0 12 -70 25q-77 14 -86 25l125 57q47 15 124 100l63 27v-559q79 54 206 54q175 0 281 -93q113 -98 113 -270zM775 342q0 110 -52 189
q-62 94 -169 94q-51 0 -125 -49q-81 -53 -81 -99v-301q0 -36 68 -76q74 -44 138 -44q107 0 169 96q52 81 52 190z" />
    <glyph glyph-name="c" unicode="c" horiz-adv-x="753" 
d="M718 206q-83 -224 -297 -224q-182 0 -283.5 105t-101.5 288q0 149 124 245q112 87 267 87q62 0 161 -38q114 -44 114 -94q0 -16 -64 -59q-53 -36 -82 -49q10 25 10 47q0 53 -51 86q-44 29 -100 29q-101 0 -158 -92q-48 -78 -48 -185q0 -116 72 -195q74 -82 189 -82
q45 0 113 30q83 37 135 101z" />
    <glyph glyph-name="d" unicode="d" horiz-adv-x="944" 
d="M909 16l-39 -33q-31 -2 -53 -2q-23 0 -36 2q-18 5 -39 16q-39 11 -72 40q-107 -62 -239 -62q-395 0 -395 342q0 177 110 282q107 104 285 104q120 0 207 -52v294q0 56 -22 87q-20 28 -213 28q220 56 272 96q61 46 92 56q27 -31 27 -50v-947q0 -75 25 -117.5t90 -83.5z
M638 176v302q0 48 -80 100q-74 48 -127 48q-97 0 -163 -109q-59 -97 -59 -198q0 -110 55 -182q61 -81 167 -81q61 0 143 47q64 37 64 73z" />
    <glyph glyph-name="e" unicode="e" horiz-adv-x="808" 
d="M773 272q-103 -290 -366 -290q-152 0 -261.5 105.5t-109.5 256.5q0 166 98.5 264.5t264.5 98.5q127 0 203 -65q67 -58 113 -184l-510 -91l-2 -12q2 10 5 19q1 -4 1 -12q0 -119 68 -200q72 -87 188 -87q94 0 180 57q82 54 128 140zM541 517q-12 54 -61.5 86.5t-104.5 25.5
q-84 -11 -126 -78q-22 -51 -44 -101z" />
    <glyph glyph-name="f" unicode="f" horiz-adv-x="666" 
d="M726 999l-22 -6q-17 0 -73 -35q-24 -15 -64 -39l45 75q-18 64 -136 64q-41 0 -74 -42q-47 -59 -47 -149v-157l297 -2l-51 -93l-246 2v-614l-156 -121v736l-163 -3l30 71q22 16 24 51q2 42 12 62q28 -53 72 -72q6 -5 25 -14v150q9 97 46 148l61 61q97 81 213 81
q70 0 140 -52q58 -43 67 -102z" />
    <glyph glyph-name="g" unicode="g" horiz-adv-x="961" 
d="M926 700q-80 -30 -89 -35q-16 -9 -31 -68q-11 -74 -11 -266q0 -341 -32 -448q-87 -291 -377 -291q-113 0 -222 75l-101 104q70 19 133 123q0 -27 54 -99q50 -67 80 -87q49 -33 96 -33q122 0 178 156q39 109 36 256q-148 -111 -316 -111q-130 0 -210 87q-78 84 -78 215
q0 178 151 299q136 109 304 113zM690 495q-2 89 -30 94l-11 2q0 2 2 5h-99q-147 0 -246 -86q-105 -92 -97 -237q5 -80 55 -139q54 -64 132 -64q88 0 164 71q68 63 99 154q33 98 31 200z" />
    <glyph glyph-name="h" unicode="h" horiz-adv-x="870" 
d="M835 326q0 -89 -14 -161l-32 -165h-159q49 213 49 326q0 119 -42 196q-53 98 -162 98q-54 0 -111 -26q-71 -32 -71 -79v-413q0 -18 52 -102h-265q57 75 57 102v770q0 34 -35 64q-52 44 -62 44l-4 48q65 10 159 67q35 21 136 83l-5 -79q-33 -104 -33 -162v-283h4
q135 61 250 61q288 0 288 -389z" />
    <glyph glyph-name="i" unicode="i" horiz-adv-x="433" 
d="M326 895q0 -70 -101 -80q-95 0 -105 78q0 75 102 79q92 4 104 -77zM398 0h-284l46 45q19 24 19 55v430q0 62 -42 83q-27 8 -39 16q-19 8 -62 59h299v-588q0 -24 6 -37q3 -12 57 -63z" />
    <glyph glyph-name="j" unicode="j" horiz-adv-x="415" 
d="M327 895q0 -70 -101 -80q-95 0 -105 78q0 75 102 79q92 4 104 -77zM336 6q0 -186 -108 -308t-293 -131q245 103 245 439v519q0 65 -42 86q-27 9 -39 17q-19 8 -62 60h299v-682z" />
    <glyph glyph-name="k" unicode="k" horiz-adv-x="842" 
d="M807 0h-156q0 179 -59 289q-76 142 -240 142q-32 0 -52 -5q-3 2 -7 3v-327q0 -37 68 -102h-290q66 67 66 102v790q0 34 -35 64q-52 44 -62 44l-4 48q65 10 159 67q35 21 136 83l-5 -79q-33 -104 -33 -162v-456q0 11 20 11q62 0 155 27q110 32 110 124q0 17 -3 38l227 4
l-67 -119q-66 -65 -161 -103q232 -83 233 -483z" />
    <glyph glyph-name="l" unicode="l" horiz-adv-x="459" 
d="M424 -1h-300q41 54 52 89l6 82v798q0 74 -73 74q-26 0 -73 -11q46 73 147 111q48 18 182 46v-1018q0 -70 7 -93q8 -27 52 -78z" />
    <glyph glyph-name="m" unicode="m" horiz-adv-x="1247" 
d="M1212 373q0 -68 -28 -130l-61 -100l-3 -16q1 -25 66 -86l17 -56h-269l14 72q91 135 91 316q0 81 -33 143q-42 79 -114 79q-97 0 -163 -71q31 -78 31 -151q0 -69 -73 -228l-3 -18q1 -25 66 -86l19 -56h-267l3 70q82 151 82 320q0 90 -39 150q-45 70 -131 70
q-45 0 -105 -37q-52 -32 -52 -55v-378q0 -30 19 -54l57 -38l9 -48h-309l47 45q21 24 21 55v489q0 36 -67 101h223v-55q110 68 223 68q101 0 175 -64l31 -37q99 101 255 101q131 0 203 -95q65 -85 65 -220z" />
    <glyph glyph-name="n" unicode="n" horiz-adv-x="834" 
d="M799 -13h-267l3 70q82 151 82 320q0 220 -200 220q-45 0 -105 -37q-52 -32 -52 -55v-378q0 -30 19 -54l57 -38l9 -48h-309l47 45q21 24 21 55v489q0 36 -67 101h223v-55q110 68 253 68q154 0 252 -161q25 -67 25 -154q0 -69 -73 -228l-3 -18q1 -25 66 -86z" />
    <glyph glyph-name="o" unicode="o" horiz-adv-x="815" 
d="M795 344q0 -170 -112 -268q-106 -94 -278 -94q-170 0 -277 95q-112 99 -112 267q0 173 110 270q104 93 279 93q170 0 277 -96q113 -100 113 -267zM622 344q0 115 -50 193q-58 92 -167 92t-167 -92q-49 -77 -49 -193q0 -109 48 -188q58 -96 168 -96q108 0 167 92
q50 78 50 192z" />
    <glyph glyph-name="p" unicode="p" horiz-adv-x="944" 
d="M909 359q0 -176 -109 -281t-286 -105q-122 0 -207 52v-344q-72 -127 -209 -127q-31 0 -48 7q-2 2 -2 4q0 18 51.5 69.5t51.5 69.5v757q0 76 -25 119q-24 40 -90 82l39 33q31 2 53 2t36 -2q17 -5 39 -16q38 -11 72 -40q107 62 239 62q178 0 281 -80q114 -88 114 -262z
M736 359q0 108 -56 181q-62 82 -166 82q-62 0 -143 -47q-64 -37 -64 -73v-302q0 -48 80 -100q73 -48 127 -48q96 0 163 109q59 96 59 198z" />
    <glyph glyph-name="q" unicode="q" horiz-adv-x="883" 
d="M848 684q-8 -47 -12 -57q-44 -53 -44 -89v-706q0 -34 31 -69v-38l-114 -88q-104 -80 -187 -80q96 64 114 151v319q-81 -54 -206 -54q-175 0 -281 93q-113 98 -113 270q0 169 114 269q108 96 280 96q50 0 150.5 -11.5t150.5 -11.5h29zM636 201v301q0 36 -68 76
q-75 44 -138 44q-108 0 -169 -96q-52 -81 -52 -190t52 -189q61 -94 169 -94q50 0 125 49q81 53 81 99z" />
    <glyph glyph-name="r" unicode="r" horiz-adv-x="711" 
d="M705 552q0 -164 -272 -231q68 55 90 81q35 41 40 73q7 41 -9 75q-36 45 -53 53q-36 21 -86 21q-133 0 -133 -45v-466l6 -43q2 -15 62 -70h-292l41 40q19 19 23 47l4 453q1 78 -90 107l8 12q8 12 8 27l56 6q63 7 120 -25l17 -12q89 62 213 62q90 0 160 -37q87 -46 87 -128
z" />
    <glyph glyph-name="s" unicode="s" horiz-adv-x="705" 
d="M670 201q0 -102 -108 -163q-92 -52 -206 -52q-138 0 -221 54q-99 64 -99 195q41 8 54 14q40 13 97 34q-8 -22 -8 -44q0 -75 77 -141q39 -34 100 -34q63 0 106 27q52 32 52 91q0 67 -129 107q-8 3 -184 54q-109 53 -109 161q0 101 96 157q78 46 188 46q241 0 272 -191
q-82 -18 -134 -55q-9 168 -146 168q-120 0 -120 -133q0 -67 192 -109q230 -51 230 -186z" />
    <glyph glyph-name="t" unicode="t" horiz-adv-x="653" 
d="M654 0q-45 -3 -85 -3q-193 0 -274 60q-95 70 -95 255h1l1 300h-166l30 71q20 15 20 40q0 6 -1 18.5t-1 18.5q0 20 8 36q39 -73 110 -84l1 183q0 62 -42 83q-27 8 -39 16q-19 8 -62 59h299v-348h293l-51 -93h-242v-317q0 -122 40 -164q50 -53 61 -60q54 -35 194 -71z" />
    <glyph glyph-name="u" unicode="u" horiz-adv-x="797" 
d="M758 305q0 -165 -87 -243q-80 -71 -249 -78t-265 61q-49 35 -77 113q-25 69 -25 138t73 228l3 18q-4 25 -66 86l-19 56h267l-3 -70q-82 -151 -82 -320q0 -140 40 -175q41 -51 174 -55l4 1q63 24 88 57q5 8 17 24v-6l1 2q43 86 43 163q0 166 -101 316l-14 72h269l-17 -56
q-65 -61 -66 -86l3 -16l61 -100q28 -62 28 -130z" />
    <glyph glyph-name="v" unicode="v" horiz-adv-x="868" 
d="M833 688q-61 -147 -182 -371l-197 -364q-39 87 -104 214q-27 42 -99 192q-59 123 -131 218l-84 111h282q7 0 13 3q1 1 3 2q-1 -18 -1 -12q0 -22 -5.5 -65t-5.5 -65q0 -108 145 -358q183 385 183 398q0 34 -38 86l-8 11h229z" />
    <glyph glyph-name="w" unicode="w" horiz-adv-x="1226" 
d="M1191 305q0 -308 -336 -321q-164 -6 -265 61l-31 37q-100 -101 -255 -101q-133 0 -204 94q-64 84 -64 221q0 68 28 130l61 100l3 16q-4 25 -66 86l-17 56h269l-14 -72q-91 -135 -91 -316q0 -80 33 -143q41 -79 114 -79q96 0 163 71q-31 78 -31 151q0 69 73 228l3 18
q-4 25 -66 86l-19 56h267l-3 -70q-82 -151 -82 -320q0 -140 40 -175q41 -51 174 -55l4 1q63 24 88 57q5 8 17 24v-6l1 2q43 86 43 163q0 166 -101 316l-14 72h269l-17 -56q-65 -61 -66 -86l3 -16l61 -100q28 -62 28 -130z" />
    <glyph glyph-name="x" unicode="x" horiz-adv-x="942" 
d="M936 113q-51 -80 -94 -107q-37 -31 -95 -31q-157 0 -322 273q-15 -29 -29 -58q-13 -22 -78 -82q-116 -108 -262 -108h-121q102 24 187 94q55 45 145 151l63 74q11 24 23 49q-129 218 -208 218q-32 0 -107 -45q0 69 48 109q45 38 115 38q155 0 251 -162q117 162 293 162
q69 0 168 -50l-66 -87l-91 -61q-23 43 -28 49q-15 18 -50 23q-50 -1 -101 -57l-65 -88l122 -234q68 -130 122 -130q11 -4 32 -4q79 0 148 64z" />
    <glyph glyph-name="y" unicode="y" horiz-adv-x="874" 
d="M839 688l-50 -45q-22 -25 -22 -57v-497q0 -196 -53 -275l-27 -40q-119 -176 -350 -176q-48 0 -88 9q-151 34 -209 141l124 145l10 -36q0 -80 57 -130q54 -49 135 -49q60 0 124 43q59 39 91 95q26 45 28 105q0 26 2 119q-123 -72 -233 -72q-156 0 -247 82q-95 85 -95 240
q0 67 28 133q13 30 64 121q-6 35 -69 90l-12 54h267l-14 -74q-91 -138 -91 -324q0 -101 50 -161q53 -65 152 -65q75 0 142 33q58 29 58 61v387q0 31 -19 55l-57 39l-9 49h313z" />
    <glyph glyph-name="z" unicode="z" horiz-adv-x="925" 
d="M890 222q-27 -165 -117 -213q-7 -4 -59 -9h-599l-63 43l561 526h-270q-105 0 -189 -30q-6 -1 -118 -42l146 149q30 30 57 98l60 -39q58 -30 165 -30q32 0 143 7q16 1 77 7q51 5 75 5q76 0 77 -38q-15 -23 -19 -27l-538 -503h423q109 0 188 96z" />
    <glyph glyph-name="braceleft" unicode="{" horiz-adv-x="518" 
d="M483 1369q-54 -7 -90.5 -52.5t-36.5 -101.5v-369q0 -108 -107 -181l8 -5q5 -3 27 -25q72 -72 72 -154v-369q0 -44 40 -97q42 -57 84 -57v-48q-307 0 -307 247v324q0 62 -52 118l-85 68q137 81 137 179v325q0 126 94 190q81 56 213 56z" />
    <glyph glyph-name="bar" unicode="|" horiz-adv-x="227" 
d="M192 0h-156v1415h156v-1415z" />
    <glyph glyph-name="braceright" unicode="}" horiz-adv-x="519" 
d="M484 667l-85 -68q-52 -56 -52 -118v-324q0 -128 -94 -192q-80 -55 -214 -55v48q40 0 83 58q42 55 42 96v369q0 101 100 179l8 5q-108 75 -108 181v369q0 58 -35.5 102.5t-92.5 51.5l3 48q131 0 213 -56q95 -64 95 -190v-325q0 -98 137 -179z" />
    <glyph glyph-name="asciitilde" unicode="~" horiz-adv-x="774" 
d="M738 1494q-73 -77 -115 -102q-67 -40 -148 -27l-64 18q-100 47 -137 53q-24 4 -51 4q-28 0 -58 -4l-129 -32q79 77 111 96q74 44 162 30l66 -19l109 -46q84 -14 121 -10q4 0 133 39z" />
    <glyph glyph-name="nonbreakingspace" unicode="&#xa0;" horiz-adv-x="1492" 
 />
    <glyph glyph-name="exclamdown" unicode="&#xa1;" horiz-adv-x="395" 
d="M325 991q0 -47 -32 -76.5t-79 -29.5q-48 0 -79.5 29t-31.5 77t31.5 77.5t79.5 29.5q47 0 79 -30t32 -77zM360 782q-68 -66 -68 -103v-597q0 -20 3 -52q3 -41 4 -53l1 -20q2 -30 8 -108l-62 37q-11 7 -51 36q-102 60 -159 69l4 48q11 0 61 44q35 31 35 65v531q0 33 -21 57
q-2 2 -50 46h295z" />
    <glyph glyph-name="cent" unicode="&#xa2;" horiz-adv-x="753" 
d="M718 206q-83 -224 -297 -224q-63 0 -117 13l-41 -105h-151q45 47 95 144q-37 22 -69 55q-102 107 -102 286q0 153 122 247q111 85 269 85q8 0 16 -1q-5 92 -5 70l-2 11l-18 27l-24 49q36 23 52 23h213l-85 -212l14 -5q114 -41 114 -94q0 -16 -64 -59q-53 -36 -82 -49
q10 25 10 47q0 39 -29 67l-189 -476q54 -30 122 -30q45 0 113 30q83 37 135 101zM435 628q-10 1 -20 1q-101 0 -158 -92q-48 -78 -48 -185q0 -102 58 -177l160 425q4 11 8 28z" />
    <glyph glyph-name="sterling" unicode="&#xa3;" horiz-adv-x="887" 
d="M852 33q-18 -33 -46 -33h-688l-37 35l83 46q22 22 35 54v483l-163 -3l30 71q22 16 24 51q2 42 12 62q28 -53 72 -72q6 -5 25 -14v150q9 97 46 148l61 61q97 81 213 81q70 0 140 -52q58 -43 67 -102l-22 -6q-15 0 -73 -35q-29 -17 -64 -39l45 75q-18 64 -136 64
q-41 0 -74 -42q-47 -59 -47 -149v-157l297 -2l-51 -93l-246 2l1 -530l40 -3l53 -2l51 2l50 4q104 18 205 95l60 19l-9 -68q0 -27 46 -101z" />
    <glyph glyph-name="currency" unicode="&#xa4;" horiz-adv-x="898" 
d="M862 1218l-184 -185q71 -65 71 -165q0 -109 -82 -175l31 -31q86 -86 164 -141h-132l-132 132q-65 -27 -150 -27t-149 27l-131 -132h-132q67 48 163 141l32 31q-84 66 -84 175q0 103 71 167l-182 183h164q13 0 45 -15l-8 -33l-8 -18l1 -7q10 -28 47 -70q72 35 171 35
t171 -37q38 44 49 72v7l-8 18l-8 33q33 15 45 15h165zM602 864q0 68 -43.5 117t-110.5 49t-110.5 -49t-43.5 -117q0 -67 44 -117t110 -50t110 50t44 117z" />
    <glyph glyph-name="yen" unicode="&#xa5;" horiz-adv-x="1308" 
d="M1273 1227q-200 -290 -510 -780l-36 -57h290q-74 -47 -76 -97h-274l-76 -123h426q-74 -47 -76 -97h-410l-125 -202q-37 -60 -37 -70q0 -8 7 -13q20 -8 29 -16q16 -6 58 -19q39 -12 45 -36l-327 -6l227 362h-240q61 35 76 97h224l78 123h-378q61 35 76 97h281l-112 208
l-213 405q-2 3 -164 231h392q8 0 44 -32q-68 -53 -68 -98q0 -115 276 -599l199 289q145 211 151 279q-5 63 -122 140l68 14h297z" />
    <glyph glyph-name="brokenbar" unicode="&#xa6;" horiz-adv-x="227" 
d="M192 787h-156v628h156v-628zM192 -4h-156v628h156v-628z" />
    <glyph glyph-name="section" unicode="&#xa7;" horiz-adv-x="742" 
d="M707 1201l-39 -79q-12 -36 -12 -175q-57 120 -102 167q-72 76 -177 76q-82 0 -143 -25q-83 -34 -83 -102q0 -93 142 -138l263 -83q142 -60 142 -172q0 -155 -143 -229q143 -49 143 -181t-122 -210q-107 -68 -244 -68q-114 0 -251 57q16 37 24 45q11 14 17 40l-2 19v34
q0 35 54 47q33 -162 211 -162q74 0 132 41q66 45 66 116q0 70 -142 117l-263 87q-142 63 -142 170q0 156 145 228q-145 59 -145 184q0 140 113 208q93 57 242 57q151 0 316 -69zM583 629q0 70 -129 117q-38 14 -139 34q-62 -1 -110 -35q-54 -38 -54 -97q0 -126 191 -157
q27 -4 97 -15q144 28 144 153z" />
    <glyph glyph-name="dieresis" unicode="&#xa8;" horiz-adv-x="566" 
d="M531 1190q0 -77 -102 -79q-94 -2 -104 77q0 69 101 79q93 0 105 -77zM242 1190q0 -77 -102 -79q-94 -2 -104 77q0 68 101 79q93 0 105 -77z" />
    <glyph glyph-name="copyright" unicode="&#xa9;" horiz-adv-x="1072" 
d="M1037 615q0 -225 -156 -355q-142 -118 -344 -118q-223 0 -360 124q-141 128 -141 349q0 223 156 354q141 119 345 119q220 0 357 -126q143 -129 143 -347zM938 615q0 172 -116 277q-111 102 -285 102q-181 0 -289 -98q-113 -102 -113 -281q0 -177 114 -280
q109 -99 288 -99q176 0 286 101q115 104 115 278zM857 899l-57 -48l-15 -18l-6 -19v-90q-52 64 -86 83q-42 23 -117 23q-105 0 -172 -55q-72 -59 -72 -162q0 -102 51 -165q55 -69 154 -69q78 0 142 55q37 32 98 118v-161q-100 -81 -251 -81q-144 0 -229 79q-88 81 -88 224
q0 141 118 219q101 67 249 67h281z" />
    <glyph glyph-name="ordfeminine" unicode="&#xaa;" horiz-adv-x="623" 
d="M588 696h-155q-15 0 -29.5 17t-10.5 31q2 7 3 13q-89 -68 -162 -68q-83 0 -137 39q-61 44 -61 124q0 152 135 189q116 32 155 49q50 22 71 63q-62 38 -145 38q-68 0 -174 -28q94 87 239 87q72 0 148 -26q51 -25 51 -83v-368q1 -6 7 -14q19 -51 65 -63zM397 840v243
q-34 -37 -82 -54q-93 -33 -105 -41q-43 -29 -43 -100q0 -104 99 -104q62 0 131 56z" />
    <glyph glyph-name="guillemotleft" unicode="&#xab;" horiz-adv-x="1035" 
d="M1000 22l-174 -42q-46 119 -206 228l-203 138q299 95 362 329l196 27q-87 -261 -275 -355q243 -178 300 -325zM619 22l-174 -42q-46 119 -206 228l-203 138q299 95 362 329l196 27q-87 -261 -275 -355q243 -178 300 -325z" />
    <glyph glyph-name="logicalnot" unicode="&#xac;" horiz-adv-x="1319" 
d="M1284 357h-164v349h-1084v152h1248v-501z" />
    <glyph glyph-name="minus" unicode="&#xad;" horiz-adv-x="770" 
d="M735 555q-74 -47 -76 -97h-623q61 35 76 97h623z" />
    <glyph glyph-name="minus" unicode="&#x2212;" horiz-adv-x="770" 
d="M735 555q-74 -47 -76 -97h-623q61 35 76 97h623z" />
    <glyph glyph-name="registered" unicode="&#xae;" horiz-adv-x="1072" 
d="M1037 774q0 -223 -156 -354q-142 -119 -344 -119q-222 0 -359 124q-142 129 -142 349q0 225 156 355q141 118 345 118q220 0 357 -126q143 -129 143 -347zM635 966q0 69 -89 69q-39 0 -73 -12q-48 -17 -48 -47v-192q210 51 210 182zM938 774q0 172 -116 277
q-111 102 -285 102q-150 0 -252 -71q68 1 106 -31l12 -17q86 60 187 60q65 0 111 -27q57 -33 57 -93q0 -132 -229 -219q51 -24 125 -93q46 -54 169 -163q115 105 115 275zM781 465h-42q-57 27 -127 96q-24 25 -107 113q-41 43 -80 52v-175q0 -49 34 -86h-168
q109 -70 246 -70q143 0 244 70zM320 551v408q0 24 -22 60.5t-44 36.5v2l-5 -5q-114 -114 -114 -279q0 -205 151 -306q26 24 29 36z" />
    <glyph glyph-name="macron" unicode="&#xaf;" horiz-adv-x="984" 
d="M949 819l-319 -65h-594l324 65h589z" />
    <glyph glyph-name="macron" unicode="&#x2c9;" horiz-adv-x="984" 
d="M949 819l-319 -65h-594l324 65h589z" />
    <glyph glyph-name="degree" unicode="&#xb0;" horiz-adv-x="400" 
d="M365 1042q0 -59 -52 -100q-48 -39 -108 -39q-62 0 -113 38q-56 41 -56 101t59 97q51 33 114 33q57 0 104 -36q52 -39 52 -94zM266 1021q-2 29 -25.5 55t-51.5 26q-17 0 -35 -12.5t-18 -28.5q0 -28 27 -61q22 -27 40 -27q56 0 63 48z" />
    <glyph glyph-name="plusminus" unicode="&#xb1;" horiz-adv-x="783" 
d="M748 707l-131 -127h-165v-224l-115 -58v282h-301l132 127h169v196l115 67v-263h296zM743 245q-73 -47 -76 -107h-623q59 34 76 107h623z" />
    <glyph glyph-name="twosuperior" unicode="&#xb2;" horiz-adv-x="715" 
d="M640 609l-64 -154l-501 -2v29q6 0 99 80q53 45 106 96q185 176 185 286q0 73 -43 118.5t-116 45.5q-18 0 -45 -10q-34 -13 -29 -29q-16 -32 -16 -74q0 -44 18 -89l-51 6l-57 -3l-34 -8q0 42 19 101q23 71 57 96q87 64 199 64q86 0 142 -37q65 -42 65 -124
q0 -209 -334 -462h214q55 0 96 21q12 6 90 49z" />
    <glyph glyph-name="threesuperior" unicode="&#xb3;" horiz-adv-x="637" 
d="M577 649q0 -97 -79 -155q-70 -52 -171 -52q-96 0 -182 39l-85 63q92 10 175 61v-36q0 -79 78 -79q45 0 83 33q52 45 52 126q0 102 -72 150q-54 36 -170 49q127 33 154 47q76 39 76 102q0 55 -47 87q-41 28 -99 28q-30 0 -59.5 -28.5t-29.5 -58.5q0 -10 3 -19l-63 10h-14
q-9 0 -49 5q84 139 265 139q73 0 134 -30q76 -37 76 -101q0 -82 -64 -127q-17 -12 -74 -35q162 -80 162 -218z" />
    <glyph glyph-name="acute" unicode="&#xb4;" horiz-adv-x="463" 
d="M428 1382q-81 -44 -121 -83q-36 -35 -89 -117q-16 -25 -16 -39q1 -4 10 -24h-176q74 87 126 208l46 107h207z" />
    <glyph glyph-name="mu1" unicode="&#xb5;" horiz-adv-x="834" 
d="M799 690l-19 -56q-65 -61 -66 -86l3 -18q73 -159 73 -228q0 -87 -25 -154q-69 -113 -156 -145q-58 -38 -58 -73q0 -13 10 -29q42 -67 128 -67q61 0 96 41q7 -43 -50 -71q-41 -20 -73 -20q-236 0 -273 111q-5 15 -5 27q0 38 41 72q-90 15 -165 61v-445h-223q67 65 67 101
v879q0 31 -21 55l-47 45h309l-9 -48l-57 -38q-19 -24 -19 -54v-378q0 -23 52 -55q60 -37 105 -37q200 0 200 220q0 169 -82 320l-3 70h267z" />
    <glyph glyph-name="mu1" unicode="&#x3bc;" horiz-adv-x="834" 
d="M799 690l-19 -56q-65 -61 -66 -86l3 -18q73 -159 73 -228q0 -87 -25 -154q-69 -113 -156 -145q-58 -38 -58 -73q0 -13 10 -29q42 -67 128 -67q61 0 96 41q7 -43 -50 -71q-41 -20 -73 -20q-236 0 -273 111q-5 15 -5 27q0 38 41 72q-90 15 -165 61v-445h-223q67 65 67 101
v879q0 31 -21 55l-47 45h309l-9 -48l-57 -38q-19 -24 -19 -54v-378q0 -23 52 -55q60 -37 105 -37q200 0 200 220q0 169 -82 320l-3 70h267z" />
    <glyph glyph-name="paragraph" unicode="&#xb6;" horiz-adv-x="1129" 
d="M1094 1072q-48 11 -73 11q-73 0 -73 -74l6 -1100q10 -35 52 -89h-240q2 -3 6 -3q2 0 9 4t11 4q5 0 10 -5h-246q38 50 48 79t10 92l1 526q-39 0 -181 62q-398 173 -398 436q0 116 92 181q81 58 201 58q174 0 324 -120l21 34q43 41 58 49q21 11 90 11h3v1q15 0 42 -4
q47 -7 124 -59.5t103 -93.5zM825 -9v992q0 137 -34 137q-5 0 -10 -6q-45 -55 -44 -130l8 -1085q4 -32 21 -79q43 52 52 78q7 21 7 93z" />
    <glyph glyph-name="periodcentered" unicode="&#xb7;" 
d="M242 512q0 -78 -103 -78q-41 0 -74 21q-29 23 -29 57q0 78 103 78q40 0 69 -19q34 -22 34 -59z" />
    <glyph glyph-name="periodcentered" unicode="&#x2219;" 
d="M242 512q0 -78 -103 -78q-41 0 -74 21q-29 23 -29 57q0 78 103 78q40 0 69 -19q34 -22 34 -59z" />
    <glyph glyph-name="cedilla" unicode="&#xb8;" horiz-adv-x="472" 
d="M432 -214q-37 -111 -273 -111q-32 0 -73 20q-57 28 -50 71q35 -41 96 -41q86 0 128 67q10 16 10 29q0 31 -72.5 84t-72.5 51q0 15 11.5 44.5t22.5 29.5h159v-42q-5 0 -11.5 -16.5t-6.5 -23.5q0 15 9 15q16 0 60 -49q68 -76 68 -101q0 -12 -5 -27z" />
    <glyph glyph-name="onesuperior" unicode="&#xb9;" horiz-adv-x="396" 
d="M335 463h-184q28 32 33 53l3 49v492h-4l-25 3h-13l-65 -7l26 20q12 7 87 47q79 42 107 71q-3 -13 -5 -16v1q2 -12 2 -72v-566q0 -36 38 -75z" />
    <glyph glyph-name="ordmasculine" unicode="&#xba;" horiz-adv-x="485" 
d="M450 1165q0 -90 -60 -140q-56 -47 -147 -47q-88 0 -146 49q-61 51 -61 138q0 89 60 140q57 49 147 49q89 0 146 -50q61 -52 61 -139zM339 1165q0 129 -96 129t-96 -129q0 -125 96 -125q46 0 73 41q23 35 23 84z" />
    <glyph glyph-name="guillemotright" unicode="&#xbb;" horiz-adv-x="1035" 
d="M1000 342q-299 -94 -362 -328l-194 -27q83 261 274 355q-244 178 -301 325l174 40q45 -117 206 -227zM619 342q-299 -94 -362 -328l-194 -27q83 261 273 355q-243 176 -300 325l175 40q44 -117 205 -227z" />
    <glyph glyph-name="onequarter" unicode="&#xbc;" horiz-adv-x="1498" 
d="M1134 1434l-861 -1479h-171q76 82 153 211l587 982q69 115 71 176l-2 11l-18 27l-24 49q36 23 52 23h213zM301 533h-184q28 32 33 53l3 49v492h-4l-25 3h-13l-65 -7l26 20q12 7 87 47q79 42 108 71q-4 -13 -6 -16v1q2 -12 2 -72v-566q0 -36 38 -75zM1452 384l-54 -66h-86
v-161q0 -12 3 -24q0 -15 35 -51h-187q32 32 36 53l4 50v133h-363q61 76 77 104q57 99 57 195q0 55 -27 81l-88 40q17 16 24 20l-3 -1q54 31 117 31q63 -36 63 -170q0 -25 -4 -43q-25 -115 -69 -191h216v135q0 29 -30 53q-12 9 -48 38q71 10 109 29l101 68l-3 -50
q-20 -63 -20 -97v-176h140z" />
    <glyph glyph-name="onehalf" unicode="&#xbd;" horiz-adv-x="1485" 
d="M1135 1434l-861 -1479h-171q73 77 153 211l587 982q69 115 71 176l-2 11l-18 27l-24 49q36 23 52 23h213zM303 533h-184q28 32 32 53l4 49v492h-4l-25 3h-14l-64 -7l26 20q12 7 87 47q79 42 107 71q-3 -13 -5 -16v1q2 -12 2 -72v-566q0 -36 38 -75zM1437 249l-65 -154
l-501 -2v29q7 0 99 80q72 63 107 96q184 175 184 286q0 73 -42.5 118.5t-115.5 45.5q-19 0 -46 -10q-34 -13 -28 -29q-16 -32 -16 -74q0 -44 17 -89l-51 6l-56 -3l-35 -8q0 40 20 101q23 71 57 96q86 64 199 64q85 0 141 -37q66 -43 66 -124q0 -209 -335 -462h214
q55 0 96 21q11 5 91 49z" />
    <glyph glyph-name="threequarters" unicode="&#xbe;" horiz-adv-x="1713" 
d="M1346 1434l-861 -1479h-171q73 77 153 211l587 982q69 115 71 176l-2 11l-18 27l-24 49q36 23 52 23h213zM565 649q0 -96 -79 -154q-71 -53 -170 -53q-96 0 -182 39l-85 63q92 10 175 61v-36q0 -79 78 -79q44 0 82 33q53 46 53 126q0 103 -74 151q-54 35 -168 48
q127 33 154 47q75 39 75 102q0 55 -47 87q-41 28 -98 28q-31 0 -60 -28t-29 -59q0 -10 3 -19l-64 10h-13q-9 0 -49 5q83 139 264 139q74 0 135 -30q76 -37 76 -101q0 -81 -65 -127q-18 -13 -73 -35q161 -80 161 -218zM1664 384l-53 -66h-86v-161q0 -12 2 -24q1 -15 36 -51
h-187q31 32 36 53l3 50v133h-362q61 76 77 104q57 99 57 195q0 55 -27 81l-89 40q17 16 25 20l-3 -1q54 31 117 31q62 -36 62 -170q0 -25 -4 -43q-25 -115 -68 -191h215v135q0 29 -30 53q-12 9 -48 38q72 10 109 29l102 68l-3 -50q-20 -63 -20 -97v-176h139z" />
    <glyph glyph-name="questiondown" unicode="&#xbf;" horiz-adv-x="799" 
d="M541 887q0 -48 -31.5 -77.5t-79.5 -29.5t-79.5 29.5t-31.5 77.5q0 47 32 76.5t79 29.5t79 -29.5t32 -76.5zM764 52q0 -109 -116 -179q-100 -60 -216 -60q-396 0 -396 261q0 128 79 224q45 55 151 126q83 56 86 78q8 63 6 91q-3 40 -29 121h52q38 0 88 2q25 1 80 1
q-35 -38 -35 -86q0 -16 6 -48t6 -48q0 -48 -47 -78q-129 -82 -186 -156q-73 -95 -73 -227q0 -105 46 -145q43 -36 150 -36q88 0 142 68q50 62 50 153q0 55 -36 84q-29 23 -110 50q32 4 61 4q102 0 167 -48q74 -54 74 -152z" />
    <glyph glyph-name="Agrave" unicode="&#xc0;" horiz-adv-x="1486" 
d="M919 1319h-176q10 20 10 24q0 14 -16 39q-55 84 -89 117q-38 36 -121 83l13 52h207l46 -107q52 -121 126 -208zM1451 -1h-337q-31 105 -108 264l-111 230q-141 -28 -370 -183q-254 -172 -254 -289q0 -11 4 -21l-70 -1l-169 1q66 46 268 442q80 156 303 601q2 10 2 20
q0 60 -64 109q-35 21 -69 43l193 14q87 6 112 -41q83 -157 213 -454q137 -313 209 -456q57 -113 106 -170q59 -69 142 -109zM866 549l-194 372l-325 -619q65 75 250 151q39 16 269 96z" />
    <glyph glyph-name="Aacute" unicode="&#xc1;" horiz-adv-x="1486" 
d="M919 1582q-83 -47 -121 -83q-34 -33 -89 -117q-16 -25 -16 -39q1 -4 10 -24h-176q74 87 126 208l46 107h207zM1451 -1h-337q-31 105 -108 264l-111 230q-141 -28 -370 -183q-254 -172 -254 -289q0 -11 4 -21l-70 -1l-169 1q66 46 268 442q80 156 303 601q2 10 2 20
q0 60 -64 109q-35 21 -69 43l193 14q87 6 112 -41q83 -157 213 -454q137 -313 209 -456q57 -113 106 -170q59 -69 142 -109zM866 549l-194 372l-325 -619q65 75 250 151q39 16 269 96z" />
    <glyph glyph-name="Acircumflex" unicode="&#xc2;" horiz-adv-x="1486" 
d="M1035 1311h-202l27 22q8 4 21 26q-16 22 -112 140q-86 -88 -86 -125q1 -2 4 -25l2 -13l2 -11l2 -20l-19 6h-223q59 44 165 144q47 57 67 76q43 49 77 94q19 -22 142 -153q80 -85 133 -161zM1451 -1h-337q-31 105 -108 264l-111 230q-141 -28 -370 -183
q-254 -172 -254 -289q0 -11 4 -21l-70 -1l-169 1q66 46 268 442q80 156 303 601q2 10 2 20q0 60 -64 109q-35 21 -69 43l193 14q87 6 112 -41q83 -157 213 -454q137 -313 209 -456q57 -113 106 -170q59 -69 142 -109zM866 549l-194 372l-325 -619q65 75 250 151
q39 16 269 96z" />
    <glyph glyph-name="Atilde" unicode="&#xc3;" horiz-adv-x="1486" 
d="M1094 1494q-73 -77 -115 -102q-67 -40 -148 -27l-64 18q-100 47 -136 53q-24 4 -52 4t-58 -4l-129 -32q79 77 111 96q74 44 162 30l67 -19l108 -46q84 -14 121 -10q4 0 133 39zM1451 -1h-337q-31 105 -108 264l-111 230q-141 -28 -370 -183q-254 -172 -254 -289
q0 -11 4 -21l-70 -1l-169 1q66 46 268 442q80 156 303 601q2 10 2 20q0 60 -64 109q-35 21 -69 43l193 14q87 6 112 -41q83 -157 213 -454q137 -313 209 -456q57 -113 106 -170q59 -69 142 -109zM866 549l-194 372l-325 -619q65 75 250 151q39 16 269 96z" />
    <glyph glyph-name="Adieresis" unicode="&#xc4;" horiz-adv-x="1486" 
d="M991 1437q0 -77 -102 -79q-94 -2 -104 77q0 69 101 79q93 0 105 -77zM702 1437q0 -77 -102 -79q-94 -2 -104 77q0 68 101 79q93 0 105 -77zM1451 -1h-337q-31 105 -108 264l-111 230q-141 -28 -370 -183q-254 -172 -254 -289q0 -11 4 -21l-70 -1l-169 1q66 46 268 442
q80 156 303 601q2 10 2 20q0 60 -64 109q-35 21 -69 43l193 14q87 6 112 -41q83 -157 213 -454q137 -313 209 -456q57 -113 106 -170q59 -69 142 -109zM866 549l-194 372l-325 -619q65 75 250 151q39 16 269 96z" />
    <glyph glyph-name="Aring" unicode="&#xc5;" horiz-adv-x="1486" 
d="M950 1440q0 -90 -60 -140q-56 -47 -147 -47q-87 0 -145 49q-62 52 -62 138q0 89 60 140q57 49 147 49q88 0 147.5 -51t59.5 -138zM1451 -1h-337q-31 105 -108 264l-111 230q-141 -28 -370 -183q-254 -172 -254 -289q0 -11 4 -21l-70 -1l-169 1q66 46 268 442
q80 156 303 601q2 10 2 20q0 60 -64 109q-35 21 -69 43l193 14q87 6 112 -41q83 -157 213 -454q137 -313 209 -456q57 -113 106 -170q59 -69 142 -109zM839 1440q0 129 -96 129t-96 -129q0 -125 96 -125q46 0 73 41q23 35 23 84zM866 549l-194 372l-325 -619q65 75 250 151
q39 16 269 96z" />
    <glyph glyph-name="AE" unicode="&#xc6;" horiz-adv-x="1885" 
d="M1850 27q-18 -33 -46 -33h-778l-37 35l83 46q25 25 32 41q3 53 0 147l-7 230q-121 -22 -432 -183q-332 -172 -385 -289q-5 -11 -5 -21l-71 -1l-168 1q108 58 467 442q49 53 555 601q22 33 22 65q0 19 -8 37l-1 1l-83 46l20 20l-3 3l7 1l13 11h150l29 2q30 2 51 -2h548
q28 0 46 -33q-46 -74 -46 -101l9 -68l-60 19q-93 70 -235 95l-50 4l-51 2l-83 -2l-33 -3q7 -134 4 -390h502l-74 -125l-101 -96q-97 131 -278 131q-6 0 -23 1q-18 1 -27 -2q-4 -458 34 -551q5 -12 15 -30l65 -2l51 2l50 4q142 25 235 95l60 19l-9 -68q0 -27 46 -101z
M1094 549l-26 372l-585 -619q98 74 318 151q84 29 293 96z" />
    <glyph glyph-name="Ccedilla" unicode="&#xc7;" horiz-adv-x="1405" 
d="M1370 1229l-72 -59q-51 -53 -51 -97v-42q-4 -10 -4 -81q-144 183 -420 183q-252 0 -407 -131q-166 -141 -166 -388q0 -225 123 -380q135 -171 364 -171q290 0 504 319v-250q-163 -141 -435 -162q-6 -15 -6 -22q0 15 9 15q15 0 59 -49q68 -76 68 -101q0 -15 -4 -27
q-36 -111 -273 -111q-33 0 -74 20q-57 28 -49 71q34 -41 96 -41q86 0 128 67q9 14 9 29q0 32 -72 84t-72 51q0 5 2 14q-249 21 -404 166q-187 174 -187 478t251 471q216 144 536 144h547z" />
    <glyph glyph-name="Egrave" unicode="&#xc8;" horiz-adv-x="933" 
d="M655 1319h-176q10 20 10 24q0 14 -16 39q-55 84 -89 117q-38 36 -121 83l13 52h207l46 -107q52 -121 126 -208zM898 29q-18 -33 -46 -33h-778l-37 35l83 46q27 28 34 45q0 13 3 40l1 2v902q0 43 -39 82l-83 46l37 35h778q28 0 46 -33q-46 -74 -46 -101l9 -68l-60 19
q-93 70 -235 95l-50 4l-51 2l-83 -2l-40 -4v-389h513l-74 -125l-101 -96q-91 123 -278 131q-4 0 -23 1q-20 1 -29 -1.5t-8 -8.5l1 -569l40 -4l83 -2l51 2l50 4q142 25 235 95l60 19l-9 -68q0 -27 46 -101z" />
    <glyph glyph-name="Eacute" unicode="&#xc9;" horiz-adv-x="933" 
d="M655 1582q-83 -47 -121 -83q-34 -33 -89 -117q-16 -25 -16 -39q1 -4 10 -24h-176q74 87 126 208l46 107h207zM898 29q-18 -33 -46 -33h-778l-37 35l83 46q27 28 34 45q0 13 3 40l1 2v902q0 43 -39 82l-83 46l37 35h778q28 0 46 -33q-46 -74 -46 -101l9 -68l-60 19
q-93 70 -235 95l-50 4l-51 2l-83 -2l-40 -4v-389h513l-74 -125l-101 -96q-91 123 -278 131q-4 0 -23 1q-20 1 -29 -1.5t-8 -8.5l1 -569l40 -4l83 -2l51 2l50 4q142 25 235 95l60 19l-9 -68q0 -27 46 -101z" />
    <glyph glyph-name="Ecircumflex" unicode="&#xca;" horiz-adv-x="933" 
d="M751 1311h-202l27 22q8 4 21 26q-16 22 -112 140q-86 -88 -86 -125q1 -2 4 -25l2 -13l2 -11l2 -20l-19 6h-223q59 44 165 144q47 57 67 76q43 49 77 94q19 -22 142 -153q80 -85 133 -161zM898 29q-18 -33 -46 -33h-778l-37 35l83 46q27 28 34 45q0 13 3 40l1 2v902
q0 43 -39 82l-83 46l37 35h778q28 0 46 -33q-46 -74 -46 -101l9 -68l-60 19q-93 70 -235 95l-50 4l-51 2l-83 -2l-40 -4v-389h513l-74 -125l-101 -96q-91 123 -278 131q-4 0 -23 1q-20 1 -29 -1.5t-8 -8.5l1 -569l40 -4l83 -2l51 2l50 4q142 25 235 95l60 19l-9 -68
q0 -27 46 -101z" />
    <glyph glyph-name="Edieresis" unicode="&#xcb;" horiz-adv-x="933" 
d="M707 1437q0 -77 -102 -79q-94 -2 -104 77q0 69 101 79q93 0 105 -77zM418 1437q0 -77 -102 -79q-94 -2 -104 77q0 68 101 79q93 0 105 -77zM898 29q-18 -33 -46 -33h-778l-37 35l83 46q27 28 34 45q0 13 3 40l1 2v902q0 43 -39 82l-83 46l37 35h778q28 0 46 -33
q-46 -74 -46 -101l9 -68l-60 19q-93 70 -235 95l-50 4l-51 2l-83 -2l-40 -4v-389h513l-74 -125l-101 -96q-91 123 -278 131q-4 0 -23 1q-20 1 -29 -1.5t-8 -8.5l1 -569l40 -4l83 -2l51 2l50 4q142 25 235 95l60 19l-9 -68q0 -27 46 -101z" />
    <glyph glyph-name="Igrave" unicode="&#xcc;" horiz-adv-x="556" 
d="M520 1319h-176q10 20 10 24q0 14 -16 39q-55 84 -89 117q-38 36 -121 83l13 52h207l46 -107q52 -121 126 -208zM512 0h-300q42 54 52 89l6 82v808q0 94 -54 132q-17 12 -105 41q-63 21 -75 68l47 9h370v-1058q0 -70 7 -93q8 -27 52 -78z" />
    <glyph glyph-name="Iacute" unicode="&#xcd;" horiz-adv-x="556" 
d="M520 1582q-83 -47 -121 -83q-34 -33 -89 -117q-16 -25 -16 -39q1 -4 10 -24h-176q74 87 126 208l46 107h207zM512 0h-300q42 54 52 89l6 82v808q0 94 -54 132q-17 12 -105 41q-63 21 -75 68l47 9h370v-1058q0 -70 7 -93q8 -27 52 -78z" />
    <glyph glyph-name="Icircumflex" unicode="&#xce;" horiz-adv-x="654" 
d="M619 1311h-202l27 22q8 4 22 26q-16 22 -113 140q-86 -88 -86 -125q1 -2 4 -25l2 -13l2 -11l2 -20l-19 6h-222q58 44 164 144q47 57 67 76q43 49 78 94q20 -24 141 -153q80 -86 133 -161zM515 0h-300q43 54 52 89l6 82v808q0 93 -54 132q-17 12 -105 41q-62 20 -75 68
l47 9h370v-1058q0 -70 7 -93q8 -27 52 -78z" />
    <glyph glyph-name="Idieresis" unicode="&#xcf;" horiz-adv-x="607" 
d="M572 1437q0 -77 -102 -79q-94 -2 -104 77q0 69 101 79q93 0 105 -77zM283 1437q0 -77 -102 -79q-94 -2 -104 77q0 68 101 79q93 0 105 -77zM512 0h-300q42 54 52 89l6 82v808q0 94 -54 132q-17 12 -105 41q-63 21 -75 68l47 9h370v-1058q0 -70 7 -93q8 -27 52 -78z" />
    <glyph glyph-name="Eth" unicode="&#xd0;" horiz-adv-x="1465" 
d="M1430 611q0 -280 -178.5 -462t-458.5 -182q-90 0 -186 24q-112 28 -164 79v-70l-183 -1v500q-49 -7 -77 -21l-147 -74q77 120 109 154q52 55 115 73v381q178 115 332 181q84 36 254 36q266 0 428 -178q156 -171 156 -440zM1216 611q0 212 -98 355q-115 167 -325 167
q-139 0 -239 -74q-111 -82 -111 -216v-227q39 -12 98 -27q8 -2 50 -2q74 0 143 46q16 11 114 95q-79 -150 -112 -189q-75 -89 -186 -89q-38 0 -107 21v-306q58 -49 170 -78q93 -24 188 -24q192 0 311 184q104 161 104 364z" />
    <glyph glyph-name="Ntilde" unicode="&#xd1;" horiz-adv-x="1324" 
d="M1105 1494q-72 -76 -116 -102q-67 -40 -148 -27l-64 18q-99 47 -136 53q-24 4 -52 4q-27 0 -57 -4l-130 -32q81 78 111 96q73 44 162 30l67 -19l108 -46q82 -14 121 -10q9 1 134 39zM1289 65q0 -62 -29 -72l-18 4q4 -2 14 -10q-34 17 -81 70l-818 932v-682q0 -91 52 -171
q35 -54 123 -136h-337q67 113 67 205v889l-83 50q-34 9 -82 27q-13 7 -61 47l85 11h270l803 -937v680q0 43 -7 58q-6 21 -28 57l-109 85v57h239v-1164z" />
    <glyph glyph-name="Ograve" unicode="&#xd2;" horiz-adv-x="1477" 
d="M917 1319h-176q9 20 9 24q0 16 -15 39q-85 131 -210 200l13 52h207l46 -107q53 -123 126 -208zM1442 615q0 -307 -220 -486q-200 -162 -483 -162q-287 0 -483 162q-220 181 -220 486q0 306 220 485q199 162 483 162q286 0 483 -162q220 -181 220 -485zM1228 615
q0 262 -153 415q-137 137 -336 137q-236 0 -367 -162q-122 -149 -122 -390q0 -239 123 -389q132 -163 366 -163t366 163q123 150 123 389z" />
    <glyph glyph-name="Oacute" unicode="&#xd3;" horiz-adv-x="1477" 
d="M917 1582q-81 -44 -121 -83q-36 -35 -89 -117q-16 -25 -16 -39q1 -4 10 -24h-176q74 87 126 208l46 107h207zM1442 615q0 -307 -220 -486q-200 -162 -483 -162q-287 0 -483 162q-220 181 -220 486q0 306 220 485q199 162 483 162q286 0 483 -162q220 -181 220 -485z
M1228 615q0 262 -153 415q-137 137 -336 137q-236 0 -367 -162q-122 -149 -122 -390q0 -239 123 -389q132 -163 366 -163t366 163q123 150 123 389z" />
    <glyph glyph-name="Ocircumflex" unicode="&#xd4;" horiz-adv-x="1477" 
d="M1012 1311h-201l27 22q7 4 21 26q-16 22 -113 140q-85 -88 -85 -125q0 -12 3 -25l3 -13l1 -11l2 -20l-18 6h-223q59 44 164 144q47 57 67 76q43 49 78 94q24 -30 141 -153q83 -88 133 -161zM1442 615q0 -307 -220 -486q-200 -162 -483 -162q-287 0 -483 162
q-220 181 -220 486q0 306 220 485q199 162 483 162q286 0 483 -162q220 -181 220 -485zM1228 615q0 262 -153 415q-137 137 -336 137q-236 0 -367 -162q-122 -149 -122 -390q0 -239 123 -389q132 -163 366 -163t366 163q123 150 123 389z" />
    <glyph glyph-name="Otilde" unicode="&#xd5;" horiz-adv-x="1477" 
d="M1072 1494q-72 -76 -116 -102q-67 -40 -148 -27l-64 18q-99 47 -136 53q-24 4 -52 4q-27 0 -57 -4l-130 -32q81 78 111 96q73 44 162 30l67 -19l108 -46q82 -14 121 -10q9 1 134 39zM1442 615q0 -307 -220 -486q-200 -162 -483 -162q-287 0 -483 162q-220 181 -220 486
q0 306 220 485q199 162 483 162q286 0 483 -162q220 -181 220 -485zM1228 615q0 262 -153 415q-137 137 -336 137q-236 0 -367 -162q-122 -149 -122 -390q0 -239 123 -389q132 -163 366 -163t366 163q123 150 123 389z" />
    <glyph glyph-name="Odieresis" unicode="&#xd6;" horiz-adv-x="1477" 
d="M968 1437q0 -77 -102 -79q-93 -2 -104 77q0 69 101 79q94 0 105 -77zM679 1437q0 -77 -102 -79q-93 -2 -104 77q0 68 101 79q94 0 105 -77zM1442 615q0 -307 -220 -486q-200 -162 -483 -162q-287 0 -483 162q-220 181 -220 486q0 306 220 485q199 162 483 162
q286 0 483 -162q220 -181 220 -485zM1228 615q0 262 -153 415q-137 137 -336 137q-236 0 -367 -162q-122 -149 -122 -390q0 -239 123 -389q132 -163 366 -163t366 163q123 150 123 389z" />
    <glyph glyph-name="multiply" unicode="&#xd7;" horiz-adv-x="539" 
d="M504 480l-41 -122l-199 199l-213 -213l4 183l119 120l-138 138l33 129l186 -186l210 209l-3 -182l-117 -117z" />
    <glyph glyph-name="Oslash" unicode="&#xd8;" horiz-adv-x="1477" 
d="M1442 617q0 -311 -224 -491q-197 -158 -481 -158q-156 0 -291 53q-24 -42 -37 -99h-167l83 115l20 32q-309 176 -309 548q0 303 202 480q192 168 499 168q145 0 286 -50l6 14q2 8 15 65v3l-4 7l-16 25l-24 49q36 23 52 23h213l-139 -233q150 -81 234 -231
q82 -146 82 -320zM1228 617q0 202 -97 348q-27 41 -75 84l-553 -924l50 -25q72 -36 184 -36q226 0 363 167q128 156 128 386zM970 1111l-50 25q-66 33 -183 33q-232 0 -364 -164q-123 -151 -123 -388q0 -280 167 -431z" />
    <glyph glyph-name="Ugrave" unicode="&#xd9;" horiz-adv-x="1255" 
d="M824 1319h-176q9 20 9 24q0 16 -15 39q-85 131 -210 200l13 52h207l46 -107q53 -123 126 -208zM1220 596q0 -256 -139 -429q-153 -190 -414 -190l-20 1q-19 1 -39 0l-19 -1q-262 0 -414 190q-139 173 -139 429q0 151 103 306q108 132 123 155q0 9 -23 31l-113 108
q30 33 50 33h258q15 0 25 -4l9 -14v-29q-218 -209 -218 -586q0 -231 101 -363q69 -90 96 -111q64 -49 181 -54q127 6 186 54q15 12 91 111q101 131 101 363q0 377 -218 586v29l9 14q9 4 25 4h258q20 0 50 -33l-113 -108q-23 -22 -23 -31q14 -23 123 -155q103 -155 103 -306z
" />
    <glyph glyph-name="Uacute" unicode="&#xda;" horiz-adv-x="1255" 
d="M830 1582q-83 -47 -121 -83q-34 -33 -89 -117q-16 -25 -16 -39q1 -4 10 -24h-176q74 87 126 208l46 107h207zM1220 596q0 -256 -139 -429q-153 -190 -414 -190l-20 1q-19 1 -39 0l-19 -1q-262 0 -414 190q-139 173 -139 429q0 151 103 306q108 132 123 155q0 9 -23 31
l-113 108q30 33 50 33h258q15 0 25 -4l9 -14v-29q-218 -209 -218 -586q0 -231 101 -363q69 -90 96 -111q64 -49 181 -54q127 6 186 54q15 12 91 111q101 131 101 363q0 377 -218 586v29l9 14q9 4 25 4h258q20 0 50 -33l-113 -108q-23 -22 -23 -31q14 -23 123 -155
q103 -155 103 -306z" />
    <glyph glyph-name="Ucircumflex" unicode="&#xdb;" horiz-adv-x="1255" 
d="M926 1311h-202l27 22q8 4 21 26q-16 22 -112 140q-86 -88 -86 -125q1 -2 4 -25l2 -13l2 -11l2 -20l-19 6h-223q59 44 165 144q47 57 67 76q43 49 77 94q19 -22 142 -153q80 -85 133 -161zM1220 596q0 -256 -139 -429q-153 -190 -414 -190l-20 1q-19 1 -39 0l-19 -1
q-262 0 -414 190q-139 173 -139 429q0 151 103 306q108 132 123 155q0 9 -23 31l-113 108q30 33 50 33h258q15 0 25 -4l9 -14v-29q-218 -209 -218 -586q0 -231 101 -363q69 -90 96 -111q64 -49 181 -54q127 6 186 54q15 12 91 111q101 131 101 363q0 377 -218 586v29l9 14
q9 4 25 4h258q20 0 50 -33l-113 -108q-23 -22 -23 -31q14 -23 123 -155q103 -155 103 -306z" />
    <glyph glyph-name="Udieresis" unicode="&#xdc;" horiz-adv-x="1255" 
d="M882 1437q0 -77 -102 -79q-94 -2 -104 77q0 69 101 79q93 0 105 -77zM593 1437q0 -77 -102 -79q-94 -2 -104 77q0 68 101 79q93 0 105 -77zM1220 596q0 -256 -139 -429q-153 -190 -414 -190l-20 1q-19 1 -39 0l-19 -1q-262 0 -414 190q-139 173 -139 429q0 151 103 306
q108 132 123 155q0 9 -23 31l-113 108q30 33 50 33h258q15 0 25 -4l9 -14v-29q-218 -209 -218 -586q0 -231 101 -363q69 -90 96 -111q64 -49 181 -54q127 6 186 54q15 12 91 111q101 131 101 363q0 377 -218 586v29l9 14q9 4 25 4h258q20 0 50 -33l-113 -108
q-23 -22 -23 -31q14 -23 123 -155q103 -155 103 -306z" />
    <glyph glyph-name="Yacute" unicode="&#xdd;" horiz-adv-x="1308" 
d="M914 1434q-3 -33 -26 -45q-137 -94 -245 -130q-6 -2 -68 -20q0 71 204 244q23 19 53 29q32 0 57 -23t25 -55zM1273 1227q-251 -362 -510 -780l-357 -576q-37 -60 -37 -70q0 -8 7 -13q20 -8 29 -16q16 -6 58 -19q39 -12 45 -36l-327 -6l382 609l-150 278l-213 405
q-2 3 -164 231h392q8 0 44 -32q-68 -53 -68 -98q0 -115 276 -599l199 289q145 211 151 279q-5 63 -122 140l68 14h297z" />
    <glyph glyph-name="Thorn" unicode="&#xde;" horiz-adv-x="1040" 
d="M1005 582q0 -170 -112 -268q-106 -94 -278 -94h-250v-50q0 -70 7 -93q8 -27 52 -78h-300q41 54 52 89l6 82v798q0 74 -73 74q-26 0 -73 -11q46 73 147 111q48 18 182 46v-244l250 1q169 1 277 -96q113 -100 113 -267zM832 582q0 115 -50 193q-58 92 -167 92h-250v-569
h249q110 0 168 91q50 77 50 193z" />
    <glyph glyph-name="germandbls" unicode="&#xdf;" horiz-adv-x="1045" 
d="M1009 187q0 -139 -113 -219q-83 -59 -138 -73q-35 -9 -126 -9q-156 0 -257 80q-85 68 -85 264l210 -47q0 -80 -1 -73q3 -38 26 -62q53 -54 119 -54q69 0 114.5 48.5t45.5 117.5q0 129 -123 215q-58 40 -229 158q-123 85 -123 189q197 102 197 246q0 72 -33 136
q-40 78 -106 78q-76 0 -124 -93q-41 -80 -41 -170v-914l-185 -164v1075q0 5 -1 14.5t-1 14.5q-1 130 73 221q-24 0 -24 7q0 15 125 66q178 72 222 72q136 0 219 -92q81 -88 81 -225q0 -102 -82 -188l-140 -113q17 -23 233 -152q267 -159 267 -354z" />
    <glyph glyph-name="agrave" unicode="&#xe0;" horiz-adv-x="798" 
d="M575 869h-176q10 20 10 24q0 14 -16 39q-55 84 -89 117q-38 36 -121 83l13 52h207l46 -107q52 -121 126 -208zM763 1h-204q-25 0 -42 29q-14 24 -11 34q1 5 5 16q-118 -88 -214 -88q-111 0 -181 50q-80 56 -80 163q0 198 178 246q159 43 204 63q65 29 94 83
q-83 49 -191 49q-90 0 -229 -37q123 114 314 114q94 0 195 -34q67 -32 67 -108v-480q0 -5 10 -18q24 -66 85 -82zM512 189v316q-47 -49 -108 -70q-123 -43 -138 -53q-57 -39 -57 -131q0 -135 131 -135q81 0 172 73z" />
    <glyph glyph-name="aacute" unicode="&#xe1;" horiz-adv-x="798" 
d="M575 1132q-83 -47 -121 -83q-34 -33 -89 -117q-16 -25 -16 -39q1 -4 10 -24h-176q74 87 126 208l46 107h207zM763 1h-204q-25 0 -42 29q-14 24 -11 34q1 5 5 16q-118 -88 -214 -88q-111 0 -181 50q-80 56 -80 163q0 198 178 246q159 43 204 63q65 29 94 83
q-83 49 -191 49q-90 0 -229 -37q123 114 314 114q94 0 195 -34q67 -32 67 -108v-480q0 -5 10 -18q24 -66 85 -82zM512 189v316q-47 -49 -108 -70q-123 -43 -138 -53q-57 -39 -57 -131q0 -135 131 -135q81 0 172 73z" />
    <glyph glyph-name="acircumflex" unicode="&#xe2;" horiz-adv-x="798" 
d="M671 879h-202l27 21q8 5 21 27q-16 22 -112 140q-86 -88 -86 -125l6 -39l2 -10l2 -20q-16 4 -19 6h-223q59 43 165 144q47 57 67 76q43 49 77 94q19 -22 142 -153q80 -85 133 -161zM763 1h-204q-25 0 -42 29q-14 24 -11 34q1 5 5 16q-118 -88 -214 -88q-111 0 -181 50
q-80 56 -80 163q0 198 178 246q159 43 204 63q65 29 94 83q-83 49 -191 49q-90 0 -229 -37q123 114 314 114q94 0 195 -34q67 -32 67 -108v-480q0 -5 10 -18q24 -66 85 -82zM512 189v316q-47 -49 -108 -70q-123 -43 -138 -53q-57 -39 -57 -131q0 -135 131 -135q81 0 172 73z
" />
    <glyph glyph-name="atilde" unicode="&#xe3;" horiz-adv-x="806" 
d="M738 1019q-73 -77 -115 -102q-67 -40 -148 -27l-64 18q-100 47 -137 53q-24 4 -51 4q-28 0 -58 -4l-129 -32q79 77 111 96q74 44 162 30l66 -19l109 -46q84 -14 121 -10q4 0 133 39zM770 1h-204q-24 0 -42 29q-14 23 -11 34q3 7 5 16q-118 -88 -214 -88q-109 0 -180 51
q-81 57 -81 162q0 198 178 246q158 43 204 63q66 30 94 83q-82 49 -191 49q-90 0 -229 -37q124 114 314 114q95 0 195 -34q67 -32 67 -108v-480q0 -5 10 -18q24 -66 85 -82zM519 189v316q-45 -48 -108 -70q-121 -42 -137 -53q-58 -39 -58 -131q0 -135 131 -135q81 0 172 73z
" />
    <glyph glyph-name="adieresis" unicode="&#xe4;" horiz-adv-x="798" 
d="M627 982q0 -77 -102 -79q-94 -2 -104 77q0 69 101 79q93 0 105 -77zM338 982q0 -77 -102 -79q-94 -2 -104 77q0 68 101 79q93 0 105 -77zM763 1h-204q-25 0 -42 29q-14 24 -11 34q1 5 5 16q-118 -88 -214 -88q-111 0 -181 50q-80 56 -80 163q0 198 178 246q159 43 204 63
q65 29 94 83q-83 49 -191 49q-90 0 -229 -37q123 114 314 114q94 0 195 -34q67 -32 67 -108v-480q0 -5 10 -18q24 -66 85 -82zM512 189v316q-47 -49 -108 -70q-123 -43 -138 -53q-57 -39 -57 -131q0 -135 131 -135q81 0 172 73z" />
    <glyph glyph-name="aring" unicode="&#xe5;" horiz-adv-x="798" 
d="M763 1h-204q-25 0 -42 29q-14 24 -11 34q1 5 5 16q-118 -88 -214 -88q-111 0 -181 50q-80 56 -80 163q0 198 178 246q159 43 204 63q65 29 94 83q-83 49 -191 49q-90 0 -229 -37q123 114 314 114q94 0 195 -34q67 -32 67 -108v-480q0 -5 10 -18q24 -66 85 -82zM512 189
v316q-47 -49 -108 -70q-123 -43 -138 -53q-57 -39 -57 -131q0 -135 131 -135q81 0 172 73z" />
    <glyph glyph-name="ae" unicode="&#xe6;" horiz-adv-x="1290" 
d="M1255 272q-103 -290 -366 -290q-122 0 -219 74q-5 -5 -38.5 -26.5t-33.5 -24.5q2 -3 8 -5l-47 1q-20 0 -39 22t-14 41q2 6 5 16q-118 -88 -214 -88q-111 0 -181 50q-80 56 -80 163q0 198 178 246q159 43 204 63q65 29 94 83q-83 49 -191 49q-90 0 -229 -37
q123 114 314 114q94 0 195 -34q37 -18 55 -51q91 69 225 69q127 0 203 -65q67 -58 113 -184l-506 -90v-6q0 -117 69 -199q72 -88 187 -88q94 0 180 57q82 54 128 140zM1023 517q-12 54 -61.5 86.5t-104.5 25.5q-84 -11 -126 -78q-22 -51 -44 -101zM688 367h-1l-2 -12
q0 6 3 12zM512 189v316q-47 -49 -108 -70q-123 -43 -138 -53q-57 -39 -57 -131q0 -135 131 -135q81 0 172 73z" />
    <glyph glyph-name="ccedilla" unicode="&#xe7;" horiz-adv-x="753" 
d="M718 206q-64 -172 -204 -212v-6q-5 0 -11.5 -16.5t-6.5 -23.5q0 15 9 15q15 0 59 -49q68 -76 68 -101q0 -15 -4 -27q-36 -111 -273 -111q-33 0 -74 20q-57 28 -49 71q34 -41 96 -41q86 0 128 67q9 14 9 29q0 32 -72 84t-72 51q0 11 7 34q-115 21 -190 99
q-102 106 -102 286q0 149 124 245q112 87 267 87q62 0 161 -38q114 -44 114 -94q0 -16 -64 -59q-53 -36 -82 -49q10 25 10 47q0 53 -51 86q-44 29 -100 29q-101 0 -158 -92q-48 -78 -48 -185q0 -116 72 -195q74 -82 189 -82q45 0 113 30q83 37 135 101z" />
    <glyph glyph-name="egrave" unicode="&#xe8;" horiz-adv-x="808" 
d="M599 869h-176q10 20 10 24q0 14 -16 39q-55 84 -89 117q-38 36 -121 83l13 52h207l46 -107q52 -121 126 -208zM773 272q-103 -290 -366 -290q-152 0 -261.5 105.5t-109.5 256.5q0 166 98.5 264.5t264.5 98.5q127 0 203 -65q67 -58 113 -184l-510 -91l-2 -12q2 10 5 19
q1 -4 1 -12q0 -119 68 -200q72 -87 188 -87q94 0 180 57q82 54 128 140zM541 517q-12 54 -61.5 86.5t-104.5 25.5q-84 -11 -126 -78q-22 -51 -44 -101z" />
    <glyph glyph-name="eacute" unicode="&#xe9;" horiz-adv-x="808" 
d="M599 1132q-83 -47 -121 -83q-34 -33 -89 -117q-16 -25 -16 -39q1 -4 10 -24h-176q74 87 126 208l46 107h207zM773 272q-103 -290 -366 -290q-152 0 -261.5 105.5t-109.5 256.5q0 166 98.5 264.5t264.5 98.5q127 0 203 -65q67 -58 113 -184l-510 -91l-2 -12q2 10 5 19
q1 -4 1 -12q0 -119 68 -200q72 -87 188 -87q94 0 180 57q82 54 128 140zM541 517q-12 54 -61.5 86.5t-104.5 25.5q-84 -11 -126 -78q-22 -51 -44 -101z" />
    <glyph glyph-name="ecircumflex" unicode="&#xea;" horiz-adv-x="808" 
d="M695 879h-202l27 21q8 5 21 27q-16 22 -112 140q-86 -88 -86 -125l6 -39l2 -10l2 -20q-16 4 -19 6h-223q59 43 165 144q47 57 67 76q43 49 77 94q19 -22 142 -153q80 -85 133 -161zM773 272q-103 -290 -366 -290q-152 0 -261.5 105.5t-109.5 256.5q0 166 98.5 264.5
t264.5 98.5q127 0 203 -65q67 -58 113 -184l-510 -91l-2 -12q2 10 5 19q1 -4 1 -12q0 -119 68 -200q72 -87 188 -87q94 0 180 57q82 54 128 140zM541 517q-12 54 -61.5 86.5t-104.5 25.5q-84 -11 -126 -78q-22 -51 -44 -101z" />
    <glyph glyph-name="edieresis" unicode="&#xeb;" horiz-adv-x="808" 
d="M651 982q0 -77 -102 -79q-94 -2 -104 77q0 69 101 79q93 0 105 -77zM362 982q0 -77 -102 -79q-94 -2 -104 77q0 68 101 79q93 0 105 -77zM773 272q-103 -290 -366 -290q-152 0 -261.5 105.5t-109.5 256.5q0 166 98.5 264.5t264.5 98.5q127 0 203 -65q67 -58 113 -184
l-510 -91l-2 -12q2 10 5 19q1 -4 1 -12q0 -119 68 -200q72 -87 188 -87q94 0 180 57q82 54 128 140zM541 517q-12 54 -61.5 86.5t-104.5 25.5q-84 -11 -126 -78q-22 -51 -44 -101z" />
    <glyph glyph-name="igrave" unicode="&#xec;" horiz-adv-x="463" 
d="M428 869h-176q9 20 9 24q0 16 -15 39q-85 131 -210 200l13 52h207l46 -107q53 -123 126 -208zM413 0h-284l46 45q19 24 19 55v430q0 62 -42 83q-27 8 -39 16q-19 8 -62 59h299v-588q0 -24 6 -37q3 -12 57 -63z" />
    <glyph glyph-name="iacute" unicode="&#xed;" horiz-adv-x="463" 
d="M428 1132q-81 -44 -121 -83q-36 -35 -89 -117q-16 -25 -16 -39q1 -4 10 -24h-176q74 87 126 208l46 107h207zM413 0h-284l46 45q19 24 19 55v430q0 62 -42 83q-27 8 -39 16q-19 8 -62 59h299v-588q0 -24 6 -37q3 -12 57 -63z" />
    <glyph glyph-name="icircumflex" unicode="&#xee;" horiz-adv-x="654" 
d="M619 879h-202l27 21q8 5 22 27q-16 22 -113 140q-86 -88 -86 -125l6 -39l2 -10l2 -20q-16 4 -19 6h-222q58 43 164 144q47 57 67 76q43 49 78 94q20 -24 141 -153q80 -86 133 -161zM508 0h-284l46 45q19 24 19 55v430q0 62 -42 83q-26 8 -39 16q-18 8 -62 59h299v-588
q0 -24 6 -37q3 -12 57 -63z" />
    <glyph glyph-name="idieresis" unicode="&#xef;" horiz-adv-x="566" 
d="M531 982q0 -77 -102 -79q-94 -2 -104 77q0 69 101 79q93 0 105 -77zM242 982q0 -77 -102 -79q-94 -2 -104 77q0 68 101 79q93 0 105 -77zM464 0h-284l46 45q19 24 19 55v430q0 62 -42 83q-26 8 -39 16q-18 8 -62 59h299v-588q0 -24 6 -37q3 -12 57 -63z" />
    <glyph glyph-name="eth" unicode="&#xf0;" horiz-adv-x="983" 
d="M947 1090q-35 -79 -58 -113q-39 -58 -94 -83q77 -140 77 -318q0 -35 -4 -79q-20 -218 -123 -354q-122 -161 -327 -155q-178 6 -286 157q-82 115 -82 230q0 155 100 246q97 89 253 85q101 -3 165.5 -63t64.5 -160q0 -35 -9 -73q-8 95 -86 155q-57 44 -102 45
q-91 3 -148 -82q-46 -69 -55 -162q-10 -110 34 -195q52 -100 158 -103q200 -5 239 435q4 45 4 95q0 153 -44 280q-29 2 -51 2q-26 0 -42 -3q-48 -9 -103 -37l-110 -75q47 99 71 128q55 67 142 84l43 3q-69 95 -186 95q-87 0 -193 -60q-30 80 -69 108l-90 65l284 -8
q265 -7 418 -200q64 12 97 28q10 5 112 82z" />
    <glyph glyph-name="ntilde" unicode="&#xf1;" horiz-adv-x="834" 
d="M791 1019q-73 -77 -115 -102q-67 -40 -148 -27l-64 18q-100 47 -136 53q-24 4 -52 4t-58 -4l-129 -32q79 77 111 96q74 44 162 30l67 -19l108 -46q84 -14 121 -10q4 0 133 39zM799 -13h-267l3 70q82 151 82 320q0 220 -200 220q-45 0 -105 -37q-52 -32 -52 -55v-378
q0 -30 19 -54l57 -38l9 -48h-309l47 45q21 24 21 55v489q0 36 -67 101h223v-55q110 68 253 68q154 0 252 -161q25 -67 25 -154q0 -69 -73 -228l-3 -18q1 -25 66 -86z" />
    <glyph glyph-name="ograve" unicode="&#xf2;" horiz-adv-x="850" 
d="M621 869h-176q10 20 10 24q0 14 -16 39q-55 84 -89 117q-38 36 -121 83l13 52h207l46 -107q52 -121 126 -208zM815 344q0 -170 -112 -268q-106 -94 -278 -94q-170 0 -277 95q-112 99 -112 267q0 173 110 270q104 93 279 93q170 0 277 -96q113 -100 113 -267zM642 344
q0 115 -50 193q-58 92 -167 92t-167 -92q-49 -77 -49 -193q0 -109 48 -188q58 -96 168 -96q108 0 167 92q50 78 50 192z" />
    <glyph glyph-name="oacute" unicode="&#xf3;" horiz-adv-x="850" 
d="M621 1132q-83 -47 -121 -83q-34 -33 -89 -117q-16 -25 -16 -39q1 -4 10 -24h-176q74 87 126 208l46 107h207zM815 344q0 -170 -112 -268q-106 -94 -278 -94q-170 0 -277 95q-112 99 -112 267q0 173 110 270q104 93 279 93q170 0 277 -96q113 -100 113 -267zM642 344
q0 115 -50 193q-58 92 -167 92t-167 -92q-49 -77 -49 -193q0 -109 48 -188q58 -96 168 -96q108 0 167 92q50 78 50 192z" />
    <glyph glyph-name="ocircumflex" unicode="&#xf4;" horiz-adv-x="850" 
d="M717 879h-202l27 21q8 5 21 27q-16 22 -112 140q-86 -88 -86 -125l6 -39l2 -10l2 -20q-16 4 -19 6h-223q59 43 165 144q47 57 67 76q43 49 77 94q19 -22 142 -153q80 -85 133 -161zM815 344q0 -170 -112 -268q-106 -94 -278 -94q-170 0 -277 95q-112 99 -112 267
q0 173 110 270q104 93 279 93q170 0 277 -96q113 -100 113 -267zM642 344q0 115 -50 193q-58 92 -167 92t-167 -92q-49 -77 -49 -193q0 -109 48 -188q58 -96 168 -96q108 0 167 92q50 78 50 192z" />
    <glyph glyph-name="otilde" unicode="&#xf5;" horiz-adv-x="850" 
d="M776 1019q-73 -77 -115 -102q-67 -40 -148 -27l-64 18q-100 47 -136 53q-24 4 -52 4t-58 -4l-129 -32q79 77 111 96q74 44 162 30l67 -19l108 -46q84 -14 121 -10q4 0 133 39zM815 344q0 -170 -112 -268q-106 -94 -278 -94q-170 0 -277 95q-112 99 -112 267
q0 173 110 270q104 93 279 93q170 0 277 -96q113 -100 113 -267zM642 344q0 115 -50 193q-58 92 -167 92t-167 -92q-49 -77 -49 -193q0 -109 48 -188q58 -96 168 -96q108 0 167 92q50 78 50 192z" />
    <glyph glyph-name="odieresis" unicode="&#xf6;" horiz-adv-x="850" 
d="M672 982q0 -77 -102 -79q-93 -2 -104 77q0 69 101 79q94 0 105 -77zM383 982q0 -77 -102 -79q-93 -2 -104 77q0 68 101 79q94 0 105 -77zM815 344q0 -170 -112 -268q-106 -94 -278 -94q-170 0 -277 95q-112 99 -112 267q0 173 110 270q104 93 279 93q170 0 277 -96
q113 -100 113 -267zM642 344q0 115 -50 193q-58 92 -167 92t-167 -92q-49 -77 -49 -193q0 -109 48 -188q58 -96 168 -96q108 0 167 92q50 78 50 192z" />
    <glyph glyph-name="divide" unicode="&#xf7;" horiz-adv-x="830" 
d="M518 891q0 -86 -101 -97q-94 0 -104 95q0 86 102 96q91 0 103 -94zM795 708l-136 -127h-623l136 127h623zM518 402q0 -87 -101 -97q-94 0 -104 95q0 87 102 97q91 0 103 -95z" />
    <glyph glyph-name="oslash" unicode="&#xf8;" horiz-adv-x="852" 
d="M817 345q0 -169 -112 -270q-107 -98 -278 -98q-89 0 -164 30q-56 -95 -56 -134h-171l92 125l41 63q-131 105 -131 284q0 172 110 272q106 98 279 98q61 0 127 -19l20 39l8 24l-4 14l-19 30l-24 47q36 23 52 23h197l-132 -218q165 -98 165 -310zM644 345q0 124 -56 203
l-278 -454q19 -14 45 -27q37 -11 72 -11q110 0 169 97q48 79 48 192zM508 619q-35 17 -81 17q-111 0 -169 -98q-47 -79 -47 -193q0 -91 31 -160z" />
    <glyph glyph-name="ugrave" unicode="&#xf9;" horiz-adv-x="783" 
d="M588 869h-176q9 20 9 24q0 16 -15 39q-85 131 -210 200l13 52h207l46 -107q53 -123 126 -208zM748 305q0 -165 -87 -243q-80 -71 -249 -78t-265 61q-49 35 -77 113q-25 69 -25 138t73 228l3 18q-4 25 -66 86l-19 56h267l-3 -70q-82 -151 -82 -320q0 -140 40 -175
q41 -51 174 -55l4 1q63 24 88 57q5 8 17 24v-6l1 2q43 86 43 163q0 166 -101 316l-14 72h269l-17 -56q-65 -61 -66 -86l3 -16l61 -100q28 -62 28 -130z" />
    <glyph glyph-name="uacute" unicode="&#xfa;" horiz-adv-x="783" 
d="M588 1132q-81 -44 -121 -83q-36 -35 -89 -117q-16 -25 -16 -39q1 -4 10 -24h-176q74 87 126 208l46 107h207zM748 305q0 -165 -87 -243q-80 -71 -249 -78t-265 61q-49 35 -77 113q-25 69 -25 138t73 228l3 18q-4 25 -66 86l-19 56h267l-3 -70q-82 -151 -82 -320
q0 -140 40 -175q41 -51 174 -55l4 1q63 24 88 57q5 8 17 24v-6l1 2q43 86 43 163q0 166 -101 316l-14 72h269l-17 -56q-65 -61 -66 -86l3 -16l61 -100q28 -62 28 -130z" />
    <glyph glyph-name="ucircumflex" unicode="&#xfb;" horiz-adv-x="783" 
d="M683 879h-201l27 21q8 6 21 27q-16 22 -113 140q-85 -88 -85 -125q0 -13 3 -26l3 -13l3 -30q-15 4 -18 6h-223q59 43 164 144q47 57 67 76q43 49 78 94q24 -30 141 -153q83 -88 133 -161zM748 305q0 -165 -87 -243q-80 -71 -249 -78t-265 61q-49 35 -77 113
q-25 69 -25 138t73 228l3 18q-4 25 -66 86l-19 56h267l-3 -70q-82 -151 -82 -320q0 -140 40 -175q41 -51 174 -55l4 1q63 24 88 57q5 8 17 24v-6l1 2q43 86 43 163q0 166 -101 316l-14 72h269l-17 -56q-65 -61 -66 -86l3 -16l61 -100q28 -62 28 -130z" />
    <glyph glyph-name="udieresis" unicode="&#xfc;" horiz-adv-x="783" 
d="M639 982q0 -77 -102 -79q-93 -2 -104 77q0 69 101 79q94 0 105 -77zM350 982q0 -77 -102 -79q-93 -2 -104 77q0 68 101 79q94 0 105 -77zM748 305q0 -165 -87 -243q-80 -71 -249 -78t-265 61q-49 35 -77 113q-25 69 -25 138t73 228l3 18q-4 25 -66 86l-19 56h267l-3 -70
q-82 -151 -82 -320q0 -140 40 -175q41 -51 174 -55l4 1q63 24 88 57q5 8 17 24v-6l1 2q43 86 43 163q0 166 -101 316l-14 72h269l-17 -56q-65 -61 -66 -86l3 -16l61 -100q28 -62 28 -130z" />
    <glyph glyph-name="yacute" unicode="&#xfd;" horiz-adv-x="874" 
d="M646 1132q-81 -44 -121 -83q-36 -35 -89 -117q-16 -25 -16 -39q1 -4 10 -24h-176q74 87 126 208l46 107h207zM839 688l-50 -45q-22 -25 -22 -57v-497q0 -196 -53 -275l-27 -40q-119 -176 -350 -176q-48 0 -88 9q-151 34 -209 141l124 145l10 -36q0 -80 57 -130
q54 -49 135 -49q60 0 124 43q59 39 91 95q26 45 28 105q0 26 2 119q-123 -72 -233 -72q-156 0 -247 82q-95 85 -95 240q0 67 28 133q13 30 64 121q-6 35 -69 90l-12 54h267l-14 -74q-91 -138 -91 -324q0 -101 50 -161q53 -65 152 -65q75 0 142 33q58 29 58 61v387
q0 31 -19 55l-57 39l-9 49h313z" />
    <glyph glyph-name="thorn" unicode="&#xfe;" horiz-adv-x="930" 
d="M895 367q0 -177 -108.5 -283.5t-286.5 -106.5q-122 0 -207 53v-176q0 -56 22 -88q19 -28 213 -28q-220 -57 -272 -97q-61 -48 -92 -57q-27 31 -27 50v1134q0 34 -35 65q-51 45 -62 45l-4 48q57 10 159 69q46 27 136 83l-5 -79q-33 -106 -33 -164v-172q96 50 207 50
q178 0 281 -82q114 -90 114 -264zM722 367q0 110 -55 183q-61 82 -167 82q-64 0 -144 -46q-63 -36 -63 -74v-305q0 -50 80 -102q73 -48 127 -48q97 0 164 110q58 96 58 200z" />
    <glyph glyph-name="ydieresis" unicode="&#xff;" horiz-adv-x="874" 
d="M697 982q0 -77 -102 -79q-93 -2 -104 77q0 69 101 79q94 0 105 -77zM408 982q0 -77 -102 -79q-93 -2 -104 77q0 68 101 79q94 0 105 -77zM839 688l-50 -45q-22 -25 -22 -57v-497q0 -196 -53 -275l-27 -40q-119 -176 -350 -176q-48 0 -88 9q-151 34 -209 141l124 145
l10 -36q0 -80 57 -130q54 -49 135 -49q60 0 124 43q59 39 91 95q26 45 28 105q0 26 2 119q-123 -72 -233 -72q-156 0 -247 82q-95 85 -95 240q0 67 28 133q13 30 64 121q-6 35 -69 90l-12 54h267l-14 -74q-91 -138 -91 -324q0 -101 50 -161q53 -65 152 -65q75 0 142 33
q58 29 58 61v387q0 31 -19 55l-57 39l-9 49h313z" />
    <glyph glyph-name="OE" unicode="&#x152;" horiz-adv-x="1782" 
d="M1746 28q-13 -34 -37 -34h-765l-30 37l67 48q23 29 28 46q0 14 2 42l1 2v28q-192 -205 -410 -205q-230 0 -389 156q-177 174 -177 465q0 293 177 464q160 155 389 155q247 0 410 -175v24q0 44 -32 85l-67 48l30 37h766q23 0 37 -35q-37 -77 -37 -105l7 -71l-49 20
q-74 73 -189 99l-40 4l-41 2l-205 -2l-33 -4v-406h552l-60 -130l-81 -100q-78 135 -224 136l-157 1q-17 0 -21 -1q1 -23 1 -46q0 -68 -9 -129v-398l32 -4h246l41 4q115 26 189 99l49 20l-8 -71q0 -28 37 -106zM996 613q0 206 -92 354q-108 174 -302 174q-201 0 -306 -171
q-88 -143 -88 -357q0 -212 89 -356q107 -173 305 -173q200 0 306 172q88 143 88 357z" />
    <glyph glyph-name="oe" unicode="&#x153;" horiz-adv-x="1419" 
d="M1384 272q-103 -290 -366 -290q-164 0 -281 131q-112 -131 -312 -131q-170 0 -277 95q-112 99 -112 267q0 173 110 270q104 93 279 93q192 0 304 -122q103 122 281 122q127 0 203 -65q67 -58 113 -184l-506 -90v-6q0 -117 69 -199q72 -88 187 -88q94 0 180 57
q82 54 128 140zM1152 517q-12 54 -61.5 86.5t-104.5 25.5q-84 -11 -126 -78q-22 -51 -44 -101zM642 344q0 115 -50 193q-58 92 -167 92t-167 -92q-49 -77 -49 -193q0 -109 48 -188q58 -96 168 -96q108 0 167 92q50 78 50 192z" />
    <glyph glyph-name="Scaron" unicode="&#x160;" horiz-adv-x="1003" 
d="M806 1619q-50 -73 -133 -161q-117 -123 -141 -153q-35 45 -78 94q-23 22 -67 76q-39 48 -164 144h223l18 6l-3 -31l-3 -12q-3 -20 -3 -26q0 -37 85 -125q108 131 113 140q-15 23 -21 26l-27 22h201zM968 362q0 -185 -170 -283q-141 -81 -344 -81q-196 0 -418 90
q57 129 61 145q7 31 8 162q149 -301 390 -301q290 0 290 176q0 146 -174 210l-358 92q-209 77 -209 269q0 154 142 271q97 80 179 102q56 15 179 15q182 0 356 -77l-23 -51q-20 -29 -32 -66l-2 -25q2 -34 2 -52q0 -13 -1 -18q-6 -16 -47 -48q-60 242 -314 242
q-117 0 -184 -58q-71 -61 -71 -177q0 -122 172 -169l359 -99q209 -84 209 -269z" />
    <glyph glyph-name="scaron" unicode="&#x161;" horiz-adv-x="705" 
d="M644 1187q-50 -73 -133 -161q-117 -123 -141 -153q-35 45 -78 94q-20 18 -67 76q-38 47 -164 144h223l18 6l-3 -31l-3 -13q-3 -13 -3 -25q0 -37 85 -125q108 131 113 140q-15 23 -21 26l-27 22h201zM670 201q0 -102 -108 -163q-92 -52 -206 -52q-138 0 -221 54
q-99 64 -99 195q41 8 54 14q40 13 97 34q-8 -22 -8 -44q0 -75 77 -141q39 -34 100 -34q63 0 106 27q52 32 52 91q0 67 -129 107q-8 3 -184 54q-109 53 -109 161q0 101 96 157q78 46 188 46q241 0 272 -191q-82 -18 -134 -55q-9 168 -146 168q-120 0 -120 -133
q0 -67 192 -109q230 -51 230 -186z" />
    <glyph glyph-name="Ydieresis" unicode="&#x178;" horiz-adv-x="1308" 
d="M920 1429q0 -88 -101 -101q-94 0 -104 98q0 91 102 102q91 0 103 -99zM632 1429q0 -90 -102 -101q-94 0 -104 98q0 91 102 102q89 0 104 -99zM1273 1227q-251 -362 -510 -780l-357 -576q-37 -60 -37 -70q0 -8 7 -13q20 -8 29 -16q16 -6 58 -19q39 -12 45 -36l-327 -6
l382 609l-150 278l-213 405q-2 3 -164 231h392q8 0 44 -32q-68 -53 -68 -98q0 -115 276 -599l199 289q145 211 151 279q-5 63 -122 140l68 14h297z" />
    <glyph glyph-name="florin" unicode="&#x192;" horiz-adv-x="964" 
d="M928 999l-22 -6q-17 0 -77 -35l-67 -39l52 75q-12 64 -131 64q-40 0 -77 -42q-53 -59 -61 -149l-14 -157l297 -2l-59 -93l-246 2l-48 -518q-17 -186 -134 -306q-121 -124 -305 -133q253 103 283 439l47 519l-162 -3l36 71q24 16 29 51q6 42 17 62q24 -53 66 -72
q6 -5 23 -14l14 150q19 97 59 148l67 61q89 81 220 81q70 0 135 -52q55 -44 58 -102z" />
    <glyph glyph-name="circumflex" unicode="&#x2c6;" horiz-adv-x="601" 
d="M566 836l-127 -87q-64 22 -185 106q-29 -29 -156 -105l-62 40l137 94q60 41 112 112q94 -80 124 -98q45 -27 157 -62z" />
    <glyph glyph-name="tilde" unicode="&#x2dc;" horiz-adv-x="774" 
d="M738 1226q-73 -77 -115 -102q-67 -40 -148 -27l-64 18q-100 47 -137 53q-24 4 -51 4q-28 0 -58 -4l-129 -32q79 77 111 96q74 44 162 30l66 -19l109 -46q84 -14 121 -10q4 0 133 39z" />
    <glyph glyph-name="endash" unicode="&#x2013;" horiz-adv-x="740" 
d="M705 545l-136 -86h-533l136 86h533z" />
    <glyph glyph-name="emdash" unicode="&#x2014;" horiz-adv-x="1100" 
d="M1065 545l-138 -86h-891l136 86h893z" />
    <glyph glyph-name="quoteleft" unicode="&#x2018;" 
d="M242 1019q1 -40 -31.5 -65t-73.5 -25q-101 0 -101 96q0 76 92 171q42 44 108 51l-5 -13q-66 -83 -66 -155h53q20 0 23 -23z" />
    <glyph glyph-name="quoteright" unicode="&#x2019;" 
d="M242 1151q0 -76 -92 -171q-43 -44 -108 -51l5 13q65 83 66 155h-53q-21 0 -24 23v37q0 90 105 90q101 0 101 -96z" />
    <glyph glyph-name="quotesinglbase" unicode="&#x201a;" 
d="M242 48q0 -76 -92 -171q-43 -44 -108 -51l5 13q65 83 66 155h-53q-21 0 -24 23v37q0 90 105 90q101 0 101 -96z" />
    <glyph glyph-name="quotedblleft" unicode="&#x201c;" horiz-adv-x="557" 
d="M522 1019q1 -40 -31.5 -65t-73.5 -25q-101 0 -101 96q0 76 92 171q42 44 108 51l-5 -13q-66 -83 -66 -155h53q20 0 23 -24q0 -7 1 -36zM242 1019q1 -40 -31.5 -65t-73.5 -25q-101 0 -101 96q0 76 92 171q42 44 108 51l-5 -13q-66 -83 -66 -155h53q20 0 23 -24q0 -7 1 -36
z" />
    <glyph glyph-name="quotedblright" unicode="&#x201d;" horiz-adv-x="557" 
d="M522 1151q0 -76 -92 -171q-43 -44 -108 -51l5 13q65 83 66 155h-53q-21 0 -24 23v37q0 90 105 90q101 0 101 -96zM242 1151q0 -76 -92 -171q-43 -44 -108 -51l5 13q65 83 66 155h-53q-21 0 -24 23v37q0 90 105 90q101 0 101 -96z" />
    <glyph glyph-name="quotedblbase" unicode="&#x201e;" horiz-adv-x="567" 
d="M532 48q0 -76 -92 -171q-43 -44 -108 -51l5 13q65 83 66 155h-53q-21 0 -24 23v37q0 90 105 90q101 0 101 -96zM242 48q0 -76 -92 -171q-43 -44 -108 -51l5 13q65 83 66 155h-53q-21 0 -24 23v37q0 90 105 90q101 0 101 -96z" />
    <glyph glyph-name="dagger" unicode="&#x2020;" horiz-adv-x="770" 
d="M735 953q-74 -47 -76 -97h-204v-929q0 -73 5 -94q6 -25 36 -78h-211q30 54 37 90l4 82v929h-290q61 35 76 97h214v91l-4 83q-7 35 -37 89h211q-30 -53 -36 -78q-5 -21 -5 -94v-91h280z" />
    <glyph glyph-name="daggerdbl" unicode="&#x2021;" horiz-adv-x="770" 
d="M735 103q-74 -47 -76 -97h-204v-79q0 -73 5 -94q6 -25 36 -78h-211q30 54 37 90l4 82v79h-290q61 35 76 97h214v753h-290q61 35 76 97h214v91l-4 83q-7 35 -37 89h211q-30 -53 -36 -78q-5 -21 -5 -94v-91h280q-74 -47 -76 -97h-204v-753h280z" />
    <glyph glyph-name="bullet" unicode="&#x2022;" horiz-adv-x="713" 
d="M678 762q0 -134 -93.5 -215.5t-228.5 -81.5t-226 80q-94 83 -94 217q0 132 97 215q91 80 225 80q135 0 226 -79q94 -82 94 -216z" />
    <glyph glyph-name="ellipsis" unicode="&#x2026;" horiz-adv-x="1026" 
d="M991 72q0 -40 -37 -65q-32 -22 -74 -22q-111 0 -111 87q0 41 36 65q32 21 75 21t75 -21q36 -24 36 -65zM623 72q0 -40 -37 -65q-33 -22 -75 -22q-110 0 -110 87q0 86 110 86q43 0 75 -21q37 -24 37 -65zM258 72q0 -40 -37 -65q-32 -22 -74 -22q-111 0 -111 87q0 41 36 65
q32 21 75 21t75 -21q36 -24 36 -65z" />
    <glyph glyph-name="perthousand" unicode="&#x2030;" horiz-adv-x="1795" 
d="M1760 256q0 -124 -79 -197.5t-205 -73.5t-204 73t-78 198q0 123 79.5 197.5t202.5 74.5q127 0 205.5 -73t78.5 -199zM642 961q0 -124 -78.5 -197t-204.5 -73q-127 0 -205 72t-78 198q0 124 79 198t204 74q127 0 205 -73t78 -199zM1095 1229l-764 -1046q-46 -63 -62 -88
q-33 -52 -47 -96h-186q74 60 129 132l61 80l537 736q93 127 93 181v5l-16 26l-13 30q0 40 50 40h218zM1150 256q0 -124 -79 -197.5t-205 -73.5t-204 73t-78 198q0 123 79.5 197.5t202.5 74.5q127 0 205.5 -73t78.5 -199zM1624 256q0 81 -33 135q-39 65 -115 65
q-75 0 -114 -66q-33 -54 -33 -134q0 -81 32 -135q39 -66 115 -66q74 0 114 66q34 56 34 135zM506 961q0 80 -33 134q-39 66 -114 66t-114 -66q-33 -54 -33 -134q0 -200 147 -200q75 0 114 66q33 54 33 134zM1014 256q0 81 -33 135q-39 65 -115 65q-75 0 -114 -66
q-33 -54 -33 -134q0 -81 32 -135q39 -66 115 -66q74 0 114 66q34 56 34 135z" />
    <glyph glyph-name="guilsinglleft" unicode="&#x2039;" horiz-adv-x="654" 
d="M619 22l-174 -42q-46 119 -206 228l-203 138q299 95 362 329l196 27q-87 -261 -275 -355q243 -178 300 -325z" />
    <glyph glyph-name="guilsinglright" unicode="&#x203a;" horiz-adv-x="654" 
d="M619 342q-299 -94 -362 -328l-195 -27q87 263 275 355q-244 178 -301 325l174 40q45 -117 206 -227z" />
    <glyph glyph-name="trademark" unicode="&#x2122;" horiz-adv-x="1145" 
d="M1109 1103q-39 -16 -39 -38v-5l1 -345q0 -45 24 -62h-96q20 16 22 46l1 16v295q0 20 -4 34l-150 -190q-24 -30 -24 -53q0 -5 1 -8l-190 219v-248q0 -53 60 -111h-116q23 41 23 74v323l-28 18q-14 3 -28 10q-6 3 -21 17l29 4h92l181 -219l150 190l33 31zM532 1099l-30 -22
q-16 -12 -25 -39l-7 -33q-28 33 -42 42q-20 13 -55 13h-35v-346q0 -36 20 -62h-102q15 19 18 32l2 30v293q0 34 -19 48q-3 2 -9 5h-83q-42 0 -67 -12l-62 -40l42 66q18 28 18 84q33 -59 106 -59h330z" />
    <glyph glyph-name="glyph217" horiz-adv-x="592" 
 />
    <glyph glyph-name="glyph218" horiz-adv-x="592" 
 />
    <glyph glyph-name="glyph217" horiz-adv-x="592" 
 />
    <glyph glyph-name="glyph218" horiz-adv-x="592" 
 />
    <glyph glyph-name="ch331" horiz-adv-x="592" 
 />
    <glyph glyph-name="ch332" horiz-adv-x="592" 
 />
    <glyph glyph-name="glyph98" horiz-adv-x="1492" 
 />
    <glyph glyph-name="glyph99" horiz-adv-x="1492" 
 />
    <glyph glyph-name="glyph100" horiz-adv-x="1492" 
 />
    <glyph glyph-name="glyph112" horiz-adv-x="396" 
d="M375 463h-184q28 32 33 53l3 49v492h-4l-25 3h-13l-65 -7l26 20q12 7 87 47q79 42 107 71q-3 -13 -5 -16v1q2 -12 2 -72v-566q0 -36 38 -75z" />
    <glyph glyph-name="glyph113" horiz-adv-x="811" 
d="M790 609l-65 -154l-501 -2v29q7 0 99 80q72 63 107 96q184 175 184 286q0 73 -42.5 118.5t-115.5 45.5q-19 0 -46 -10q-34 -13 -28 -29q-16 -32 -16 -74q0 -44 17 -89l-51 6l-56 -3l-34 -8q0 43 19 101q23 70 57 96q85 64 199 64q85 0 141 -37q66 -43 66 -124
q0 -209 -335 -462h214q55 0 96 21q11 5 91 49z" />
    <glyph glyph-name="glyph114" horiz-adv-x="746" 
d="M724 649q0 -96 -79 -154q-71 -53 -170 -53q-96 0 -183 39l-84 63q92 10 175 61v-36q0 -79 78 -79q44 0 82 33q53 46 53 126q0 171 -242 199q127 33 154 47q75 39 75 102q0 55 -47 87q-41 28 -98 28q-31 0 -60 -28t-29 -59q0 -10 3 -19l-64 10h-14q-8 0 -48 5
q83 139 264 139q73 0 135 -30q76 -37 76 -101q0 -81 -65 -127q-18 -13 -73 -35q161 -80 161 -218z" />
    <glyph glyph-name="glyph115" horiz-adv-x="872" 
d="M851 758l-54 -67h-86v-161q0 -12 3 -24q0 -15 35 -51h-187q32 32 36 54l4 49v133h-363q58 70 77 105q57 101 57 194q0 55 -27 82l-88 40q17 15 25 19l-3 -1q54 32 117 32q62 -36 62 -170q0 -24 -4 -43q-25 -116 -69 -191h216v135q0 27 -30 52q-12 10 -48 38q71 10 109 30
l101 67l-3 -49q-20 -64 -20 -98v-175h140z" />
    <glyph glyph-name="glyph128" horiz-adv-x="1492" 
 />
    <glyph glyph-name="glyph129" horiz-adv-x="1492" 
 />
    <glyph glyph-name="glyph227" horiz-adv-x="1492" 
 />
    <glyph glyph-name="glyph228" horiz-adv-x="1492" 
 />
  </font>
</defs>
</svg>
