<?xml version="1.0" standalone="no"?>
<!DOCTYPE svg PUBLIC "-//W3C//DTD SVG 1.1//EN" "http://www.w3.org/Graphics/SVG/1.1/DTD/svg11.dtd" >
<svg xmlns="http://www.w3.org/2000/svg" xmlns:xlink="http://www.w3.org/1999/xlink" version="1.1">
<metadata>
Created by FontForge 20170731 at Sun Apr  1 23:32:33 2001
 By Aleksey,,,
(c)GeM/FF
</metadata>
<defs>
<font id="Dumbledor1Outline" horiz-adv-x="592" >
  <font-face 
    font-family="Dumbledor 1 Outline"
    font-weight="400"
    font-stretch="normal"
    units-per-em="2048"
    panose-1="0 0 4 0 0 0 0 0 0 0"
    ascent="1638"
    descent="-410"
    x-height="708"
    cap-height="1249"
    bbox="-88 -466 1972 1654"
    underline-thickness="20"
    underline-position="-163"
    unicode-range="U+0020-2122"
  />
<missing-glyph horiz-adv-x="1024" 
d="M128 0v1637h768v-1637h-768zM256 128h512v1381h-512v-1381z" />
    <glyph glyph-name=".notdef" horiz-adv-x="1024" 
d="M128 0v1637h768v-1637h-768zM256 128h512v1381h-512v-1381z" />
    <glyph glyph-name=".null" horiz-adv-x="0" 
 />
    <glyph glyph-name="nonmarkingreturn" 
 />
    <glyph glyph-name="space" unicode=" " 
 />
    <glyph glyph-name="exclam" unicode="!" horiz-adv-x="395" 
d="M65 288q-23 0 -23 12q0 14 59 68q15 18 15 43v531q0 48 -77 89q-23 22 -23 64q0 21 17 24q52 8 149 65q13 13 116 74q13 8 22 2t8 -21q-4 -60 -13 -181q-3 -35 -3 -50v-597q0 -15 35 -57t35 -54t-22 -12h-295zM59 1065q97 -54 97 -123v-531q0 -40 -27 -71l-13 -12h197
q-41 48 -41 83v597q0 40 13 196q-33 -19 -75 -49l-5 -4q-90 -53 -148 -68zM214 -28q-57 0 -94 35.5t-37 91.5t37 91t94 35q56 0 93.5 -35.5t37.5 -90.5t-37.5 -91t-93.5 -36zM305 99q0 86 -91 86t-91 -86q0 -87 91 -87t91 87z" />
    <glyph glyph-name="quotedbl" unicode="&#x22;" horiz-adv-x="359" 
d="M337 1178q-33 -139 -92 -139q-27 0 -34 39q-31 67 -38 150v3q-6 71 85 71q86 0 86 -69q0 -28 -7 -55zM299 1188q5 22 5 45q0 29 -46 29q-44 0 -45 -29q18 -104 38 -149l1 -2q25 16 47 106zM181 1178q-33 -139 -94 -139q-13 0 -18 12q-27 60 -53 176v4q0 71 87 71
q85 0 85 -69q0 -28 -7 -55zM143 1188q5 22 5 45q0 29 -45 29q-46 0 -47 -29q21 -95 42 -149q25 21 45 104z" />
    <glyph glyph-name="numbersign" unicode="#" horiz-adv-x="808" 
d="M703 541q-3 -16 -36 -21q-23 -3 -64 0q-51 3 -48 3l-4 -23l198 2q23 0 23 -18q0 -12 -13 -19q-72 -43 -80 -85q-3 -15 -36 -20q-23 -3 -64 0q-51 3 -48 3l-30 -204q-3 -20 -19 -20q-13 0 -19 15q-18 41 -58 58q-32 14 -30 28l19 122h-23l-30 -204q-3 -20 -19 -20
q-13 0 -19 15q-18 41 -58 58q-32 14 -30 28l19 122l-198 -1q-23 0 -23 18q0 12 14 20q59 31 80 86q5 13 19 13l128 1l4 23l-198 -1q-23 0 -23 18q0 12 14 20q59 31 80 86q5 13 19 13l128 1l30 204q3 20 19 20q12 0 19 -14q24 -49 61 -62q27 -9 27 -33q0 12 -19 -114h23
l30 204q3 20 19 20q12 0 19 -14q24 -49 61 -62q27 -9 27 -33q0 12 -19 -114l198 2q23 0 23 -18q0 -12 -13 -19q-73 -43 -80 -84zM668 564q11 30 41 57q-36 0 -80 -2.5t-55 -2.5q-41 0 -41 30q0 2 18 123q-28 9 -51 36l-25 -169q-3 -17 -20 -17h-63q-20 0 -20 30
q0 -11 19 119q-28 9 -51 36l-25 -169q-3 -16 -36 -21q-24 -3 -66 0q-53 3 -50 3q-15 -32 -41 -57l159 1q22 0 22 -37q0 -66 -32 -66l-132 -1q-15 -32 -41 -57l159 1q20 0 20 -30q0 11 -20 -121q30 -10 52 -34l25 169q3 17 20 17h63q20 0 20 -30q0 11 -20 -121q30 -10 52 -34
l25 169q3 16 36 21q23 3 65 0q52 -3 49 -3q11 30 42 57q-38 0 -82.5 -2t-54.5 -2q-39 0 -39 26q0 10 8 63q3 16 36 21q23 3 65 0q52 -3 49 -3zM395 522l-4 -23h23l4 23h-23zM378 562h63q20 0 20 -30q0 -19 -10 -56q-3 -17 -20 -17h-63q-20 0 -20 30q0 19 10 56q3 17 20 17z
" />
    <glyph glyph-name="dollar" unicode="$" horiz-adv-x="1003" 
d="M564 1249q-1 1 -2 1q-2 0 -19.5 -8.5t-25.5 -8.5q-12 0 -12 14q0 5 1 11q21 96 56.5 146t115.5 98q30 18 30 -17v-251q101 -20 200 -64q11 -5 11 -18q0 -6 -24 -59l-2 -3q-17 -26 -28 -59l-2 -21q2 -34 2 -52q0 -17 -1 -22l-1 -3q-4 -14 -27 -37q-26 -25 -42 -25
q-12 0 -16 16q-22 87 -70 141v-363l58 -15q222 -74 222 -288q0 -248 -279 -345q3 -63 28 -146q8 -26 -19 -26h-149q-26 0 -19 25q21 82 24 116q-49 -7 -102 -8q5 -37 25 -107q8 -26 -19 -26h-149q-26 0 -19 25q21 82 24 116q-73 9 -171 34q-147 36 -147 70l2 6
q53 120 58 144q8 32 9 155q0 23 18 23q13 0 20 -14q91 -183 215 -250v375l-91 24q-223 82 -223 288q0 124 96 236q88 102 213 148q-5 21 -11 25q-2 0 -19.5 -8.5t-25.5 -8.5q-12 0 -12 14q0 5 1 11q21 96 56.5 146t115.5 98q30 18 30 -17v-238q40 2 76 2h20zM788 96
q160 93 160 266q0 171 -195 250l-52 12q-33 10 -33 26v424q0 15 10 20t22 -4q74 -57 108 -163q13 12 17 19v12q0 4 -1 21t-1 30v3l2 25l1 4q13 39 33 70l14 31q-93 38 -188 55q-17 3 -17 20v232q-82 -54 -112 -159h6q20 0 35.5 -20t15.5 -40q0 -23 -21 -22q-24 1 -48 1
q-53 0 -95 -3q-21 -1 -21 20v223q-82 -54 -112 -159h6q22 0 37.5 -23.5t15.5 -48.5q0 -22 -14 -26q-74 -23 -162 -95q-135 -111 -135 -256q0 -178 195 -250q34 -6 67 -13q52 -13 52 -33v-423q0 -30 -28 -18q-129 55 -226 215q-2 -72 -15 -111q-4 -12 -46 -109
q153 -60 294 -75q18 -2 18 -20v-8q0 -30 -20 -111h96q-21 78 -21 113q0 20 20 20h4q72 0 138 11q23 4 23 -20v-13q0 -30 -20 -111h96q-22 83 -22 146q0 15 14 19q56 18 105 46zM578 1104q-45 11 -95 10h-15v-382l110 -31v403zM618 1119v-444q0 -21 -38 -21q-43 0 -97.5 22
t-54.5 41v416q0 21 55 21q135 0 135 -35zM338 1078q-90 -54 -90 -179q0 -81 90 -125v304zM378 1111v-367q0 -29 -27 -19q-143 54 -143 174q0 169 142 230q28 12 28 -18zM708 402v-243q57 38 57 111q0 79 -57 132zM699 459q106 -69 106 -189q0 -115 -109 -163q-28 -13 -28 18
v317q0 37 31 17zM578 468l-110 28v-381q13 -1 27 -1q45 0 83 4v350zM618 483v-382q0 -27 -123 -27q-67 0 -67 23v425q0 22 40 22q44 0 97 -21t53 -40z" />
    <glyph glyph-name="percent" unicode="%" horiz-adv-x="1185" 
d="M359 671q-136 0 -218 77q-85 78 -85 213q0 133 86 213q83 79 217 79q136 0 219.5 -78.5t83.5 -213.5q0 -133 -84.5 -211.5t-218.5 -78.5zM622 961q0 118 -72 185t-191 67q-117 0 -190 -68t-73 -184q0 -118 72 -184t191 -66q118 0 190.5 67.5t72.5 182.5zM836 1127l-14 24
q-15 28 -15 38q0 60 70 60h218q39 0 16 -32l-764 -1046q-46 -64 -60 -85q-32 -50 -46 -93q-4 -14 -19 -14h-186q-23 0 -23 17q0 10 10 19q85 68 187 208l537 736q88 121 89 168zM315 195l741 1014h-179q-28 0 -30 -16l11 -25q18 -26 18 -35v-5q0 -60 -97 -193l-537 -736
q-88 -121 -152 -180h118q22 59 107 176zM866 -35q-135 0 -217 78q-85 79 -85 213q0 131 86 213q84 79 216 79q136 0 220 -78.5t84 -213.5q0 -133 -85 -212t-219 -79zM1130 256q0 118 -72.5 185t-191.5 67q-116 0 -189 -68.5t-73 -183.5q0 -117 72 -184t190 -67t191 68
t73 183zM456 1085q-34 56 -97 56q-66 0 -100 -61q-27 -48 -27 -119q0 -180 127 -180q66 0 100 61q27 48 27 119q0 73 -30 124zM526 961q0 -88 -38 -148q-45 -72 -129 -72q-167 0 -167 220q0 88 38 148q45 72 129 72q83 0 129 -71q38 -61 38 -149zM943 407q-30 29 -77 29
q-66 0 -100 -61q-27 -48 -27 -119q0 -181 127 -181q66 0 100 61q28 50 28 120q0 102 -51 151zM1034 256q0 -87 -39 -149q-46 -72 -129 -72q-85 0 -130 72q-37 60 -37 149q0 88 38 148q45 72 129 72q85 0 130 -71q38 -60 38 -149z" />
    <glyph glyph-name="ampersand" unicode="&#x26;" horiz-adv-x="1072" 
d="M903 314l-12 -6l-8 38q42 -2 42 -21q0 -179 -143 -281q-127 -91 -311 -91t-311 91q-144 103 -144 281q0 223 214 316q-136 84 -136 254q0 147 119 236q108 81 258 81q158 0 261 -77q115 -86 115 -240q0 -193 -176 -276l-5 -2q-317 -60 -362 -111q-65 -74 -65 -181
q0 -110 60 -179q63 -73 172 -73q98 0 162 65q62 62 70 161l-31 8q-70 18 -101 18q-44 0 -95 -17l-125 -54q-6 -3 -12 -3q-18 0 -18 17q0 8 6 16q67 93 107 126q67 56 154 56q39 0 114.5 -19.5t114.5 -19.5q58 0 112 32q15 8 96 69q8 6 16 6q17 0 17 -18q0 -7 -4 -14
q-96 -161 -151 -188zM960 431q-62 -44 -143 -44q-40 0 -115 19.5t-114 19.5q-100 0 -183 -105l57 25q58 19 109 19q24 0 158 -32q16 -3 15 -20q-4 -120 -78 -198q-76 -82 -195 -82q-125 0 -200 85q-72 80 -72 207q0 122 75 207q54 61 382 124q151 73 151 239q0 137 -103 211
q-92 66 -233 66q-134 0 -230 -70q-107 -77 -107 -207q0 -168 152 -239q16 -7 15 -19q0 -12 -16 -18q-229 -83 -229 -294q0 -161 132 -252q116 -80 283 -80q161 0 275 74q131 86 139 239q-26 1 -26 14q0 17 27 30.5t74 80.5zM593 1036q-27 38 -52 48q-20 8 -70 8
q-164 0 -164 -197q0 -85 38 -138q44 -60 126 -60q164 0 164 198q0 83 -42 141zM625 1060q50 -69 50 -165q0 -238 -204 -238q-100 0 -154 72q-50 64 -50 166q0 237 204 237q59 0 87 -12q34 -14 67 -60z" />
    <glyph glyph-name="quotesingle" unicode="'" horiz-adv-x="203" 
d="M169 1135q-7 -28 -14 -53l-1 -4q-20 -39 -68 -39q-13 0 -18 12q-27 62 -52 176v4q0 71 86 71t86 -69q0 -31 -19 -98zM131 1145q17 63 17 88q0 29 -46 29q-45 0 -46 -29q21 -96 43 -153q12 3 18 14q6 25 14 51z" />
    <glyph glyph-name="parenleft" unicode="(" horiz-adv-x="430" 
d="M331 1327q-119 -248 -119 -601q0 -357 149 -704q7 -15 -7 -25q-48 -32 -74 -128q-23 -86 -32 -86q-8 0 -18 14q-62 82 -121 247q-93 261 -93 561q0 315 65 512q86 260 303 407q8 5 15 5q17 0 17 -18q0 -6 -3 -13zM295 1345l47 97q-169 -140 -236 -382q-50 -179 -50 -455
q0 -446 180 -744q25 111 83 159q-147 348 -147 706q0 362 123 619z" />
    <glyph glyph-name="parenright" unicode=")" horiz-adv-x="430" 
d="M351 202q-85 -263 -304 -410q-8 -5 -15 -5q-17 0 -17 18q0 6 3 13l82 171q119 248 119 601q0 357 -149 704q-7 15 6 24q48 34 74 130q24 85 34 85q7 0 17 -14q104 -141 163 -390q51 -214 51 -418q0 -312 -64 -509zM375 711q0 445 -180 745q-27 -112 -83 -160
q147 -348 147 -706q0 -210 -39 -371q-37 -150 -131 -345q170 143 236 383q50 178 50 454z" />
    <glyph glyph-name="asterisk" unicode="*" horiz-adv-x="604" 
d="M421 1002q42 5 136 72q8 6 16 6q17 0 17 -18q0 -8 -4 -15q-54 -84 -78 -107q-48 -48 -118 -53q25 -32 134 -76q15 -7 15 -20q0 -19 -23 -19q-87 2 -121 8q-68 13 -106 54q-6 -16 -20 -132q-3 -21 -19 -21q-12 0 -19 15q-47 103 -47 151q0 35 15 68q-28 -2 -59 -12
l-96 -40q-6 -3 -12 -3q-18 0 -18 17q0 8 6 16q50 66 77 88q47 41 105 47q-14 21 -39 43l-85 60q-11 8 -11 19q0 20 25 17q95 -11 127 -23q64 -22 97 -80l3 -5l5 7q22 37 22 81q0 7 -10 86q-3 25 18 25q12 0 19 -13q67 -115 67 -169q0 -38 -19 -74zM493 983q-44 -22 -93 -22
h-16q-16 0 -20 10q-5 10 4 22q32 41 32 80q0 26 -14 61q-5 -70 -56 -127q-8 -9 -15 -9q-10 0 -20 18q-7 14 -13 28q-35 58 -113 72l18 -13q43 -38 56 -65l1 -2q12 -23 12 -32q0 -15 -21 -15h-11q-69 0 -122 -58l24 10q46 14 85 14q44 0 44 -19q0 -7 -6 -15q-25 -33 -25 -74
q0 -30 14 -66q8 63 30 101q17 30 34 0q31 -53 105 -63q-32 20 -71 78q-6 10 -6 16q0 13 43 13q76 0 120 57z" />
    <glyph glyph-name="plus" unicode="+" horiz-adv-x="756" 
d="M724 586q14 -29 -18 -29h-261v-281q0 -17 -11 -21q-12 -5 -23 7l-127 132q-4 4 -6 14v149h-176q-11 0 -17 10q-72 120 -72 131q0 14 21 14h244v276q0 17 11 21q12 5 23 -7l127 -131q4 -4 6 -14v-145h204q12 0 18 -11zM674 597l-37 75h-212q-20 0 -20 20v157l-87 90v-247
q0 -20 -20 -20h-229l44 -75h185q20 0 20 -20v-161l87 -90v251q0 20 20 20h249z" />
    <glyph glyph-name="comma" unicode="," horiz-adv-x="277" 
d="M164 -137q-55 -57 -121 -57q-22 0 -22 16q0 5 2 11l5 13l3 5q52 66 60 123h-31q-41 0 -44 40v3v37q0 110 125 110q121 0 121 -116q0 -84 -98 -185zM84 -143q48 19 93 80.5t45 110.5q0 76 -81 76q-85 0 -85 -70v-35q1 -3 1 -5h3h53q20 0 20 -20q-1 -66 -49 -137z" />
    <glyph glyph-name="hyphen" unicode="-" horiz-adv-x="770" 
d="M679 457q-1 -19 -20 -19h-623q-23 0 -23 18q0 12 13 19q39 23 58 65q16 35 28 35h623q23 0 23 -18q0 -11 -12 -19q-65 -41 -67 -81zM642 478q7 29 35 57h-550q-11 -32 -34 -57h549z" />
    <glyph glyph-name="hyphen" unicode="&#x2010;" horiz-adv-x="770" 
d="M679 457q-1 -19 -20 -19h-623q-23 0 -23 18q0 12 13 19q39 23 58 65q16 35 28 35h623q23 0 23 -18q0 -11 -12 -19q-65 -41 -67 -81zM642 478q7 29 35 57h-550q-11 -32 -34 -57h549z" />
    <glyph glyph-name="period" unicode="." horiz-adv-x="277" 
d="M142 -33q-120 0 -126 95v3q-6 94 121 99q117 5 125 -94v-3q6 -87 -120 -100zM140 7q81 8 82 59q-10 61 -83 58q-82 -3 -83 -58q8 -59 84 -59z" />
    <glyph glyph-name="slash" unicode="/" horiz-adv-x="1103" 
d="M224 -55q-6 -10 -17 -10h-171q-16 0 -21 11t6 23q75 80 151 207l587 982q65 109 68 165l-1 4l-17 26q-25 44 -25 58q0 12 8 17q41 26 63 26h213q35 0 17 -30zM196 -25l837 1439h-178q-6 0 -26 -11l15 -31q9 -11 23 -44v-5q-2 -65 -74 -185l-587 -982q-63 -106 -126 -181
h116z" />
    <glyph glyph-name="zero" unicode="0" horiz-adv-x="1129" 
d="M943 112q-157 -156 -378 -156q-177 0 -311.5 95t-196.5 262q-41 111 -41 261q0 289 171 461q156 157 378 157q174 0 310.5 -96t198.5 -259q40 -107 40 -263q0 -292 -171 -462zM1074 574q0 334 -221 489q-127 89 -288 89q-206 0 -350 -145q-159 -160 -159 -433
q0 -334 221 -490q123 -88 288 -88q236 0 378 174q131 162 131 404zM805 895q-83 170 -240 170q-160 0 -243 -176q-64 -136 -64 -315q0 -178 64 -314q83 -177 243 -177t243 177q64 137 64 314q0 185 -67 321zM841 913q71 -145 71 -339q0 -195 -74 -343q-94 -188 -273 -188
t-273 188q-74 147 -74 343q0 257 109 401q98 130 238 130q182 0 276 -192zM440 562q-85 72 -85 164q0 65 32 193q4 18 19 18q17 0 20 -20q14 -106 22 -130q19 -57 74 -108l6 -5l39 -24l37 23l8 6q56 51 74 108q4 14 21 130q3 20 20 20q15 0 19 -18q33 -127 33 -193
q0 -95 -86 -164q69 -68 69 -174q0 -41 -15 -137q-3 -20 -19 -20q-13 0 -20 16l-49 127q-37 70 -92 107q-56 -37 -93 -107l-49 -127q-7 -16 -20 -16q-16 0 -19 20q-14 105 -14 139q0 103 68 172zM735 692q4 12 4 34q0 31 -8 78q-14 -83 -92 -154l-7 -6q-42 -38 -65 -38
t-65 38l-7 6q-76 68 -92 154q-8 -47 -8 -78q0 -82 88 -147q9 -7 9 -15q0 -6 -22 -28q-58 -58 -58 -144q0 -24 4 -58l22 56q44 85 118 132q4 2 9 2q24 0 67 -43q33 -33 63 -91l23 -57q3 28 3 52q0 111 -71 162q-9 7 -9 15q0 2 38.5 41t55.5 89z" />
    <glyph glyph-name="one" unicode="1" horiz-adv-x="495" 
d="M402 1169q15 -21 15 -100v-944q0 -18 4 -37v-4q0 -8 30.5 -43.5t30.5 -48.5q0 -12 -22 -12h-306q-21 0 -21 13q0 12 26 49t29 50l6 80v800l-29 4h-21l-106 -12q-25 -3 -25 17q0 11 11 19l42 32q1 1 6 4l9 5l32 18l144 76q85 47 132 93q10 10 18 10q14 0 14 -27
q0 -31 -16 -41zM409 1185l-4 4q-46 -41 -273 -165l-20 -11l31 3h26l40 -6q25 7 25 -19l-7 -907q-7 -28 -32 -64h220q-33 38 -34 62q-4 22 -4 43v944q0 102 32 116z" />
    <glyph glyph-name="two" unicode="2" horiz-adv-x="1014" 
d="M823 194h-2l7 4l29 15l112 62q16 8 25.5 -0.5t2.5 -25.5l-108 -257q-5 -12 -18 -12l-835 -3q-20 0 -20 20v48l20 20q-2 -1 -5 -1q25 15 157 130q208 182 300 285q178 199 178 336q0 114 -65.5 184t-178.5 70q-20 0 -55 -10q-41 -12 -48 -25q0 -21 -13.5 -57t-13.5 -77
q0 -69 28 -142q2 -6 2 -11q0 -16 -29 -16q7 0 -78 10l-90 -5q-58 -12 -55 -12q-25 0 -25 20q0 83 37 187q41 115 98 157q149 110 344 110q151 0 250 -66q115 -77 115 -222q0 -344 -519 -750h298q89 0 151 33zM837 157q-75 -37 -169 -37h-357q-23 0 -23 17q0 11 11 19
q550 415 550 754q0 128 -104 193q-87 55 -221 55q-182 0 -320 -102q-46 -34 -82 -131q-30 -83 -36 -156l35 7l97 5l54 -6q-20 63 -20 125q0 71 26 127v5q-1 36 57 59q46 18 87 18q129 0 208 -83q76 -81 76 -211q0 -149 -181 -355q-94 -107 -311 -296q-49 -45 -152 -127
l-6 -4v-16l802 3l80 192z" />
    <glyph glyph-name="three" unicode="3" horiz-adv-x="932" 
d="M481 -38q-164 0 -312 68l-4 2l-141 105q-14 10 -10 22q3 12 20 14q147 15 284 98q30 19 30 -17v-60q0 -112 110 -112q65 0 124 51q81 70 81 194q0 164 -119 238q-85 53 -267 74q-21 3 -21 20q0 15 18 19q208 55 253 78q115 59 115 152q0 82 -74 130q-63 42 -149 42
q-43 0 -85.5 -41.5t-42.5 -84.5q0 -2 3 -23q3 -15 -1 -21q-4 -9 -20 -7l-105 16h-21q-102 0 -102 28q0 5 4 11q144 242 458 242q130 0 237 -54q134 -67 134 -185q0 -184 -203 -272q242 -137 242 -362q0 -167 -138 -271q-126 -94 -298 -94zM752 87q125 92 125 240
q0 218 -258 346q-14 7 -14 16q0 16 56 40q72 33 77 36q100 70 100 196q0 99 -123 155q-97 44 -208 44q-274 0 -407 -196q37 -5 47 -5h26l78 -12v7q-2 60 53 113t115 53q103 0 178 -53q85 -60 85 -159q0 -107 -107 -170q-57 -34 -198 -73q326 -62 326 -338q0 -142 -95 -224
q-70 -61 -150 -61q-67 0 -108.5 42t-41.5 110v25q-107 -59 -221 -79l100 -75q139 -63 294 -63q156 0 271 85z" />
    <glyph glyph-name="four" unicode="4" horiz-adv-x="1090" 
d="M85 1136q22 28 101 46q64 15 112 15q56 0 99 -142q25 -82 25 -161q0 -162 -107 -370h305v205q0 35 -50 79l-72 56q-13 11 -10 22q3 12 19 14q114 15 175 46l168 112q9 6 15 6q17 0 16 -47q-2 -30 -5 -59l-1 -5q-32 -103 -32 -157v-272h212q20 0 20 -17q0 -28 -45 -81
t-64 -53h-123v-248q0 -18 4 -36v-4q0 -7 30.5 -43.5t30.5 -49.5q0 -12 -22 -12h-312q-22 0 -22 12t29.5 49t32.5 51l6 80v201h-584q-16 0 -21 10q-4 10 5 23q108 131 154 222q65 128 65 263q0 81 -37 119q-58 26 -117 52q-40 19 -40 32q0 7 8 14q19 18 32 28zM126 1115
q-8 -5 -23 -16l125 -58q51 -50 51 -150q0 -225 -201 -478h562q20 0 20 -20v-223l-6 -85q-4 -26 -35 -65h222q-33 38 -34 63q-4 21 -4 42v268q0 20 20 20h133l57 71h-190q-20 0 -20 20v292q0 59 33 167l3 39l-137 -90q-55 -29 -144 -45q56 -44 68 -58q34 -37 34 -80v-225
q0 -20 -20 -20h-359q-35 0 -17 30q43 75 79 183q39 120 39 197q0 68 -21 142q-26 91 -69 121q-89 -1 -166 -42z" />
    <glyph glyph-name="five" unicode="5" horiz-adv-x="957" 
d="M775 958q-16 -67 -33 -67q-7 0 -16 9q-79 85 -100 101q-58 44 -133 44h-180v-248q53 9 111 9q216 0 342 -90q145 -104 145 -313q0 -203 -128 -322q-83 -76 -147 -99q-56 -20 -169 -20q-190 0 -332 71l-5 4q-117 114 -117 126q0 10 20 13q99 15 143 47q75 75 86 75
q10 0 15 -15q45 -139 94 -174q37 -27 124 -27q97 0 151 110q42 86 42 193q0 286 -264 286q-146 0 -311 -85q-29 -15 -29 18v441q0 28 20 132q3 16 36 19q23 3 65 0q49 -4 48 -4h669q23 0 23 -18q0 -10 -12 -18q-111 -79 -125 -98.5t-33 -99.5zM775 1080q14 20 85 72l-720 1
q-16 -86 -16 -108v-409q157 75 300 75q304 0 304 -326q0 -125 -53 -223q-64 -120 -180 -120q-109 0 -161 47q-44 39 -85 151l-48 -48q-35 -30 -123 -49l78 -75q133 -66 311 -66q106 0 155 18q57 20 133 91q116 107 116 292q0 363 -447 363q-67 0 -127 -13q-24 -5 -24 20v292
q0 20 20 20h200q80 0 135 -36q33 -21 102 -94q25 96 45 125z" />
    <glyph glyph-name="six" unicode="6" horiz-adv-x="907" 
d="M794 1107q-25 -18 -48 -69q-19 -44 -33 -44q-4 0 -10 4q-101 57 -183 57q-146 0 -212 -167q-48 -119 -48 -290q0 -176 39 -312q58 -201 183 -198q85 2 132 76q42 66 42 164q0 106 -47 181q-52 83 -136 81q-39 -1 -91 -41q-72 -55 -78 -140q-2 -22 -20 -22q-15 0 -19 18
q-10 41 -10 78q0 116 82 184q75 61 188 61q139 0 240 -88q113 -99 113 -265q0 -122 -86 -242q-119 -167 -320 -167q-200 0 -325 165q-131 173 -131 445q0 261 153 435q159 182 418 189l284 8q24 1 24 -18q0 -10 -11 -18zM297 515q71 114 186 114q93 0 154 -90
q58 -87 58 -215q0 -113 -50 -188q-57 -85 -161 -88q-150 -4 -218 211q-46 144 -46 339q0 189 57 319q77 178 243 178q84 0 183 -52q28 68 105 123q-274 -8 -345 -23q-175 -39 -286 -186q-121 -160 -121 -381q0 -228 99 -386q117 -189 334 -182q168 5 271 149q78 109 78 218
q0 147 -92.5 231t-239.5 80q-82 -2 -139 -46q-60 -46 -70 -125z" />
    <glyph glyph-name="seven" unicode="7" horiz-adv-x="1092" 
d="M807 877q-90 -134 -116 -237q-76 -310 -76 -632q0 -20 -20 -20q-145 -1 -244 -136q-8 -11 -18 -11q-18 0 -18 23q0 270 105 604q114 362 281 549h-279q-116 0 -191 -31l-172 -96q-12 -7 -18 -7q-2 0 -3 1q-9 2 -7 21q5 31 5 22q-1 6 -10.5 19t-9.5 21q0 19 24 32
q51 29 102 78q62 59 71 104q4 16 20 16l824 -1q23 0 23 -18q0 -10 -11 -18q-145 -108 -262 -283zM61 965q4 -6 11 -20l1 -2l141 79q71 35 208 35h325q17 0 21 -11q5 -11 -7 -23q-167 -168 -287 -520q-107 -315 -118 -582q93 98 219 106q2 317 78 623q30 124 138 276
q99 138 209 230l-752 1q-40 -109 -187 -192z" />
    <glyph glyph-name="eight" unicode="8" horiz-adv-x="940" 
d="M780 43q-126 -90 -309 -90q-184 0 -311 91q-144 103 -144 281q0 223 214 316q-136 84 -136 254q0 147 119 236q108 81 258 81q158 0 261 -77q115 -86 115 -240q0 -168 -138 -254q216 -98 216 -316q0 -179 -145 -282zM756 75q129 92 129 250q0 210 -229 295q-16 6 -16 18
q-1 12 14 19q153 73 153 238q0 137 -103 211q-92 66 -233 66q-134 0 -230 -70q-107 -77 -107 -207q0 -168 152 -239q16 -7 15 -19q0 -12 -16 -18q-229 -83 -229 -294q0 -161 132 -252q116 -80 283 -80q170 0 285 82zM593 1036q-27 38 -52 48q-20 8 -70 8q-164 0 -164 -197
q0 -85 38 -138q44 -60 126 -60q164 0 164 198q0 83 -42 141zM625 1060q50 -69 50 -165q0 -238 -204 -238q-100 0 -154 72q-50 64 -50 166q0 237 204 237q59 0 87 -12q34 -14 67 -60zM471 577q-109 0 -172 -73q-60 -69 -60 -179t60 -179q63 -73 172 -73q106 0 170 74
q61 70 61 178t-63 180t-168 72zM742 325q0 -124 -72 -206q-76 -86 -199 -86q-125 0 -200 85q-72 80 -72 207t72 207q75 85 200 85q123 0 199 -86q72 -82 72 -206z" />
    <glyph glyph-name="nine" unicode="9" horiz-adv-x="907" 
d="M763 195q-125 -164 -330 -205q-65 -13 -396 -22q-24 -1 -24 18q0 10 11 18q91 66 95 69q33 31 57 95q9 22 29 10q100 -57 183 -57q145 0 212 167q48 119 48 290q0 175 -40 312q-58 201 -182 198q-86 -2 -133 -74q-41 -62 -41 -159q0 -105 45 -184q50 -86 124 -86
q50 0 105 42q71 55 78 141q2 21 20 21q15 0 19 -18q10 -41 10 -78q0 -116 -83 -184q-75 -61 -188 -61q-139 0 -239 88q-113 99 -113 265q0 119 87 242q118 167 319 167q200 0 325 -165q131 -173 131 -445q0 -235 -129 -405zM611 662q-70 -115 -186 -115q-94 0 -153 89.5
t-59 218.5q0 112 49 186q57 84 162 87q150 4 218 -211q46 -145 46 -339q0 -189 -57 -319q-77 -178 -243 -178q-85 0 -183 52q-29 -69 -105 -123q274 8 345 23q175 39 286 186q121 160 121 381q0 228 -99 386q-118 189 -334 182q-168 -5 -270 -149q-79 -111 -79 -218
q0 -147 94 -232q91 -83 238 -79q82 2 140.5 47.5t68.5 124.5z" />
    <glyph glyph-name="colon" unicode=":" horiz-adv-x="277" 
d="M142 456h-2q-118 -6 -124 113v2q-6 110 120 117h2q116 6 124 -112v-3q7 -110 -120 -117zM139 496q82 9 83 76q-10 76 -83 76q-82 -9 -83 -76q8 -76 83 -76zM144 -33h-3q-119 -8 -125 114v2q-6 110 120 117h2q116 6 124 -112v-3q7 -110 -118 -118zM140 7q81 11 82 77
q-10 76 -83 76q-82 -9 -83 -76q8 -76 84 -77z" />
    <glyph glyph-name="semicolon" unicode=";" horiz-adv-x="277" 
d="M141 454q-119 -4 -125 114v2q-6 111 120 118h2q116 6 124 -114v-2q7 -114 -121 -118zM139 494q82 3 83 77q-10 77 -83 77q-82 -9 -83 -77q8 -79 83 -77zM164 -137q-55 -57 -121 -57q-22 0 -22 16q0 5 2 11l5 13l3 5q52 66 60 123h-31q-41 0 -44 40v3v37q0 110 125 110
q121 0 121 -116q0 -84 -98 -185zM84 -143q48 19 93 80.5t45 110.5q0 76 -81 76q-85 0 -85 -70v-35q1 -3 1 -5h3h53q20 0 20 -20q-1 -66 -49 -137z" />
    <glyph glyph-name="less" unicode="&#x3c;" horiz-adv-x="654" 
d="M449 135q-16 -4 -23 12q-37 95 -177 202l-224 152q-13 9 -11 20q1 11 16 16q289 92 349 315q3 13 16 15l196 27q13 2 19.5 -6t2.5 -20q-83 -249 -257 -352q226 -170 282 -315q1 -3 1 -7q0 -22 -66 -37zM457 177l134 31q-63 133 -284 295q-26 19 3 34q170 85 254 313
l-150 -21q-66 -219 -334 -317q195 -132 211 -145q123 -96 166 -190z" />
    <glyph glyph-name="equal" unicode="=" horiz-adv-x="770" 
d="M679 537q-1 -19 -20 -19h-623q-23 0 -23 18q0 12 13 19q39 23 58 65q16 35 28 35h623q23 0 23 -18q0 -11 -12 -19q-65 -41 -67 -81zM642 558q7 29 35 57h-550q-11 -32 -34 -57h549zM679 377q-1 -19 -20 -19h-623q-23 0 -23 18q0 12 13 19q39 23 58 65q16 35 28 35h623
q23 0 23 -18q0 -11 -12 -19q-65 -41 -67 -81zM642 398q7 29 35 57h-550q-11 -32 -34 -57h549z" />
    <glyph glyph-name="greater" unicode="&#x3e;" horiz-adv-x="654" 
d="M276 181q-3 -13 -16 -15l-195 -27q-13 -2 -19.5 6t-2.5 20q82 250 257 352q-79 59 -165 145q-119 121 -119 175q0 24 60 44q56 20 107 20q40 0 46 -15q34 -93 177 -203l224 -152q13 -9 11 -20q-1 -11 -16 -16q-289 -91 -349 -314zM241 204q66 219 334 316
q-196 134 -211 145q-126 99 -166 191l-134 -31q64 -133 285 -295q27 -19 -3 -34q-171 -84 -254 -313z" />
    <glyph glyph-name="question" unicode="?" horiz-adv-x="799" 
d="M699 674q-35 -43 -105 -92q-86 -61 -110 -83q-6 -6 -16 -18q-13 -100 22 -204q9 -26 -19 -26h-52q-28 0 -84 -1.5t-84 -1.5q-16 0 -21 11q-5 10 6 22q29 33 29 73q0 16 -6 48t-6 48q0 59 56 95q123 78 179 149q72 92 72 217q0 97 -41 131q-36 30 -135 30q-80 0 -128 -62
q-44 -57 -44 -139q0 -51 43 -79q20 -14 89 -36q17 -6 17 -20q0 -16 -21 -19q-34 -4 -64 -4q-110 0 -181 53q-79 60 -79 167q0 120 121 195q105 64 231 64q416 0 416 -281q0 -135 -85 -237zM240 755q-68 36 -68 116q0 99 55 167q60 74 157 74q115 0 164 -42q52 -45 52 -159
q0 -143 -80 -242q-41 -52 -147 -127q-80 -55 -80 -92q0 -16 6 -48t6 -48q0 -35 -16 -66q19 0 65 2q42 1 65 1h24q-23 74 -23 140q0 52 18.5 77.5t83.5 69.5q110 74 158 136q64 84 64 197q0 241 -376 241q-109 0 -202 -54q-110 -63 -110 -165q0 -160 184 -178zM370 -28
q-57 0 -94 35t-37 91q0 127 131 127q56 0 93.5 -36t37.5 -91q0 -54 -38 -90t-93 -36zM461 98q0 87 -91 87t-91 -87q0 -86 91 -86q38 0 64.5 24t26.5 62z" />
    <glyph glyph-name="at" unicode="@" horiz-adv-x="1459" 
d="M1162 114q-203 -6 -268 89l-2 4q-8 23 -21 52q-113 -78 -205 -78q-119 0 -195 55q-86 63 -86 178q0 151 97 220q49 34 201 75q130 35 170 90q-72 36 -163 36q-87 0 -224 -36q-4 -1 -8 -1q-20 0 -20 17q0 9 9 18q129 119 328 119q115 0 201 -35l3 -1q78 -32 78 -126v-480
q0 -52 27 -54q77 4 82 64q15 192 15 223q0 206 -110 334q-116 136 -320 136q-218 0 -346 -137q-124 -134 -124 -353q0 -438 588 -438h111q109 -23 109 -38v-1q-1 -8 -15 -16q-148 -88 -307 -88q-292 0 -505 139q-246 162 -246 442q0 284 232 463q212 164 503 164
q287 0 483 -164q210 -174 210 -457q0 -152 -65 -269q-78 -142 -217 -146zM1345 282q59 111 59 247q0 266 -198 429q-185 152 -455 152q-274 0 -475 -153q-220 -167 -220 -434q0 -262 235 -413q201 -128 476 -128q123 0 239 56l-32 7h-105q-628 0 -628 478q0 236 136 381
q140 149 374 149q220 0 348 -147q122 -140 122 -363q0 -32 -15 -227q-7 -94 -122 -100q-67 3 -67 94v480q0 63 -55 89q-97 33 -187 33q-127 0 -222 -52q78 15 137 15q39 0 113 -16q98 -22 98 -52q0 -5 -2 -10q-33 -61 -104 -92q-123 -40 -246 -79q-124 -56 -124 -212
q0 -98 75 -149q64 -44 166 -44q61 0 134 44.5t82 44.5q10 0 15 -12q20 -43 32 -75q52 -75 231 -69q119 4 185 128zM861 669q-37 -29 -81 -44q-122 -42 -135 -51q-47 -31 -47 -114q0 -115 111 -115q71 0 152 63v261zM901 714v-316q0 -32 -81 -65q-71 -28 -111 -28
q-151 0 -151 155q0 94 55 138q27 22 123 55q89 31 131 75q11 12 23 7q11 -4 11 -21z" />
    <glyph glyph-name="A" unicode="A" horiz-adv-x="1486" 
d="M1114 -21q-15 0 -19 14q-31 104 -96 243q-58 117 -115 234q-136 -33 -350 -177q-243 -164 -243 -272q0 -3 2 -18q2 -11 0 -16q-4 -7 -18 -7l-70 -1l-169 1q-23 0 -23 18q0 10 12 18q58 41 292 494q2 3 271 539q1 7 1 14q0 50 -55 92q-35 21 -69 43q-12 8 -12 19
q0 16 22 18l193 14q100 7 131 -52q83 -158 213 -454q141 -321 209 -456q103 -205 239 -270q14 -7 14 -20q0 -18 -23 -18h-337zM1129 19h248q-102 72 -192 250q-68 135 -209 456q-129 296 -213 454q-17 31 -100 31q27 0 -125 -11l18 -10q73 -56 73 -126q0 -12 -2 -24l-2 -5
l-303 -601q-163 -319 -239 -413l122 -1l46 2q0 128 258 304q230 157 382 188q15 3 22 -11l116 -238q67 -140 100 -245zM672 878l-261 -496q99 64 427 178zM690 930l194 -372q10 -20 -11 -28q-226 -78 -271 -97q-179 -73 -240 -144q-8 -9 -17 -9q-19 0 -19 19q0 6 3 12
l325 619q18 34 36 0z" />
    <glyph glyph-name="B" unicode="B" horiz-adv-x="1042" 
d="M408 -16q-6 -4 -15 -4h-48q-15 0 -45.5 -1t-46.5 -1h-47l-35 2h-84q-22 0 -22 12q0 13 28.5 48t30.5 42l8 90v812q0 90 -81 163q-5 5 -15 11q-20 21 -20 63q0 24 19 25q176 11 254 -64l3 -3l9 -16q148 111 319 111q128 0 215 -63q98 -71 98 -196q0 -132 -94 -241
q188 -114 188 -337q0 -225 -210 -344q-158 -89 -409 -109zM57 1192l2 -1q23 -13 65 -64q48 -60 48 -143l-8 -909q-4 -20 -32 -55h41l35 -2h45q15 0 46 1t46 1h33q5 3 12 3q239 16 390 95q207 108 207 319q0 212 -189 314q-22 13 -5 32q100 105 100 232q0 107 -86 167
q-75 52 -187 52q-167 0 -312 -116q-6 -4 -12 -4q-11 0 -37 41q-65 61 -202 52v-15zM544 1116q-56 0 -110 -19q-70 -24 -78 -68l1 -11v-144q189 -6 285 -26q37 65 37 151q0 117 -135 117zM544 1156q175 0 175 -157q0 -41 -16 -108q-22 -92 -55 -85q-119 26 -311 28
q-20 0 -20 20l-1 179q10 63 91 96q63 27 137 27zM358 99q20 3 34 3q155 0 263 85q118 93 118 246q0 142 -124 236q-113 85 -259 85q-22 0 -33 -2v-643q0 -5 1 -10zM656 712q157 -103 157 -279q0 -170 -129 -274q-120 -97 -292 -97q-10 0 -25.5 -2t-20.5 -2q-29 0 -29 51v658
q2 27 73 27q140 0 266 -82z" />
    <glyph glyph-name="C" unicode="C" horiz-adv-x="1405" 
d="M1312 1155q-45 -46 -45 -82v-42l-1 -7q-3 -7 -3 -74q0 -23 -17 -23q-10 0 -19 11q-138 175 -404 175q-244 0 -393 -125q-160 -134 -160 -374q0 -222 120 -370q129 -161 347 -161q279 0 487 310q8 12 19 12q18 0 18 -23v-250q-3 -12 -7 -15q-196 -170 -542 -170
q-321 0 -505 172q-191 176 -191 495q0 315 258 487q221 148 549 148h547q24 0 24 -12q0 -15 -82 -82zM1284 1185l30 24h-491q-311 0 -521 -137q-246 -161 -246 -458q0 -302 179 -467q173 -160 477 -160q325 0 509 154v178q-208 -276 -484 -276q-234 0 -376 172
q-131 161 -131 399q0 257 172 403q160 136 421 136q254 0 401 -151v5q0 9 3 27v39q0 52 57 112z" />
    <glyph glyph-name="D" unicode="D" horiz-adv-x="1241" 
d="M569 -53q-208 0 -330 81v-28q0 -35 -114 -35q-109 0 -109 34v1013q0 25 156 107q113 60 188 92q88 38 262 38q276 0 443 -183q161 -177 161 -455q0 -290 -184 -477t-473 -187zM1186 611q0 261 -150 426q-155 172 -414 172q-166 0 -246 -34q-149 -64 -320 -174v-982l143 1
v50q0 17 11 21q11 5 23 -7q49 -48 158 -75q91 -22 178 -22q273 0 445 175.5t172 448.5zM878 955q-109 158 -309 158q-131 0 -225 -68q-105 -75 -105 -202v-668q118 -92 338 -92q185 0 298 179q97 154 97 349q0 206 -94 344zM910 977q102 -147 102 -366q0 -212 -108 -377
q-124 -191 -327 -191q-245 0 -371 107q-5 4 -7 15v678q0 144 117 231q106 79 253 79q221 0 341 -176z" />
    <glyph glyph-name="E" unicode="E" horiz-adv-x="933" 
d="M361 643l1 -541l21 -2l82 -2l50 2l48 4q137 24 226 91l6 3q61 19 71 19q14 0 14 -19q0 -7 -8 -69q1 -16 23 -53t22 -49q0 -4 -1 -8q-24 -43 -64 -43h-778q-14 0 -35.5 20t-21.5 37q0 10 10 15l81 45q19 21 26 34q0 13 3 37l1 3v899q0 34 -31 66q-34 18 -68 35
q-23 13 -23 23q0 12 43 54q8 4 14 5h778q18 0 42 -17t24 -35q0 -6 -3 -12q-42 -67 -43 -89q8 -62 8 -69q0 -19 -14 -19q-10 0 -71 19l-6 3q-89 67 -226 91l-49 4l-50 2l-81 -2l-21 -2v-351h493q21 0 21 -13q0 -11 -78 -142l-3 -4q-32 -34 -66 -68t-51 -34q-8 0 -14 8
q-101 136 -302 124zM177 158q-3 -24 -3 -36l-2 -8q-8 -20 -38 -51l-4 -3l-59 -33l11 -11h770q13 0 22 13q-44 73 -42 101v3l5 36l-27 -8q-96 -71 -241 -97l-52 -4l-52 -2l-84 2l-41 4q-18 2 -18 20l-1 568q0 33 81 30q182 -8 279 -121l83 79l55 92h-478q-20 0 -20 20v389
q0 23 59 24l84 2l52 -2l52 -4q145 -26 241 -97l27 -8l-5 39q-2 28 42 101q-9 13 -22 13h-770l-11 -11l59 -33l4 -3q45 -45 45 -96z" />
    <glyph glyph-name="F" unicode="F" horiz-adv-x="884" 
d="M361 643v-681q0 -14 -49 -32l-28 -17l-49 -42q-67 -58 -83 -58q-14 0 -14 22v1231q0 34 -31 66q-34 18 -68 35q-23 13 -23 23q0 12 43 54q8 4 14 5h778q18 0 42 -17t24 -35q0 -6 -3 -12q-42 -67 -43 -89q8 -62 8 -69q0 -19 -14 -19q-10 0 -71 19l-6 3q-89 67 -226 91
l-49 4l-50 2l-81 -2l-21 -2v-351h493q21 0 21 -13q0 -11 -78 -142l-3 -4q-32 -34 -66 -68t-51 -34q-8 0 -14 8q-86 117 -286 124h-16zM831 1095q-2 28 42 101q-9 13 -22 13h-770l-11 -11l59 -33l4 -3q45 -45 45 -96v-1189l31 24l53 45l31 19l3 2l25 9v677q0 32 81 29
q182 -8 279 -121l83 79l55 92h-478q-20 0 -20 20v389q0 23 59 24l84 2l52 -2l52 -4q145 -26 241 -97l27 -8z" />
    <glyph glyph-name="G" unicode="G" horiz-adv-x="1405" 
d="M1320 680q15 -17 -4 -31q-9 -7 -40 -56q-24 -54 -24 -143q0 -80 39 -301q2 -11 -7 -18q-212 -184 -572 -184q-321 0 -505 172q-191 176 -191 495q0 316 257 488q221 147 550 147h547q24 0 24 -12q0 -15 -82 -82q-45 -46 -45 -82v-42l-1 -7q-3 -7 -3 -74q0 -23 -17 -23
q-10 0 -19 11q-138 175 -404 175q-244 0 -393 -125q-160 -134 -160 -374q0 -222 120 -370q129 -161 347 -161q141 0 246 62q128 76 128 168q0 20 -5.5 58.5t-5.5 58.5q0 9 1 17q-24 -4 -56 -4q-36 0 -105.5 19.5t-105.5 19.5q-44 0 -95 -17l-125 -54q-6 -3 -12 -3
q-18 0 -18 17q0 8 6 16q67 93 107 126q67 56 154 56q39 0 114.5 -19.5t114.5 -19.5q58 0 112 32q15 8 96 69q23 18 32 -5zM1291 638q-70 -53 -96 -67q-52 -27 -115 -27q-40 0 -115 19.5t-114 19.5q-100 0 -183 -105l57 25q58 19 109 19q36 0 105.5 -19.5t105.5 -19.5
q21 0 49.5 6t34.5 6q12 0 14 -14q2 -9 0 -28q-3 -22 -3 -23q0 -20 5.5 -58.5t5.5 -58.5q0 -115 -148 -202q-114 -68 -266 -68q-234 0 -376 172q-131 161 -131 399q0 257 172 403q160 136 421 136q254 0 401 -151v5q0 9 3 27v39q0 52 57 112l30 24h-491q-312 0 -521 -136
q-246 -160 -246 -459q0 -302 179 -467q173 -160 477 -160q338 0 537 167q-37 214 -37 296q0 108 28 160l1 3q27 50 51 68l22 -33q-7 -5 -23 -10z" />
    <glyph glyph-name="H" unicode="H" horiz-adv-x="1337" 
d="M1002 -20q-21 0 -21 14q0 12 23 47q26 39 30 52l6 79v539q-231 -43 -401 -230q-161 -177 -212 -414q13 -16 25 -33q21 -27 21 -40q0 -14 -21 -14h-300q-21 0 -21 14q0 12 23 47q26 39 30 52l6 79v807q0 83 -46 116q-5 6 -7 11l-4 14q-30 13 -59 27q-46 22 -57 68
q-5 20 24 28l38 6h4h310q20 0 20 -20v-771q254 353 627 365v156q0 12 1 35.5t1 35.5q0 130 -86 162q-16 6 -16 20q0 19 23 19l280 -2q20 0 20 -20v-1058q0 -66 6 -86q9 -26 48 -72q11 -12 6 -23q-5 -10 -21 -10h-300zM1041 20h219q-37 50 -37 151v1038l-193 2
q52 -55 52 -161q0 -12 -1 -35.5t-1 -35.5v-176q0 -20 -20 -20q-392 -3 -650 -401q-8 -12 -19 -12q-18 0 -18 23v816h-288l-20 -4q13 -18 58 -35q41 -15 47 -35l1 -3l3 -9q56 -46 56 -144l-7 -895q-8 -28 -32 -64h220q-27 36 -25 47q53 259 230 448q187 200 441 240
q23 3 23 -20v-565l-7 -86q-8 -28 -32 -64z" />
    <glyph glyph-name="I" unicode="I" horiz-adv-x="547" 
d="M212 -20q-21 0 -21 14q0 12 23 47q26 39 30 52l6 79v807q0 85 -53 119l-104 39q-62 24 -76 78q-5 20 24 28l38 6h4h370q20 0 20 -20v-1058q0 -66 6 -86q9 -26 48 -72q11 -12 6 -23q-5 -10 -21 -10h-300zM251 20h219q-37 50 -37 151v1038h-348l-20 -4q18 -26 81 -45
q71 -21 97 -46q47 -42 47 -135l-7 -895q-8 -28 -32 -64z" />
    <glyph glyph-name="J" unicode="J" horiz-adv-x="498" 
d="M367 -208q-133 -202 -390 -225q-25 -2 -25 18q0 11 12 19q163 105 226 236q58 120 58 320v817q0 84 -53 118q-52 20 -104 41q-63 24 -76 78q-5 19 24 28q19 3 38 7h4h370q20 0 20 -20v-1069q0 -209 -104 -368zM431 160v1049h-348l-21 -4q18 -27 82 -47q71 -23 97 -47
q47 -42 47 -134v-817q0 -186 -46 -301q-52 -133 -186 -239q180 42 282 200q93 145 93 340z" />
    <glyph glyph-name="K" unicode="K" horiz-adv-x="1471" 
d="M1190 6l-83 -48q-5 -3 -12 -3q-36 0 -113 77q-59 59 -83 95l-120 228q-77 147 -154 197q-106 69 -220 85v-465q0 -58 9 -85q10 -30 46 -76q9 -12 4 -22q-4 -10 -20 -10h-300q-15 0 -20 10t4 22q39 51 48 83l6 79v901q0 43 -158 157q-11 8 -11 18q0 18 23 18h349
q20 0 20 -20v-479h9q185 -2 310 165q75 100 75 177q0 84 -105 111q-18 4 -18 20q0 19 23 19l361 1q29 0 19 -27q-49 -132 -121 -260q-94 -167 -173 -217q-65 -40 -115 -64q105 -40 192 -146q67 -105 135 -209q98 -148 161 -166l7 -3q64 -47 261 -23q21 -19 -4 -33q5 -1 9 -5
q-144 -46 -241 -102zM1170 40q104 60 256 107l7 1q25 -1 25 -20t-27 -22q-208 -25 -287 29q-77 23 -161 152q-148 227 -152 231q-101 127 -225 151q-19 4 -19 19q0 14 16 20q63 22 160 83q69 43 156 195q66 116 112 235l-243 -1q51 -41 51 -110q0 -82 -73.5 -188.5
t-149.5 -143.5q-104 -50 -202 -50q-49 0 -49 21v478h-269q126 -98 126 -153l-7 -989q-8 -29 -32 -66h221q-39 58 -39 153v488q0 21 30 21q45 0 147 -44q78 -34 105 -51q81 -53 150 -180q58 -112 116 -223q77 -127 184 -185z" />
    <glyph glyph-name="L" unicode="L" horiz-adv-x="1035" 
d="M407 116q50 -13 96 -13q272 0 485 162q8 6 16 6q17 0 17 -18q0 -7 -4 -14q-106 -178 -106 -307q0 -38 -31 -17q-89 61 -370 56l-380 -7q-21 0 -21 13q0 15 31 57q34 47 38 59l6 79v802q0 76 -43 140t-113 95q-15 6 -15 19q0 19 23 19h351q20 0 20 -20v-1111zM873 -35
q8 99 69 220q-197 -122 -439 -122q-136 0 -136 41v1103h-258q115 -89 115 -233l-7 -891q-8 -27 -46 -78q7 0 136 4q104 4 180 4q284 0 386 -48z" />
    <glyph glyph-name="M" unicode="M" horiz-adv-x="1721" 
d="M1592 1136q0 1 1 -10v-3l2 -952q0 -113 61 -154q12 -9 12 -19q0 -18 -23 -18h-282q-23 0 -23 18q0 10 11 18q61 46 61 156l-2 811q0 26 -2 48l-412 -490q-66 -79 -66 -133q0 -8 2 -16q5 -27 -17 -27q-9 0 -18 9l-520 564v-631q0 -86 52 -164q34 -51 117 -128
q12 -12 8 -23q-5 -12 -22 -12h-337q-35 0 -17 30q64 108 64 195v878l-71 42q-25 7 -81 27l-2 1q-16 8 -42 29q-33 27 -33 42q0 11 20 14l88 11h270q12 -3 15 -7l512 -584l427 507l97 85q7 4 13 5l231 5q23 1 23 -19q0 -13 -16 -20q-101 -40 -101 -85zM893 438q13 57 73 129
l439 523q9 11 17 11q28 0 28 -118l-1 -855q-5 -64 -38 -108h183q-39 49 -39 151l-2 951q-1 7 -1 14q0 46 50 82l-139 -3l-91 -79l-439 -522q-15 -18 -30 0l-521 595h-260l-37 -5q14 -11 20 -15q47 -17 79 -26l5 -2l83 -50q10 -6 10 -17v-889q0 -85 -53 -185h253
q-145 144 -145 287v682q0 17 12 22q11 4 23 -8z" />
    <glyph glyph-name="N" unicode="N" horiz-adv-x="1324" 
d="M1267 -26q-6 -2 -29 3l13 38q25 -13 25 -33q0 -16 -16 -16q-6 0 -13 3q-38 19 -87 75l-783 892v-629q0 -86 52 -164q34 -51 117 -128q12 -12 8 -23q-5 -12 -22 -12h-337q-35 0 -17 30q64 108 64 195v878l-71 42q-25 7 -81 27l-2 1q-16 8 -42 29q-33 27 -33 42q0 11 20 14
l88 11h270q12 -3 15 -7l768 -896v626q0 36 -5 50l-1 3q-9 24 -24 48l-106 83q-8 6 -8 16v57q0 20 20 20h239q20 0 20 -20v-1164q0 -76 -42 -91zM1246 17l11 -3q12 11 12 51v1144h-199v-27l106 -85q17 -27 31 -63q7 -19 7 -62v-680q0 -17 -12 -22q-12 -4 -23 9l-797 930h-260
l-37 -5q14 -11 20 -15q47 -17 79 -26l5 -2l83 -50q10 -6 10 -17v-889q0 -85 -53 -185h253q-145 144 -145 287v682q0 17 12 22q12 4 23 -9l818 -932q31 -35 56 -53z" />
    <glyph glyph-name="O" unicode="O" horiz-adv-x="1477" 
d="M1235 113q-205 -166 -496 -166q-307 0 -510 177q-213 187 -213 491t213 490q203 177 510 177q306 0 510 -177q213 -186 213 -490q0 -317 -227 -502zM1209 145q213 172 213 470q0 287 -202 462q-191 165 -481 165t-481 -165q-202 -175 -202 -462q0 -288 201 -462
q192 -166 482 -166q276 0 470 158zM1061 1016q-132 131 -322 131q-228 0 -353 -156q-116 -144 -116 -376q0 -230 117 -375q126 -157 352 -157t352 157q117 145 117 375q0 254 -147 401zM1089 1044q159 -158 159 -429q0 -247 -128 -403q-138 -169 -381 -169t-381 169
q-128 156 -128 403q0 249 127 404q137 168 382 168q207 0 350 -143z" />
    <glyph glyph-name="P" unicode="P" horiz-adv-x="948" 
d="M523 561q-120 -52 -169 -62l1 -328q0 -59 9 -85q9 -29 45 -74q9 -12 4 -22q-4 -10 -20 -10h-306q-22 0 -22 12q0 13 28.5 48t30.5 42l8 90v812q0 90 -81 163q-5 5 -15 11q-20 21 -20 63q0 24 19 25q176 11 254 -64l3 -3l9 -16q148 111 319 111q128 0 215 -63
q98 -71 98 -196q0 -276 -410 -454zM57 1192l2 -1q23 -13 65 -64q48 -60 48 -143l-8 -909q-4 -20 -32 -55h221q-38 56 -38 151l-1 346q0 20 20 20q34 0 173 60q386 168 386 418q0 107 -86 167q-76 52 -187 52q-167 0 -312 -116q-6 -4 -12 -4q-11 0 -37 41q-65 61 -202 52v-15
zM544 1116q-58 0 -115 -21q-74 -28 -74 -77v-355q324 98 324 336q0 117 -135 117zM544 1156q175 0 175 -157q0 -162 -148 -283q-123 -101 -221 -101q-35 0 -35 21v382q0 69 85 108q66 30 144 30z" />
    <glyph glyph-name="Q" unicode="Q" horiz-adv-x="1696" 
d="M1229 110q99 -120 201 -186q46 -30 240 -126q14 -7 14 -20q0 -22 -26 -18q-222 33 -316 71q-135 55 -249 192q-158 -76 -354 -76q-307 0 -510 177q-213 187 -213 491t213 490q203 177 510 177q306 0 510 -177q213 -186 213 -490q0 -319 -233 -505zM1296 -104
q63 -41 237 -74q-210 106 -348 279q-12 16 4 28q233 176 233 486q0 287 -202 462q-191 165 -481 165t-481 -165q-202 -175 -202 -462q0 -288 201 -462q192 -166 482 -166q195 0 350 79q14 7 25 -5q79 -99 182 -165zM1061 1016q-132 131 -322 131q-228 0 -353 -156
q-116 -144 -116 -376q0 -230 117 -375q126 -157 352 -157q148 0 256 72q-91 133 -124 174q-74 91 -155 148l-234 163q-12 7 -12 18q0 24 28 17q196 -45 277 -82q122 -55 233 -177q39 -43 106 -141q94 139 94 340q0 254 -147 401zM1089 1044q159 -158 159 -429
q0 -232 -118 -387q-17 -22 -33 1q-174 259 -364 340q-39 16 -141 42q177 -123 235 -177q84 -78 183 -229q32 -49 32 -57q0 -9 -7 -14q-123 -91 -296 -91q-243 0 -381 169q-128 156 -128 403q0 249 127 404q137 168 382 168q207 0 350 -143z" />
    <glyph glyph-name="R" unicode="R" horiz-adv-x="1160" 
d="M879 -20q-55 0 -235 199q-69 85 -138 171q-96 117 -151 142v-321q0 -57 9 -84.5t45 -74.5q9 -12 4 -22t-20 -10h-306q-22 0 -22 12q0 13 28.5 48t30.5 42l8 90v812q0 90 -81 163q-5 5 -15 11q-20 21 -20 63q0 24 19 25q176 11 254 -64l3 -3l9 -16q148 111 319 111
q128 0 215 -63q98 -71 98 -196q0 -265 -375 -438q104 -67 285 -291q168 -208 291 -268q14 -7 14 -20q0 -18 -23 -18h-246zM57 1192l2 -1q23 -13 65 -64q48 -60 48 -143l-8 -909q-4 -20 -32 -55h222q-39 59 -39 151v350q0 26 25 19q74 -19 181 -145q76 -95 153 -190
q122 -134 210 -185h168q-96 67 -269 281q-160 196 -278 260q-13 8 -13 19q1 11 15 17q386 167 386 418q0 107 -86 167q-76 52 -187 52q-167 0 -312 -116q-6 -4 -12 -4q-11 0 -37 41q-65 61 -202 52v-15zM544 1116q-58 0 -115 -21q-74 -28 -74 -77v-355q324 98 324 336
q0 117 -135 117zM544 1156q175 0 175 -157q0 -162 -148 -283q-123 -101 -221 -101q-35 0 -35 21v382q0 69 85 108q66 30 144 30z" />
    <glyph glyph-name="S" unicode="S" horiz-adv-x="1003" 
d="M808 62q-145 -84 -354 -84q-69 0 -232 29q-206 37 -206 81q0 5 2 8q53 120 58 144q8 32 9 155q0 23 18 23q13 0 20 -14q143 -290 372 -290q270 0 270 156q0 132 -160 191l-358 92q-223 82 -223 288q0 163 149 286q95 78 175 102q66 20 196 20q61 0 197 -24
q179 -31 179 -73q0 -4 -2 -8l-25 -54q-17 -26 -28 -59l-2 -21q2 -34 2 -52q0 -17 -1 -22l-1 -3q-4 -14 -27 -37q-26 -25 -42 -25q-12 0 -16 16q-57 227 -295 227q-235 0 -235 -215q0 -106 157 -150l361 -99q222 -75 222 -288q0 -197 -180 -300zM788 96q160 92 160 266
q0 171 -195 250l-358 99q-187 51 -187 188q0 124 77 191q73 64 198 64q253 0 325 -227q13 12 17 19v12q0 4 -1 21t-1 30v3l2 25l1 4q13 39 33 70l14 31q-161 67 -329 67q-124 0 -184 -18q-73 -21 -161 -94q-135 -111 -135 -256q0 -178 195 -250l358 -92q188 -69 188 -229
q0 -196 -310 -196q-224 0 -371 245q-2 -72 -15 -111q-4 -12 -46 -109q207 -81 391 -81q198 0 334 78z" />
    <glyph glyph-name="T" unicode="T" horiz-adv-x="1473" 
d="M1362 1154q-43 -30 -66 -98q-7 -33 -13 -66q-11 -41 -26 -41q-7 0 -16 10q-78 88 -114 111q-56 34 -154 34h-111v-933q0 -66 6 -86q9 -26 48 -72q11 -12 6 -23q-5 -10 -21 -10h-300q-21 0 -21 14q0 12 23 47q26 39 30 52l6 79v807q0 98 -65 125h-159q-120 0 -188 -31
l-181 -110q-7 -4 -14 -4q-18 0 -18 17q0 8 5 15q126 185 129 190q45 86 46 213q0 23 18 23q12 0 19 -13q53 -91 120 -123q60 -29 171 -29h916q23 0 23 -18q0 -10 -11 -18zM1338 1186l37 26h-853q-199 0 -291 120q-8 -91 -39 -153q-11 -22 -88 -134l106 64q65 35 205 35
l170 -1q94 -38 94 -164l-7 -895q-8 -28 -32 -64h219q-37 50 -37 151v953q0 20 20 20h131q99 0 155 -29q46 -24 117 -101l13 53q27 82 80 119z" />
    <glyph glyph-name="U" unicode="U" horiz-adv-x="1255" 
d="M1017 1059q24 -34 116 -145q107 -161 107 -318q0 -263 -143 -442q-170 -210 -451 -196q-19 1 -56 -1q-261 -14 -431 197q-143 179 -143 442q0 157 107 318q91 111 116 145q-6 8 -77 69q-55 48 -55 70q0 6 4 11q36 40 65 40h258q54 0 54 -38v-29q-3 -11 -6 -14
q-212 -204 -212 -572q0 -224 97 -351q70 -92 106 -116q53 -36 155 -41q107 5 153 36q31 21 108 121q97 126 97 351q0 368 -212 572q-4 3 -6 14v29q0 38 54 38h258q17 0 43.5 -18.5t26.5 -35.5q0 -8 -6 -13q-45 -39 -127 -123zM1065 180q135 167 135 416q0 145 -99 294
q-127 154 -127 167q0 18 29 45l98 94q-14 13 -21 13h-258q-7 0 -12 -1l-2 -3v-15q218 -214 218 -594q0 -239 -105 -375q-81 -106 -117 -130q-55 -37 -176 -43q-113 5 -174 45q-43 29 -119 128q-105 137 -105 375q0 380 218 594v15l-2 3q-5 1 -12 1h-258q-7 0 -21 -13
q42 -35 117 -115q10 -13 10 -24q0 -12 -127 -167q-99 -149 -99 -294q0 -249 135 -416q156 -196 416 -182q20 1 41 0q261 -13 417 182z" />
    <glyph glyph-name="V" unicode="V" horiz-adv-x="1449" 
d="M1354 1057l-222 -398q-149 -269 -341 -673q-20 -42 -56 -45h-3q-60 -4 -123 153q-200 506 -361 786q-54 93 -228 337q-23 32 16 32l398 -1q58 -18 58 -53q0 -8 -8 -14q-53 -41 -60 -82l5 -25q94 -305 363 -766q103 182 207 364q119 215 188 376l4 28q-2 19 -17 38
q-108 94 -108 106q0 11 19 15l72 14h257q32 0 18 -29zM1318 1075l64 134h-223l-26 -5l72 -64q24 -31 26 -64v-4l-5 -33l-2 -5q-71 -168 -197 -394l-218 -382q-16 -30 -34 0q-320 529 -385 805l-1 3l-5 30v5q6 50 57 97q-10 8 -17 11h-349q156 -221 207 -309
q163 -283 365 -792q49 -124 84 -127q15 3 24 23q192 405 343 675z" />
    <glyph glyph-name="W" unicode="W" horiz-adv-x="1987" 
d="M1749 1060q24 -34 116 -145q107 -161 107 -318q0 -270 -148 -448q-159 -191 -425 -191q-12 0 -37 -2t-37 -2q-117 0 -187 21q-83 24 -168 92q-158 -110 -381 -110q-267 0 -425 191q-148 178 -148 448q0 157 107 318q91 111 116 145q-6 8 -77 69q-55 48 -55 70q0 6 4 11
q36 40 65 40h258q54 0 54 -38v-29q-3 -11 -6 -14q-212 -204 -212 -572q0 -491 418 -491q113 0 196 55q-143 196 -143 436q0 253 135 463q-8 11 -78 69q-56 48 -56 70q0 6 4 11q36 40 64 40h203q24 0 46.5 -16t22.5 -39q0 -6 -2 -13q-85 -255 -85 -585q0 -181 62 -319
q82 -181 244 -181h9q206 0 321 150q87 114 87 351q0 368 -212 572q-4 3 -6 14v29q0 38 54 38h258q17 0 43.5 -18.5t26.5 -35.5q0 -8 -6 -13q-45 -39 -127 -123zM1797 181q135 167 135 416q0 145 -99 294q-127 154 -127 167q0 18 29 45l98 94q-14 13 -21 13h-258q-7 0 -12 -1
l-2 -3v-15q218 -214 218 -594q0 -241 -100 -380q-114 -161 -348 -161h-9q-181 0 -274 192q-72 149 -72 348q0 333 85 593q-4 20 -27 20h-203q-6 0 -20 -13q43 -35 119 -115q9 -13 9 -24q-2 -7 -3 -11q-134 -204 -134 -450q0 -236 147 -428q12 -16 -4 -28q-98 -75 -236 -75
q-235 0 -353 153q-105 137 -105 378q0 380 218 594v15l-2 3q-5 1 -12 1h-258q-7 0 -21 -13q42 -35 117 -115q10 -13 10 -24q0 -12 -127 -167q-99 -149 -99 -294q0 -254 137 -420q146 -179 396 -179q218 0 370 111q13 9 25 -1q82 -69 160 -93q67 -20 181 -20q12 0 37 2t37 2
q252 0 398 183z" />
    <glyph glyph-name="X" unicode="X" horiz-adv-x="1374" 
d="M1065 -27q-11 0 -17 9q-252 408 -411 601q-138 -200 -183 -277q-92 -155 -138 -304q-4 -14 -19 -14l-261 -5q-14 0 -19 9t2 21q87 157 246 355q137 166 275 332l-143 219q-99 152 -172 152q-35 0 -103 -19.5t-84 -19.5q-20 0 -20 17q0 10 10 18q173 150 284 150
q107 0 215 -146q32 -45 140 -194q63 93 161 229q118 164 250 164q49 0 108 -12q85 -17 75 -47q-50 -156 -91 -156q-4 1 -7 2q-63 33 -111 33q-63 0 -123 -70q-29 -34 -81 -122.5t-91 -133.5l598 -754q9 -12 4 -22q-4 -10 -20 -10zM127 1095q59 16 98 16q95 0 206 -170
l151 -231q8 -12 -2 -24l-266 -320q-156 -194 -243 -342l211 4q49 151 146 312q45 76 192 287q14 22 31 2q170 -203 425 -616l222 4l-583 736q-11 13 2 26q32 33 94 137t102 145q65 69 139 69q51 0 113 -29q33 52 52 105q-65 24 -139 24q-112 0 -218 -148
q-109 -152 -176 -251q-16 -24 -33 -1l-156 217q-96 130 -183 130q-73 0 -185 -82z" />
    <glyph glyph-name="Y" unicode="Y" horiz-adv-x="1308" 
d="M391 -196q15 -7 24 -14l66 -22q39 -17 46 -46q6 -25 -19 -25l-327 -6q-14 0 -19 9q-6 9 2 22l376 599l-145 268l-212 404l-163 229q-23 32 16 32h392q15 0 39 -19t24 -36q0 -7 -7 -13q-60 -47 -60 -82q0 -106 258 -561l172 248q149 223 156 282q-4 38 -65.5 87.5
t-61.5 58.5t21 14l72 14h297q38 0 16 -31q-250 -361 -866 -1356q-12 -18 -32 -56zM425 1214h-350l143 -202l363 -683q5 -10 -1 -20l-362 -577l232 4q-36 11 -52 17l-6 4q-7 6 -23 12l-5 3q-15 11 -15 29q0 16 40 81q363 586 415 667q238 378 431 658h-257l-21 -4
q93 -71 93 -128v-4q0 -68 -163 -309q-95 -134 -191 -268q-18 -27 -33 1q-279 489 -279 609q0 48 57 98q-5 4 -16 12z" />
    <glyph glyph-name="Z" unicode="Z" horiz-adv-x="1433" 
d="M405 189q25 -2 186 -2q134 0 631 21q64 3 168 46q28 12 28 -18v-42q0 -16 -111 -90q-121 -80 -144 -115q-13 -20 -263 -20q-122 0 -802 11l-6 1q-78 26 -78 39q0 7 8 15l1030 995h-527q-151 0 -364 -58q-13 -4 -38 15t-25 36q0 6 4 11q93 102 114 130q38 51 87 149
q5 11 16 11q7 0 67 -43l3 -2q52 -37 122 -52l129 -14l158 -3q61 -1 410 17q43 2 37 2h31q106 0 107 -67l-1 -6q1 -2 8.5 -11.5t7.5 -15.5q0 -8 -8 -16zM1351 1132q-12 16 -8 32q-5 24 -87 26q-17 -1 -46 -3q-350 -18 -412 -17l-160 3l-134 14q-83 14 -140 61q-13 8 -36 25
q-58 -114 -182 -249l14 -11q212 57 365 57h577q17 0 21 -11q5 -12 -7 -23l-1042 -1007l27 -9q678 -11 799 -11q200 0 233 7q35 50 116 101q114 73 130 86q2 -6 -1 -9v12q-87 -35 -187 -42l-204 -6q-261 -11 -396 -11q-217 0 -237 15t-3 32z" />
    <glyph glyph-name="bracketleft" unicode="[" horiz-adv-x="606" 
d="M254 -86h-218q-20 0 -20 20l7 1353q12 46 61 80q46 31 96 34h2h375q23 0 23 -19q0 -13 -16 -20l-304 -121q-5 -2 -21 1v-1176h332q23 0 23 -19q0 -14 -16 -20zM251 -46l203 72h-235q-20 0 -20 20v1219q0 23 52 16l202 80h-270q-102 -14 -121 -82l-6 -1325h195z" />
    <glyph glyph-name="backslash" unicode="\" horiz-adv-x="972" 
d="M761 -65q-20 0 -20 20q0 65 -231 595q-197 452 -281 622q-66 103 -107 138q-41 21 -81 42q-23 12 -23 30q0 12 12 57q3 15 19 15h207q13 0 18 -12l555 -1271q53 -121 123 -203q11 -12 6 -23q-5 -10 -21 -10h-176zM779 -25h115q-50 61 -101 180l-550 1259h-178l-6 -22
l87 -51q39 -27 117 -149q88 -176 407 -918q96 -224 109 -299z" />
    <glyph glyph-name="bracketright" unicode="]" horiz-adv-x="608" 
d="M532 -51q-76 -41 -104 -43h-3h-375q-23 0 -23 19q0 13 16 20l304 121q5 2 23 -1v1175h-334q-23 0 -23 19q0 14 16 20l324 113h220q20 0 20 -20v-1294q0 -96 -61 -129zM514 -15q39 21 39 93v1274h-197l-203 -72h237q20 0 20 -20v-1218q0 -23 -54 -16l-202 -80h270
q26 4 90 39z" />
    <glyph glyph-name="asciicircum" unicode="^" horiz-adv-x="654" 
d="M417 1110q-23 0 -23 17q0 10 10 19l27 22l4 2q2 1 3 3l3 4q-22 29 -89 111q-63 -67 -65 -93l1 -6l5 -31l2 -11q7 -42 -14 -42q-9 0 -26 5h-219q-23 0 -23 17q0 11 11 19q57 43 161 142q28 33 68 76q29 32 76 92q15 20 31 1q97 -100 275 -315q23 -32 -16 -32h-202z
M254 1150l-1 2q-1 10 -4 32q-1 6 -2 9q0 27 40.5 85.5t67.5 58.5q8 0 13 -6q98 -119 114 -141q3 -4 3 -10q0 -26 -30 -45l-25 -21l-13 36h163q-18 23 -234 263q-30 -37 -65 -77q-20 -19 -66 -76q-74 -69 -122 -110h161z" />
    <glyph glyph-name="underscore" unicode="_" horiz-adv-x="1395" 
d="M1089 -140h-1053q-23 0 -23 19q0 15 17 20l277 88h1053q23 0 23 -19q0 -15 -17 -20zM1086 -100l146 47h-922l-146 -47h922z" />
    <glyph glyph-name="grave" unicode="`" horiz-adv-x="463" 
d="M252 1099q-28 0 -12 43q0 12 -11 29q-82 127 -203 193q-10 6 -10 27q0 63 33 63h207q13 0 18 -12q55 -128 72 -162q44 -86 97 -148q11 -12 6 -23q-5 -10 -21 -10h-176zM252 1139h134q-58 77 -143 275h-178l-6 -22q121 -71 204 -199q18 -28 18 -50q0 -8 -11 -32z" />
    <glyph glyph-name="a" unicode="a" horiz-adv-x="757" 
d="M688 104l6 -9l3 -5q20 -56 71 -70q18 -4 18 -20q0 -19 -23 -19h-204q-47 0 -69 59q-104 -68 -193 -68q-119 0 -195 55q-86 63 -86 178q0 151 97 220q49 34 201 75q130 35 170 90q-72 36 -163 36q-87 0 -224 -36q-4 -1 -8 -1q-20 0 -20 17q0 9 9 18q129 119 328 119
q115 0 201 -35l3 -1q78 -32 78 -126v-477zM559 21h133q-20 21 -32 52q-12 17 -12 28v480q0 63 -55 89q-97 33 -187 33q-127 0 -222 -52q78 15 137 15q39 0 113 -16q98 -22 98 -52q0 -5 -2 -10q-33 -61 -104 -92q-123 -40 -246 -79q-124 -56 -124 -212q0 -98 75 -149
q64 -44 166 -44q89 0 202 84q8 6 16 6q17 0 17 -18q0 8 -7 -24q1 -11 12.5 -25t21.5 -14zM492 460q-37 -28 -81 -44q-121 -42 -134 -51q-48 -32 -48 -114q0 -115 111 -115q71 0 152 63v261zM532 505v-316q0 -32 -81 -65q-71 -28 -111 -28q-151 0 -151 155q0 93 55 138
q27 21 124 56q88 31 130 74q11 12 23 7q11 -4 11 -21z" />
    <glyph glyph-name="b" unicode="b" horiz-adv-x="983" 
d="M172 968l-4 1q-6 3 -78 18q-58 12 -69 26q-6 7 -6 13q0 22 138 75l2 1q31 12 64.5 50.5t57.5 48.5q67 29 74 29q17 0 17 -20v-524q76 39 186 39q183 0 295 -98q119 -104 119 -285q0 -176 -121 -283q-115 -102 -293 -102q-41 0 -152 11q-36 4 -90 62q-45 -53 -74 -57
q-51 1 -101 1q-21 -1 -21 30q0 37 15 57l2 3q39 55 39 76v828zM75 1031q39 -7 79 -15q58 -15 58 -40v-836q0 -43 -47 -100q-3 -7 -6 -25l91 5q50 58 64 58q8 0 14 -7q54 -61 78 -63q109 -11 148 -11q161 0 265 91q109 95 109 254q0 164 -107 256q-101 87 -267 87
q-121 0 -195 -51q-31 -21 -31 17v529l-31 -14q-76 -83 -129 -102q-29 -13 -93 -33zM706 520q-56 85 -152 85q-42 0 -111 -44q-75 -46 -75 -84v-301q0 -24 58 -59q70 -41 128 -41q98 0 154 88q47 75 47 178q0 104 -49 178zM795 342q0 -120 -59 -206q-67 -100 -182 -100
q-59 0 -137 40q-89 46 -89 100v301q0 56 86 114q81 54 140 54q115 0 182 -97q59 -86 59 -206z" />
    <glyph glyph-name="c" unicode="c" horiz-adv-x="753" 
d="M421 -38q-191 0 -298 111t-107 302q0 159 129 260q119 92 282 92q74 0 175 -41q120 -49 120 -111q0 -27 -69 -74q-51 -35 -89 -52q-8 -4 -14 -4q-13 0 -13 18q0 9 4.5 28.5t4.5 22.5q0 44 -45 72q-39 23 -86 23q-93 0 -144 -87q-42 -71 -42 -170q0 -108 66 -181
q68 -76 175 -76q57 0 128 40q66 36 104 84q8 9 19 9q18 0 18 -19q0 -5 -2 -10q-88 -237 -316 -237zM682 577q-4 39 -111 77q-92 33 -144 33q-146 0 -253 -81q-118 -89 -118 -231q0 -175 95.5 -274t269.5 -99q151 0 231 118q-98 -65 -182 -65q-124 0 -204 88q-77 85 -77 209
q0 116 53 199q62 98 173 98q64 0 114 -34q57 -39 57 -101v-8q78 48 96 71z" />
    <glyph glyph-name="d" unicode="d" horiz-adv-x="944" 
d="M883 -32q-8 -7 -66 -7q-29 0 -39 2l-2 1q-16 3 -41 16q-36 11 -67 35q-107 -58 -237 -58q-415 0 -415 362q0 185 114.5 295.5t300.5 110.5q105 0 187 -39v261q0 50 -18 75q-34 20 -197 20q-23 0 -23 19q0 16 18 20q215 55 265 93q77 59 105 59q9 0 14 -6q32 -37 32 -63
v-947q0 -69 22.5 -107.5t83.5 -76.5q10 -6 10 -15q0 -11 -47 -50zM862 3l14 11q-102 73 -102 203v947q0 8 -13 26q-28 -13 -74 -48q-38 -29 -154 -65q73 -6 96 -28q29 -26 29 -102v-294q0 -35 -30 -17q-83 49 -197 49q-169 0 -272 -98.5t-103 -267.5q0 -322 375 -322
q127 0 229 59q3 2 7 2q10 0 36 -16q29 -19 44 -24l4 -1q19 -10 34 -14q12 -2 32 -2q19 0 45 2zM618 478q0 40 -74 86q-69 42 -113 42q-88 0 -149 -104q-53 -89 -53 -183q0 -101 49 -168q55 -75 153 -75q39 0 109 32q78 35 78 68v302zM658 478v-302q0 -54 -90 -100
q-78 -40 -137 -40q-115 0 -182 87q-60 78 -60 196q0 112 63 212q73 115 179 115q62 0 141 -52q86 -57 86 -116z" />
    <glyph glyph-name="e" unicode="e" horiz-adv-x="808" 
d="M214 353l-31 6q8 39 22 39q24 0 24 -36q0 -110 62 -186q66 -81 174 -81q89 0 170 54q77 51 120 132q7 13 19 13q19 0 19 -20q0 -4 -1 -9q-108 -303 -385 -303q-161 0 -276 110.5t-115 271.5q0 175 104 279t279 104q133 0 215 -69q72 -61 120 -193q8 -23 -15 -27zM190 339
q-10 8 -6 27q4 18 17 21l487 86q-44 110 -106 159q-69 55 -183 55q-158 0 -250.5 -92.5t-92.5 -250.5q0 -144 103.5 -243t247.5 -99q169 0 268 127q-99 -74 -210 -74q-118 0 -195 84q-74 80 -80 200zM391 610q-81 0 -124 -68l-28 -65l276 55q-32 78 -124 78zM490 620
q57 -37 71 -99q4 -20 -16 -24l-336 -67q-15 -3 -22 6q-6 8 0 22q13 34 44 101l1 3q47 89 155 89q57 0 103 -31z" />
    <glyph glyph-name="f" unicode="f" horiz-adv-x="666" 
d="M179 747v117q11 113 50 159l2 2l62 62q103 86 226 86q89 0 163 -66q65 -58 65 -104q0 -19 -16 -23l-22 -6l-5 -1q-8 0 -127 -71q-7 -5 -14 -5q-18 0 -18 18q0 7 5 14l40 67q-19 42 -114 42q-48 0 -78 -66q-23 -52 -23 -105v-137l277 -2q20 0 20 -21q0 -28 -27 -70
t-44 -42l-226 2v-594q0 -10 -8 -16l-156 -121q-12 -9 -22 -4t-10 20v716q-33 -1 -77 -3q-39 -3 -50 -3q-35 0 -35 18q0 12 31 84q10 7 22 44q2 47 14 70q18 35 36 0q23 -45 59 -61zM626 978q26 17 75 35h1q-15 49 -74 86q-56 34 -109 34q-108 0 -199 -76l-60 -59
q-33 -46 -41 -136v-149q0 -20 -16 -20t-39 17q-30 13 -53 40q-3 -30 -6 -41q-6 -21 -23 -35l-16 -38l86 6q67 1 67 -24v-695l116 90v604q0 20 20 20l234 -2l29 53l-263 2q-20 0 -20 20v157q0 72 34 135q40 76 107 76q133 0 155 -79q3 -8 -5 -21z" />
    <glyph glyph-name="g" unicode="g" horiz-adv-x="961" 
d="M847 648q-11 -15 -21 -55q-11 -73 -11 -262q0 -344 -33 -454q-91 -305 -396 -305q-119 0 -233 79l-3 2q-109 112 -109 121q0 4 43 29q54 33 95 101q8 13 19 13q18 0 18 -22.5t52 -89.5q48 -64 73 -80q44 -30 85 -30q105 0 156 133q36 93 38 220q-139 -92 -296 -92
q-139 0 -224 93q-84 90 -84 229q0 181 149 308q141 120 326 124l435 10q23 1 23 -19q0 -14 -16 -20q-79 -29 -86 -33zM827 682q10 6 92 37l7 -39l-435 -10q-168 -4 -297 -112q-138 -115 -138 -280q0 -123 72 -201q74 -81 196 -81q161 0 304 107q31 23 32 -16
q3 -155 -40 -271q-60 -161 -194 -161q-96 0 -192 128q-30 40 -44 66q-44 -61 -92 -86l79 -81q103 -70 209 -70q269 0 349 254q40 126 40 465q0 193 11 270q8 29 14 44q12 29 27 37zM637 576h-85q-139 0 -232 -79q-99 -86 -91 -223q4 -72 49 -126q48 -58 118 -58q82 0 153 68
q63 59 91 143q31 92 31 187q0 63 -14 80q-7 2 -20 8zM701 569q10 -32 10 -81q0 -102 -33 -199t-106 -164q-81 -75 -176 -75q-86 0 -146 69q-56 65 -61 153q-9 155 102 252q104 92 261 92h99l17 -31q0 13 -12 21q-4 3 -4 5q0 8 25 -8q16 -9 24 -34z" />
    <glyph glyph-name="h" unicode="h" horiz-adv-x="870" 
d="M313 683q125 52 234 52q308 0 308 -409q0 -91 -46 -330q-4 -16 -20 -16h-159q-25 0 -19 24q48 211 48 322q0 110 -36 181q-48 93 -148 93q-44 0 -97 -21q-65 -27 -65 -64v-413q2 -10 28 -53q24 -39 24 -54t-20 -15h-265q-21 0 -21 13q0 14 29 55.5t29 53.5v770
q0 46 -79 88q-22 22 -22 64q0 21 17 24q64 10 288 147q8 5 14 5q17 0 16 -45q-2 -29 -5 -57l-1 -5q-32 -101 -32 -156v-254zM59 994q98 -56 98 -122v-770q0 -27 -38 -82h191q-37 62 -37 82v413q0 57 76 94q63 31 126 31q119 0 177 -104q47 -83 47 -210q0 -109 -44 -306h118
q42 219 42 306q0 369 -268 369q-111 0 -242 -59q-5 -2 -8 -2h-4q-20 0 -20 20v283q0 60 33 166l3 38q-117 -72 -122 -75q-75 -41 -130 -54z" />
    <glyph glyph-name="i" unicode="i" horiz-adv-x="433" 
d="M226 795q-120 0 -126 95v3q-6 94 121 99q117 5 125 -94v-3q6 -87 -120 -100zM224 835q81 8 82 59q-10 61 -83 58q-82 -3 -83 -58q8 -59 84 -59zM114 -20q-23 0 -23 12q0 14 54 66q14 19 14 42v430q0 49 -30 64q-27 9 -41.5 17t-42.5 36q-31 31 -31 48q0 13 22 13h299
q20 0 20 -20v-588q0 -20 4 -29l1 -3q17 -17 33 -34q27 -29 27 -42q0 -12 -22 -12h-284zM163 20h186l-7 8q-15 16 -20 28q-7 19 -7 44v568h-234q17 -17 25 -21l3 -1q10 -7 34 -14l3 -1q53 -27 53 -101v-430q0 -38 -24 -68z" />
    <glyph glyph-name="j" unicode="j" horiz-adv-x="415" 
d="M227 795q-120 0 -126 95v3q-6 94 121 99q117 5 125 -94v-3q6 -87 -120 -100zM225 835q81 8 82 59q-10 61 -83 58q-82 -3 -83 -58q8 -59 84 -59zM-64 -453q-24 -1 -24 19q0 13 15 19q233 98 233 421v519q0 52 -30 68q-27 9 -41.5 17t-42.5 36q-31 32 -31 49q0 13 22 13
h299q20 0 20 -20v-682q0 -194 -113.5 -322t-306.5 -137zM213 -289q103 117 103 295v662h-235q18 -18 26 -22l3 -1q2 -2 34 -15l3 -1q53 -22 53 -104v-519q0 -278 -163 -403q105 28 176 108z" />
    <glyph glyph-name="k" unicode="k" horiz-adv-x="842" 
d="M313 532q59 0 149 26q96 28 96 105q0 -1 -2 23q-2 15 1.5 25t17.5 10l227 4q20 0 20 -14q0 -10 -70 -135l-3 -4q-54 -53 -126 -89q203 -107 204 -483q0 -20 -20 -20h-156q-20 0 -20 20q0 411 -279 411q-73 0 -58 -3q18 -27 19 -306q1 -15 36 -56.5t35 -53.5t-23 -12h-290
q-22 0 -22 12t34 54t34 56v790q0 46 -79 88q-22 22 -22 64q0 21 17 24q64 10 288 147q8 5 14 5q17 0 16 -45q-2 -29 -5 -57l-1 -5q-32 -101 -32 -156v-425zM59 1014q98 -56 98 -122v-790q0 -33 -41 -82h198q-41 48 -41 82v327q0 29 29 18q21 4 50 4q169 0 251 -140
q64 -111 68 -291h116q-7 368 -220 444q-16 6 -16 19q0 12 16 19q89 36 152 96l48 86l-170 -3q1 -9 1 -18q0 -107 -124 -143q-55 -9 -166 -28q0 6 5 9h-40v456q0 60 33 166l3 38q-117 -72 -122 -75q-75 -41 -130 -54z" />
    <glyph glyph-name="l" unicode="l" horiz-adv-x="459" 
d="M124 -21q-15 0 -20 10t4 22q38 50 48 81l6 79v797q0 54 -53 54q-3 0 -29.5 -4.5t-40.5 -4.5q-26 0 -26 13q0 6 6 16q48 76 152 117q53 20 190 49q24 5 24 -20v-1018q0 -66 6 -86q9 -26 48 -72q11 -12 6 -23q-5 -10 -21 -10h-300zM163 19h219q-37 50 -37 151v993
q-100 -21 -137 -34q-78 -25 -122 -69q13 2 23 2q93 0 93 -94l-7 -886q-8 -27 -32 -63z" />
    <glyph glyph-name="m" unicode="m" horiz-adv-x="1247" 
d="M1202 235l-1 -2l-59 -97l-2 -10q5 -16 34 -44t31 -35q18 -58 18 -60q0 -22 -20 -22h-269q-20 0 -20 24q0 -1 14 72l3 7q88 130 88 305q0 71 -28 129q-35 73 -99 73q-82 0 -140 -56q28 -75 28 -146q0 -73 -74 -234l-2 -12q5 -17 33.5 -44.5t31.5 -35.5q20 -58 20 -61
q0 -21 -20 -21h-267q-22 0 -23 43q-1 38 8 57q80 146 80 310q0 82 -33 135q-40 65 -117 65q-72 0 -129 -60q-7 -8 -8 -12v-378q0 -22 13 -39l54 -36q19 -13 19 -54q0 -31 -21 -31h-309q-23 0 -23 12q0 14 55 67q16 18 16 41v489q0 14 -34.5 55.5t-34.5 53.5t22 12h223
q20 0 20 -20v-20q100 53 203 53q120 0 188 -69l2 -2l18 -21q101 92 253 92q140 0 218 -101q70 -91 70 -234q0 -82 -30 -138zM1166 252q26 58 26 121q0 126 -59 206q-66 89 -189 89q-148 0 -241 -95q-6 -6 -13 -6q-10 0 -46 43q-68 58 -161 58q-107 0 -212 -65
q-31 -19 -31 17v35h-156q40 -47 40 -81v-489q0 -43 -27 -69l-11 -11h235l-3 16l-50 33l-5 5q-23 29 -23 66v378q0 40 72 79q64 33 105 33q95 0 146 -76q44 -66 44 -164q0 -172 -82 -325l-2 -45h218l-8 25q-68 64 -69 96v4l3 18l2 5q71 155 71 220q0 69 -30 144q-4 11 4 21
q72 77 178 77q83 0 129 -84q38 -69 38 -158q0 -185 -92 -324l-9 -44h218l-8 25q-67 64 -68 96v5l3 16l3 6z" />
    <glyph glyph-name="n" unicode="n" horiz-adv-x="834" 
d="M532 -33q-22 0 -23 43q-1 38 8 57q80 146 80 310q0 200 -180 200q-72 0 -129 -60q-7 -8 -8 -12v-378q0 -22 13 -39l54 -36q19 -13 19 -54q0 -31 -21 -31h-309q-23 0 -23 12q0 14 55 67q16 18 16 41v489q0 14 -34.5 55.5t-34.5 53.5t22 12h223q20 0 20 -20v-21
q104 54 233 54q165 0 269 -171l2 -3q26 -70 26 -161q0 -73 -74 -234l-2 -12q5 -17 33.5 -44.5t31.5 -35.5q20 -58 20 -61q0 -21 -20 -21h-267zM553 7h218l-8 25q-68 64 -69 96v4l3 18l2 5q71 155 71 220q0 82 -23 145q-92 150 -234 150q-137 0 -242 -65q-31 -19 -31 17v35
h-156q40 -47 40 -81v-489q0 -43 -27 -69l-11 -11h235l-3 16l-50 33l-5 5q-23 29 -23 66v378q0 40 72 79q64 33 105 33q220 0 220 -240q0 -172 -82 -325z" />
    <glyph glyph-name="o" unicode="o" horiz-adv-x="815" 
d="M405 -38q-179 0 -291 100q-118 105 -118 282q0 181 116 284q110 99 293 99q178 0 291 -101q119 -106 119 -282q0 -178 -117 -282q-113 -100 -293 -100zM670 91q105 93 105 253q0 159 -107 253q-102 90 -263 90q-166 0 -265 -87q-104 -91 -104 -256q0 -160 106 -253
q101 -89 263 -89q164 0 265 89zM555 526q-52 83 -150 83q-101 0 -153 -87q-43 -71 -43 -178q0 -104 44 -177q53 -87 152 -87q100 0 153 86q44 73 44 178q0 108 -47 182zM642 344q0 -122 -55 -206q-64 -98 -182 -98q-117 0 -181 98q-55 85 -55 206q0 124 54 207q63 98 182 98
q118 0 182 -98q55 -83 55 -207z" />
    <glyph glyph-name="p" unicode="p" horiz-adv-x="944" 
d="M514 -47q-107 0 -187 38v-310q0 -63 -90 -109q-76 -38 -139 -38q-35 0 -56 9l-6 4q-8 8 -8 18q0 25 48 73q51 52 55 67v756q0 71 -22 108t-84 76q-9 6 -9 15q0 16 22 35t36 20q31 2 54 2q29 0 39 -2l3 -1q13 -3 40 -16q35 -11 67 -35q107 58 237 58q186 0 295 -85
q120 -95 120 -277q0 -185 -115 -295.5t-300 -110.5zM74 -425q10 -1 24 -1q123 0 189 112v339q0 36 30 17q81 -49 197 -49q169 0 272 99t103 267q0 322 -375 322q-127 0 -229 -59q-3 -2 -7 -2q-10 0 -36 16q-30 20 -45 24l-3 1q-19 10 -33 13t-33 3t-45 -2l-14 -11
q102 -72 102 -203v-757q0 -22 -39 -65q-28 -30 -55 -60zM664 528q-56 74 -150 74q-40 0 -110 -32q-77 -35 -77 -68v-302q0 -40 74 -86q69 -42 113 -42q88 0 149 104q53 89 53 183q0 101 -52 169zM756 359q0 -112 -63 -212q-73 -115 -179 -115q-62 0 -141 52q-86 57 -86 116
v302q0 54 90 100q78 40 137 40q113 0 180 -87q62 -80 62 -196z" />
    <glyph glyph-name="q" unicode="q" horiz-adv-x="883" 
d="M855 620l-4 -6q-39 -47 -39 -76v-706q0 -19 15.5 -40.5t15.5 -28.5v-38q0 -10 -8 -16q-131 -101 -145 -110q-94 -62 -168 -62q-23 0 -23 18q0 11 12 19q88 58 105 136v282q-78 -39 -186 -39q-183 0 -295 98q-119 104 -119 285q0 178 120 284q114 101 294 101
q50 0 150.5 -11.5t150.5 -11.5h28l39 4q33 4 49 1q24 -5 21 -22q-9 -49 -13 -61zM818 637q2 7 6 25l-63 -4h-30q-51 0 -151 11.5t-150 11.5q-163 0 -266 -90q-108 -94 -108 -255q0 -164 107 -256q101 -87 267 -87q119 0 195 51q31 20 31 -17v-323q-13 -61 -60 -111
q47 18 207 142v21q-31 37 -31 76v706q0 42 46 99zM616 502q0 25 -58 59q-70 41 -128 41q-98 0 -154 -88q-47 -75 -47 -178t47 -177q56 -86 154 -86q42 0 111 44q75 46 75 84v301zM656 502v-301q0 -56 -86 -114q-81 -54 -140 -54q-116 0 -183 98q-58 85 -58 205t58 206
q68 100 183 100q59 0 137 -40q89 -46 89 -100z" />
    <glyph glyph-name="r" unicode="r" horiz-adv-x="711" 
d="M438 302q-28 -7 -28 16q0 10 10 19q126 101 126 163q0 20 -9 39q-32 40 -45 46q-32 19 -77 19q-113 0 -113 -25v-465l6 -41q17 -18 35 -36q29 -31 29 -45q0 -12 -22 -12h-292q-23 0 -23 12q0 14 50 62q14 14 17 35l4 451q0 51 -44.5 72.5t-44.5 32.5q0 10 10 25q5 7 5 16
q0 19 35 24q19 1 39 2q70 7 133 -28l6 -5q91 58 213 58q99 0 174 -42q93 -51 93 -143q0 -180 -287 -250zM66 657q81 -36 80 -117l-4 -456q-3 -33 -35 -64h193q-26 27 -30.5 38t-7.5 52v3v466q0 65 153 65q53 0 95 -23q23 -13 60 -59l2 -3q14 -30 14 -59q0 -67 -68 -132
q167 64 167 184q0 73 -82 113q-64 32 -145 32q-118 0 -202 -58q-11 -8 -39 11q-50 28 -147 18q-2 -6 -4 -11z" />
    <glyph glyph-name="s" unicode="s" horiz-adv-x="705" 
d="M356 -34q-146 0 -235 59q-105 70 -105 210q0 16 26 23q20 5 40 9l2 1q29 10 96 34q7 2 12 2q14 0 14 -18q0 -9 -3.5 -26t-3.5 -21q0 -61 48.5 -108t108.5 -47q138 0 138 98q0 52 -115 88q-35 5 -184 54l-3 1q-120 46 -120 179q0 111 102 172q85 51 202 51q258 0 292 -208
q3 -18 -16 -23q-78 -17 -126 -51q-10 -7 -16 -7q-12 0 -19 44q-9 57 -26 83q-30 44 -97 44q-100 0 -100 -113q0 -38 109 -70q162 -46 204 -68q109 -57 109 -157q0 -113 -116 -179q-96 -56 -218 -56zM552 55q98 56 98 146q0 85 -109 132q-102 32 -204 63q-109 38 -109 100
q0 153 140 153q141 0 163 -154q40 22 94 36q-37 156 -249 156q-100 0 -173 -40q-91 -50 -91 -143q0 -95 96 -142l183 -54q143 -45 143 -126q0 -68 -58 -106q-49 -32 -120 -32q-76 0 -136.5 59t-60.5 136q0 6 1 13q-22 -8 -63 -22q-21 -7 -41 -11q12 -213 300 -213
q109 0 196 49z" />
    <glyph glyph-name="t" unicode="t" horiz-adv-x="653" 
d="M197 332q-15 14 -15 260h-146q-20 0 -20 21q0 20 16 51q13 28 23.5 36t10.5 23q0 6 -1 18.5t-1 18.5q0 16 9 38t20 22q9 0 17 -15q27 -51 72 -67l1 157q0 48 -30 64q-27 9 -41.5 17t-42.5 36q-31 31 -31 48q0 13 22 13h299q20 0 20 -20v-328h273q20 0 20 -21
q0 -28 -27 -70t-44 -42h-222v-297q0 -114 35 -150q48 -52 57 -57q51 -34 188 -69q18 -4 18 -20q0 -18 -22 -19q-45 -3 -86 -3q-199 0 -287 65q-102 76 -102 270q0 17 17 20zM105 743q1 -13 1 -20q0 -32 -24 -52l-16 -39h136q21 0 20 -20q-1 -88 -3 -153q-6 -155 -19 -167
l20 20q0 -176 91 -241q75 -54 258 -54q39 0 84 3l-4 -39q-143 36 -200 73q-13 8 -65 63q-45 48 -45 178v317q0 20 20 20h230l29 53h-259q-20 0 -20 20v328h-234q17 -17 25 -21l3 -1q10 -7 34 -14l3 -1q53 -27 53 -101q0 8 4 -67q4 -60 -1 -93q-6 -46 -27 -43q-56 9 -94 51z
" />
    <glyph glyph-name="u" unicode="u" horiz-adv-x="797" 
d="M540 164q35 74 35 141q0 160 -98 305l-3 7q-14 73 -14 72q0 24 20 24h269q20 0 20 -25q0 -44 -23 -66q-54 -50 -60 -70l2 -10l60 -99q30 -56 30 -138q0 -326 -355 -341q-290 -12 -362 187q-26 73 -26 145q0 73 74 234l2 11q-6 17 -33 41t-32 40q-20 58 -20 61q0 21 20 21
h267q22 0 23 -43q1 -38 -8 -57q-80 -146 -80 -310q0 -131 33 -160l3 -2q34 -44 156 -48q56 22 78 49q6 12 22 31zM555 118l-5 -7q-28 -43 -97 -65h-2l-4 -1l-6 -1q-140 4 -188 61q-45 42 -45 189q0 172 82 325l2 45h-218l8 -25q64 -63 69 -94v-6l-3 -18l-2 -5
q-71 -155 -71 -220q0 -64 23 -128q26 -75 71 -107q82 -58 233 -58q173 0 256 74q80 72 80 228q0 63 -26 121l-60 99l-3 6l-3 16v5q1 32 68 96l8 25h-218l9 -44q102 -154 102 -324q0 -35 -17 -100q-20 -79 -43 -87z" />
    <glyph glyph-name="v" unicode="v" horiz-adv-x="868" 
d="M669 307l-197 -364q-8 -13 -19 -13q-11 1 -17 15q-39 86 -103 212q-28 44 -100 193q-58 121 -213 326q-9 12 -4 22t20 10h282h3q12 9 23 5q11 -5 10 -21l-1 -13q-15 -238 -29 -238q-11 0 -11 240q0 21 20 21t20 -21q0 -22 -5.5 -65t-5.5 -65q0 -95 123 -315
q143 301 165 355q0 15 -23 53.5t-23 50.5q0 13 20 13h229q30 0 18 -28q-62 -149 -182 -373zM642 668q28 -44 28 -77q0 -18 -185 -407q-16 -34 -35 -1q-148 255 -148 368q0 22 5.5 65t5.5 65v0h15q7 -10 12 -8q-10 -5 -22 -5h-242q133 -176 193 -300q72 -149 98 -191
q54 -104 89 -179q90 165 180 331q104 194 167 339h-161z" />
    <glyph glyph-name="w" unicode="w" horiz-adv-x="1226" 
d="M973 164q35 74 35 141q0 160 -98 305l-3 7q-14 73 -14 72q0 24 20 24h269q20 0 20 -25q0 -44 -23 -66q-54 -50 -60 -70l2 -10l60 -99q30 -56 30 -138q0 -327 -355 -341q-170 -6 -277 64l-4 4l-18 21q-102 -92 -253 -92q-142 0 -219 100q-69 90 -69 235q0 82 30 138l1 2
l59 97l2 8q-6 17 -33 41t-32 40q-18 58 -18 60q0 22 20 22h269q20 0 20 -24q0 1 -14 -72l-3 -7q-88 -130 -88 -305q0 -71 28 -129q35 -73 99 -73q81 0 140 56q-28 75 -28 146q0 73 74 234l2 11q-6 17 -33 41t-32 40q-20 58 -20 61q0 21 20 21h267q22 0 23 -43q1 -38 -8 -57
q-80 -146 -80 -310q0 -131 33 -160l3 -2q34 -44 156 -48q56 22 78 49q6 12 22 31zM988 118l-5 -7q-28 -43 -97 -65h-2l-4 -1l-6 -1q-140 4 -188 61q-45 42 -45 189q0 172 82 325l2 45h-218l8 -25q64 -63 69 -94v-6l-3 -18l-2 -5q-71 -155 -71 -220q0 -69 30 -144
q4 -11 -4 -21q-73 -77 -178 -77q-83 0 -129 84q-38 69 -38 158q0 185 92 324l9 44h-218l8 -25q63 -63 68 -94v-7l-3 -16l-3 -6l-60 -99q-26 -58 -26 -121q0 -128 58 -207q65 -88 190 -88q147 0 241 95q6 6 13 6q10 0 45 -42q96 -62 251 -56q317 12 317 301q0 63 -26 121
l-60 99l-3 6l-3 16v5q1 32 68 96l8 25h-218l9 -44q102 -154 102 -324q0 -35 -17 -100q-20 -79 -43 -87z" />
    <glyph glyph-name="x" unicode="x" horiz-adv-x="942" 
d="M854 -10q-43 -35 -107 -35q-159 0 -320 252q-23 -46 -95 -114q-123 -113 -276 -113h-121q-23 0 -23 20q0 15 18 19q113 27 216 123q36 34 167 188q8 18 17 37q-119 199 -185 199q-16 0 -58 -22.5t-54 -22.5q-15 0 -15 20q0 77 54 123q51 44 129 44q154 0 253 -147
q118 147 291 147q36 0 105 -20q83 -24 83 -50q0 -6 -4 -12l-71 -92q-95 -63 -103 -63q-11 0 -17 10q-20 38 -22 40q-13 17 -39 21q-41 -2 -85 -50l-56 -77l104 -204q77 -138 116 -138l7 -1q8 -3 25 -3q71 0 134 59q8 7 17 7q18 0 18 -19q0 -7 -4 -14q-53 -83 -99 -112z
M831 23q7 5 21 16q-31 -10 -64 -10q-22 0 -35 4q-65 3 -137 141l-122 234q-6 11 2 21l66 89q61 67 116 64h3q49 -3 82 -63l70 47l49 65q-80 37 -137 37q-166 0 -277 -154q-18 -24 -33 2q-90 152 -234 152q-115 0 -139 -90q54 28 83 28q56 0 144 -100q83 -96 83 -139
q0 -5 -1 -8q-12 -24 -23 -48l-3 -5q-118 -139 -136 -158q-83 -87 -163 -128h10q138 0 248 103q64 59 103 134q17 32 35 1q159 -263 305 -263q46 0 82 26z" />
    <glyph glyph-name="y" unicode="y" horiz-adv-x="874" 
d="M803 629q-16 -19 -16 -43v-497q0 -109 -13 -169q-18 -79 -70 -157q-125 -185 -367 -185q-228 0 -315 160q-6 13 3 23l124 145q8 10 16 10q13 0 28 -54l1 -5q0 -71 50 -115t122 -44q83 0 152 70t71 153q0 21 1 85q-111 -58 -212 -58q-165 0 -261 88q-101 91 -101 254
q0 95 91 257q-7 20 -36.5 47t-31.5 36q-12 55 -12 53q0 25 20 25h267q20 0 20 -24q0 1 -14 -74l-3 -7q-88 -133 -88 -313q0 -206 182 -206q71 0 133 31q47 23 47 43v387q0 23 -13 40l-54 37q-19 13 -19 55q0 31 21 31h313q23 0 23 -12q0 -14 -59 -67zM154 -149l-90 -105
q80 -128 273 -128q127 0 211 51q75 46 149 156q50 74 50 264v497q0 39 28 71l12 11h-237l3 -17l50 -34l5 -5q23 -29 23 -67v-387q0 -54 -88 -88q-69 -26 -132 -26q-107 0 -167 71q-55 66 -55 175q0 190 92 332l9 46h-218l5 -23q70 -63 70 -97q0 -17 -21 -52q-30 -50 -44 -81
q-26 -62 -26 -125q0 -146 89 -226q85 -76 233 -76q105 0 223 69q12 7 21 2t9 -19q-3 -150 -14 -188q-23 -86 -116 -148q-69 -46 -135 -46q-87 0 -147 52q-63 55 -65 141z" />
    <glyph glyph-name="z" unicode="z" horiz-adv-x="925" 
d="M782 -9q-11 -6 -54 -10l-13 -1h-600q-17 0 -48 22q-35 24 -35 43q0 7 6 13l524 491h-219q-101 0 -182 -29l-4 -1q-24 -8 -114 -41q-6 -2 -11 -2q-18 0 -18 18q0 9 8 17q58 57 115 113q57 60 83 127q5 13 17 13q8 0 72 -42q54 -27 155 -27q76 0 218 14q52 5 77 5
q95 0 97 -57q0 -9 -16 -31l-4 -6q-82 -112 -241 -248q-133 -113 -265 -226h372q100 0 173 89q8 10 18 10q21 0 17 -26q-29 -175 -128 -228zM764 27q62 33 92 133q-69 -54 -154 -54h-423q-17 0 -22 11q-4 12 8 24l550 519q-8 14 -56 14q-29 0 -75 -5q-61 -6 -76 -7
q-112 -7 -144 -7q-112 0 -175 33l-41 26q-22 -49 -58 -89q-39 -40 -78 -79q15 5 35 12q89 31 196 31h270q17 0 22 -11q4 -12 -8 -24l-543 -509l37 -25h592q17 1 51 7z" />
    <glyph glyph-name="braceleft" unicode="{" horiz-adv-x="518" 
d="M282 665q94 -89 94 -184v-369q0 -35 34 -83q36 -51 70 -51q20 0 20 -20v-48q0 -20 -20 -20q-327 0 -327 267v324q0 54 -46 103q-30 23 -61 47t-31 38q0 9 11 15q127 75 127 162v325q0 135 100 205q87 61 227 61q25 0 25 -48q0 -37 -19 -40q-48 -6 -79 -46t-31 -88v-369
q0 -107 -94 -181zM462 1385l-1 12q-268 -9 -268 -226v-325q0 -100 -122 -181l65 -52q57 -54 57 -132v-324q0 -219 267 -227v10q-45 11 -84.5 68t-39.5 104v369q0 83 -83 157l-7 5q-18 11 -18 22q0 4 54 56t54 125v369q0 58 35.5 107t90.5 63z" />
    <glyph glyph-name="bar" unicode="|" horiz-adv-x="227" 
d="M36 -20q-20 0 -20 20v1415q0 20 20 20h156q20 0 20 -20v-1415q0 -20 -20 -20h-156zM56 20h116v1375h-116v-1375z" />
    <glyph glyph-name="braceright" unicode="}" horiz-adv-x="519" 
d="M239 665q-95 76 -95 181v369q0 51 -30.5 89.5t-79.5 44.5q-20 3 -20 40q0 48 25 48q139 0 227 -61q101 -70 101 -205v-325q0 -65 69 -119t69 -61q0 -8 -9 -15l-83 -67q-46 -49 -46 -103v-324q0 -137 -100 -207q-86 -60 -228 -60q-20 0 -20 20v48q0 20 20 20q31 0 69 52
q36 49 36 82v369q0 103 95 184zM387 615l62 50q-122 81 -122 181v325q0 112 -82 171q-71 51 -187 55l-1 -11q57 -14 92 -62.5t35 -108.5v-369q0 -72 54.5 -124.5t54.5 -56.5q0 -11 -18 -21q-91 -72 -91 -163v-369q0 -45 -41 -102.5t-84 -68.5v-11q268 9 268 227v324
q0 78 57 132z" />
    <glyph glyph-name="asciitilde" unicode="~" horiz-adv-x="774" 
d="M633 1375q-57 -35 -117 -35q-22 0 -44 5l-2 1l-68 19l-88 36q-50 19 -91 19q-26 0 -54 -4l-128 -31q-4 -1 -8 -1q-20 0 -20 17q0 9 9 17q76 74 108 96q61 42 126 42q27 0 56 -6l3 -1l68 -20l107 -45q71 -11 113 -9h2q1 0 4 2l26 7q20 6 97 29q5 2 9 2q19 0 19 -17
q0 -9 -7 -18q-75 -79 -120 -105zM607 1435v0q-40 -4 -126 10l-5 2l-108 45l-63 18q-21 4 -40 4q-79 0 -159 -72l56 14q22 4 61 4q71 0 195 -58l61 -17q19 -3 36 -3q75 0 152 70l-54 -16q-3 -1 -6 -1z" />
    <glyph glyph-name="nonbreakingspace" unicode="&#xa0;" horiz-adv-x="1492" 
 />
    <glyph glyph-name="exclamdown" unicode="&#xa1;" horiz-adv-x="395" 
d="M214 865q-57 0 -94 35t-37 91t37 91.5t94 35.5q56 0 93.5 -36t37.5 -91t-37.5 -90.5t-93.5 -35.5zM305 991q0 87 -91 87t-91 -87q0 -86 91 -86t91 86zM312 679v-597q0 -24 16 -231q2 -22 -15 -22q-24 0 -129 76q-98 58 -151 66q-18 3 -18 30q3 20 5 40l20 18
q23 12 49.5 40.5t26.5 48.5v531q0 26 -16 44l-2 2l-10 9l-37 33q-12 12 -8 23q5 12 22 12h295q22 0 22 -12t-35 -54t-35 -57zM116 762l9 -8q31 -28 31 -75v-531q0 -69 -97 -123l-2 -18q58 -15 149 -68q43 -31 79 -53q-13 167 -13 196v597q0 35 41 83h-197z" />
    <glyph glyph-name="cent" unicode="&#xa2;" horiz-adv-x="753" 
d="M600 686q122 -45 122 -111q0 -27 -69 -74q-51 -35 -89 -52q-8 -4 -14 -4q-13 0 -13 18q0 9 4.5 28.5t4.5 22.5q0 13 -4 25l-169 -424q44 -20 97 -20q57 0 128 40q66 36 104 84q8 9 19 9q18 0 18 -19q0 -5 -2 -10q-88 -237 -316 -237q-56 0 -105 10q-9 -28 -17 -56
q-18 -46 -36 -46h-151q-17 0 -21 11q-5 11 7 23q39 41 83 123q-165 111 -165 348q0 162 126 260q115 91 280 92l-3 42q0 1 -2 10l-17 26q-25 44 -25 58q0 12 8 17q41 26 63 26h213q20 0 20 -12q0 -13 -79 -208zM682 577q-3 31 -65.5 56.5t-62.5 41.5q0 3 1 6l74 185h-183
q-6 0 -26 -11l15 -31q10 -11 21 -38q4 -2 7 -79q1 -20 -36 -20q-150 0 -255 -79q-116 -87 -116 -233q0 -228 161 -324q16 -9 8 -26q-36 -70 -70 -115h94q33 83 34 85q9 20 23 20q2 0 38 -6.5t77 -6.5q151 0 231 118q-98 -65 -182 -65q-32 0 -78 11q-64 15 -64 39q0 4 1 7
l189 476q6 15 16 15q17 0 34.5 -29.5t17.5 -59.5v-8q78 48 96 71zM409 609q-90 -3 -139 -89q-41 -71 -41 -168q0 -75 33 -133zM415 649q40 0 40 -21q0 -10 -9 -35l-160 -425q-13 -34 -35 -5q-62 80 -62 189q0 116 53 199q62 98 173 98z" />
    <glyph glyph-name="sterling" unicode="&#xa3;" horiz-adv-x="887" 
d="M179 747v117q11 113 50 159l2 2l62 62q103 86 226 86q89 0 163 -66q65 -58 65 -104q0 -19 -16 -23l-22 -6l-5 -1q-17 -2 -126 -71q-8 -5 -15 -5q-17 0 -17 18q0 7 4 14l40 67q-19 42 -114 42q-48 0 -78 -66q-23 -52 -23 -105v-137l277 -2q20 0 20 -21q0 -28 -27 -70
t-44 -42l-226 2l1 -491l21 -2l52 -2l50 2l48 4q99 17 196 91l6 3q61 19 71 19q14 0 14 -19q0 -7 -8 -69q1 -16 23 -53t22 -49q0 -4 -1 -8q-24 -43 -64 -43h-688q-14 0 -35.5 20t-21.5 37q0 10 10 15l81 45q16 17 27 42v459q-33 -1 -77 -3q-39 -3 -50 -3q-35 0 -35 18
q0 12 31 84q10 7 22 44q2 47 14 70q18 35 36 0q23 -45 59 -61zM626 978q27 17 76 35q-15 49 -74 86q-56 34 -109 34q-108 0 -199 -76l-60 -59q-33 -46 -41 -136v-149q0 -20 -16 -20t-39 17q-30 13 -53 40q-3 -30 -6 -41q-6 -21 -23 -35l-16 -38l86 6q67 1 67 -24l-1 -491
q-15 -35 -40 -60l-4 -3l-59 -33l11 -11h680q13 0 22 13q-44 73 -42 101v3l5 36l-27 -8q-103 -78 -211 -97l-52 -4l-52 -2l-54 2q-59 2 -59 23l-1 530q0 20 20 20l234 -2l29 53l-263 2q-20 0 -20 20v157q0 72 34 135q40 76 107 76q133 0 155 -79q3 -8 -5 -21z" />
    <glyph glyph-name="currency" unicode="&#xa4;" horiz-adv-x="898" 
d="M648 1148l-6 14l-1 3q-12 49 3 56q37 17 53 17h165q17 0 21 -11q5 -11 -7 -23l-170 -171q63 -67 63 -165q0 -107 -73 -176q101 -101 178 -155q11 -8 11 -18q0 -18 -23 -18h-132q-11 3 -14 6l-123 123q-64 -24 -145 -24t-144 24l-122 -123q-4 -4 -14 -6h-132q-23 0 -23 18
q0 10 11 18q66 47 177 155q-74 69 -74 176q0 100 63 167l-168 169q-12 12 -7 23q4 11 21 11h164q18 0 41 -10q28 -13 23 -30l-9 -36l-5 -13q6 -18 32 -50q72 31 166 31t166 -32q25 30 34 50zM664 1047l150 151h-117q-7 -1 -22 -7l4 -15q9 -20 9 -24v-7l-1 -7
q-33 -85 -70 -85q-4 1 -7 2q-68 35 -162 35t-162 -33q-3 -2 -7 -2q-38 0 -68 83l-1 4q-2 13 8 34l4 15q-15 7 -22 7h-116q39 -33 79 -67q74 -68 74 -98q0 -8 -6 -13q-64 -58 -64 -152q0 -71 42 -122.5t42 -54.5q0 -6 -6 -12q-49 -48 -150 -138h65l125 126q9 10 22 4
q60 -25 141 -25t142 25q13 6 22 -4l126 -126h64q-57 46 -149 138q-6 6 -6 12q0 3 41 54.5t41 122.5q0 63 -35.5 113t-35.5 54q0 6 6 12zM448 1010q-59 0 -96.5 -43t-37.5 -103q0 -59 38 -103t96 -44t96 44t38 103q0 60 -37.5 103t-96.5 43zM622 864q0 -76 -49 -130
q-50 -57 -125 -57t-125 57q-49 54 -49 130q0 77 49 131.5t125 54.5t125 -54.5t49 -131.5z" />
    <glyph glyph-name="yen" unicode="&#xa5;" horiz-adv-x="1308" 
d="M391 -196q15 -7 24 -14l66 -22q39 -17 46 -46q6 -25 -19 -25l-327 -6q-14 0 -19 9q-6 9 2 22l208 331h-204q-23 0 -23 18q0 12 13 19q39 23 58 65q16 35 28 35h213l53 83h-342q-23 0 -23 18q0 12 13 19q39 23 58 65q16 35 28 35h248l-97 179l-212 404l-163 229
q-23 32 16 32h392q15 0 39 -19t24 -36q0 -7 -7 -13q-60 -47 -60 -82q0 -106 258 -561l172 248q149 223 156 282q-4 38 -65.5 87.5t-61.5 58.5t21 14l72 14h297q38 0 16 -31q-206 -299 -526 -806h254q23 0 23 -18q0 -11 -12 -19q-65 -41 -67 -81q-1 -19 -20 -19h-263l-51 -83
h390q23 0 23 -18q0 -11 -12 -19q-65 -41 -67 -81q-1 -19 -20 -19h-399q-52 -80 -146 -239zM425 1214h-350l143 -202l325 -613q15 -29 -18 -29h-266q-11 -32 -34 -57h321q19 0 19 -20q0 -31 -39 -87t-58 -56h-209q-11 -32 -34 -57h183q36 0 17 -31l-207 -330l232 4
q-36 11 -52 17l-6 4q-7 6 -23 12l-5 3q-15 11 -15 29q0 16 40 81l125 202q6 9 17 9h393q7 29 35 57h-368q-19 0 -19 20q0 32 38 87.5t57 55.5h257q7 29 35 57h-232q-21 0 -21 15q0 10 40 73q288 456 489 749h-257l-21 -4q93 -71 93 -128v-4q0 -68 -163 -309
q-95 -134 -191 -268q-18 -27 -33 1q-279 489 -279 609q0 48 57 98q-5 4 -16 12z" />
    <glyph glyph-name="brokenbar" unicode="&#xa6;" horiz-adv-x="227" 
d="M36 767q-20 0 -20 20v628q0 20 20 20h156q20 0 20 -20v-628q0 -20 -20 -20h-156zM56 807h116v588h-116v-588zM36 -24q-20 0 -20 20v628q0 20 20 20h156q20 0 20 -20v-628q0 -20 -20 -20h-156zM56 16h116v588h-116v-588z" />
    <glyph glyph-name="section" unicode="&#xa7;" horiz-adv-x="742" 
d="M687 1114q-11 -34 -11 -167q0 -23 -18 -23q-13 0 -20 14q-53 113 -96 159q-67 73 -165 73q-72 0 -128 -20q-78 -29 -78 -87q0 -79 128 -119l264 -83q155 -66 155 -191q0 -146 -118 -226q118 -57 118 -184q0 -141 -128 -225q-111 -73 -258 -73q-51 0 -147 19
q-124 26 -124 59q0 4 2 7q16 39 27 50q7 10 12 28l-2 18v34q0 28 25 48q22 19 45 19q20 0 24 -16q29 -146 191 -146q65 0 118 35q60 40 60 102q0 56 -128 98l-264 87q-155 69 -155 189q0 148 121 226q-121 65 -121 186q0 149 120 223q98 62 255 62q58 0 179 -22
q157 -30 157 -67q0 -4 -2 -9zM650 1131l30 60q-151 59 -289 59q-140 0 -227 -51q-108 -63 -108 -194q0 -112 133 -165q14 -7 15 -18q0 -12 -14 -19q-134 -66 -134 -210q0 -94 129 -151l262 -87q156 -52 156 -136q0 -79 -72 -131q-64 -46 -146 -46q-182 0 -226 157
q-19 -8 -19 -22v-33l2 -18l-1 -6q-6 -31 -21 -49q-4 -4 -12 -21q122 -48 224 -48q130 0 230 62q116 72 116 196q0 118 -129 162q-16 5 -17 17t14 20q132 68 132 211q0 98 -129 153l-262 83q-156 49 -156 157q0 79 90 118q66 29 156 29q159 0 260 -182q3 79 12 100zM447 727
q-37 14 -134 33q-53 -1 -94 -29q-48 -33 -48 -83q0 -82 99 -118q33 -12 169 -34q124 26 124 133q0 56 -116 98zM461 765q142 -52 142 -136q0 -141 -160 -173h-7q-149 24 -196 43q-109 46 -109 149q0 68 60 112q53 39 124 40h4q102 -21 142 -35z" />
    <glyph glyph-name="dieresis" unicode="&#xa8;" horiz-adv-x="566" 
d="M429 1091q-118 -2 -124 94v3q-5 87 120 99q118 0 126 -94v-3q7 -96 -122 -99zM429 1131q81 2 82 57q-10 59 -84 59q-81 -8 -82 -58q8 -60 84 -58zM140 1091q-118 -2 -124 94v3q-6 92 119 99h2q117 6 125 -94v-3q7 -96 -122 -99zM140 1131q81 2 82 57q-10 59 -84 59
q-81 -9 -82 -58q8 -60 84 -58z" />
    <glyph glyph-name="copyright" unicode="&#xa9;" horiz-adv-x="1072" 
d="M894 245q-148 -123 -357 -123q-232 0 -374 129q-147 134 -147 364q0 222 151 360q147 133 370 133q228 0 371 -131q149 -136 149 -362q0 -235 -163 -370zM868 275q149 124 149 340q0 209 -137 333q-132 120 -343 120q-207 0 -341 -121q-140 -126 -140 -332
q0 -214 135 -336q130 -117 346 -117q195 0 331 113zM809 877q-107 97 -272 97q-173 0 -275 -92q-107 -96 -107 -267q0 -169 108 -266q103 -93 274 -93q167 0 272 95q109 98 109 264q0 162 -109 262zM958 615q0 -183 -121 -293q-116 -106 -300 -106q-187 0 -302 105
q-120 108 -120 294q0 188 119 295q114 104 303 104q182 0 300 -108q121 -111 121 -291zM814 837l-11 -14l-4 -12v-87q0 -23 -17 -23q-10 0 -19 10q-48 60 -79 78q-38 21 -108 21q-97 0 -158 -49q-66 -53 -66 -148q0 -93 45 -151q49 -63 140 -63q72 0 131 53q35 30 93 112
q8 11 18 11q18 0 18 -23v-161q0 -10 -7 -16q-106 -85 -264 -85q-152 0 -243 85q-94 87 -94 238t124 234q107 72 263 72h281q23 0 23 -12q0 -14 -66 -70zM787 866l15 13h-226q-139 0 -235 -61q-112 -72 -112 -205q0 -135 82 -210q79 -73 215 -73q138 0 231 71v90
q-102 -132 -220 -132q-108 0 -169 75q-56 69 -56 179q0 112 78 177q72 60 186 60t183 -73v37l1 6l6 19l4 7l15 18z" />
    <glyph glyph-name="ordfeminine" unicode="&#xaa;" horiz-adv-x="623" 
d="M376 719q-76 -50 -142 -50q-91 0 -151 44q-67 50 -67 139q0 117 73 171q39 29 152 59q98 26 128 64q-51 25 -117 25q-65 0 -169 -27q-4 -1 -8 -1q-20 0 -20 17q0 9 9 18q100 92 253 92q89 0 154 -27l3 -1q62 -26 62 -101v-365q1 -3 3 -5l3 -5q15 -41 51 -51q18 -4 18 -20
q0 -19 -23 -19h-155q-38 0 -57 43zM433 716h91q-11 14 -19 33q-8 12 -9 21v3v368q0 45 -39 64q-72 25 -140 25q-76 0 -137 -25q40 6 72 6q33 0 89 -13q76 -18 76 -45q0 -4 -2 -9q-32 -61 -129 -90q-138 -42 -155 -52q-75 -44 -75 -150q0 -72 55 -110q48 -33 123 -33
q66 0 150 64q10 8 17 8q15 0 12 -45q6 -20 20 -20zM377 1039q-25 -18 -55 -29q-91 -32 -101 -39q-34 -23 -34 -83q0 -84 79 -84q52 0 111 46v189zM417 1083v-243q0 -27 -64 -53q-55 -23 -87 -23q-119 0 -119 124q0 74 42 108q21 17 95 43q67 24 98 58q12 12 23 8
q12 -5 12 -22z" />
    <glyph glyph-name="guillemotleft" unicode="&#xab;" horiz-adv-x="1035" 
d="M831 -39q-17 -5 -24 12q-37 97 -176 204q-113 76 -225 152q-13 9 -11 20q1 11 16 16q289 92 349 315q3 13 16 15l196 27q13 2 19.5 -6t2.5 -20q-83 -249 -257 -352q226 -170 282 -315q1 -3 1 -7q0 -22 -68 -38q-60 -12 -121 -23zM838 3l134 33q-63 133 -284 295
q-26 19 3 34q170 85 254 313l-150 -21q-66 -219 -334 -317q195 -132 211 -145q123 -96 166 -192zM450 -39q-17 -5 -24 12q-37 97 -176 204q-113 76 -225 152q-13 9 -11 20q1 11 16 16q289 92 349 315q3 13 16 15l196 27q13 2 19.5 -6t2.5 -20q-83 -249 -257 -352
q226 -170 282 -315q1 -3 1 -7q0 -22 -68 -38q-60 -12 -121 -23zM457 3l134 33q-63 133 -284 295q-26 19 3 34q170 85 254 313l-150 -21q-66 -219 -334 -317q195 -132 211 -145q123 -96 166 -192z" />
    <glyph glyph-name="logicalnot" unicode="&#xac;" horiz-adv-x="1319" 
d="M1120 337q-20 0 -20 20v329h-1064q-20 0 -20 20v152q0 20 20 20h1248q20 0 20 -20v-501q0 -20 -20 -20h-164zM1140 377h124v461h-1208v-112h1064q20 0 20 -20v-329z" />
    <glyph glyph-name="minus" unicode="&#xad;" horiz-adv-x="770" 
d="M679 457q-1 -19 -20 -19h-623q-23 0 -23 18q0 12 13 19q39 23 58 65q16 35 28 35h623q23 0 23 -18q0 -11 -12 -19q-65 -41 -67 -81zM642 478q7 29 35 57h-550q-11 -32 -34 -57h549z" />
    <glyph glyph-name="minus" unicode="&#x2212;" horiz-adv-x="770" 
d="M679 457q-1 -19 -20 -19h-623q-23 0 -23 18q0 12 13 19q39 23 58 65q16 35 28 35h623q23 0 23 -18q0 -11 -12 -19q-65 -41 -67 -81zM642 478q7 29 35 57h-550q-11 -32 -34 -57h549z" />
    <glyph glyph-name="registered" unicode="&#xae;" horiz-adv-x="1072" 
d="M894 405q-148 -124 -357 -124q-231 0 -373 129q-148 135 -148 364q0 223 151 361q146 132 370 132q228 0 371 -131q149 -136 149 -362q0 -232 -163 -369zM868 435q149 125 149 339q0 209 -137 333q-132 120 -343 120q-208 0 -342 -121q-139 -125 -139 -332
q0 -213 136 -335q130 -118 345 -118q195 0 331 114zM546 1015q-101 0 -101 -39v-166q170 48 170 156q0 49 -69 49zM546 1055q109 0 109 -89q0 -82 -84 -147q-73 -56 -135 -56q-31 0 -31 21v192q0 41 53 63q40 16 88 16zM809 1036q-107 97 -272 97q-108 0 -189 -38
q32 -9 56 -29l3 -3q83 51 183 51q73 0 125 -32q63 -39 63 -108q0 -134 -203 -222q41 -27 93 -76q43 -50 154 -150q96 97 96 248q0 162 -109 262zM958 774q0 -179 -122 -290q-13 -12 -26 0q-123 109 -170 164q-72 66 -120 89q-14 7 -14 19t16 18q216 82 216 200q0 51 -51 78
q-41 22 -97 22q-95 0 -176 -56q-5 -4 -11 -4q-10 0 -27 23q-32 26 -91 25q-23 0 -23 18q0 10 12 18q107 75 263 75q182 0 300 -108q121 -111 121 -291zM739 445q-45 0 -249 215q-23 25 -45 37v-146q0 -41 29 -72q11 -12 6 -23t-21 -11h-86q76 -30 164 -30q137 0 233 66
l11 -36h-42zM744 485h37q23 0 23 -18q0 -10 -12 -18q-106 -74 -255 -74q-143 0 -257 73q-12 8 -12 19q0 18 23 18h130q-16 30 -16 66v175q0 25 24 19q48 -11 148 -116q109 -116 167 -144zM259 1034q-104 -106 -104 -260q0 -185 129 -280q9 10 11 14l5 44v407q0 15 -14 42
t-27 33zM270 1073q26 -9 48 -47.5t22 -66.5v-410l-6 -50q-2 -13 -18.5 -32t-31.5 -19q-5 0 -9 3q-160 107 -160 323q0 173 125 298q18 19 30 1z" />
    <glyph glyph-name="macron" unicode="&#xaf;" horiz-adv-x="984" 
d="M630 734h-594q-22 0 -22 20q0 16 18 20l328 65h589q22 0 22 -20q0 -16 -18 -20zM628 774l123 25h-389l-125 -25h391z" />
    <glyph glyph-name="macron" unicode="&#x2c9;" horiz-adv-x="984" 
d="M630 734h-594q-22 0 -22 20q0 16 18 20l328 65h589q22 0 22 -20q0 -16 -18 -20zM628 774l123 25h-389l-125 -25h391z" />
    <glyph glyph-name="degree" unicode="&#xb0;" horiz-adv-x="400" 
d="M205 883q-70 0 -127 43q-62 47 -62 116t65 112q57 38 128 38q65 0 118 -41q58 -45 58 -109q0 -67 -56 -113t-124 -46zM345 1042q0 47 -46 80q-42 30 -90 30q-54 0 -100 -27q-53 -32 -53 -83q0 -52 50 -87q45 -32 99 -32q52 0 94 33q46 36 46 86zM189 1082q-33 0 -33 -21
t22 -48q15 -18 25 -20q38 0 43 29q-2 21 -20 40.5t-37 19.5zM286 1022v-4q-10 -65 -83 -65q-31 0 -59 38t-28 70q0 25 25 44q22 17 48 17q36 0 65 -31.5t32 -68.5z" />
    <glyph glyph-name="plusminus" unicode="&#xb1;" horiz-adv-x="783" 
d="M631 566q-4 -4 -14 -6h-145v-204q0 -12 -11 -18q-119 -60 -129 -60q-15 0 -15 20v262h-281q-17 0 -21 11q-5 12 7 23l132 127q4 4 14 6h149v176q0 11 10 17q120 71 131 71q14 0 14 -21v-243h276q17 0 21 -11q5 -12 -7 -23zM609 600l90 87h-247q-20 0 -20 20v228l-75 -43
v-185q0 -20 -20 -20h-161l-90 -87h251q20 0 20 -20v-250l75 38v212q0 20 20 20h157zM687 137q-1 -19 -20 -19h-623q-23 0 -23 18q0 12 13 19q39 23 57 70q16 40 29 40h623q23 0 23 -18q0 -11 -12 -19q-65 -41 -67 -91zM649 158q8 36 38 67h-552q-12 -39 -36 -67h550z" />
    <glyph glyph-name="twosuperior" unicode="&#xb2;" horiz-adv-x="715" 
d="M251 1071l-1 -11q-14 -28 -14 -65q0 -40 17 -82q2 -6 2 -11q0 -16 -28 -16q6 0 -45 6l-53 -3q-57 -13 -57 12q0 53 23 116q25 70 61 97q92 68 211 68q94 0 156 -42q71 -48 71 -139q0 -204 -296 -442h156q54 0 176 68q16 8 25.5 -0.5t2.5 -25.5l-64 -154q-5 -12 -18 -12
l-501 -2q-20 0 -20 20v29l20 20q-1 -1 -3 1q71 52 194 169q179 171 179 272q0 144 -139 144q-37 0 -55 -18v1zM98 473l465 2l37 89q-83 -45 -146 -45h-214q-23 0 -23 17q0 11 11 19q326 247 326 446q0 141 -187 141q-105 0 -187 -60q-51 -38 -66 -155l7 1l4 1l60 3l20 -2
q-9 32 -9 65q0 43 15 77q0 26 37 43q30 13 58 13q81 0 130 -51t49 -133q0 -158 -370 -457q-10 -9 -17 -14z" />
    <glyph glyph-name="threesuperior" unicode="&#xb3;" horiz-adv-x="637" 
d="M327 422q-100 0 -190 41l-4 2q-97 72 -97 86q0 11 22 13q87 9 167 58q30 19 30 -17v-36q0 -59 58 -59q52 0 85 44q30 41 30 95q0 94 -69 137q-49 30 -155 42q-21 2 -21 20q0 16 60 32q85 21 113 35q60 30 60 82q0 47 -42 73q-35 22 -84 22q-22 0 -45.5 -22.5t-23.5 -44.5
q0 -41 -14 -41q5 0 -68 12h-12q-70 0 -70 23q0 5 4 12q90 149 282 149q81 0 148 -34q82 -42 82 -117q0 -114 -112 -164q136 -83 136 -216q0 -106 -84 -169q-77 -58 -186 -58zM181 1030q2 37 37 69.5t72 32.5q66 0 113 -33q53 -38 53 -102q0 -98 -158 -145q170 -43 170 -203
q0 -71 -41 -123q-45 -56 -114 -56q-98 0 -98 101q-51 -27 -105 -39l45 -34q81 -36 172 -36q92 0 157 46q73 52 73 141q0 126 -151 200q-15 7 -15 16q0 14 39 32q24 11 47 21q56 39 56 111q0 55 -72 87q-55 24 -118 24q-152 0 -230 -103q10 -1 14 -1h14h3z" />
    <glyph glyph-name="acute" unicode="&#xb4;" horiz-adv-x="463" 
d="M321 1285q-20 -20 -56 -68q-39 -53 -43 -72l1 -2l7 -16q13 -28 -18 -28h-176q-16 0 -21 10q-5 11 6 23q72 85 169 310q5 12 18 12h207q33 0 33 -63q0 -21 -10 -27q-79 -42 -117 -79zM182 1139v4q0 27 45 90q37 52 66 80q39 38 112 79l-6 22h-178q-44 -104 -63 -142
q-38 -77 -80 -133h104z" />
    <glyph glyph-name="mu1" unicode="&#xb5;" horiz-adv-x="834" 
d="M799 628q-29 -25 -65 -80l2 -12q74 -161 74 -234q0 -91 -26 -161l-2 -3q-72 -118 -164 -153q-47 -31 -47 -55q0 -7 7 -18q36 -58 111 -58q52 0 81 34q8 9 16 9q21 0 21 -31q0 -49 -63 -80q-45 -22 -82 -22q-298 0 -298 158q0 31 21 60q-55 13 -105 39v-411q0 -20 -20 -20
h-223q-22 0 -22 12t34.5 53.5t34.5 55.5v879q0 23 -16 41q-55 53 -55 67q0 12 23 12h309q21 0 21 -31q0 -41 -19 -54l-54 -36q-13 -17 -13 -39v-378q0 -12 42 -38q56 -34 95 -34q180 0 180 200q0 164 -80 310q-9 19 -8 57q1 43 23 43h267q20 0 20 -21q0 -3 -20 -61z
M712 -185q-11 -1 -23 -1q-97 0 -145 76q-13 21 -13 40q0 46 67 90l4 2q80 29 145 135q23 63 23 145q0 65 -71 220l-2 5l-3 18v4q1 32 69 96l8 25h-218l2 -45q82 -153 82 -325q0 -240 -220 -240q-41 0 -105 33q-72 39 -72 79v378q0 37 23 66l5 5l50 33l3 16h-235l11 -11
q27 -31 27 -69v-879q0 -34 -40 -81h156v425q0 36 30 17q72 -44 158 -58q19 -3 19 -13q0 -8 -21.5 -35.5t-21.5 -43.5q0 -118 258 -118q22 0 50 11z" />
    <glyph glyph-name="mu1" unicode="&#x3bc;" horiz-adv-x="834" 
d="M799 628q-29 -25 -65 -80l2 -12q74 -161 74 -234q0 -91 -26 -161l-2 -3q-72 -118 -164 -153q-47 -31 -47 -55q0 -7 7 -18q36 -58 111 -58q52 0 81 34q8 9 16 9q21 0 21 -31q0 -49 -63 -80q-45 -22 -82 -22q-298 0 -298 158q0 31 21 60q-55 13 -105 39v-411q0 -20 -20 -20
h-223q-22 0 -22 12t34.5 53.5t34.5 55.5v879q0 23 -16 41q-55 53 -55 67q0 12 23 12h309q21 0 21 -31q0 -41 -19 -54l-54 -36q-13 -17 -13 -39v-378q0 -12 42 -38q56 -34 95 -34q180 0 180 200q0 164 -80 310q-9 19 -8 57q1 43 23 43h267q20 0 20 -21q0 -3 -20 -61z
M712 -185q-11 -1 -23 -1q-97 0 -145 76q-13 21 -13 40q0 46 67 90l4 2q80 29 145 135q23 63 23 145q0 65 -71 220l-2 5l-3 18v4q1 32 69 96l8 25h-218l2 -45q82 -153 82 -325q0 -240 -220 -240q-41 0 -105 33q-72 39 -72 79v378q0 37 23 66l5 5l50 33l3 16h-235l11 -11
q27 -31 27 -69v-879q0 -34 -40 -81h156v425q0 36 30 17q72 -44 158 -58q19 -3 19 -13q0 -8 -21.5 -35.5t-21.5 -43.5q0 -118 258 -118q22 0 50 11z" />
    <glyph glyph-name="paragraph" unicode="&#xb6;" horiz-adv-x="1129" 
d="M556 -200q-21 0 -21 14q0 13 22 46q25 37 28 46q9 25 9 85l1 508q-49 9 -169 62q-410 178 -410 454q0 125 98 196q87 63 215 63q171 0 319 -111l9 16l3 3q48 47 71.5 56.5t90.5 9.5h3l-20 -20q25 17 55 17q50 0 142 -63q81 -55 109 -99q6 -10 6 -16q0 -13 -26 -13
q-15 0 -41.5 4.5t-28.5 4.5q-53 0 -53 -54l6 -1097q10 -31 48 -80q9 -12 4 -22t-20 -10h-450zM841 1216q-6 -8 -16 -8h-3q-58 0 -74.5 -7t-57.5 -46q-26 -41 -37 -41q-6 0 -12 4q-145 116 -312 116q-112 0 -187 -52q-86 -60 -86 -167q0 -250 386 -418q139 -60 173 -60
q20 0 20 -20l-1 -526q0 -92 -39 -151q206 -2 193 -34q2 0 4 -1h2l-22 -8q-27 0 -27 26q0 17 21 17h201q-24 36 -32 64l-1 5l-6 1100q-1 94 93 94q9 0 20 -1q-102 92 -177 103q-11 2 -23 11zM792 1096q-35 -47 -35 -112l8 -1084q2 -17 8 -38q25 33 30 59q2 13 2 70v992
q0 87 -13 113zM845 983v-992q0 -74 -9 -100q-9 -29 -55 -84q-8 -9 -15 -9q-34 0 -41 99v2l-8 1085q0 38 18 90q23 66 56 66q54 0 54 -157z" />
    <glyph glyph-name="periodcentered" unicode="&#xb7;" horiz-adv-x="277" 
d="M139 414q-47 0 -86 25q-37 29 -37 73q0 98 123 98q48 0 83 -24q40 -28 40 -74q0 -98 -123 -98zM139 454q83 0 83 58t-83 58t-83 -58q0 -24 21 -41q27 -17 62 -17z" />
    <glyph glyph-name="periodcentered" unicode="&#x2219;" horiz-adv-x="277" 
d="M139 414q-47 0 -86 25q-37 29 -37 73q0 98 123 98q48 0 83 -24q40 -28 40 -74q0 -98 -123 -98zM139 454q83 0 83 58t-83 58t-83 -58q0 -24 21 -41q27 -17 62 -17z" />
    <glyph glyph-name="cedilla" unicode="&#xb8;" horiz-adv-x="472" 
d="M321 -29q2 1 8 1q-9 -13 -9 -24q0 -21 -21 -21q-19 1 -19 21q0 35 29 35q30 0 89 -70t59 -100q0 -158 -298 -158q-51 0 -97 30q-54 35 -46 84q3 16 14 19t21 -9q29 -34 81 -34q75 0 111 58q7 11 7 18q0 31 -131 116q0 14 10 19h-24q0 25 14 56q17 38 40 38h159
q20 0 20 -20v-42zM317 -63q-7 -13 -22 -9q-15 3 -15 20q0 26 16 47l2 3v12h-135q-10 -14 -17 -44l9 -5q135 -95 135 -140q0 -19 -13 -40q-48 -76 -145 -76q-12 0 -23 1q28 -11 50 -11q258 0 258 118q0 14 -42 64q-38 44 -58 60z" />
    <glyph glyph-name="onesuperior" unicode="&#xb9;" horiz-adv-x="396" 
d="M308 1159q9 -13 9 -55v-566q0 -14 20 -44.5t20 -38.5q0 -12 -22 -12h-184q-21 0 -21 13q0 11 16.5 35.5t17.5 27.5l3 47v473l-10 1h-11l-64 -7q-25 -3 -25 17q0 11 11 19l28 21q70 32 190 115q9 10 17 10q16 0 16 -26q0 -19 -11 -30zM277 1147q-53 -30 -160 -91l-25 -19
l-14 36l67 7h13h2l24 -3h3q20 0 20 -20l-4 -546q-1 -10 -12 -28h103q-17 28 -17 55v609z" />
    <glyph glyph-name="ordmasculine" unicode="&#xba;" horiz-adv-x="485" 
d="M403 1010q-62 -52 -160 -52q-97 0 -160 54q-67 58 -67 153q0 97 66 155q63 54 161 54q96 0 160 -55q67 -59 67 -154q0 -99 -67 -155zM430 1165q0 79 -53.5 124t-133.5 45q-82 0 -133 -43q-54 -45 -54 -126q0 -79 55 -124q52 -43 132 -43q84 0 135.5 43.5t51.5 123.5z
M243 1274q-76 0 -76 -109q0 -105 76 -105t76 105q0 109 -76 109zM243 1314q116 0 116 -149q0 -57 -28 -98q-33 -47 -88 -47q-116 0 -116 145q0 149 116 149z" />
    <glyph glyph-name="guillemotright" unicode="&#xbb;" horiz-adv-x="1035" 
d="M657 9q-3 -13 -16 -15l-194 -27q-13 -2 -19.5 6t-2.5 20q79 249 256 352q-83 62 -167 147q-117 118 -117 173q0 24 60 44q56 20 107 20q40 0 46 -15q36 -95 177 -203l224 -152q13 -9 11 -20q-1 -11 -16 -16q-289 -91 -349 -314zM622 32q66 219 334 316q-195 132 -211 145
q-124 96 -166 191l-134 -31q64 -133 285 -295q27 -19 -3 -34q-172 -85 -254 -313zM276 9q-3 -13 -16 -15l-194 -27q-13 -2 -19.5 6t-2.5 20q79 249 255 352q-79 59 -165 145q-118 120 -118 176q0 23 60 43q57 20 108 20q40 0 46 -15q36 -95 176 -203l224 -152q13 -9 11 -20
q-1 -11 -16 -16q-289 -91 -349 -314zM241 32q66 219 334 316q-195 132 -211 145q-123 96 -165 191l-135 -31q63 -135 284 -295q27 -19 -3 -34q-171 -85 -253 -313z" />
    <glyph glyph-name="onequarter" unicode="&#xbc;" horiz-adv-x="1498" 
d="M290 -55q-6 -10 -17 -10h-171q-16 0 -21 11t6 23q75 80 151 207l587 982q65 109 68 165l-1 4l-17 26q-25 44 -25 58q0 12 8 17q41 26 63 26h213q35 0 17 -30zM262 -25l837 1439h-178q-6 0 -26 -11l15 -31q9 -11 23 -44v-5q-2 -65 -74 -185l-587 -982q-63 -106 -126 -181
h116zM274 1229q9 -13 9 -55v-566q0 -14 20 -44.5t20 -38.5q0 -12 -22 -12h-184q-21 0 -21 13q0 11 16.5 35.5t17.5 27.5l3 47v473l-10 1h-11l-64 -7q-25 -3 -25 17q0 11 11 19l28 21q70 32 191 115q10 10 18 10q14 0 14 -24q0 -20 -11 -32zM243 1216q-53 -29 -160 -90
l-25 -19l-14 36l67 7h13h2l24 -3h3q20 0 20 -20l-4 -546q-1 -10 -12 -28h103q-17 28 -17 55v608zM862 767q31 41 135 41q44 0 66 -75q17 -55 17 -115q0 -92 -60 -214h163v115q0 19 -71 75q-12 11 -9 22q3 12 19 14q67 9 102 26q106 72 118 72q14 0 13 -22l-3 -50l-1 -5
q-19 -60 -19 -91v-156h120q21 0 21 -16q0 -20 -30.5 -55t-44.5 -35h-66v-141q0 -10 2 -19l1 -5q1 -2 20 -27q17 -21 17 -32q0 -12 -22 -12h-187q-22 0 -22 13q0 10 18.5 35t19.5 28l4 48v112h-343q-21 0 -21 14q0 16 34 60q44 55 47 60q54 95 54 185q0 44 -19 64
q-31 12 -63 25t-32 29q0 14 22 32zM897 744l-1 -1l59 -27l6 -4q33 -31 33 -95q0 -134 -113 -279h322q20 0 20 -20v-134l-4 -53q-2 -12 -13 -29h101q-11 16 -13 29t-2 26v161q0 20 20 20h77l21 26h-98q-20 0 -20 20v176q0 36 20 101l1 7l-70 -47q-22 -12 -71 -23l13 -10
q38 -30 38 -69v-135q0 -20 -20 -20h-216q-35 0 -17 30q70 121 70 224q0 117 -49 150q-50 -1 -94 -24z" />
    <glyph glyph-name="onehalf" unicode="&#xbd;" horiz-adv-x="1485" 
d="M291 -55q-6 -10 -17 -10h-171q-16 0 -21 11t6 23q72 75 151 207l587 982q65 109 68 165l-1 4l-17 26q-25 44 -25 58q0 12 8 17q41 26 63 26h213q35 0 17 -30zM263 -25l837 1439h-178q-6 0 -26 -11l15 -31q9 -11 23 -44v-5q-2 -65 -74 -185l-587 -982q-65 -109 -125 -181
h115zM276 1229q9 -13 9 -55v-566q0 -14 20 -44.5t20 -38.5q0 -12 -22 -12h-184q-21 0 -21 13q0 11 16 35t17 28l4 47v473l-10 1h-12l-63 -7q-25 -3 -25 17q0 11 11 19l28 21q70 32 190 115q9 10 17 10q16 0 16 -26q0 -19 -11 -30zM245 1217q-53 -30 -160 -91l-25 -19l-14 36
l66 7h14h2l24 -3h3q20 0 20 -20l-4 -545q-2 -12 -12 -29h103q-17 28 -17 55v609zM1047 710v-10q-14 -28 -14 -65q0 -40 16 -82q2 -6 2 -10q0 -17 -28 -17q7 0 -45 6l-52 -3q-58 -13 -58 12q0 51 24 116q25 71 61 97q92 68 211 68q93 0 155 -42q72 -49 72 -139
q0 -204 -297 -442h156q55 0 177 68q16 8 25.5 -0.5t2.5 -25.5l-65 -154q-5 -12 -18 -12l-501 -2q-20 0 -20 20v29l20 20q-3 -1 -7 -1l4 2q55 37 195 170q178 168 178 271q0 144 -138 144q-39 0 -56 -18zM895 113l464 2l37 89q-83 -45 -146 -45h-214q-23 0 -23 17q0 11 11 19
q327 247 327 446q0 72 -60 110q-51 31 -127 31q-106 0 -187 -60q-51 -37 -67 -155l9 1l3 1l59 3l21 -3q-9 33 -9 66q0 43 15 77q-2 26 36 43q30 13 59 13q81 0 129.5 -51t48.5 -133q0 -160 -369 -458q-10 -8 -17 -13z" />
    <glyph glyph-name="threequarters" unicode="&#xbe;" horiz-adv-x="1713" 
d="M502 -55q-6 -10 -17 -10h-171q-16 0 -21 11t6 23q72 75 151 207l587 982q65 109 68 165l-1 4l-17 26q-25 44 -25 58q0 12 8 17q41 26 63 26h213q35 0 17 -30zM474 -25l837 1439h-178q-6 0 -26 -11l15 -31q9 -11 23 -44v-5q-2 -65 -74 -185l-587 -982q-65 -109 -125 -181
h115zM316 422q-100 0 -190 41l-4 2q-97 72 -97 86q0 11 22 13q87 9 167 58q30 19 30 -17v-36q0 -59 58 -59q51 0 85 45q30 41 30 94q0 94 -69 137q-49 30 -155 42q-21 3 -21 20t60 32q84 21 112 35q60 29 60 82q0 46 -41 73q-35 22 -84 22q-23 0 -46 -22t-23 -45
q0 -40 -14 -40q5 0 -69 11h-11q-70 0 -70 23q0 5 4 12q89 149 281 149q82 0 148 -34q83 -42 83 -117q0 -113 -112 -164q135 -83 135 -216q0 -104 -84 -169q-77 -58 -185 -58zM170 1030q2 38 36.5 70t72.5 32q66 0 112 -33q53 -38 53 -102q0 -99 -158 -145q171 -43 171 -203
q0 -70 -42 -123q-45 -56 -113 -56q-98 0 -98 101q-51 -27 -105 -39l45 -34q81 -36 172 -36q90 0 156 47q73 52 73 140q0 126 -150 200q-14 7 -14 16q0 13 37 32q24 10 47 21q57 41 57 111q0 56 -72 87q-56 24 -119 24q-152 0 -229 -103q10 -1 14 -1h13h3zM1076 769
q35 39 134 39q43 0 66 -76q16 -54 16 -114q0 -91 -59 -214h162v115q0 19 -71 75q-12 11 -9 22q3 12 19 14q68 9 102 26q107 72 119 72q14 0 13 -22l-3 -50l-1 -5q-19 -60 -19 -91v-156h119q21 0 21 -16q0 -21 -30 -55.5t-44 -34.5h-66v-141q0 -13 2 -22q0 -3 19.5 -27
t19.5 -34q0 -12 -23 -12h-187q-22 0 -22 13q0 11 18.5 35.5t19.5 27.5l3 48v112h-342q-21 0 -21 14q0 16 34 60q44 55 47 60q54 95 54 185q0 44 -19 64l-62 24q-35 15 -35 31q0 14 25 33zM1111 744l-2 -1l59 -27l6 -4q33 -31 33 -95q0 -134 -113 -279h321q20 0 20 -20v-134
l-4 -54q-1 -10 -13 -28h102q-15 21 -15 55v161q0 20 20 20h76l21 26h-97q-20 0 -20 20v176q0 36 20 101l1 7l-70 -46q-28 -15 -72 -24l13 -10q38 -30 38 -69v-135q0 -20 -20 -20h-215q-34 0 -17 30q69 123 69 224q0 117 -48 150q-50 -1 -93 -24z" />
    <glyph glyph-name="questiondown" unicode="&#xbf;" horiz-adv-x="799" 
d="M430 760q-57 0 -94 35.5t-37 91.5q0 55 37.5 90.5t93.5 35.5t93.5 -35.5t37.5 -90.5q0 -56 -37 -91.5t-94 -35.5zM521 887q0 86 -91 86t-91 -86q0 -87 91 -87t91 87zM432 -207q-416 0 -416 281q0 124 68 216q52 71 171 151q68 45 77 64q12 95 -22 203q-8 26 19 26h52
q28 0 84 1.5t84 1.5q16 0 21 -11t-6 -23q-30 -32 -30 -72q0 -16 6 -48t6 -48q0 -59 -56 -95q-125 -79 -179 -148q-71 -92 -71 -218q0 -97 41 -131q36 -30 135 -30q80 0 128 62q44 57 44 139q0 51 -43 79q-21 13 -89 36q-17 6 -17 20q0 16 21 19q33 4 63 4q110 0 181 -53
q80 -60 80 -167q0 -119 -121 -194q-105 -65 -231 -65zM558 230q70 -37 70 -116q0 -99 -55 -167q-60 -74 -157 -74q-115 0 -164 42q-52 45 -52 159q0 143 79 243q41 51 148 126q79 55 79 92q0 16 -6 48t-6 48q0 35 16 66q-19 0 -62.5 -1.5t-66.5 -1.5h-25q23 -77 23 -142
q0 -51 -17 -75q-20 -26 -85 -70q-110 -74 -157 -136q-64 -84 -64 -197q0 -241 376 -241q108 0 202 54q110 64 110 165q0 160 -186 178z" />
    <glyph glyph-name="Agrave" unicode="&#xc0;" horiz-adv-x="1486" 
d="M743 1299q-29 0 -11 44q0 16 -41 72q-36 50 -57 70q-35 33 -117 80q-10 5 -10 25q0 64 33 64h207q13 0 18 -12q55 -127 72 -162q43 -85 97 -148q11 -12 6 -23q-5 -10 -21 -10h-176zM743 1339h134q-59 78 -143 275h-178l-6 -22q78 -45 117 -84q34 -34 87 -115
q19 -30 19 -50q0 -9 -12 -33zM1114 -21q-15 0 -19 14q-31 104 -96 243q-58 117 -115 234q-136 -33 -350 -177q-243 -164 -243 -272q0 -3 2 -18q2 -11 0 -16q-4 -7 -18 -7l-70 -1l-169 1q-23 0 -23 18q0 10 12 18q58 41 292 494q2 3 271 539q1 7 1 14q0 50 -55 92
q-35 21 -69 43q-12 8 -12 19q0 16 22 18l193 14q100 7 131 -52q83 -158 213 -454q141 -321 209 -456q103 -205 239 -270q14 -7 14 -20q0 -18 -23 -18h-337zM1129 19h248q-102 72 -192 250q-68 135 -209 456q-129 296 -213 454q-17 31 -100 31q27 0 -125 -11l18 -10
q73 -56 73 -126q0 -12 -2 -24l-2 -5l-303 -601q-163 -319 -239 -413l122 -1l46 2q0 128 258 304q230 157 382 188q15 3 22 -11l116 -238q67 -140 100 -245zM672 878l-261 -496q99 64 427 178zM690 930l194 -372q10 -20 -11 -28q-226 -78 -271 -97q-179 -73 -240 -144
q-8 -9 -17 -9q-19 0 -19 19q0 6 3 12l325 619q18 34 36 0z" />
    <glyph glyph-name="Aacute" unicode="&#xc1;" horiz-adv-x="1486" 
d="M812 1485q-20 -19 -56 -68q-39 -54 -43 -72l1 -2l7 -16q13 -28 -18 -28h-176q-16 0 -21 10q-5 11 6 23q72 85 169 310q5 12 18 12h207q33 0 33 -64q0 -20 -10 -25q-82 -47 -117 -80zM673 1339v4q0 27 45 90q37 53 66 80q36 35 112 79l-6 22h-178q-44 -104 -63 -142
q-38 -77 -80 -133h104zM1114 -21q-15 0 -19 14q-31 104 -96 243q-58 117 -115 234q-136 -33 -350 -177q-243 -164 -243 -272q0 -3 2 -18q2 -11 0 -16q-4 -7 -18 -7l-70 -1l-169 1q-23 0 -23 18q0 10 12 18q58 41 292 494q2 3 271 539q1 7 1 14q0 50 -55 92q-35 21 -69 43
q-12 8 -12 19q0 16 22 18l193 14q100 7 131 -52q83 -158 213 -454q141 -321 209 -456q103 -205 239 -270q14 -7 14 -20q0 -18 -23 -18h-337zM1129 19h248q-102 72 -192 250q-68 135 -209 456q-129 296 -213 454q-17 31 -100 31q27 0 -125 -11l18 -10q73 -56 73 -126
q0 -12 -2 -24l-2 -5l-303 -601q-163 -319 -239 -413l122 -1l46 2q0 128 258 304q230 157 382 188q15 3 22 -11l116 -238q67 -140 100 -245zM672 878l-261 -496q99 64 427 178zM690 930l194 -372q10 -20 -11 -28q-226 -78 -271 -97q-179 -73 -240 -144q-8 -9 -17 -9
q-19 0 -19 19q0 6 3 12l325 619q18 34 36 0z" />
    <glyph glyph-name="Acircumflex" unicode="&#xc2;" horiz-adv-x="1486" 
d="M833 1291q-23 0 -23 17q0 10 10 19l27 22l4 2l3 3l3 4q-23 29 -89 111q-63 -67 -65 -93l1 -6l5 -31l2 -11q7 -42 -14 -42q-9 0 -26 5h-220q-23 0 -23 18q0 10 11 18q58 43 162 142q28 33 68 76q31 34 75 92q15 20 31 1q98 -100 276 -316q22 -31 -16 -31h-202zM670 1331
l-1 2q-1 10 -4 32q-1 6 -2 9q0 27 40.5 85.5t67.5 58.5q8 0 14 -6q96 -119 112 -141q3 -4 3 -10q0 -27 -29 -45l-25 -21l-13 36h163q-25 33 -235 263q-29 -37 -64 -77q-20 -19 -66 -76q-74 -69 -123 -110h162zM1114 -21q-15 0 -19 14q-31 104 -96 243q-58 117 -115 234
q-136 -33 -350 -177q-243 -164 -243 -272q0 -3 2 -18q2 -11 0 -16q-4 -7 -18 -7l-70 -1l-169 1q-23 0 -23 18q0 10 12 18q58 41 292 494q2 3 271 539q1 7 1 14q0 50 -55 92q-35 21 -69 43q-12 8 -12 19q0 16 22 18l193 14q100 7 131 -52q83 -158 213 -454q141 -321 209 -456
q103 -205 239 -270q14 -7 14 -20q0 -18 -23 -18h-337zM1129 19h248q-102 72 -192 250q-68 135 -209 456q-129 296 -213 454q-17 31 -100 31q27 0 -125 -11l18 -10q73 -56 73 -126q0 -12 -2 -24l-2 -5l-303 -601q-163 -319 -239 -413l122 -1l46 2q0 128 258 304
q230 157 382 188q15 3 22 -11l116 -238q67 -140 100 -245zM672 878l-261 -496q99 64 427 178zM690 930l194 -372q10 -20 -11 -28q-226 -78 -271 -97q-179 -73 -240 -144q-8 -9 -17 -9q-19 0 -19 19q0 6 3 12l325 619q18 34 36 0z" />
    <glyph glyph-name="Atilde" unicode="&#xc3;" horiz-adv-x="1486" 
d="M989 1375q-57 -35 -117 -35q-22 0 -44 5l-2 1l-68 19l-88 36q-49 19 -91 19q-26 0 -54 -4l-128 -31q-4 -1 -8 -1q-20 0 -20 17q0 9 9 17q76 74 108 96q61 42 127 42q26 0 55 -6l2 -1l70 -20l106 -45q71 -11 113 -9h2q1 0 4 2l26 7q20 6 97 29q5 2 9 2q19 0 19 -17
q0 -9 -7 -18q-75 -79 -120 -105zM963 1435v0q-40 -4 -126 10l-5 2l-107 45l-64 18q-21 4 -40 4q-79 0 -159 -72l56 14q22 4 61 4q71 0 195 -58l61 -17q19 -3 36 -3q75 0 152 70l-54 -16q-3 -1 -6 -1zM1114 -21q-15 0 -19 14q-31 104 -96 243q-58 117 -115 234
q-136 -33 -350 -177q-243 -164 -243 -272q0 -3 2 -18q2 -11 0 -16q-4 -7 -18 -7l-70 -1l-169 1q-23 0 -23 18q0 10 12 18q58 41 292 494q2 3 271 539q1 7 1 14q0 50 -55 92q-35 21 -69 43q-12 8 -12 19q0 16 22 18l193 14q100 7 131 -52q83 -158 213 -454q141 -321 209 -456
q103 -205 239 -270q14 -7 14 -20q0 -18 -23 -18h-337zM1129 19h248q-102 72 -192 250q-68 135 -209 456q-129 296 -213 454q-17 31 -100 31q27 0 -125 -11l18 -10q73 -56 73 -126q0 -12 -2 -24l-2 -5l-303 -601q-163 -319 -239 -413l122 -1l46 2q0 128 258 304
q230 157 382 188q15 3 22 -11l116 -238q67 -140 100 -245zM672 878l-261 -496q99 64 427 178zM690 930l194 -372q10 -20 -11 -28q-226 -78 -271 -97q-179 -73 -240 -144q-8 -9 -17 -9q-19 0 -19 19q0 6 3 12l325 619q18 34 36 0z" />
    <glyph glyph-name="Adieresis" unicode="&#xc4;" horiz-adv-x="1486" 
d="M889 1338q-118 -2 -124 94v3q-5 87 120 99q118 0 126 -94v-3q7 -96 -122 -99zM889 1378q81 2 82 57q-10 59 -84 59q-81 -8 -82 -58q8 -60 84 -58zM600 1338q-118 -2 -124 94v3q-6 92 119 99h2q117 6 125 -94v-3q7 -96 -122 -99zM600 1378q81 2 82 57q-10 59 -84 59
q-81 -9 -82 -58q8 -60 84 -58zM1114 -21q-15 0 -19 14q-31 104 -96 243q-58 117 -115 234q-136 -33 -350 -177q-243 -164 -243 -272q0 -3 2 -18q2 -11 0 -16q-4 -7 -18 -7l-70 -1l-169 1q-23 0 -23 18q0 10 12 18q58 41 292 494q2 3 271 539q1 7 1 14q0 50 -55 92
q-35 21 -69 43q-12 8 -12 19q0 16 22 18l193 14q100 7 131 -52q83 -158 213 -454q141 -321 209 -456q103 -205 239 -270q14 -7 14 -20q0 -18 -23 -18h-337zM1129 19h248q-102 72 -192 250q-68 135 -209 456q-129 296 -213 454q-17 31 -100 31q27 0 -125 -11l18 -10
q73 -56 73 -126q0 -12 -2 -24l-2 -5l-303 -601q-163 -319 -239 -413l122 -1l46 2q0 128 258 304q230 157 382 188q15 3 22 -11l116 -238q67 -140 100 -245zM672 878l-261 -496q99 64 427 178zM690 930l194 -372q10 -20 -11 -28q-226 -78 -271 -97q-179 -73 -240 -144
q-8 -9 -17 -9q-19 0 -19 19q0 6 3 12l325 619q18 34 36 0z" />
    <glyph glyph-name="Aring" unicode="&#xc5;" horiz-adv-x="1486" 
d="M903 1285q-62 -52 -160 -52q-96 0 -159 55q-68 58 -68 152q0 97 66 155q63 54 161 54q97 0 160 -55q67 -58 67 -154q0 -99 -67 -155zM930 1440q0 79 -53.5 124t-133.5 45q-82 0 -133 -43q-54 -45 -54 -126q0 -78 56 -124q52 -43 131 -43q84 0 135.5 43.5t51.5 123.5z
M1114 -21q-15 0 -19 14q-31 104 -96 243q-58 117 -115 234q-136 -33 -350 -177q-243 -164 -243 -272q0 -3 2 -18q2 -11 0 -16q-4 -7 -18 -7l-70 -1l-169 1q-23 0 -23 18q0 10 12 18q58 41 292 494q2 3 271 539q1 7 1 14q0 50 -55 92q-35 21 -69 43q-12 8 -12 19q0 16 22 18
l193 14q100 7 131 -52q83 -158 213 -454q141 -321 209 -456q103 -205 239 -270q14 -7 14 -20q0 -18 -23 -18h-337zM1129 19h248q-102 72 -192 250q-68 135 -209 456q-129 296 -213 454q-17 31 -100 31q27 0 -125 -11l18 -10q73 -56 73 -126q0 -12 -2 -24l-2 -5l-303 -601
q-163 -319 -239 -413l122 -1l46 2q0 128 258 304q230 157 382 188q15 3 22 -11l116 -238q67 -140 100 -245zM743 1549q-76 0 -76 -109q0 -105 76 -105t76 105q0 109 -76 109zM743 1589q116 0 116 -149q0 -57 -28 -98q-33 -47 -88 -47q-116 0 -116 145q0 149 116 149z
M672 878l-261 -496q99 64 427 178zM690 930l194 -372q10 -20 -11 -28q-226 -78 -271 -97q-179 -73 -240 -144q-8 -9 -17 -9q-19 0 -19 19q0 6 3 12l325 619q18 34 36 0z" />
    <glyph glyph-name="AE" unicode="&#xc6;" horiz-adv-x="1885" 
d="M983 1215q-2 17 19 20q16 12 23 12h149h83h546q18 0 42 -17t24 -35q0 -6 -3 -12q-42 -67 -43 -89q8 -62 8 -69q0 -19 -14 -19q-10 0 -71 19l-6 3q-89 67 -226 91l-49 4l-50 2l-81 -2l-13 -1q6 -128 3 -352h482q21 0 21 -13q0 -11 -78 -142l-3 -4q-32 -34 -66 -68t-51 -34
q-8 0 -14 8q-91 123 -262 123q5 0 -24 1h-6q-3 -459 41 -543l53 -2l50 2l48 4q137 24 226 91l6 3q61 19 71 19q14 0 14 -19q0 -7 -8 -69q1 -16 23 -53t22 -49q0 -4 -1 -8q-24 -43 -64 -43h-778q-14 0 -35.5 20t-21.5 37q0 10 10 15l81 45q18 18 24 30q3 50 -6 347
q-145 -36 -444 -198q-339 -182 -339 -270q0 -20 -32 -22q8 1 -59 1l-168 1q-23 0 -23 18q0 12 14 20q106 57 461 438q6 6 554 599q18 28 18 53q0 12 -4 24q-12 6 -78 43q-11 6 -11 15t16 25zM1021 1199v-2q30 -17 65 -38l4 -6q10 -22 10 -45q0 -44 -25 -76l-2 -3
q-192 -243 -381 -433l-174 -168q-289 -308 -418 -408h158q38 122 398 308q313 162 437 185q36 6 36 -116q0 -32 -2.5 -79.5t-2.5 -53.5q3 -97 0 -149l-2 -7q-8 -19 -36 -47l-4 -3l-59 -33l11 -11h770q13 0 22 13q-44 73 -42 101v3l5 36l-27 -8q-96 -71 -241 -97l-52 -4
l-52 -2q-58 -2 -62 -1q-20 5 -37 45q-39 97 -35 559q0 21 70 21q178 0 280 -121l83 79l55 92h-467q-20 0 -20 20q3 256 -4 389q-1 23 52 24l84 2l52 -2l52 -4q145 -26 241 -97l27 -8l-5 39q-2 28 42 101q-9 13 -22 13h-552q-18 4 -46 2l-29 -2h-144q-3 -3 -11 -8zM1051 874
l-457 -483q116 56 479 172zM1088 922l26 -372q1 -15 -14 -20q-274 -88 -315 -103q-198 -72 -290 -141q-7 -5 -14 -5q-19 0 -19 19q0 8 6 16l585 619q12 12 23 8t12 -21z" />
    <glyph glyph-name="Ccedilla" unicode="&#xc7;" horiz-adv-x="1405" 
d="M620 -42l5 -8q-282 24 -445.5 201t-163.5 463q0 315 258 487q221 148 549 148h547q24 0 24 -12q0 -15 -82 -82q-45 -46 -45 -82v-42l-1 -7q-3 -7 -3 -74q0 -23 -17 -23q-10 0 -19 11q-138 175 -404 175q-244 0 -393 -125q-160 -134 -160 -374q0 -222 120 -370
q129 -161 347 -161q279 0 487 310q8 12 19 12q18 0 18 -23v-250q-3 -12 -7 -15q-164 -142 -433 -166q-1 -2 -1 -3q0 -21 -20 -21t-20 21q0 35 29 35q30 0 88.5 -71t58.5 -99q0 -158 -297 -158q-47 0 -92 26q-52 31 -52 75q0 7 1 14q3 15 14 18t21 -9q28 -34 81 -34
q75 0 111 58q6 9 6 18q0 24 -118 106l-15 11q3 10 7 19zM647 -34l8 -6q134 -93 134 -139q0 -51 -55 -86q-48 -30 -102 -30q-12 0 -24 1q28 -11 51 -11q257 0 257 118q0 14 -41 63q-37 43 -57 59l-1 2q-7 -13 -22 -9q-15 3 -15 20q0 40 24 42q260 20 417 151v178
q-208 -276 -484 -276q-234 0 -376 172q-131 161 -131 399q0 257 172 403q160 136 421 136q254 0 401 -151v5q0 9 3 27v39q0 52 57 112l30 24h-491q-311 0 -521 -137q-246 -161 -246 -458q0 -270 152.5 -436t420.5 -188q22 -2 18 -24z" />
    <glyph glyph-name="Egrave" unicode="&#xc8;" horiz-adv-x="933" 
d="M479 1299q-29 0 -11 44q0 16 -41 72q-36 50 -57 70q-35 33 -117 80q-10 5 -10 25q0 64 33 64h207q13 0 18 -12q55 -127 72 -162q43 -85 97 -148q11 -12 6 -23q-5 -10 -21 -10h-176zM479 1339h134q-59 78 -143 275h-178l-6 -22q78 -45 117 -84q34 -34 87 -115
q19 -30 19 -50q0 -9 -12 -33zM361 643l1 -541l21 -2l82 -2l50 2l48 4q137 24 226 91l6 3q61 19 71 19q14 0 14 -19q0 -7 -8 -69q1 -16 23 -53t22 -49q0 -4 -1 -8q-24 -43 -64 -43h-778q-14 0 -35.5 20t-21.5 37q0 10 10 15l81 45q19 21 26 34q0 13 3 37l1 3v899q0 34 -31 66
q-34 18 -68 35q-23 13 -23 23q0 12 43 54q8 4 14 5h778q18 0 42 -17t24 -35q0 -6 -3 -12q-42 -67 -43 -89q8 -62 8 -69q0 -19 -14 -19q-10 0 -71 19l-6 3q-89 67 -226 91l-49 4l-50 2l-81 -2l-21 -2v-351h493q21 0 21 -13q0 -11 -78 -142l-3 -4q-32 -34 -66 -68t-51 -34
q-8 0 -14 8q-101 136 -302 124zM177 158q-3 -24 -3 -36l-2 -8q-8 -20 -38 -51l-4 -3l-59 -33l11 -11h770q13 0 22 13q-44 73 -42 101v3l5 36l-27 -8q-96 -71 -241 -97l-52 -4l-52 -2l-84 2l-41 4q-18 2 -18 20l-1 568q0 33 81 30q182 -8 279 -121l83 79l55 92h-478
q-20 0 -20 20v389q0 23 59 24l84 2l52 -2l52 -4q145 -26 241 -97l27 -8l-5 39q-2 28 42 101q-9 13 -22 13h-770l-11 -11l59 -33l4 -3q45 -45 45 -96z" />
    <glyph glyph-name="Eacute" unicode="&#xc9;" horiz-adv-x="933" 
d="M548 1485q-20 -19 -56 -68q-39 -54 -43 -72l1 -2l7 -16q13 -28 -18 -28h-176q-16 0 -21 10q-5 11 6 23q72 85 169 310q5 12 18 12h207q33 0 33 -64q0 -20 -10 -25q-82 -47 -117 -80zM409 1339v4q0 27 45 90q37 53 66 80q36 35 112 79l-6 22h-178q-44 -104 -63 -142
q-38 -77 -80 -133h104zM361 643l1 -541l21 -2l82 -2l50 2l48 4q137 24 226 91l6 3q61 19 71 19q14 0 14 -19q0 -7 -8 -69q1 -16 23 -53t22 -49q0 -4 -1 -8q-24 -43 -64 -43h-778q-14 0 -35.5 20t-21.5 37q0 10 10 15l81 45q19 21 26 34q0 13 3 37l1 3v899q0 34 -31 66
q-34 18 -68 35q-23 13 -23 23q0 12 43 54q8 4 14 5h778q18 0 42 -17t24 -35q0 -6 -3 -12q-42 -67 -43 -89q8 -62 8 -69q0 -19 -14 -19q-10 0 -71 19l-6 3q-89 67 -226 91l-49 4l-50 2l-81 -2l-21 -2v-351h493q21 0 21 -13q0 -11 -78 -142l-3 -4q-32 -34 -66 -68t-51 -34
q-8 0 -14 8q-101 136 -302 124zM177 158q-3 -24 -3 -36l-2 -8q-8 -20 -38 -51l-4 -3l-59 -33l11 -11h770q13 0 22 13q-44 73 -42 101v3l5 36l-27 -8q-96 -71 -241 -97l-52 -4l-52 -2l-84 2l-41 4q-18 2 -18 20l-1 568q0 33 81 30q182 -8 279 -121l83 79l55 92h-478
q-20 0 -20 20v389q0 23 59 24l84 2l52 -2l52 -4q145 -26 241 -97l27 -8l-5 39q-2 28 42 101q-9 13 -22 13h-770l-11 -11l59 -33l4 -3q45 -45 45 -96z" />
    <glyph glyph-name="Ecircumflex" unicode="&#xca;" horiz-adv-x="933" 
d="M549 1291q-23 0 -23 17q0 10 10 19l27 22l4 2l3 3l3 4q-23 29 -89 111q-63 -67 -65 -93l1 -6l5 -31l2 -11q7 -42 -14 -42q-9 0 -26 5h-220q-23 0 -23 18q0 10 11 18q58 43 162 142q28 33 68 76q31 34 75 92q15 20 31 1q98 -100 276 -316q22 -31 -16 -31h-202zM386 1331
l-1 2q-1 10 -4 32q-1 6 -2 9q0 27 40.5 85.5t67.5 58.5q8 0 14 -6q96 -119 112 -141q3 -4 3 -10q0 -27 -29 -45l-25 -21l-13 36h163q-25 33 -235 263q-29 -37 -64 -77q-20 -19 -66 -76q-74 -69 -123 -110h162zM361 643l1 -541l21 -2l82 -2l50 2l48 4q137 24 226 91l6 3
q61 19 71 19q14 0 14 -19q0 -7 -8 -69q1 -16 23 -53t22 -49q0 -4 -1 -8q-24 -43 -64 -43h-778q-14 0 -35.5 20t-21.5 37q0 10 10 15l81 45q19 21 26 34q0 13 3 37l1 3v899q0 34 -31 66q-34 18 -68 35q-23 13 -23 23q0 12 43 54q8 4 14 5h778q18 0 42 -17t24 -35q0 -6 -3 -12
q-42 -67 -43 -89q8 -62 8 -69q0 -19 -14 -19q-10 0 -71 19l-6 3q-89 67 -226 91l-49 4l-50 2l-81 -2l-21 -2v-351h493q21 0 21 -13q0 -11 -78 -142l-3 -4q-32 -34 -66 -68t-51 -34q-8 0 -14 8q-101 136 -302 124zM177 158q-3 -24 -3 -36l-2 -8q-8 -20 -38 -51l-4 -3l-59 -33
l11 -11h770q13 0 22 13q-44 73 -42 101v3l5 36l-27 -8q-96 -71 -241 -97l-52 -4l-52 -2l-84 2l-41 4q-18 2 -18 20l-1 568q0 33 81 30q182 -8 279 -121l83 79l55 92h-478q-20 0 -20 20v389q0 23 59 24l84 2l52 -2l52 -4q145 -26 241 -97l27 -8l-5 39q-2 28 42 101
q-9 13 -22 13h-770l-11 -11l59 -33l4 -3q45 -45 45 -96z" />
    <glyph glyph-name="Edieresis" unicode="&#xcb;" horiz-adv-x="933" 
d="M605 1338q-118 -2 -124 94v3q-5 87 120 99q118 0 126 -94v-3q7 -96 -122 -99zM605 1378q81 2 82 57q-10 59 -84 59q-81 -8 -82 -58q8 -60 84 -58zM316 1338q-118 -2 -124 94v3q-6 92 119 99h2q117 6 125 -94v-3q7 -96 -122 -99zM316 1378q81 2 82 57q-10 59 -84 59
q-81 -9 -82 -58q8 -60 84 -58zM361 643l1 -541l21 -2l82 -2l50 2l48 4q137 24 226 91l6 3q61 19 71 19q14 0 14 -19q0 -7 -8 -69q1 -16 23 -53t22 -49q0 -4 -1 -8q-24 -43 -64 -43h-778q-14 0 -35.5 20t-21.5 37q0 10 10 15l81 45q19 21 26 34q0 13 3 37l1 3v899
q0 34 -31 66q-34 18 -68 35q-23 13 -23 23q0 12 43 54q8 4 14 5h778q18 0 42 -17t24 -35q0 -6 -3 -12q-42 -67 -43 -89q8 -62 8 -69q0 -19 -14 -19q-10 0 -71 19l-6 3q-89 67 -226 91l-49 4l-50 2l-81 -2l-21 -2v-351h493q21 0 21 -13q0 -11 -78 -142l-3 -4q-32 -34 -66 -68
t-51 -34q-8 0 -14 8q-101 136 -302 124zM177 158q-3 -24 -3 -36l-2 -8q-8 -20 -38 -51l-4 -3l-59 -33l11 -11h770q13 0 22 13q-44 73 -42 101v3l5 36l-27 -8q-96 -71 -241 -97l-52 -4l-52 -2l-84 2l-41 4q-18 2 -18 20l-1 568q0 33 81 30q182 -8 279 -121l83 79l55 92h-478
q-20 0 -20 20v389q0 23 59 24l84 2l52 -2l52 -4q145 -26 241 -97l27 -8l-5 39q-2 28 42 101q-9 13 -22 13h-770l-11 -11l59 -33l4 -3q45 -45 45 -96z" />
    <glyph glyph-name="Igrave" unicode="&#xcc;" horiz-adv-x="556" 
d="M344 1299q-29 0 -11 44q0 16 -41 72q-36 50 -57 70q-35 33 -117 80q-10 5 -10 25q0 64 33 64h207q13 0 18 -12q55 -127 72 -162q43 -85 97 -148q11 -12 6 -23q-5 -10 -21 -10h-176zM344 1339h134q-59 78 -143 275h-178l-6 -22q78 -45 117 -84q34 -34 87 -115
q19 -30 19 -50q0 -9 -12 -33zM212 -20q-21 0 -21 14q0 12 23 47q26 39 30 52l6 79v807q0 85 -53 119l-104 39q-62 24 -76 78q-5 20 24 28l38 6h4h370q20 0 20 -20v-1058q0 -66 6 -86q9 -26 48 -72q11 -12 6 -23q-5 -10 -21 -10h-300zM251 20h219q-37 50 -37 151v1038h-348
l-20 -4q18 -26 81 -45q71 -21 97 -46q47 -42 47 -135l-7 -895q-8 -28 -32 -64z" />
    <glyph glyph-name="Iacute" unicode="&#xcd;" horiz-adv-x="556" 
d="M413 1485q-20 -19 -56 -68q-39 -54 -43 -72l1 -2l7 -16q13 -28 -18 -28h-176q-16 0 -21 10q-5 11 6 23q72 85 169 310q5 12 18 12h207q33 0 33 -64q0 -20 -10 -25q-82 -47 -117 -80zM274 1339v4q0 27 45 90q37 53 66 80q36 35 112 79l-6 22h-178q-44 -104 -63 -142
q-38 -77 -80 -133h104zM212 -20q-21 0 -21 14q0 12 23 47q26 39 30 52l6 79v807q0 85 -53 119l-104 39q-62 24 -76 78q-5 20 24 28l38 6h4h370q20 0 20 -20v-1058q0 -66 6 -86q9 -26 48 -72q11 -12 6 -23q-5 -10 -21 -10h-300zM251 20h219q-37 50 -37 151v1038h-348l-20 -4
q18 -26 81 -45q71 -21 97 -46q47 -42 47 -135l-7 -895q-8 -28 -32 -64z" />
    <glyph glyph-name="Icircumflex" unicode="&#xce;" horiz-adv-x="654" 
d="M417 1291q-23 0 -23 17q0 10 10 19l27 22l4 2q2 1 3 3l3 4q-22 29 -89 111q-63 -67 -65 -93l1 -6l5 -31l2 -11q7 -42 -14 -42q-9 0 -26 5h-219q-23 0 -23 17q0 11 11 19q57 43 161 142q28 33 68 76q29 32 76 92q15 20 31 1q97 -100 275 -315q23 -32 -16 -32h-202z
M254 1331l-1 2q-1 10 -4 32q-1 6 -2 9q0 27 40.5 85.5t67.5 58.5q8 0 13 -6q98 -119 114 -141q3 -4 3 -10q0 -26 -30 -45l-25 -21l-13 36h163q-18 23 -234 263q-30 -37 -65 -77q-20 -19 -66 -76q-74 -69 -122 -110h161zM215 -20q-21 0 -21 13t24 48q26 39 29 51l6 80v807
q0 85 -52 119q-1 0 -104 39q-63 23 -77 78q-6 20 24 28l38 6h4h370q20 0 20 -20v-1058q0 -66 6 -86q9 -26 48 -72q11 -12 6 -23q-5 -10 -21 -10h-300zM255 20h218q-37 50 -37 151v1038h-348l-20 -4q18 -25 81 -45q71 -21 97 -45q47 -43 47 -136l-7 -895q-7 -28 -31 -64z" />
    <glyph glyph-name="Idieresis" unicode="&#xcf;" horiz-adv-x="607" 
d="M470 1338q-118 -2 -124 94v3q-5 87 120 99q118 0 126 -94v-3q7 -96 -122 -99zM470 1378q81 2 82 57q-10 59 -84 59q-81 -8 -82 -58q8 -60 84 -58zM181 1338q-118 -2 -124 94v3q-6 92 119 99h2q117 6 125 -94v-3q7 -96 -122 -99zM181 1378q81 2 82 57q-10 59 -84 59
q-81 -9 -82 -58q8 -60 84 -58zM212 -20q-21 0 -21 14q0 12 23 47q26 39 30 52l6 79v807q0 85 -53 119l-104 39q-62 24 -76 78q-5 20 24 28l38 6h4h370q20 0 20 -20v-1058q0 -66 6 -86q9 -26 48 -72q11 -12 6 -23q-5 -10 -21 -10h-300zM251 20h219q-37 50 -37 151v1038h-348
l-20 -4q18 -26 81 -45q71 -21 97 -46q47 -42 47 -135l-7 -895q-8 -28 -32 -64z" />
    <glyph glyph-name="Eth" unicode="&#xd0;" horiz-adv-x="1465" 
d="M793 -53q-208 0 -330 81v-28q0 -35 -114 -35q-109 0 -109 34v476q-30 -6 -195 -89q-7 -3 -13 -3q-18 0 -18 17q0 7 5 15q67 104 92 134q60 72 129 97v366q0 25 156 107q113 60 188 92q88 38 262 38q276 0 443 -183q161 -177 161 -455q0 -290 -184 -477t-473 -187z
M1410 611q0 261 -150 426q-155 172 -414 172q-166 0 -246 -34q-149 -64 -320 -174v-370q0 -15 -15 -19q-82 -24 -171 -157q126 64 161 64q25 0 25 -20v-480l143 1v50q0 17 11 21q11 5 23 -7q49 -48 158 -75q91 -22 178 -22q273 0 445 175.5t172 448.5zM1102 955
q-109 158 -309 158q-131 0 -225 -68q-105 -75 -105 -202v-212q81 -24 128 -24q67 0 134 45q17 11 110 91q8 7 16 7q18 0 18 -18q0 -7 -3 -13q-79 -151 -117 -195q-82 -94 -199 -94q-33 0 -87 14v-269q118 -92 338 -92q185 0 298 179q97 154 97 349q0 206 -94 344zM1134 977
q102 -147 102 -366q0 -212 -108 -377q-124 -191 -327 -191q-245 0 -371 107q-5 4 -7 15v306q0 19 22 19q13 0 51 -10t54 -10q84 0 141 52q39 35 88 121q-92 -76 -188 -76q-57 0 -154 30q-14 4 -14 19v227q0 144 117 231q106 79 253 79q221 0 341 -176z" />
    <glyph glyph-name="Ntilde" unicode="&#xd1;" horiz-adv-x="1324" 
d="M999 1375q-58 -35 -117 -35q-22 0 -44 5l-2 1l-68 19l-88 36q-49 19 -91 19q-25 0 -53 -4l-129 -31q-4 -1 -8 -1q-20 0 -20 17q0 9 9 17q78 76 108 96q61 42 126 42q27 0 56 -6l2 -1l70 -20l106 -45q56 -9 87 -9q30 0 156 38q5 2 9 2q19 0 19 -17q0 -9 -7 -18
q-74 -77 -121 -105zM979 1409q23 14 55 43q-82 -25 -187 -7l-5 2l-107 45l-64 18q-22 4 -41 4q-77 0 -158 -72l57 14q22 4 60 4q72 0 195 -58l61 -17q73 -12 134 24zM1267 -26q-6 -2 -29 3l13 38q25 -13 25 -33q0 -16 -16 -16q-6 0 -13 3q-38 19 -87 75l-783 892v-629
q0 -86 52 -164q34 -51 117 -128q12 -12 8 -23q-5 -12 -22 -12h-337q-35 0 -17 30q64 108 64 195v878l-71 42q-25 7 -81 27l-2 1q-16 8 -42 29q-33 27 -33 42q0 11 20 14l88 11h270q12 -3 15 -7l768 -896v626q0 36 -5 50l-1 3q-9 24 -24 48l-106 83q-8 6 -8 16v57q0 20 20 20
h239q20 0 20 -20v-1164q0 -76 -42 -91zM1246 17l11 -3q12 11 12 51v1144h-199v-27l106 -85q17 -27 31 -63q7 -19 7 -62v-680q0 -17 -12 -22q-12 -4 -23 9l-797 930h-260l-37 -5q14 -11 20 -15q47 -17 79 -26l5 -2l83 -50q10 -6 10 -17v-889q0 -85 -53 -185h253
q-145 144 -145 287v682q0 17 12 22q12 4 23 -9l818 -932q31 -35 56 -53z" />
    <glyph glyph-name="Ograve" unicode="&#xd2;" horiz-adv-x="1477" 
d="M741 1299q-28 0 -12 43q0 12 -11 29q-82 127 -203 193q-10 6 -10 27q0 63 33 63h207q13 0 18 -12q55 -128 72 -162q44 -86 97 -148q11 -12 6 -23q-5 -10 -21 -10h-176zM741 1339h134q-58 77 -143 275h-178l-6 -22q121 -71 204 -199q18 -28 18 -50q0 -8 -11 -32zM1235 113
q-205 -166 -496 -166q-307 0 -510 177q-213 187 -213 491t213 490q203 177 510 177q306 0 510 -177q213 -186 213 -490q0 -317 -227 -502zM1209 145q213 172 213 470q0 287 -202 462q-191 165 -481 165t-481 -165q-202 -175 -202 -462q0 -288 201 -462q192 -166 482 -166
q276 0 470 158zM1061 1016q-131 131 -322 131q-228 0 -353 -156q-116 -144 -116 -376q0 -230 117 -375q126 -157 352 -157t352 157q117 145 117 375q0 254 -147 401zM1089 1044q159 -159 159 -429q0 -247 -128 -403q-138 -169 -381 -169t-381 169q-128 156 -128 403
q0 249 127 404q137 168 382 168q207 0 350 -143z" />
    <glyph glyph-name="Oacute" unicode="&#xd3;" horiz-adv-x="1477" 
d="M810 1485q-20 -20 -56 -68q-39 -53 -43 -72l1 -2l7 -16q13 -28 -18 -28h-176q-16 0 -21 10q-5 11 6 23q72 85 169 310q5 12 18 12h207q33 0 33 -63q0 -21 -10 -27q-79 -42 -117 -79zM671 1339v4q0 27 45 90q37 52 66 80q39 38 112 79l-6 22h-178q-44 -104 -63 -142
q-38 -77 -80 -133h104zM1235 113q-205 -166 -496 -166q-307 0 -510 177q-213 187 -213 491t213 490q203 177 510 177q306 0 510 -177q213 -186 213 -490q0 -317 -227 -502zM1209 145q213 172 213 470q0 287 -202 462q-191 165 -481 165t-481 -165q-202 -175 -202 -462
q0 -288 201 -462q192 -166 482 -166q276 0 470 158zM1061 1016q-131 131 -322 131q-228 0 -353 -156q-116 -144 -116 -376q0 -230 117 -375q126 -157 352 -157t352 157q117 145 117 375q0 254 -147 401zM1089 1044q159 -159 159 -429q0 -247 -128 -403q-138 -169 -381 -169
t-381 169q-128 156 -128 403q0 249 127 404q137 168 382 168q207 0 350 -143z" />
    <glyph glyph-name="Ocircumflex" unicode="&#xd4;" horiz-adv-x="1477" 
d="M811 1291q-23 0 -23 17q0 10 10 19l30 23q1 2 3 4l3 4q-22 29 -89 111q-64 -70 -64 -95q0 1 5 -34l1 -2l1 -11q4 -42 -14 -42q-8 0 -25 6h-220q-23 0 -23 18q0 10 11 18q58 43 161 142q28 33 68 76q29 32 76 92q16 20 32 0q97 -99 275 -315q21 -31 -17 -31h-201z
M647 1331v2q-6 27 -6 41q0 27 40 85.5t67 58.5q8 0 13 -6q98 -119 114 -141q3 -4 3 -10q0 -26 -28 -44l-26 -22l-13 36h162q-42 56 -114 134q-111 118 -120 129q-30 -37 -65 -77q-20 -19 -66 -76q-73 -69 -122 -110h161zM1235 113q-205 -166 -496 -166q-307 0 -510 177
q-213 187 -213 491t213 490q203 177 510 177q306 0 510 -177q213 -186 213 -490q0 -317 -227 -502zM1209 145q213 172 213 470q0 287 -202 462q-191 165 -481 165t-481 -165q-202 -175 -202 -462q0 -288 201 -462q192 -166 482 -166q276 0 470 158zM1061 1016
q-131 131 -322 131q-228 0 -353 -156q-116 -144 -116 -376q0 -230 117 -375q126 -157 352 -157t352 157q117 145 117 375q0 254 -147 401zM1089 1044q159 -159 159 -429q0 -247 -128 -403q-138 -169 -381 -169t-381 169q-128 156 -128 403q0 249 127 404q137 168 382 168
q207 0 350 -143z" />
    <glyph glyph-name="Otilde" unicode="&#xd5;" horiz-adv-x="1477" 
d="M966 1375q-58 -35 -117 -35q-22 0 -44 5l-2 1l-68 19l-88 36q-49 19 -91 19q-25 0 -53 -4l-129 -31q-4 -1 -8 -1q-20 0 -20 17q0 9 9 17q78 76 108 96q61 42 126 42q27 0 56 -6l2 -1l70 -20l106 -45q56 -9 87 -9q30 0 156 38q5 2 9 2q19 0 19 -17q0 -9 -7 -18
q-74 -77 -121 -105zM946 1409q23 14 55 43q-82 -25 -187 -7l-5 2l-107 45l-64 18q-22 4 -41 4q-77 0 -158 -72l57 14q22 4 60 4q72 0 195 -58l61 -17q73 -12 134 24zM1235 113q-205 -166 -496 -166q-307 0 -510 177q-213 187 -213 491t213 490q203 177 510 177
q306 0 510 -177q213 -186 213 -490q0 -317 -227 -502zM1209 145q213 172 213 470q0 287 -202 462q-191 165 -481 165t-481 -165q-202 -175 -202 -462q0 -288 201 -462q192 -166 482 -166q276 0 470 158zM1061 1016q-131 131 -322 131q-228 0 -353 -156q-116 -144 -116 -376
q0 -230 117 -375q126 -157 352 -157t352 157q117 145 117 375q0 254 -147 401zM1089 1044q159 -159 159 -429q0 -247 -128 -403q-138 -169 -381 -169t-381 169q-128 156 -128 403q0 249 127 404q137 168 382 168q207 0 350 -143z" />
    <glyph glyph-name="Odieresis" unicode="&#xd6;" horiz-adv-x="1477" 
d="M866 1338q-117 -2 -124 94v3q-6 86 120 99q119 0 126 -94v-3q7 -96 -122 -99zM866 1378q81 2 82 58q-9 58 -84 58q-81 -8 -82 -58q9 -60 84 -58zM577 1338q-117 -2 -124 94v3q-6 92 119 99h2q118 6 125 -94v-3q7 -96 -122 -99zM577 1378q81 2 82 58q-9 58 -84 58
q-81 -9 -82 -58q9 -60 84 -58zM1235 113q-205 -166 -496 -166q-307 0 -510 177q-213 187 -213 491t213 490q203 177 510 177q306 0 510 -177q213 -186 213 -490q0 -317 -227 -502zM1209 145q213 172 213 470q0 287 -202 462q-191 165 -481 165t-481 -165
q-202 -175 -202 -462q0 -288 201 -462q192 -166 482 -166q276 0 470 158zM1061 1016q-131 131 -322 131q-228 0 -353 -156q-116 -144 -116 -376q0 -230 117 -375q126 -157 352 -157t352 157q117 145 117 375q0 254 -147 401zM1089 1044q159 -159 159 -429q0 -247 -128 -403
q-138 -169 -381 -169t-381 169q-128 156 -128 403q0 249 127 404q137 168 382 168q207 0 350 -143z" />
    <glyph glyph-name="multiply" unicode="&#xd7;" horiz-adv-x="539" 
d="M482 352q-10 -31 -33 -8l-185 185l-199 -199q-12 -12 -23 -7t-11 21l4 183q2 9 6 14l105 106l-124 124q-8 8 -5 19q13 55 26 109q11 37 24 37q15 0 59 -46q64 -67 129 -134l196 195q12 12 23 7q11 -4 11 -21l-3 -182q-3 -11 -6 -14l-103 -103l145 -144q9 -9 5 -20z
M454 395l27 80l-150 149q-5 5 -5 12q0 22 47 66q35 31 69 61l2 125l-175 -174q-14 -14 -28 0l-161 161l-22 -84q4 -4 101 -95q34 -31 34 -47t-30 -45q-44 -43 -88 -85l-3 -126l178 178q6 6 14 6t14 -6z" />
    <glyph glyph-name="Oslash" unicode="&#xd8;" horiz-adv-x="1477" 
d="M1023 1293v1l-16 25q-26 53 -26 59q0 12 8 17q41 26 63 26h213q35 0 17 -30l-128 -216q147 -85 229 -237q79 -147 79 -321q0 -307 -213 -493q-203 -176 -512 -176q-150 0 -282 48q-16 -34 -27 -78q-3 -16 -19 -16h-167q-20 0 -20 10t25 46q44 62 62 91l8 13
q-301 182 -301 555q0 313 207 495q198 173 514 173q139 0 274 -45zM1205 142q217 173 217 475q0 169 -79 310q-81 145 -227 223q-18 10 -7 28l121 203h-178q-6 0 -26 -11l15 -31l16 -25q7 -10 7 -17v-3l-1 -4l-16 -69q-10 -32 -31 -25q-137 49 -279 49q-300 0 -485 -162
q-196 -170 -196 -466q0 -360 299 -531q10 -5 10 -16q0 -12 -23 -44l-61 -84h112q26 99 54 99q4 0 6 -1q132 -52 284 -52q277 0 468 154zM1114 954q-20 31 -54 63l-529 -884q99 -49 206 -49q219 0 350 161q121 149 121 372q0 196 -94 337zM1148 976q100 -151 100 -359
q0 -239 -133 -400q-143 -173 -378 -173q-117 0 -243 63q-19 10 -8 28l553 924q5 10 15 10q32 0 94 -93zM911 1118q-62 31 -174 31q-224 0 -351 -158q-116 -146 -116 -374q0 -256 143 -399l529 885zM929 1154q61 -31 61 -44q0 -4 -3 -9l-553 -925q-12 -21 -30 -5
q-174 157 -174 446q0 245 128 402q138 170 379 170q122 0 192 -35z" />
    <glyph glyph-name="Ugrave" unicode="&#xd9;" horiz-adv-x="1255" 
d="M648 1299q-28 0 -12 43q0 12 -11 29q-82 127 -203 193q-10 6 -10 27q0 63 33 63h207q13 0 18 -12q55 -128 72 -162q44 -86 97 -148q11 -12 6 -23q-5 -10 -21 -10h-176zM648 1339h134q-58 77 -143 275h-178l-6 -22q121 -71 204 -199q18 -28 18 -50q0 -8 -11 -32z
M1017 1059q24 -34 116 -145q107 -161 107 -318q0 -263 -143 -442q-170 -210 -451 -196q-19 1 -56 -1q-261 -14 -431 197q-143 179 -143 442q0 157 107 318q91 111 116 145q-6 8 -77 69q-55 48 -55 70q0 6 4 11q36 40 65 40h258q54 0 54 -38v-29q-3 -11 -6 -14
q-212 -204 -212 -572q0 -224 97 -351q70 -92 106 -116q53 -36 155 -41q107 5 153 36q31 21 108 121q97 126 97 351q0 368 -212 572q-4 3 -6 14v29q0 38 54 38h258q17 0 43.5 -18.5t26.5 -35.5q0 -8 -6 -13q-45 -39 -127 -123zM1065 180q135 167 135 416q0 145 -99 294
q-127 154 -127 167q0 18 29 45l98 94q-14 13 -21 13h-258q-7 0 -12 -1l-2 -3v-15q218 -214 218 -594q0 -239 -105 -375q-81 -106 -117 -130q-55 -37 -176 -43q-113 5 -174 45q-43 29 -119 128q-105 137 -105 375q0 380 218 594v15l-2 3q-5 1 -12 1h-258q-7 0 -21 -13
q42 -35 117 -115q10 -13 10 -24q0 -12 -127 -167q-99 -149 -99 -294q0 -249 135 -416q156 -196 416 -182q20 1 41 0q261 -13 417 182z" />
    <glyph glyph-name="Uacute" unicode="&#xda;" horiz-adv-x="1255" 
d="M723 1485q-20 -19 -56 -68q-39 -54 -43 -72l1 -2l7 -16q13 -28 -18 -28h-176q-16 0 -21 10q-5 11 6 23q72 85 169 310q5 12 18 12h207q33 0 33 -64q0 -20 -10 -25q-82 -47 -117 -80zM584 1339v4q0 27 45 90q37 53 66 80q36 35 112 79l-6 22h-178q-44 -104 -63 -142
q-38 -77 -80 -133h104zM1017 1059q24 -34 116 -145q107 -161 107 -318q0 -263 -143 -442q-170 -210 -451 -196q-19 1 -56 -1q-261 -14 -431 197q-143 179 -143 442q0 157 107 318q91 111 116 145q-6 8 -77 69q-55 48 -55 70q0 6 4 11q36 40 65 40h258q54 0 54 -38v-29
q-3 -11 -6 -14q-212 -204 -212 -572q0 -224 97 -351q70 -92 106 -116q53 -36 155 -41q107 5 153 36q31 21 108 121q97 126 97 351q0 368 -212 572q-4 3 -6 14v29q0 38 54 38h258q17 0 43.5 -18.5t26.5 -35.5q0 -8 -6 -13q-45 -39 -127 -123zM1065 180q135 167 135 416
q0 145 -99 294q-127 154 -127 167q0 18 29 45l98 94q-14 13 -21 13h-258q-7 0 -12 -1l-2 -3v-15q218 -214 218 -594q0 -239 -105 -375q-81 -106 -117 -130q-55 -37 -176 -43q-113 5 -174 45q-43 29 -119 128q-105 137 -105 375q0 380 218 594v15l-2 3q-5 1 -12 1h-258
q-7 0 -21 -13q42 -35 117 -115q10 -13 10 -24q0 -12 -127 -167q-99 -149 -99 -294q0 -249 135 -416q156 -196 416 -182q20 1 41 0q261 -13 417 182z" />
    <glyph glyph-name="Ucircumflex" unicode="&#xdb;" horiz-adv-x="1255" 
d="M724 1291q-23 0 -23 17q0 10 10 19l27 22l4 2l3 3l3 4q-23 29 -89 111q-63 -67 -65 -93l1 -6l5 -31l2 -11q7 -42 -14 -42q-9 0 -26 5h-220q-23 0 -23 18q0 10 11 18q58 43 162 142q28 33 68 76q31 34 75 92q15 20 31 1q98 -100 276 -316q22 -31 -16 -31h-202zM561 1331
l-1 2q-1 10 -4 32q-1 6 -2 9q0 27 40.5 85.5t67.5 58.5q8 0 14 -6q96 -119 112 -141q3 -4 3 -10q0 -27 -29 -45l-25 -21l-13 36h163q-25 33 -235 263q-29 -37 -64 -77q-20 -19 -66 -76q-74 -69 -123 -110h162zM1017 1059q24 -34 116 -145q107 -161 107 -318
q0 -263 -143 -442q-170 -210 -451 -196q-19 1 -56 -1q-261 -14 -431 197q-143 179 -143 442q0 157 107 318q91 111 116 145q-6 8 -77 69q-55 48 -55 70q0 6 4 11q36 40 65 40h258q54 0 54 -38v-29q-3 -11 -6 -14q-212 -204 -212 -572q0 -224 97 -351q70 -92 106 -116
q53 -36 155 -41q107 5 153 36q31 21 108 121q97 126 97 351q0 368 -212 572q-4 3 -6 14v29q0 38 54 38h258q17 0 43.5 -18.5t26.5 -35.5q0 -8 -6 -13q-45 -39 -127 -123zM1065 180q135 167 135 416q0 145 -99 294q-127 154 -127 167q0 18 29 45l98 94q-14 13 -21 13h-258
q-7 0 -12 -1l-2 -3v-15q218 -214 218 -594q0 -239 -105 -375q-81 -106 -117 -130q-55 -37 -176 -43q-113 5 -174 45q-43 29 -119 128q-105 137 -105 375q0 380 218 594v15l-2 3q-5 1 -12 1h-258q-7 0 -21 -13q42 -35 117 -115q10 -13 10 -24q0 -12 -127 -167
q-99 -149 -99 -294q0 -249 135 -416q156 -196 416 -182q20 1 41 0q261 -13 417 182z" />
    <glyph glyph-name="Udieresis" unicode="&#xdc;" horiz-adv-x="1255" 
d="M780 1338q-118 -2 -124 94v3q-5 87 120 99q118 0 126 -94v-3q7 -96 -122 -99zM780 1378q81 2 82 57q-10 59 -84 59q-81 -8 -82 -58q8 -60 84 -58zM491 1338q-118 -2 -124 94v3q-6 92 119 99h2q117 6 125 -94v-3q7 -96 -122 -99zM491 1378q81 2 82 57q-10 59 -84 59
q-81 -9 -82 -58q8 -60 84 -58zM1017 1059q24 -34 116 -145q107 -161 107 -318q0 -263 -143 -442q-170 -210 -451 -196q-19 1 -56 -1q-261 -14 -431 197q-143 179 -143 442q0 157 107 318q91 111 116 145q-6 8 -77 69q-55 48 -55 70q0 6 4 11q36 40 65 40h258q54 0 54 -38
v-29q-3 -11 -6 -14q-212 -204 -212 -572q0 -224 97 -351q70 -92 106 -116q53 -36 155 -41q107 5 153 36q31 21 108 121q97 126 97 351q0 368 -212 572q-4 3 -6 14v29q0 38 54 38h258q17 0 43.5 -18.5t26.5 -35.5q0 -8 -6 -13q-45 -39 -127 -123zM1065 180q135 167 135 416
q0 145 -99 294q-127 154 -127 167q0 18 29 45l98 94q-14 13 -21 13h-258q-7 0 -12 -1l-2 -3v-15q218 -214 218 -594q0 -239 -105 -375q-81 -106 -117 -130q-55 -37 -176 -43q-113 5 -174 45q-43 29 -119 128q-105 137 -105 375q0 380 218 594v15l-2 3q-5 1 -12 1h-258
q-7 0 -21 -13q42 -35 117 -115q10 -13 10 -24q0 -12 -127 -167q-99 -149 -99 -294q0 -249 135 -416q156 -196 416 -182q20 1 41 0q261 -13 417 182z" />
    <glyph glyph-name="Yacute" unicode="&#xdd;" horiz-adv-x="1308" 
d="M898 1372q-151 -104 -317 -152q-26 -8 -26 19q0 57 104 165q100 105 167 127l6 1q41 0 71.5 -29t30.5 -70q-4 -44 -36 -61zM879 1407q13 8 15 28q-1 54 -59 57q-46 -16 -129 -98q-79 -79 -103 -126q87 25 274 137zM391 -196q15 -7 24 -14l66 -22q39 -17 46 -46
q6 -25 -19 -25l-327 -6q-14 0 -19 9q-6 9 2 22l376 599l-145 268l-212 404l-163 229q-23 32 16 32h392q15 0 39 -19t24 -36q0 -7 -7 -13q-60 -47 -60 -82q0 -106 258 -561l172 248q149 223 156 282q-4 38 -65.5 87.5t-61.5 58.5t21 14l72 14h297q38 0 16 -31
q-250 -361 -866 -1356q-12 -18 -32 -56zM425 1214h-350l143 -202l363 -683q5 -10 -1 -20l-362 -577l232 4q-36 11 -52 17l-6 4q-7 6 -23 12l-5 3q-15 11 -15 29q0 16 40 81q363 586 415 667q238 378 431 658h-257l-21 -4q93 -71 93 -128v-4q0 -68 -163 -309
q-95 -134 -191 -268q-18 -27 -33 1q-279 489 -279 609q0 48 57 98q-5 4 -16 12z" />
    <glyph glyph-name="Thorn" unicode="&#xde;" horiz-adv-x="1040" 
d="M615 200h-230v-30q0 -66 6 -86q9 -26 48 -72q11 -12 6 -23q-5 -10 -21 -10h-300q-15 0 -20 10t4 22q38 50 48 81l6 79v797q0 54 -53 54q-3 0 -29.5 -4.5t-40.5 -4.5q-26 0 -26 13q0 6 6 16q48 76 152 117q53 20 190 49q24 5 24 -20v-224l230 1q177 1 291 -101
q119 -106 119 -282q0 -178 -117 -282q-113 -100 -293 -100zM880 329q105 93 105 253q0 159 -107 253q-102 91 -263 90l-250 -1q-20 0 -20 20v219q-100 -21 -137 -34q-78 -25 -122 -69q13 2 23 2q93 0 93 -94l-7 -886q-8 -27 -32 -63h219q-37 50 -37 151v50q0 20 20 20h250
q164 0 265 89zM765 764q-52 83 -150 83h-230v-529h229q101 0 154 86q44 71 44 178q0 108 -47 182zM852 582q0 -124 -55 -207q-64 -97 -183 -97h-249q-20 0 -20 20v569q0 20 20 20h250q118 0 182 -98q55 -83 55 -207z" />
    <glyph glyph-name="germandbls" unicode="&#xdf;" horiz-adv-x="1045" 
d="M74 1154q-10 7 -10 19q0 29 137 85q181 73 230 73q144 0 233 -98q87 -94 87 -239q0 -110 -88 -203l-123 -99l310 -202q179 -137 179 -303q0 -149 -121 -235q-80 -57 -132 -72q-47 -14 -144 -14q-163 0 -269 84q-93 74 -93 280q0 23 50 23q57 0 128.5 -24t71.5 -46l-1 -75
q5 -41 45 -68q37 -26 80 -26q61 0 100.5 42.5t39.5 103.5q0 119 -114 199q-58 39 -229 158q-132 90 -132 205q0 13 51 45q66 41 95 73q51 56 51 128q0 63 -28 122q-34 72 -91 72q-69 0 -111 -92q-34 -73 -34 -151v-914q-3 -12 -7 -15l-185 -164q-12 -11 -22 -6q-11 5 -11 21
v1075q0 5 -1 14.5t-1 14.5q-1 120 59 209zM485 109l-6 4l1 12v42l-170 38q5 -166 77 -223q96 -76 245 -76q92 0 133 12q45 14 119 66q105 74 105 203q0 183 -257 337q-219 131 -239 157q-3 4 -3 10q0 26 69 78l76 52q76 80 76 173q0 128 -75 211q-78 86 -205 86
q-31 0 -172.5 -53.5t-156.5 -72.5q0 2 2 8q-8 2 -8 14q4 -1 12 -1q16 0 21 -10q4 -10 -5 -23q-70 -84 -70 -193q0 -8 1.5 -22.5t1.5 -21.5v-1031l145 129v905q0 96 43 180q53 103 142 103q76 0 121 -83q38 -69 38 -151q0 -152 -197 -258q7 -87 114 -161l229 -158
q132 -91 132 -231q0 -78 -51 -132t-129 -54q-60 0 -110 38t-55 96z" />
    <glyph glyph-name="agrave" unicode="&#xe0;" horiz-adv-x="798" 
d="M399 849q-29 0 -11 44q0 16 -41 72q-36 50 -57 70q-35 33 -117 80q-10 5 -10 25q0 64 33 64h207q13 0 18 -12q55 -127 72 -162q43 -85 97 -148q11 -12 6 -23q-5 -10 -21 -10h-176zM399 889h134q-59 78 -143 275h-178l-6 -22q78 -45 117 -84q34 -34 87 -115q19 -30 19 -50
q0 -9 -12 -33zM688 104l6 -9l3 -5q20 -56 71 -70q18 -4 18 -20q0 -19 -23 -19h-204q-47 0 -69 59q-104 -68 -193 -68q-119 0 -195 55q-86 63 -86 178q0 151 97 220q49 34 201 75q130 35 170 90q-72 36 -163 36q-87 0 -224 -36q-4 -1 -8 -1q-20 0 -20 17q0 9 9 18
q129 119 328 119q115 0 201 -35l3 -1q78 -32 78 -126v-477zM559 21h133q-20 21 -32 52q-12 17 -12 28v480q0 63 -55 89q-97 33 -187 33q-127 0 -222 -52q78 15 137 15q39 0 113 -16q98 -22 98 -52q0 -5 -2 -10q-33 -61 -104 -92q-123 -40 -246 -79q-124 -56 -124 -212
q0 -98 75 -149q64 -44 166 -44q89 0 202 84q8 6 16 6q17 0 17 -18q0 8 -7 -24q1 -11 12.5 -25t21.5 -14zM492 460q-37 -28 -81 -44q-121 -42 -134 -51q-48 -32 -48 -114q0 -115 111 -115q71 0 152 63v261zM532 505v-316q0 -32 -81 -65q-71 -28 -111 -28q-151 0 -151 155
q0 93 55 138q27 21 124 56q88 31 130 74q11 12 23 7q11 -4 11 -21z" />
    <glyph glyph-name="aacute" unicode="&#xe1;" horiz-adv-x="798" 
d="M468 1035q-20 -19 -56 -68q-39 -54 -43 -72l1 -2l7 -16q13 -28 -18 -28h-176q-16 0 -21 10q-5 11 6 23q72 85 169 310q5 12 18 12h207q33 0 33 -64q0 -20 -10 -25q-82 -47 -117 -80zM329 889v4q0 27 45 90q37 53 66 80q36 35 112 79l-6 22h-178q-44 -104 -63 -142
q-38 -77 -80 -133h104zM688 104l6 -9l3 -5q20 -56 71 -70q18 -4 18 -20q0 -19 -23 -19h-204q-47 0 -69 59q-104 -68 -193 -68q-119 0 -195 55q-86 63 -86 178q0 151 97 220q49 34 201 75q130 35 170 90q-72 36 -163 36q-87 0 -224 -36q-4 -1 -8 -1q-20 0 -20 17q0 9 9 18
q129 119 328 119q115 0 201 -35l3 -1q78 -32 78 -126v-477zM559 21h133q-20 21 -32 52q-12 17 -12 28v480q0 63 -55 89q-97 33 -187 33q-127 0 -222 -52q78 15 137 15q39 0 113 -16q98 -22 98 -52q0 -5 -2 -10q-33 -61 -104 -92q-123 -40 -246 -79q-124 -56 -124 -212
q0 -98 75 -149q64 -44 166 -44q89 0 202 84q8 6 16 6q17 0 17 -18q0 8 -7 -24q1 -11 12.5 -25t21.5 -14zM492 460q-37 -28 -81 -44q-121 -42 -134 -51q-48 -32 -48 -114q0 -115 111 -115q71 0 152 63v261zM532 505v-316q0 -32 -81 -65q-71 -28 -111 -28q-151 0 -151 155
q0 93 55 138q27 21 124 56q88 31 130 74q11 12 23 7q11 -4 11 -21z" />
    <glyph glyph-name="acircumflex" unicode="&#xe2;" horiz-adv-x="798" 
d="M469 859q-23 0 -23 17q0 11 11 19l28 21q3 3 8 10q-23 29 -89 111q-63 -68 -65 -94l6 -37l2 -10q4 -43 -15 -43q-8 0 -22 4l-4 2h-219q-23 0 -23 18q0 10 11 18q58 42 162 142q28 33 68 76q31 34 75 92q15 20 31 1q98 -100 276 -316q22 -31 -16 -31h-202zM306 897l-1 3
l-6 42q-2 26 39 85t69 59q8 0 14 -6q96 -119 112 -141q3 -4 3 -10q0 -23 -28 -45l-27 -21l-12 36h163q-25 33 -235 263q-29 -37 -64 -77q-20 -19 -66 -76q-73 -69 -122 -110q116 0 161 -2zM688 104l6 -9l3 -5q20 -56 71 -70q18 -4 18 -20q0 -19 -23 -19h-204q-47 0 -69 59
q-104 -68 -193 -68q-119 0 -195 55q-86 63 -86 178q0 151 97 220q49 34 201 75q130 35 170 90q-72 36 -163 36q-87 0 -224 -36q-4 -1 -8 -1q-20 0 -20 17q0 9 9 18q129 119 328 119q115 0 201 -35l3 -1q78 -32 78 -126v-477zM559 21h133q-20 21 -32 52q-12 17 -12 28v480
q0 63 -55 89q-97 33 -187 33q-127 0 -222 -52q78 15 137 15q39 0 113 -16q98 -22 98 -52q0 -5 -2 -10q-33 -61 -104 -92q-123 -40 -246 -79q-124 -56 -124 -212q0 -98 75 -149q64 -44 166 -44q89 0 202 84q8 6 16 6q17 0 17 -18q0 8 -7 -24q1 -11 12.5 -25t21.5 -14z
M492 460q-37 -28 -81 -44q-121 -42 -134 -51q-48 -32 -48 -114q0 -115 111 -115q71 0 152 63v261zM532 505v-316q0 -32 -81 -65q-71 -28 -111 -28q-151 0 -151 155q0 93 55 138q27 21 124 56q88 31 130 74q11 12 23 7q11 -4 11 -21z" />
    <glyph glyph-name="atilde" unicode="&#xe3;" horiz-adv-x="806" 
d="M633 900q-57 -35 -117 -35q-22 0 -44 5l-2 1l-68 19l-88 36q-50 19 -91 19q-26 0 -54 -4l-128 -31q-4 -1 -8 -1q-20 0 -20 17q0 9 9 17q76 74 108 96q61 42 126 42q27 0 56 -6l3 -1l68 -20l107 -45q71 -11 113 -9h2q1 0 4 2l26 7q20 6 97 29q5 2 9 2q19 0 19 -17
q0 -9 -7 -18q-75 -79 -120 -105zM607 960v0q-40 -4 -126 10l-5 2l-108 45l-63 18q-21 4 -40 4q-79 0 -159 -72l56 14q22 4 61 4q71 0 195 -58l61 -17q19 -3 36 -3q75 0 152 70l-54 -16q-3 -1 -6 -1zM695 104l6 -9l3 -5q20 -56 71 -70q18 -4 18 -20q0 -19 -23 -19h-204
q-47 0 -70 59q-103 -68 -192 -68q-117 0 -194 56q-87 63 -87 177q0 151 97 220q49 34 202 75q130 35 169 90q-71 36 -163 36q-87 0 -224 -36q-4 -1 -8 -1q-20 0 -20 17q0 9 9 18q130 119 328 119q115 0 201 -35l3 -1q78 -32 78 -126v-477zM566 21h133q-20 21 -32 52
q-12 17 -12 28v480q0 63 -55 89q-96 33 -187 33q-126 0 -222 -52q78 15 137 15q115 0 201 -52q17 -10 8 -26q-42 -79 -171 -117q-179 -52 -204 -67q-99 -58 -99 -199q0 -96 75 -148q66 -45 166 -45q89 0 202 84q9 7 16 7q12 0 15 -17q2 -15 -5 -27q1 -10 12.5 -24t21.5 -14z
M499 460q-37 -28 -81 -44q-119 -41 -133 -51q-49 -33 -49 -114q0 -115 111 -115q71 0 152 63v261zM539 505v-316q0 -32 -81 -65q-71 -28 -111 -28q-151 0 -151 155q0 93 56 138q27 21 124 55q88 31 128 75q12 12 24 8q11 -5 11 -22z" />
    <glyph glyph-name="adieresis" unicode="&#xe4;" horiz-adv-x="798" 
d="M525 883q-118 -2 -124 94v3q-5 87 120 99q118 0 126 -94v-3q7 -96 -122 -99zM525 923q81 2 82 57q-10 59 -84 59q-81 -8 -82 -58q8 -60 84 -58zM236 883q-118 -2 -124 94v3q-6 92 119 99h2q117 6 125 -94v-3q7 -96 -122 -99zM236 923q81 2 82 57q-10 59 -84 59
q-81 -9 -82 -58q8 -60 84 -58zM688 104l6 -9l3 -5q20 -56 71 -70q18 -4 18 -20q0 -19 -23 -19h-204q-47 0 -69 59q-104 -68 -193 -68q-119 0 -195 55q-86 63 -86 178q0 151 97 220q49 34 201 75q130 35 170 90q-72 36 -163 36q-87 0 -224 -36q-4 -1 -8 -1q-20 0 -20 17
q0 9 9 18q129 119 328 119q115 0 201 -35l3 -1q78 -32 78 -126v-477zM559 21h133q-20 21 -32 52q-12 17 -12 28v480q0 63 -55 89q-97 33 -187 33q-127 0 -222 -52q78 15 137 15q39 0 113 -16q98 -22 98 -52q0 -5 -2 -10q-33 -61 -104 -92q-123 -40 -246 -79
q-124 -56 -124 -212q0 -98 75 -149q64 -44 166 -44q89 0 202 84q8 6 16 6q17 0 17 -18q0 8 -7 -24q1 -11 12.5 -25t21.5 -14zM492 460q-37 -28 -81 -44q-121 -42 -134 -51q-48 -32 -48 -114q0 -115 111 -115q71 0 152 63v261zM532 505v-316q0 -32 -81 -65q-71 -28 -111 -28
q-151 0 -151 155q0 93 55 138q27 21 124 56q88 31 130 74q11 12 23 7q11 -4 11 -21z" />
    <glyph glyph-name="aring" unicode="&#xe5;" horiz-adv-x="798" 
d="M688 104l6 -9l3 -5q20 -56 71 -70q18 -4 18 -20q0 -19 -23 -19h-204q-47 0 -69 59q-104 -68 -193 -68q-119 0 -195 55q-86 63 -86 178q0 151 97 220q49 34 201 75q130 35 170 90q-72 36 -163 36q-87 0 -224 -36q-4 -1 -8 -1q-20 0 -20 17q0 9 9 18q129 119 328 119
q115 0 201 -35l3 -1q78 -32 78 -126v-477zM559 21h133q-20 21 -32 52q-12 17 -12 28v480q0 63 -55 89q-97 33 -187 33q-127 0 -222 -52q78 15 137 15q39 0 113 -16q98 -22 98 -52q0 -5 -2 -10q-33 -61 -104 -92q-123 -40 -246 -79q-124 -56 -124 -212q0 -98 75 -149
q64 -44 166 -44q89 0 202 84q8 6 16 6q17 0 17 -18q0 8 -7 -24q1 -11 12.5 -25t21.5 -14zM492 460q-37 -28 -81 -44q-121 -42 -134 -51q-48 -32 -48 -114q0 -115 111 -115q71 0 152 63v261zM532 505v-316q0 -32 -81 -65q-71 -28 -111 -28q-151 0 -151 155q0 93 55 138
q27 21 124 56q88 31 130 74q11 12 23 7q11 -4 11 -21z" />
    <glyph glyph-name="ae" unicode="&#xe6;" horiz-adv-x="1290" 
d="M711 351q3 -105 66 -178q67 -78 170 -78q89 0 170 54q77 51 120 132q7 13 19 13q19 0 19 -20q0 -4 -1 -9q-108 -303 -385 -303q-121 0 -219 69q-20 -12 -56 -38q-1 8 4 12l-3 11l-3 3l-6 -39q-52 1 -72 8q-34 12 -46 51q-103 -67 -191 -67q-119 0 -195 55q-86 63 -86 178
q0 151 97 220q49 34 201 75q130 35 170 90q-72 36 -163 36q-87 0 -224 -36q-4 -1 -8 -1q-20 0 -20 17q0 9 9 18q129 119 328 119q116 0 201 -35l3 -1q29 -12 51 -41q92 61 220 61q133 0 215 -69q72 -61 120 -193q8 -23 -15 -27zM585 20l2 2q52 52 88 52q4 0 7 -2
q92 -70 207 -70q169 0 268 127q-99 -74 -210 -74q-123 0 -202 94q-74 88 -74 213v6q0 17 16 20l483 85q-44 110 -106 159q-69 55 -183 55q-127 0 -213 -65q-6 -4 -11 -4q-9 0 -27 20q-21 25 -37 32q-97 33 -187 33q-127 0 -222 -52q78 15 137 15q39 0 113 -16q98 -22 98 -52
q0 -5 -2 -10q-33 -61 -104 -92q-123 -40 -246 -79q-124 -56 -124 -212q0 -98 75 -149q64 -44 166 -44q89 0 202 84q8 6 16 6q17 0 17 -18q0 -5 -2 -10q-7 -24 5.5 -38.5t49.5 -15.5zM873 610q-81 0 -124 -68l-28 -65l276 55q-32 78 -124 78zM972 620q57 -37 71 -99
q4 -20 -16 -24l-336 -67q-15 -3 -22 6q-6 8 0 22q13 34 44 101l1 3q47 89 155 89q57 0 103 -31zM705 352q-3 -19 -20 -19q-20 0 -20 22q0 33 25 33q21 0 17 -24zM665 358l2 12l39 -12q-1 -2 -1 -3zM492 460q-37 -28 -81 -44q-121 -42 -134 -51q-48 -32 -48 -114
q0 -115 111 -115q71 0 152 63v261zM532 505v-316q0 -32 -81 -65q-71 -28 -111 -28q-151 0 -151 155q0 93 55 138q27 21 124 56q88 31 130 74q11 12 23 7q11 -4 11 -21z" />
    <glyph glyph-name="ccedilla" unicode="&#xe7;" horiz-adv-x="753" 
d="M319 -43q-18 5 -16 18q-140 32 -216 144q-71 106 -71 256q0 159 129 260q119 92 282 92q74 0 175 -41q120 -49 120 -111q0 -27 -69 -74q-51 -35 -89 -52q-8 -4 -14 -4q-13 0 -13 18q0 9 4.5 28.5t4.5 22.5q0 44 -45 72q-39 23 -86 23q-93 0 -144 -87q-42 -71 -42 -170
q0 -108 66 -181q68 -76 175 -76q57 0 128 40q66 36 104 84q8 9 19 9q18 0 18 -19q0 -5 -2 -10q-68 -181 -218 -224l15 19v-6l-17 -17q2 1 8 1q-9 -13 -9 -24q0 -21 -20 -21t-20 21q0 35 29 35q30 0 88.5 -71t58.5 -99q0 -158 -297 -158q-47 0 -92 26q-52 31 -52 75q0 7 1 14
q3 15 14 18t21 -9q28 -34 81 -34q75 0 111 58q6 9 6 18q0 24 -118 106l-15 11q1 19 7 19zM682 577q-4 39 -111 77q-92 33 -144 33q-146 0 -253 -81q-118 -89 -118 -231q0 -143 68 -239q73 -102 208 -126q33 -6 9 -43l10 -7q134 -94 134 -139q0 -51 -55 -86q-48 -30 -102 -30
q-12 0 -24 1q28 -11 51 -11q257 0 257 118q0 14 -41 63q-37 43 -57 59l-1 2q-7 -13 -22 -9q-15 3 -15 20q0 30 19 51q3 8 58 35q61 30 99 86q-98 -65 -182 -65q-124 0 -204 88q-77 85 -77 209q0 116 53 199q62 98 173 98q64 0 114 -34q57 -39 57 -101v-8q78 48 96 71z" />
    <glyph glyph-name="egrave" unicode="&#xe8;" horiz-adv-x="808" 
d="M423 849q-29 0 -11 44q0 16 -41 72q-36 50 -57 70q-35 33 -117 80q-10 5 -10 25q0 64 33 64h207q13 0 18 -12q55 -127 72 -162q43 -85 97 -148q11 -12 6 -23q-5 -10 -21 -10h-176zM423 889h134q-59 78 -143 275h-178l-6 -22q78 -45 117 -84q34 -34 87 -115q19 -30 19 -50
q0 -9 -12 -33zM214 353l-31 6q8 39 22 39q24 0 24 -36q0 -110 62 -186q66 -81 174 -81q89 0 170 54q77 51 120 132q7 13 19 13q19 0 19 -20q0 -4 -1 -9q-108 -303 -385 -303q-161 0 -276 110.5t-115 271.5q0 175 104 279t279 104q133 0 215 -69q72 -61 120 -193
q8 -23 -15 -27zM190 339q-10 8 -6 27q4 18 17 21l487 86q-44 110 -106 159q-69 55 -183 55q-158 0 -250.5 -92.5t-92.5 -250.5q0 -144 103.5 -243t247.5 -99q169 0 268 127q-99 -74 -210 -74q-118 0 -195 84q-74 80 -80 200zM391 610q-81 0 -124 -68l-28 -65l276 55
q-32 78 -124 78zM490 620q57 -37 71 -99q4 -20 -16 -24l-336 -67q-15 -3 -22 6q-6 8 0 22q13 34 44 101l1 3q47 89 155 89q57 0 103 -31z" />
    <glyph glyph-name="eacute" unicode="&#xe9;" horiz-adv-x="808" 
d="M492 1035q-20 -19 -56 -68q-39 -54 -43 -72l1 -2l7 -16q13 -28 -18 -28h-176q-16 0 -21 10q-5 11 6 23q72 85 169 310q5 12 18 12h207q33 0 33 -64q0 -20 -10 -25q-82 -47 -117 -80zM353 889v4q0 27 45 90q37 53 66 80q36 35 112 79l-6 22h-178q-44 -104 -63 -142
q-38 -77 -80 -133h104zM214 353l-31 6q8 39 22 39q24 0 24 -36q0 -110 62 -186q66 -81 174 -81q89 0 170 54q77 51 120 132q7 13 19 13q19 0 19 -20q0 -4 -1 -9q-108 -303 -385 -303q-161 0 -276 110.5t-115 271.5q0 175 104 279t279 104q133 0 215 -69q72 -61 120 -193
q8 -23 -15 -27zM190 339q-10 8 -6 27q4 18 17 21l487 86q-44 110 -106 159q-69 55 -183 55q-158 0 -250.5 -92.5t-92.5 -250.5q0 -144 103.5 -243t247.5 -99q169 0 268 127q-99 -74 -210 -74q-118 0 -195 84q-74 80 -80 200zM391 610q-81 0 -124 -68l-28 -65l276 55
q-32 78 -124 78zM490 620q57 -37 71 -99q4 -20 -16 -24l-336 -67q-15 -3 -22 6q-6 8 0 22q13 34 44 101l1 3q47 89 155 89q57 0 103 -31z" />
    <glyph glyph-name="ecircumflex" unicode="&#xea;" horiz-adv-x="808" 
d="M493 859q-23 0 -23 17q0 11 11 19l28 21q3 3 8 10q-23 29 -89 111q-63 -68 -65 -94l6 -37l2 -10q4 -43 -15 -43q-8 0 -22 4l-4 2h-219q-23 0 -23 18q0 10 11 18q58 42 162 142q28 33 68 76q31 34 75 92q15 20 31 1q98 -100 276 -316q22 -31 -16 -31h-202zM330 897l-1 3
l-6 42q-2 26 39 85t69 59q8 0 14 -6q96 -119 112 -141q3 -4 3 -10q0 -23 -28 -45l-27 -21l-12 36h163q-25 33 -235 263q-29 -37 -64 -77q-20 -19 -66 -76q-73 -69 -122 -110q116 0 161 -2zM214 353l-31 6q8 39 22 39q24 0 24 -36q0 -110 62 -186q66 -81 174 -81q89 0 170 54
q77 51 120 132q7 13 19 13q19 0 19 -20q0 -4 -1 -9q-108 -303 -385 -303q-161 0 -276 110.5t-115 271.5q0 175 104 279t279 104q133 0 215 -69q72 -61 120 -193q8 -23 -15 -27zM190 339q-10 8 -6 27q4 18 17 21l487 86q-44 110 -106 159q-69 55 -183 55q-158 0 -250.5 -92.5
t-92.5 -250.5q0 -144 103.5 -243t247.5 -99q169 0 268 127q-99 -74 -210 -74q-118 0 -195 84q-74 80 -80 200zM391 610q-81 0 -124 -68l-28 -65l276 55q-32 78 -124 78zM490 620q57 -37 71 -99q4 -20 -16 -24l-336 -67q-15 -3 -22 6q-6 8 0 22q13 34 44 101l1 3
q47 89 155 89q57 0 103 -31z" />
    <glyph glyph-name="edieresis" unicode="&#xeb;" horiz-adv-x="808" 
d="M549 883q-118 -2 -124 94v3q-5 87 120 99q118 0 126 -94v-3q7 -96 -122 -99zM549 923q81 2 82 57q-10 59 -84 59q-81 -8 -82 -58q8 -60 84 -58zM260 883q-118 -2 -124 94v3q-6 92 119 99h2q117 6 125 -94v-3q7 -96 -122 -99zM260 923q81 2 82 57q-10 59 -84 59
q-81 -9 -82 -58q8 -60 84 -58zM214 353l-31 6q8 39 22 39q24 0 24 -36q0 -110 62 -186q66 -81 174 -81q89 0 170 54q77 51 120 132q7 13 19 13q19 0 19 -20q0 -4 -1 -9q-108 -303 -385 -303q-161 0 -276 110.5t-115 271.5q0 175 104 279t279 104q133 0 215 -69
q72 -61 120 -193q8 -23 -15 -27zM190 339q-10 8 -6 27q4 18 17 21l487 86q-44 110 -106 159q-69 55 -183 55q-158 0 -250.5 -92.5t-92.5 -250.5q0 -144 103.5 -243t247.5 -99q169 0 268 127q-99 -74 -210 -74q-118 0 -195 84q-74 80 -80 200zM391 610q-81 0 -124 -68
l-28 -65l276 55q-32 78 -124 78zM490 620q57 -37 71 -99q4 -20 -16 -24l-336 -67q-15 -3 -22 6q-6 8 0 22q13 34 44 101l1 3q47 89 155 89q57 0 103 -31z" />
    <glyph glyph-name="igrave" unicode="&#xec;" horiz-adv-x="463" 
d="M252 849q-28 0 -12 43q0 12 -11 29q-82 127 -203 193q-10 6 -10 27q0 63 33 63h207q13 0 18 -12q55 -128 72 -162q44 -86 97 -148q11 -12 6 -23q-5 -10 -21 -10h-176zM252 889h134q-58 77 -143 275h-178l-6 -22q121 -71 204 -199q18 -28 18 -50q0 -8 -11 -32zM129 -20
q-23 0 -23 12q0 14 54 66q14 19 14 42v430q0 49 -30 64q-27 9 -41.5 17t-42.5 36q-31 31 -31 48q0 13 22 13h299q20 0 20 -20v-588q0 -20 4 -29l1 -3q17 -17 33 -34q27 -29 27 -42q0 -12 -22 -12h-284zM178 20h186l-7 8q-15 16 -20 28q-7 19 -7 44v568h-234q17 -17 25 -21
l3 -1q10 -7 34 -14l3 -1q53 -27 53 -101v-430q0 -38 -24 -68z" />
    <glyph glyph-name="iacute" unicode="&#xed;" horiz-adv-x="463" 
d="M321 1035q-20 -20 -56 -68q-39 -53 -43 -72l1 -2l7 -16q13 -28 -18 -28h-176q-16 0 -21 10q-5 11 6 23q72 85 169 310q5 12 18 12h207q33 0 33 -63q0 -21 -10 -27q-79 -42 -117 -79zM182 889v4q0 27 45 90q37 52 66 80q39 38 112 79l-6 22h-178q-44 -104 -63 -142
q-38 -77 -80 -133h104zM129 -20q-23 0 -23 12q0 14 54 66q14 19 14 42v430q0 49 -30 64q-27 9 -41.5 17t-42.5 36q-31 31 -31 48q0 13 22 13h299q20 0 20 -20v-588q0 -20 4 -29l1 -3q17 -17 33 -34q27 -29 27 -42q0 -12 -22 -12h-284zM178 20h186l-7 8q-15 16 -20 28
q-7 19 -7 44v568h-234q17 -17 25 -21l3 -1q10 -7 34 -14l3 -1q53 -27 53 -101v-430q0 -38 -24 -68z" />
    <glyph glyph-name="icircumflex" unicode="&#xee;" horiz-adv-x="654" 
d="M417 859q-23 0 -23 17q0 11 11 19l28 21q3 3 8 10q-22 29 -89 111q-63 -68 -65 -94l6 -37l2 -10q4 -43 -15 -43q-8 0 -22 4l-4 2h-218q-23 0 -23 18q0 10 11 18q57 42 161 142q28 33 68 76q29 32 76 92q15 20 31 1q97 -100 275 -315q23 -32 -16 -32h-202zM254 897l-1 3
l-6 42q-2 26 39 85t69 59q8 0 13 -6q98 -119 114 -141q3 -5 3 -10q0 -22 -29 -45l-27 -21l-12 36h163q-18 23 -234 263q-30 -37 -65 -77q-20 -19 -66 -76q-73 -69 -122 -110q116 0 161 -2zM224 -20q-23 0 -23 12q0 14 54 66q14 19 14 42v430q0 49 -30 64q-26 9 -41 17
t-43 36q-31 31 -31 48q0 13 22 13h299q20 0 20 -20v-588q0 -20 4 -29l1 -3q17 -17 33 -34q27 -29 27 -42q0 -12 -22 -12h-284zM273 20h186l-7 8q-15 16 -20 28q-7 19 -7 44v568h-234q17 -16 25 -21l2 -1q2 -1 35 -14l3 -1q53 -21 53 -101v-430q0 -38 -24 -68z" />
    <glyph glyph-name="idieresis" unicode="&#xef;" horiz-adv-x="566" 
d="M429 883q-118 -2 -124 94v3q-5 87 120 99q118 0 126 -94v-3q7 -96 -122 -99zM429 923q81 2 82 57q-10 59 -84 59q-81 -8 -82 -58q8 -60 84 -58zM140 883q-118 -2 -124 94v3q-6 92 119 99h2q117 6 125 -94v-3q7 -96 -122 -99zM140 923q81 2 82 57q-10 59 -84 59
q-81 -9 -82 -58q8 -60 84 -58zM180 -20q-23 0 -23 12q0 14 54 66q14 19 14 42v430q0 49 -30 64q-26 9 -41 17t-43 36q-31 31 -31 48q0 13 22 13h299q20 0 20 -20v-588q0 -20 4 -29l1 -3q17 -17 33 -34q27 -29 27 -42q0 -12 -22 -12h-284zM229 20h186l-7 8q-15 16 -20 28
q-7 19 -7 44v568h-234q17 -16 25 -21l2 -1q2 -1 35 -14l3 -1q53 -21 53 -101v-430q0 -38 -24 -68z" />
    <glyph glyph-name="eth" unicode="&#xf0;" horiz-adv-x="983" 
d="M906 966q-36 -53 -84 -81q70 -137 70 -309q0 -246 -110 -415q-130 -200 -365 -193q-187 6 -301 165q-86 120 -86 242q0 164 106 261q103 94 268 90q109 -3 179 -69t70 -174q0 -37 -10 -78q-4 -18 -19 -18q-18 0 -20 21q-7 86 -78 141q-54 41 -104 41q-74 0 -124 -82
q-46 -78 -46 -182q0 -83 33 -146q46 -90 141 -92q124 -3 182 198q40 137 40 312q0 142 -39 261q-20 1 -36 1q-61 0 -135 -37l-109 -75q-7 -5 -15 -5q-17 0 -17 18q0 6 3 13q52 108 83 145q55 66 144 78h3h3q-58 58 -145 58q-82 0 -183 -57q-6 -4 -10 -4q-14 0 -33 44
q-24 51 -48 69l-90 65q-11 8 -11 18q0 19 24 18q326 -9 383 -19q202 -37 326 -187q61 12 100 37q44 33 89 67q8 6 16 6q17 0 17 -18q0 -6 -3 -12q-35 -80 -59 -116zM611 514q-10 83 -77 131q-63 43 -152 43q-122 0 -211 -77q-101 -88 -101 -236q0 -109 78 -218
q108 -151 288 -151t293 149q123 162 123 421q0 173 -75 308q-10 19 10 28q63 29 107 113q-66 -48 -152 -65q-12 -2 -20 8q-110 139 -284 176q-67 15 -338 22q76 -54 105 -123q99 52 183 52q127 0 202 -103q6 -9 6 -15q0 -15 -62 -20q-104 -21 -164 -132l49 33q71 42 154 42
q65 0 70 -15q45 -131 45 -287q0 -194 -46 -339q-68 -215 -218 -211q-102 3 -161 89q-52 77 -52 190q0 123 58 210q64 96 168 93q46 -1 99 -38q48 -34 75 -78z" />
    <glyph glyph-name="ntilde" unicode="&#xf1;" horiz-adv-x="834" 
d="M686 900q-57 -35 -117 -35q-22 0 -44 5l-2 1l-68 19l-88 36q-49 19 -91 19q-26 0 -54 -4l-128 -31q-4 -1 -8 -1q-20 0 -20 17q0 9 9 17q76 74 108 96q61 42 127 42q26 0 55 -6l2 -1l70 -20l106 -45q71 -11 113 -9h2q1 0 4 2l26 7q20 6 97 29q5 2 9 2q19 0 19 -17
q0 -9 -7 -18q-75 -79 -120 -105zM660 960v0q-40 -4 -126 10l-5 2l-107 45l-64 18q-21 4 -40 4q-79 0 -159 -72l56 14q22 4 61 4q71 0 195 -58l61 -17q19 -3 36 -3q75 0 152 70l-54 -16q-3 -1 -6 -1zM532 -33q-22 0 -23 43q-1 38 8 57q80 146 80 310q0 200 -180 200
q-72 0 -129 -60q-7 -8 -8 -12v-378q0 -22 13 -39l54 -36q19 -13 19 -54q0 -31 -21 -31h-309q-23 0 -23 12q0 14 55 67q16 18 16 41v489q0 14 -34.5 55.5t-34.5 53.5t22 12h223q20 0 20 -20v-21q104 54 233 54q165 0 269 -171l2 -3q26 -70 26 -161q0 -73 -74 -234l-2 -12
q5 -17 33.5 -44.5t31.5 -35.5q20 -58 20 -61q0 -21 -20 -21h-267zM553 7h218l-8 25q-68 64 -69 96v4l3 18l2 5q71 155 71 220q0 82 -23 145q-92 150 -234 150q-137 0 -242 -65q-31 -19 -31 17v35h-156q40 -47 40 -81v-489q0 -43 -27 -69l-11 -11h235l-3 16l-50 33l-5 5
q-23 29 -23 66v378q0 40 72 79q64 33 105 33q220 0 220 -240q0 -172 -82 -325z" />
    <glyph glyph-name="ograve" unicode="&#xf2;" horiz-adv-x="850" 
d="M445 849q-29 0 -11 44q0 16 -41 72q-36 50 -57 70q-35 33 -117 80q-10 5 -10 25q0 64 33 64h207q13 0 18 -12q55 -127 72 -162q43 -85 97 -148q11 -12 6 -23q-5 -10 -21 -10h-176zM445 889h134q-59 78 -143 275h-178l-6 -22q78 -45 117 -84q34 -34 87 -115q19 -30 19 -50
q0 -9 -12 -33zM425 -38q-179 0 -291 100q-118 105 -118 282q0 181 116 284q110 99 293 99q178 0 291 -101q119 -106 119 -282q0 -178 -117 -282q-113 -100 -293 -100zM690 91q105 93 105 253q0 159 -107 253q-102 90 -263 90q-166 0 -265 -87q-104 -91 -104 -256
q0 -160 106 -253q101 -89 263 -89q164 0 265 89zM575 526q-52 83 -150 83q-101 0 -153 -87q-43 -71 -43 -178q0 -104 44 -177q53 -87 152 -87q100 0 153 86q44 73 44 178q0 108 -47 182zM662 344q0 -122 -55 -206q-64 -98 -182 -98q-117 0 -181 98q-55 85 -55 206
q0 124 54 207q63 98 182 98q118 0 182 -98q55 -83 55 -207z" />
    <glyph glyph-name="oacute" unicode="&#xf3;" horiz-adv-x="850" 
d="M514 1035q-20 -19 -56 -68q-39 -54 -43 -72l1 -2l7 -16q13 -28 -18 -28h-176q-16 0 -21 10q-5 11 6 23q72 85 169 310q5 12 18 12h207q33 0 33 -64q0 -20 -10 -25q-82 -47 -117 -80zM375 889v4q0 27 45 90q37 53 66 80q36 35 112 79l-6 22h-178q-44 -104 -63 -142
q-38 -77 -80 -133h104zM425 -38q-179 0 -291 100q-118 105 -118 282q0 181 116 284q110 99 293 99q178 0 291 -101q119 -106 119 -282q0 -178 -117 -282q-113 -100 -293 -100zM690 91q105 93 105 253q0 159 -107 253q-102 90 -263 90q-166 0 -265 -87q-104 -91 -104 -256
q0 -160 106 -253q101 -89 263 -89q164 0 265 89zM575 526q-52 83 -150 83q-101 0 -153 -87q-43 -71 -43 -178q0 -104 44 -177q53 -87 152 -87q100 0 153 86q44 73 44 178q0 108 -47 182zM662 344q0 -122 -55 -206q-64 -98 -182 -98q-117 0 -181 98q-55 85 -55 206
q0 124 54 207q63 98 182 98q118 0 182 -98q55 -83 55 -207z" />
    <glyph glyph-name="ocircumflex" unicode="&#xf4;" horiz-adv-x="850" 
d="M515 859q-23 0 -23 17q0 11 11 19l28 21q3 3 8 10q-23 29 -89 111q-63 -68 -65 -94l6 -37l2 -10q4 -43 -15 -43q-8 0 -22 4l-4 2h-219q-23 0 -23 18q0 10 11 18q58 42 162 142q28 33 68 76q31 34 75 92q15 20 31 1q98 -100 276 -316q22 -31 -16 -31h-202zM352 897l-1 3
l-6 42q-2 26 39 85t69 59q8 0 14 -6q96 -119 112 -141q3 -4 3 -10q0 -23 -28 -45l-27 -21l-12 36h163q-25 33 -235 263q-29 -37 -64 -77q-20 -19 -66 -76q-73 -69 -122 -110q116 0 161 -2zM425 -38q-179 0 -291 100q-118 105 -118 282q0 181 116 284q110 99 293 99
q178 0 291 -101q119 -106 119 -282q0 -178 -117 -282q-113 -100 -293 -100zM690 91q105 93 105 253q0 159 -107 253q-102 90 -263 90q-166 0 -265 -87q-104 -91 -104 -256q0 -160 106 -253q101 -89 263 -89q164 0 265 89zM575 526q-52 83 -150 83q-101 0 -153 -87
q-43 -71 -43 -178q0 -104 44 -177q53 -87 152 -87q100 0 153 86q44 73 44 178q0 108 -47 182zM662 344q0 -122 -55 -206q-64 -98 -182 -98q-117 0 -181 98q-55 85 -55 206q0 124 54 207q63 98 182 98q118 0 182 -98q55 -83 55 -207z" />
    <glyph glyph-name="otilde" unicode="&#xf5;" horiz-adv-x="850" 
d="M671 900q-57 -35 -117 -35q-22 0 -44 5l-2 1l-68 19l-88 36q-49 19 -91 19q-26 0 -54 -4l-128 -31q-4 -1 -8 -1q-20 0 -20 17q0 9 9 17q76 74 108 96q61 42 127 42q26 0 55 -6l2 -1l70 -20l106 -45q71 -11 113 -9h2q1 0 4 2l26 7q20 6 97 29q5 2 9 2q19 0 19 -17
q0 -9 -7 -18q-75 -79 -120 -105zM645 960v0q-40 -4 -126 10l-5 2l-107 45l-64 18q-21 4 -40 4q-79 0 -159 -72l56 14q22 4 61 4q71 0 195 -58l61 -17q19 -3 36 -3q75 0 152 70l-54 -16q-3 -1 -6 -1zM425 -38q-179 0 -291 100q-118 105 -118 282q0 181 116 284q110 99 293 99
q178 0 291 -101q119 -106 119 -282q0 -178 -117 -282q-113 -100 -293 -100zM690 91q105 93 105 253q0 159 -107 253q-102 90 -263 90q-166 0 -265 -87q-104 -91 -104 -256q0 -160 106 -253q101 -89 263 -89q164 0 265 89zM575 526q-52 83 -150 83q-101 0 -153 -87
q-43 -71 -43 -178q0 -104 44 -177q53 -87 152 -87q100 0 153 86q44 73 44 178q0 108 -47 182zM662 344q0 -122 -55 -206q-64 -98 -182 -98q-117 0 -181 98q-55 85 -55 206q0 124 54 207q63 98 182 98q118 0 182 -98q55 -83 55 -207z" />
    <glyph glyph-name="odieresis" unicode="&#xf6;" horiz-adv-x="850" 
d="M570 883q-117 -2 -124 94v3q-6 86 120 99q119 0 126 -94v-3q7 -96 -122 -99zM570 923q81 2 82 58q-9 58 -84 58q-81 -8 -82 -58q9 -60 84 -58zM281 883q-117 -2 -124 94v3q-6 92 119 99h2q118 6 125 -94v-3q7 -96 -122 -99zM281 923q81 2 82 58q-9 58 -84 58
q-81 -9 -82 -58q9 -60 84 -58zM425 -38q-179 0 -291 100q-118 105 -118 282q0 181 116 284q110 99 293 99q178 0 291 -101q119 -106 119 -282q0 -178 -117 -282q-113 -100 -293 -100zM690 91q105 93 105 253q0 159 -107 253q-102 90 -263 90q-166 0 -265 -87
q-104 -91 -104 -256q0 -160 106 -253q101 -89 263 -89q164 0 265 89zM575 526q-52 83 -150 83q-101 0 -153 -87q-43 -71 -43 -178q0 -104 44 -177q53 -87 152 -87q100 0 153 86q44 73 44 178q0 108 -47 182zM662 344q0 -122 -55 -206q-64 -98 -182 -98q-117 0 -181 98
q-55 85 -55 206q0 124 54 207q63 98 182 98q118 0 182 -98q55 -83 55 -207z" />
    <glyph glyph-name="divide" unicode="&#xf7;" horiz-adv-x="830" 
d="M419 774h-2q-118 -6 -124 113v2q-5 104 121 116q117 0 124 -111v-3q7 -110 -119 -117zM416 814q81 9 82 76q-10 75 -82 75q-82 -8 -83 -75q8 -76 83 -76zM673 566q-8 -4 -14 -5h-623q-17 0 -22 11q-4 12 8 24l136 127q8 4 14 5h623q17 0 22 -11q4 -12 -8 -24zM651 601
l93 87h-564l-93 -87h564zM418 285q-119 0 -125 113v2q-5 105 121 117q117 0 124 -112v-3q7 -104 -120 -117zM416 325q81 8 82 76q-10 76 -82 76q-82 -8 -83 -76q8 -76 83 -76z" />
    <glyph glyph-name="oslash" unicode="&#xf8;" horiz-adv-x="852" 
d="M427 -43q-83 0 -155 25q-45 -78 -45 -109q0 -20 -20 -20h-171q-15 0 -20 10t4 22l92 125l31 47q-125 109 -125 288q0 180 116 287q112 103 293 103q56 0 117 -15l12 23l5 16l-1 6l-18 28q-26 50 -26 57q0 12 8 17q41 26 63 26h197q35 0 17 -30l-122 -202
q158 -104 158 -316q0 -177 -115.5 -282.5t-294.5 -105.5zM797 345q0 201 -155 293q-18 10 -7 27l114 188h-162q-6 0 -26 -11l15 -29l19 -29l2 -6q7 -23 -4 -49l-1 -3q-23 -55 -44 -49q-63 18 -121 18q-165 0 -265 -92q-104 -95 -104 -258q0 -169 124 -268q6 -6 6 -15
q0 -16 -44 -75l-68 -94h113q7 32 27 76q27 58 49 58q6 0 66 -15t96 -15q162 0 266 94.5t104 253.5zM588 510l-251 -410q12 -7 25 -14q34 -10 65 -10q100 0 153 89q44 74 44 180q0 97 -36 165zM604 560q60 -85 60 -215q0 -123 -55 -209q-64 -100 -182 -100q-38 0 -78 12l-3 1
q-56 28 -56 46q0 5 3 9l278 454q16 26 33 2zM427 616q-101 0 -153 -90q-43 -74 -43 -181q0 -63 15 -115l232 379q-23 7 -51 7zM427 656q102 0 102 -36q0 -6 -4 -11l-266 -434q-20 -33 -35 2q-33 73 -33 168q0 125 53 210q64 101 183 101z" />
    <glyph glyph-name="ugrave" unicode="&#xf9;" horiz-adv-x="783" 
d="M412 849q-28 0 -12 43q0 12 -11 29q-82 127 -203 193q-10 6 -10 27q0 63 33 63h207q13 0 18 -12q55 -128 72 -162q44 -86 97 -148q11 -12 6 -23q-5 -10 -21 -10h-176zM412 889h134q-58 77 -143 275h-178l-6 -22q121 -71 204 -199q18 -28 18 -50q0 -8 -11 -32zM530 164
q35 74 35 141q0 160 -98 305l-3 7q-14 73 -14 72q0 24 20 24h269q20 0 20 -25q0 -44 -23 -66q-54 -50 -60 -70l2 -10l60 -99q30 -56 30 -138q0 -326 -355 -341q-290 -12 -362 187q-26 73 -26 145q0 73 74 234l2 11q-6 17 -33 41t-32 40q-20 58 -20 61q0 21 20 21h267
q22 0 23 -43q1 -38 -8 -57q-80 -146 -80 -310q0 -131 33 -160l3 -2q34 -44 156 -48q56 22 78 49q6 12 22 31zM545 118l-5 -7q-28 -43 -97 -65h-2l-4 -1l-6 -1q-140 4 -188 61q-45 42 -45 189q0 172 82 325l2 45h-218l8 -25q64 -63 69 -94v-6l-3 -18l-2 -5q-71 -155 -71 -220
q0 -64 23 -128q26 -75 71 -107q82 -58 233 -58q173 0 256 74q80 72 80 228q0 63 -26 121l-60 99l-3 6l-3 16v5q1 32 68 96l8 25h-218l9 -44q102 -154 102 -324q0 -35 -17 -100q-20 -79 -43 -87z" />
    <glyph glyph-name="uacute" unicode="&#xfa;" horiz-adv-x="783" 
d="M481 1035q-20 -20 -56 -68q-39 -53 -43 -72l1 -2l7 -16q13 -28 -18 -28h-176q-16 0 -21 10q-5 11 6 23q72 85 169 310q5 12 18 12h207q33 0 33 -63q0 -21 -10 -27q-79 -42 -117 -79zM342 889v4q0 27 45 90q37 52 66 80q39 38 112 79l-6 22h-178q-44 -104 -63 -142
q-38 -77 -80 -133h104zM530 164q35 74 35 141q0 160 -98 305l-3 7q-14 73 -14 72q0 24 20 24h269q20 0 20 -25q0 -44 -23 -66q-54 -50 -60 -70l2 -10l60 -99q30 -56 30 -138q0 -326 -355 -341q-290 -12 -362 187q-26 73 -26 145q0 73 74 234l2 11q-6 17 -33 41t-32 40
q-20 58 -20 61q0 21 20 21h267q22 0 23 -43q1 -38 -8 -57q-80 -146 -80 -310q0 -131 33 -160l3 -2q34 -44 156 -48q56 22 78 49q6 12 22 31zM545 118l-5 -7q-28 -43 -97 -65h-2l-4 -1l-6 -1q-140 4 -188 61q-45 42 -45 189q0 172 82 325l2 45h-218l8 -25q64 -63 69 -94v-6
l-3 -18l-2 -5q-71 -155 -71 -220q0 -64 23 -128q26 -75 71 -107q82 -58 233 -58q173 0 256 74q80 72 80 228q0 63 -26 121l-60 99l-3 6l-3 16v5q1 32 68 96l8 25h-218l9 -44q102 -154 102 -324q0 -35 -17 -100q-20 -79 -43 -87z" />
    <glyph glyph-name="ucircumflex" unicode="&#xfb;" horiz-adv-x="783" 
d="M482 859q-23 0 -23 17q0 11 11.5 19t35.5 31q-23 29 -90 111q-64 -70 -64 -95q0 -1 5 -35l1 -2q9 -52 -14 -52q-8 0 -21 5l-4 1h-219q-23 0 -23 18q0 10 11 18q58 42 161 142q28 33 68 76q29 32 76 92q16 20 32 0q97 -99 275 -315q21 -31 -17 -31h-201zM319 897l-1 3
q-6 27 -6 42q0 27 40 85.5t67 58.5q8 0 13 -6q98 -119 114 -141q4 -5 4 -11q0 -22 -56 -65l-12 36h162q-42 56 -114 134q-111 118 -120 129q-30 -37 -65 -77q-20 -19 -66 -76q-72 -69 -121 -110q116 0 161 -2zM530 164q35 74 35 141q0 160 -98 305l-3 7q-14 73 -14 72
q0 24 20 24h269q20 0 20 -25q0 -44 -23 -66q-54 -50 -60 -70l2 -10l60 -99q30 -56 30 -138q0 -326 -355 -341q-290 -12 -362 187q-26 73 -26 145q0 73 74 234l2 11q-6 17 -33 41t-32 40q-20 58 -20 61q0 21 20 21h267q22 0 23 -43q1 -38 -8 -57q-80 -146 -80 -310
q0 -131 33 -160l3 -2q34 -44 156 -48q56 22 78 49q6 12 22 31zM545 118l-5 -7q-28 -43 -97 -65h-2l-4 -1l-6 -1q-140 4 -188 61q-45 42 -45 189q0 172 82 325l2 45h-218l8 -25q64 -63 69 -94v-6l-3 -18l-2 -5q-71 -155 -71 -220q0 -64 23 -128q26 -75 71 -107
q82 -58 233 -58q173 0 256 74q80 72 80 228q0 63 -26 121l-60 99l-3 6l-3 16v5q1 32 68 96l8 25h-218l9 -44q102 -154 102 -324q0 -35 -17 -100q-20 -79 -43 -87z" />
    <glyph glyph-name="udieresis" unicode="&#xfc;" horiz-adv-x="783" 
d="M537 883q-117 -2 -124 94v3q-6 86 120 99q119 0 126 -94v-3q7 -96 -122 -99zM537 923q81 2 82 58q-9 58 -84 58q-81 -8 -82 -58q9 -60 84 -58zM248 883q-117 -2 -124 94v3q-6 92 119 99h2q118 6 125 -94v-3q7 -96 -122 -99zM248 923q81 2 82 58q-9 58 -84 58
q-81 -9 -82 -58q9 -60 84 -58zM530 164q35 74 35 141q0 160 -98 305l-3 7q-14 73 -14 72q0 24 20 24h269q20 0 20 -25q0 -44 -23 -66q-54 -50 -60 -70l2 -10l60 -99q30 -56 30 -138q0 -326 -355 -341q-290 -12 -362 187q-26 73 -26 145q0 73 74 234l2 11q-6 17 -33 41
t-32 40q-20 58 -20 61q0 21 20 21h267q22 0 23 -43q1 -38 -8 -57q-80 -146 -80 -310q0 -131 33 -160l3 -2q34 -44 156 -48q56 22 78 49q6 12 22 31zM545 118l-5 -7q-28 -43 -97 -65h-2l-4 -1l-6 -1q-140 4 -188 61q-45 42 -45 189q0 172 82 325l2 45h-218l8 -25
q64 -63 69 -94v-6l-3 -18l-2 -5q-71 -155 -71 -220q0 -64 23 -128q26 -75 71 -107q82 -58 233 -58q173 0 256 74q80 72 80 228q0 63 -26 121l-60 99l-3 6l-3 16v5q1 32 68 96l8 25h-218l9 -44q102 -154 102 -324q0 -35 -17 -100q-20 -79 -43 -87z" />
    <glyph glyph-name="yacute" unicode="&#xfd;" horiz-adv-x="874" 
d="M539 1035q-20 -20 -56 -68q-39 -53 -43 -72l1 -2l7 -16q13 -28 -18 -28h-176q-16 0 -21 10q-5 11 6 23q72 85 169 310q5 12 18 12h207q33 0 33 -63q0 -21 -10 -27q-79 -42 -117 -79zM400 889v4q0 27 45 90q37 52 66 80q39 38 112 79l-6 22h-178q-44 -104 -63 -142
q-38 -77 -80 -133h104zM803 629q-16 -19 -16 -43v-497q0 -109 -13 -169q-18 -79 -70 -157q-125 -185 -367 -185q-228 0 -315 160q-6 13 3 23l124 145q8 10 16 10q13 0 28 -54l1 -5q0 -71 50 -115t122 -44q83 0 152 70t71 153q0 21 1 85q-111 -58 -212 -58q-165 0 -261 88
q-101 91 -101 254q0 95 91 257q-7 20 -36.5 47t-31.5 36q-12 55 -12 53q0 25 20 25h267q20 0 20 -24q0 1 -14 -74l-3 -7q-88 -133 -88 -313q0 -206 182 -206q71 0 133 31q47 23 47 43v387q0 23 -13 40l-54 37q-19 13 -19 55q0 31 21 31h313q23 0 23 -12q0 -14 -59 -67z
M154 -149l-90 -105q80 -128 273 -128q127 0 211 51q75 46 149 156q50 74 50 264v497q0 39 28 71l12 11h-237l3 -17l50 -34l5 -5q23 -29 23 -67v-387q0 -54 -88 -88q-69 -26 -132 -26q-107 0 -167 71q-55 66 -55 175q0 190 92 332l9 46h-218l5 -23q70 -63 70 -97
q0 -17 -21 -52q-30 -50 -44 -81q-26 -62 -26 -125q0 -146 89 -226q85 -76 233 -76q105 0 223 69q12 7 21 2t9 -19q-3 -150 -14 -188q-23 -86 -116 -148q-69 -46 -135 -46q-87 0 -147 52q-63 55 -65 141z" />
    <glyph glyph-name="thorn" unicode="&#xfe;" horiz-adv-x="930" 
d="M500 -43q-107 0 -187 39v-142q0 -50 19 -77q32 -19 196 -19q23 0 23 -19q0 -16 -18 -20q-217 -57 -265 -94q-77 -60 -105 -60q-9 0 -14 6q-32 37 -32 63v1134q0 48 -78 90q-23 22 -23 64q0 21 17 24q66 11 287 149q9 5 15 5q17 0 16 -45q-2 -29 -5 -57l-1 -5
q-32 -103 -32 -158v-140q88 38 187 38q186 0 295 -88q120 -95 120 -278q0 -185 -114.5 -297.5t-300.5 -112.5zM59 892q98 -55 98 -124v-1134q0 -9 13 -26q27 12 74 49q38 29 155 66q-73 6 -97 27q-29 27 -29 104v176q0 36 31 17q80 -50 196 -50q170 0 272.5 100t102.5 270
q0 166 -108 250q-98 76 -267 76q-106 0 -198 -48q-29 -15 -29 18v172q0 60 33 168l3 38q-92 -57 -123 -74q-77 -43 -129 -57zM651 538q-55 74 -151 74q-41 0 -109 -30q-78 -35 -78 -70v-305q0 -42 74 -88q68 -42 113 -42q90 0 150 105q52 89 52 185q0 103 -51 171zM742 367
q0 -113 -63 -214q-71 -116 -179 -116q-63 0 -142 53q-85 57 -85 117v305q0 56 89 101q77 39 138 39q115 0 181 -88q61 -79 61 -197z" />
    <glyph glyph-name="ydieresis" unicode="&#xff;" horiz-adv-x="874" 
d="M595 883q-117 -2 -124 94v3q-6 86 120 99q119 0 126 -94v-3q7 -96 -122 -99zM595 923q81 2 82 58q-9 58 -84 58q-81 -8 -82 -58q9 -60 84 -58zM306 883q-117 -2 -124 94v3q-6 92 119 99h2q118 6 125 -94v-3q7 -96 -122 -99zM306 923q81 2 82 58q-9 58 -84 58
q-81 -9 -82 -58q9 -60 84 -58zM803 629q-16 -19 -16 -43v-497q0 -109 -13 -169q-18 -79 -70 -157q-125 -185 -367 -185q-228 0 -315 160q-6 13 3 23l124 145q8 10 16 10q13 0 28 -54l1 -5q0 -71 50 -115t122 -44q83 0 152 70t71 153q0 21 1 85q-111 -58 -212 -58
q-165 0 -261 88q-101 91 -101 254q0 95 91 257q-7 20 -36.5 47t-31.5 36q-12 55 -12 53q0 25 20 25h267q20 0 20 -24q0 1 -14 -74l-3 -7q-88 -133 -88 -313q0 -206 182 -206q71 0 133 31q47 23 47 43v387q0 23 -13 40l-54 37q-19 13 -19 55q0 31 21 31h313q23 0 23 -12
q0 -14 -59 -67zM154 -149l-90 -105q80 -128 273 -128q127 0 211 51q75 46 149 156q50 74 50 264v497q0 39 28 71l12 11h-237l3 -17l50 -34l5 -5q23 -29 23 -67v-387q0 -54 -88 -88q-69 -26 -132 -26q-107 0 -167 71q-55 66 -55 175q0 190 92 332l9 46h-218l5 -23
q70 -63 70 -97q0 -17 -21 -52q-30 -50 -44 -81q-26 -62 -26 -125q0 -146 89 -226q85 -76 233 -76q105 0 223 69q12 7 21 2t9 -19q-3 -150 -14 -188q-23 -86 -116 -148q-69 -46 -135 -46q-87 0 -147 52q-63 55 -65 141z" />
    <glyph glyph-name="OE" unicode="&#x152;" horiz-adv-x="1782" 
d="M1189 640v-27q0 -69 -9 -130v-379l13 -2h244l39 4q108 25 178 93l6 5q51 20 63 20q14 0 14 -19q0 -3 -8 -72q1 -18 21 -62q18 -40 15 -50q-18 -47 -56 -47h-765q-12 0 -30.5 20.5t-18.5 37.5q0 10 7 15l65 47q17 22 22 34q0 15 2 40l1 4v25l35 -14q-198 -211 -425 -211
q-238 0 -403 162q-183 179 -183 479q0 301 183 478q166 161 403 161q227 0 386 -143q-6 21 -22 42q-72 52 -72 60q0 11 33 53q6 7 16 7h766q18 0 37.5 -18t19.5 -35q0 -6 -2 -11q-34 -71 -35 -95l7 -70q0 -21 -14 -21q-12 0 -63 20l-6 5q-70 68 -178 93l-39 4l-40 2l-217 -4
v-368h532q20 0 20 -15q0 -9 -62 -143l-2 -5q-30 -37 -59 -75q-27 -33 -40 -33q-9 0 -15 11q-46 79 -115 107q-52 21 -144 21q-14 0 -51 -1h-54zM1031 164q-2 -26 -2 -39l-1 -6q-6 -20 -31 -52l-4 -4l-50 -36l11 -13h755q8 0 15 14q-37 78 -35 106v2l4 38l-14 -6
q-87 -84 -196 -102h-2l-42 -4h-249q-50 3 -50 24v401q9 120 9 126v51q5 16 40 16q179 -1 212 -7q106 -21 171 -116l62 77l46 99h-521q-20 0 -20 20v406q0 21 51 24h2l205 2l42 -2l43 -4q109 -18 196 -102l15 -6l-4 39q0 32 35 106q-7 14 -15 15h-756l-11 -13l50 -36l4 -4
q36 -46 36 -97v-24q0 -17 -12 -22q-11 -4 -23 8q-157 169 -395 169q-221 0 -375 -149q-171 -166 -171 -450q0 -283 171 -451q153 -150 375 -150q209 0 395 199q12 12 24 8q11 -5 11 -22v-28zM887 956q-102 165 -285 165q-193 0 -293 -166q-81 -137 -81 -342q0 -202 83 -341
q100 -168 291 -168q193 0 292 167q82 137 82 342q0 200 -89 343zM921 978q95 -153 95 -365q0 -222 -92 -371q-111 -178 -322 -178q-209 0 -321 179q-93 151 -93 370q0 222 92 370q111 178 322 178q205 0 319 -183z" />
    <glyph glyph-name="oe" unicode="&#x153;" horiz-adv-x="1419" 
d="M840 351q3 -105 66 -178q67 -78 170 -78q89 0 170 54q77 51 120 132q7 13 19 13q19 0 19 -20q0 -4 -1 -9q-108 -303 -385 -303q-162 0 -281 121q-116 -121 -312 -121q-179 0 -291 100q-118 105 -118 282q0 181 116 284q110 99 293 99q188 0 303 -113q107 113 282 113
q133 0 215 -69q72 -61 120 -193q8 -23 -15 -27zM1018 2q169 0 268 127q-99 -74 -210 -74q-123 0 -202 94q-74 88 -74 213v6q0 17 16 20l483 85q-44 110 -106 159q-69 55 -183 55q-169 0 -266 -115q-14 -17 -30 -1q-106 116 -289 116q-166 0 -265 -87q-104 -91 -104 -256
q0 -160 106 -253q101 -89 263 -89q191 0 297 124q15 17 30 0q111 -124 266 -124zM1002 610q-81 0 -124 -68l-28 -65l276 55q-32 78 -124 78zM1101 620q57 -37 71 -99q4 -20 -16 -24l-336 -67q-15 -3 -22 6q-6 8 0 22q13 34 44 101l1 3q47 89 155 89q57 0 103 -31zM575 526
q-52 83 -150 83q-101 0 -153 -87q-43 -71 -43 -178q0 -104 44 -177q53 -87 152 -87q100 0 153 86q44 73 44 178q0 108 -47 182zM662 344q0 -122 -55 -206q-64 -98 -182 -98q-117 0 -181 98q-55 85 -55 206q0 124 54 207q63 98 182 98q118 0 182 -98q55 -83 55 -207z" />
    <glyph glyph-name="Scaron" unicode="&#x160;" horiz-adv-x="1003" 
d="M688 1444q-119 -125 -140 -151q-16 -20 -32 0q-47 61 -76 92q-20 21 -69 77q-37 47 -160 141q-11 8 -11 19q0 17 23 17h220q15 5 25 5q22 0 13 -52l-1 -3l-2 -11q-3 -18 -3 -22q0 -25 64 -95q68 83 90 110l-4 5l-3.5 3.5t-29.5 23.5q-10 9 -10 19q0 17 23 17h201
q38 0 17 -31q-52 -76 -135 -164zM658 1599q19 -25 12 -38q-5 -10 -115 -143q-5 -6 -13 -6q-27 0 -68 60q-39 57 -39 84q0 7 3 30l3 11v2h-160q89 -71 122 -111q43 -53 65 -75q36 -41 65 -76q82 84 234 262h-109zM808 62q-145 -84 -354 -84q-69 0 -232 29q-206 37 -206 81
q0 5 2 8q53 120 58 144q8 32 9 155q0 23 18 23q13 0 20 -14q143 -290 372 -290q270 0 270 156q0 132 -160 191l-358 92q-223 82 -223 288q0 163 149 286q95 78 175 102q66 20 196 20q61 0 197 -24q179 -31 179 -73q0 -4 -2 -8l-25 -54q-17 -26 -28 -59l-2 -21q2 -34 2 -52
q0 -17 -1 -22l-1 -3q-4 -14 -27 -37q-26 -25 -42 -25q-12 0 -16 16q-57 227 -295 227q-235 0 -235 -215q0 -106 157 -150l361 -99q222 -75 222 -288q0 -197 -180 -300zM788 96q160 92 160 266q0 171 -195 250l-358 99q-187 51 -187 188q0 124 77 191q73 64 198 64
q253 0 325 -227q13 12 17 19v12q0 4 -1 21t-1 30v3l2 25l1 4q13 39 33 70l14 31q-161 67 -329 67q-124 0 -184 -18q-73 -21 -161 -94q-135 -111 -135 -256q0 -178 195 -250l358 -92q188 -69 188 -229q0 -196 -310 -196q-224 0 -371 245q-2 -72 -15 -111q-4 -12 -46 -109
q207 -81 391 -81q198 0 334 78z" />
    <glyph glyph-name="scaron" unicode="&#x161;" horiz-adv-x="705" 
d="M526 1012q-119 -125 -140 -151q-16 -20 -32 0q-34 44 -76 92q-22 20 -69 77q-36 46 -160 141q-11 8 -11 19q0 17 23 17h220q15 5 25 5q21 0 13 -52l-1 -2l-5 -34q0 -25 64 -95q68 83 90 110l-4 5l-3.5 3.5t-29.5 23.5q-10 9 -10 19q0 17 23 17h201q38 0 17 -31
q-52 -76 -135 -164zM496 1167q19 -25 12 -38q-5 -10 -115 -143q-5 -6 -13 -6q-27 0 -68 60q-39 57 -39 84q0 14 6 41v2h-160q89 -72 122 -111q46 -57 65 -75q36 -41 65 -76q82 84 234 262h-109zM356 -34q-146 0 -235 59q-105 70 -105 210q0 16 26 23q20 5 40 9l2 1
q29 10 96 34q7 2 12 2q14 0 14 -18q0 -9 -3.5 -26t-3.5 -21q0 -61 48.5 -108t108.5 -47q138 0 138 98q0 52 -115 88q-35 5 -184 54l-3 1q-120 46 -120 179q0 111 102 172q85 51 202 51q258 0 292 -208q3 -18 -16 -23q-78 -17 -126 -51q-10 -7 -16 -7q-12 0 -19 44
q-9 57 -26 83q-30 44 -97 44q-100 0 -100 -113q0 -38 109 -70q162 -46 204 -68q109 -57 109 -157q0 -113 -116 -179q-96 -56 -218 -56zM552 55q98 56 98 146q0 85 -109 132q-102 32 -204 63q-109 38 -109 100q0 153 140 153q141 0 163 -154q40 22 94 36q-37 156 -249 156
q-100 0 -173 -40q-91 -50 -91 -143q0 -95 96 -142l183 -54q143 -45 143 -126q0 -68 -58 -106q-49 -32 -120 -32q-76 0 -136.5 59t-60.5 136q0 6 1 13q-22 -8 -63 -22q-21 -7 -41 -11q12 -213 300 -213q109 0 196 49z" />
    <glyph glyph-name="Ydieresis" unicode="&#x178;" horiz-adv-x="1308" 
d="M822 1308h-3q-118 -8 -124 116v2q-6 115 120 122h2q115 6 123 -117v-2q7 -113 -118 -121zM818 1348q81 11 82 80q-10 79 -82 80q-82 -9 -83 -81q8 -78 83 -79zM532 1308h-2q-118 -6 -124 116v2q-6 115 120 122h2q115 6 124 -116v-3q9 -114 -120 -121zM529 1348
q82 9 83 80q-13 79 -83 80q-82 -9 -83 -81q8 -79 83 -79zM391 -196q15 -7 24 -14l66 -22q39 -17 46 -46q6 -25 -19 -25l-327 -6q-14 0 -19 9q-6 9 2 22l376 599l-145 268l-212 404l-163 229q-23 32 16 32h392q15 0 39 -19t24 -36q0 -7 -7 -13q-60 -47 -60 -82
q0 -106 258 -561l172 248q149 223 156 282q-4 38 -65.5 87.5t-61.5 58.5t21 14l72 14h297q38 0 16 -31q-250 -361 -866 -1356q-12 -18 -32 -56zM425 1214h-350l143 -202l363 -683q5 -10 -1 -20l-362 -577l232 4q-36 11 -52 17l-6 4q-7 6 -23 12l-5 3q-15 11 -15 29
q0 16 40 81q363 586 415 667q238 378 431 658h-257l-21 -4q93 -71 93 -128v-4q0 -68 -163 -309q-95 -134 -191 -268q-18 -27 -33 1q-279 489 -279 609q0 48 57 98q-5 4 -16 12z" />
    <glyph glyph-name="florin" unicode="&#x192;" horiz-adv-x="964" 
d="M358 746l11 120q22 113 63 157l3 3q73 79 130 110q69 37 170 37q87 0 155 -64q59 -56 59 -104q0 -21 -16 -25l-22 -6l-5 -1q-11 0 -134 -71q-7 -4 -14 -4q-18 0 -18 17q0 8 6 15l46 68q-15 40 -109 40q-48 0 -84 -66q-29 -53 -34 -107l-12 -135l275 -2q20 0 20 -19
q0 -27 -31.5 -70.5t-47.5 -43.5l-228 2l-46 -500q-18 -194 -140 -319q-125 -129 -318 -138q-24 -1 -24 19q0 13 15 20q242 98 271 422l45 497q-32 -1 -72.5 -3t-51.5 -2q-35 0 -35 16q0 12 37 86q11 7 27 45q12 82 35 82q9 0 31 -31q24 -36 43 -45zM830 981q26 15 73 32l3 1
q-10 49 -64.5 84t-106.5 35q-88 0 -152 -37q-35 -21 -120 -99q-36 -47 -54 -137q-5 -63 -10 -125q-5 -44 -21 -44q-12 0 -37 19q-28 14 -49 41q-7 -33 -10 -43q-8 -21 -26 -35l-19 -37l50 4q43 4 67 0q34 -5 32 -24l-47 -519q-25 -274 -195 -400q135 39 218 152
q80 107 93 252l48 518q2 18 20 18l235 -2l34 53l-261 2q-22 0 -22 43q0 22 7 67q8 56 9 69q6 71 46 134q47 75 112 75q136 0 151 -80q1 -9 -4 -17z" />
    <glyph glyph-name="circumflex" unicode="&#x2c6;" horiz-adv-x="601" 
d="M450 733q-3 -3 -9 -3q-40 0 -185 100q-120 -99 -162 -99q-4 0 -7 2q-72 47 -72 59t36 36q55 36 111 72q57 40 107 108q5 7 14 7q19 0 65 -41q58 -51 71 -59q43 -26 153 -60q15 -5 16 -16q2 -11 -11 -19zM436 771l85 59q-83 27 -125 53q-31 20 -108 84q-48 -61 -216 -176
l26 -17q116 69 142 95q12 12 25 2q110 -76 171 -100z" />
    <glyph glyph-name="tilde" unicode="&#x2dc;" horiz-adv-x="774" 
d="M633 1107q-57 -35 -117 -35q-22 0 -44 5l-2 1l-68 19l-88 36q-50 19 -91 19q-26 0 -54 -4l-128 -31q-4 -1 -8 -1q-20 0 -20 17q0 9 9 17q76 74 108 96q61 42 126 42q27 0 56 -6l3 -1l68 -20l107 -45q71 -11 113 -9h2q1 0 4 2l26 7q20 6 97 29q5 2 9 2q19 0 19 -17
q0 -9 -7 -18q-75 -79 -120 -105zM607 1167v0q-40 -4 -126 10l-5 2l-108 45l-63 18q-21 4 -40 4q-79 0 -159 -72l56 14q22 4 61 4q71 0 195 -58l61 -17q19 -3 36 -3q75 0 152 70l-54 -16q-3 -1 -6 -1z" />
    <glyph glyph-name="endash" unicode="&#x2013;" horiz-adv-x="740" 
d="M580 442q-7 -2 -11 -3h-533q-23 0 -23 18q0 11 12 19l136 86q7 2 11 3h533q23 0 23 -18q0 -11 -12 -19zM563 479l73 46h-458l-73 -46h458z" />
    <glyph glyph-name="emdash" unicode="&#x2014;" horiz-adv-x="1100" 
d="M938 442q-7 -2 -11 -3h-891q-23 0 -23 18q0 11 12 19l136 86q7 2 11 3h893q23 0 23 -18q0 -11 -12 -19zM921 479l74 46h-817l-73 -46h816z" />
    <glyph glyph-name="quoteleft" unicode="&#x2018;" horiz-adv-x="277" 
d="M137 909q-121 0 -121 116q0 84 98 185q54 57 121 57q22 0 22 -16q0 -5 -2 -11l-5 -13l-3 -5q-53 -66 -61 -123h32q40 0 43 -40v-2l1 -37q1 -49 -37 -80t-88 -31zM193 1216q-47 -19 -92 -80.5t-45 -110.5q0 -76 81 -76q33 0 59.5 19t25.5 50l-1 36q0 4 -1 5h-2h-53
q-20 0 -20 20q0 65 48 137z" />
    <glyph glyph-name="quoteright" unicode="&#x2019;" horiz-adv-x="277" 
d="M164 966q-55 -57 -121 -57q-22 0 -22 16q0 5 2 11l5 13l3 5q52 66 60 123h-31q-41 0 -44 40v3v37q0 110 125 110q121 0 121 -116q0 -84 -98 -185zM84 960q48 19 93 80.5t45 110.5q0 76 -81 76q-85 0 -85 -70v-35q1 -3 1 -5h3h53q20 0 20 -20q-1 -66 -49 -137z" />
    <glyph glyph-name="quotesinglbase" unicode="&#x201a;" horiz-adv-x="277" 
d="M164 -137q-55 -57 -121 -57q-22 0 -22 16q0 5 2 11l5 13l3 5q52 66 60 123h-31q-41 0 -44 40v3v37q0 110 125 110q121 0 121 -116q0 -84 -98 -185zM84 -143q48 19 93 80.5t45 110.5q0 76 -81 76q-85 0 -85 -70v-35q1 -3 1 -5h3h53q20 0 20 -20q-1 -66 -49 -137z" />
    <glyph glyph-name="quotedblleft" unicode="&#x201c;" horiz-adv-x="557" 
d="M503 938q-38 -29 -86 -29q-121 0 -121 116q0 84 98 185q54 57 121 57q22 0 22 -16q0 -5 -2 -11l-5 -13l-3 -5q-53 -66 -61 -123h32q40 0 43 -42v-2q5 -83 -38 -117zM473 1216q-47 -19 -92 -80.5t-45 -110.5q0 -76 81 -76q33 0 59.5 19t25.5 50l-1 35q0 1 -3 6h-53
q-20 0 -20 20q0 65 48 137zM223 938q-38 -29 -86 -29q-121 0 -121 116q0 84 98 185q54 57 121 57q22 0 22 -16q0 -5 -2 -11l-5 -13l-3 -5q-53 -66 -61 -123h32q40 0 43 -42v-2q5 -83 -38 -117zM193 1216q-47 -19 -92 -80.5t-45 -110.5q0 -76 81 -76q33 0 59.5 19t25.5 50
l-1 35q0 1 -3 6h-53q-20 0 -20 20q0 65 48 137z" />
    <glyph glyph-name="quotedblright" unicode="&#x201d;" horiz-adv-x="557" 
d="M444 966q-55 -57 -121 -57q-22 0 -22 16q0 5 2 11l5 13l3 5q52 66 60 123h-31q-41 0 -44 40v3v37q0 110 125 110q121 0 121 -116q0 -84 -98 -185zM364 960q48 19 93 80.5t45 110.5q0 76 -81 76q-85 0 -85 -70v-35q1 -3 1 -5h3h53q20 0 20 -20q-1 -66 -49 -137zM164 966
q-55 -57 -121 -57q-22 0 -22 16q0 5 2 11l5 13l3 5q52 66 60 123h-31q-41 0 -44 40v3v37q0 110 125 110q121 0 121 -116q0 -84 -98 -185zM84 960q48 19 93 80.5t45 110.5q0 76 -81 76q-85 0 -85 -70v-35q1 -3 1 -5h3h53q20 0 20 -20q-1 -66 -49 -137z" />
    <glyph glyph-name="quotedblbase" unicode="&#x201e;" horiz-adv-x="567" 
d="M454 -137q-55 -57 -121 -57q-22 0 -22 16q0 5 2 11l5 13l3 5q52 66 60 123h-31q-41 0 -44 40v3v37q0 110 125 110q121 0 121 -116q0 -84 -98 -185zM374 -143q48 19 93 80.5t45 110.5q0 76 -81 76q-85 0 -85 -70v-35q1 -3 1 -5h3h53q20 0 20 -20q-1 -66 -49 -137z
M164 -137q-55 -57 -121 -57q-22 0 -22 16q0 5 2 11l5 13l3 5q52 66 60 123h-31q-41 0 -44 40v3v37q0 110 125 110q121 0 121 -116q0 -84 -98 -185zM84 -143q48 19 93 80.5t45 110.5q0 76 -81 76q-85 0 -85 -70v-35q1 -3 1 -5h3h53q20 0 20 -20q-1 -66 -49 -137z" />
    <glyph glyph-name="dagger" unicode="&#x2020;" horiz-adv-x="770" 
d="M679 855q-1 -19 -20 -19h-184v-909q0 -66 4 -85q6 -26 34 -77q17 -30 -17 -30h-211q-34 0 -17 30q27 50 34 82l4 81v908h-270q-23 0 -23 18q0 12 13 19q39 23 58 65q16 35 28 35h194v71l-4 80q-2 13 -20 50q-17 33 -17 46q0 16 20 16h211q20 0 20 -16q0 -14 -17 -45
q-18 -36 -20 -42q-4 -18 -4 -89v-71h260q23 0 23 -18q0 -11 -12 -19q-65 -41 -67 -81zM642 876q7 29 35 57h-222q-20 0 -20 20v91q0 98 27 152h-144q21 -43 24 -65v-3l4 -84v-91q0 -20 -20 -20h-199q-11 -32 -34 -57h233q20 0 20 -20l-4 -1015q-3 -23 -24 -66h144
q-27 54 -27 152v929q0 20 20 20h187z" />
    <glyph glyph-name="daggerdbl" unicode="&#x2021;" horiz-adv-x="770" 
d="M679 5q-1 -19 -20 -19h-184v-59q0 -66 4 -85q6 -26 34 -77q17 -30 -17 -30h-211q-34 0 -17 30q27 50 34 82l4 81v58h-270q-23 0 -23 18q0 12 13 19q39 23 58 65q16 35 28 35h194v713h-270q-23 0 -23 18q0 12 13 19q39 23 58 65q16 35 28 35h194v71l-4 80q-2 13 -20 50
q-17 33 -17 46q0 16 20 16h211q20 0 20 -16q0 -14 -17 -45q-18 -36 -20 -42q-4 -18 -4 -89v-71h260q23 0 23 -18q0 -11 -12 -19q-65 -41 -67 -81q-1 -19 -20 -19h-184v-713h260q23 0 23 -18q0 -11 -12 -19q-65 -41 -67 -81zM642 26q7 29 35 57h-222q-20 0 -20 20v753
q0 20 20 20h187q7 29 35 57h-222q-20 0 -20 20v91q0 98 27 152h-144q21 -43 24 -65v-3l4 -84v-91q0 -20 -20 -20h-199q-11 -32 -34 -57h233q20 0 20 -20v-753q0 -20 -20 -20h-199q-11 -32 -34 -57h233q20 0 20 -20v-79l-4 -86q-3 -23 -24 -66h144q-27 54 -27 152v79
q0 20 20 20h187z" />
    <glyph glyph-name="bullet" unicode="&#x2022;" horiz-adv-x="713" 
d="M356 445q-144 0 -240 85q-100 89 -100 232q0 140 103 230q97 85 239 85q144 0 240 -84q100 -88 100 -231t-101 -232q-96 -85 -241 -85zM658 762q0 126 -88 203q-84 72 -212 72q-125 0 -211 -74q-91 -78 -91 -201q0 -126 88 -203q84 -74 212 -74t213 74q89 77 89 203z" />
    <glyph glyph-name="ellipsis" unicode="&#x2026;" horiz-adv-x="1026" 
d="M880 -35q-131 0 -131 107q0 50 42 80q37 26 89 26t89 -26q42 -30 42 -80q0 -49 -40.5 -78t-90.5 -29zM971 72q0 66 -91 66t-91 -66q0 -67 91 -67q33 0 60 16q31 20 31 51zM511 -35q-130 0 -130 107q0 106 130 106q51 0 89 -26q43 -30 43 -80q0 -49 -43 -80
q-38 -27 -89 -27zM603 72q0 66 -92 66q-90 0 -90 -66q0 -67 90 -67q34 0 61 16q31 19 31 51zM147 -35q-131 0 -131 107q0 50 42 80q37 26 89 26t89 -26q42 -30 42 -80q0 -49 -40.5 -78t-90.5 -29zM238 72q0 66 -91 66t-91 -66q0 -67 91 -67q33 0 60 16q31 20 31 51z" />
    <glyph glyph-name="perthousand" unicode="&#x2030;" horiz-adv-x="1795" 
d="M1476 -35q-135 0 -217 78q-85 79 -85 213q0 131 86 213q84 79 216 79q136 0 220 -78.5t84 -213.5q0 -133 -85 -212t-219 -79zM1740 256q0 118 -72.5 185t-191.5 67q-116 0 -189 -68.5t-73 -183.5q0 -117 72 -184t190 -67t191 68t73 183zM359 671q-136 0 -218 77
q-85 78 -85 213q0 133 86 213q83 79 217 79q136 0 219.5 -78.5t83.5 -213.5q0 -133 -84.5 -211.5t-218.5 -78.5zM622 961q0 118 -72 185t-191 67q-117 0 -190 -68t-73 -184q0 -118 72 -184t191 -66q118 0 190.5 67.5t72.5 182.5zM836 1127l-14 24q-15 28 -15 38q0 60 70 60
h218q39 0 16 -32l-764 -1046q-46 -64 -60 -85q-32 -50 -46 -93q-4 -14 -19 -14h-186q-23 0 -23 17q0 10 10 19q85 68 187 208l537 736q88 121 89 168zM315 195l741 1014h-179q-28 0 -30 -16l11 -25q18 -26 18 -35v-5q0 -60 -97 -193l-537 -736q-88 -121 -152 -180h118
q22 59 107 176zM866 -35q-135 0 -217 78q-85 79 -85 213q0 131 86 213q84 79 216 79q136 0 220 -78.5t84 -213.5q0 -133 -85 -212t-219 -79zM1130 256q0 118 -72.5 185t-191.5 67q-116 0 -189 -68.5t-73 -183.5q0 -117 72 -184t190 -67t191 68t73 183zM1553 407
q-30 29 -77 29q-66 0 -100 -61q-27 -48 -27 -119q0 -181 127 -181q66 0 100 61q28 50 28 120q0 102 -51 151zM1644 256q0 -87 -39 -149q-46 -72 -129 -72q-85 0 -130 72q-37 60 -37 149q0 88 38 148q45 72 129 72q85 0 130 -71q38 -60 38 -149zM456 1085q-34 56 -97 56
q-66 0 -100 -61q-27 -48 -27 -119q0 -180 127 -180q66 0 100 61q27 48 27 119q0 73 -30 124zM526 961q0 -88 -38 -148q-45 -72 -129 -72q-167 0 -167 220q0 88 38 148q45 72 129 72q83 0 129 -71q38 -61 38 -149zM943 407q-30 29 -77 29q-66 0 -100 -61q-27 -48 -27 -119
q0 -181 127 -181q66 0 100 61q28 50 28 120q0 102 -51 151zM1034 256q0 -87 -39 -149q-46 -72 -129 -72q-85 0 -130 72q-37 60 -37 149q0 88 38 148q45 72 129 72q85 0 130 -71q38 -60 38 -149z" />
    <glyph glyph-name="guilsinglleft" unicode="&#x2039;" horiz-adv-x="654" 
d="M450 -39q-17 -5 -24 12q-37 97 -176 204q-113 76 -225 152q-13 9 -11 20q1 11 16 16q289 92 349 315q3 13 16 15l196 27q13 2 19.5 -6t2.5 -20q-83 -249 -257 -352q226 -170 282 -315q1 -3 1 -7q0 -22 -68 -38q-60 -12 -121 -23zM457 3l134 33q-63 133 -284 295
q-26 19 3 34q170 85 254 313l-150 -21q-66 -219 -334 -317q195 -132 211 -145q123 -96 166 -192z" />
    <glyph glyph-name="guilsinglright" unicode="&#x203a;" horiz-adv-x="654" 
d="M276 9q-3 -13 -16 -15l-195 -27q-13 -2 -19.5 6t-2.5 20q83 251 257 352q-83 62 -167 147q-117 118 -117 173q0 24 60 44q56 20 107 20q40 0 46 -15q36 -95 177 -203l224 -152q13 -9 11 -20q-1 -11 -16 -16q-289 -91 -349 -314zM241 32q66 219 334 316q-195 132 -211 145
q-124 96 -166 191l-134 -31q64 -133 285 -295q27 -19 -3 -34q-170 -83 -254 -313z" />
    <glyph glyph-name="trademark" unicode="&#x2122;" horiz-adv-x="1145" 
d="M1002 991l-118 -149q-20 -25 -20 -41q-3 -2 -7 -2q-41 0 -182 159v-194q0 -45 54 -97q12 -11 7 -23q-4 -11 -21 -11h-116q-20 0 -20 15q0 10 11.5 38.5t11.5 40.5v312l-16 10q-19 5 -41.5 22t-22.5 30q0 11 20 14l32 4h92q12 -3 15 -7l166 -200l136 173q34 36 47 39
q39 -1 78 -1q24 1 24 -19q0 -13 -15 -20q-25 -10 -27 -19v-5l1 -345q0 -35 16 -46q11 -8 11 -18q0 -18 -23 -18h-96q-22 0 -22 12q0 6 11.5 26.5t12.5 28.5l1 16v275zM642 724q-1 -24 -11 -51h39q-19 26 -28 51zM642 1031q13 11 28 -6l163 -188q7 14 19 29l150 190
q10 12 17 12h1q22 -3 22 -58l-1 -312q-1 -13 -5 -25h21q-6 18 -6 42l-1 350q0 9 3 17l-15 -1l-26 -25l-110 -146q-37 -49 -56 -49q-21 0 -63 55q-114 148 -126 163h-82l-27 -4l11 35q19 -18 39 -22l7 -3q37 -24 37 -35v-19zM514 1061q-11 -8 -18 -28q-11 -52 -24 -52
q-8 0 -24 18q-19 24 -31 31q-15 10 -44 10h-15v-326q0 -13 10 -37.5t10 -31.5q0 -13 -20 -13h-102q-21 0 -21 13q0 7 9 23.5t10 18.5l2 28v292q0 24 -11 32l-2 1h-78q-36 0 -57 -10l-61 -39q-8 -5 -15 -5q-18 0 -18 18q0 7 5 15q21 33 43 66q14 29 14 73q0 23 18 23
q12 0 19 -13q28 -49 89 -49h330q23 0 23 -18q0 -10 -11 -18zM99 1070q27 10 66 10h83q6 -1 9 -2l6 -3q33 -17 33 -68l-3 -327q0 -3 -2 -8h34q-7 19 -7 42v346q0 20 20 20h35q52 0 86 -33q11 31 61 68l12 -36h-330q-54 0 -90 29q-5 -22 -13 -38z" />
    <glyph glyph-name="glyph217" 
 />
    <glyph glyph-name="glyph218" 
 />
    <glyph glyph-name="glyph217" 
 />
    <glyph glyph-name="glyph218" 
 />
    <glyph glyph-name="ch331" 
 />
    <glyph glyph-name="ch332" 
 />
    <glyph glyph-name="ch333" 
 />
    <glyph glyph-name="ch334" 
 />
    <glyph glyph-name="glyph98" horiz-adv-x="1492" 
 />
    <glyph glyph-name="glyph99" horiz-adv-x="1492" 
 />
    <glyph glyph-name="glyph100" horiz-adv-x="1492" 
 />
    <glyph glyph-name="glyph112" horiz-adv-x="396" 
d="M348 1159q9 -13 9 -55v-566q0 -14 20 -44.5t20 -38.5q0 -12 -22 -12h-184q-21 0 -21 13q0 11 16.5 35.5t17.5 27.5l3 47v473l-10 1h-11l-64 -7q-25 -3 -25 17q0 11 11 19l28 21q70 32 190 115q9 10 17 10q16 0 16 -26q0 -19 -11 -30zM317 1147q-53 -30 -160 -91l-25 -19
l-14 36l67 7h13h2l24 -3h3q20 0 20 -20l-4 -546q-1 -10 -12 -28h103q-17 28 -17 55v609z" />
    <glyph glyph-name="glyph113" horiz-adv-x="811" 
d="M400 1070v-10q-14 -28 -14 -65q0 -40 16 -82q2 -6 2 -10q0 -17 -28 -17q7 0 -45 6l-52 -3q-57 -13 -57 12q0 53 23 115q25 71 61 98q90 68 211 68q93 0 155 -42q72 -49 72 -139q0 -204 -297 -442h156q55 0 177 68q16 8 25.5 -0.5t2.5 -25.5l-65 -154q-5 -12 -18 -12
l-501 -2q-20 0 -20 20v29l20 20q-3 -1 -7 -1l4 2q55 37 195 170q178 168 178 271q0 144 -138 144q-39 0 -56 -18zM248 473l464 2l37 89q-83 -45 -146 -45h-214q-23 0 -23 17q0 11 11 19q327 247 327 446q0 72 -60 110q-51 31 -127 31q-108 0 -187 -60q-52 -39 -66 -155l7 1
l4 1l59 3l21 -3q-9 33 -9 66q0 43 15 77q-2 26 36 43q30 13 59 13q81 0 129.5 -51t48.5 -133q0 -160 -369 -458q-10 -8 -17 -13z" />
    <glyph glyph-name="glyph114" horiz-adv-x="746" 
d="M475 422q-100 0 -191 41l-4 2q-96 72 -96 86q0 11 22 13q87 9 167 58q30 19 30 -17v-36q0 -59 58 -59q51 0 85 45q30 41 30 94q0 153 -224 179q-21 3 -21 20t60 32q84 21 112 35q60 29 60 82q0 46 -41 73q-35 22 -84 22q-23 0 -46 -22t-23 -45q0 -40 -14 -40q5 0 -69 11
h-12q-69 0 -69 23q0 5 4 12q89 149 281 149q82 0 148 -34q83 -42 83 -117q0 -113 -112 -164q135 -83 135 -216q0 -104 -84 -169q-77 -58 -185 -58zM329 1030q2 38 36.5 70t72.5 32q66 0 112 -33q53 -38 53 -102q0 -99 -160 -146q173 -49 173 -202q0 -70 -42 -123
q-45 -56 -113 -56q-98 0 -98 101q-51 -27 -106 -39l45 -34q82 -36 173 -36q90 0 156 47q73 52 73 140q0 126 -150 200q-14 7 -14 16q0 13 37 32q24 10 47 21q57 41 57 111q0 56 -72 87q-56 24 -119 24q-152 0 -229 -103q9 -1 13 -1h14h3z" />
    <glyph glyph-name="glyph115" horiz-adv-x="872" 
d="M264 1142q38 40 133 40q43 0 66 -76q16 -54 16 -114q0 -93 -60 -214h163v115q0 20 -70 74q-13 10 -10 22q3 11 19 14q67 9 102 27q106 71 118 71q14 0 13 -22l-3 -49l-1 -5q-19 -61 -19 -92v-155h120q21 0 21 -16q0 -21 -30.5 -56t-44.5 -35h-66v-141q0 -10 2 -19l1 -5
q1 -2 20 -27q17 -21 17 -32q0 -12 -22 -12h-187q-22 0 -22 13q0 10 18.5 35t19.5 29l4 47v112h-343q-16 0 -21 10q-4 11 6 23q129 156 129 286q0 44 -19 65l-62 24q-34 15 -34 31q0 14 26 32zM298 1117l-1 -1l57 -26l6 -4q33 -33 33 -96q0 -136 -112 -279h321q20 0 20 -20
v-134l-4 -51q-3 -15 -13 -31h101q-11 16 -13 29t-2 26v161q0 20 20 20h76l22 27h-98q-20 0 -20 20v175q0 36 20 102l1 6l-69 -45q-29 -15 -72 -25l14 -11q37 -30 37 -67v-135q0 -20 -20 -20h-216q-35 0 -17 30q70 120 70 224q0 117 -48 150q-49 -1 -93 -25z" />
    <glyph glyph-name="glyph128" horiz-adv-x="1492" 
 />
    <glyph glyph-name="glyph129" horiz-adv-x="1492" 
 />
    <glyph glyph-name="glyph227" horiz-adv-x="1492" 
 />
    <glyph glyph-name="glyph228" horiz-adv-x="1492" 
 />
  </font>
</defs>
</svg>
